; Version : LOCAL
; Job     : E:\BOULED\DESIGN\LED_PANEL\PCB\PCB.pcb
; User    : DESKTOP-D6MOGOB:alexis
; Date    : Sat Dec 29 22:08:07 2018
; Format  : 3.3 / Absolute / MM / Leading
; Contents: Thru / Drill / Plated
M48
METRIC,TZ
FMAT,2
ICI,OFF
T01C0.3000
%
M71
G90
G93X0Y0
T01
X174149Y2216
X89298Y1804
X4562Y2702
X7981Y2936
X20969Y4130
X35394Y4156
X49831Y4107
X64069Y4148
X78623Y4147
X92862Y4217
X107043Y4089
X121579Y4183
X135999Y4185
X150022Y4233
X164786Y4180
X17527Y6813
X6192Y6000
X8017Y9295
X30495Y9412
X127331Y12110
X104222Y11928
X68194Y12474
X42537Y12110
X13641Y16606
X13759Y18456
X41395Y20311
X50065Y20306
X64446Y20292
X78909Y20304
X93393Y20302
X107814Y20311
X122191Y20278
X136554Y20308
X150800
X163783Y21443
X35706Y20321
X21462Y20331
X19402Y22604
X81863Y25766
X20966Y29038
X35416Y29063
X49792Y29077
X64107Y29037
X78564Y29061
X92798Y29071
X107210Y29060
X121654Y29077
X136067Y29065
X150355Y29047
X20835Y30918
X22400Y34088
X125512Y37675
X46541Y36765
X30467Y36310
X27977Y41523
X28028Y43368
X35863Y45242
X50153Y45236
X64502Y45212
X78963Y45202
X93371Y45237
X107689Y45219
X122120Y45225
X136445Y45227
X149419Y46362
X126582Y46288
X111863Y45883
X97064Y46045
X84691Y45964
X69217Y46072
X54216Y45908
X32602Y46664
X81865Y49274
X35391Y54023
X35440Y55826
X49822Y53978
X64092Y54003
X78424Y53933
X92861Y53980
X107322Y53972
X121711Y53979
X136010Y53971
X36783Y58921
X115322Y62058
X96580
X75472Y61876
X54001Y62240
X42540Y66431
X42324Y68285
X50116Y70157
X64463Y70134
X78892Y70123
X94611Y69484
X99670Y69769
X107701Y70134
X122055
X135004Y71264
X97701Y71971
X82990Y72810
X47061Y72051
X55916Y73774
X83073Y75343
X91265Y75430
X94514Y75269
X97548Y75967
X108726Y77690
X104181Y78035
X102006Y76477
X81709Y77948
X65560Y77626
X55916Y77514
X49743Y78865
X49791Y80737
X78498Y78897
X87939Y78878
X89208Y79592
X92832Y78898
X121647Y78888
X51166Y83869
X74575Y86272
X91749Y83940
X94205Y84853
X99079Y83996
X104476Y84963
X111340Y86806
X101845Y86842
X90656Y87514
X88782Y87478
X85763Y86380
X54824Y86873
X57029Y91352
X56982Y93193
X64511Y95047
X68102Y95613
X78823Y95046
X83938Y95880
X93306Y95040
X96838Y96147
X107673Y95032
X111674Y95747
X120643Y96161
X62453Y96859
X80568Y99606
X107297Y103808
X92942Y103789
X89361Y102381
X78483Y103799
X75349Y102081
X64111Y103790
X63865Y105650
X65550Y108798
X76450Y111289
X104612Y110963
X69309Y112094
X71183Y116249
X71226Y118106
X78910Y119963
X88867Y121310
X93263Y119949
X97337Y120514
X106267Y121068
X82281Y123203
X79233Y125113
X94346Y127542
X79928Y127565
X78043Y130565
X79933Y133800
X85395Y136569
X87123Y138950
X83691Y137795
X85722Y143032
X91873Y146059
X89241Y148767
T00
M30
