; Version : LOCAL
; Job     : E:\BOULED\DESIGN\MAIN_BOARD\BOULED_MAINBOARD\PCB\PCB.pcb
; User    : DESKTOP-D6MOGOB:alexis
; Date    : Sun Dec 30 04:46:03 2018
; Format  : 3.3 / Absolute / MM / Leading
; Contents: Thru / Drill / Plated
M48
METRIC,TZ
FMAT,2
ICI,OFF
T03C0.3000
T01C0.9000
T02C1.0000
%
M71
G90
G93X0Y0
T03
X44239Y4973
X59309Y5133
X27654Y7365
X16730Y7764
X59229Y9279
X36368Y10453
X31635
X25323Y10770
X22887Y10851
X49581Y12867
X59150Y14542
X39455Y17332
X32996Y17412
X2638Y19995
X19840Y18528
X58990Y19884
X14338Y22196
X1801Y24659
X39774Y24349
X45754Y23791
X59508Y25744
X56837Y25864
X54365Y25784
X51814Y25705
X26458Y25944
X2936Y28974
X17290Y35450
X24002Y34145
X36778
X52571Y33404
X41983Y36402
X40117Y36473
X35983Y35729
X29089
X3015Y38781
X14763Y40535
X20433Y39760
X24591Y40421
X30356Y40626
X37896Y38930
X49027Y38436
X59224Y43109
X42771Y42404
X26201Y43163
X17102Y41705
X18360Y44307
X19511Y43216
X25273Y44019
X28006Y43516
X31328Y44974
X48551Y44907
X52450Y44978
X59277Y46139
X45467Y46266
X43249Y47266
X42893Y48218
X40353Y46724
X39985Y47631
X39037Y48160
X31594Y45999
X30773Y47307
X26378Y47949
X19488Y46122
X19417Y47350
X10978Y46757
Y48059
X31601Y49509
X35942Y49501
X37606Y49256
X41321Y49614
X45904Y49591
X59341Y49104
X59365Y51987
X45715Y52402
X43731Y50937
X38982Y50819
X31598Y52015
X18931Y51162
X18900Y52348
X5445Y51931
X5941Y54270
X9758Y53678
X13365Y55457
X15223Y55473
X24851Y55141
X27396Y55514
X28495Y55598
X31653Y54661
X35061Y53544
Y55418
X36879Y55645
X38014Y55875
X41422Y55041
X45537Y54590
X50058Y55387
X59347Y54831
Y57382
X50003Y58230
X38565Y57093
X35932Y56265
X29678Y57031
X7973Y56839
X10059Y59927
X11218Y59912
X28944Y59283
X30498Y60386
X32725Y58966
X34092Y60186
X52516Y59696
X59382Y59473
X54952Y61954
X25658Y62613
X20784Y61623
X18445Y61464
X2976Y63111
X15631Y64333
X18695Y64281
X26224Y65140
X27305Y63586
X34679Y64031
X44726Y63726
X44845Y64847
X49492Y65409
X52657Y67920
X51834Y67294
X47119Y66207
X43491Y67814
X42546Y68428
X39519Y67420
X29862Y68060
X23212Y68011
X21714Y67390
X20894Y67840
X20088Y67390
X17031Y67415
X9001Y69464
X39413Y70149
X50124Y70954
X52957Y69936
X53760Y69075
X57131Y73069
X52383Y72736
X45685Y72027
X20471Y71209
X12552Y72456
X11118
X18641Y75311
X20380Y74857
X24949Y75205
X47386Y74650
T01
X13850Y2622
X16390
X18930
X21470
X24010
X26550
X29090
X31630
X34170
X36710
X39250
X41790
X44330
X46870
X49410
X51950
X54490
X57030
X59570
X13850Y28022
X16390
X18930
X21470
X24010
X26550
X29090
X31630
X34170
X36710
X39250
X41790
X44330
X46870
X49410
X51950
X54490
X57030
X59570
T02
X57603Y76474
X55063
X52523
X49983
X47443
T00
M30
