*
G04 Job   : E:\BOULED\DESIGN\MAIN_BOARD\BOULED_MAINBOARD\PCB\PCB.pcb*
G04 User  : DESKTOP-D6MOGOB:alexis*
G04 Layer : EtchLayerBottom.gdo*
G04 Date  : Sun Dec 30 04:46:14 2018*
G04 Mentor Graphics Example Gerber Output Definition*
%ICAS*%
%MOIN*%
%FSLAX24Y24*%
%OFA0.0000B0.0000*%
G90*
G74*
%AMVB_RECTANGLE*
21,1,$1,$2,0,0,$3*
%
%ADD10C,0.00000*%
%ADD13C,0.00591*%
%ADD15C,0.01000*%
%ADD14C,0.01575*%
%ADD12C,0.01969*%
%ADD16C,0.02362*%
%ADD11C,0.03937*%
%ADD29C,0.05512*%
%ADD31C,0.05906*%
%ADD28VB_RECTANGLE,0.05512X0.05512X270.00000*%
%ADD32VB_RECTANGLE,0.05906X0.05906X180.00000*%
%ADD26VB_RECTANGLE,0.01299X0.05906X270.00000*%
%ADD21VB_RECTANGLE,0.02638X0.05906X0.00000*%
%ADD73VB_RECTANGLE,0.02756X0.01575X0.00000*%
%ADD17VB_RECTANGLE,0.03543X0.06299X0.00000*%
%ADD22VB_RECTANGLE,0.03543X0.06299X270.00000*%
%ADD27VB_RECTANGLE,0.03937X0.02362X0.00000*%
%ADD72VB_RECTANGLE,0.03937X0.02362X270.00000*%
%ADD18VB_RECTANGLE,0.05118X0.07087X0.00000*%
%ADD25VB_RECTANGLE,0.05906X0.14961X270.00000*%
%ADD23VB_RECTANGLE,0.06693X0.09843X0.00000*%
%ADD19VB_RECTANGLE,0.07087X0.03150X270.00000*%
%ADD70VB_RECTANGLE,0.07087X0.05118X180.00000*%
%ADD71VB_RECTANGLE,0.07087X0.05512X180.00000*%
%ADD20VB_RECTANGLE,0.07087X0.18110X270.00000*%
%ADD30VB_RECTANGLE,0.10039X0.05118X0.00000*%
%ADD24VB_RECTANGLE,0.15748X0.05906X180.00000*%
G01*
G36*
X118Y31348D02*
G02X148Y31378I30D01*
G01X416*
Y18434*
G03X475Y18375I59*
G01X502*
Y2175*
G03X561Y2116I59*
G01X2045*
G03X2105Y2175J59*
G01Y6619*
G03X2045Y6678I60*
G01X561*
G03X502Y6619J59*
G01Y18375*
X1656*
Y12680*
G03X2152Y12184I496*
X2480Y12309J496*
G01Y1145*
G03X2539Y1086I59*
G01X4023*
G03X4082Y1145J59*
G01Y7657*
G03X4023Y7716I59*
G01X2539*
G03X2480Y7657J59*
G01Y12309*
G03X2647Y12680I328J371*
X2152Y13175I495*
X1656Y12680J495*
G01Y17615*
G03X2152Y17120I496*
X2647Y17615J495*
X2152Y18111I495*
X1656Y17615J496*
G01Y18375*
X1971*
G03X2030Y18434J59*
G01Y19024*
G03X1971Y19083I59*
G01X475*
G03X416Y19024J59*
G01Y21072*
G03X475Y21013I59*
G01X1971*
G03X2030Y21072J59*
G01Y21662*
G03X1971Y21721I59*
G01X475*
G03X416Y21662J59*
G01Y31378*
X1656*
Y22540*
G03X2152Y22045I496*
X2542Y22236J495*
G01Y19359*
G03X2621Y19280I79*
G01X3241*
G02X3271Y19251J29*
G01Y18680*
G03X3311Y18582I137*
G01X3527Y18366*
G02X3536Y18345I21J21*
G01Y17843*
G02X3506Y17814I30*
G01X3378*
G03X3353Y17809J79*
G02X3343Y17808I10J28*
G01X3109*
G03X3011Y17767J138*
G01X2888Y17644*
G03X2847Y17547I97J97*
G01Y17027*
G03X2888Y16929I138*
G01X2999Y16818*
Y9194*
G03X3275Y8918I276*
X3550Y9194J276*
X3275Y9469I275*
X2999Y9194J275*
G01Y16818*
X3012Y16805*
G03X3110Y16764I98J97*
G01X3343*
G02X3353Y16763J29*
G03X3378Y16759I25J74*
G01X3969*
G03X4048Y16837J78*
G01Y16967*
G03X4033Y17013I79*
G02X4028Y17030I24J17*
X4033Y17047I29*
G03X4048Y17093I64J46*
G01Y17223*
G03X4033Y17269I79*
G02X4028Y17286I24J17*
X4033Y17303I29*
G03X4048Y17349I64J46*
G01Y17479*
G03X4033Y17525I79*
G02X4028Y17542I24J17*
X4033Y17559I29*
G03X4048Y17605I64J46*
G01Y17735*
G03X3969Y17814I79*
G01X3841*
G02X3812Y17843J29*
G01Y18414*
G03X3771Y18512I138*
G01X3555Y18728*
G02X3546Y18749I21J21*
G01Y19251*
G02X3576Y19280I30*
G01X4125*
Y18921*
G03X4219Y18753I197*
G02X4233Y18728I15J25*
G01Y18602*
G02X4219Y18576I29*
G03X4125Y18408I103J168*
X4322Y18212I197*
X4519Y18408J196*
X4425Y18576I197*
G02X4411Y18602I15J26*
G01Y18728*
G02X4425Y18753I29*
G03X4519Y18921I103J168*
X4322Y19118I197*
X4125Y18921J197*
G01Y19280*
X4196*
G03X4274Y19359J79*
G01Y19487*
G02X4304Y19517I30*
G01X5091*
Y17605*
G03X5106Y17559I79*
G02X5111Y17542I24J17*
X5106Y17525I29*
G03X5091Y17479I64J46*
G01Y17349*
G03X5106Y17303I79*
G02X5111Y17286I24J17*
X5106Y17269I29*
G03X5091Y17223I64J46*
G01Y17093*
G03X5099Y17060I79*
G01Y757*
G03X5177Y678I78*
G01X5728*
G03X5807Y757J79*
G01Y1308*
G03X5728Y1387I79*
G01X5177*
G03X5099Y1308J79*
G01Y10757*
G03X5177Y10678I78*
G01X5728*
G03X5807Y10757J79*
G01Y11308*
G03X5728Y11387I79*
G01X5177*
G03X5099Y11308J79*
G01Y17060*
G03X5115Y17036I71J33*
G02X5125Y17015I20J21*
X5120Y16999I30*
G03X5111Y16967I50J32*
G01Y16837*
G03X5170Y16778I59*
G01X5760*
G03X5819Y16837J59*
G01Y16961*
G02X5849Y16991I30*
X5869Y16983J30*
G03X5921Y16959I61J64*
G02X5945Y16940I3J29*
G03X6019Y16890I74J29*
G01X6099*
Y1032*
G03X6453Y678I354*
X6807Y1032J354*
X6453Y1387I354*
X6099Y1032J355*
G01Y11032*
G03X6453Y10678I354*
X6807Y11032J354*
X6453Y11387I354*
X6099Y11032J355*
G01Y16890*
X6294*
G03X6373Y16969J79*
G01Y17126*
G03X6294Y17205I79*
G01X6019*
G03X5976Y17192J79*
G02X5959Y17187I17J25*
X5939Y17196J30*
G01X5914Y17221*
G03X5854Y17247I63J63*
G02X5829Y17262I1J29*
G03X5824Y17269I69J39*
G02X5819Y17286I24J17*
X5824Y17303I29*
G03X5829Y17310I64J46*
G02X5855Y17325I26J14*
G01X5903*
G03X5924Y17328J89*
G02X5931Y17329I7J29*
X5955Y17316J30*
G03X6019Y17283I64J46*
G01X6294*
G03X6368Y17334J79*
G02X6395Y17352I27J11*
G01X6463*
G02X6493Y17324J29*
G03X6513Y17273I79J2*
G01Y16774*
G03X6572Y16715I59*
G01X6965*
G03X7024Y16774J59*
G01Y17011*
G03X6965Y17070I59*
G01X6572*
G03X6513Y17011J59*
G01Y17273*
G03X6572Y17247I59J53*
G01X6965*
G03X7039Y17297J79*
G02X7066Y17315I27J11*
X7087Y17306J29*
G03X7099Y17296I141J138*
G01Y1032*
G03X7453Y678I354*
X7807Y1032J354*
X7453Y1387I354*
X7099Y1032J355*
G01Y11032*
G03X7453Y10678I354*
X7807Y11032J354*
X7453Y11387I354*
X7099Y11032J355*
G01Y17296*
G03X7228Y17247I129J148*
X7425Y17444J197*
X7228Y17641I197*
X7087Y17581J197*
G02X7066Y17572I21J21*
X7039Y17591J30*
G03X6965Y17641I74J29*
G01X6572*
G03X6493Y17562J79*
G01Y17560*
G02X6468Y17531I30*
G03X6464Y17530I15J87*
G02X6458I6J29*
G01X6395*
G02X6368Y17548J29*
G03X6294Y17598I74J28*
G01X6019*
G03X5945Y17548J78*
G02X5921Y17529I27J10*
G03X5874Y17509I9J88*
G02X5855Y17503I19J23*
X5829Y17518J29*
G03X5824Y17525I69J39*
G02X5819Y17542I24J17*
X5824Y17559I29*
G03X5839Y17605I64J46*
G01Y17735*
G03X5760Y17814I79*
G01X5170*
G03X5091Y17735J79*
G01Y19517*
X6517*
G02X6546Y19487J30*
G01Y19254*
G02X6517Y19224I29*
G01X6369*
G03X6290Y19146J78*
G01Y18791*
G03X6310Y18739I79*
G01Y18161*
G03X6369Y18102I59*
G01X6999*
G03X7058Y18161J59*
G01Y18516*
G03X6999Y18575I59*
G01X6369*
G03X6310Y18516J59*
G01Y18739*
G03X6369Y18713I59J52*
G01X6999*
G03X7078Y18791J78*
G01Y18801*
G02X7107Y18831I29*
G01X7501*
Y17270*
G03X7560Y17211I59*
G01X7769*
Y16541*
G03X7788Y16489I78*
G01Y15989*
G03X7847Y15930I59*
G01X8099*
Y1032*
G03X8453Y678I354*
X8807Y1032J354*
X8453Y1387I354*
X8099Y1032J355*
G01Y11032*
G03X8453Y10678I354*
X8807Y11032J354*
X8453Y11387I354*
X8099Y11032J355*
G01Y15930*
X8241*
G03X8300Y15989J59*
G01Y16226*
G03X8241Y16285I59*
G01X7847*
G03X7788Y16226J59*
G01Y16489*
G03X7847Y16462I59J52*
G01X8241*
G03X8320Y16541J79*
G01Y16777*
G03X8241Y16856I79*
G01X8162*
G02X8133Y16885J29*
G01Y16900*
G02X8142Y16921I29*
G01X8255Y17035*
G03X8281Y17097I63J62*
G01Y17162*
G02X8310Y17191I29*
G01X8324*
G03X8403Y17270J79*
G01Y17860*
G03X8324Y17939I79*
G01X8060*
G03X7982Y17860J79*
G01Y17270*
G03X8060Y17191I78*
G01X8074*
G02X8104Y17162J29*
G01Y17146*
G02X8095Y17125I30*
G01X7982Y17012*
G03X7956Y16949I62J63*
G01Y16885*
G02X7926Y16856I30*
G01X7847*
G03X7769Y16777J79*
G01Y17211*
X7824*
G03X7883Y17270J59*
G01Y17860*
G03X7824Y17919I59*
G01X7560*
G03X7501Y17860J59*
G01Y18831*
X7972*
G03X8069Y18871J138*
G01X8290Y19092*
G03X8330Y19178I98J97*
G02X8349Y19203I29J3*
G03X8403Y19278I25J75*
G01Y19868*
G03X8324Y19947I79*
G01X8060*
G03X7982Y19868J79*
G01Y19278*
G03X7999Y19228I78*
G02X8006Y19210I23J18*
X7997Y19189I30*
G01X7923Y19115*
G02X7902Y19106I21J21*
G01X7107*
G02X7078Y19136J30*
G01Y19146*
G03X6999Y19224I79*
G01X6852*
G02X6822Y19254J30*
G01Y19571*
G03X6798Y19648I138*
G02X6793Y19665I25J17*
X6795Y19674I30*
G03X6801Y19717I131J43*
G01Y20590*
G03X6761Y20687I137*
G01X6725Y20723*
G02X6716Y20744I21J21*
X6746Y20774I30*
G01X6991*
G03X7070Y20853J79*
G01Y21364*
G03X6991Y21443I79*
G01X5987*
G03X5909Y21364J79*
G01Y20853*
G03X5987Y20774I78*
G01X6323*
G02X6353Y20748J30*
G03X6392Y20667I136J16*
G01X6517Y20541*
G02X6526Y20520I21J21*
G01Y19822*
G02X6496Y19792I30*
G01X4304*
G02X4274Y19822J30*
G01Y19950*
G03X4196Y20028I78*
G02X4166Y20058J30*
X4196Y20087I30*
G03X4255Y20146J59*
G01Y20737*
G03X4196Y20796I59*
G01X2621*
G03X2562Y20737J59*
G01Y20146*
G03X2621Y20087I59*
G02X2650Y20058J29*
X2621Y20028I29*
G03X2542Y19950J78*
G01Y22236*
G03X2647Y22540I390J304*
X2152Y23036I495*
X1656Y22540J496*
G01Y27473*
G03X2152Y26978I496*
X2647Y27473J495*
X2152Y27968I495*
X1656Y27473J495*
G01Y31378*
X3763*
Y23593*
G03X3960Y23397I197*
X4128Y23491J196*
G02X4153Y23505I25J16*
G01X4172*
G02X4182Y23503J30*
G03X4210Y23499I28J84*
G01X4223*
G02X4249Y23485J30*
G03X4416Y23391I167J102*
X4432J196*
G01Y20853*
G03X4491Y20794I59*
G01X5495*
G03X5554Y20853J59*
G01Y21364*
G03X5495Y21423I59*
G01X4491*
G03X4432Y21364J59*
G01Y23391*
G03X4613Y23587I16J196*
X4416Y23784I197*
X4251Y23694J197*
G02X4226Y23680I25J15*
X4220J29*
G03X4204Y23682I16J87*
G01X4153*
G02X4128Y23696J30*
G03X3960Y23790I168J103*
X3763Y23593J197*
G01Y31378*
X4180*
Y28526*
G03X4377Y28329I197*
X4545Y28423J197*
G02X4570Y28438I25J15*
G01X4749*
G02X4774Y28423J30*
G03X4942Y28329I168J103*
X5139Y28526J197*
X4942Y28723I197*
X4774Y28629J197*
G02X4749Y28615I25J15*
G01X4570*
G02X4545Y28629J29*
G03X4377Y28723I168J103*
X4180Y28526J197*
G01Y31378*
X5835*
Y23960*
G03X5894Y23901I59*
G01X6603*
G03X6662Y23960J59*
G01Y24472*
G03X6603Y24531I59*
G01X5894*
G03X5835Y24472J59*
G01Y31378*
X5957*
Y25328*
G03X6154Y25131I197*
X6322Y25225J197*
G02X6347Y25240I25J15*
G01X6377*
G02X6394Y25234J30*
G03X6444Y25219I50J74*
G01X7167*
G02X7192Y25205J30*
G03X7360Y25111I168J103*
X7482Y25153J197*
G01Y19278*
G03X7560Y19199I78*
G01X7824*
G03X7903Y19278J79*
G01Y19868*
G03X7824Y19947I79*
G01X7810*
G02X7781Y19977J30*
G01Y21154*
G02X7789Y21175I29*
G01X8122Y21508*
G03X8148Y21570I63J62*
G01Y21930*
G02X8178Y21960I30*
G01X8237*
G03X8315Y22038J78*
G01Y22668*
G03X8237Y22747I78*
G01X8178*
G02X8148Y22777J30*
G01Y22895*
G02X8157Y22915I30*
G01X8227Y22985*
G02X8248Y22994I21J20*
G01X9442*
G02X9463Y22985J29*
G01X9512Y22937*
G02X9521Y22916I21J21*
X9491Y22886I30*
G01X9371*
G03X9292Y22808J78*
G01Y22099*
G03X9371Y22020I79*
G01X9883*
G03X9961Y22099J79*
G01Y22808*
G03X9883Y22886I78*
G01X9745*
G02X9715Y22916J30*
G01Y22947*
G03X9689Y23010I88*
G01X9554Y23145*
G03X9491Y23171I63J62*
G01X8199*
G03X8136Y23145J88*
G01X7997Y23006*
G03X7971Y22943I62J63*
G01Y22777*
G02X7941Y22747I30*
G01X7882*
G03X7804Y22668J79*
G01Y22038*
G03X7882Y21960I78*
G01X7941*
G02X7971Y21930J30*
G01Y21619*
G02X7962Y21598I30*
G01X7630Y21266*
G03X7604Y21203I62J63*
G01Y19977*
G02X7574Y19947I30*
G01X7560*
G03X7482Y19868J79*
G01Y25153*
G03X7557Y25308I122J155*
X7360Y25504I197*
X7192Y25410J196*
G02X7167Y25396I25J16*
G01X6490*
G02X6473Y25401J30*
G03X6423Y25417I50J73*
G01X6347*
G02X6322Y25431J29*
G03X6154Y25525I168J103*
X5957Y25328J197*
G01Y31378*
X6091*
Y28409*
G03X6170Y28330I79*
G01X6485*
G03X6528Y28343J79*
G02X6544Y28348I16J25*
X6560Y28343J30*
G03X6603Y28330I43J66*
G01X6642*
G02X6672Y28301J29*
G01Y27611*
G02X6663Y27590I30*
G01X6642Y27569*
G03X6616Y27507I63J62*
G01Y26735*
G02X6602Y26709I29*
G03X6508Y26541I103J168*
X6705Y26345I197*
X6902Y26541J196*
X6808Y26709I197*
G02X6794Y26735I15J26*
G01Y27458*
G02X6802Y27479I29*
G01X6823Y27499*
G03X6849Y27562I63J63*
G01Y28301*
G02X6878Y28330I29*
G01X6918*
G03X6973Y28353J79*
G02X6993Y28361I20J22*
X7007Y28357J30*
G03X7036Y28350I29J52*
G01X7351*
G03X7379Y28357J59*
G02X7393Y28361I14J26*
X7414Y28353J30*
G03X7469Y28330I55J56*
G01X7508*
G02X7538Y28301J29*
G01Y26814*
G03X7564Y26751I88*
G01X7710Y26605*
G02X7718Y26584I21J21*
X7717Y26578I29*
G03X7712Y26531I192J47*
X7909Y26335I197*
X7955Y26340J196*
G02X7962Y26341I7J29*
X7983Y26332J30*
G01X8729Y25586*
Y23960*
G03X8788Y23901I59*
G01X9496*
G03X9556Y23960J59*
G01Y24472*
G03X9496Y24531I60*
G01X8788*
G03X8729Y24472J59*
G01Y25586*
X9985Y24330*
Y20518*
G03X10044Y20459I59*
G01X10713*
G03X10772Y20518J59*
G01Y21502*
G03X10713Y21561I59*
G01X10044*
G03X9985Y21502J59*
G01Y24330*
X11628Y22687*
G02X11637Y22666I21J21*
X11617Y22638I30*
G03X11552Y22599I67J185*
G02X11532Y22591I20J21*
G01X11172*
G02X11142Y22620J29*
G01Y22808*
G03X11064Y22886I78*
G01X10552*
G03X10473Y22808J78*
G01Y22099*
G03X10552Y22020I79*
G01X10604*
G02X10633Y21991J29*
X10627Y21973I29*
G03X10589Y21856I159J117*
X10786Y21659I197*
X10983Y21856J197*
X10950Y21964I197*
G02X10946Y21980I25J16*
G01Y21991*
G02X10975Y22020I29*
G01X11064*
G03X11080Y22022J79*
G01Y21087*
G03X11139Y21028I59*
G01X11769*
G03X11828Y21087J59*
G01Y21441*
G03X11769Y21500I59*
G01X11139*
G03X11080Y21441J59*
G01Y22022*
G03X11142Y22099I16J77*
G01Y22286*
G02X11172Y22315I30*
G01X11532*
G02X11552Y22308J29*
G03X11675Y22257I132J145*
G02X11695Y22248I1J30*
G01X12000Y21942*
G02X12009Y21921I21J21*
G01Y20887*
G02X12000Y20866I30*
G01X11919Y20786*
G02X11898Y20777I21J20*
G01X11877*
G02X11848Y20806J29*
G01Y20811*
G03X11769Y20890I79*
G01X11139*
G03X11060Y20811J79*
G01Y20457*
G03X11069Y20422I79*
G02X11072Y20409I27J13*
X11046Y20380I30*
G03X10963Y20340I15J137*
G01X10816Y20193*
G03X10776Y20095I97J98*
G01Y20066*
G02X10746Y20036I30*
G01X10008*
G03X9929Y19957J79*
G01Y19249*
G03X10008Y19170I79*
G01X11819*
G03X11898Y19249J79*
G01Y19436*
G02X11927Y19465I29*
G01X11957*
G02X11986Y19436J29*
G01Y18786*
G02X11977Y18765I29*
G03X11936Y18706I138J140*
G02X11909Y18689I27J12*
X11884Y18702J29*
G03X11819Y18737I65J44*
G01X10008*
G03X9929Y18658J79*
G01Y18471*
G02X9900Y18442I29*
G01X9341*
G02X9320Y18450J29*
G01X8839Y18932*
G02X8830Y18953I21J21*
G01Y19175*
G02X8850Y19203I30*
G03X8903Y19278I26J75*
G01Y19868*
G03X8824Y19947I79*
G01X8810*
G02X8781Y19977J30*
G01Y20384*
G03X8779Y20403I89*
G02X8778Y20410I29J7*
X8808Y20439I30*
G01X9001*
Y19278*
G03X9060Y19219I59*
G01X9324*
G03X9383Y19278J59*
G01Y19868*
G03X9324Y19927I59*
G01X9060*
G03X9001Y19868J59*
G01Y20439*
X9020*
G03X9099Y20518J79*
G01Y21502*
G03X9020Y21581I79*
G01X8803*
G02X8774Y21610J29*
G01Y21676*
G02X8775Y21684I29*
G03X8778Y21707I86J23*
G01Y21930*
G02X8807Y21960I29*
G01X8867*
G03X8945Y22038J78*
G01Y22668*
G03X8867Y22747I78*
G01X8512*
G03X8433Y22668J79*
G01Y22038*
G03X8512Y21960I79*
G01X8571*
G02X8601Y21930J30*
G01Y21733*
G02X8600Y21726I30*
G03X8597Y21703I85J23*
G01Y21610*
G02X8567Y21581I30*
G01X8351*
G03X8272Y21502J79*
G01Y20518*
G03X8351Y20439I79*
G01X8567*
G02X8597Y20410J29*
G01Y20391*
G03X8602Y20361I88*
G02X8604Y20351I28J10*
G01Y19977*
G02X8574Y19947I30*
G01X8560*
G03X8482Y19868J79*
G01Y17270*
G03X8560Y17191I78*
G01X8574*
G02X8604Y17162J29*
G01Y17037*
G03X8609Y17008I88*
G02X8610Y16998I28J10*
G01Y16906*
G02X8581Y16876I29*
G03X8502Y16797J79*
G01Y16404*
G03X8581Y16325I79*
G02X8610Y16295J30*
G01Y16255*
G02Y16253I29*
G03Y16246I88J7*
G01Y16197*
G02X8580Y16167I30*
G03X8502Y16089J78*
G01Y15695*
G03X8580Y15616I78*
G01X8814*
Y4272*
G03X9011Y4075I197*
X9099Y4096J197*
G01Y1032*
G03X9453Y678I354*
X9807Y1032J354*
X9453Y1387I354*
X9099Y1032J355*
G01Y4096*
G03X9179Y4170I88J176*
G02X9204Y4184I25J16*
G01X9682*
G02X9702Y4176J30*
G03X9763Y4151I61J64*
G01X9777*
G02X9802Y4137J29*
G03X9970Y4043I168J103*
X10099Y4091J197*
G01Y1032*
G03X10453Y678I354*
X10807Y1032J354*
X10453Y1387I354*
X10099Y1032J355*
G01Y4091*
G03X10167Y4240I129J149*
X9970Y4437I197*
X9812Y4358J197*
G02X9788Y4346I24J17*
X9774Y4350J29*
G03X9731Y4361I43J78*
G01X9204*
G02X9179Y4375J29*
G03X9011Y4469I168J103*
X8814Y4272J197*
G01Y15616*
X8817*
G03X8895Y15695J79*
G01Y16089*
G03X8817Y16167I78*
G02X8787Y16197J30*
G01Y16237*
G02Y16239I30*
G03Y16246I88J7*
G01Y16295*
G02X8817Y16325I30*
G03X8896Y16404J79*
G01Y16797*
G03X8817Y16876I79*
G02X8787Y16906J30*
G01Y17030*
G03X8782Y17060I88*
G02X8781Y17069I28J9*
G01Y17162*
G02X8810Y17191I29*
G01X8824*
G03X8903Y17270J79*
G01Y17860*
G03X8824Y17939I79*
G01X8560*
G03X8482Y17860J79*
G01Y19278*
G03X8535Y19203I78*
G02X8554Y19175I10J28*
G01Y18884*
G03X8595Y18786I138*
G01X8982Y18399*
Y17270*
G03X9060Y17191I78*
G01X9324*
G03X9403Y17270J79*
G01Y17860*
G03X9324Y17939I79*
G01X9060*
G03X8982Y17860J79*
G01Y18399*
X9175Y18206*
G03X9272Y18166I97J98*
G01X9900*
G02X9929Y18136J30*
G01Y17949*
G03X10008Y17871I79*
G01X11322*
G02X11352Y17841J30*
X11343Y17820I30*
G01X11246Y17723*
G02X11225Y17714I21J21*
G01X10908*
G03X10811Y17674J138*
G01X10336Y17199*
G02X10315Y17190I21J21*
G03X10119Y16994J197*
G02X10110Y16973I30*
G01X9884Y16747*
G02X9863Y16738I21J21*
G01X9476*
G02X9447Y16768J30*
G01Y16797*
G03X9368Y16876I79*
G01X9132*
G03X9053Y16797J79*
G01Y16404*
G03X9072Y16352I79*
G01Y15695*
G03X9099Y15646I60*
G01Y11032*
G03X9453Y10678I354*
X9807Y11032J354*
X9453Y11387I354*
X9099Y11032J355*
G01Y15646*
G03X9132Y15636I33J49*
G01X9253*
Y13443*
G03X9450Y13246I197*
X9618Y13340J197*
G02X9643Y13354I25J15*
G01X10059*
Y11032*
G03X10453Y10639I394*
X10847Y11032J393*
X10453Y11426I394*
X10059Y11032J394*
G01Y13354*
X11099*
Y1032*
G03X11453Y678I354*
X11807Y1032J354*
X11453Y1387I354*
X11099Y1032J355*
G01Y11032*
G03X11453Y10678I354*
X11807Y11032J354*
X11453Y11387I354*
X11099Y11032J355*
G01Y13354*
X12099*
Y1032*
G03X12453Y678I354*
X12807Y1032J354*
X12453Y1387I354*
X12099Y1032J355*
G01Y11032*
G03X12258Y10736I354*
G01Y4115*
G03X12455Y3918I197*
X12623Y4013J197*
G02X12648Y4027I25J16*
G01X13099*
Y1032*
G03X13453Y678I354*
X13807Y1032J354*
X13453Y1387I354*
X13099Y1032J355*
G01Y4027*
X14099*
Y1032*
G03X14453Y678I354*
X14807Y1032J354*
X14453Y1387I354*
X14099Y1032J355*
G01Y4027*
X14125*
G02X14150Y4013J30*
G03X14318Y3918I168J102*
X14515Y4115J197*
X14318Y4312I197*
X14150Y4218J197*
G02X14125Y4204I25J15*
G01X12648*
G02X12623Y4218J29*
G03X12455Y4312I168J103*
X12258Y4115J197*
G01Y10736*
G03X12453Y10678I195J296*
X12807Y11032J354*
X12453Y11387I354*
X12099Y11032J355*
G01Y13354*
X13099*
Y11032*
G03X13453Y10678I354*
X13807Y11032J354*
X13453Y11387I354*
X13099Y11032J355*
G01Y13354*
X14099*
Y11032*
G03X14453Y10678I354*
X14807Y11032J354*
X14453Y11387I354*
X14099Y11032J355*
G01Y13354*
X14286*
G02X14311Y13340J29*
G03X14479Y13246I168J103*
X14676Y13443J197*
X14479Y13640I197*
X14311Y13546J197*
G02X14286Y13532I25J15*
G01X9643*
G02X9618Y13546J29*
G03X9450Y13640I168J103*
X9253Y13443J197*
G01Y15636*
X9368*
G03X9427Y15695J59*
G01Y16089*
G03X9368Y16148I59*
G01X9132*
G03X9072Y16089J59*
G01Y16352*
G03X9132Y16325I60J52*
G01X9368*
G03X9447Y16404J79*
G01Y16433*
G02X9476Y16463I29*
G01X9932*
G03X10030Y16503J138*
G01X10316Y16789*
G02X10334Y16797I20J21*
G03X10511Y16975I19J196*
G02X10520Y16993I30J3*
G01X10957Y17430*
G02X10977Y17439I20J21*
G01X11135*
G02X11165Y17409J30*
X11156Y17388I30*
G01X11100Y17331*
G02X11079Y17323I21J21*
X11072Y17324J29*
G03X11026Y17329I46J192*
X10829Y17132J197*
X11026Y16935I197*
X11223Y17132J197*
X11217Y17178I197*
G02X11216Y17185I29J7*
X11225Y17206I30*
G01X11255Y17237*
Y14066*
G03X11452Y13870I197*
X11620Y13964J196*
G02X11645Y13978I25J16*
G01X13974*
G02X13999Y13964J30*
G03X14167Y13870I168J102*
X14364Y14066J196*
X14167Y14263I197*
X13999Y14169J197*
G02X13974Y14155I25J15*
G01X11645*
G02X11620Y14169J29*
G03X11452Y14263I168J103*
X11255Y14066J197*
G01Y17237*
X11311Y17292*
G02X11332Y17301I21J21*
G01X14176*
G03X14239Y17327J88*
G01X14809Y17897*
G02X14830Y17905I21J21*
G01X15099*
Y1032*
G03X15453Y678I354*
X15807Y1032J354*
X15453Y1387I354*
X15099Y1032J355*
G01Y11032*
G03X15453Y10678I354*
X15807Y11032J354*
X15453Y11387I354*
X15099Y11032J355*
G01Y17905*
X16099*
Y1032*
G03X16453Y678I354*
X16807Y1032J354*
X16453Y1387I354*
X16099Y1032J355*
G01Y11032*
G03X16453Y10678I354*
X16807Y11032J354*
X16453Y11387I354*
X16099Y11032J355*
G01Y17905*
X16413*
G03X16475Y17931J89*
G01X16953Y18409*
G02X16974Y18418I21J21*
X16981Y18417J30*
G03X17027Y18412I46J192*
X17224Y18609J197*
X17052Y18804I197*
G02X17027Y18833I4J29*
X17034Y18853I29*
G03X17084Y18983I147J130*
X16887Y19180I197*
X16690Y18983J197*
X16696Y18937I197*
G02Y18930I29J7*
X16688Y18909I29*
G01X16133Y18355*
G02X16112Y18346I21J21*
X16083Y18376J30*
Y18378I29*
G03X16084Y18395I196J17*
X15887Y18592I197*
X15719Y18498J197*
G02X15694Y18484I25J15*
G01X14460*
G03X14397Y18458J89*
G01X14144Y18205*
G02X14124Y18196I20J21*
G01X12784*
G02X12778Y18197J30*
G03X12761Y18198I17J87*
G01X12632*
G02X12607Y18212J30*
G03X12439Y18307I168J102*
X12310Y18259J197*
G02X12291Y18252I19J23*
X12262Y18282J30*
G01Y18368*
G02X12291Y18397I29*
G01X13948*
G03X14045Y18437J138*
G01X14795Y19187*
G02X14815Y19196I21J21*
G03X15002Y19392I10J196*
X14951Y19525I197*
G02X14943Y19545I22J20*
G01Y20603*
G02X14952Y20624I30*
G01X15071Y20743*
G02X15092Y20752I21J21*
G01X15854*
G02X15884Y20722J30*
G01Y20713*
G03X15903Y20661I78*
G01Y20083*
G03X15962Y20024I59*
G01X16592*
G03X16651Y20083J59*
G01Y20437*
G03X16592Y20496I59*
G01X15962*
G03X15903Y20437J59*
G01Y20661*
G03X15962Y20634I59J52*
G01X16592*
G03X16671Y20713J79*
G01Y21067*
G03X16592Y21146I79*
G01X16445*
G02X16415Y21175J29*
G01Y21228*
G02X16421Y21245I30*
G03X16446Y21324I113J79*
G01Y21517*
G02X16453Y21537I29*
G03X16505Y21670I145J133*
X16308Y21867I197*
X16111Y21670J197*
X16162Y21537I197*
G02X16170Y21517I22J20*
G01Y21390*
G02X16165Y21373I30*
G03X16140Y21294I112J79*
G01Y21175*
G02X16110Y21146I30*
G01X15962*
G03X15884Y21067J79*
G01Y21057*
G02X15854Y21028I30*
G01X15022*
G03X14925Y20987J138*
G01X14708Y20770*
G03X14668Y20673I97J97*
G01Y19545*
G02X14660Y19525I30*
G03X14609Y19401I145J133*
G02X14600Y19382I30J2*
G01X13900Y18681*
G02X13879Y18673I21J21*
G01X12328*
G02X12300Y18692J29*
G03X12268Y18749I185J67*
G02X12262Y18768I23J19*
G01Y19322*
G02X12291Y19352I29*
X12311Y19344J30*
G03X12441Y19295I130J148*
X12609Y19389J197*
G02X12634Y19403I25J15*
G01X12740*
G02X12746Y19402J29*
G03X12766Y19400I20J87*
G01X13957*
G02X13982Y19386J29*
G03X14150Y19292I168J103*
X14347Y19489J197*
X14150Y19686I197*
X13982Y19591J197*
G02X13957Y19577I25J16*
G01X12789*
G02X12783Y19578J30*
G03X12763Y19580I20J86*
G01X12634*
G02X12609Y19594J30*
G03X12441Y19688I168J102*
X12278Y19601J196*
G02X12253Y19588I25J17*
X12230Y19599J30*
G03X12221Y19609I106J87*
G01X12130Y19700*
G03X12032Y19741I98J97*
G01X11927*
G02X11898Y19770J29*
G01Y19957*
G03X11819Y20036I79*
G01X11121*
G02X11091Y20066J30*
X11100Y20086I30*
G01X11109Y20096*
G02X11130Y20105I21J21*
G01X11377*
G03X11475Y20145J138*
G01X11552Y20222*
G03X11592Y20319I98J97*
G01Y20349*
G02X11621Y20378I29*
G01X11769*
G03X11848Y20457J79*
G01Y20468*
G02X11874Y20497I29*
G03X11890Y20500I16J137*
G02X11897Y20501I7J28*
G01X11968*
G03X12065Y20542J138*
G01X12244Y20721*
G03X12284Y20818I97J97*
G01Y21991*
G03X12244Y22088I137*
G01X11889Y22443*
G02X11881Y22462I21J21*
G03X11864Y22534I197J9*
G02X11861Y22546I27J12*
X11891Y22575I30*
G01X13586*
G02X13607Y22567J29*
G01X13947Y22226*
G02X13956Y22205I20J21*
X13955Y22198I29*
G03X13950Y22152I192J46*
X14147Y21955I197*
X14278Y22005J197*
G02X14297Y22012I19J22*
X14313Y22007J29*
G01X14320Y22003*
G02X14334Y21978I16J25*
X14332Y21969I30*
G03X14323Y21908I187J61*
X14519Y21711I196*
X14716Y21908J197*
X14622Y22076I197*
G02X14608Y22101I16J25*
G01Y22255*
G03X14582Y22318I89*
G01X13952Y22948*
G03X13889Y22974I63J62*
G01X12966*
G02X12937Y23004J30*
X12955Y23031I29*
G03X13080Y23206I71J184*
G02X13089Y23225I30J2*
G01X13167Y23303*
G03X13207Y23401I97J98*
G01Y23453*
G02X13224Y23479I30*
G03X13262Y23522I36J70*
G02X13289Y23542I27J10*
X13307Y23536J30*
G03X13422Y23498I115J159*
X13619Y23695J197*
X13422Y23892I197*
X13312Y23859J197*
G02X13296Y23854I16J24*
X13266Y23883J29*
G01Y23943*
G03X13254Y23986I78*
G02X13249Y24002I24J16*
X13278Y24032I29*
G01X14188*
G02X14209Y24023J30*
G01X14577Y23656*
G02X14586Y23635I21J21*
G01Y22986*
G03X14612Y22924I88*
G01X14984Y22551*
G02X14992Y22531I21J20*
Y22524I29*
G03X14986Y22477I191J47*
X15183Y22281I197*
X15380Y22477J196*
X15183Y22674I197*
X15137Y22669J197*
G02X15130Y22668I7J29*
X15109Y22677J30*
G01X14771Y23014*
G02X14763Y23035I21J21*
G01Y23684*
G03X14737Y23746I89*
G01X14300Y24183*
G03X14237Y24209I63J62*
G01X11712*
G02X11691Y24218J30*
G01X10949Y24960*
G02X10940Y24981I21J21*
X10941Y24988I30*
G03X10947Y25034I191J46*
X10750Y25231I197*
X10553Y25034J197*
X10750Y24837I197*
X10796Y24843J197*
G02X10803I7J29*
X10824Y24835J29*
G01X11601Y24058*
G03X11663Y24032I62J63*
G01X12335*
G02X12364Y24002J30*
X12357Y23983I29*
G03X12341Y23943I43J40*
G01Y23549*
G03X12400Y23490I59*
G01X12637*
G03X12696Y23549J59*
G01Y23943*
G03X12680Y23983I59*
G02X12673Y24002I22J19*
X12702Y24032I29*
G01X12861*
G02X12891Y24002J30*
X12886Y23986I30*
G03X12873Y23943I66J43*
G01Y23549*
G03X12908Y23484I79*
G02X12921Y23459I16J25*
X12912Y23438I29*
G01X12894Y23420*
G02X12875Y23411I21J21*
G03X12687Y23215I9J196*
X12825Y23027I197*
G02X12845Y22999I9J28*
X12816Y22969I29*
G01X12764*
G02X12755Y22971J30*
G03X12729Y22974I26J85*
G01X12243*
G02X12223Y22983J30*
G01X8748Y26458*
G02X8739Y26478I21J20*
X8740Y26485I30*
G03X8746Y26531I191J46*
X8652Y26699I197*
G02X8637Y26725I15J26*
G01Y27501*
G03X8612Y27564I88*
G01X8590Y27586*
G02X8581Y27606I21J20*
G01Y28301*
G02X8611Y28330I30*
G01X8650*
G03X8693Y28343J79*
G02X8709Y28348I16J25*
X8725Y28343J30*
G03X8768Y28330I43J66*
G01X9083*
G03X9126Y28343J79*
G02X9142Y28348I16J25*
X9158Y28343J30*
G03X9201Y28330I43J66*
G01X9516*
G03X9595Y28409J79*
G01Y29118*
G03X9539Y29193I79*
G02X9518Y29221I8J28*
X9524Y29239I29*
G03X9536Y29275I47J36*
G01Y29826*
G03X9477Y29885I59*
G01X8768*
G03X8709Y29826J59*
G01Y29275*
G03X8729Y29231I59*
G02X8739Y29209I19J22*
X8726Y29184I29*
G01X8725*
G02X8709Y29179I16J24*
X8693Y29184J29*
G03X8650Y29196I43J66*
G01X8335*
G03X8292Y29184J78*
G02X8276Y29179I16J24*
X8260Y29184J29*
G03X8224Y29196I43J66*
G02X8197Y29224I3J29*
G03X8169Y29302I138J6*
G02X8162Y29320I23J18*
X8170Y29339I30*
G03X8221Y29471I146J132*
X8024Y29668I197*
X7827Y29471J197*
X7878Y29339I197*
G02X7886Y29319I22J20*
G01Y29253*
G03X7889Y29224I138*
G02X7890Y29218I29J6*
X7872Y29190I30*
G03X7859Y29184I30J72*
G02X7843Y29179I16J24*
X7827Y29184J29*
G03X7784Y29196I43J66*
G01X7469*
G03X7414Y29174J78*
G02X7393Y29166I21J21*
X7379Y29169J29*
G03X7351Y29177I28J51*
G01X7036*
G03X7007Y29169J59*
G02X6993Y29166I14J26*
X6973Y29174J29*
G03X6960Y29184I55J56*
G02X6947Y29209I16J25*
X6957Y29231I29*
G03X6977Y29275I39J44*
G01Y29826*
G03X6918Y29885I59*
G01X6209*
G03X6150Y29826J59*
G01Y29275*
G03X6162Y29239I59*
G02X6168Y29221I23J18*
X6147Y29193I29*
G03X6091Y29118I23J75*
G01Y31378*
X11560*
Y26795*
G03X11757Y26599I197*
X11924Y26693J196*
G02X11950Y26707I26J16*
G01X13893*
G02X13914Y26698J30*
G01X17371Y23241*
G02X17380Y23220I20J21*
G01Y17373*
G02X17371Y17352I29*
G01X16913Y16894*
G02X16892Y16885I21J21*
X16885Y16886J30*
G03X16839Y16891I46J192*
X16642Y16694J197*
X16839Y16498I197*
X17036Y16694J196*
X17030Y16741I197*
G02X17029Y16748I29J7*
X17038Y16768I30*
G01X17059Y16790*
Y1032*
G03X17453Y639I394*
X17847Y1032J393*
X17453Y1426I394*
X17059Y1032J394*
G01Y16790*
X17099Y16829*
Y11032*
G03X17453Y10678I354*
X17807Y11032J354*
X17453Y11387I354*
X17099Y11032J355*
G01Y16829*
X17531Y17262*
G03X17557Y17324I62J62*
G01Y23269*
G03X17531Y23331I88*
G01X14005Y26858*
G03X13942Y26884I63J63*
G01X11950*
G02X11924Y26898J29*
G03X11757Y26992I167J103*
X11560Y26795J197*
G01Y31378*
X17412*
Y25089*
G03X17609Y24892I197*
X17704Y24916J197*
G01Y18215*
G03X17891Y18018I197*
G02X17911Y18010I1J29*
G01X18099Y17822*
Y1032*
G03X18453Y678I354*
X18807Y1032J354*
X18453Y1387I354*
X18099Y1032J355*
G01Y11032*
G03X18453Y10678I354*
X18807Y11032J354*
X18453Y11387I354*
X18099Y11032J355*
G01Y17822*
X19099Y16822*
Y1032*
G03X19453Y678I354*
X19807Y1032J354*
X19453Y1387I354*
X19099Y1032J355*
G01Y11032*
G03X19453Y10678I354*
X19807Y11032J354*
X19453Y11387I354*
X19099Y11032J355*
G01Y16822*
X20099Y15822*
Y1032*
G03X20453Y678I354*
X20807Y1032J354*
X20453Y1387I354*
X20099Y1032J355*
G01Y11032*
G03X20453Y10678I354*
X20807Y11032J354*
X20453Y11387I354*
X20099Y11032J355*
G01Y15822*
X21099Y14822*
Y1032*
G03X21453Y678I354*
X21807Y1032J354*
X21453Y1387I354*
X21099Y1032J355*
G01Y11032*
G03X21453Y10678I354*
X21807Y11032J354*
X21453Y11387I354*
X21099Y11032J355*
G01Y14822*
X22099Y13822*
Y1032*
G03X22453Y678I354*
X22807Y1032J354*
X22453Y1387I354*
X22099Y1032J355*
G01Y11032*
G03X22453Y10678I354*
X22807Y11032J354*
X22453Y11387I354*
X22099Y11032J355*
G01Y13822*
X23306Y12614*
G02X23315Y12593I20J21*
G01Y11378*
G02X23298Y11351I29*
G03X23099Y11032I155J319*
X23453Y10678I354*
X23807Y11032J354*
X23607Y11351I354*
G02X23591Y11378I13J27*
G01Y12662*
G03X23550Y12760I138*
G01X18106Y18204*
G02X18097Y18224I21J21*
G03X17901Y18412I196J9*
X17704Y18215J197*
G01Y24916*
G03X17731Y24935I95J173*
G01Y21492*
G03X17928Y21295I197*
X18125Y21483J197*
G02X18133Y21502I29J2*
G01X19410Y22779*
G02X19431Y22787I21J21*
G01X19534*
G02X19554Y22780J29*
G03X19686Y22728I132J145*
X19883Y22925J197*
X19686Y23122I197*
X19554Y23071J197*
G02X19534Y23063I20J21*
G01X19361*
G03X19264Y23023J138*
G01X17938Y21697*
G02X17919Y21689I20J21*
G03X17731Y21492I9J197*
G01Y24935*
G03X17777Y24986I122J154*
G02X17802Y25000I25J15*
G01X19695*
G03X19757Y25026J89*
G01X21228Y26497*
G03X21254Y26560I63J63*
G01Y27002*
G02X21268Y27027I30*
G03X21362Y27195I103J168*
X21220Y27384I197*
G02X21198Y27413I8J29*
G01Y27415*
G02X21228Y27444I30J1*
G01X21258*
G03X21320Y27470J88*
G01X22418Y28568*
G02X22439Y28577I21J21*
X22446Y28576J30*
G03X22492Y28570I46J191*
X22588Y28595J197*
G01Y25392*
G03X22863Y25117I275*
X23139Y25392J275*
X22863Y25668I276*
X22588Y25392J276*
G01Y28595*
G03X22689Y28767I96J172*
X22492Y28964I197*
X22296Y28767J197*
X22301Y28721I196*
G02X22302Y28714I29J7*
X22293Y28693I30*
G01X21229Y27630*
G02X21209Y27621I20J20*
G01X21157*
G02X21152J29*
G03X21138Y27623I14J87*
G01X21042*
G02X21017Y27637J29*
G03X20849Y27731I168J103*
X20652Y27534J197*
X20746Y27366I197*
G02X20761Y27341I15J25*
G01Y26977*
G02X20731Y26947I30*
X20710Y26956J30*
G01X20703Y26964*
G02X20694Y26985I21J21*
G01Y27117*
G03X20654Y27215I138*
G01X19982Y27886*
G03X19961Y27903I97J97*
G02X19956Y27907I16J25*
G01X19939Y27924*
G02X19931Y27944I21J21*
G03X19734Y28132I197J9*
X19537Y27935J197*
X19725Y27738I197*
G02X19744Y27730I2J29*
G01X19783Y27691*
G03X19804Y27674I97J98*
G02X19808Y27670I16J25*
G01X20410Y27069*
G02X20418Y27048I21J21*
G01Y26915*
G03X20459Y26818I138*
G01X20526Y26751*
G02X20534Y26731I21J21*
G03X20657Y26558I197J9*
G02X20676Y26530I11J28*
X20667Y26510I30*
G01X19785Y25627*
G02X19764Y25619I21J21*
G01X17849*
G02X17823Y25633J29*
G03X17655Y25727I168J103*
X17459Y25530J197*
X17584Y25347I196*
G02X17603Y25319I10J28*
Y25316I29*
G01X17602Y25309*
G02X17578Y25283I29J3*
G03X17412Y25089I31J194*
G01Y31378*
X18265*
Y30108*
G03X18678Y29695I413*
X19092Y30108J413*
X18678Y30521I414*
X18265Y30108J413*
G01Y31378*
X19304*
Y30108*
G03X19678Y29734I374*
X20052Y30108J374*
X19678Y30482I374*
X19304Y30108J374*
G01Y31378*
X20304*
Y30108*
G03X20678Y29734I374*
X21052Y30108J374*
X20678Y30482I374*
X20304Y30108J374*
G01Y31378*
X21304*
Y30108*
G03X21678Y29734I374*
X22052Y30108J374*
X21678Y30482I374*
X21304Y30108J374*
G01Y31378*
X22304*
Y29813*
G03X22383Y29734I79*
G01X22974*
G03X23052Y29813J79*
G01Y30403*
G03X22974Y30482I78*
G01X22383*
G03X22304Y30403J79*
G01Y31378*
X23868*
G02X23898Y31348J30*
G01Y1114*
G02X23868Y1085I30*
X23839Y1108J29*
G03X23453Y1426I386J76*
X23059Y1032J394*
X23453Y639I394*
X23839Y956J393*
G02X23868Y980I29J5*
X23898Y951J29*
G01Y148*
G02X23868Y118I30*
G01X148*
G02X118Y148J30*
G01Y31348*
X12168Y22782D02*
G03X12152Y22808I30D01*
G02X12132Y22823I43J78*
G01X8623Y26332*
G03X8602Y26341I21J21*
X8595Y26340J30*
G02X8549Y26335I46J191*
X8352Y26531J196*
X8446Y26699I197*
G03X8460Y26725I15J26*
G01Y27452*
G03X8452Y27473I29*
G01X8430Y27495*
G02X8404Y27557I63J62*
G01Y28301*
G03X8374Y28330I30*
G01X8335*
G02X8292Y28343J79*
G03X8276Y28348I16J25*
X8260Y28343J30*
G02X8224Y28331I43J66*
G03X8197Y28301I3J30*
G01Y28187*
G03X8205Y28168I30*
G02X8256Y28035I146J133*
X8059Y27838I197*
X7863Y28035J197*
X7914Y28168I196*
G03X7922Y28187I22J19*
G01Y28301*
G03X7895Y28331I30*
G02X7859Y28343I7J78*
G03X7843Y28348I16J25*
X7827Y28343J30*
G02X7784Y28330I43J66*
G01X7744*
G03X7715Y28301J29*
G01Y26863*
G03X7724Y26842I29*
G01X7835Y26731*
G03X7856Y26722I21J21*
X7863Y26723J30*
G02X7909Y26728I46J192*
X8106Y26531J197*
X8100Y26485I197*
G03X8099Y26478I29J7*
X8108Y26458I30*
G01X11805Y22761*
G03X11825Y22752I20J21*
G01X12138*
G03X12168Y22782J30*
G37*
G54D10*
G01X0Y0D02*
X24016D01*
Y31496*
X0*
Y0*
G54D11*
X3275Y9194D03*
X22863Y25392D03*
G54D12*
X18678Y30108D02*
X18992Y30421D01*
X18678Y30108D02*
X18992Y29795D01*
X18678Y30108D02*
X18365Y30421D01*
X18678Y30108D02*
X18365Y29795D01*
G54D13*
X505Y18729D02*
X387D01*
X505Y21367D02*
X387D01*
X1223Y18463D02*
Y18345D01*
Y18995D02*
Y19113D01*
Y21101D02*
Y20983D01*
Y21633D02*
Y21751D01*
X1942Y18729D02*
X2060D01*
X1942Y21367D02*
X2060D01*
X2650Y20176D02*
X2558Y20084D01*
X2650Y20707D02*
X2558Y20800D01*
X3960Y23593D02*
X4204D01*
X4210Y23587*
X4416*
X4166Y20176D02*
X4258Y20084D01*
X4166Y20707D02*
X4258Y20800D01*
X4322Y18921D02*
Y18408D01*
X4521Y21109D02*
X4403D01*
X4942Y28526D02*
X4377D01*
X4993Y20882D02*
Y20764D01*
Y21335D02*
Y21453D01*
X5199Y16867D02*
X5107Y16775D01*
X5199Y16938D02*
X5082Y16980D01*
X5465Y17158D02*
X5851D01*
X5930Y17079*
Y17047*
X6156*
X5465Y17414D02*
X5903D01*
X5930Y17441*
X6156*
X5465Y17414D02*
Y17670D01*
X5466Y21109D02*
X5584D01*
X5731Y16867D02*
X5823Y16775D01*
X5731Y16938D02*
X5849Y16950D01*
X5924Y24216D02*
X5806D01*
X6156Y17441D02*
X6480D01*
X6483Y17444*
X6769*
X6239Y29305D02*
X6123Y29256D01*
X6239Y29797D02*
X6146Y29889D01*
X6248Y23990D02*
Y23872D01*
Y24442D02*
Y24561D01*
X6399Y18339D02*
X6281D01*
X6573Y24216D02*
X6691D01*
X6601Y16893D02*
X6483D01*
X6684Y18191D02*
Y18073D01*
Y18486D02*
Y18604D01*
X6705Y26541D02*
Y27507D01*
X6760Y27562*
Y28763*
X6769Y16804D02*
Y16686D01*
Y16981D02*
Y17099D01*
X6888Y29305D02*
X6980Y29212D01*
X6888Y29797D02*
X6980Y29889D01*
X6936Y16893D02*
X7054D01*
X6970Y18339D02*
X7088D01*
X7065Y28439D02*
X7028Y28321D01*
X7065Y29088D02*
X7028Y29206D01*
X7228Y17444D02*
X6769D01*
X7321Y28439D02*
X7359Y28321D01*
X7321Y29088D02*
X7359Y29206D01*
X7360Y25308D02*
X6444D01*
X6423Y25328*
X6154*
X7590Y17565D02*
X7472D01*
X7692Y17299D02*
Y17181D01*
Y17831D02*
Y17949D01*
Y19573D02*
Y21203D01*
X8059Y21570*
Y22353*
X7795Y17565D02*
X7913D01*
X7877Y16108D02*
X7759D01*
X7909Y26531D02*
X7626Y26814D01*
Y28763*
X7909Y26531D02*
X11776Y22664D01*
X13635*
X14147Y22152*
X8044Y16019D02*
Y15901D01*
Y16196D02*
Y16314D01*
Y16659D02*
Y16949D01*
X8192Y17097*
Y17565*
X8212Y16108D02*
X8330D01*
X8549Y26531D02*
Y27501D01*
X8493Y27557*
Y28763*
X8689Y22353D02*
Y21707D01*
X8685Y21703*
Y21010*
X8692Y17565D02*
Y17037D01*
X8699Y17030*
Y16601*
X8692Y19573D02*
Y20384D01*
X8685Y20391*
Y21010*
X8698Y15892D02*
Y16246D01*
X8699*
Y16601*
X8798Y29305D02*
X8705Y29212D01*
X8798Y29797D02*
X8705Y29889D01*
X8817Y24216D02*
X8699D01*
X9090Y19573D02*
X8972D01*
X9142Y23990D02*
Y23872D01*
Y24442D02*
Y24561D01*
X9161Y15892D02*
X9043D01*
X9192Y19307D02*
Y19189D01*
Y19839D02*
Y19957D01*
X9250Y15725D02*
Y15606D01*
Y16059D02*
Y16177D01*
X9295Y19573D02*
X9413D01*
X9338Y15892D02*
X9456D01*
X9447Y29305D02*
X9563Y29256D01*
X9447Y29797D02*
X9539Y29889D01*
X9467Y24216D02*
X9585D01*
X9627Y22453D02*
Y22947D01*
X9491Y23083*
X8199*
X8059Y22943*
Y22353*
X9970Y4240D02*
X9763D01*
X9731Y4272*
X9011*
X10073Y21010D02*
X9955D01*
X10378Y20547D02*
Y20429D01*
Y21473D02*
Y21591D01*
X10683Y21010D02*
X10802D01*
X11026Y17132D02*
X11283Y17389D01*
X14176*
X14781Y17994*
X16413*
X17027Y18609*
X11169Y21264D02*
X11051D01*
X11452Y14066D02*
X14167D01*
X11454Y21117D02*
Y20998D01*
Y21412D02*
Y21530D01*
X11740Y21264D02*
X11858D01*
X11757Y26795D02*
X13942D01*
X17469Y23269*
Y17324*
X16839Y16694*
X12334Y17706D02*
X14193D01*
X14661Y18174*
X16078*
X16887Y18983*
X12430Y23579D02*
X12338Y23487D01*
X12430Y23913D02*
X12315Y23967D01*
X12439Y18110D02*
X12761D01*
X12763Y18107*
X14172*
X14460Y18395*
X15887*
X12441Y19492D02*
X12763D01*
X12766Y19489*
X14150*
X12607Y23579D02*
X12699Y23487D01*
X12607Y23913D02*
X12722Y23967D01*
X13070Y23746D02*
X13371D01*
X13422Y23695*
X14318Y4115D02*
X12455D01*
X14479Y13443D02*
X9450D01*
X14519Y21908D02*
Y22255D01*
X13889Y22886*
X12911*
X12906Y22881*
X12734*
X12729Y22886*
X12195*
X8549Y26531*
X15183Y22477D02*
X14674Y22986D01*
Y23684*
X14237Y24121*
X11663*
X10750Y25034*
X15992Y20260D02*
X15874D01*
X16277Y20112D02*
Y19994D01*
Y20407D02*
Y20526D01*
X16563Y20260D02*
X16681D01*
X20849Y27534D02*
Y26915D01*
X20938Y26826*
Y26655*
X19813Y25530*
X17655*
X20849Y27534D02*
X21138D01*
X21139Y27532*
X21258*
X22492Y28767*
X21165Y27195D02*
Y26560D01*
X19695Y25089*
X17609*
G54D14*
X3408Y19654D02*
Y18680D01*
X3674Y18414*
Y17670*
X3408Y19654D02*
X6601D01*
X3674Y16902D02*
X3110D01*
X2985Y17027*
Y17547*
X3109Y17670*
X3674*
X6601Y19654D02*
X6664Y19717D01*
Y20590*
X6489Y20764*
Y21109*
X6601Y19654D02*
X6684Y19571D01*
Y18969*
X8059Y28035D02*
Y28763D01*
Y29218*
X8024Y29253*
Y29471*
X8192Y19573D02*
Y19189D01*
X7972Y18969*
X6684*
X9250Y16601D02*
X9932D01*
X10320Y16988*
X10315Y16993*
X10320Y16988D02*
X10908Y17576D01*
X11320*
Y17602*
X11446Y17728*
X11994*
X12124Y17859*
Y18535*
X10453Y11032D02*
X10154Y11332D01*
X10453Y11032D02*
X10154Y10733D01*
X10453Y11032D02*
X10752Y11332D01*
X10453Y11032D02*
X10752Y10733D01*
X10786Y21856D02*
X10808Y21878D01*
Y22453*
X10913Y18304D02*
X9272D01*
X8692Y18884*
Y19573*
X11454Y20634D02*
X11858D01*
X11862Y20639*
X11968*
X12147Y20818*
Y21991*
X11684Y22453*
X11454Y20634D02*
Y20319D01*
X11377Y20243*
X11061*
X10913Y20095*
Y19603*
X11684Y22453D02*
X11152D01*
X10808*
X12115Y18625D02*
Y18543D01*
X12124Y18535*
Y19512*
X12032Y19603*
X10913*
X13070Y23746D02*
Y23401D01*
X12884Y23215*
X14805Y19392D02*
Y20673D01*
X15022Y20890*
X16277*
X14805Y19392D02*
X13948Y18535D01*
X12124*
X16308Y21670D02*
Y21324D01*
X16277Y21294*
Y20890*
X17453Y1032D02*
X17752Y1332D01*
X17453Y1032D02*
X17752Y733D01*
X17453Y1032D02*
X17154Y1332D01*
X17453Y1032D02*
X17154Y733D01*
X17928Y21492D02*
X19361Y22925D01*
X19686*
X19734Y27935D02*
X19880Y27789D01*
X19885*
X20556Y27117*
Y26915*
X20731Y26740*
X23453Y1032D02*
X23752Y1332D01*
X23453Y1032D02*
X23154Y1332D01*
X23453Y1032D02*
X23154Y733D01*
X23453Y1032D02*
X23752Y733D01*
X23453Y11032D02*
Y12662D01*
X17901Y18215*
G54D15*
X1431Y6294D02*
X1457D01*
X1481Y6293*
X1503Y6290*
X1523Y6287*
X1542Y6283*
X1559Y6278*
X1573Y6272*
X1586Y6266*
X1604Y6253*
X1619Y6240*
X1633Y6226*
X1644Y6210*
X1652Y6194*
X1659Y6176*
X1663Y6157*
Y6138*
Y6122*
X1660Y6106*
X1655Y6090*
X1649Y6076*
X1641Y6062*
X1631Y6049*
X1619Y6036*
X1606Y6024*
X1591Y6013*
X1574Y6003*
X1555Y5994*
X1535Y5988*
X1512Y5982*
X1488Y5979*
X1463Y5977*
X1435Y5976*
X1407Y5977*
X1381Y5979*
X1357Y5982*
X1335Y5987*
X1314Y5994*
X1295Y6002*
X1279Y6011*
X1263Y6022*
X1251Y6034*
X1239Y6046*
X1230Y6059*
X1222Y6073*
X1216Y6086*
X1211Y6102*
X1209Y6117*
X1208Y6133*
X1209Y6149*
X1212Y6165*
X1216Y6180*
X1223Y6194*
X1231Y6208*
X1240Y6222*
X1252Y6234*
X1266Y6246*
X1281Y6258*
X1298Y6267*
X1315Y6276*
X1335Y6282*
X1357Y6288*
X1380Y6291*
X1405Y6294*
X1431*
X1436Y5686D02*
X1463Y5685D01*
X1489Y5682*
X1514Y5678*
X1535Y5673*
X1556Y5666*
X1575Y5658*
X1591Y5647*
X1607Y5636*
X1620Y5623*
X1631Y5610*
X1641Y5595*
X1649Y5579*
X1655Y5563*
X1660Y5546*
X1663Y5529*
Y5510*
Y5492*
X1660Y5474*
X1655Y5458*
X1649Y5442*
X1641Y5426*
X1631Y5412*
X1620Y5398*
X1607Y5386*
X1591Y5374*
X1574Y5364*
X1555Y5355*
X1535Y5348*
X1511Y5343*
X1487Y5339*
X1461Y5337*
X1432Y5336*
X1406Y5337*
X1381Y5339*
X1358Y5343*
X1336Y5349*
X1316Y5355*
X1298Y5364*
X1281Y5374*
X1266Y5386*
X1252Y5399*
X1241Y5413*
X1231Y5427*
X1223Y5442*
X1217Y5458*
X1212Y5474*
X1210Y5492*
X1209Y5510*
X1210Y5529*
X1212Y5546*
X1217Y5563*
X1223Y5579*
X1231Y5595*
X1241Y5610*
X1252Y5623*
X1266Y5636*
X1280Y5647*
X1297Y5658*
X1316Y5666*
X1336Y5673*
X1359Y5678*
X1383Y5682*
X1408Y5685*
X1436Y5686*
Y5789D02*
X1396Y5787D01*
X1359Y5783*
X1324Y5776*
X1292Y5766*
X1263Y5753*
X1237Y5738*
X1213Y5718*
X1191Y5697*
X1176Y5678*
X1163Y5657*
X1151Y5635*
X1143Y5612*
X1135Y5588*
X1130Y5563*
X1127Y5538*
X1126Y5510*
X1127Y5481*
X1131Y5452*
X1137Y5425*
X1146Y5399*
X1157Y5375*
X1171Y5352*
X1187Y5330*
X1206Y5310*
X1227Y5292*
X1250Y5277*
X1275Y5263*
X1302Y5252*
X1330Y5244*
X1361Y5238*
X1393Y5234*
X1427Y5233*
X1455Y5234*
X1482Y5235*
X1507Y5238*
X1530Y5242*
X1551Y5246*
X1571Y5252*
X1591Y5259*
X1607Y5267*
X1623Y5276*
X1639Y5286*
X1653Y5298*
X1666Y5310*
X1678Y5322*
X1690Y5336*
X1700Y5351*
X1710Y5367*
X1718Y5384*
X1726Y5401*
X1731Y5418*
X1737Y5436*
X1741Y5454*
X1743Y5472*
X1745Y5491*
X1746Y5510*
X1744Y5541*
X1741Y5570*
X1735Y5597*
X1726Y5623*
X1715Y5647*
X1701Y5670*
X1685Y5692*
X1666Y5712*
X1645Y5730*
X1622Y5746*
X1596Y5758*
X1568Y5770*
X1539Y5778*
X1507Y5784*
X1472Y5787*
X1436Y5789*
X1635Y2960D02*
Y2785D01*
Y2766*
Y2747*
X1633Y2730*
X1631Y2713*
X1630Y2698*
X1627Y2683*
X1624Y2670*
X1620Y2658*
X1612Y2636*
X1603Y2617*
X1591Y2599*
X1578Y2585*
X1568Y2575*
X1557Y2566*
X1545Y2558*
X1533Y2550*
X1519Y2543*
X1505Y2537*
X1491Y2530*
X1475Y2525*
X1458Y2520*
X1440Y2515*
X1422Y2511*
X1403Y2509*
X1383Y2506*
X1362Y2505*
X1339Y2503*
X1317*
X1286Y2504*
X1256Y2506*
X1229Y2509*
X1203Y2514*
X1179Y2520*
X1158Y2527*
X1138Y2535*
X1119Y2546*
X1103Y2556*
X1088Y2567*
X1075Y2579*
X1063Y2592*
X1051Y2605*
X1042Y2618*
X1034Y2633*
X1027Y2648*
X1023Y2659*
X1020Y2673*
X1017Y2688*
X1015Y2705*
X1013Y2723*
X1011Y2743*
Y2765*
Y2788*
Y2960*
X1635*
X1732Y3068D02*
X914D01*
Y2786*
Y2762*
X915Y2741*
Y2721*
X917Y2702*
X919Y2684*
X920Y2668*
X923Y2654*
X926Y2640*
X930Y2623*
X935Y2606*
X941Y2590*
X948Y2575*
X956Y2560*
X964Y2546*
X974Y2533*
X984Y2520*
X999Y2505*
X1014Y2490*
X1030Y2476*
X1047Y2463*
X1064Y2452*
X1083Y2442*
X1103Y2432*
X1124Y2423*
X1146Y2416*
X1168Y2410*
X1191Y2404*
X1215Y2399*
X1240Y2396*
X1265Y2393*
X1291Y2392*
X1319Y2391*
X1364Y2393*
X1407Y2397*
X1447Y2403*
X1484Y2413*
X1519Y2425*
X1550Y2438*
X1578Y2453*
X1603Y2469*
X1625Y2486*
X1645Y2505*
X1663Y2523*
X1677Y2543*
X1690Y2565*
X1701Y2588*
X1711Y2614*
X1719Y2641*
X1724Y2670*
X1729Y2702*
X1731Y2737*
X1732Y2773*
Y3068*
Y3828D02*
X914D01*
Y3237*
X1011*
Y3720*
X1260*
Y3267*
X1357*
Y3720*
X1635*
Y3218*
X1732*
Y3828*
Y4470D02*
X914D01*
Y4362*
X1635*
Y3959*
X1732*
Y4470*
Y4727D02*
X1646D01*
X1669Y4746*
X1689Y4765*
X1707Y4786*
X1721Y4809*
X1731Y4833*
X1739Y4859*
X1744Y4886*
X1746Y4915*
X1744Y4941*
X1741Y4966*
X1735Y4990*
X1726Y5013*
X1715Y5034*
X1703Y5053*
X1690Y5068*
X1675Y5081*
X1659Y5090*
X1641Y5099*
X1622Y5106*
X1601Y5111*
X1593Y5113*
X1583Y5114*
X1574Y5115*
X1563Y5116*
X1550Y5117*
X1537*
X1523Y5118*
X1507*
X1139*
Y5017*
X1468*
X1487*
X1504Y5016*
X1520*
X1535Y5015*
X1547Y5014*
X1558*
X1567Y5012*
X1575Y5010*
X1593Y5005*
X1610Y4996*
X1624Y4985*
X1637Y4970*
X1647Y4954*
X1654Y4936*
X1658Y4916*
X1659Y4894*
X1658Y4873*
X1654Y4851*
X1647Y4830*
X1636Y4810*
X1623Y4792*
X1609Y4776*
X1592Y4764*
X1573Y4754*
X1563Y4750*
X1551Y4746*
X1538Y4744*
X1524Y4742*
X1509Y4740*
X1493Y4738*
X1475*
X1457*
X1139*
Y4637*
X1732*
Y4727*
Y6294D02*
Y6387D01*
X914*
Y6286*
X1206*
X1187Y6270*
X1171Y6252*
X1157Y6234*
X1146Y6214*
X1137Y6193*
X1131Y6171*
X1127Y6148*
X1126Y6124*
X1127Y6097*
X1131Y6070*
X1139Y6045*
X1148Y6020*
X1160Y5997*
X1175Y5976*
X1191Y5957*
X1210Y5940*
X1231Y5925*
X1254Y5912*
X1279Y5901*
X1307Y5890*
X1335Y5883*
X1365Y5878*
X1395Y5874*
X1427Y5873*
X1464Y5874*
X1499Y5878*
X1531Y5883*
X1562Y5891*
X1591Y5902*
X1617Y5915*
X1641Y5930*
X1663Y5948*
X1682Y5967*
X1699Y5988*
X1713Y6009*
X1725Y6031*
X1734Y6054*
X1741Y6078*
X1744Y6103*
X1746Y6129*
X1744Y6154*
X1740Y6178*
X1734Y6202*
X1724Y6222*
X1711Y6242*
X1697Y6261*
X1679Y6278*
X1659Y6294*
X1732*
X3159Y1512D02*
X3139Y1513D01*
X3119Y1515*
X3099Y1518*
X3082Y1523*
X3065Y1530*
X3050Y1538*
X3035Y1547*
X3023Y1558*
X3011Y1570*
X3000Y1582*
X2991Y1595*
X2984Y1609*
X2979Y1622*
X2975Y1638*
X2972Y1653*
X2971Y1669*
X2972Y1686*
X2975Y1702*
X2979Y1717*
X2985Y1732*
X2993Y1746*
X3003Y1760*
X3013Y1773*
X3026Y1786*
X3040Y1798*
X3055Y1807*
X3071Y1816*
X3089Y1822*
X3107Y1828*
X3127Y1832*
X3147Y1834*
X3167Y1835*
X3187Y1834*
X3205Y1832*
X3223Y1829*
X3239Y1823*
X3254Y1817*
X3268Y1809*
X3282Y1799*
X3295Y1788*
X3306Y1776*
X3316Y1763*
X3324Y1750*
X3331Y1735*
X3337Y1721*
X3340Y1705*
X3343Y1689*
Y1672*
Y1654*
X3340Y1638*
X3337Y1622*
X3331Y1608*
X3324Y1594*
X3316Y1581*
X3306Y1569*
X3295Y1557*
X3282Y1546*
X3268Y1538*
X3253Y1530*
X3236Y1523*
X3219Y1518*
X3200Y1514*
X3180Y1513*
X3159Y1512*
X3253Y7254D02*
Y7021D01*
Y7002*
X3252Y6986*
X3251Y6970*
X3249Y6954*
X3247Y6940*
X3244Y6927*
X3241Y6915*
X3238Y6905*
X3229Y6885*
X3218Y6868*
X3204Y6853*
X3188Y6841*
X3171Y6831*
X3153Y6825*
X3135Y6821*
X3115Y6819*
X3101Y6820*
X3087Y6822*
X3075Y6825*
X3062Y6830*
X3051Y6836*
X3039Y6843*
X3029Y6851*
X3019Y6862*
X3011Y6873*
X3003Y6886*
X2996Y6900*
X2991Y6915*
X2987Y6933*
X2984Y6952*
X2983Y6972*
X2982Y6994*
Y7254*
X3253*
X3306Y3210D02*
X3271D01*
X3237Y3209*
X3205Y3206*
X3175Y3203*
X3147Y3198*
X3120Y3194*
X3095Y3187*
X3072Y3181*
X3051Y3173*
X3031Y3164*
X3011Y3154*
X2994Y3143*
X2978Y3132*
X2963Y3119*
X2949Y3106*
X2936Y3091*
X2925Y3076*
X2915Y3060*
X2907Y3043*
X2900Y3025*
X2895Y3006*
X2891Y2986*
X2889Y2965*
X2888Y2943*
X2889Y2927*
X2890Y2911*
X2892Y2896*
X2895Y2881*
X2899Y2867*
X2903Y2854*
X2908Y2840*
X2915Y2827*
X2930Y2803*
X2947Y2782*
X2967Y2762*
X2991Y2745*
X3018Y2730*
X3047Y2716*
X3079Y2705*
X3113Y2694*
X3131Y2690*
X3151Y2686*
X3174Y2683*
X3197Y2681*
X3222Y2678*
X3248Y2677*
X3276Y2676*
X3306*
X3341Y2677*
X3375Y2678*
X3407Y2680*
X3436Y2683*
X3464Y2687*
X3491Y2693*
X3515Y2698*
X3539Y2706*
X3560Y2714*
X3580Y2722*
X3599Y2732*
X3617Y2742*
X3634Y2754*
X3649Y2766*
X3663Y2780*
X3675Y2794*
X3687Y2810*
X3696Y2826*
X3705Y2842*
X3711Y2861*
X3717Y2880*
X3720Y2900*
X3723Y2921*
Y2943*
X3722Y2972*
X3718Y2999*
X3711Y3025*
X3703Y3049*
X3691Y3071*
X3676Y3092*
X3659Y3112*
X3639Y3130*
X3626Y3139*
X3611Y3148*
X3596Y3157*
X3580Y3165*
X3563Y3172*
X3544Y3178*
X3525Y3185*
X3504Y3190*
X3483Y3195*
X3461Y3199*
X3438Y3202*
X3413Y3206*
X3388Y3207*
X3362Y3209*
X3335Y3210*
X3306*
X3307Y3107D02*
X3331D01*
X3355Y3106*
X3377*
X3399Y3104*
X3419Y3102*
X3439Y3101*
X3457Y3098*
X3475Y3095*
X3491Y3092*
X3506Y3089*
X3520Y3085*
X3533Y3081*
X3545Y3076*
X3556Y3071*
X3566Y3066*
X3575Y3060*
X3590Y3048*
X3603Y3035*
X3615Y3022*
X3624Y3007*
X3631Y2992*
X3637Y2977*
X3640Y2960*
X3641Y2943*
X3640Y2926*
X3637Y2910*
X3631Y2894*
X3624Y2879*
X3615Y2865*
X3603Y2851*
X3590Y2838*
X3575Y2826*
X3566Y2821*
X3555Y2815*
X3544Y2810*
X3532Y2806*
X3519Y2802*
X3505Y2798*
X3490Y2794*
X3474Y2791*
X3457Y2788*
X3439Y2786*
X3419Y2784*
X3399Y2782*
X3377Y2781*
X3355Y2780*
X3331Y2779*
X3307*
X3282*
X3258Y2780*
X3235Y2781*
X3214Y2782*
X3193Y2784*
X3174Y2786*
X3155Y2788*
X3138Y2791*
X3122Y2794*
X3107Y2798*
X3093Y2802*
X3079Y2806*
X3067Y2810*
X3057Y2815*
X3047Y2821*
X3038Y2826*
X3023Y2838*
X3009Y2851*
X2998Y2865*
X2988Y2879*
X2981Y2894*
X2975Y2910*
X2972Y2927*
X2971Y2944*
X2972Y2961*
X2975Y2978*
X2979Y2993*
X2986Y3006*
X2995Y3020*
X3004Y3033*
X3016Y3045*
X3030Y3055*
X3040Y3062*
X3051Y3067*
X3063Y3073*
X3075Y3078*
X3089Y3082*
X3104Y3087*
X3119Y3090*
X3136Y3094*
X3155Y3098*
X3173Y3100*
X3193Y3102*
X3214Y3104*
X3235Y3106*
X3258*
X3282Y3107*
X3307*
X3311Y6570D02*
X3286D01*
X3262Y6569*
X3238Y6566*
X3215Y6563*
X3192Y6560*
X3171Y6555*
X3150Y6550*
X3130Y6543*
X3110Y6536*
X3091Y6528*
X3073Y6518*
X3055Y6509*
X3039Y6498*
X3023Y6486*
X3007Y6474*
X2992Y6461*
X2979Y6447*
X2965Y6433*
X2953Y6418*
X2942Y6402*
X2931Y6386*
X2922Y6370*
X2914Y6353*
X2906Y6335*
X2899Y6318*
X2893Y6299*
X2888Y6280*
X2884Y6261*
X2881Y6241*
X2879Y6221*
X2878Y6199*
X2877Y6178*
X2878Y6150*
X2880Y6123*
X2885Y6096*
X2891Y6070*
X2899Y6045*
X2907Y6021*
X2919Y5997*
X2931Y5974*
X2945Y5952*
X2961Y5931*
X2978Y5911*
X2996Y5894*
X3015Y5877*
X3036Y5862*
X3059Y5847*
X3082Y5835*
X3107Y5824*
X3132Y5814*
X3159Y5806*
X3186Y5799*
X3213Y5794*
X3242Y5790*
X3271Y5788*
X3302Y5787*
X3332Y5788*
X3363Y5790*
X3391Y5794*
X3419Y5800*
X3447Y5807*
X3474Y5815*
X3499Y5826*
X3524Y5838*
X3548Y5850*
X3571Y5865*
X3591Y5881*
X3611Y5898*
X3628Y5917*
X3645Y5937*
X3659Y5958*
X3673Y5980*
X3685Y6003*
X3695Y6027*
X3703Y6051*
X3711Y6076*
X3716Y6101*
X3720Y6126*
X3723Y6152*
Y6178*
Y6207*
X3720Y6235*
X3715Y6262*
X3710Y6288*
X3702Y6314*
X3692Y6338*
X3681Y6362*
X3667Y6386*
X3653Y6407*
X3637Y6428*
X3620Y6447*
X3602Y6466*
X3582Y6482*
X3561Y6497*
X3539Y6511*
X3515Y6523*
X3491Y6534*
X3467Y6544*
X3441Y6552*
X3416Y6558*
X3391Y6564*
X3364Y6567*
X3338Y6570*
X3311*
X3313Y6458D02*
X3349Y6457D01*
X3383Y6454*
X3415Y6447*
X3445Y6438*
X3473Y6427*
X3499Y6414*
X3523Y6398*
X3546Y6379*
X3566Y6358*
X3583Y6337*
X3598Y6314*
X3610Y6289*
X3619Y6264*
X3625Y6237*
X3629Y6209*
X3631Y6179*
X3629Y6150*
X3625Y6121*
X3619Y6094*
X3609Y6068*
X3597Y6043*
X3583Y6020*
X3565Y5998*
X3545Y5978*
X3523Y5960*
X3498Y5943*
X3471Y5930*
X3441Y5919*
X3410Y5910*
X3375Y5904*
X3339Y5901*
X3301Y5899*
X3277Y5900*
X3253Y5902*
X3230Y5904*
X3207Y5908*
X3187Y5912*
X3166Y5918*
X3146Y5925*
X3127Y5933*
X3109Y5942*
X3092Y5952*
X3076Y5962*
X3061Y5974*
X3047Y5987*
X3034Y6001*
X3023Y6016*
X3011Y6032*
X3002Y6048*
X2994Y6065*
X2987Y6082*
X2981Y6101*
X2976Y6119*
X2973Y6138*
X2971Y6158*
Y6178*
X2972Y6206*
X2975Y6233*
X2982Y6259*
X2991Y6285*
X3002Y6309*
X3015Y6332*
X3031Y6354*
X3050Y6375*
X3060Y6386*
X3071Y6395*
X3083Y6404*
X3095Y6412*
X3109Y6419*
X3123Y6426*
X3139Y6432*
X3155Y6438*
X3171Y6442*
X3189Y6446*
X3208Y6450*
X3227Y6453*
X3247Y6455*
X3268Y6457*
X3291Y6458*
X3313*
X3447Y5684D02*
X3438Y5582D01*
X3467Y5577*
X3494Y5570*
X3518Y5560*
X3539Y5548*
X3548Y5541*
X3558Y5533*
X3566Y5524*
X3575Y5514*
X3582Y5503*
X3589Y5492*
X3596Y5479*
X3603Y5466*
X3613Y5437*
X3620Y5406*
X3625Y5374*
X3627Y5340*
X3626Y5310*
X3622Y5282*
X3616Y5256*
X3608Y5231*
X3598Y5209*
X3587Y5190*
X3573Y5174*
X3558Y5161*
X3541Y5150*
X3524Y5143*
X3506Y5139*
X3487Y5138*
X3469Y5139*
X3451Y5143*
X3435Y5150*
X3420Y5160*
X3413Y5166*
X3407Y5174*
X3400Y5182*
X3394Y5190*
X3387Y5200*
X3382Y5210*
X3377Y5222*
X3371Y5234*
X3368Y5244*
X3364Y5256*
X3360Y5270*
X3355Y5287*
X3351Y5306*
X3344Y5329*
X3339Y5353*
X3332Y5380*
X3325Y5407*
X3319Y5432*
X3312Y5455*
X3306Y5476*
X3299Y5494*
X3293Y5511*
X3287Y5526*
X3281Y5538*
X3273Y5552*
X3264Y5565*
X3255Y5578*
X3247Y5589*
X3236Y5599*
X3227Y5609*
X3215Y5618*
X3204Y5625*
X3193Y5631*
X3181Y5638*
X3169Y5642*
X3156Y5646*
X3143Y5650*
X3130Y5652*
X3116Y5653*
X3103Y5654*
X3087Y5653*
X3072Y5651*
X3057Y5649*
X3043Y5645*
X3028Y5640*
X3015Y5634*
X3000Y5626*
X2987Y5618*
X2974Y5609*
X2962Y5599*
X2950Y5587*
X2939Y5575*
X2930Y5562*
X2920Y5547*
X2912Y5532*
X2905Y5516*
X2899Y5498*
X2893Y5481*
X2888Y5463*
X2884Y5445*
X2881Y5426*
X2879Y5406*
X2878Y5386*
X2877Y5366*
X2878Y5343*
X2879Y5322*
X2881Y5301*
X2884Y5280*
X2888Y5261*
X2894Y5242*
X2899Y5223*
X2907Y5206*
X2914Y5189*
X2923Y5173*
X2932Y5158*
X2943Y5144*
X2954Y5131*
X2966Y5119*
X2979Y5108*
X2993Y5098*
X3007Y5090*
X3022Y5082*
X3038Y5075*
X3054Y5070*
X3070Y5066*
X3087Y5062*
X3104Y5059*
X3122Y5058*
X3130Y5162*
X3111Y5165*
X3093Y5169*
X3077Y5174*
X3062Y5181*
X3047Y5188*
X3035Y5198*
X3023Y5207*
X3012Y5219*
X3003Y5232*
X2995Y5246*
X2988Y5262*
X2983Y5278*
X2978Y5298*
X2975Y5318*
X2973Y5338*
X2972Y5362*
X2973Y5386*
X2975Y5407*
X2977Y5428*
X2981Y5446*
X2987Y5463*
X2992Y5479*
X3000Y5493*
X3008Y5505*
X3018Y5515*
X3027Y5524*
X3037Y5532*
X3048Y5538*
X3059Y5543*
X3071Y5546*
X3083Y5549*
X3095Y5550*
X3106Y5549*
X3116Y5547*
X3126Y5545*
X3135Y5542*
X3144Y5537*
X3152Y5532*
X3160Y5526*
X3167Y5518*
X3175Y5508*
X3182Y5496*
X3190Y5480*
X3197Y5462*
X3204Y5439*
X3211Y5414*
X3219Y5386*
X3227Y5354*
X3234Y5323*
X3241Y5294*
X3247Y5267*
X3255Y5243*
X3261Y5222*
X3267Y5203*
X3273Y5187*
X3279Y5174*
X3287Y5156*
X3296Y5140*
X3306Y5125*
X3316Y5111*
X3327Y5098*
X3338Y5087*
X3350Y5077*
X3362Y5068*
X3375Y5060*
X3388Y5053*
X3402Y5047*
X3416Y5042*
X3431Y5038*
X3447Y5036*
X3462Y5034*
X3479*
X3495*
X3511Y5036*
X3527Y5039*
X3542Y5043*
X3557Y5048*
X3572Y5054*
X3587Y5062*
X3602Y5071*
X3615Y5081*
X3629Y5091*
X3641Y5103*
X3653Y5116*
X3663Y5130*
X3674Y5146*
X3683Y5161*
X3691Y5178*
X3699Y5196*
X3705Y5214*
X3711Y5233*
X3715Y5253*
X3719Y5273*
X3722Y5293*
X3723Y5314*
Y5336*
Y5362*
X3722Y5389*
X3719Y5414*
X3715Y5438*
X3711Y5460*
X3705Y5482*
X3699Y5502*
X3691Y5522*
X3683Y5540*
X3673Y5557*
X3663Y5573*
X3651Y5588*
X3638Y5602*
X3624Y5616*
X3610Y5628*
X3594Y5639*
X3577Y5649*
X3560Y5658*
X3543Y5666*
X3524Y5672*
X3506Y5677*
X3487Y5680*
X3467Y5682*
X3447Y5684*
X3520Y1923D02*
X3511Y1826D01*
X3528Y1823*
X3543Y1819*
X3557Y1814*
X3571Y1809*
X3582Y1802*
X3593Y1795*
X3602Y1788*
X3611Y1779*
X3618Y1770*
X3623Y1761*
X3629Y1751*
X3633Y1740*
X3637Y1729*
X3639Y1717*
X3640Y1704*
X3641Y1691*
X3639Y1669*
X3635Y1647*
X3629Y1628*
X3620Y1610*
X3608Y1593*
X3595Y1578*
X3580Y1564*
X3563Y1553*
X3544Y1542*
X3522Y1532*
X3496Y1523*
X3467Y1515*
X3437Y1509*
X3407Y1504*
X3375Y1501*
X3344Y1500*
X3341*
X3336*
X3331Y1501*
X3324*
X3347Y1517*
X3368Y1536*
X3387Y1558*
X3403Y1583*
X3409Y1596*
X3415Y1610*
X3421Y1623*
X3425Y1638*
X3428Y1652*
X3431Y1666*
Y1681*
X3432Y1696*
X3431Y1721*
X3427Y1745*
X3422Y1768*
X3414Y1790*
X3403Y1811*
X3391Y1831*
X3376Y1850*
X3359Y1868*
X3339Y1885*
X3319Y1899*
X3297Y1911*
X3273Y1921*
X3248Y1929*
X3222Y1934*
X3194Y1938*
X3164*
X3134*
X3105Y1934*
X3078Y1928*
X3052Y1920*
X3028Y1910*
X3005Y1897*
X2984Y1882*
X2964Y1865*
X2947Y1846*
X2931Y1826*
X2918Y1805*
X2907Y1782*
X2899Y1758*
X2893Y1734*
X2890Y1708*
X2888Y1681*
X2889Y1661*
X2891Y1642*
X2895Y1623*
X2899Y1605*
X2905Y1586*
X2912Y1569*
X2921Y1551*
X2931Y1535*
X2943Y1518*
X2955Y1504*
X2968Y1490*
X2983Y1477*
X2999Y1465*
X3016Y1454*
X3035Y1443*
X3054Y1434*
X3075Y1426*
X3098Y1419*
X3123Y1414*
X3151Y1409*
X3181Y1405*
X3213Y1402*
X3247Y1401*
X3283Y1400*
X3322Y1401*
X3358Y1402*
X3392Y1405*
X3425Y1409*
X3455Y1414*
X3483Y1419*
X3509Y1426*
X3534Y1434*
X3556Y1443*
X3577Y1453*
X3597Y1464*
X3615Y1476*
X3632Y1490*
X3648Y1504*
X3662Y1519*
X3675Y1535*
X3687Y1553*
X3696Y1570*
X3704Y1589*
X3711Y1609*
X3717Y1629*
X3720Y1650*
X3723Y1671*
Y1693*
Y1717*
X3720Y1739*
X3716Y1760*
X3710Y1780*
X3703Y1799*
X3694Y1818*
X3683Y1834*
X3670Y1850*
X3656Y1865*
X3641Y1878*
X3624Y1889*
X3606Y1898*
X3587Y1907*
X3566Y1914*
X3543Y1919*
X3520Y1923*
X3613Y3318D02*
X3710D01*
Y3859*
X3692*
X3675Y3857*
X3657Y3853*
X3640Y3847*
X3612Y3835*
X3585Y3821*
X3558Y3802*
X3531Y3781*
X3518Y3769*
X3503Y3756*
X3489Y3742*
X3474Y3726*
X3458Y3709*
X3442Y3690*
X3425Y3670*
X3407Y3650*
X3381Y3618*
X3355Y3589*
X3331Y3562*
X3309Y3538*
X3288Y3517*
X3268Y3498*
X3251Y3482*
X3234Y3469*
X3218Y3458*
X3203Y3448*
X3187Y3440*
X3171Y3434*
X3157Y3428*
X3142Y3425*
X3127Y3422*
X3113*
X3099*
X3084Y3424*
X3071Y3427*
X3058Y3432*
X3046Y3438*
X3034Y3446*
X3023Y3454*
X3012Y3464*
X3003Y3475*
X2995Y3487*
X2987Y3500*
X2982Y3514*
X2977Y3528*
X2974Y3543*
X2972Y3559*
X2971Y3576*
X2972Y3594*
X2974Y3610*
X2978Y3626*
X2983Y3642*
X2988Y3656*
X2996Y3669*
X3005Y3681*
X3015Y3693*
X3027Y3702*
X3039Y3712*
X3052Y3719*
X3067Y3726*
X3083Y3730*
X3099Y3734*
X3117Y3736*
X3135Y3737*
X3125Y3840*
X3097Y3836*
X3071Y3831*
X3046Y3824*
X3023Y3814*
X3002Y3804*
X2983Y3791*
X2965Y3776*
X2949Y3760*
X2935Y3742*
X2923Y3722*
X2912Y3702*
X2903Y3678*
X2897Y3654*
X2892Y3630*
X2889Y3602*
X2888Y3574*
X2889Y3545*
X2892Y3518*
X2898Y3492*
X2904Y3468*
X2914Y3446*
X2925Y3425*
X2939Y3405*
X2954Y3387*
X2971Y3371*
X2988Y3357*
X3007Y3346*
X3027Y3335*
X3047Y3328*
X3069Y3322*
X3091Y3319*
X3115Y3318*
X3140Y3320*
X3164Y3323*
X3188Y3330*
X3212Y3338*
X3224Y3344*
X3236Y3350*
X3248Y3358*
X3260Y3366*
X3273Y3374*
X3286Y3384*
X3299Y3394*
X3311Y3406*
X3326Y3418*
X3340Y3433*
X3357Y3450*
X3374Y3468*
X3392Y3488*
X3412Y3510*
X3434Y3534*
X3455Y3561*
X3474Y3582*
X3491Y3602*
X3506Y3619*
X3519Y3634*
X3531Y3648*
X3542Y3660*
X3551Y3670*
X3559Y3677*
X3572Y3689*
X3586Y3700*
X3599Y3710*
X3613Y3719*
Y3318*
X3710Y2195D02*
Y2296D01*
X3070*
X3087Y2315*
X3104Y2338*
X3122Y2363*
X3139Y2391*
X3155Y2420*
X3169Y2447*
X3181Y2473*
X3191Y2497*
X3094*
X3073Y2456*
X3050Y2418*
X3025Y2382*
X2998Y2350*
X2983Y2334*
X2970Y2320*
X2956Y2307*
X2942Y2295*
X2928Y2285*
X2915Y2275*
X2902Y2267*
X2888Y2260*
Y2195*
X3710*
Y4883D02*
X2891D01*
Y4292*
X2988*
Y4775*
X3238*
Y4322*
X3335*
Y4775*
X3613*
Y4273*
X3710*
Y4883*
Y7362D02*
X2891D01*
Y6998*
Y6972*
X2893Y6947*
X2895Y6924*
X2897Y6902*
X2900Y6882*
X2904Y6864*
X2908Y6847*
X2914Y6832*
X2919Y6818*
X2927Y6806*
X2935Y6793*
X2944Y6781*
X2955Y6770*
X2966Y6760*
X2978Y6750*
X2991Y6742*
X3006Y6734*
X3020Y6726*
X3035Y6721*
X3051Y6716*
X3066Y6712*
X3082Y6710*
X3098Y6708*
X3115Y6707*
X3136Y6708*
X3157Y6710*
X3176Y6715*
X3195Y6722*
X3213Y6730*
X3231Y6739*
X3247Y6750*
X3262Y6763*
X3276Y6778*
X3289Y6796*
X3301Y6814*
X3311Y6835*
X3319Y6858*
X3327Y6882*
X3333Y6910*
X3338Y6938*
X3348Y6918*
X3359Y6900*
X3368Y6885*
X3379Y6873*
X3402Y6849*
X3427Y6826*
X3456Y6804*
X3487Y6783*
X3710Y6641*
Y6777*
X3539Y6885*
X3522Y6897*
X3505Y6907*
X3489Y6918*
X3475Y6928*
X3461Y6938*
X3449Y6946*
X3437Y6955*
X3427Y6963*
X3409Y6978*
X3394Y6992*
X3382Y7006*
X3372Y7018*
X3365Y7030*
X3359Y7042*
X3355Y7055*
X3351Y7067*
X3349Y7078*
X3347Y7092*
Y7108*
Y7128*
Y7254*
X3710*
Y7362*
G54D16*
X709Y9708D03*
X1039Y7872D03*
X1156Y11407D03*
X1172Y24847D03*
X1187Y15268D03*
X2144Y20445D03*
X2339Y21366D03*
X3139Y22378D03*
X3544Y27348D03*
X3842Y21133D03*
X3960Y23593D03*
X4322Y18408D03*
Y18921D03*
X4377Y28526D03*
X4416Y23587D03*
X4942Y28526D03*
X5262Y21834D03*
X5645Y8739D03*
X5812Y15959D03*
X5993Y21840D03*
X6154Y25328D03*
X6587Y3057D03*
X6705Y26541D03*
X6733Y16419D03*
X6807Y13957D03*
X7228Y17444D03*
X7262Y24198D03*
X7339Y29650D03*
X7360Y25308D03*
X7441Y20609D03*
X7453Y20142D03*
X7644Y18642D03*
X7672Y18158D03*
X7682Y17014D03*
X7811Y7295D03*
X7909Y26531D03*
X8024Y29471D03*
X8044Y15653D03*
X8059Y28035D03*
X8183Y24261D03*
X8226Y26709D03*
X8549Y26531D03*
X9011Y4272D03*
X9139Y26776D03*
X9450Y13443D03*
X9682Y15914D03*
X9784Y21709D03*
X9822Y29608D03*
X9950Y17330D03*
X9970Y4240D03*
X10101Y24651D03*
X10315Y16993D03*
X10325Y25646D03*
X10385Y18877D03*
X10416Y10214D03*
X10750Y25034D03*
X10786Y21856D03*
X10887Y2900D03*
X11026Y17132D03*
X11218Y21889D03*
X11395Y23340D03*
X11452Y14066D03*
X11684Y22453D03*
X11757Y26795D03*
X11951Y15994D03*
X12007Y23774D03*
X12115Y18625D03*
X12334Y17706D03*
X12439Y18110D03*
X12440Y20478D03*
X12441Y19492D03*
X12455Y4115D03*
X12462Y21520D03*
X12884Y23215D03*
X12991Y6855D03*
X13422Y23695D03*
X13653Y25209D03*
X13803Y21080D03*
Y21818D03*
X14147Y22152D03*
X14150Y19489D03*
X14167Y14066D03*
X14318Y4115D03*
X14479Y13443D03*
X14519Y21908D03*
X14805Y19392D03*
X14920Y15327D03*
X14966Y21998D03*
X15183Y22477D03*
X15347Y20008D03*
X15369Y18961D03*
X15517Y27618D03*
X15533Y6824D03*
X15559Y26543D03*
X15659Y9586D03*
X15742Y18752D03*
X15794Y14359D03*
X15887Y18395D03*
X16268Y19533D03*
X16308Y21670D03*
X16529Y14331D03*
X16750Y26940D03*
X16839Y16694D03*
X16887Y18983D03*
X17027Y18609D03*
X17123Y26698D03*
X17217Y20054D03*
X17417Y1958D03*
X17609Y25089D03*
X17655Y25530D03*
X17901Y18215D03*
X17928Y21492D03*
X17986Y28357D03*
X17998Y20631D03*
X18013Y9367D03*
X18073Y19524D03*
X18551Y26066D03*
X18656Y29390D03*
X19115Y17680D03*
X19302Y15132D03*
X19485Y25752D03*
X19520Y5066D03*
X19686Y22925D03*
X19708Y21806D03*
X19734Y27935D03*
X20399Y10120D03*
X20407Y26494D03*
X20623Y28636D03*
X20649Y17708D03*
X20675Y23502D03*
X20697Y13151D03*
X20731Y26740D03*
X20849Y27534D03*
X21165Y27195D03*
X21404Y10151D03*
X21635Y24391D03*
X22377Y10183D03*
X22492Y28767D03*
X23224Y7828D03*
X23287Y5725D03*
X23316Y16972D03*
X23319Y3653D03*
X23337Y18165D03*
X23350Y2021D03*
X23363Y19332D03*
X23365Y21587D03*
Y22592D03*
X23372Y20467D03*
X23379Y23415D03*
X23428Y10136D03*
G54D17*
X8059Y22353D03*
X8689D03*
G54D18*
X9627Y22453D03*
X10808D03*
G54D19*
X6327Y28763D03*
X6760D03*
X7193D03*
X7626D03*
X8059D03*
X8493D03*
X8926D03*
X9359D03*
G54D20*
X10913Y18304D03*
Y19603D03*
G54D21*
X7692Y17565D03*
Y19573D03*
X8192Y17565D03*
Y19573D03*
X8692Y17565D03*
Y19573D03*
X9192Y17565D03*
Y19573D03*
G54D22*
X6684Y18339D03*
Y18969D03*
X11454Y20634D03*
Y21264D03*
X16277Y20260D03*
Y20890D03*
G54D23*
X8685Y21010D03*
X10378D03*
G54D24*
X3408Y19654D03*
Y20442D03*
G54D25*
X1223Y18729D03*
Y21367D03*
G54D26*
X3674Y16902D03*
Y17158D03*
Y17414D03*
Y17670D03*
X5465Y16902D03*
Y17158D03*
Y17414D03*
Y17670D03*
G54D27*
X6769Y16893D03*
Y17444D03*
X8044Y16108D03*
Y16659D03*
G54D28*
X5453Y1032D03*
Y11032D03*
G54D29*
X6453Y1032D03*
Y11032D03*
X7453Y1032D03*
Y11032D03*
X8453Y1032D03*
Y11032D03*
X9453Y1032D03*
Y11032D03*
X10453Y1032D03*
Y11032D03*
X11453Y1032D03*
Y11032D03*
X12453Y1032D03*
Y11032D03*
X13453Y1032D03*
Y11032D03*
X14453Y1032D03*
Y11032D03*
X15453Y1032D03*
Y11032D03*
X16453Y1032D03*
Y11032D03*
X17453Y1032D03*
Y11032D03*
X18453Y1032D03*
Y11032D03*
X19453Y1032D03*
Y11032D03*
X20453Y1032D03*
Y11032D03*
X21453Y1032D03*
Y11032D03*
X22453Y1032D03*
Y11032D03*
X23453Y1032D03*
Y11032D03*
G54D30*
X4993Y21109D03*
X6489D03*
G54D31*
X18678Y30108D03*
X19678D03*
X20678D03*
X21678D03*
G54D32*
X22678D03*
G54D70*
X6248Y24216D03*
X9142D03*
G54D71*
X6563Y29551D03*
X9122D03*
G54D72*
X8698Y15892D03*
X8699Y16601D03*
X9250Y15892D03*
Y16601D03*
X12518Y23746D03*
X13070D03*
G54D73*
X6156Y17047D03*
Y17441D03*
M02*
