*
G04 Job   : E:\BOULED\DESIGN\MAIN_BOARD\BOULED_MAINBOARD\PCB\PCB.pcb*
G04 User  : DESKTOP-D6MOGOB:alexis*
G04 Layer : SoldermaskTop.gdo*
G04 Date  : Sun Dec 30 04:46:13 2018*
G04 Mentor Graphics Example Gerber Output Definition*
%ICAS*%
%MOIN*%
%FSLAX24Y24*%
%OFA0.0000B0.0000*%
G90*
G74*
%AMVB_RECTANGLE*
21,1,$1,$2,0,0,$3*
%
%AMVB_RCRECTANGLE*
$3=$3X2*
21,1,$1-$3,$2,0,0,0*
21,1,$1,$2-$3,0,0,0*
$1=$1/2*
$2=$2/2*
$3=$3/2*
$1=$1-$3*
$2=$2-$3*
1,1,$3X2,0-$1,0-$2*
1,1,$3X2,0-$1,$2*
1,1,$3X2,$1,$2*
1,1,$3X2,$1,0-$2*
%
%ADD19C,0.06102*%
%ADD26C,0.06496*%
%ADD10C,0.07874*%
%ADD17VB_RECTANGLE,0.04232X0.04232X0.00000*%
%ADD18VB_RECTANGLE,0.06102X0.06102X270.00000*%
%ADD27VB_RECTANGLE,0.06496X0.06496X180.00000*%
%ADD14VB_RECTANGLE,0.01476X0.07776X0.00000*%
%ADD70VB_RECTANGLE,0.01969X0.08465X270.00000*%
%ADD25VB_RECTANGLE,0.03346X0.02165X90.00000*%
%ADD24VB_RECTANGLE,0.03740X0.12795X180.00000*%
%ADD11VB_RECTANGLE,0.03839X0.03445X180.00000*%
%ADD71VB_RECTANGLE,0.04134X0.06890X180.00000*%
%ADD12VB_RECTANGLE,0.04528X0.02953X180.00000*%
%ADD13VB_RECTANGLE,0.04528X0.02953X270.00000*%
%ADD16VB_RECTANGLE,0.04528X0.03740X270.00000*%
%ADD23VB_RECTANGLE,0.06496X0.12795X90.00000*%
%ADD15VB_RECTANGLE,0.07776X0.01476X0.00000*%
%ADD21VB_RCRECTANGLE,0.03839X0.01083X0.00295*%
%ADD22VB_RCRECTANGLE,0.01083X0.03839X0.00295*%
%ADD20VB_RCRECTANGLE,0.06988X0.06358X0.00591*%
G01*
G36*
X606Y12908D02*
X1728D01*
Y13558*
X606*
Y12908*
Y17844D02*
X1728D01*
Y18493*
X606*
Y17844*
Y22769D02*
X1728D01*
Y23418*
X606*
Y22769*
Y27701D02*
X1728D01*
Y28351*
X606*
Y27701*
G37*
G54D10*
X1956Y9194D03*
X2152Y12680D03*
Y17615D03*
Y22540D03*
Y27473D03*
X22816Y25345D03*
G54D11*
X15855Y15809D03*
Y16242D03*
X16406Y15809D03*
Y16242D03*
G54D12*
X5289Y20879D03*
Y21430D03*
X8455Y1802D03*
Y2353D03*
X9450Y11991D03*
Y12543D03*
X9453Y1802D03*
Y2353D03*
X9591Y20468D03*
Y21020D03*
X10921Y18605D03*
Y19156D03*
X11457Y11991D03*
Y12543D03*
X11706Y18625D03*
Y19176D03*
X11935Y16437D03*
Y16988D03*
X12446Y11991D03*
Y12543D03*
X12455Y1802D03*
Y2353D03*
X13455Y1802D03*
Y2353D03*
X14099Y24652D03*
Y25203D03*
X14942Y15694D03*
Y16245D03*
X15206Y28445D03*
Y28996D03*
X15814Y14703D03*
Y15254D03*
X15998Y28432D03*
Y28983D03*
X16553Y14709D03*
Y15261D03*
X16754Y28465D03*
Y29016D03*
X16764Y27363D03*
Y27914D03*
X20171Y17659D03*
Y18211D03*
X20179Y21799D03*
Y22351D03*
X20187Y22930D03*
Y23481D03*
X21676Y27597D03*
Y28148D03*
X22493Y27617D03*
Y28168D03*
G54D13*
X6154Y25800D03*
X6705D03*
X7358D03*
X7909D03*
X8549D03*
X9100D03*
X17498Y26712D03*
X18049D03*
X18313Y24933D03*
X18864D03*
G54D14*
X13707Y17427D03*
Y23333D03*
X13903Y17427D03*
Y23333D03*
X14100Y17427D03*
Y23333D03*
X14297Y17427D03*
Y23333D03*
X14494Y17427D03*
Y23333D03*
X14691Y17427D03*
Y23333D03*
X14888Y17427D03*
Y23333D03*
X15085Y17427D03*
Y23333D03*
X15281Y17427D03*
Y23333D03*
X15478Y17427D03*
Y23333D03*
X15675Y17427D03*
Y23333D03*
X15872Y17427D03*
Y23333D03*
X16069Y17427D03*
Y23333D03*
X16266Y17427D03*
Y23333D03*
X16463Y17427D03*
Y23333D03*
X16659Y17427D03*
Y23333D03*
X16856Y17427D03*
Y23333D03*
X17053Y17427D03*
Y23333D03*
X17250Y17427D03*
Y23333D03*
X17447Y17427D03*
Y23333D03*
X17644Y17427D03*
Y23333D03*
X17841Y17427D03*
Y23333D03*
X18037Y17427D03*
Y23333D03*
X18234Y17427D03*
Y23333D03*
X18431Y17427D03*
Y23333D03*
G54D15*
X13116Y18018D03*
Y18215D03*
Y18412D03*
Y18609D03*
Y18805D03*
Y19002D03*
Y19199D03*
Y19396D03*
Y19593D03*
Y19790D03*
Y19986D03*
Y20183D03*
Y20380D03*
Y20577D03*
Y20774D03*
Y20971D03*
Y21168D03*
Y21364D03*
Y21561D03*
Y21758D03*
Y21955D03*
Y22152D03*
Y22349D03*
Y22546D03*
Y22742D03*
X19022Y18018D03*
Y18215D03*
Y18412D03*
Y18609D03*
Y18805D03*
Y19002D03*
Y19199D03*
Y19396D03*
Y19593D03*
Y19790D03*
Y19986D03*
Y20183D03*
Y20380D03*
Y20577D03*
Y20774D03*
Y20971D03*
Y21168D03*
Y21364D03*
Y21561D03*
Y21758D03*
Y21955D03*
Y22152D03*
Y22349D03*
Y22546D03*
Y22742D03*
G54D16*
X15435Y29702D03*
Y30332D03*
X15947Y29702D03*
Y30332D03*
G54D17*
X22425Y16929D03*
Y17520D03*
Y18110D03*
Y18701D03*
Y19291D03*
Y19882D03*
Y20472D03*
Y21063D03*
Y21654D03*
Y22244D03*
Y22835D03*
X22429Y23425D03*
G54D18*
X5453Y1032D03*
Y11032D03*
G54D19*
X6453Y1032D03*
Y11032D03*
X7453Y1032D03*
Y11032D03*
X8453Y1032D03*
Y11032D03*
X9453Y1032D03*
Y11032D03*
X10453Y1032D03*
Y11032D03*
X11453Y1032D03*
Y11032D03*
X12453Y1032D03*
Y11032D03*
X13453Y1032D03*
Y11032D03*
X14453Y1032D03*
Y11032D03*
X15453Y1032D03*
Y11032D03*
X16453Y1032D03*
Y11032D03*
X17453Y1032D03*
Y11032D03*
X18453Y1032D03*
Y11032D03*
X19453Y1032D03*
Y11032D03*
X20453Y1032D03*
Y11032D03*
X21453Y1032D03*
Y11032D03*
X22453Y1032D03*
Y11032D03*
X23453Y1032D03*
Y11032D03*
G54D20*
X19341Y26788D03*
G54D21*
X18680Y26394D03*
Y27181D03*
X18692Y26551D03*
Y26709D03*
Y26866D03*
Y27024D03*
X19991Y26551D03*
Y26709D03*
Y26866D03*
Y27024D03*
X20003Y26394D03*
Y27181D03*
G54D22*
X18948Y26126D03*
Y27449D03*
X19105Y26138D03*
Y27437D03*
X19262Y26138D03*
Y27437D03*
X19420Y26138D03*
Y27437D03*
X19577Y26138D03*
Y27437D03*
X19735Y26126D03*
Y27449D03*
G54D23*
X1246Y14233D03*
Y19168D03*
Y24093D03*
Y29026D03*
X3057Y13733D03*
Y14733D03*
Y18668D03*
Y19668D03*
Y23593D03*
Y24593D03*
Y28526D03*
Y29526D03*
G54D24*
X11773Y28510D03*
Y30109D03*
X12273Y28510D03*
Y30109D03*
X12773Y28510D03*
Y30109D03*
X13273Y28510D03*
Y30109D03*
X13773Y28510D03*
Y30109D03*
G54D25*
X18554Y25554D03*
X18948D03*
G54D26*
X18678Y30108D03*
X19678D03*
X20678D03*
X21678D03*
G54D27*
X22678D03*
G54D70*
X6449Y17628D03*
Y17884D03*
Y18140D03*
Y18396D03*
Y18652D03*
Y18907D03*
Y19163D03*
Y19419D03*
Y19675D03*
Y19931D03*
Y20187D03*
Y20443D03*
X8418Y17628D03*
Y17884D03*
Y18140D03*
Y18396D03*
Y18652D03*
Y18907D03*
Y19163D03*
Y19419D03*
Y19675D03*
Y19931D03*
Y20187D03*
Y20443D03*
G54D71*
X6227Y21216D03*
X6857D03*
X7343Y28695D03*
X7403Y27403D03*
X7973Y28695D03*
X7999Y21216D03*
X8033Y27403D03*
X8629Y21216D03*
M02*
