*
G04 Job   : E:\BOULED\DESIGN\MAIN_BOARD\BOULED_MAINBOARD\PCB\PCB.pcb*
G04 User  : DESKTOP-D6MOGOB:alexis*
G04 Layer : SolderPasteBottom.gdo*
G04 Date  : Sun Dec 30 04:46:13 2018*
G04 Mentor Graphics Example Gerber Output Definition*
%ICAS*%
%MOIN*%
%FSLAX24Y24*%
%OFA0.0000B0.0000*%
G90*
G74*
%AMVB_RECTANGLE*
21,1,$1,$2,0,0,$3*
%
%ADD71VB_RECTANGLE,0.01299X0.05906X270.00000*%
%ADD16VB_RECTANGLE,0.02638X0.05906X0.00000*%
%ADD22VB_RECTANGLE,0.02756X0.01575X0.00000*%
%ADD10VB_RECTANGLE,0.03543X0.06299X0.00000*%
%ADD17VB_RECTANGLE,0.03543X0.06299X270.00000*%
%ADD20VB_RECTANGLE,0.03937X0.02362X0.00000*%
%ADD21VB_RECTANGLE,0.03937X0.02362X270.00000*%
%ADD11VB_RECTANGLE,0.05118X0.07087X0.00000*%
%ADD70VB_RECTANGLE,0.05906X0.14961X270.00000*%
%ADD18VB_RECTANGLE,0.06693X0.09843X0.00000*%
%ADD12VB_RECTANGLE,0.07087X0.03150X270.00000*%
%ADD13VB_RECTANGLE,0.07087X0.05118X180.00000*%
%ADD14VB_RECTANGLE,0.07087X0.05512X180.00000*%
%ADD15VB_RECTANGLE,0.07087X0.18110X270.00000*%
%ADD23VB_RECTANGLE,0.10039X0.05118X0.00000*%
%ADD19VB_RECTANGLE,0.15748X0.05906X180.00000*%
G01*
G54D10*
X8059Y22353D03*
X8689D03*
G54D11*
X9627Y22453D03*
X10808D03*
G54D12*
X6327Y28763D03*
X6760D03*
X7193D03*
X7626D03*
X8059D03*
X8493D03*
X8926D03*
X9359D03*
G54D13*
X6248Y24216D03*
X9142D03*
G54D14*
X6563Y29551D03*
X9122D03*
G54D15*
X10913Y18304D03*
Y19603D03*
G54D16*
X7692Y17565D03*
Y19573D03*
X8192Y17565D03*
Y19573D03*
X8692Y17565D03*
Y19573D03*
X9192Y17565D03*
Y19573D03*
G54D17*
X6684Y18339D03*
Y18969D03*
X11454Y20634D03*
Y21264D03*
X16277Y20260D03*
Y20890D03*
G54D18*
X8685Y21010D03*
X10378D03*
G54D19*
X3408Y19654D03*
Y20442D03*
G54D20*
X6769Y16893D03*
Y17444D03*
X8044Y16108D03*
Y16659D03*
G54D21*
X8698Y15892D03*
X8699Y16601D03*
X9250Y15892D03*
Y16601D03*
X12518Y23746D03*
X13070D03*
G54D22*
X6156Y17047D03*
Y17441D03*
G54D23*
X4993Y21109D03*
X6489D03*
G54D70*
X1223Y18729D03*
Y21367D03*
G54D71*
X3674Y16902D03*
Y17158D03*
Y17414D03*
Y17670D03*
X5465Y16902D03*
Y17158D03*
Y17414D03*
Y17670D03*
M02*
