*
G04 Job   : E:\BOULED\DESIGN\LED_PANEL\PCB\PCB.pcb*
G04 User  : DESKTOP-D6MOGOB:alexis*
G04 Layer : EtchLayerTop.gdo*
G04 Date  : Sat Dec 29 22:08:18 2018*
G04 Mentor Graphics Example Gerber Output Definition*
%ICAS*%
%MOIN*%
%FSLAX24Y24*%
%OFA0.0000B0.0000*%
G90*
G74*
%AMVB_RECTANGLE*
21,1,$1,$2,0,0,$3*
%
%ADD10C,0.00500*%
%ADD12C,0.00591*%
%ADD13C,0.01575*%
%ADD15C,0.02362*%
%ADD14C,0.03150*%
%ADD11C,0.03937*%
%ADD16VB_RECTANGLE,0.04724X0.06299X270.00000*%
G01*
G36*
X230Y162D02*
X2241Y3639D01*
Y2362*
G03X2438Y2165I197*
X2606Y2259J197*
G02X2631Y2274I25J15*
G01X2733*
G02X2763Y2244J30*
G01Y2126*
G03X2782Y2074I78*
G01Y1398*
G03X2841Y1339I59*
G01X3471*
G03X3530Y1398J59*
G01Y1870*
G03X3471Y1929I59*
G01X2841*
G03X2782Y1870J59*
G01Y2074*
G03X2841Y2047I59J52*
G01X3471*
G03X3550Y2126J79*
G01Y2598*
G03X3471Y2677I79*
G01X2841*
G03X2763Y2598J79*
G01Y2480*
G02X2733Y2451I30*
G01X2631*
G02X2606Y2465J29*
G03X2438Y2559I168J103*
X2241Y2362J197*
G01Y3639*
X2763Y4541*
Y2854*
G03X2841Y2776I78*
G01X3471*
G03X3550Y2854J78*
G01Y3327*
G03X3471Y3406I79*
G01X3274*
G02X3245Y3435J29*
G01Y3466*
G02X3259Y3492I29*
G03X3353Y3659I103J167*
X3156Y3856I197*
X2959Y3659J197*
X3054Y3492I197*
G02X3068Y3466I16J26*
G01Y3435*
G02X3038Y3406I30*
G01X2841*
G03X2763Y3327J79*
G01Y4541*
X4633Y7774*
Y1398*
G03X4711Y1319I78*
G01X4780*
G02X4810Y1289J30*
G01Y1151*
G03X4873Y998I216*
G01X5316Y555*
G03X5470Y491I154J153*
G01X10246*
G03X10399Y555J217*
G01X10685Y841*
G02X10706Y850I21J21*
X10727Y841J30*
G01X11014Y555*
G03X11167Y491I153J153*
G01X15878*
G03X16031Y555J217*
G01X16331Y854*
G02X16352Y863I21J21*
X16372Y854J30*
G01X16672Y555*
G03X16825Y491I153J153*
G01X21541*
G03X21694Y555J217*
G01X21993Y854*
G02X22014Y863I21J21*
X22035Y854J30*
G01X22335Y555*
G03X22488Y491I153J153*
G01X27203*
G03X27356Y555J217*
G01X27656Y854*
G02X27677Y863I21J21*
X27698Y854J30*
G01X27997Y555*
G03X28150Y491I153J153*
G01X32866*
G03X33019Y555J217*
G01X33318Y854*
G02X33339Y863I21J21*
X33360Y854J30*
G01X33660Y555*
G03X33813Y491I153J153*
G01X34822*
G03X34853Y493J217*
G02X34858Y494I5J29*
G01X38531*
G03X38684Y557J216*
G01X39083Y956*
G02X39104Y965I21J21*
G01X39146*
G02X39167Y956J30*
G01X39452Y670*
G03X39605Y607I153J153*
G01X44307*
G03X44460Y670J216*
G01X44644Y854*
G02X44665Y863I21J21*
X44685Y854J30*
G01X44869Y670*
G03X45022Y607I153J153*
G01X49969*
G03X50123Y670J216*
G01X50306Y854*
G02X50327Y863I21J21*
X50348Y854J30*
G01X50532Y670*
G03X50685Y607I153J153*
G01X55643*
G03X55797Y670J216*
G01X55975Y848*
G02X55995Y857I20J21*
X56016Y848J30*
G01X56194Y670*
G03X56348Y607I154J153*
G01X61295*
G03X61448Y670J216*
G01X61631Y854*
G02X61652Y863I21J21*
X61673Y854J30*
G01X61857Y670*
G03X62010Y607I153J153*
G01X67110*
G03X67263Y670J216*
G01X67468Y875*
G03X67531Y1028I153J153*
G01Y1289*
G02X67561Y1319I30*
G01X67630*
G03X67709Y1398J79*
G01Y1870*
G03X67630Y1949I79*
G01X67000*
G03X66921Y1870J79*
G01Y1398*
G03X67000Y1319I79*
G01X67069*
G02X67098Y1289J30*
G01Y1130*
G02X67090Y1109I29*
G01X67029Y1049*
G02X67008Y1040I21J20*
G01X62112*
G02X62091Y1049J29*
G01X61878Y1262*
G02X61869Y1283I20J21*
G01Y1289*
G02X61898Y1319I29*
G01X61967*
G03X62046Y1398J79*
G01Y1870*
G03X61967Y1949I79*
G01X61337*
G03X61259Y1870J79*
G01Y1398*
G03X61337Y1319I78*
G01X61406*
G02X61436Y1289J30*
G01Y1283*
G02X61427Y1262I30*
G01X61214Y1049*
G02X61193Y1040I21J20*
G01X56449*
G02X56429Y1049J29*
G01X56215Y1262*
G02X56206Y1283I21J21*
G01Y1289*
G02X56236Y1319I30*
G01X56305*
G03X56383Y1398J79*
G01Y1870*
G03X56305Y1949I78*
G01X55675*
G03X55596Y1870J79*
G01Y1398*
G03X55675Y1319I79*
G01X55744*
G02X55773Y1289J30*
G01Y1272*
G02X55765Y1251I29*
G01X55562Y1049*
G02X55542Y1040I20J20*
G01X50787*
G02X50766Y1049J29*
G01X50552Y1262*
G02X50544Y1283I21J21*
G01Y1289*
G02X50573Y1319I29*
G01X50642*
G03X50721Y1398J79*
G01Y1870*
G03X50642Y1949I79*
G01X50012*
G03X49933Y1870J79*
G01Y1398*
G03X50012Y1319I79*
G01X50081*
G02X50111Y1289J30*
G01Y1283*
G02X50102Y1262I30*
G01X49888Y1049*
G02X49867Y1040I21J20*
G01X45124*
G02X45103Y1049J29*
G01X44890Y1262*
G02X44881Y1283I21J21*
G01Y1289*
G02X44911Y1319I30*
G01X44980*
G03X45058Y1398J79*
G01Y1870*
G03X44980Y1949I78*
G01X44350*
G03X44271Y1870J79*
G01Y1398*
G03X44350Y1319I79*
G01X44419*
G02X44448Y1289J30*
G01Y1283*
G02X44439Y1262I29*
G01X44226Y1049*
G02X44205Y1040I21J20*
G01X39707*
G02X39686Y1049J29*
G01X39401Y1334*
G03X39397Y1337I153J153*
G02X39388Y1359I21J22*
X39390Y1369I30*
G03X39396Y1398I73J29*
G01Y1870*
G03X39317Y1949I79*
G01X38687*
G03X38608Y1870J79*
G01Y1398*
G03X38687Y1319I79*
G01X38756*
G02X38785Y1289J30*
G01Y1283*
G02X38777Y1262I29*
G01X38450Y935*
G02X38429Y927I21J21*
G01X34822*
G03X34790Y925J217*
G02X34786Y924I4J29*
G01X33915*
G02X33894Y933J30*
G01X33565Y1262*
G02X33556Y1283I20J21*
G01Y1289*
G02X33585Y1319I29*
G01X33654*
G03X33733Y1398J79*
G01Y1870*
G03X33654Y1949I79*
G01X33024*
G03X32946Y1870J79*
G01Y1398*
G03X33024Y1319I78*
G01X33093*
G02X33123Y1289J30*
G01Y1283*
G02X33114Y1262I30*
G01X32785Y933*
G02X32764Y924I21J21*
G01X28252*
G02X28231Y933J30*
G01X27902Y1262*
G02X27893Y1283I21J21*
G01Y1289*
G02X27923Y1319I30*
G01X27992*
G03X28070Y1398J79*
G01Y1870*
G03X27992Y1949I78*
G01X27362*
G03X27283Y1870J79*
G01Y1398*
G03X27362Y1319I79*
G01X27431*
G02X27460Y1289J30*
G01Y1283*
G02X27452Y1262I29*
G01X27122Y933*
G02X27101Y924I21J21*
G01X22590*
G02X22569Y933J30*
G01X22239Y1262*
G02X22231Y1283I21J21*
G01Y1289*
G02X22260Y1319I29*
G01X22329*
G03X22408Y1398J79*
G01Y1870*
G03X22329Y1949I79*
G01X21699*
G03X21620Y1870J79*
G01Y1398*
G03X21699Y1319I79*
G01X21768*
G02X21798Y1289J30*
G01Y1283*
G02X21789Y1262I30*
G01X21460Y933*
G02X21439Y924I21J21*
G01X16927*
G02X16906Y933J30*
G01X16577Y1262*
G02X16568Y1283I21J21*
G01Y1289*
G02X16598Y1319I30*
G01X16667*
G03X16745Y1398J79*
G01Y1870*
G03X16667Y1949I78*
G01X16037*
G03X15958Y1870J79*
G01Y1398*
G03X16037Y1319I79*
G01X16106*
G02X16135Y1289J30*
G01Y1283*
G02X16126Y1262I29*
G01X15797Y933*
G02X15776Y924I21J21*
G01X11269*
G02X11248Y933J30*
G01X10914Y1267*
G02X10906Y1288I21J21*
G01Y1289*
G02X10935Y1319I29*
G01X11004*
G03X11083Y1398J79*
G01Y1870*
G03X11004Y1949I79*
G01X10374*
G03X10295Y1870J79*
G01Y1398*
G03X10374Y1319I79*
G01X10443*
G02X10472Y1289J30*
G01Y1253*
G02X10464Y1232I29*
G01X10165Y933*
G02X10144Y924I21J21*
G01X5571*
G02X5551Y933J30*
G01X5252Y1232*
G02X5243Y1253I20J21*
G01Y1289*
G02X5272Y1319I29*
G01X5341*
G03X5420Y1398J79*
G01Y1559*
G02X5421Y1568I30*
G03X5432Y1634I206J66*
X5421Y1700I217*
G02X5420Y1709I29J9*
G01Y1870*
G03X5341Y1949I79*
G01X4711*
G03X4633Y1870J79*
G01Y2126*
G03X4711Y2047I78*
G01X5341*
G03X5420Y2126J79*
G01Y2244*
G02X5450Y2274I30*
G01X8396*
G02X8425Y2244J30*
G01Y2126*
G03X8445Y2074I79*
G01Y1398*
G03X8504Y1339I59*
G01X9134*
G03X9193Y1398J59*
G01Y1870*
G03X9134Y1929I59*
G01X8504*
G03X8445Y1870J59*
G01Y2074*
G03X8504Y2047I59J52*
G01X9134*
G03X9213Y2126J79*
G01Y2598*
G03X9134Y2677I79*
G01X8504*
G03X8425Y2598J79*
G01Y2480*
G02X8396Y2451I29*
G01X5450*
G02X5420Y2480J29*
G01Y2598*
G03X5341Y2677I79*
G01X4711*
G03X4633Y2598J79*
G01Y2854*
G03X4711Y2776I78*
G01X5341*
G03X5420Y2854J78*
G01Y2972*
G02X5450Y3002I30*
G01X8396*
G02X8425Y2972J30*
G01Y2854*
G03X8504Y2776I79*
G01X9134*
G03X9213Y2854J78*
G01Y3327*
G03X9134Y3406I79*
G01X8504*
G03X8425Y3327J79*
G01Y3209*
G02X8396Y3179I29*
G01X5450*
G02X5420Y3209J30*
G01Y3327*
G03X5341Y3406I79*
G01X4711*
G03X4633Y3327J79*
G01Y7774*
X5174Y8710*
Y6538*
G03X5370Y6341I196*
X5538Y6435J197*
G02X5564Y6449I26J15*
X5594Y6420J29*
G01Y6302*
G03X5672Y6223I78*
G01X6302*
G03X6381Y6302J79*
G01Y6774*
G03X6302Y6853I79*
G01X5672*
G03X5594Y6774J79*
G01Y6656*
G02X5564Y6627I30*
X5538Y6641J29*
G03X5370Y6735I168J103*
X5174Y6538J197*
G01Y8710*
X5220Y8790*
Y7266*
G03X5417Y7069I197*
X5545Y7117J197*
G02X5564Y7124I19J23*
X5594Y7094J30*
G01Y7030*
G03X5672Y6951I78*
G01X6302*
G03X6381Y7030J79*
G01Y7502*
G03X6302Y7581I79*
G01X5672*
G03X5594Y7502J79*
G01Y7438*
G02X5564Y7409I30*
X5545Y7416J29*
G03X5417Y7463I128J150*
X5220Y7266J197*
G01Y8790*
X5594Y9436*
Y7758*
G03X5672Y7680I78*
G01X6302*
G03X6381Y7758J78*
G01Y8231*
G03X6302Y8309I79*
G01X6233*
G02X6204Y8339J30*
G01Y8663*
G02X6213Y8683I29*
G01X7287Y9758*
G02X7308Y9767I21J21*
G01X7343*
Y4724*
G03X8183Y3885I840*
X9023Y4724J839*
X8183Y5564I840*
X7343Y4724J840*
G01Y9767*
X7464*
Y6302*
G03X7543Y6223I79*
G01X8172*
G03X8251Y6302J79*
G01Y6420*
G02X8281Y6449I30*
G01X10295*
Y2126*
G03X10374Y2047I79*
G01X11004*
G03X11083Y2126J79*
G01Y2244*
G02X11112Y2274I29*
G01X14058*
G02X14088Y2244J30*
G01Y2126*
G03X14107Y2074I79*
G01Y1398*
G03X14167Y1339I60*
G01X14796*
G03X14856Y1398J59*
G01Y1870*
G03X14796Y1929I60*
G01X14167*
G03X14107Y1870J59*
G01Y2074*
G03X14167Y2047I60J52*
G01X14796*
G03X14875Y2126J79*
G01Y2598*
G03X14796Y2677I79*
G01X14167*
G03X14088Y2598J79*
G01Y2480*
G02X14058Y2451I30*
G01X11112*
G02X11083Y2480J29*
G01Y2598*
G03X11004Y2677I79*
G01X10374*
G03X10295Y2598J79*
G01Y2854*
G03X10374Y2776I79*
G01X11004*
G03X11083Y2854J78*
G01Y2972*
G02X11112Y3002I29*
G01X14058*
G02X14088Y2972J30*
G01Y2854*
G03X14167Y2776I79*
G01X14796*
G03X14875Y2854J78*
G01Y3327*
G03X14796Y3406I79*
G01X14167*
G03X14088Y3327J79*
G01Y3209*
G02X14058Y3179I30*
G01X11112*
G02X11083Y3209J30*
G01Y3327*
G03X11004Y3406I79*
G01X10374*
G03X10295Y3327J79*
G01Y6449*
X11227*
G02X11256Y6420J29*
G01Y6302*
G03X11335Y6223I79*
G01X11965*
G03X12044Y6302J79*
G01Y6774*
G03X11965Y6853I79*
G01X11335*
G03X11256Y6774J79*
G01Y6656*
G02X11227Y6626I29*
G01X8281*
G02X8251Y6656J30*
G01Y6774*
G03X8172Y6853I79*
G01X7543*
G03X7464Y6774J79*
G01Y7030*
G03X7543Y6951I79*
G01X8172*
G03X8251Y7030J79*
G01Y7148*
G02X8281Y7178I30*
G01X11227*
G02X11256Y7148J30*
G01Y7030*
G03X11335Y6951I79*
G01X11965*
G03X12044Y7030J79*
G01Y7502*
G03X11965Y7581I79*
G01X11335*
G03X11256Y7502J79*
G01Y7384*
G02X11227Y7355I29*
G01X8281*
G02X8251Y7384J29*
G01Y7502*
G03X8172Y7581I79*
G01X7543*
G03X7464Y7502J79*
G01Y9767*
X7483*
Y7758*
G03X7543Y7699I60*
G01X8172*
G03X8231Y7758J59*
G01Y8231*
G03X8172Y8290I59*
G01X7543*
G03X7483Y8231J59*
G01Y9767*
X10466*
G03X10619Y9830J216*
G01X10668Y9879*
G02X10689Y9888I21J21*
X10710Y9879J30*
G01X10759Y9830*
G03X10912Y9767I153J153*
G01X11103*
G02X11124Y9758J30*
G01X11425Y9457*
G02X11433Y9436I21J21*
G01Y8339*
G02X11404Y8309I29*
G01X11335*
G03X11256Y8231J78*
G01Y7758*
G03X11335Y7680I79*
G01X11965*
G03X12044Y7758J78*
G01Y8231*
G03X11965Y8309I79*
G01X11896*
G02X11867Y8339J30*
G01Y9436*
G02X11875Y9457I29*
G01X12176Y9758*
G02X12197Y9767I21J21*
G01X13126*
Y6302*
G03X13205Y6223I79*
G01X13668*
Y4734*
G03X13944Y4458I276*
X14219Y4734J276*
X13944Y5009I275*
X13668Y4734J275*
G01Y6223*
X13835*
G03X13914Y6302J79*
G01Y6420*
G02X13943Y6449I29*
G01X15958*
Y2126*
G03X16037Y2047I79*
G01X16667*
G03X16745Y2126J79*
G01Y2244*
G02X16775Y2274I30*
G01X19721*
G02X19750Y2244J30*
G01Y2126*
G03X19770Y2074I79*
G01Y1398*
G03X19829Y1339I59*
G01X20459*
G03X20518Y1398J59*
G01Y1870*
G03X20459Y1929I59*
G01X19829*
G03X19770Y1870J59*
G01Y2074*
G03X19829Y2047I59J52*
G01X20459*
G03X20538Y2126J79*
G01Y2598*
G03X20459Y2677I79*
G01X19829*
G03X19750Y2598J79*
G01Y2480*
G02X19721Y2451I29*
G01X16775*
G02X16745Y2480J29*
G01Y2598*
G03X16667Y2677I78*
G01X16037*
G03X15958Y2598J79*
G01Y2854*
G03X16037Y2776I79*
G01X16667*
G03X16745Y2854J78*
G01Y2972*
G02X16775Y3002I30*
G01X19721*
G02X19750Y2972J30*
G01Y2854*
G03X19829Y2776I79*
G01X20459*
G03X20538Y2854J78*
G01Y3327*
G03X20459Y3406I79*
G01X19829*
G03X19750Y3327J79*
G01Y3209*
G02X19721Y3179I29*
G01X16775*
G02X16745Y3209J30*
G01Y3327*
G03X16667Y3406I78*
G01X16037*
G03X15958Y3327J79*
G01Y6449*
X16889*
G02X16919Y6420J29*
G01Y6302*
G03X16998Y6223I79*
G01X17628*
G03X17706Y6302J79*
G01Y6774*
G03X17628Y6853I78*
G01X16998*
G03X16919Y6774J79*
G01Y6656*
G02X16889Y6626I30*
G01X13943*
G02X13914Y6656J30*
G01Y6774*
G03X13835Y6853I79*
G01X13205*
G03X13126Y6774J79*
G01Y7030*
G03X13205Y6951I79*
G01X13835*
G03X13914Y7030J79*
G01Y7148*
G02X13943Y7178I29*
G01X16889*
G02X16919Y7148J30*
G01Y7030*
G03X16998Y6951I79*
G01X17628*
G03X17706Y7030J79*
G01Y7502*
G03X17628Y7581I78*
G01X16998*
G03X16919Y7502J79*
G01Y7384*
G02X16889Y7355I30*
G01X13943*
G02X13914Y7384J29*
G01Y7502*
G03X13835Y7581I79*
G01X13205*
G03X13126Y7502J79*
G01Y9767*
X13146*
Y7758*
G03X13205Y7699I59*
G01X13835*
G03X13894Y7758J59*
G01Y8231*
G03X13835Y8290I59*
G01X13205*
G03X13146Y8231J59*
G01Y9767*
X16129*
G03X16282Y9830J216*
G01X16331Y9879*
G02X16352Y9888I21J21*
X16372Y9879J30*
G01X16421Y9830*
G03X16574Y9767I153J153*
G01X16765*
G02X16786Y9758J30*
G01X17087Y9457*
G02X17096Y9436I20J21*
G01Y8339*
G02X17067Y8309I29*
G01X16998*
G03X16919Y8231J78*
G01Y7758*
G03X16998Y7680I79*
G01X17628*
G03X17706Y7758J78*
G01Y8231*
G03X17628Y8309I78*
G01X17559*
G02X17529Y8339J30*
G01Y9436*
G02X17538Y9457I30*
G01X17839Y9758*
G02X17860Y9767I21J21*
G01X18789*
Y6302*
G03X18868Y6223I79*
G01X19498*
G03X19576Y6302J79*
G01Y6420*
G02X19606Y6449I30*
G01X21620*
Y2126*
G03X21699Y2047I79*
G01X22329*
G03X22408Y2126J79*
G01Y2244*
G02X22437Y2274I29*
G01X25383*
G02X25413Y2244J30*
G01Y2126*
G03X25433Y2074I79*
G01Y1398*
G03X25492Y1339I59*
G01X26122*
G03X26181Y1398J59*
G01Y1870*
G03X26122Y1929I59*
G01X25492*
G03X25433Y1870J59*
G01Y2074*
G03X25492Y2047I59J52*
G01X26122*
G03X26200Y2126J79*
G01Y2598*
G03X26122Y2677I78*
G01X25492*
G03X25413Y2598J79*
G01Y2480*
G02X25383Y2451I30*
G01X22437*
G02X22408Y2480J29*
G01Y2598*
G03X22329Y2677I79*
G01X21699*
G03X21620Y2598J79*
G01Y2854*
G03X21699Y2776I79*
G01X22329*
G03X22408Y2854J78*
G01Y2972*
G02X22437Y3002I29*
G01X25383*
G02X25413Y2972J30*
G01Y2854*
G03X25492Y2776I79*
G01X26122*
G03X26200Y2854J78*
G01Y3327*
G03X26122Y3406I78*
G01X25492*
G03X25413Y3327J79*
G01Y3209*
G02X25383Y3179I30*
G01X22437*
G02X22408Y3209J30*
G01Y3327*
G03X22329Y3406I79*
G01X21699*
G03X21620Y3327J79*
G01Y6449*
X22552*
G02X22581Y6420J29*
G01Y6302*
G03X22660Y6223I79*
G01X23290*
G03X23369Y6302J79*
G01Y6774*
G03X23290Y6853I79*
G01X22660*
G03X22581Y6774J79*
G01Y6656*
G02X22552Y6626I29*
G01X19606*
G02X19576Y6656J30*
G01Y6774*
G03X19498Y6853I78*
G01X18868*
G03X18789Y6774J79*
G01Y7030*
G03X18868Y6951I79*
G01X19498*
G03X19576Y7030J79*
G01Y7148*
G02X19606Y7178I30*
G01X22552*
G02X22581Y7148J30*
G01Y7030*
G03X22660Y6951I79*
G01X23290*
G03X23369Y7030J79*
G01Y7502*
G03X23290Y7581I79*
G01X22660*
G03X22581Y7502J79*
G01Y7384*
G02X22552Y7355I29*
G01X19606*
G02X19576Y7384J29*
G01Y7502*
G03X19498Y7581I78*
G01X18868*
G03X18789Y7502J79*
G01Y9767*
X18809*
Y7758*
G03X18868Y7699I59*
G01X19498*
G03X19557Y7758J59*
G01Y8231*
G03X19498Y8290I59*
G01X18868*
G03X18809Y8231J59*
G01Y9767*
X20765*
Y8861*
G03X21260Y8366I495*
X21755Y8861J495*
X21260Y9357I495*
X20765Y8861J496*
G01Y9767*
X21809*
G03X21962Y9830J216*
G01X22011Y9879*
G02X22032Y9888I21J21*
X22053Y9879J30*
G01X22101Y9830*
G03X22254Y9767I153J153*
G01X22385*
G02X22406Y9758J30*
G01X22707Y9457*
G02X22716Y9436I21J21*
G01Y8908*
G03X22754Y8786I217*
G02X22759Y8769I25J17*
G01Y8339*
G02X22729Y8309I30*
G01X22660*
G03X22581Y8231J78*
G01Y7758*
G03X22660Y7680I79*
G01X23290*
G03X23369Y7758J78*
G01Y8231*
G03X23290Y8309I79*
G01X23221*
G02X23192Y8339J30*
G01Y8865*
G03X23154Y8987I217*
G02X23149Y9004I25J17*
G01Y9436*
G02X23158Y9457I30*
G01X23459Y9758*
G02X23480Y9767I21J21*
G01X24452*
Y6302*
G03X24530Y6223I78*
G01X25160*
G03X25239Y6302J79*
G01Y6420*
G02X25269Y6449I30*
G01X27283*
Y2126*
G03X27362Y2047I79*
G01X27992*
G03X28070Y2126J79*
G01Y2244*
G02X28100Y2274I30*
G01X31046*
G02X31076Y2244J30*
G01Y2126*
G03X31095Y2074I78*
G01Y1398*
G03X31154Y1339I59*
G01X31784*
G03X31843Y1398J59*
G01Y1870*
G03X31784Y1929I59*
G01X31154*
G03X31095Y1870J59*
G01Y2074*
G03X31154Y2047I59J52*
G01X31784*
G03X31863Y2126J79*
G01Y2598*
G03X31784Y2677I79*
G01X31154*
G03X31076Y2598J79*
G01Y2480*
G02X31046Y2451I30*
G01X28100*
G02X28070Y2480J29*
G01Y2598*
G03X27992Y2677I78*
G01X27362*
G03X27283Y2598J79*
G01Y2854*
G03X27362Y2776I79*
G01X27992*
G03X28070Y2854J78*
G01Y2972*
G02X28100Y3002I30*
G01X31046*
G02X31076Y2972J30*
G01Y2854*
G03X31154Y2776I78*
G01X31784*
G03X31863Y2854J78*
G01Y3327*
G03X31784Y3406I79*
G01X31154*
G03X31076Y3327J79*
G01Y3209*
G02X31046Y3179I30*
G01X28100*
G02X28070Y3209J30*
G01Y3327*
G03X27992Y3406I78*
G01X27362*
G03X27283Y3327J79*
G01Y6449*
X28215*
G02X28244Y6420J29*
G01Y6302*
G03X28323Y6223I79*
G01X28953*
G03X29031Y6302J79*
G01Y6774*
G03X28953Y6853I78*
G01X28323*
G03X28244Y6774J79*
G01Y6656*
G02X28215Y6626I29*
G01X25269*
G02X25239Y6656J30*
G01Y6774*
G03X25160Y6853I79*
G01X24530*
G03X24452Y6774J79*
G01Y7030*
G03X24530Y6951I78*
G01X25160*
G03X25239Y7030J79*
G01Y7148*
G02X25269Y7178I30*
G01X28215*
G02X28244Y7148J30*
G01Y7030*
G03X28323Y6951I79*
G01X28953*
G03X29031Y7030J79*
G01Y7502*
G03X28953Y7581I78*
G01X28323*
G03X28244Y7502J79*
G01Y7384*
G02X28215Y7355I29*
G01X25269*
G02X25239Y7384J29*
G01Y7502*
G03X25160Y7581I79*
G01X24530*
G03X24452Y7502J79*
G01Y9767*
X24471*
Y7758*
G03X24530Y7699I59*
G01X25160*
G03X25219Y7758J59*
G01Y8231*
G03X25160Y8290I59*
G01X24530*
G03X24471Y8231J59*
G01Y9767*
X27463*
G03X27616Y9830J216*
G01X27664Y9879*
G02X27685Y9888I21J21*
X27706Y9879J30*
G01X27755Y9830*
G03X27908Y9767I153J153*
G01X28085*
G02X28106Y9758J30*
G01X28407Y9457*
G02X28416Y9436I20J21*
G01Y8676*
G03X28421Y8632I217*
G02Y8626I29J6*
G01Y8339*
G02X28392Y8309I29*
G01X28323*
G03X28244Y8231J78*
G01Y7758*
G03X28323Y7680I79*
G01X28953*
G03X29031Y7758J78*
G01Y8231*
G03X28953Y8309I78*
G01X28884*
G02X28854Y8339J30*
G01Y8671*
G03X28850Y8715I216*
G02X28849Y8721I29J6*
G01Y9436*
G02X28858Y9457I30*
G01X29318Y9917*
G02X29339Y9926I21J21*
G01X30070*
Y4724*
G03X30909Y3885I839*
X31749Y4724J839*
X30909Y5564I840*
X30070Y4724J840*
G01Y9926*
X30114*
Y6302*
G03X30193Y6223I79*
G01X30823*
G03X30902Y6302J79*
G01Y6420*
G02X30931Y6449I29*
G01X32946*
Y2126*
G03X33024Y2047I78*
G01X33654*
G03X33733Y2126J79*
G01Y2244*
G02X33763Y2274I30*
G01X36709*
G02X36738Y2244J30*
G01Y2126*
G03X36758Y2074I79*
G01Y1398*
G03X36817Y1339I59*
G01X37447*
G03X37506Y1398J59*
G01Y1870*
G03X37447Y1929I59*
G01X36817*
G03X36758Y1870J59*
G01Y2074*
G03X36817Y2047I59J52*
G01X37447*
G03X37526Y2126J79*
G01Y2598*
G03X37447Y2677I79*
G01X36817*
G03X36738Y2598J79*
G01Y2480*
G02X36709Y2451I29*
G01X33763*
G02X33733Y2480J29*
G01Y2598*
G03X33654Y2677I79*
G01X33024*
G03X32946Y2598J79*
G01Y2854*
G03X33024Y2776I78*
G01X33654*
G03X33733Y2854J78*
G01Y2972*
G02X33763Y3002I30*
G01X36709*
G02X36738Y2972J30*
G01Y2854*
G03X36817Y2776I79*
G01X37447*
G03X37526Y2854J78*
G01Y3327*
G03X37447Y3406I79*
G01X36817*
G03X36738Y3327J79*
G01Y3209*
G02X36709Y3179I29*
G01X33763*
G02X33733Y3209J30*
G01Y3327*
G03X33654Y3406I79*
G01X33024*
G03X32946Y3327J79*
G01Y6449*
X33877*
G02X33907Y6420J29*
G01Y6302*
G03X33985Y6223I78*
G01X34615*
G03X34694Y6302J79*
G01Y6774*
G03X34615Y6853I79*
G01X33985*
G03X33907Y6774J79*
G01Y6656*
G02X33877Y6626I30*
G01X30931*
G02X30902Y6656J30*
G01Y6774*
G03X30823Y6853I79*
G01X30193*
G03X30114Y6774J79*
G01Y7030*
G03X30193Y6951I79*
G01X30823*
G03X30902Y7030J79*
G01Y7148*
G02X30931Y7178I29*
G01X33877*
G02X33907Y7148J30*
G01Y7030*
G03X33985Y6951I78*
G01X34615*
G03X34694Y7030J79*
G01Y7502*
G03X34615Y7581I79*
G01X33985*
G03X33907Y7502J79*
G01Y7384*
G02X33877Y7355I30*
G01X30931*
G02X30902Y7384J29*
G01Y7502*
G03X30823Y7581I79*
G01X30193*
G03X30114Y7502J79*
G01Y9926*
X30134*
Y7758*
G03X30193Y7699I59*
G01X30823*
G03X30882Y7758J59*
G01Y8231*
G03X30823Y8290I59*
G01X30193*
G03X30134Y8231J59*
G01Y9926*
X32229*
G03X32256Y9927J216*
G02X32259Y9928I3J29*
G01X33117*
G03X33270Y9991J216*
G01X33318Y10040*
G02X33339Y10048I21J21*
X33360Y10040J29*
G01X33409Y9991*
G03X33562Y9928I153J153*
G01X33753*
G02X33774Y9919J30*
G01X34075Y9618*
G02X34084Y9597I21J21*
G01Y8339*
G02X34054Y8309I30*
G01X33985*
G03X33907Y8231J78*
G01Y7758*
G03X33985Y7680I78*
G01X34615*
G03X34694Y7758J78*
G01Y8231*
G03X34615Y8309I79*
G01X34546*
G02X34517Y8339J30*
G01Y9597*
G02X34526Y9618I29*
G01X34827Y9919*
G02X34848Y9928I21J21*
G01X35777*
Y6302*
G03X35856Y6223I79*
G01X36485*
G03X36564Y6302J79*
G01Y6420*
G02X36594Y6449I30*
G01X38608*
Y2126*
G03X38687Y2047I79*
G01X39317*
G03X39396Y2126J79*
G01Y2244*
G02X39425Y2274I29*
G01X42371*
G02X42401Y2244J30*
G01Y2126*
G03X42420Y2074I79*
G01Y1398*
G03X42480Y1339I60*
G01X43109*
G03X43169Y1398J59*
G01Y1870*
G03X43109Y1929I60*
G01X42480*
G03X42420Y1870J59*
G01Y2074*
G03X42480Y2047I60J52*
G01X43109*
G03X43188Y2126J79*
G01Y2598*
G03X43109Y2677I79*
G01X42480*
G03X42401Y2598J79*
G01Y2480*
G02X42371Y2451I30*
G01X39425*
G02X39396Y2480J29*
G01Y2598*
G03X39317Y2677I79*
G01X38687*
G03X38608Y2598J79*
G01Y2854*
G03X38687Y2776I79*
G01X39317*
G03X39396Y2854J78*
G01Y2972*
G02X39425Y3002I29*
G01X42371*
G02X42401Y2972J30*
G01Y2854*
G03X42480Y2776I79*
G01X43109*
G03X43188Y2854J78*
G01Y3327*
G03X43109Y3406I79*
G01X42480*
G03X42401Y3327J79*
G01Y3209*
G02X42371Y3179I30*
G01X39425*
G02X39396Y3209J30*
G01Y3327*
G03X39317Y3406I79*
G01X38687*
G03X38608Y3327J79*
G01Y6449*
X39540*
G02X39569Y6420J29*
G01Y6302*
G03X39648Y6223I79*
G01X40278*
G03X40357Y6302J79*
G01Y6774*
G03X40278Y6853I79*
G01X39648*
G03X39569Y6774J79*
G01Y6656*
G02X39540Y6626I29*
G01X36594*
G02X36564Y6656J30*
G01Y6774*
G03X36485Y6853I79*
G01X35856*
G03X35777Y6774J79*
G01Y7030*
G03X35856Y6951I79*
G01X36485*
G03X36564Y7030J79*
G01Y7148*
G02X36594Y7178I30*
G01X39540*
G02X39569Y7148J30*
G01Y7030*
G03X39648Y6951I79*
G01X40278*
G03X40357Y7030J79*
G01Y7502*
G03X40278Y7581I79*
G01X39648*
G03X39569Y7502J79*
G01Y7384*
G02X39540Y7355I29*
G01X36594*
G02X36564Y7384J29*
G01Y7502*
G03X36485Y7581I79*
G01X35856*
G03X35777Y7502J79*
G01Y9928*
X35796*
Y7758*
G03X35856Y7699I60*
G01X36485*
G03X36544Y7758J59*
G01Y8231*
G03X36485Y8290I59*
G01X35856*
G03X35796Y8231J59*
G01Y9928*
X38434*
G03X38587Y9991J216*
G01X38745Y10149*
G02X38766Y10158I21J21*
X38787Y10149J30*
G01X38945Y9991*
G03X39098Y9928I153J153*
G01X39416*
G02X39437Y9919J30*
G01X39738Y9618*
G02X39746Y9597I21J21*
G01Y8339*
G02X39717Y8309I29*
G01X39648*
G03X39569Y8231J78*
G01Y7758*
G03X39648Y7680I79*
G01X40278*
G03X40357Y7758J78*
G01Y8231*
G03X40278Y8309I79*
G01X40209*
G02X40180Y8339J30*
G01Y9597*
G02X40188Y9618I29*
G01X40489Y9919*
G02X40510Y9928I21J21*
G01X41439*
Y6302*
G03X41518Y6223I79*
G01X42148*
G03X42227Y6302J79*
G01Y6420*
G02X42256Y6449I29*
G01X44271*
Y2126*
G03X44350Y2047I79*
G01X44980*
G03X45058Y2126J79*
G01Y2244*
G02X45088Y2274I30*
G01X48034*
G02X48063Y2244J30*
G01Y2126*
G03X48083Y2074I79*
G01Y1398*
G03X48142Y1339I59*
G01X48772*
G03X48831Y1398J59*
G01Y1870*
G03X48772Y1929I59*
G01X48142*
G03X48083Y1870J59*
G01Y2074*
G03X48142Y2047I59J52*
G01X48772*
G03X48851Y2126J79*
G01Y2598*
G03X48772Y2677I79*
G01X48142*
G03X48063Y2598J79*
G01Y2480*
G02X48034Y2451I29*
G01X45088*
G02X45058Y2480J29*
G01Y2598*
G03X44980Y2677I78*
G01X44350*
G03X44271Y2598J79*
G01Y2854*
G03X44350Y2776I79*
G01X44980*
G03X45058Y2854J78*
G01Y2972*
G02X45088Y3002I30*
G01X48034*
G02X48063Y2972J30*
G01Y2854*
G03X48142Y2776I79*
G01X48772*
G03X48851Y2854J78*
G01Y3327*
G03X48772Y3406I79*
G01X48142*
G03X48063Y3327J79*
G01Y3209*
G02X48034Y3179I29*
G01X45088*
G02X45058Y3209J30*
G01Y3327*
G03X44980Y3406I78*
G01X44350*
G03X44271Y3327J79*
G01Y6449*
X45202*
G02X45232Y6420J29*
G01Y6302*
G03X45311Y6223I79*
G01X45941*
G03X46019Y6302J79*
G01Y6774*
G03X45941Y6853I78*
G01X45311*
G03X45232Y6774J79*
G01Y6656*
G02X45202Y6626I30*
G01X42256*
G02X42227Y6656J30*
G01Y6774*
G03X42148Y6853I79*
G01X41518*
G03X41439Y6774J79*
G01Y7030*
G03X41518Y6951I79*
G01X42148*
G03X42227Y7030J79*
G01Y7148*
G02X42256Y7178I29*
G01X45202*
G02X45232Y7148J30*
G01Y7030*
G03X45311Y6951I79*
G01X45941*
G03X46019Y7030J79*
G01Y7502*
G03X45941Y7581I78*
G01X45311*
G03X45232Y7502J79*
G01Y7384*
G02X45202Y7355I30*
G01X42256*
G02X42227Y7384J29*
G01Y7502*
G03X42148Y7581I79*
G01X41518*
G03X41439Y7502J79*
G01Y9928*
X41459*
Y7758*
G03X41518Y7699I59*
G01X42148*
G03X42207Y7758J59*
G01Y8231*
G03X42148Y8290I59*
G01X41518*
G03X41459Y8231J59*
G01Y9928*
X44480*
G02X44500Y9920J30*
G03X44552Y9886I144J161*
G02X44560Y9880I13J27*
G01X45400Y9039*
G02X45409Y9018I20J21*
G01Y8339*
G02X45380Y8309I29*
G01X45311*
G03X45232Y8231J78*
G01Y7758*
G03X45311Y7680I79*
G01X45941*
G03X46019Y7758J78*
G01Y8231*
G03X45941Y8309I78*
G01X45872*
G02X45842Y8339J30*
G01Y9018*
G02X45851Y9039I30*
G01X46242Y9431*
G02X46263Y9439I21J21*
G01X47102*
Y6302*
G03X47181Y6223I79*
G01X47811*
G03X47889Y6302J79*
G01Y6420*
G02X47919Y6449I30*
G01X49933*
Y2126*
G03X50012Y2047I79*
G01X50642*
G03X50721Y2126J79*
G01Y2244*
G02X50750Y2274I29*
G01X53696*
G02X53726Y2244J30*
G01Y2126*
G03X53746Y2074I79*
G01Y1398*
G03X53805Y1339I59*
G01X54435*
G03X54494Y1398J59*
G01Y1870*
G03X54435Y1929I59*
G01X53805*
G03X53746Y1870J59*
G01Y2074*
G03X53805Y2047I59J52*
G01X54435*
G03X54513Y2126J79*
G01Y2598*
G03X54435Y2677I78*
G01X53805*
G03X53726Y2598J79*
G01Y2480*
G02X53696Y2451I30*
G01X50750*
G02X50721Y2480J29*
G01Y2598*
G03X50642Y2677I79*
G01X50012*
G03X49933Y2598J79*
G01Y2854*
G03X50012Y2776I79*
G01X50642*
G03X50721Y2854J78*
G01Y2972*
G02X50750Y3002I29*
G01X53696*
G02X53726Y2972J30*
G01Y2854*
G03X53805Y2776I79*
G01X54435*
G03X54513Y2854J78*
G01Y3327*
G03X54435Y3406I78*
G01X53805*
G03X53726Y3327J79*
G01Y3209*
G02X53696Y3179I30*
G01X50750*
G02X50721Y3209J30*
G01Y3327*
G03X50642Y3406I79*
G01X50012*
G03X49933Y3327J79*
G01Y6449*
X50865*
G02X50894Y6420J29*
G01Y6302*
G03X50973Y6223I79*
G01X51603*
G03X51682Y6302J79*
G01Y6774*
G03X51603Y6853I79*
G01X50973*
G03X50894Y6774J79*
G01Y6656*
G02X50865Y6626I29*
G01X47919*
G02X47889Y6656J30*
G01Y6774*
G03X47811Y6853I78*
G01X47181*
G03X47102Y6774J79*
G01Y7030*
G03X47181Y6951I79*
G01X47811*
G03X47889Y7030J79*
G01Y7148*
G02X47919Y7178I30*
G01X50865*
G02X50894Y7148J30*
G01Y7030*
G03X50973Y6951I79*
G01X51603*
G03X51682Y7030J79*
G01Y7502*
G03X51603Y7581I79*
G01X50973*
G03X50894Y7502J79*
G01Y7384*
G02X50865Y7355I29*
G01X47919*
G02X47889Y7384J29*
G01Y7502*
G03X47811Y7581I78*
G01X47181*
G03X47102Y7502J79*
G01Y9439*
X47122*
Y7758*
G03X47181Y7699I59*
G01X47811*
G03X47870Y7758J59*
G01Y8231*
G03X47811Y8290I59*
G01X47181*
G03X47122Y8231J59*
G01Y9439*
X49862*
G03X50015Y9503J217*
G01X50286Y9774*
G02X50307Y9783I21J21*
X50328Y9774J30*
G01X51063Y9039*
G02X51072Y9018I21J21*
G01Y8339*
G02X51042Y8309I30*
G01X50973*
G03X50894Y8231J78*
G01Y7758*
G03X50973Y7680I79*
G01X51603*
G03X51682Y7758J78*
G01Y8231*
G03X51603Y8309I79*
G01X51534*
G02X51505Y8339J30*
G01Y9018*
G02X51513Y9039I29*
G01X51905Y9431*
G02X51926Y9439I21J21*
G01X52765*
Y6302*
G03X52843Y6223I78*
G01X53473*
G03X53552Y6302J79*
G01Y6420*
G02X53581Y6449I29*
G01X55596*
Y2126*
G03X55675Y2047I79*
G01X56305*
G03X56383Y2126J79*
G01Y2244*
G02X56413Y2274I30*
G01X59359*
G02X59389Y2244J30*
G01Y2126*
G03X59408Y2074I78*
G01Y1398*
G03X59467Y1339I59*
G01X60097*
G03X60156Y1398J59*
G01Y1870*
G03X60097Y1929I59*
G01X59467*
G03X59408Y1870J59*
G01Y2074*
G03X59467Y2047I59J52*
G01X60097*
G03X60176Y2126J79*
G01Y2598*
G03X60097Y2677I79*
G01X59467*
G03X59389Y2598J79*
G01Y2480*
G02X59359Y2451I30*
G01X56413*
G02X56383Y2480J29*
G01Y2598*
G03X56305Y2677I78*
G01X55675*
G03X55596Y2598J79*
G01Y2854*
G03X55675Y2776I79*
G01X56305*
G03X56383Y2854J78*
G01Y2972*
G02X56413Y3002I30*
G01X59359*
G02X59389Y2972J30*
G01Y2854*
G03X59467Y2776I78*
G01X60097*
G03X60176Y2854J78*
G01Y3327*
G03X60097Y3406I79*
G01X59467*
G03X59389Y3327J79*
G01Y3209*
G02X59359Y3179I30*
G01X56413*
G02X56383Y3209J30*
G01Y3327*
G03X56305Y3406I78*
G01X55675*
G03X55596Y3327J79*
G01Y6449*
X56528*
G02X56557Y6420J29*
G01Y6302*
G03X56636Y6223I79*
G01X57266*
G03X57344Y6302J79*
G01Y6774*
G03X57266Y6853I78*
G01X56636*
G03X56557Y6774J79*
G01Y6656*
G02X56528Y6626I29*
G01X53581*
G02X53552Y6656J30*
G01Y6774*
G03X53473Y6853I79*
G01X52843*
G03X52765Y6774J79*
G01Y7030*
G03X52843Y6951I78*
G01X53473*
G03X53552Y7030J79*
G01Y7148*
G02X53581Y7178I29*
G01X56528*
G02X56557Y7148J30*
G01Y7030*
G03X56636Y6951I79*
G01X57266*
G03X57344Y7030J79*
G01Y7502*
G03X57266Y7581I78*
G01X56636*
G03X56557Y7502J79*
G01Y7384*
G02X56528Y7355I29*
G01X53581*
G02X53552Y7384J29*
G01Y7502*
G03X53473Y7581I79*
G01X52843*
G03X52765Y7502J79*
G01Y9439*
X52784*
Y7758*
G03X52843Y7699I59*
G01X53473*
G03X53532Y7758J59*
G01Y8231*
G03X53473Y8290I59*
G01X52843*
G03X52784Y8231J59*
G01Y9439*
X55535*
G03X55688Y9503J217*
G01X55959Y9774*
G02X55980Y9783I21J21*
X56001Y9774J30*
G01X56272Y9503*
G03X56425Y9439I153J153*
G01X56605*
G02X56625Y9431J29*
G01X56704Y9352*
G02X56713Y9331I21J21*
G01Y8469*
G03X56732Y8380I216*
G02X56734Y8368I27J12*
G01Y8339*
G02X56705Y8309I29*
G01X56636*
G03X56557Y8231J78*
G01Y7758*
G03X56636Y7680I79*
G01X57266*
G03X57344Y7758J78*
G01Y8231*
G03X57266Y8309I78*
G01X57197*
G02X57167Y8339J30*
G01Y8447*
G03X57148Y8536I216*
G02X57146Y8548I27J12*
G01Y9331*
G02X57154Y9352I29*
G01X57233Y9431*
G02X57254Y9439I21J21*
G01X58084*
Y4733*
G03X58360Y4457I276*
X58636Y4733J276*
X58360Y5008I276*
X58084Y4733J275*
G01Y9439*
X58427*
Y6302*
G03X58506Y6223I79*
G01X59136*
G03X59215Y6302J79*
G01Y6420*
G02X59244Y6449I29*
G01X61259*
Y2126*
G03X61337Y2047I78*
G01X61967*
G03X62046Y2126J79*
G01Y2244*
G02X62076Y2274I30*
G01X65022*
G02X65051Y2244J30*
G01Y2126*
G03X65071Y2074I79*
G01Y1398*
G03X65130Y1339I59*
G01X65760*
G03X65819Y1398J59*
G01Y1870*
G03X65760Y1929I59*
G01X65130*
G03X65071Y1870J59*
G01Y2074*
G03X65130Y2047I59J52*
G01X65760*
G03X65839Y2126J79*
G01Y2598*
G03X65760Y2677I79*
G01X65130*
G03X65051Y2598J79*
G01Y2480*
G02X65022Y2451I29*
G01X62076*
G02X62046Y2480J29*
G01Y2598*
G03X61967Y2677I79*
G01X61337*
G03X61259Y2598J79*
G01Y2854*
G03X61337Y2776I78*
G01X61967*
G03X62046Y2854J78*
G01Y2972*
G02X62076Y3002I30*
G01X65022*
G02X65051Y2972J30*
G01Y2854*
G03X65130Y2776I79*
G01X65760*
G03X65839Y2854J78*
G01Y3327*
G03X65760Y3406I79*
G01X65130*
G03X65051Y3327J79*
G01Y3209*
G02X65022Y3179I29*
G01X62076*
G02X62046Y3209J30*
G01Y3327*
G03X61967Y3406I79*
G01X61337*
G03X61259Y3327J79*
G01Y6449*
X61452*
Y4724*
G03X62291Y3885I839*
X63131Y4724J839*
X62291Y5564I840*
X61452Y4724J840*
G01Y6449*
X62190*
G02X62220Y6420J29*
G01Y6302*
G03X62298Y6223I78*
G01X62928*
G03X63007Y6302J79*
G01Y6774*
G03X62928Y6853I79*
G01X62298*
G03X62220Y6774J79*
G01Y6656*
G02X62190Y6626I30*
G01X59244*
G02X59215Y6656J30*
G01Y6774*
G03X59136Y6853I79*
G01X58506*
G03X58427Y6774J79*
G01Y7030*
G03X58506Y6951I79*
G01X59136*
G03X59215Y7030J79*
G01Y7148*
G02X59244Y7178I29*
G01X62190*
G02X62220Y7148J30*
G01Y7030*
G03X62298Y6951I78*
G01X62928*
G03X63007Y7030J79*
G01Y7502*
G03X62928Y7581I79*
G01X62298*
G03X62220Y7502J79*
G01Y7384*
G02X62190Y7355I30*
G01X59244*
G02X59215Y7384J29*
G01Y7502*
G03X59136Y7581I79*
G01X58506*
G03X58427Y7502J79*
G01Y9439*
X58447*
Y7758*
G03X58506Y7699I59*
G01X59136*
G03X59195Y7758J59*
G01Y8231*
G03X59136Y8290I59*
G01X58506*
G03X58447Y8231J59*
G01Y9439*
X61439*
G03X61592Y9503J217*
G01X61659Y9570*
G02X61680Y9579I21J21*
X61701Y9570J30*
G01X62388Y8883*
G02X62397Y8862I21J21*
G01Y8339*
G02X62367Y8309I30*
G01X62298*
G03X62220Y8231J78*
G01Y7758*
G03X62298Y7680I78*
G01X62928*
G03X63007Y7758J78*
G01Y8231*
G03X62928Y8309I79*
G01X62859*
G02X62830Y8339J30*
G01Y8964*
G03X62766Y9117I217*
G01X61878Y10006*
G02X61869Y10027I20J21*
G01Y11097*
G02X61898Y11127I29*
G01X61967*
G03X62046Y11206J79*
G01Y11678*
G03X61967Y11757I79*
G01X61337*
G03X61259Y11678J79*
G01Y11206*
G03X61337Y11127I78*
G01X61406*
G02X61436Y11097J30*
G01Y9972*
G02X61427Y9951I30*
G01X61358Y9881*
G02X61337Y9872I21J21*
G01X57152*
G03X56999Y9809J216*
G01X56950Y9760*
G02X56929Y9752I21J21*
X56908Y9760J29*
G01X56860Y9809*
G03X56707Y9872I153J153*
G01X56527*
G02X56506Y9881J30*
G01X56205Y10182*
G02X56196Y10203I21J21*
G01Y10697*
G02X56198Y10705I30*
G03X56206Y10765I208J60*
G01Y11097*
G02X56236Y11127I30*
G01X56305*
G03X56383Y11206J79*
G01Y11678*
G03X56305Y11757I78*
G01X55675*
G03X55596Y11678J79*
G01Y11206*
G03X55675Y11127I79*
G01X55744*
G02X55773Y11097J30*
G01Y10824*
G02X55772Y10816I29*
G03X55763Y10755I208J61*
G01Y10203*
G02X55755Y10182I29*
G01X55453Y9881*
G02X55433Y9872I20J21*
G01X51824*
G03X51671Y9809J216*
G01X51309Y9447*
G02X51288Y9439I21J21*
X51267Y9447J29*
G01X50532Y10182*
G02X50524Y10203I21J21*
G01Y10892*
G02X50526Y10903I29*
G03X50544Y10989I199J86*
G01Y11097*
G02X50573Y11127I29*
G01X50642*
G03X50721Y11206J79*
G01Y11678*
G03X50642Y11757I79*
G01X50012*
G03X49933Y11678J79*
G01Y11206*
G03X50012Y11127I79*
G01X50081*
G02X50111Y11097J30*
G01Y11066*
G02X50108Y11055I30*
G03X50091Y10969I199J86*
G01Y10203*
G02X50082Y10182I30*
G01X49781Y9881*
G02X49760Y9872I21J21*
G01X46161*
G03X46008Y9809J216*
G01X45646Y9447*
G02X45626Y9439I20J21*
X45605Y9447J29*
G01X44818Y10234*
G03X44808Y10243I153J153*
G02X44798Y10266I19J23*
G01Y10416*
G02X44807Y10437I29*
G01X44818Y10448*
G03X44881Y10601I153J153*
G01Y11097*
G02X44911Y11127I30*
G01X44980*
G03X45058Y11206J79*
G01Y11678*
G03X44980Y11757I78*
G01X44350*
G03X44271Y11678J79*
G01Y11206*
G03X44350Y11127I79*
G01X44419*
G02X44448Y11097J30*
G01Y10703*
G02X44439Y10682I29*
G01X44428Y10671*
G03X44365Y10518I153J153*
G01Y10390*
G02X44335Y10361I30*
G01X40408*
G03X40255Y10297J217*
G01X39984Y10026*
G02X39963Y10017I21J21*
X39942Y10026J30*
G01X39671Y10297*
G03X39518Y10361I153J153*
G01X39200*
G02X39180Y10369J29*
G01X39093Y10456*
G02X39085Y10476I21J20*
X39093Y10497I29*
G01X39155Y10559*
G03X39219Y10712I153J153*
G01Y11097*
G02X39248Y11127I29*
G01X39317*
G03X39396Y11206J79*
G01Y11678*
G03X39317Y11757I79*
G01X38687*
G03X38608Y11678J79*
G01Y11206*
G03X38687Y11127I79*
G01X38756*
G02X38785Y11097J30*
G01Y10814*
G02X38777Y10793I29*
G01X38353Y10369*
G02X38332Y10361I21J21*
G01X34746*
G03X34593Y10297J217*
G01X34321Y10026*
G02X34300Y10017I21J21*
X34280Y10026J30*
G01X34008Y10297*
G03X33855Y10361I153J153*
G01X33664*
G02X33643Y10369J29*
G01X33565Y10448*
G02X33556Y10469I20J21*
G01Y11097*
G02X33585Y11127I29*
G01X33654*
G03X33733Y11206J79*
G01Y11678*
G03X33654Y11757I79*
G01X33024*
G03X32946Y11678J79*
G01Y11206*
G03X33024Y11127I78*
G01X33093*
G02X33123Y11097J30*
G01Y10469*
G02X33114Y10448I30*
G01X33036Y10369*
G02X33015Y10361I21J21*
G01X32229*
G03X32203Y10359J217*
G02X32199I4J29*
G01X29237*
G03X29084Y10295J217*
G01X28654Y9865*
G02X28633Y9856I21J21*
X28612Y9865J30*
G01X28340Y10136*
G03X28187Y10200I153J153*
G01X28010*
G02X27989Y10208J29*
G01X27910Y10287*
G02X27902Y10308I21J21*
G01Y10981*
G03X27894Y11037I217*
G02X27893Y11045I29J8*
G01Y11097*
G02X27923Y11127I30*
G01X27992*
G03X28070Y11206J79*
G01Y11678*
G03X27992Y11757I78*
G01X27362*
G03X27283Y11678J79*
G01Y11206*
G03X27362Y11127I79*
G01X27431*
G02X27460Y11097J30*
G01Y10989*
G03X27468Y10933I217*
G02X27469Y10925I29J8*
G01Y10308*
G02X27460Y10287I30*
G01X27381Y10208*
G02X27361Y10200I20J21*
G01X23378*
G03X23225Y10136J217*
G01X22953Y9865*
G02X22933Y9856I20J21*
X22912Y9865J30*
G01X22640Y10136*
G03X22487Y10200I153J153*
G01X22356*
G02X22336Y10208J29*
G01X22257Y10287*
G02X22248Y10308I21J21*
G01Y10971*
G03X22233Y11052I216*
G02X22231Y11063I27J11*
G01Y11097*
G02X22260Y11127I29*
G01X22329*
G03X22408Y11206J79*
G01Y11678*
G03X22329Y11757I79*
G01X21699*
G03X21620Y11678J79*
G01Y11206*
G03X21699Y11127I79*
G01X21768*
G02X21798Y11097J30*
G01Y10989*
G03X21813Y10909I216*
G02X21815Y10898I27J11*
G01Y10308*
G02X21807Y10287I29*
G01X21728Y10208*
G02X21707Y10200I21J21*
G01X17758*
G03X17605Y10136J217*
G01X17333Y9865*
G02X17313Y9856I20J21*
X17292Y9865J30*
G01X17020Y10136*
G03X16867Y10200I153J153*
G01X16676*
G02X16655Y10208J29*
G01X16577Y10287*
G02X16568Y10308I21J21*
G01Y11097*
G02X16598Y11127I30*
G01X16667*
G03X16745Y11206J79*
G01Y11678*
G03X16667Y11757I78*
G01X16037*
G03X15958Y11678J79*
G01Y11206*
G03X16037Y11127I79*
G01X16106*
G02X16135Y11097J30*
G01Y10308*
G02X16126Y10287I29*
G01X16048Y10208*
G02X16027Y10200I21J21*
G01X12095*
G03X11942Y10136J217*
G01X11671Y9865*
G02X11650Y9856I21J21*
X11629Y9865J30*
G01X11358Y10136*
G03X11205Y10200I153J153*
G01X11014*
G02X10993Y10208J29*
G01X10914Y10287*
G02X10906Y10308I21J21*
G01Y11097*
G02X10935Y11127I29*
G01X11004*
G03X11083Y11206J79*
G01Y11678*
G03X11004Y11757I79*
G01X10374*
G03X10295Y11678J79*
G01Y11206*
G03X10374Y11127I79*
G01X10443*
G02X10472Y11097J30*
G01Y10308*
G02X10464Y10287I29*
G01X10385Y10208*
G02X10364Y10200I21J21*
G01X7206*
G03X7053Y10136J217*
G01X5834Y8918*
G03X5771Y8765I153J153*
G01Y8339*
G02X5741Y8309I30*
G01X5672*
G03X5594Y8231J78*
G01Y9436*
X8006Y13606*
Y12172*
G03X8203Y11975I197*
X8370Y12069J197*
G02X8395Y12083I25J16*
X8400J30*
G01Y12082*
G02X8425Y12053I4J29*
G01Y11934*
G03X8445Y11882I79*
G01Y11206*
G03X8504Y11146I59*
G01X9134*
G03X9193Y11206J60*
G01Y11678*
G03X9134Y11737I59*
G01X8504*
G03X8445Y11678J59*
G01Y11882*
G03X8504Y11855I59J52*
G01X9134*
G03X9213Y11934J79*
G01Y12406*
G03X9134Y12485I79*
G01X8504*
G03X8425Y12406J79*
G01Y12290*
G02X8396Y12261I29*
X8370Y12275J29*
G03X8203Y12369I167J103*
X8006Y12172J197*
G01Y13606*
X8425Y14332*
Y12662*
G03X8504Y12583I79*
G01X9134*
G03X9213Y12662J79*
G01Y13135*
G03X9134Y13213I79*
G01X8959*
G02X8930Y13243J30*
X8941Y13266I29*
G03X9016Y13420I122J154*
X8819Y13617I197*
X8622Y13420J197*
X8697Y13266I197*
G02X8708Y13243I19J23*
X8678Y13213I30*
G01X8504*
G03X8425Y13135J78*
G01Y14332*
X10295Y17565*
Y11934*
G03X10374Y11855I79*
G01X11004*
G03X11083Y11934J79*
G01Y12052*
G02X11112Y12081I29*
G01X14058*
G02X14088Y12052J29*
G01Y11934*
G03X14107Y11882I79*
G01Y11206*
G03X14167Y11146I60*
G01X14796*
G03X14856Y11206J60*
G01Y11678*
G03X14796Y11737I60*
G01X14167*
G03X14107Y11678J59*
G01Y11882*
G03X14167Y11855I60J52*
G01X14796*
G03X14875Y11934J79*
G01Y12406*
G03X14796Y12485I79*
G01X14167*
G03X14088Y12406J79*
G01Y12288*
G02X14058Y12259I30*
G01X11112*
G02X11083Y12288J29*
G01Y12406*
G03X11004Y12485I79*
G01X10374*
G03X10295Y12406J79*
G01Y12662*
G03X10374Y12583I79*
G01X11004*
G03X11083Y12662J79*
G01Y12780*
G02X11112Y12810I29*
G01X14058*
G02X14088Y12780J30*
G01Y12662*
G03X14167Y12583I79*
G01X14796*
G03X14875Y12662J79*
G01Y13135*
G03X14796Y13213I79*
G01X14167*
G03X14088Y13135J78*
G01Y13017*
G02X14058Y12987I30*
G01X11112*
G02X11083Y13017J30*
G01Y13135*
G03X11004Y13213I79*
G01X10374*
G03X10295Y13135J78*
G01Y17565*
X10818Y18468*
Y16348*
G03X11015Y16151I197*
X11182Y16245J197*
G02X11208Y16259I26J15*
G01X11214*
G02X11219J29*
G03X11229Y16257I16J87*
G02X11257Y16228I2J29*
G01Y16109*
G03X11335Y16031I78*
G01X11965*
G03X12044Y16109J78*
G01Y16582*
G03X11965Y16661I79*
G01X11335*
G03X11257Y16582J79*
G01Y16466*
G02X11227Y16436I30*
G01X11208*
G02X11182Y16450J30*
G03X11015Y16544I167J102*
X10818Y16348J196*
G01Y18468*
X10838Y18503*
Y17074*
G03X11035Y16877I197*
X11202Y16970J197*
G02X11227Y16984I25J15*
X11257Y16955J29*
G01Y16838*
G03X11335Y16759I78*
G01X11965*
G03X12044Y16838J79*
G01Y17310*
G03X11965Y17389I79*
G01X11335*
G03X11257Y17310J79*
G01Y17193*
G02X11227Y17164I30*
X11202Y17178J29*
G03X11035Y17271I167J104*
X10838Y17074J197*
G01Y18503*
X11257Y19227*
Y17566*
G03X11335Y17487I78*
G01X11965*
G03X12044Y17566J79*
G01Y18039*
G03X11965Y18117I79*
G01X11896*
G02X11867Y18147J30*
G01Y18270*
G02X11876Y18291I29*
G01X12758Y19174*
G02X12779Y19183I21J21*
G01X13127*
Y16109*
G03X13206Y16031I79*
G01X13835*
G03X13914Y16109J78*
G01Y16228*
G02X13944Y16257I30*
G01X15958*
Y11934*
G03X16037Y11855I79*
G01X16667*
G03X16745Y11934J79*
G01Y12052*
G02X16775Y12081I30*
G01X19721*
G02X19750Y12052J29*
G01Y11934*
G03X19770Y11882I79*
G01Y11206*
G03X19829Y11146I59*
G01X20459*
G03X20518Y11206J60*
G01Y11678*
G03X20459Y11737I59*
G01X19829*
G03X19770Y11678J59*
G01Y11882*
G03X19829Y11855I59J52*
G01X20459*
G03X20538Y11934J79*
G01Y12406*
G03X20459Y12485I79*
G01X19829*
G03X19750Y12406J79*
G01Y12288*
G02X19721Y12259I29*
G01X16775*
G02X16745Y12288J29*
G01Y12406*
G03X16667Y12485I78*
G01X16037*
G03X15958Y12406J79*
G01Y12662*
G03X16037Y12583I79*
G01X16667*
G03X16745Y12662J79*
G01Y12780*
G02X16775Y12810I30*
G01X19721*
G02X19750Y12780J30*
G01Y12662*
G03X19829Y12583I79*
G01X20459*
G03X20538Y12662J79*
G01Y13135*
G03X20459Y13213I79*
G01X19829*
G03X19750Y13135J78*
G01Y13017*
G02X19721Y12987I29*
G01X16775*
G02X16745Y13017J30*
G01Y13135*
G03X16667Y13213I78*
G01X16037*
G03X15958Y13135J78*
G01Y16257*
X16890*
G02X16919Y16228J29*
G01Y16109*
G03X16998Y16031I79*
G01X17628*
G03X17707Y16109J78*
G01Y16582*
G03X17628Y16661I79*
G01X16998*
G03X16919Y16582J79*
G01Y16464*
G02X16890Y16434I29*
G01X13944*
G02X13914Y16464J30*
G01Y16582*
G03X13835Y16661I79*
G01X13206*
G03X13127Y16582J79*
G01Y16838*
G03X13206Y16759I79*
G01X13835*
G03X13914Y16838J79*
G01Y16956*
G02X13944Y16985I30*
G01X16890*
G02X16919Y16956J29*
G01Y16838*
G03X16998Y16759I79*
G01X17628*
G03X17707Y16838J79*
G01Y17310*
G03X17628Y17389I79*
G01X16998*
G03X16919Y17310J79*
G01Y17192*
G02X16890Y17163I29*
G01X13944*
G02X13914Y17192J29*
G01Y17310*
G03X13835Y17389I79*
G01X13206*
G03X13127Y17310J79*
G01Y19183*
X13146*
Y17566*
G03X13206Y17507I60*
G01X13835*
G03X13894Y17566J59*
G01Y18039*
G03X13835Y18098I59*
G01X13206*
G03X13146Y18039J59*
G01Y19183*
X15906*
G03X16059Y19246J216*
G01X16331Y19518*
G02X16352Y19526I21J21*
X16372Y19518J29*
G01X17088Y18802*
G02X17096Y18781I21J21*
G01Y18147*
G02X17067Y18117I29*
G01X16998*
G03X16919Y18039J78*
G01Y17566*
G03X16998Y17487I79*
G01X17628*
G03X17707Y17566J79*
G01Y18039*
G03X17628Y18117I79*
G01X17559*
G02X17530Y18147J30*
G01Y18781*
G02X17538Y18802I29*
G01X17910Y19174*
G02X17931Y19183I21J21*
G01X18789*
Y16109*
G03X18868Y16031I79*
G01X19498*
G03X19577Y16109J78*
G01Y16228*
G02X19606Y16257I29*
G01X21620*
Y11934*
G03X21699Y11855I79*
G01X22329*
G03X22408Y11934J79*
G01Y12052*
G02X22437Y12081I29*
G01X25383*
G02X25413Y12052J29*
G01Y11934*
G03X25433Y11882I79*
G01Y11206*
G03X25492Y11146I59*
G01X26122*
G03X26181Y11206J60*
G01Y11678*
G03X26122Y11737I59*
G01X25492*
G03X25433Y11678J59*
G01Y11882*
G03X25492Y11855I59J52*
G01X26122*
G03X26200Y11934J79*
G01Y12406*
G03X26122Y12485I78*
G01X25492*
G03X25413Y12406J79*
G01Y12288*
G02X25383Y12259I30*
G01X22437*
G02X22408Y12288J29*
G01Y12406*
G03X22329Y12485I79*
G01X21699*
G03X21620Y12406J79*
G01Y12662*
G03X21699Y12583I79*
G01X22329*
G03X22408Y12662J79*
G01Y12780*
G02X22437Y12810I29*
G01X25383*
G02X25413Y12780J30*
G01Y12662*
G03X25492Y12583I79*
G01X26122*
G03X26200Y12662J79*
G01Y13135*
G03X26122Y13213I78*
G01X25492*
G03X25413Y13135J78*
G01Y13017*
G02X25383Y12987I30*
G01X22437*
G02X22408Y13017J30*
G01Y13135*
G03X22329Y13213I79*
G01X21699*
G03X21620Y13135J78*
G01Y16257*
X22552*
G02X22582Y16228J29*
G01Y16109*
G03X22661Y16031I79*
G01X23291*
G03X23369Y16109J78*
G01Y16582*
G03X23291Y16661I78*
G01X22661*
G03X22582Y16582J79*
G01Y16464*
G02X22552Y16434I30*
G01X19606*
G02X19577Y16464J30*
G01Y16582*
G03X19498Y16661I79*
G01X18868*
G03X18789Y16582J79*
G01Y16838*
G03X18868Y16759I79*
G01X19498*
G03X19577Y16838J79*
G01Y16956*
G02X19606Y16985I29*
G01X22552*
G02X22582Y16956J29*
G01Y16838*
G03X22661Y16759I79*
G01X23291*
G03X23369Y16838J79*
G01Y17310*
G03X23291Y17389I78*
G01X22661*
G03X22582Y17310J79*
G01Y17192*
G02X22552Y17163I30*
G01X19606*
G02X19577Y17192J29*
G01Y17310*
G03X19498Y17389I79*
G01X18868*
G03X18789Y17310J79*
G01Y19183*
X18809*
Y17566*
G03X18868Y17507I59*
G01X19498*
G03X19557Y17566J59*
G01Y18039*
G03X19498Y18098I59*
G01X18868*
G03X18809Y18039J59*
G01Y19183*
X21569*
G03X21722Y19246J216*
G01X21993Y19518*
G02X22014Y19526I21J21*
X22035Y19518J29*
G01X22750Y18802*
G02X22759Y18781I20J21*
G01Y18147*
G02X22730Y18117I29*
G01X22661*
G03X22582Y18039J78*
G01Y17566*
G03X22661Y17487I79*
G01X23291*
G03X23369Y17566J79*
G01Y18039*
G03X23291Y18117I78*
G01X23222*
G02X23192Y18147J30*
G01Y18781*
G02X23201Y18802I30*
G01X23573Y19174*
G02X23594Y19183I21J21*
G01X24452*
Y16109*
G03X24531Y16031I79*
G01X25161*
G03X25239Y16109J78*
G01Y16228*
G02X25269Y16257I30*
G01X27283*
Y11934*
G03X27362Y11855I79*
G01X27992*
G03X28070Y11934J79*
G01Y12052*
G02X28100Y12081I30*
G01X31046*
G02X31076Y12052J29*
G01Y11934*
G03X31095Y11882I78*
G01Y11206*
G03X31154Y11146I59*
G01X31784*
G03X31843Y11206J60*
G01Y11678*
G03X31784Y11737I59*
G01X31154*
G03X31095Y11678J59*
G01Y11882*
G03X31154Y11855I59J52*
G01X31784*
G03X31863Y11934J79*
G01Y12406*
G03X31784Y12485I79*
G01X31154*
G03X31076Y12406J79*
G01Y12288*
G02X31046Y12259I30*
G01X28100*
G02X28070Y12288J29*
G01Y12406*
G03X27992Y12485I78*
G01X27362*
G03X27283Y12406J79*
G01Y12662*
G03X27362Y12583I79*
G01X27992*
G03X28070Y12662J79*
G01Y12780*
G02X28100Y12810I30*
G01X31046*
G02X31076Y12780J30*
G01Y12662*
G03X31154Y12583I78*
G01X31784*
G03X31863Y12662J79*
G01Y13135*
G03X31784Y13213I79*
G01X31154*
G03X31076Y13135J78*
G01Y13017*
G02X31046Y12987I30*
G01X28100*
G02X28070Y13017J30*
G01Y13135*
G03X27992Y13213I78*
G01X27362*
G03X27283Y13135J78*
G01Y16257*
X28215*
G02X28244Y16228J29*
G01Y16109*
G03X28323Y16031I79*
G01X28953*
G03X29032Y16109J78*
G01Y16582*
G03X28953Y16661I79*
G01X28323*
G03X28244Y16582J79*
G01Y16464*
G02X28215Y16434I29*
G01X25269*
G02X25239Y16464J30*
G01Y16582*
G03X25161Y16661I78*
G01X24531*
G03X24452Y16582J79*
G01Y16838*
G03X24531Y16759I79*
G01X25161*
G03X25239Y16838J79*
G01Y16956*
G02X25269Y16985I30*
G01X28215*
G02X28244Y16956J29*
G01Y16838*
G03X28323Y16759I79*
G01X28953*
G03X29032Y16838J79*
G01Y17310*
G03X28953Y17389I79*
G01X28323*
G03X28244Y17310J79*
G01Y17192*
G02X28215Y17163I29*
G01X25269*
G02X25239Y17192J29*
G01Y17310*
G03X25161Y17389I78*
G01X24531*
G03X24452Y17310J79*
G01Y19183*
X24472*
Y17566*
G03X24531Y17507I59*
G01X25161*
G03X25220Y17566J59*
G01Y18039*
G03X25161Y18098I59*
G01X24531*
G03X24472Y18039J59*
G01Y19183*
X27231*
G03X27384Y19246J216*
G01X27656Y19518*
G02X27677Y19526I21J21*
X27698Y19518J29*
G01X28413Y18802*
G02X28422Y18781I21J21*
G01Y18147*
G02X28392Y18117I30*
G01X28323*
G03X28244Y18039J78*
G01Y17566*
G03X28323Y17487I79*
G01X28953*
G03X29032Y17566J79*
G01Y18039*
G03X28953Y18117I79*
G01X28884*
G02X28855Y18147J30*
G01Y18781*
G02X28863Y18802I29*
G01X29235Y19174*
G02X29256Y19183I21J21*
G01X30115*
Y16109*
G03X30193Y16031I78*
G01X30823*
G03X30902Y16109J78*
G01Y16228*
G02X30931Y16257I29*
G01X32946*
Y11934*
G03X33024Y11855I78*
G01X33654*
G03X33733Y11934J79*
G01Y12052*
G02X33763Y12081I30*
G01X36709*
G02X36738Y12052J29*
G01Y11934*
G03X36758Y11882I79*
G01Y11206*
G03X36817Y11146I59*
G01X37447*
G03X37506Y11206J60*
G01Y11678*
G03X37447Y11737I59*
G01X36817*
G03X36758Y11678J59*
G01Y11882*
G03X36817Y11855I59J52*
G01X37447*
G03X37526Y11934J79*
G01Y12406*
G03X37447Y12485I79*
G01X36817*
G03X36738Y12406J79*
G01Y12288*
G02X36709Y12259I29*
G01X33763*
G02X33733Y12288J29*
G01Y12406*
G03X33654Y12485I79*
G01X33024*
G03X32946Y12406J79*
G01Y12662*
G03X33024Y12583I78*
G01X33654*
G03X33733Y12662J79*
G01Y12780*
G02X33763Y12810I30*
G01X36709*
G02X36738Y12780J30*
G01Y12662*
G03X36817Y12583I79*
G01X37447*
G03X37526Y12662J79*
G01Y13135*
G03X37447Y13213I79*
G01X36817*
G03X36738Y13135J78*
G01Y13017*
G02X36709Y12987I29*
G01X33763*
G02X33733Y13017J30*
G01Y13135*
G03X33654Y13213I79*
G01X33024*
G03X32946Y13135J78*
G01Y16257*
X33878*
G02X33907Y16228J29*
G01Y16109*
G03X33986Y16031I79*
G01X34616*
G03X34694Y16109J78*
G01Y16582*
G03X34616Y16661I78*
G01X33986*
G03X33907Y16582J79*
G01Y16464*
G02X33878Y16434I29*
G01X30931*
G02X30902Y16464J30*
G01Y16582*
G03X30823Y16661I79*
G01X30193*
G03X30115Y16582J79*
G01Y16838*
G03X30193Y16759I78*
G01X30823*
G03X30902Y16838J79*
G01Y16956*
G02X30931Y16985I29*
G01X33878*
G02X33907Y16956J29*
G01Y16838*
G03X33986Y16759I79*
G01X34616*
G03X34694Y16838J79*
G01Y17310*
G03X34616Y17389I78*
G01X33986*
G03X33907Y17310J79*
G01Y17192*
G02X33878Y17163I29*
G01X30931*
G02X30902Y17192J29*
G01Y17310*
G03X30823Y17389I79*
G01X30193*
G03X30115Y17310J79*
G01Y19183*
X30134*
Y17566*
G03X30193Y17507I59*
G01X30823*
G03X30882Y17566J59*
G01Y18039*
G03X30823Y18098I59*
G01X30193*
G03X30134Y18039J59*
G01Y19183*
X33117*
G03X33270Y19246J216*
G01X33388Y19364*
G02X33409Y19373I21J21*
X33429Y19364J30*
G01X34076Y18718*
G02X34084Y18697I21J21*
G01Y18147*
G02X34055Y18117I29*
G01X33986*
G03X33907Y18039J78*
G01Y17566*
G03X33986Y17487I79*
G01X34616*
G03X34694Y17566J79*
G01Y18039*
G03X34616Y18117I78*
G01X34547*
G02X34517Y18147J30*
G01Y18697*
G02X34526Y18718I30*
G01X34982Y19174*
G02X35003Y19183I21J21*
G01X35777*
Y16109*
G03X35856Y16031I79*
G01X36486*
G03X36565Y16109J78*
G01Y16228*
G02X36594Y16257I29*
G01X36735*
Y14324*
G03X36794Y14264I59*
G01X38608*
Y11934*
G03X38687Y11855I79*
G01X39317*
G03X39396Y11934J79*
G01Y12052*
G02X39425Y12081I29*
G01X42371*
G02X42401Y12052J29*
G01Y11934*
G03X42420Y11882I79*
G01Y11206*
G03X42480Y11146I60*
G01X43109*
G03X43169Y11206J60*
G01Y11678*
G03X43109Y11737I60*
G01X42480*
G03X42420Y11678J59*
G01Y11882*
G03X42480Y11855I60J52*
G01X43109*
G03X43188Y11934J79*
G01Y12406*
G03X43109Y12485I79*
G01X42480*
G03X42401Y12406J79*
G01Y12288*
G02X42371Y12259I30*
G01X39425*
G02X39396Y12288J29*
G01Y12406*
G03X39317Y12485I79*
G01X38687*
G03X38608Y12406J79*
G01Y12662*
G03X38687Y12583I79*
G01X39317*
G03X39396Y12662J79*
G01Y12780*
G02X39425Y12810I29*
G01X42371*
G02X42401Y12780J30*
G01Y12662*
G03X42480Y12583I79*
G01X43109*
G03X43188Y12662J79*
G01Y13135*
G03X43109Y13213I79*
G01X42480*
G03X42401Y13135J78*
G01Y13017*
G02X42371Y12987I30*
G01X39425*
G02X39396Y13017J30*
G01Y13135*
G03X39317Y13213I79*
G01X38687*
G03X38608Y13135J78*
G01Y14264*
X40059*
G03X40118Y14324J60*
G01Y15376*
G03X40059Y15435I59*
G01X36794*
G03X36735Y15376J59*
G01Y16257*
X39540*
G02X39570Y16228J29*
G01Y16109*
G03X39648Y16031I78*
G01X40278*
G03X40357Y16109J78*
G01Y16582*
G03X40278Y16661I79*
G01X39648*
G03X39570Y16582J79*
G01Y16464*
G02X39540Y16434I30*
G01X36594*
G02X36565Y16464J30*
G01Y16582*
G03X36486Y16661I79*
G01X35856*
G03X35777Y16582J79*
G01Y16838*
G03X35856Y16759I79*
G01X36486*
G03X36565Y16838J79*
G01Y16956*
G02X36594Y16985I29*
G01X39540*
G02X39570Y16956J29*
G01Y16838*
G03X39648Y16759I78*
G01X40278*
G03X40357Y16838J79*
G01Y17310*
G03X40278Y17389I79*
G01X39648*
G03X39570Y17310J79*
G01Y17192*
G02X39540Y17163I30*
G01X36594*
G02X36565Y17192J29*
G01Y17310*
G03X36486Y17389I79*
G01X35856*
G03X35777Y17310J79*
G01Y19183*
X35797*
Y17566*
G03X35856Y17507I59*
G01X36486*
G03X36545Y17566J59*
G01Y18039*
G03X36486Y18098I59*
G01X35856*
G03X35797Y18039J59*
G01Y19183*
X38559*
G03X38712Y19246J216*
G01X38940Y19474*
G02X38961Y19483I21J21*
X38982Y19474J30*
G01X39738Y18718*
G02X39747Y18697I21J21*
G01Y18147*
G02X39717Y18117I30*
G01X39648*
G03X39570Y18039J78*
G01Y17566*
G03X39648Y17487I78*
G01X40278*
G03X40357Y17566J79*
G01Y18039*
G03X40278Y18117I79*
G01X40209*
G02X40180Y18147J30*
G01Y18697*
G02X40189Y18718I29*
G01X40645Y19174*
G02X40666Y19183I21J21*
G01X40691*
Y14286*
G03X40750Y14227I59*
G01X44271*
Y11934*
G03X44350Y11855I79*
G01X44980*
G03X45058Y11934J79*
G01Y12052*
G02X45088Y12081I30*
G01X48034*
G02X48063Y12052J29*
G01Y11934*
G03X48083Y11882I79*
G01Y11206*
G03X48142Y11146I59*
G01X48772*
G03X48831Y11206J60*
G01Y11678*
G03X48772Y11737I59*
G01X48142*
G03X48083Y11678J59*
G01Y11882*
G03X48142Y11855I59J52*
G01X48772*
G03X48851Y11934J79*
G01Y12406*
G03X48772Y12485I79*
G01X48142*
G03X48063Y12406J79*
G01Y12288*
G02X48034Y12259I29*
G01X45088*
G02X45058Y12288J29*
G01Y12406*
G03X44980Y12485I78*
G01X44350*
G03X44271Y12406J79*
G01Y12662*
G03X44350Y12583I79*
G01X44980*
G03X45058Y12662J79*
G01Y12780*
G02X45088Y12810I30*
G01X48034*
G02X48063Y12780J30*
G01Y12662*
G03X48142Y12583I79*
G01X48772*
G03X48851Y12662J79*
G01Y13135*
G03X48772Y13213I79*
G01X48142*
G03X48063Y13135J78*
G01Y13017*
G02X48034Y12987I29*
G01X45088*
G02X45058Y13017J30*
G01Y13135*
G03X44980Y13213I78*
G01X44350*
G03X44271Y13135J78*
G01Y14227*
X45542*
G03X45601Y14286J59*
G01Y15338*
G03X45542Y15397I59*
G01X40750*
G03X40691Y15338J59*
G01Y19183*
X41440*
Y16109*
G03X41519Y16031I79*
G01X42148*
G03X42227Y16109J78*
G01Y16228*
G02X42257Y16257I30*
G01X45203*
G02X45232Y16228J29*
G01Y16109*
G03X45311Y16031I79*
G01X45941*
G03X46020Y16109J78*
G01Y16582*
G03X45941Y16661I79*
G01X45311*
G03X45232Y16582J79*
G01Y16464*
G02X45203Y16434I29*
G01X42257*
G02X42227Y16464J30*
G01Y16582*
G03X42148Y16661I79*
G01X41519*
G03X41440Y16582J79*
G01Y16838*
G03X41519Y16759I79*
G01X42148*
G03X42227Y16838J79*
G01Y16956*
G02X42257Y16985I30*
G01X45203*
G02X45232Y16956J29*
G01Y16838*
G03X45311Y16759I79*
G01X45941*
G03X46020Y16838J79*
G01Y17310*
G03X45941Y17389I79*
G01X45311*
G03X45232Y17310J79*
G01Y17192*
G02X45203Y17163I29*
G01X42257*
G02X42227Y17192J29*
G01Y17310*
G03X42148Y17389I79*
G01X41519*
G03X41440Y17310J79*
G01Y19183*
X41459*
Y17566*
G03X41519Y17507I60*
G01X42148*
G03X42207Y17566J59*
G01Y18039*
G03X42148Y18098I59*
G01X41519*
G03X41459Y18039J59*
G01Y19183*
X44211*
G03X44364Y19246J216*
G01X44597Y19480*
G02X44618Y19488I21J21*
X44639Y19480J29*
G01X45401Y18718*
G02X45409Y18697I21J21*
G01Y18147*
G02X45380Y18117I29*
G01X45311*
G03X45232Y18039J78*
G01Y17566*
G03X45311Y17487I79*
G01X45941*
G03X46020Y17566J79*
G01Y18039*
G03X45941Y18117I79*
G01X45872*
G02X45843Y18147J30*
G01Y18697*
G02X45851Y18718I29*
G01X46307Y19174*
G02X46328Y19183I21J21*
G01X47102*
Y16109*
G03X47181Y16031I79*
G01X47811*
G03X47890Y16109J78*
G01Y16228*
G02X47919Y16257I29*
G01X49933*
Y11934*
G03X50012Y11855I79*
G01X50642*
G03X50721Y11934J79*
G01Y12052*
G02X50750Y12081I29*
G01X53696*
G02X53726Y12052J29*
G01Y11934*
G03X53746Y11882I79*
G01Y11206*
G03X53805Y11146I59*
G01X54435*
G03X54494Y11206J60*
G01Y11678*
G03X54435Y11737I59*
G01X53805*
G03X53746Y11678J59*
G01Y11882*
G03X53805Y11855I59J52*
G01X54435*
G03X54513Y11934J79*
G01Y12406*
G03X54435Y12485I78*
G01X53805*
G03X53726Y12406J79*
G01Y12288*
G02X53696Y12259I30*
G01X50750*
G02X50721Y12288J29*
G01Y12406*
G03X50642Y12485I79*
G01X50012*
G03X49933Y12406J79*
G01Y12662*
G03X50012Y12583I79*
G01X50642*
G03X50721Y12662J79*
G01Y12780*
G02X50750Y12810I29*
G01X53696*
G02X53726Y12780J30*
G01Y12662*
G03X53805Y12583I79*
G01X54435*
G03X54513Y12662J79*
G01Y13135*
G03X54435Y13213I78*
G01X53805*
G03X53726Y13135J78*
G01Y13017*
G02X53696Y12987I30*
G01X50750*
G02X50721Y13017J30*
G01Y13135*
G03X50642Y13213I79*
G01X50012*
G03X49933Y13135J78*
G01Y16257*
X50865*
G02X50895Y16228J29*
G01Y16109*
G03X50974Y16031I79*
G01X51604*
G03X51682Y16109J78*
G01Y16582*
G03X51604Y16661I78*
G01X50974*
G03X50895Y16582J79*
G01Y16464*
G02X50865Y16434I30*
G01X47919*
G02X47890Y16464J30*
G01Y16582*
G03X47811Y16661I79*
G01X47181*
G03X47102Y16582J79*
G01Y16838*
G03X47181Y16759I79*
G01X47811*
G03X47890Y16838J79*
G01Y16956*
G02X47919Y16985I29*
G01X50865*
G02X50895Y16956J29*
G01Y16838*
G03X50974Y16759I79*
G01X51604*
G03X51682Y16838J79*
G01Y17310*
G03X51604Y17389I78*
G01X50974*
G03X50895Y17310J79*
G01Y17192*
G02X50865Y17163I30*
G01X47919*
G02X47890Y17192J29*
G01Y17310*
G03X47811Y17389I79*
G01X47181*
G03X47102Y17310J79*
G01Y19183*
X47122*
Y17566*
G03X47181Y17507I59*
G01X47811*
G03X47870Y17566J59*
G01Y18039*
G03X47811Y18098I59*
G01X47181*
G03X47122Y18039J59*
G01Y19183*
X49882*
G03X50035Y19246J216*
G01X50264Y19475*
G02X50285Y19484I21J20*
X50306Y19475J29*
G01X51063Y18718*
G02X51072Y18697I20J21*
G01Y18147*
G02X51043Y18117I29*
G01X50974*
G03X50895Y18039J78*
G01Y17566*
G03X50974Y17487I79*
G01X51604*
G03X51682Y17566J79*
G01Y18039*
G03X51604Y18117I78*
G01X51535*
G02X51505Y18147J30*
G01Y18697*
G02X51514Y18718I30*
G01X51970Y19174*
G02X51991Y19183I21J21*
G01X52765*
Y16109*
G03X52844Y16031I79*
G01X53474*
G03X53552Y16109J78*
G01Y16228*
G02X53582Y16257I30*
G01X55596*
Y11934*
G03X55675Y11855I79*
G01X56305*
G03X56383Y11934J79*
G01Y12052*
G02X56413Y12081I30*
G01X59359*
G02X59389Y12052J29*
G01Y11934*
G03X59408Y11882I78*
G01Y11206*
G03X59467Y11146I59*
G01X60097*
G03X60156Y11206J60*
G01Y11678*
G03X60097Y11737I59*
G01X59467*
G03X59408Y11678J59*
G01Y11882*
G03X59467Y11855I59J52*
G01X60097*
G03X60176Y11934J79*
G01Y12406*
G03X60097Y12485I79*
G01X59467*
G03X59389Y12406J79*
G01Y12288*
G02X59359Y12259I30*
G01X56413*
G02X56383Y12288J29*
G01Y12406*
G03X56305Y12485I78*
G01X55675*
G03X55596Y12406J79*
G01Y12662*
G03X55675Y12583I79*
G01X56305*
G03X56383Y12662J79*
G01Y12780*
G02X56413Y12810I30*
G01X59359*
G02X59389Y12780J30*
G01Y12662*
G03X59467Y12583I78*
G01X60097*
G03X60176Y12662J79*
G01Y13135*
G03X60097Y13213I79*
G01X59467*
G03X59389Y13135J78*
G01Y13017*
G02X59359Y12987I30*
G01X56413*
G02X56383Y13017J30*
G01Y13135*
G03X56305Y13213I78*
G01X55675*
G03X55596Y13135J78*
G01Y16257*
X56528*
G02X56557Y16228J29*
G01Y16109*
G03X56636Y16031I79*
G01X57266*
G03X57345Y16109J78*
G01Y16582*
G03X57266Y16661I79*
G01X56636*
G03X56557Y16582J79*
G01Y16464*
G02X56528Y16434I29*
G01X53582*
G02X53552Y16464J30*
G01Y16582*
G03X53474Y16661I78*
G01X52844*
G03X52765Y16582J79*
G01Y16838*
G03X52844Y16759I79*
G01X53474*
G03X53552Y16838J79*
G01Y16956*
G02X53582Y16985I30*
G01X56528*
G02X56557Y16956J29*
G01Y16838*
G03X56636Y16759I79*
G01X57266*
G03X57345Y16838J79*
G01Y17310*
G03X57266Y17389I79*
G01X56636*
G03X56557Y17310J79*
G01Y17192*
G02X56528Y17163I29*
G01X53582*
G02X53552Y17192J29*
G01Y17310*
G03X53474Y17389I78*
G01X52844*
G03X52765Y17310J79*
G01Y19183*
X52785*
Y17566*
G03X52844Y17507I59*
G01X53474*
G03X53533Y17566J59*
G01Y18039*
G03X53474Y18098I59*
G01X52844*
G03X52785Y18039J59*
G01Y19183*
X56075*
G02X56096Y19174J30*
G01X56726Y18544*
G02X56735Y18524I21J20*
G01Y18147*
G02X56705Y18117I30*
G01X56636*
G03X56557Y18039J78*
G01Y17566*
G03X56636Y17487I79*
G01X57266*
G03X57345Y17566J79*
G01Y18039*
G03X57266Y18117I79*
G01X57197*
G02X57168Y18147J30*
G01Y18625*
G03X57104Y18779I217*
G01X56403Y19480*
G02X56394Y19501I20J21*
G01Y20609*
G03X56331Y20762I217*
G01X56215Y20878*
G02X56206Y20899I21J21*
G01Y20905*
G02X56236Y20935I30*
G01X56305*
G03X56383Y21013J78*
G01Y21486*
G03X56305Y21565I78*
G01X55675*
G03X55596Y21486J79*
G01Y21013*
G03X55675Y20935I79*
G01X55744*
G02X55773Y20905J30*
G01Y20797*
G03X55837Y20644I217*
G01X55952Y20528*
G02X55961Y20507I21J21*
G01Y19645*
G02X55931Y19616I30*
G01X51889*
G03X51736Y19552J217*
G01X51309Y19126*
G02X51289Y19117I20J21*
X51268Y19126J30*
G01X50552Y19841*
G02X50544Y19862I21J21*
G01Y20905*
G02X50573Y20935I29*
G01X50642*
G03X50721Y21013J78*
G01Y21486*
G03X50642Y21565I79*
G01X50012*
G03X49933Y21486J79*
G01Y21013*
G03X50012Y20935I79*
G01X50081*
G02X50111Y20905J30*
G01Y19946*
G02X50101Y19924I30*
G03X50090Y19913I142J164*
G01X49801Y19624*
G02X49780Y19616I21J21*
G01X46226*
G03X46073Y19552J217*
G01X45647Y19126*
G02X45626Y19117I21J21*
X45605Y19126J30*
G01X44881Y19850*
G02X44873Y19871I21J21*
G01Y20592*
G02X44874Y20600I29*
G03X44881Y20656I209J56*
G01Y20905*
G02X44911Y20935I30*
G01X44980*
G03X45058Y21013J78*
G01Y21486*
G03X44980Y21565I78*
G01X44350*
G03X44271Y21486J79*
G01Y21013*
G03X44350Y20935I79*
G01X44419*
G02X44448Y20905J30*
G01Y20711*
G02X44447Y20703I29*
G03X44440Y20647I209J56*
G01Y19947*
G02X44431Y19925I30*
G03X44427Y19922I149J156*
G01X44130Y19624*
G02X44109Y19616I21J21*
G01X40564*
G03X40411Y19552J217*
G01X39984Y19126*
G02X39963Y19117I21J21*
X39943Y19126J30*
G01X39230Y19839*
G02X39221Y19860I21J21*
G01Y20731*
G03X39219Y20762I217*
G02Y20766I29J4*
G01Y20905*
G02X39248Y20935I29*
G01X39317*
G03X39396Y21013J78*
G01Y21486*
G03X39317Y21565I79*
G01X38687*
G03X38608Y21486J79*
G01Y21013*
G03X38687Y20935I79*
G01X38756*
G02X38785Y20905J30*
G01Y20733*
G03X38788Y20703I217*
G02Y20699I30J4*
G01Y19945*
G02X38778Y19923I30*
G03X38765Y19911I140J165*
G01X38478Y19624*
G02X38457Y19616I21J21*
G01X34901*
G03X34748Y19552J217*
G01X34322Y19126*
G02X34301Y19117I21J21*
X34280Y19126J30*
G01X33631Y19775*
G03X33573Y19817I153J153*
G02X33556Y19843I12J26*
G01Y20905*
G02X33585Y20935I29*
G01X33654*
G03X33733Y21013J78*
G01Y21486*
G03X33654Y21565I79*
G01X33024*
G03X32946Y21486J79*
G01Y21013*
G03X33024Y20935I78*
G01X33093*
G02X33123Y20905J30*
G01Y19724*
G02X33114Y19703I30*
G01X33036Y19624*
G02X33015Y19616I21J21*
G01X29154*
G03X29001Y19552J217*
G01X28659Y19210*
G02X28638Y19202I21J21*
X28617Y19210J29*
G01X27902Y19926*
G02X27893Y19947I21J21*
G01Y20905*
G02X27923Y20935I30*
G01X27992*
G03X28070Y21013J78*
G01Y21486*
G03X27992Y21565I78*
G01X27362*
G03X27283Y21486J79*
G01Y21013*
G03X27362Y20935I79*
G01X27431*
G02X27460Y20905J30*
G01Y19947*
G02X27452Y19926I29*
G01X27150Y19624*
G02X27129Y19616I21J21*
G01X23492*
G03X23338Y19552J217*
G01X22996Y19210*
G02X22976Y19202I20J21*
X22955Y19210J29*
G01X22239Y19926*
G02X22231Y19947I21J21*
G01Y20905*
G02X22260Y20935I29*
G01X22329*
G03X22408Y21013J78*
G01Y21486*
G03X22329Y21565I79*
G01X21699*
G03X21620Y21486J79*
G01Y21013*
G03X21699Y20935I79*
G01X21768*
G02X21798Y20905J30*
G01Y19947*
G02X21789Y19926I30*
G01X21488Y19624*
G02X21467Y19616I21J21*
G01X17829*
G03X17676Y19552J217*
G01X17334Y19210*
G02X17313Y19202I21J21*
X17292Y19210J29*
G01X16577Y19926*
G02X16568Y19947I21J21*
G01Y20905*
G02X16598Y20935I30*
G01X16667*
G03X16745Y21013J78*
G01Y21486*
G03X16667Y21565I78*
G01X16037*
G03X15958Y21486J79*
G01Y21013*
G03X16037Y20935I79*
G01X16106*
G02X16135Y20905J30*
G01Y19947*
G02X16126Y19926I29*
G01X15825Y19624*
G02X15804Y19616I21J21*
G01X12677*
G03X12524Y19552J217*
G01X11497Y18525*
G03X11434Y18372I153J153*
G01Y18147*
G02X11404Y18117I30*
G01X11335*
G03X11257Y18039J78*
G01Y19227*
X13756Y23549*
Y21979*
G03X13953Y21782I197*
X14045Y21804J197*
G02X14058Y21808I13J26*
X14088Y21778J30*
G01Y21742*
G03X14107Y21690I79*
G01Y21013*
G03X14167Y20954I60*
G01X14796*
G03X14856Y21013J59*
G01Y21486*
G03X14796Y21545I60*
G01X14167*
G03X14107Y21486J59*
G01Y21690*
G03X14167Y21663I60J52*
G01X14796*
G03X14875Y21742J79*
G01Y22214*
G03X14796Y22293I79*
G01X14167*
G03X14088Y22214J79*
G01Y22179*
G02X14058Y22150I30*
X14045Y22153J29*
G03X13953Y22176I92J174*
X13756Y21979J197*
G01Y23549*
X14088Y24122*
Y22470*
G03X14167Y22391I79*
G01X14796*
G03X14875Y22470J79*
G01Y22943*
G03X14796Y23021I79*
G01X14654*
G02X14625Y23051J30*
X14632Y23070I29*
G03X14678Y23197I151J127*
X14481Y23394I197*
X14285Y23197J197*
X14331Y23070I196*
G02X14338Y23051I22J19*
X14309Y23021I29*
G01X14167*
G03X14088Y22943J78*
G01Y24122*
X15958Y27356*
Y21742*
G03X16037Y21663I79*
G01X16667*
G03X16745Y21742J79*
G01Y21860*
G02X16775Y21889I30*
G01X19721*
G02X19750Y21860J29*
G01Y21742*
G03X19770Y21690I79*
G01Y21013*
G03X19829Y20954I59*
G01X20459*
G03X20518Y21013J59*
G01Y21486*
G03X20459Y21545I59*
G01X19829*
G03X19770Y21486J59*
G01Y21690*
G03X19829Y21663I59J52*
G01X20459*
G03X20538Y21742J79*
G01Y22214*
G03X20459Y22293I79*
G01X19829*
G03X19750Y22214J79*
G01Y22096*
G02X19721Y22067I29*
G01X16775*
G02X16745Y22096J29*
G01Y22214*
G03X16667Y22293I78*
G01X16037*
G03X15958Y22214J79*
G01Y22470*
G03X16037Y22391I79*
G01X16667*
G03X16745Y22470J79*
G01Y22588*
G02X16775Y22618I30*
G01X19721*
G02X19750Y22588J30*
G01Y22470*
G03X19829Y22391I79*
G01X20459*
G03X20538Y22470J79*
G01Y22943*
G03X20459Y23021I79*
G01X19829*
G03X19750Y22943J78*
G01Y22824*
G02X19721Y22795I29*
G01X16775*
G02X16745Y22824J29*
G01Y22943*
G03X16667Y23021I78*
G01X16037*
G03X15958Y22943J78*
G01Y27356*
X16466Y28235*
Y26884*
G03X16551Y26722I197*
G01Y26154*
G03X16748Y25957I197*
X16871Y26000J197*
G02X16890Y26007I19J23*
X16919Y25977J30*
G01Y25918*
G03X16998Y25839I79*
G01X17628*
G03X17707Y25918J79*
G01Y26390*
G03X17628Y26469I79*
G01X16998*
G03X16919Y26390J79*
G01Y26331*
G02X16890Y26301I29*
X16871Y26308J30*
G03X16748Y26351I123J154*
X16551Y26154J197*
G01Y26722*
G03X16663Y26687I112J162*
X16831Y26781J197*
G02X16856Y26795I25J15*
G01X16871*
G02X16876J29*
G03X16890Y26794I14J87*
G02X16919Y26764J30*
G01Y26646*
G03X16998Y26567I79*
G01X17628*
G03X17707Y26646J79*
G01Y27119*
G03X17628Y27197I79*
G01X16998*
G03X16919Y27119J78*
G01Y27002*
G02X16890Y26972I29*
G01X16889*
X16856*
G02X16831Y26987J30*
G03X16663Y27081I168J103*
X16466Y26884J197*
G01Y28235*
X16919Y29018*
Y27374*
G03X16998Y27296I79*
G01X17628*
G03X17707Y27374J78*
G01Y27847*
G03X17628Y27926I79*
G01X17559*
G02X17530Y27955J29*
G01Y28103*
G02X17538Y28124I29*
G01X18206Y28793*
G02X18227Y28801I21J21*
G01X18789*
Y25918*
G03X18868Y25839I79*
G01X19498*
G03X19577Y25918J79*
G01Y26036*
G02X19606Y26065I29*
G01X21620*
Y21742*
G03X21699Y21663I79*
G01X22329*
G03X22408Y21742J79*
G01Y21860*
G02X22437Y21889I29*
G01X25383*
G02X25413Y21860J29*
G01Y21742*
G03X25433Y21690I79*
G01Y21013*
G03X25492Y20954I59*
G01X26122*
G03X26181Y21013J59*
G01Y21486*
G03X26122Y21545I59*
G01X25492*
G03X25433Y21486J59*
G01Y21690*
G03X25492Y21663I59J52*
G01X26122*
G03X26200Y21742J79*
G01Y22214*
G03X26122Y22293I78*
G01X25492*
G03X25413Y22214J79*
G01Y22096*
G02X25383Y22067I30*
G01X22437*
G02X22408Y22096J29*
G01Y22214*
G03X22329Y22293I79*
G01X21699*
G03X21620Y22214J79*
G01Y22470*
G03X21699Y22391I79*
G01X22329*
G03X22408Y22470J79*
G01Y22588*
G02X22437Y22618I29*
G01X25383*
G02X25413Y22588J30*
G01Y22470*
G03X25492Y22391I79*
G01X26122*
G03X26200Y22470J79*
G01Y22943*
G03X26122Y23021I78*
G01X25492*
G03X25413Y22943J78*
G01Y22824*
G02X25383Y22795I30*
G01X22437*
G02X22408Y22824J29*
G01Y22943*
G03X22329Y23021I79*
G01X21699*
G03X21620Y22943J78*
G01Y26065*
X22552*
G02X22582Y26036J29*
G01Y25918*
G03X22661Y25839I79*
G01X23291*
G03X23369Y25918J79*
G01Y26390*
G03X23291Y26469I78*
G01X22661*
G03X22582Y26390J79*
G01Y26272*
G02X22552Y26243I30*
G01X19606*
G02X19577Y26272J29*
G01Y26390*
G03X19498Y26469I79*
G01X18868*
G03X18789Y26390J79*
G01Y26646*
G03X18868Y26567I79*
G01X19498*
G03X19577Y26646J79*
G01Y26764*
G02X19606Y26794I29*
G01X22552*
G02X22582Y26764J30*
G01Y26646*
G03X22661Y26567I79*
G01X23291*
G03X23369Y26646J79*
G01Y27119*
G03X23291Y27197I78*
G01X22661*
G03X22582Y27119J78*
G01Y27000*
G02X22552Y26971I30*
G01X19606*
G02X19577Y27000J29*
G01Y27119*
G03X19498Y27197I79*
G01X18868*
G03X18789Y27119J78*
G01Y28801*
X18809*
Y27374*
G03X18868Y27315I59*
G01X19498*
G03X19557Y27374J59*
G01Y27847*
G03X19498Y27906I59*
G01X18868*
G03X18809Y27847J59*
G01Y28801*
X22014*
G03X22113Y28825J217*
G02X22127Y28828I14J26*
G01X22220*
G02X22240Y28820J29*
G01X22750Y28310*
G02X22759Y28289I20J21*
G01Y27955*
G02X22730Y27926I29*
G01X22661*
G03X22582Y27847J79*
G01Y27374*
G03X22661Y27296I79*
G01X23291*
G03X23369Y27374J78*
G01Y27847*
G03X23291Y27926I78*
G01X23222*
G02X23192Y27955J29*
G01Y28289*
G02X23201Y28310I30*
G01X23683Y28793*
G02X23704Y28801I21J21*
G01X24452*
Y25918*
G03X24531Y25839I79*
G01X25161*
G03X25239Y25918J79*
G01Y26036*
G02X25269Y26065I30*
G01X27283*
Y21742*
G03X27362Y21663I79*
G01X27992*
G03X28070Y21742J79*
G01Y21860*
G02X28100Y21889I30*
G01X31046*
G02X31076Y21860J29*
G01Y21742*
G03X31095Y21690I78*
G01Y21013*
G03X31154Y20954I59*
G01X31784*
G03X31843Y21013J59*
G01Y21486*
G03X31784Y21545I59*
G01X31154*
G03X31095Y21486J59*
G01Y21690*
G03X31154Y21663I59J52*
G01X31784*
G03X31863Y21742J79*
G01Y22214*
G03X31784Y22293I79*
G01X31154*
G03X31076Y22214J79*
G01Y22096*
G02X31046Y22067I30*
G01X28100*
G02X28070Y22096J29*
G01Y22214*
G03X27992Y22293I78*
G01X27362*
G03X27283Y22214J79*
G01Y22470*
G03X27362Y22391I79*
G01X27992*
G03X28070Y22470J79*
G01Y22588*
G02X28100Y22618I30*
G01X31046*
G02X31076Y22588J30*
G01Y22470*
G03X31154Y22391I78*
G01X31784*
G03X31863Y22470J79*
G01Y22943*
G03X31784Y23021I79*
G01X31154*
G03X31076Y22943J78*
G01Y22824*
G02X31046Y22795I30*
G01X28100*
G02X28070Y22824J29*
G01Y22943*
G03X27992Y23021I78*
G01X27362*
G03X27283Y22943J78*
G01Y26065*
X28215*
G02X28244Y26036J29*
G01Y25918*
G03X28323Y25839I79*
G01X28953*
G03X29032Y25918J79*
G01Y26390*
G03X28953Y26469I79*
G01X28323*
G03X28244Y26390J79*
G01Y26272*
G02X28215Y26243I29*
G01X25269*
G02X25239Y26272J29*
G01Y26390*
G03X25161Y26469I78*
G01X24531*
G03X24452Y26390J79*
G01Y26646*
G03X24531Y26567I79*
G01X25161*
G03X25239Y26646J79*
G01Y26764*
G02X25269Y26794I30*
G01X28215*
G02X28244Y26764J30*
G01Y26646*
G03X28323Y26567I79*
G01X28953*
G03X29032Y26646J79*
G01Y27119*
G03X28953Y27197I79*
G01X28323*
G03X28244Y27119J78*
G01Y27000*
G02X28215Y26971I29*
G01X25269*
G02X25239Y27000J29*
G01Y27119*
G03X25161Y27197I78*
G01X24531*
G03X24452Y27119J78*
G01Y28801*
X24472*
Y27374*
G03X24531Y27315I59*
G01X25161*
G03X25220Y27374J59*
G01Y27847*
G03X25161Y27906I59*
G01X24531*
G03X24472Y27847J59*
G01Y28801*
X27229*
G03X27382Y28865J217*
G01X27653Y29136*
G02X27674Y29145I21J21*
X27695Y29136J30*
G01X28413Y28418*
G02X28422Y28397I21J21*
G01Y27955*
G02X28392Y27926I30*
G01X28323*
G03X28244Y27847J79*
G01Y27374*
G03X28323Y27296I79*
G01X28953*
G03X29032Y27374J78*
G01Y27847*
G03X28953Y27926I79*
G01X28884*
G02X28855Y27955J29*
G01Y28397*
G02X28863Y28418I29*
G01X28885Y28440*
G02X28906Y28449I21J21*
G01X30115*
Y25918*
G03X30193Y25839I78*
G01X30823*
G03X30902Y25918J79*
G01Y26036*
G02X30931Y26065I29*
G01X32946*
Y21742*
G03X33024Y21663I78*
G01X33654*
G03X33733Y21742J79*
G01Y21860*
G02X33763Y21889I30*
G01X36709*
G02X36738Y21860J29*
G01Y21742*
G03X36758Y21690I79*
G01Y21013*
G03X36817Y20954I59*
G01X37447*
G03X37506Y21013J59*
G01Y21486*
G03X37447Y21545I59*
G01X36817*
G03X36758Y21486J59*
G01Y21690*
G03X36817Y21663I59J52*
G01X37447*
G03X37526Y21742J79*
G01Y22214*
G03X37447Y22293I79*
G01X36817*
G03X36738Y22214J79*
G01Y22096*
G02X36709Y22067I29*
G01X33763*
G02X33733Y22096J29*
G01Y22214*
G03X33654Y22293I79*
G01X33024*
G03X32946Y22214J79*
G01Y22470*
G03X33024Y22391I78*
G01X33654*
G03X33733Y22470J79*
G01Y22588*
G02X33763Y22618I30*
G01X36709*
G02X36738Y22588J30*
G01Y22470*
G03X36817Y22391I79*
G01X37447*
G03X37526Y22470J79*
G01Y22943*
G03X37447Y23021I79*
G01X36817*
G03X36738Y22943J78*
G01Y22824*
G02X36709Y22795I29*
G01X33763*
G02X33733Y22824J29*
G01Y22943*
G03X33654Y23021I79*
G01X33024*
G03X32946Y22943J78*
G01Y26065*
X33878*
G02X33907Y26036J29*
G01Y25918*
G03X33986Y25839I79*
G01X34616*
G03X34694Y25918J79*
G01Y26390*
G03X34616Y26469I78*
G01X33986*
G03X33907Y26390J79*
G01Y26272*
G02X33878Y26243I29*
G01X30931*
G02X30902Y26272J29*
G01Y26390*
G03X30823Y26469I79*
G01X30193*
G03X30115Y26390J79*
G01Y26646*
G03X30193Y26567I78*
G01X30823*
G03X30902Y26646J79*
G01Y26764*
G02X30931Y26794I29*
G01X33878*
G02X33907Y26764J30*
G01Y26646*
G03X33986Y26567I79*
G01X34616*
G03X34694Y26646J79*
G01Y27119*
G03X34616Y27197I78*
G01X33986*
G03X33907Y27119J78*
G01Y27000*
G02X33878Y26971I29*
G01X30931*
G02X30902Y27000J29*
G01Y27119*
G03X30823Y27197I79*
G01X30193*
G03X30115Y27119J78*
G01Y28449*
X30134*
Y27374*
G03X30193Y27315I59*
G01X30823*
G03X30882Y27374J59*
G01Y27847*
G03X30823Y27906I59*
G01X30193*
G03X30134Y27847J59*
G01Y28449*
X33008*
G03X33161Y28512J216*
G01X33366Y28717*
G02X33386Y28725I20J21*
X33407Y28717J29*
G01X33612Y28512*
G03X33765Y28449I153J153*
G01X33946*
G02X33969Y28438J30*
G03X33986Y28419I170J134*
G01X34043Y28362*
G02X34052Y28341I21J21*
G01Y28196*
G03X34080Y28089I216*
G02X34084Y28074I25J15*
G01Y27955*
G02X34055Y27926I29*
G01X33986*
G03X33907Y27847J79*
G01Y27374*
G03X33986Y27296I79*
G01X34616*
G03X34694Y27374J78*
G01Y27847*
G03X34616Y27926I78*
G01X34547*
G02X34517Y27955J29*
G01Y28164*
G03X34489Y28271I216*
G02X34485Y28285I26J14*
G01Y28443*
G03X34422Y28596I217*
G01X34419Y28598*
G02X34411Y28619I21J21*
X34419Y28640I29*
G01X34572Y28793*
G02X34593Y28801I21J21*
G01X35777*
Y25918*
G03X35856Y25839I79*
G01X36486*
G03X36565Y25918J79*
G01Y26036*
G02X36594Y26065I29*
G01X38608*
Y21742*
G03X38687Y21663I79*
G01X39317*
G03X39396Y21742J79*
G01Y21860*
G02X39425Y21889I29*
G01X42371*
G02X42401Y21860J29*
G01Y21742*
G03X42420Y21690I79*
G01Y21013*
G03X42480Y20954I60*
G01X43109*
G03X43169Y21013J59*
G01Y21486*
G03X43109Y21545I60*
G01X42480*
G03X42420Y21486J59*
G01Y21690*
G03X42480Y21663I60J52*
G01X43109*
G03X43188Y21742J79*
G01Y22214*
G03X43109Y22293I79*
G01X42480*
G03X42401Y22214J79*
G01Y22096*
G02X42371Y22067I30*
G01X39425*
G02X39396Y22096J29*
G01Y22214*
G03X39317Y22293I79*
G01X38687*
G03X38608Y22214J79*
G01Y22470*
G03X38687Y22391I79*
G01X39317*
G03X39396Y22470J79*
G01Y22588*
G02X39425Y22618I29*
G01X42371*
G02X42401Y22588J30*
G01Y22470*
G03X42480Y22391I79*
G01X43109*
G03X43188Y22470J79*
G01Y22943*
G03X43109Y23021I79*
G01X42480*
G03X42401Y22943J78*
G01Y22824*
G02X42371Y22795I30*
G01X39425*
G02X39396Y22824J29*
G01Y22943*
G03X39317Y23021I79*
G01X38687*
G03X38608Y22943J78*
G01Y26065*
X39540*
G02X39570Y26036J29*
G01Y25918*
G03X39648Y25839I78*
G01X40278*
G03X40357Y25918J79*
G01Y26390*
G03X40278Y26469I79*
G01X39648*
G03X39570Y26390J79*
G01Y26272*
G02X39540Y26243I30*
G01X36594*
G02X36565Y26272J29*
G01Y26390*
G03X36486Y26469I79*
G01X35856*
G03X35777Y26390J79*
G01Y26646*
G03X35856Y26567I79*
G01X36486*
G03X36565Y26646J79*
G01Y26764*
G02X36594Y26794I29*
G01X39540*
G02X39570Y26764J30*
G01Y26646*
G03X39648Y26567I78*
G01X40278*
G03X40357Y26646J79*
G01Y27119*
G03X40278Y27197I79*
G01X39648*
G03X39570Y27119J78*
G01Y27000*
G02X39540Y26971I30*
G01X36594*
G02X36565Y27000J29*
G01Y27119*
G03X36486Y27197I79*
G01X35856*
G03X35777Y27119J78*
G01Y28801*
X35797*
Y27374*
G03X35856Y27315I59*
G01X36486*
G03X36545Y27374J59*
G01Y27847*
G03X36486Y27906I59*
G01X35856*
G03X35797Y27847J59*
G01Y28801*
X38565*
G03X38718Y28865J217*
G01X38989Y29136*
G02X39010Y29145I21J21*
X39031Y29136J30*
G01X39302Y28865*
G03X39455Y28801I153J153*
G01X39584*
G02X39604Y28793J29*
G01X39683Y28714*
G02X39692Y28693I21J21*
G01Y28195*
G03X39740Y28058I216*
G02X39747Y28040I23J18*
G01Y27955*
G02X39717Y27926I30*
G01X39648*
G03X39570Y27847J79*
G01Y27374*
G03X39648Y27296I78*
G01X40278*
G03X40357Y27374J78*
G01Y27847*
G03X40278Y27926I79*
G01X40209*
G02X40180Y27955J29*
G01Y28140*
G03X40131Y28276I217*
G02X40125Y28295I23J19*
G01Y28693*
G02X40133Y28714I29*
G01X40212Y28793*
G02X40233Y28801I21J21*
G01X41440*
Y25918*
G03X41519Y25839I79*
G01X42148*
G03X42227Y25918J79*
G01Y26036*
G02X42257Y26065I30*
G01X44271*
Y21742*
G03X44350Y21663I79*
G01X44980*
G03X45058Y21742J79*
G01Y21860*
G02X45088Y21889I30*
G01X48034*
G02X48063Y21860J29*
G01Y21742*
G03X48083Y21690I79*
G01Y21013*
G03X48142Y20954I59*
G01X48772*
G03X48831Y21013J59*
G01Y21486*
G03X48772Y21545I59*
G01X48142*
G03X48083Y21486J59*
G01Y21690*
G03X48142Y21663I59J52*
G01X48772*
G03X48851Y21742J79*
G01Y22214*
G03X48772Y22293I79*
G01X48142*
G03X48063Y22214J79*
G01Y22096*
G02X48034Y22067I29*
G01X45088*
G02X45058Y22096J29*
G01Y22214*
G03X44980Y22293I78*
G01X44350*
G03X44271Y22214J79*
G01Y22470*
G03X44350Y22391I79*
G01X44980*
G03X45058Y22470J79*
G01Y22588*
G02X45088Y22618I30*
G01X48034*
G02X48063Y22588J30*
G01Y22470*
G03X48142Y22391I79*
G01X48772*
G03X48851Y22470J79*
G01Y22943*
G03X48772Y23021I79*
G01X48142*
G03X48063Y22943J78*
G01Y22824*
G02X48034Y22795I29*
G01X45088*
G02X45058Y22824J29*
G01Y22943*
G03X44980Y23021I78*
G01X44350*
G03X44271Y22943J78*
G01Y26065*
X45203*
G02X45232Y26036J29*
G01Y25918*
G03X45311Y25839I79*
G01X45941*
G03X46020Y25918J79*
G01Y26390*
G03X45941Y26469I79*
G01X45311*
G03X45232Y26390J79*
G01Y26272*
G02X45203Y26243I29*
G01X42257*
G02X42227Y26272J29*
G01Y26390*
G03X42148Y26469I79*
G01X41519*
G03X41440Y26390J79*
G01Y26646*
G03X41519Y26567I79*
G01X42148*
G03X42227Y26646J79*
G01Y26764*
G02X42257Y26794I30*
G01X45203*
G02X45232Y26764J30*
G01Y26646*
G03X45311Y26567I79*
G01X45941*
G03X46020Y26646J79*
G01Y27119*
G03X45941Y27197I79*
G01X45311*
G03X45232Y27119J78*
G01Y27000*
G02X45203Y26971I29*
G01X42257*
G02X42227Y27000J29*
G01Y27119*
G03X42148Y27197I79*
G01X41519*
G03X41440Y27119J78*
G01Y28801*
X41459*
Y27374*
G03X41519Y27315I60*
G01X42148*
G03X42207Y27374J59*
G01Y27847*
G03X42148Y27906I59*
G01X41519*
G03X41459Y27847J59*
G01Y28801*
X44204*
G03X44357Y28865J217*
G01X44629Y29136*
G02X44650Y29145I21J21*
X44671Y29136J30*
G01X44942Y28865*
G03X45095Y28801I153J153*
G01X45288*
G02X45309Y28793J29*
G01X45388Y28714*
G02X45396Y28693I21J21*
G01Y28077*
G03X45408Y28007I217*
G02X45409Y27997I28J10*
G01Y27955*
G02X45380Y27926I29*
G01X45311*
G03X45232Y27847J79*
G01Y27374*
G03X45311Y27296I79*
G01X45941*
G03X46020Y27374J78*
G01Y27847*
G03X45941Y27926I79*
G01X45872*
G02X45843Y27955J29*
G01Y28063*
G03X45831Y28133I217*
G02X45829Y28143I28J10*
G01Y28693*
G02X45838Y28714I30*
G01X45917Y28793*
G02X45938Y28801I21J21*
G01X47102*
Y25918*
G03X47181Y25839I79*
G01X47811*
G03X47890Y25918J79*
G01Y26036*
G02X47919Y26065I29*
G01X49933*
Y21742*
G03X50012Y21663I79*
G01X50642*
G03X50721Y21742J79*
G01Y21860*
G02X50750Y21889I29*
G01X53696*
G02X53726Y21860J29*
G01Y21742*
G03X53746Y21690I79*
G01Y21013*
G03X53805Y20954I59*
G01X54435*
G03X54494Y21013J59*
G01Y21486*
G03X54435Y21545I59*
G01X53805*
G03X53746Y21486J59*
G01Y21690*
G03X53805Y21663I59J52*
G01X54435*
G03X54513Y21742J79*
G01Y22214*
G03X54435Y22293I78*
G01X53805*
G03X53726Y22214J79*
G01Y22096*
G02X53696Y22067I30*
G01X50750*
G02X50721Y22096J29*
G01Y22214*
G03X50642Y22293I79*
G01X50012*
G03X49933Y22214J79*
G01Y22470*
G03X50012Y22391I79*
G01X50642*
G03X50721Y22470J79*
G01Y22588*
G02X50750Y22618I29*
G01X53696*
G02X53726Y22588J30*
G01Y22470*
G03X53805Y22391I79*
G01X54435*
G03X54513Y22470J79*
G01Y22943*
G03X54435Y23021I78*
G01X53805*
G03X53726Y22943J78*
G01Y22824*
G02X53696Y22795I30*
G01X50750*
G02X50721Y22824J29*
G01Y22943*
G03X50642Y23021I79*
G01X50012*
G03X49933Y22943J78*
G01Y26065*
X50085*
Y24406*
G03X50925Y23566I840*
X51765Y24406J840*
X50925Y25245I840*
X50085Y24406J839*
G01Y26065*
X50865*
G02X50895Y26036J29*
G01Y25918*
G03X50974Y25839I79*
G01X51604*
G03X51682Y25918J79*
G01Y26390*
G03X51604Y26469I78*
G01X50974*
G03X50895Y26390J79*
G01Y26272*
G02X50865Y26243I30*
G01X47919*
G02X47890Y26272J29*
G01Y26390*
G03X47811Y26469I79*
G01X47181*
G03X47102Y26390J79*
G01Y26646*
G03X47181Y26567I79*
G01X47811*
G03X47890Y26646J79*
G01Y26764*
G02X47919Y26794I29*
G01X50865*
G02X50895Y26764J30*
G01Y26646*
G03X50974Y26567I79*
G01X51604*
G03X51682Y26646J79*
G01Y27119*
G03X51604Y27197I78*
G01X50974*
G03X50895Y27119J78*
G01Y27000*
G02X50865Y26971I30*
G01X47919*
G02X47890Y27000J29*
G01Y27119*
G03X47811Y27197I79*
G01X47181*
G03X47102Y27119J78*
G01Y28801*
X47122*
Y27374*
G03X47181Y27315I59*
G01X47811*
G03X47870Y27374J59*
G01Y27847*
G03X47811Y27906I59*
G01X47181*
G03X47122Y27847J59*
G01Y28801*
X49888*
G03X50041Y28865J217*
G01X50312Y29136*
G02X50333Y29145I21J21*
X50354Y29136J30*
G01X50626Y28865*
G03X50687Y28822I153J153*
G02X50695Y28816I13J27*
G01X51063Y28448*
G02X51072Y28427I20J21*
G01Y27955*
G02X51043Y27926I29*
G01X50974*
G03X50895Y27847J79*
G01Y27374*
G03X50974Y27296I79*
G01X51604*
G03X51682Y27374J78*
G01Y27847*
G03X51604Y27926I78*
G01X51535*
G02X51505Y27955J29*
G01Y28529*
G03X51442Y28682I216*
G01X50953Y29171*
G03X50891Y29214I154J153*
G02X50883Y29220I13J27*
G01X50558Y29544*
G02X50550Y29565I21J21*
G01Y30462*
G03X50544Y30510I217*
G02Y30517I29J7*
G01Y30713*
G02X50573Y30743I29*
G01X50642*
G03X50721Y30822J79*
G01Y31294*
G03X50642Y31373I79*
G01X50012*
G03X49933Y31294J79*
G01Y30822*
G03X50012Y30743I79*
G01X50081*
G02X50111Y30713J30*
G01Y30468*
G03X50116Y30420I216*
G02X50117Y30414I29J6*
G01Y29565*
G02X50108Y29544I30*
G01X49807Y29243*
G02X49786Y29234I21J21*
G01X45836*
G03X45682Y29171J216*
G01X45634Y29122*
G02X45613Y29113I21J21*
X45592Y29122J30*
G01X45543Y29171*
G03X45390Y29234I153J153*
G01X45197*
G02X45176Y29243J30*
G01X44875Y29544*
G02X44866Y29565I21J21*
G01Y30395*
G02X44868Y30405I30*
G03X44881Y30479I203J74*
G01Y30713*
G02X44911Y30743I30*
G01X44980*
G03X45058Y30822J79*
G01Y31294*
G03X44980Y31373I78*
G01X44350*
G03X44271Y31294J79*
G01Y30822*
G03X44350Y30743I79*
G01X44419*
G02X44448Y30713J30*
G01Y30548*
G02X44446Y30538I29*
G03X44433Y30464I204J74*
G01Y29565*
G02X44425Y29544I29*
G01X44123Y29243*
G02X44102Y29234I21J21*
G01X40131*
G03X39978Y29171J216*
G01X39929Y29122*
G02X39908Y29113I21J21*
X39887Y29122J30*
G01X39839Y29171*
G03X39685Y29234I154J153*
G01X39557*
G02X39536Y29243J30*
G01X39235Y29544*
G02X39227Y29565I21J21*
G01Y30378*
G03X39219Y30433I217*
G02Y30441I29J8*
G01Y30713*
G02X39248Y30743I29*
G01X39317*
G03X39396Y30822J79*
G01Y31294*
G03X39317Y31373I79*
G01X38687*
G03X38608Y31294J79*
G01Y30822*
G03X38687Y30743I79*
G01X38756*
G02X38785Y30713J30*
G01Y30386*
G03X38793Y30331I217*
G02Y30324I29J7*
G01Y29565*
G02X38785Y29544I29*
G01X38484Y29243*
G02X38463Y29234I21J21*
G01X34491*
G03X34338Y29171J216*
G01X34058Y28891*
G02X34037Y28882I21J20*
G01X33867*
G02X33846Y28891J29*
G01X33585Y29152*
G03X33568Y29166I153J154*
G02X33558Y29189I19J23*
G01Y30437*
G03X33556Y30463I217*
G02Y30466I29J3*
G01Y30713*
G02X33585Y30743I29*
G01X33654*
G03X33733Y30822J79*
G01Y31294*
G03X33654Y31373I79*
G01X33024*
G03X32946Y31294J79*
G01Y30822*
G03X33024Y30743I78*
G01X33093*
G02X33123Y30713J30*
G01Y30439*
G03X33124Y30414I216*
G02X33125Y30410I29J4*
G01Y29100*
G02X33116Y29079I30*
G01X32927Y28891*
G02X32906Y28882I21J20*
G01X28804*
G03X28658Y28825J217*
G02X28638Y28818I20J22*
X28617Y28826J29*
G01X27899Y29544*
G02X27891Y29565I21J21*
G01Y30408*
G02Y30413I29*
G03X27893Y30443I214J30*
G01Y30713*
G02X27923Y30743I30*
G01X27992*
G03X28070Y30822J79*
G01Y31294*
G03X27992Y31373I78*
G01X27362*
G03X27283Y31294J79*
G01Y30822*
G03X27362Y30743I79*
G01X27431*
G02X27460Y30713J30*
G01Y30475*
G02Y30471I29*
G03X27458Y30441I214J30*
G01Y29565*
G02X27449Y29544I30*
G01X27148Y29243*
G02X27127Y29234I21J21*
G01X23602*
G03X23449Y29171J216*
G01X22996Y28718*
G02X22976Y28709I20J21*
X22955Y28718J30*
G01X22556Y29117*
G02X22549Y29127I21J21*
G03X22349Y29262I200J82*
G01X22014*
G03X21915Y29238J217*
G02X21901Y29234I14J26*
G01X18125*
G03X17972Y29171J216*
G01X17160Y28358*
G03X17096Y28205I153J153*
G01Y27955*
G02X17067Y27926I29*
G01X16998*
G03X16919Y27847J79*
G01Y29018*
X19406Y33317*
Y31786*
G03X19603Y31589I197*
X19705Y31618J197*
G02X19721Y31623I16J25*
X19750Y31593J30*
G01Y31550*
G03X19770Y31498I79*
G01Y30822*
G03X19829Y30763I59*
G01X20459*
G03X20518Y30822J59*
G01Y31294*
G03X20459Y31353I59*
G01X19829*
G03X19770Y31294J59*
G01Y31498*
G03X19829Y31471I59J52*
G01X20459*
G03X20538Y31550J79*
G01Y32022*
G03X20459Y32101I79*
G01X19829*
G03X19750Y32022J79*
G01Y31979*
G02X19721Y31950I29*
X19705Y31954J29*
G03X19603Y31983I102J168*
X19406Y31786J197*
G01Y33317*
X19750Y33913*
Y32278*
G03X19829Y32200I79*
G01X20459*
G03X20538Y32278J78*
G01Y32751*
G03X20459Y32830I79*
G01X20304*
G02X20274Y32859J29*
X20283Y32880I30*
G03X20341Y33019I139J139*
X20144Y33216I197*
X19947Y33019J197*
X20005Y32880I197*
G02X20014Y32859I21J21*
X19984Y32830I30*
G01X19829*
G03X19750Y32751J79*
G01Y33913*
X21232Y36475*
Y30456*
G03X21258Y30393I89*
G01X21552Y30100*
G03X21614Y30074I62J62*
G01X26215*
G03X26278Y30100J88*
G01X26536Y30358*
G03X26562Y30421I62J63*
G01Y31587*
G03X26536Y31649I88*
G01X26337Y31849*
G03X26274Y31875I63J63*
G01X26230*
G02X26200Y31904J29*
G01Y32022*
G03X26122Y32101I78*
G01X25492*
G03X25413Y32022J79*
G01Y31550*
G03X25433Y31498I79*
G01Y30822*
G03X25492Y30763I59*
G01X26122*
G03X26181Y30822J59*
G01Y31294*
G03X26122Y31353I59*
G01X25492*
G03X25433Y31294J59*
G01Y31498*
G03X25492Y31471I59J52*
G01X26122*
G03X26200Y31550J79*
G01Y31663*
G02X26230Y31693I30*
X26251Y31684J30*
G01X26377Y31558*
G02X26385Y31538I21J20*
G01Y30469*
G02X26377Y30449I29*
G01X26187Y30259*
G02X26166Y30251I21J21*
G01X22080*
G02X22050Y30280J29*
X22072Y30309I30*
G03X22231Y30517I58J208*
G01Y30713*
G02X22260Y30743I29*
G01X22329*
G03X22408Y30822J79*
G01Y31294*
G03X22329Y31373I79*
G01X21699*
G03X21620Y31294J79*
G01Y30822*
G03X21699Y30743I79*
G01X21768*
G02X21798Y30713J30*
G01Y30517*
G03X21956Y30309I216*
G02X21978Y30280I8J29*
X21948Y30251I30*
G01X21663*
G02X21642Y30259J29*
G01X21418Y30484*
G02X21409Y30505I21J21*
G01Y31531*
G02X21418Y31552I30*
G01X21555Y31689*
G02X21576Y31698I21J21*
G01X21591*
G02X21620Y31668J30*
G01Y31550*
G03X21699Y31471I79*
G01X22329*
G03X22408Y31550J79*
G01Y32022*
G03X22329Y32101I79*
G01X21699*
G03X21620Y32022J79*
G01Y31904*
G02X21591Y31875I29*
G01X21527*
G03X21465Y31849J89*
G01X21258Y31642*
G03X21232Y31580I63J62*
G01Y36475*
X21620Y37147*
Y32278*
G03X21699Y32200I79*
G01X22329*
G03X22408Y32278J78*
G01Y32751*
G03X22329Y32830I79*
G01X22132*
G02X22103Y32859J29*
G01Y33088*
G02X22111Y33109I29*
G01X22606Y33603*
G02X22626Y33612I20J21*
G01X23034*
Y31902*
G03X23874Y31062I840*
X24714Y31902J840*
X23874Y32741I840*
X23034Y31902J839*
G01Y33612*
X25214*
G02X25234Y33603J30*
G01X25709Y33128*
G02X25718Y33107I20J21*
G01Y32859*
G02X25689Y32830I29*
G01X25492*
G03X25413Y32751J79*
G01Y32278*
G03X25492Y32200I79*
G01X26122*
G03X26200Y32278J78*
G01Y32751*
G03X26122Y32830I78*
G01X25925*
G02X25895Y32859J29*
G01Y33156*
G03X25869Y33219I88*
G01X25325Y33763*
G03X25263Y33789I62J63*
G01X22578*
G03X22515Y33763J89*
G01X21952Y33200*
G03X21926Y33137I62J63*
G01Y32859*
G02X21896Y32830I30*
G01X21699*
G03X21620Y32751J79*
G01Y37147*
X22237Y38212*
Y36690*
G03X22255Y36607I197*
G01Y35965*
G03X22452Y35769I197*
X22539Y35789J196*
G02X22552Y35792I13J27*
X22582Y35762J30*
G01Y35726*
G03X22661Y35647I79*
G01X23291*
G03X23369Y35726J79*
G01Y36198*
G03X23291Y36277I78*
G01X22661*
G03X22582Y36198J79*
G01Y36168*
G02X22552Y36139I30*
X22539Y36142J29*
G03X22452Y36162I87J177*
X22255Y35965J197*
G01Y36607*
G03X22434Y36493I179J83*
X22537Y36523J197*
G02X22552Y36527I15J26*
X22582Y36497J30*
G01Y36454*
G03X22661Y36375I79*
G01X23291*
G03X23369Y36454J79*
G01Y36926*
G03X23291Y37005I78*
G01X22661*
G03X22582Y36926J79*
G01Y36883*
G02X22552Y36853I30*
X22537Y36858J30*
G03X22434Y36887I103J168*
X22237Y36690J197*
G01Y38212*
X22582Y38809*
Y37182*
G03X22661Y37104I79*
G01X23291*
G03X23369Y37182J78*
G01Y37655*
G03X23291Y37733I78*
G01X23222*
G02X23192Y37763J30*
G01Y37880*
G02X23201Y37901I30*
G01X24282Y38982*
G02X24303Y38991I21J21*
G01X24452*
Y35726*
G03X24531Y35647I79*
G01X25161*
G03X25239Y35726J79*
G01Y35844*
G02X25269Y35873I30*
G01X26726*
Y34402*
G03X27002Y34127I276*
X27277Y34402J275*
X27002Y34678I275*
X26726Y34402J276*
G01Y35873*
X27283*
Y31550*
G03X27362Y31471I79*
G01X27992*
G03X28070Y31550J79*
G01Y31668*
G02X28100Y31698I30*
G01X31046*
G02X31076Y31668J30*
G01Y31550*
G03X31095Y31498I78*
G01Y30822*
G03X31154Y30763I59*
G01X31784*
G03X31843Y30822J59*
G01Y31294*
G03X31784Y31353I59*
G01X31154*
G03X31095Y31294J59*
G01Y31498*
G03X31154Y31471I59J52*
G01X31784*
G03X31863Y31550J79*
G01Y32022*
G03X31784Y32101I79*
G01X31154*
G03X31076Y32022J79*
G01Y31904*
G02X31046Y31875I30*
G01X28100*
G02X28070Y31904J29*
G01Y32022*
G03X27992Y32101I78*
G01X27362*
G03X27283Y32022J79*
G01Y32278*
G03X27362Y32200I79*
G01X27992*
G03X28070Y32278J78*
G01Y32396*
G02X28100Y32426I30*
G01X31046*
G02X31076Y32396J30*
G01Y32278*
G03X31154Y32200I78*
G01X31784*
G03X31863Y32278J78*
G01Y32751*
G03X31784Y32830I79*
G01X31154*
G03X31076Y32751J79*
G01Y32633*
G02X31046Y32603I30*
G01X28100*
G02X28070Y32633J30*
G01Y32751*
G03X27992Y32830I78*
G01X27362*
G03X27283Y32751J79*
G01Y35873*
X28215*
G02X28244Y35844J29*
G01Y35726*
G03X28323Y35647I79*
G01X28953*
G03X29032Y35726J79*
G01Y36198*
G03X28953Y36277I79*
G01X28323*
G03X28244Y36198J79*
G01Y36080*
G02X28215Y36050I29*
G01X25269*
G02X25239Y36080J30*
G01Y36198*
G03X25161Y36277I78*
G01X24531*
G03X24452Y36198J79*
G01Y36454*
G03X24531Y36375I79*
G01X25161*
G03X25239Y36454J79*
G01Y36572*
G02X25269Y36602I30*
G01X28215*
G02X28244Y36572J30*
G01Y36454*
G03X28323Y36375I79*
G01X28953*
G03X29032Y36454J79*
G01Y36926*
G03X28953Y37005I79*
G01X28323*
G03X28244Y36926J79*
G01Y36808*
G02X28215Y36779I29*
G01X25269*
G02X25239Y36808J29*
G01Y36926*
G03X25161Y37005I78*
G01X24531*
G03X24452Y36926J79*
G01Y38991*
X24472*
Y37182*
G03X24531Y37123I59*
G01X25161*
G03X25220Y37182J59*
G01Y37655*
G03X25161Y37714I59*
G01X24531*
G03X24472Y37655J59*
G01Y38991*
X27475*
G03X27628Y39054J216*
G01X27676Y39103*
G02X27697Y39111I21J21*
X27718Y39103J29*
G01X27767Y39054*
G03X27920Y38991I153J153*
G01X28081*
G02X28102Y38982J30*
G01X28253Y38831*
G03X28385Y38769I153J153*
G02X28412Y38740I2J29*
G01Y38220*
G03X28421Y38160I217*
G02X28422Y38152I29J8*
G01Y37763*
G02X28392Y37733I30*
G01X28323*
G03X28244Y37655J78*
G01Y37182*
G03X28323Y37104I79*
G01X28953*
G03X29032Y37182J78*
G01Y37655*
G03X28953Y37733I79*
G01X28884*
G02X28855Y37763J30*
G01Y38210*
G03X28846Y38270I217*
G02X28845Y38278I29J8*
G01Y38883*
G02X28854Y38903I30*
G01X28932Y38982*
G02X28953Y38991I21J21*
G01X30115*
Y35726*
G03X30193Y35647I78*
G01X30823*
G03X30902Y35726J79*
G01Y35844*
G02X30931Y35873I29*
G01X32946*
Y31550*
G03X33024Y31471I78*
G01X33654*
G03X33733Y31550J79*
G01Y31668*
G02X33763Y31698I30*
G01X36709*
G02X36738Y31668J30*
G01Y31550*
G03X36758Y31498I79*
G01Y30822*
G03X36817Y30763I59*
G01X37447*
G03X37506Y30822J59*
G01Y31294*
G03X37447Y31353I59*
G01X36817*
G03X36758Y31294J59*
G01Y31498*
G03X36817Y31471I59J52*
G01X37447*
G03X37526Y31550J79*
G01Y32022*
G03X37447Y32101I79*
G01X36817*
G03X36738Y32022J79*
G01Y31904*
G02X36709Y31875I29*
G01X33763*
G02X33733Y31904J29*
G01Y32022*
G03X33654Y32101I79*
G01X33024*
G03X32946Y32022J79*
G01Y32278*
G03X33024Y32200I78*
G01X33654*
G03X33733Y32278J78*
G01Y32396*
G02X33763Y32426I30*
G01X36709*
G02X36738Y32396J30*
G01Y32278*
G03X36817Y32200I79*
G01X37447*
G03X37526Y32278J78*
G01Y32751*
G03X37447Y32830I79*
G01X36817*
G03X36738Y32751J79*
G01Y32633*
G02X36709Y32603I29*
G01X33763*
G02X33733Y32633J30*
G01Y32751*
G03X33654Y32830I79*
G01X33024*
G03X32946Y32751J79*
G01Y35873*
X33878*
G02X33907Y35844J29*
G01Y35726*
G03X33986Y35647I79*
G01X34616*
G03X34694Y35726J79*
G01Y36198*
G03X34616Y36277I78*
G01X33986*
G03X33907Y36198J79*
G01Y36080*
G02X33878Y36050I29*
G01X30931*
G02X30902Y36080J30*
G01Y36198*
G03X30823Y36277I79*
G01X30193*
G03X30115Y36198J79*
G01Y36454*
G03X30193Y36375I78*
G01X30823*
G03X30902Y36454J79*
G01Y36572*
G02X30931Y36602I29*
G01X33878*
G02X33907Y36572J30*
G01Y36454*
G03X33986Y36375I79*
G01X34616*
G03X34694Y36454J79*
G01Y36926*
G03X34616Y37005I78*
G01X33986*
G03X33907Y36926J79*
G01Y36808*
G02X33878Y36779I29*
G01X30931*
G02X30902Y36808J29*
G01Y36926*
G03X30823Y37005I79*
G01X30193*
G03X30115Y36926J79*
G01Y38991*
X30134*
Y37182*
G03X30193Y37123I59*
G01X30823*
G03X30882Y37182J59*
G01Y37655*
G03X30823Y37714I59*
G01X30193*
G03X30134Y37655J59*
G01Y38991*
X31720*
G03X31774Y38998J216*
G02X31782Y38999I8J29*
G01X31992*
G02X32000Y38998J30*
G03X32054Y38991I54J209*
G01X32823*
G03X32976Y39054J216*
G01X33319Y39396*
G02X33340Y39405I21J20*
X33361Y39396J29*
G01X34076Y38681*
G02X34085Y38660I21J21*
G01Y38134*
G02Y38132I30*
G03X34084Y38115I216J17*
G01Y37763*
G02X34055Y37733I29*
G01X33986*
G03X33907Y37655J78*
G01Y37182*
G03X33986Y37104I79*
G01X34616*
G03X34694Y37182J78*
G01Y37655*
G03X34616Y37733I78*
G01X34547*
G02X34517Y37763J30*
G01Y38096*
G02Y38098I30*
G03X34518Y38116I215J18*
G01Y38660*
G02X34527Y38681I30*
G01X34828Y38982*
G02X34849Y38991I21J21*
G01X35777*
Y35726*
G03X35856Y35647I79*
G01X36486*
G03X36565Y35726J79*
G01Y35844*
G02X36594Y35873I29*
G01X38608*
Y31550*
G03X38687Y31471I79*
G01X39317*
G03X39396Y31550J79*
G01Y31668*
G02X39425Y31698I29*
G01X42371*
G02X42401Y31668J30*
G01Y31550*
G03X42420Y31498I79*
G01Y30822*
G03X42480Y30763I60*
G01X43109*
G03X43169Y30822J59*
G01Y31294*
G03X43109Y31353I60*
G01X42480*
G03X42420Y31294J59*
G01Y31498*
G03X42480Y31471I60J52*
G01X43109*
G03X43188Y31550J79*
G01Y32022*
G03X43109Y32101I79*
G01X42480*
G03X42401Y32022J79*
G01Y31904*
G02X42371Y31875I30*
G01X39425*
G02X39396Y31904J29*
G01Y32022*
G03X39317Y32101I79*
G01X38687*
G03X38608Y32022J79*
G01Y32278*
G03X38687Y32200I79*
G01X39317*
G03X39396Y32278J78*
G01Y32396*
G02X39425Y32426I29*
G01X42371*
G02X42401Y32396J30*
G01Y32278*
G03X42480Y32200I79*
G01X43109*
G03X43188Y32278J78*
G01Y32751*
G03X43109Y32830I79*
G01X42480*
G03X42401Y32751J79*
G01Y32633*
G02X42371Y32603I30*
G01X39425*
G02X39396Y32633J30*
G01Y32751*
G03X39317Y32830I79*
G01X38687*
G03X38608Y32751J79*
G01Y35873*
X39540*
G02X39570Y35844J29*
G01Y35726*
G03X39648Y35647I78*
G01X40278*
G03X40357Y35726J79*
G01Y36198*
G03X40278Y36277I79*
G01X39648*
G03X39570Y36198J79*
G01Y36080*
G02X39540Y36050I30*
G01X36594*
G02X36565Y36080J30*
G01Y36198*
G03X36486Y36277I79*
G01X35856*
G03X35777Y36198J79*
G01Y36454*
G03X35856Y36375I79*
G01X36486*
G03X36565Y36454J79*
G01Y36572*
G02X36594Y36602I29*
G01X39540*
G02X39570Y36572J30*
G01Y36454*
G03X39648Y36375I78*
G01X40278*
G03X40357Y36454J79*
G01Y36926*
G03X40278Y37005I79*
G01X39648*
G03X39570Y36926J79*
G01Y36808*
G02X39540Y36779I30*
G01X36594*
G02X36565Y36808J29*
G01Y36926*
G03X36486Y37005I79*
G01X35856*
G03X35777Y36926J79*
G01Y38991*
X35797*
Y37182*
G03X35856Y37123I59*
G01X36486*
G03X36545Y37182J59*
G01Y37655*
G03X36486Y37714I59*
G01X35856*
G03X35797Y37655J59*
G01Y38991*
X38782*
G03X38936Y39054J216*
G01X38984Y39103*
G02X39005Y39111I21J21*
X39026Y39103J29*
G01X39075Y39054*
G03X39228Y38991I153J153*
G01X39421*
G02X39442Y38982J30*
G01X39743Y38681*
G02X39752Y38660I21J21*
G01Y38068*
G02X39751Y38062I30*
G03X39747Y38020I212J42*
G01Y37763*
G02X39717Y37733I30*
G01X39648*
G03X39570Y37655J78*
G01Y37182*
G03X39648Y37104I78*
G01X40278*
G03X40357Y37182J78*
G01Y37655*
G03X40278Y37733I79*
G01X40209*
G02X40180Y37763J30*
G01Y37976*
G02X40181Y37982I29*
G03X40185Y38024I213J42*
G01Y38660*
G02X40193Y38681I29*
G01X40495Y38982*
G02X40516Y38991I21J21*
G01X41440*
Y35726*
G03X41519Y35647I79*
G01X42148*
G03X42227Y35726J79*
G01Y35844*
G02X42257Y35873I30*
G01X44271*
Y31550*
G03X44350Y31471I79*
G01X44980*
G03X45058Y31550J79*
G01Y31668*
G02X45088Y31698I30*
G01X48034*
G02X48063Y31668J30*
G01Y31550*
G03X48083Y31498I79*
G01Y30822*
G03X48142Y30763I59*
G01X48772*
G03X48831Y30822J59*
G01Y31294*
G03X48772Y31353I59*
G01X48142*
G03X48083Y31294J59*
G01Y31498*
G03X48142Y31471I59J52*
G01X48772*
G03X48851Y31550J79*
G01Y32022*
G03X48772Y32101I79*
G01X48142*
G03X48063Y32022J79*
G01Y31904*
G02X48034Y31875I29*
G01X45088*
G02X45058Y31904J29*
G01Y32022*
G03X44980Y32101I78*
G01X44350*
G03X44271Y32022J79*
G01Y32278*
G03X44350Y32200I79*
G01X44980*
G03X45058Y32278J78*
G01Y32396*
G02X45088Y32426I30*
G01X48034*
G02X48063Y32396J30*
G01Y32278*
G03X48142Y32200I79*
G01X48772*
G03X48851Y32278J78*
G01Y32751*
G03X48772Y32830I79*
G01X48142*
G03X48063Y32751J79*
G01Y32633*
G02X48034Y32603I29*
G01X45088*
G02X45058Y32633J30*
G01Y32751*
G03X44980Y32830I78*
G01X44350*
G03X44271Y32751J79*
G01Y35873*
X45203*
G02X45232Y35844J29*
G01Y35726*
G03X45311Y35647I79*
G01X45941*
G03X46020Y35726J79*
G01Y36198*
G03X45941Y36277I79*
G01X45311*
G03X45232Y36198J79*
G01Y36080*
G02X45203Y36050I29*
G01X42257*
G02X42227Y36080J30*
G01Y36198*
G03X42148Y36277I79*
G01X41519*
G03X41440Y36198J79*
G01Y36454*
G03X41519Y36375I79*
G01X42148*
G03X42227Y36454J79*
G01Y36572*
G02X42257Y36602I30*
G01X45203*
G02X45232Y36572J30*
G01Y36454*
G03X45311Y36375I79*
G01X45941*
G03X46020Y36454J79*
G01Y36926*
G03X45941Y37005I79*
G01X45311*
G03X45232Y36926J79*
G01Y36808*
G02X45203Y36779I29*
G01X42257*
G02X42227Y36808J29*
G01Y36926*
G03X42148Y37005I79*
G01X41519*
G03X41440Y36926J79*
G01Y38991*
X41459*
Y37182*
G03X41519Y37123I60*
G01X42148*
G03X42207Y37182J59*
G01Y37655*
G03X42148Y37714I59*
G01X41519*
G03X41459Y37655J59*
G01Y38991*
X44740*
G02X44761Y38982J30*
G01X45401Y38342*
G02X45409Y38321I21J21*
G01Y37763*
G02X45380Y37733I29*
G01X45311*
G03X45232Y37655J78*
G01Y37182*
G03X45311Y37104I79*
G01X45941*
G03X46020Y37182J78*
G01Y37655*
G03X45941Y37733I79*
G01X45872*
G02X45843Y37763J30*
G01Y38423*
G03X45779Y38576I217*
G01X45067Y39288*
G02X45059Y39309I21J21*
G01Y39816*
G03X44995Y39969I217*
G01X44890Y40074*
G02X44881Y40095I21J21*
G01Y40521*
G02X44911Y40551I30*
G01X44980*
G03X45059Y40630J79*
G01Y41102*
G03X44980Y41181I79*
G01X44350*
G03X44271Y41102J79*
G01Y40630*
G03X44350Y40551I79*
G01X44419*
G02X44448Y40521J30*
G01Y39993*
G03X44512Y39840I217*
G01X44617Y39735*
G02X44626Y39714I21J21*
G01Y39453*
G02X44596Y39424I30*
G01X40414*
G03X40261Y39360J217*
G01X39989Y39089*
G02X39968Y39080I21J21*
X39947Y39089J30*
G01X39676Y39360*
G03X39523Y39424I153J153*
G01X39330*
G02X39309Y39432J29*
G01X39230Y39511*
G02X39222Y39532I21J21*
G01Y40081*
G03X39219Y40113I217*
G02Y40117I29J4*
G01Y40521*
G02X39248Y40551I29*
G01X39317*
G03X39396Y40630J79*
G01Y41102*
G03X39317Y41181I79*
G01X38687*
G03X38609Y41102J79*
G01Y40630*
G03X38687Y40551I78*
G01X38756*
G02X38786Y40521J30*
G01Y40083*
G03X38788Y40051I216*
G02X38789Y40047I29J4*
G01Y39532*
G02X38780Y39511I30*
G01X38701Y39432*
G02X38680Y39424I21J21*
G01X34747*
G03X34594Y39360J217*
G01X34322Y39089*
G02X34302Y39080I20J21*
X34281Y39089J30*
G01X33565Y39805*
G02X33556Y39825I21J20*
G01Y40521*
G02X33586Y40551I30*
G01X33655*
G03X33733Y40630J79*
G01Y41102*
G03X33655Y41181I78*
G01X33025*
G03X32946Y41102J79*
G01Y40630*
G03X33025Y40551I79*
G01X33094*
G02X33123Y40521J30*
G01Y39825*
G02X33115Y39805I29*
G01X32742Y39432*
G02X32721Y39424I21J21*
G01X32116*
G02X32109Y39425J29*
G03X32054Y39432I55J210*
G01X31720*
G03X31665Y39425J217*
G02X31658Y39424I7J28*
G01X28851*
G03X28698Y39360J217*
G01X28548Y39210*
G02X28527Y39201I21J21*
G01X28508*
G02X28487Y39210J30*
G01X28336Y39360*
G03X28183Y39424I153J153*
G01X28022*
G02X28001Y39432J29*
G01X27922Y39511*
G02X27914Y39532I21J21*
G01Y40159*
G03X27896Y40244I217*
G02X27894Y40256I27J12*
G01Y40521*
G02X27923Y40551I29*
G01X27992*
G03X28071Y40630J79*
G01Y41102*
G03X27992Y41181I79*
G01X27362*
G03X27283Y41102J79*
G01Y40630*
G03X27362Y40551I79*
G01X27431*
G02X27461Y40521J30*
G01Y40179*
G03X27478Y40093I216*
G02X27481Y40081I27J12*
G01Y39532*
G02X27472Y39511I30*
G01X27393Y39432*
G02X27373Y39424I20J21*
G01X24201*
G03X24048Y39360J217*
G01X22822Y38135*
G03X22759Y37982I154J153*
G01Y37763*
G02X22730Y37733I29*
G01X22661*
G03X22582Y37655J78*
G01Y38809*
X24947Y42898*
Y41595*
G03X25144Y41398I197*
X25312Y41492J197*
G02X25337Y41506I25J16*
G01X25344*
G02X25347J30*
G03X25355I8J88*
G01X25384*
G02X25413Y41476J30*
G01Y41358*
G03X25433Y41306I79*
G01Y40630*
G03X25492Y40570I59*
G01X26122*
G03X26181Y40630J60*
G01Y41102*
G03X26122Y41161I59*
G01X25492*
G03X25433Y41102J59*
G01Y41306*
G03X25492Y41279I59J52*
G01X26122*
G03X26201Y41358J79*
G01Y41830*
G03X26122Y41909I79*
G01X25492*
G03X25413Y41830J79*
G01Y41712*
G02X25384Y41683I29*
G01X25365*
G02X25362J29*
G03X25354I8J88*
G01X25337*
G02X25312Y41697J30*
G03X25144Y41791I168J102*
X24947Y41595J196*
G01Y42898*
X25413Y43705*
Y42086*
G03X25492Y42007I79*
G01X26122*
G03X26201Y42086J79*
G01Y42559*
G03X26122Y42637I79*
G01X25960*
G02X25931Y42667J30*
X25940Y42689I29*
G03X26004Y42834I133J145*
X25807Y43031I197*
X25610Y42834J197*
X25674Y42689I197*
G02X25684Y42667I20J22*
X25654Y42637I30*
G01X25492*
G03X25413Y42559J78*
G01Y43705*
X27283Y46938*
Y41358*
G03X27362Y41279I79*
G01X27992*
G03X28071Y41358J79*
G01Y41476*
G02X28100Y41506I29*
G01X31046*
G02X31076Y41476J30*
G01Y41358*
G03X31096Y41306I79*
G01Y40630*
G03X31155Y40570I59*
G01X31785*
G03X31844Y40630J60*
G01Y41102*
G03X31785Y41161I59*
G01X31155*
G03X31096Y41102J59*
G01Y41306*
G03X31155Y41279I59J52*
G01X31785*
G03X31863Y41358J79*
G01Y41830*
G03X31785Y41909I78*
G01X31155*
G03X31076Y41830J79*
G01Y41712*
G02X31046Y41683I30*
G01X28100*
G02X28071Y41712J29*
G01Y41830*
G03X27992Y41909I79*
G01X27362*
G03X27283Y41830J79*
G01Y42086*
G03X27362Y42007I79*
G01X27992*
G03X28071Y42086J79*
G01Y42204*
G02X28100Y42234I29*
G01X31046*
G02X31076Y42204J30*
G01Y42086*
G03X31155Y42007I79*
G01X31785*
G03X31863Y42086J79*
G01Y42559*
G03X31785Y42637I78*
G01X31155*
G03X31076Y42559J78*
G01Y42441*
G02X31046Y42411I30*
G01X28100*
G02X28071Y42441J30*
G01Y42559*
G03X27992Y42637I79*
G01X27362*
G03X27283Y42559J78*
G01Y46938*
X27828Y47879*
Y45767*
G03X28025Y45570I197*
X28190Y45660J197*
G02X28215Y45674I25J16*
X28244Y45644J30*
G01Y45534*
G03X28323Y45455I79*
G01X28953*
G03X29032Y45534J79*
G01Y46006*
G03X28953Y46085I79*
G01X28323*
G03X28244Y46006J79*
G01Y45890*
G02X28215Y45860I29*
X28190Y45874J30*
G03X28025Y45964I165J107*
X27828Y45767J197*
G01Y47879*
X27845Y47909*
Y46498*
G03X28042Y46302I197*
X28192Y46372J196*
G02X28215Y46382I23J19*
X28244Y46353J29*
G01Y46262*
G03X28323Y46183I79*
G01X28953*
G03X29032Y46262J79*
G01Y46735*
G03X28953Y46813I79*
G01X28323*
G03X28244Y46735J78*
G01Y46644*
G02X28215Y46615I29*
X28192Y46625J29*
G03X28042Y46695I150J127*
X27845Y46498J197*
G01Y47909*
X28244Y48600*
Y46991*
G03X28323Y46912I79*
G01X28953*
G03X29032Y46991J79*
G01Y47463*
G03X28953Y47542I79*
G01X28884*
G02X28855Y47571J29*
G01Y47578*
G02X28863Y47598I29*
G01X29545Y48281*
G02X29566Y48289I21J21*
G01X30115*
Y45534*
G03X30193Y45455I78*
G01X30823*
G03X30902Y45534J79*
G01Y45652*
G02X30931Y45681I29*
G01X32946*
Y41358*
G03X33025Y41279I79*
G01X33655*
G03X33733Y41358J79*
G01Y41476*
G02X33763Y41506I30*
G01X36709*
G02X36739Y41476J30*
G01Y41358*
G03X36758Y41306I78*
G01Y40630*
G03X36817Y40570I59*
G01X37447*
G03X37506Y40630J60*
G01Y41102*
G03X37447Y41161I59*
G01X36817*
G03X36758Y41102J59*
G01Y41306*
G03X36817Y41279I59J52*
G01X37447*
G03X37526Y41358J79*
G01Y41830*
G03X37447Y41909I79*
G01X36817*
G03X36739Y41830J79*
G01Y41712*
G02X36709Y41683I30*
G01X33763*
G02X33733Y41712J29*
G01Y41830*
G03X33655Y41909I78*
G01X33025*
G03X32946Y41830J79*
G01Y42086*
G03X33025Y42007I79*
G01X33655*
G03X33733Y42086J79*
G01Y42204*
G02X33763Y42234I30*
G01X36709*
G02X36739Y42204J30*
G01Y42086*
G03X36817Y42007I78*
G01X37447*
G03X37526Y42086J79*
G01Y42559*
G03X37447Y42637I79*
G01X36817*
G03X36739Y42559J78*
G01Y42441*
G02X36709Y42411I30*
G01X35346*
G02X35317Y42441J30*
X35323Y42459I29*
G03X35433Y42770I386J311*
X34937Y43265I496*
X34442Y42770J495*
X34552Y42459I495*
G02X34558Y42441I23J18*
X34529Y42411I29*
G01X33763*
G02X33733Y42441J30*
G01Y42559*
G03X33655Y42637I78*
G01X33025*
G03X32946Y42559J78*
G01Y45681*
X33878*
G02X33907Y45652J29*
G01Y45534*
G03X33986Y45455I79*
G01X34616*
G03X34694Y45534J79*
G01Y46006*
G03X34616Y46085I78*
G01X33986*
G03X33907Y46006J79*
G01Y45888*
G02X33878Y45859I29*
G01X30931*
G02X30902Y45888J29*
G01Y46006*
G03X30823Y46085I79*
G01X30193*
G03X30115Y46006J79*
G01Y46262*
G03X30193Y46183I78*
G01X30823*
G03X30902Y46262J79*
G01Y46380*
G02X30931Y46410I29*
G01X33878*
G02X33907Y46380J30*
G01Y46262*
G03X33986Y46183I79*
G01X34616*
G03X34694Y46262J79*
G01Y46735*
G03X34616Y46813I78*
G01X33986*
G03X33907Y46735J78*
G01Y46617*
G02X33878Y46587I29*
G01X30931*
G02X30902Y46617J30*
G01Y46735*
G03X30823Y46813I79*
G01X30193*
G03X30115Y46735J78*
G01Y48289*
X30134*
Y46991*
G03X30193Y46931I59*
G01X30823*
G03X30882Y46991J60*
G01Y47463*
G03X30823Y47522I59*
G01X30193*
G03X30134Y47463J59*
G01Y48289*
X32380*
X32382*
G03X32394I12J216*
G01X32729*
G03X32898Y48370J216*
G02X32900Y48372I23J19*
G01X33235Y48708*
G02X33256Y48716I21J21*
X33277Y48708J29*
G01X34076Y47909*
G02X34084Y47888I21J21*
G01Y47571*
G02X34055Y47542I29*
G01X33986*
G03X33907Y47463J79*
G01Y46991*
G03X33986Y46912I79*
G01X34616*
G03X34694Y46991J79*
G01Y47463*
G03X34616Y47542I78*
G01X34547*
G02X34517Y47571J29*
G01Y47888*
G02X34526Y47909I30*
G01X34897Y48281*
G02X34918Y48289I21J21*
G01X35777*
Y45534*
G03X35856Y45455I79*
G01X36486*
G03X36565Y45534J79*
G01Y45652*
G02X36594Y45681I29*
G01X38609*
Y41358*
G03X38687Y41279I78*
G01X39317*
G03X39396Y41358J79*
G01Y41476*
G02X39426Y41506I30*
G01X42372*
G02X42401Y41476J30*
G01Y41358*
G03X42421Y41306I79*
G01Y40630*
G03X42480Y40570I59*
G01X43110*
G03X43169Y40630J60*
G01Y41102*
G03X43110Y41161I59*
G01X42480*
G03X42421Y41102J59*
G01Y41306*
G03X42480Y41279I59J52*
G01X43110*
G03X43189Y41358J79*
G01Y41830*
G03X43110Y41909I79*
G01X42480*
G03X42401Y41830J79*
G01Y41712*
G02X42372Y41683I29*
G01X39426*
G02X39396Y41712J29*
G01Y41830*
G03X39317Y41909I79*
G01X38687*
G03X38609Y41830J79*
G01Y42086*
G03X38687Y42007I78*
G01X39317*
G03X39396Y42086J79*
G01Y42204*
G02X39426Y42234I30*
G01X42372*
G02X42401Y42204J30*
G01Y42086*
G03X42480Y42007I79*
G01X43110*
G03X43189Y42086J79*
G01Y42559*
G03X43110Y42637I79*
G01X42480*
G03X42401Y42559J78*
G01Y42441*
G02X42372Y42411I29*
G01X39426*
G02X39396Y42441J30*
G01Y42559*
G03X39317Y42637I79*
G01X38687*
G03X38609Y42559J78*
G01Y45681*
X39540*
G02X39570Y45652J29*
G01Y45534*
G03X39648Y45455I78*
G01X39675*
Y43957*
G03X39950Y43682I275*
X40226Y43957J275*
X39950Y44233I276*
X39675Y43957J276*
G01Y45455*
X40278*
G03X40357Y45534J79*
G01Y46006*
G03X40278Y46085I79*
G01X39648*
G03X39570Y46006J79*
G01Y45888*
G02X39540Y45859I30*
G01X36594*
G02X36565Y45888J29*
G01Y46006*
G03X36486Y46085I79*
G01X35856*
G03X35777Y46006J79*
G01Y46262*
G03X35856Y46183I79*
G01X36486*
G03X36565Y46262J79*
G01Y46380*
G02X36594Y46410I29*
G01X39540*
G02X39570Y46380J30*
G01Y46262*
G03X39648Y46183I78*
G01X40278*
G03X40357Y46262J79*
G01Y46735*
G03X40278Y46813I79*
G01X39648*
G03X39570Y46735J78*
G01Y46617*
G02X39540Y46587I30*
G01X36594*
G02X36565Y46617J30*
G01Y46735*
G03X36486Y46813I79*
G01X35856*
G03X35777Y46735J78*
G01Y48289*
X35797*
Y46991*
G03X35856Y46931I59*
G01X36486*
G03X36545Y46991J60*
G01Y47463*
G03X36486Y47522I59*
G01X35856*
G03X35797Y47463J59*
G01Y48289*
X38557*
G03X38710Y48353J217*
G01X38981Y48624*
G02X39002Y48633I21J21*
X39023Y48624J30*
G01X39295Y48353*
G03X39343Y48316I153J153*
G02X39350Y48311I14J26*
G01X39738Y47923*
G02X39747Y47902I21J21*
G01Y47571*
G02X39717Y47542I30*
G01X39648*
G03X39570Y47463J79*
G01Y46991*
G03X39648Y46912I78*
G01X40278*
G03X40357Y46991J79*
G01Y47463*
G03X40278Y47542I79*
G01X40209*
G02X40180Y47571J29*
G01Y48004*
G03X40116Y48157I217*
G01X39615Y48659*
G03X39566Y48695I154J153*
G02X39559Y48700I14J26*
G01X39228Y49032*
G02X39219Y49053I20J21*
G01Y50330*
G02X39248Y50359I29*
G01X39317*
G03X39396Y50438J79*
G01Y50910*
G03X39317Y50989I79*
G01X38687*
G03X38609Y50910J79*
G01Y50438*
G03X38687Y50359I78*
G01X38756*
G02X38786Y50330J29*
G01Y49053*
G02X38777Y49032I30*
G01X38476Y48731*
G02X38455Y48722I21J21*
G01X34816*
G03X34663Y48659J216*
G01X34322Y48317*
G02X34301Y48309I21J21*
X34280Y48317J29*
G01X33565Y49032*
G02X33556Y49053I21J21*
G01Y50330*
G02X33586Y50359I30*
G01X33655*
G03X33728Y50409J79*
G02X33756Y50428I28J11*
X33785Y50398J30*
G01Y49675*
G03X33811Y49613I89*
G01X34355Y49069*
G03X34418Y49043I63J62*
G01X36137*
G03X36199Y49069J88*
G01X36629Y49499*
G03X36655Y49561I63J62*
G01Y51270*
G02X36664Y51291I30*
G01X36678Y51305*
G02X36699Y51314I21J21*
G01X36709*
G02X36739Y51284J30*
G01Y51166*
G03X36758Y51114I78*
G01Y50438*
G03X36817Y50379I59*
G01X37447*
G03X37506Y50438J59*
G01Y50910*
G03X37447Y50969I59*
G01X36817*
G03X36758Y50910J59*
G01Y51114*
G03X36817Y51087I59J52*
G01X37447*
G03X37526Y51166J79*
G01Y51639*
G03X37447Y51717I79*
G01X36817*
G03X36739Y51639J78*
G01Y51520*
G02X36709Y51491I30*
G01X36650*
G03X36587Y51465J89*
G01X36504Y51381*
G03X36478Y51319I62J62*
G01Y49610*
G02X36469Y49589I30*
G01X36109Y49229*
G02X36088Y49220I21J20*
G01X34467*
G02X34446Y49229J29*
G01X33971Y49704*
G02X33962Y49724I21J20*
G01Y51272*
G03X33936Y51335I88*
G01X33806Y51465*
G03X33758Y51490I63J63*
G02X33733Y51519I5J29*
G01Y51639*
G03X33655Y51717I78*
G01X33025*
G03X32946Y51639J78*
G01Y51166*
G03X33025Y51087I79*
G01X33655*
G03X33728Y51137J79*
G02X33756Y51156I28J10*
X33785Y51127J29*
G01Y50950*
G02X33756Y50920I29*
X33728Y50939J30*
G03X33655Y50989I73J29*
G01X33025*
G03X32946Y50910J79*
G01Y50438*
G03X33025Y50359I79*
G01X33094*
G02X33123Y50330J29*
G01Y49184*
G02X33103Y49156I29*
G03X33019Y49104I69J205*
G01X32646Y48730*
G02X32625Y48722I21J21*
G01X32408*
X32406*
G03X32394I12J216*
G01X29464*
G03X29311Y48659J216*
G01X28485Y47833*
G03X28422Y47680I153J153*
G01Y47571*
G02X28392Y47542I30*
G01X28323*
G03X28244Y47463J79*
G01Y48600*
X30529Y52549*
Y51404*
G03X30726Y51207I197*
X30894Y51301J197*
G02X30919Y51315I25J16*
G01X30983*
G02X30987J30*
G03X31000Y51314I13J87*
G01X31046*
G02X31076Y51284J30*
G01Y51166*
G03X31096Y51114I79*
G01Y50438*
G03X31155Y50379I59*
G01X31785*
G03X31844Y50438J59*
G01Y50910*
G03X31785Y50969I59*
G01X31155*
G03X31096Y50910J59*
G01Y51114*
G03X31155Y51087I59J52*
G01X31785*
G03X31863Y51166J79*
G01Y51639*
G03X31785Y51717I78*
G01X31155*
G03X31076Y51639J78*
G01Y51520*
G02X31046Y51491I30*
G01X31015*
G02X31011J29*
G03X30999Y51492I12J87*
G01X30919*
G02X30894Y51506J30*
G03X30726Y51600I168J102*
X30529Y51404J196*
G01Y52549*
X31076Y53495*
Y51894*
G03X31155Y51816I79*
G01X31785*
G03X31863Y51894J78*
G01Y52367*
G03X31785Y52446I78*
G01X31588*
G02X31558Y52475J29*
G01Y52484*
G02X31572Y52509I30*
G03X31667Y52677I102J168*
X31470Y52874I197*
X31273Y52677J197*
X31367Y52509I197*
G02X31381Y52484I15J25*
G01Y52475*
G02X31352Y52446I29*
G01X31155*
G03X31076Y52367J79*
G01Y53495*
X32733Y56360*
Y54250*
G03X32946Y54034I216*
G01Y51894*
G03X33025Y51816I79*
G01X33655*
G03X33733Y51894J78*
G01Y52367*
G03X33655Y52446I78*
G01X33458*
G02X33428Y52475J29*
G01Y52877*
G02X33437Y52898I30*
G01X33743Y53204*
G02X33764Y53213I21J21*
G01X34396*
Y51583*
G03X35236Y50743I840*
X36076Y51583J840*
X35236Y52422I840*
X34396Y51583J839*
G01Y53213*
X36504*
G02X36525Y53204J30*
G01X37035Y52694*
G02X37044Y52673I21J21*
G01Y52475*
G02X37014Y52446I30*
G01X36817*
G03X36739Y52367J79*
G01Y51894*
G03X36817Y51816I78*
G01X37447*
G03X37526Y51894J78*
G01Y52367*
G03X37447Y52446I79*
G01X37250*
G02X37221Y52475J29*
G01Y52722*
G03X37195Y52785I89*
G01X36616Y53364*
G03X36553Y53390I63J63*
G01X33715*
G03X33653Y53364J89*
G01X33277Y52988*
G03X33251Y52926I63J62*
G01Y52475*
G02X33222Y52446I29*
G01X33025*
G03X32946Y52367J79*
G01Y54034*
G03X32949I3J216*
X33102Y54097J216*
G01X33370Y54365*
G03X33433Y54518I153J153*
G01Y56387*
G02X33442Y56408I30*
G01X33552Y56518*
Y56312*
G03X33749Y56115I197*
X33861Y56150J197*
G02X33878Y56155I17J24*
X33907Y56126J29*
G01Y55342*
G03X33986Y55263I79*
G01X34183*
G02X34213Y55233J30*
G01Y55008*
G02X34212Y55005I30*
G03Y54994I88J11*
G01Y54898*
G02X34198Y54873I30*
G03X34103Y54705I102J168*
X34300Y54508I197*
X34497Y54705J197*
X34403Y54873I197*
G02X34389Y54898I15J25*
G01Y54981*
G02Y54984I29*
G03X34390Y54995I88J11*
G01Y55233*
G02X34419Y55263I29*
G01X34616*
G03X34695Y55342J79*
G01Y55814*
G03X34616Y55893I79*
G01X33986*
G03X33907Y55814J79*
G01Y56070*
G03X33986Y55991I79*
G01X34616*
G03X34695Y56070J79*
G01Y56543*
G03X34616Y56621I79*
G01X33986*
G03X33907Y56543J78*
G01Y56497*
G02X33878Y56468I29*
X33861Y56473J29*
G03X33749Y56509I112J161*
X33552Y56312J197*
G01Y56518*
X33844Y56809*
G02X33864Y56818I20J20*
G01X33878*
G02X33908Y56791J29*
G03X33986Y56720I78J7*
G01X34616*
G03X34695Y56798J78*
G01Y57271*
G03X34616Y57350I79*
G01X33986*
G03X33908Y57278J79*
G02X33878Y57251I30J3*
G01X33763*
G03X33609Y57188J216*
G01X33064Y56642*
G03X33000Y56489I153J153*
G01Y54620*
G02X32992Y54599I29*
G01X32796Y54403*
G03X32733Y54250I153J153*
G01Y56360*
X35211Y60644*
G02X35236Y60659I25J15*
X35262Y60644J30*
G01X35488Y60253*
Y55038*
G03X35514Y54976I88*
G01X38226Y52263*
G02X38235Y52242I21J21*
G01Y51618*
G03X38261Y51555I88*
G01X38476Y51340*
G03X38539Y51314I63J62*
G01X38579*
G02X38609Y51284J30*
G01Y51166*
G03X38687Y51087I78*
G01X39317*
G03X39396Y51166J79*
G01Y51639*
G03X39317Y51717I79*
G01X38687*
G03X38609Y51639J78*
G01Y51529*
G02X38579Y51499I30*
X38558Y51508J30*
G01X38421Y51646*
G02X38412Y51666I21J20*
G01Y52291*
G03X38386Y52354I89*
G01X35674Y55066*
G02X35665Y55087I20J21*
G01Y56168*
G02X35674Y56189I29*
G01X35694Y56209*
G02X35715Y56218I21J21*
G01X35748*
G02X35778Y56188J30*
G01Y55342*
G03X35856Y55263I78*
G01X36486*
G03X36565Y55342J79*
G01Y55460*
G02X36594Y55489I29*
G01X36678*
G02X36699Y55481J29*
G01X36946Y55234*
G02X36954Y55213I21J21*
G01Y54669*
G03X36980Y54606I89*
G01X38905Y52681*
G02X38914Y52660I21J21*
G01Y52475*
G02X38884Y52446I30*
G01X38687*
G03X38609Y52367J79*
G01Y51894*
G03X38687Y51816I78*
G01X39317*
G03X39396Y51894J78*
G01Y52367*
G03X39317Y52446I79*
G01X39120*
G02X39091Y52475J29*
G01Y52709*
G03X39065Y52772I89*
G01X37140Y54697*
G02X37132Y54718I21J21*
G01Y55262*
G03X37106Y55325I89*
G01X36790Y55641*
G03X36727Y55667I63J63*
G01X36594*
G02X36565Y55696J29*
G01Y55814*
G03X36486Y55893I79*
G01X35856*
G03X35778Y55814J79*
G01Y56070*
G03X35856Y55991I78*
G01X36486*
G03X36565Y56070J79*
G01Y56543*
G03X36486Y56621I79*
G01X35856*
G03X35778Y56543J78*
G01Y56424*
G02X35748Y56395I30*
G01X35666*
G03X35603Y56369J89*
G01X35514Y56280*
G03X35488Y56217I62J63*
G01Y60253*
X35797Y59718*
Y56798*
G03X35856Y56739I59*
G01X36486*
G03X36545Y56798J59*
G01Y57271*
G03X36486Y57330I59*
G01X35856*
G03X35797Y57271J59*
G01Y59718*
X40956Y50799*
Y45239*
G03X40982Y45176I88*
G01X43656Y42502*
G02X43665Y42481I21J21*
G01Y41920*
G03X43691Y41857I88*
G01X44017Y41531*
G03X44079Y41506I62J63*
G01X44242*
G02X44271Y41476J30*
G01Y41358*
G03X44350Y41279I79*
G01X44980*
G03X45059Y41358J79*
G01Y41830*
G03X44980Y41909I79*
G01X44350*
G03X44271Y41830J79*
G01Y41712*
G02X44242Y41683I29*
G01X44128*
G02X44107Y41691J29*
G01X43851Y41948*
G02X43842Y41969I20J21*
G01Y42530*
G03X43816Y42593I89*
G01X41142Y45267*
G02X41133Y45288I21J21*
G01Y46241*
G02X41142Y46262I30*
G01X41281Y46401*
G02X41302Y46410I21J21*
G01X41410*
G02X41440Y46380J30*
G01Y45534*
G03X41519Y45455I79*
G01X42148*
G03X42227Y45534J79*
G01Y45652*
G02X42257Y45681I30*
G01X42312*
G02X42333Y45673J29*
G01X42686Y45320*
G02X42695Y45299I21J21*
G01Y44125*
G03X42721Y44062I89*
G01X44263Y42521*
G02X44271Y42500I21J21*
G01Y42086*
G03X44350Y42007I79*
G01X44980*
G03X45059Y42086J79*
G01Y42559*
G03X44980Y42637I79*
G01X44409*
G02X44388Y42646J30*
G01X42881Y44153*
G02X42872Y44174I21J21*
G01Y45348*
G03X42846Y45410I88*
G01X42424Y45833*
G03X42361Y45859I63J63*
G01X42257*
G02X42227Y45888J29*
G01Y46006*
G03X42148Y46085I79*
G01X41519*
G03X41440Y46006J79*
G01Y46262*
G03X41519Y46183I79*
G01X42148*
G03X42227Y46262J79*
G01Y46735*
G03X42148Y46813I79*
G01X41519*
G03X41440Y46735J78*
G01Y46617*
G02X41410Y46587I30*
G01X41253*
G03X41190Y46561J89*
G01X40982Y46352*
G03X40956Y46290I62J62*
G01Y50799*
X41459Y49928*
Y46991*
G03X41519Y46931I60*
G01X42148*
G03X42207Y46991J60*
G01Y47463*
G03X42148Y47522I59*
G01X41519*
G03X41459Y47463J59*
G01Y49928*
X46677Y40907*
Y35584*
G03X46703Y35521I89*
G01X49410Y32814*
G02X49419Y32793I21J21*
G01Y32069*
G03X49445Y32006I88*
G01X49727Y31724*
G03X49790Y31698I63J62*
G01X49904*
G02X49933Y31668J30*
G01Y31550*
G03X50012Y31471I79*
G01X50642*
G03X50721Y31550J79*
G01Y32022*
G03X50642Y32101I79*
G01X50012*
G03X49933Y32022J79*
G01Y31904*
G02X49904Y31875I29*
G01X49839*
G02X49818Y31883J29*
G01X49604Y32097*
G02X49596Y32118I21J21*
G01Y32842*
G03X49570Y32905I89*
G01X46863Y35612*
G02X46854Y35633I21J21*
G01Y36449*
G02X46863Y36469I30*
G01X46987Y36593*
G02X47007Y36602I20J21*
G01X47073*
G02X47102Y36572J30*
G01Y35726*
G03X47181Y35647I79*
G01X47811*
G03X47890Y35726J79*
G01Y35844*
G02X47919Y35873I29*
G01X48075*
G02X48096Y35865J29*
G01X50230Y33731*
G02X50239Y33710I21J21*
G01Y32859*
G02X50209Y32830I30*
G01X50012*
G03X49933Y32751J79*
G01Y32278*
G03X50012Y32200I79*
G01X50642*
G03X50721Y32278J78*
G01Y32751*
G03X50642Y32830I79*
G01X50445*
G02X50416Y32859J29*
G01Y33759*
G03X50390Y33821I89*
G01X48187Y36024*
G03X48124Y36050I63J62*
G01X47919*
G02X47890Y36080J30*
G01Y36198*
G03X47811Y36277I79*
G01X47181*
G03X47102Y36198J79*
G01Y36454*
G03X47181Y36375I79*
G01X47811*
G03X47890Y36454J79*
G01Y36926*
G03X47811Y37005I79*
G01X47181*
G03X47102Y36926J79*
G01Y36808*
G02X47073Y36779I29*
G01X46959*
G03X46896Y36753J89*
G01X46703Y36560*
G03X46677Y36497I63J63*
G01Y40907*
X47122Y40138*
Y37182*
G03X47181Y37123I59*
G01X47811*
G03X47870Y37182J59*
G01Y37655*
G03X47811Y37714I59*
G01X47181*
G03X47122Y37655J59*
G01Y40138*
X52241Y31287*
Y25946*
G03X52267Y25884I88*
G01X54868Y23283*
G02X54876Y23262I21J21*
G01Y22472*
G03X54902Y22410I89*
G01X55396Y21915*
G03X55459Y21889I63J63*
G01X55567*
G02X55596Y21860J29*
G01Y21742*
G03X55675Y21663I79*
G01X56305*
G03X56383Y21742J79*
G01Y22214*
G03X56305Y22293I78*
G01X55675*
G03X55596Y22214J79*
G01Y22096*
G02X55567Y22067I29*
G01X55508*
G02X55487Y22075J29*
G01X55062Y22500*
G02X55053Y22521I21J21*
G01Y23311*
G03X55028Y23374I88*
G01X52427Y25975*
G02X52418Y25995I21J20*
G01Y26635*
G02X52427Y26656I30*
G01X52556Y26785*
G02X52577Y26794I21J21*
G01X52735*
G02X52765Y26764J30*
G01Y25918*
G03X52844Y25839I79*
G01X53474*
G03X53552Y25918J79*
G01Y26036*
G02X53582Y26065I30*
G01X53853*
G02X53874Y26057J29*
G01X54633Y25297*
G02X54641Y25277I21J20*
G01Y24466*
G03X54667Y24403I89*
G01X55893Y23178*
G02X55901Y23157I21J21*
G01Y23051*
G02X55872Y23021I29*
G01X55675*
G03X55596Y22943J78*
G01Y22470*
G03X55675Y22391I79*
G01X56305*
G03X56383Y22470J79*
G01Y22943*
G03X56305Y23021I78*
G01X56108*
G02X56078Y23051J30*
G01Y23206*
G03X56052Y23269I88*
G01X54827Y24494*
G02X54819Y24515I21J21*
G01Y25326*
G03X54793Y25388I89*
G01X53964Y26217*
G03X53902Y26243I62J63*
G01X53582*
G02X53552Y26272J29*
G01Y26390*
G03X53474Y26469I78*
G01X52844*
G03X52765Y26390J79*
G01Y26646*
G03X52844Y26567I79*
G01X53474*
G03X53552Y26646J79*
G01Y27119*
G03X53474Y27197I78*
G01X52844*
G03X52765Y27119J78*
G01Y27000*
G02X52735Y26971I30*
G01X52528*
G03X52465Y26945J89*
G01X52267Y26746*
G03X52241Y26684I62J62*
G01Y31287*
X52785Y30347*
Y27374*
G03X52844Y27315I59*
G01X53474*
G03X53533Y27374J59*
G01Y27847*
G03X53474Y27906I59*
G01X52844*
G03X52785Y27847J59*
G01Y30347*
X57886Y21527*
Y15856*
G03X57912Y15793I89*
G01X60661Y13044*
G02X60670Y13023I21J21*
G01Y12528*
G03X60696Y12466I89*
G01X61054Y12107*
G03X61117Y12081I63J63*
G01X61229*
G02X61259Y12052J29*
G01Y11934*
G03X61337Y11855I78*
G01X61967*
G03X62046Y11934J79*
G01Y12406*
G03X61967Y12485I79*
G01X61337*
G03X61259Y12406J79*
G01Y12288*
G02X61229Y12259I30*
G01X61166*
G02X61145Y12267J29*
G01X60856Y12557*
G02X60847Y12577I21J20*
G01Y13072*
G03X60821Y13134I88*
G01X58072Y15884*
G02X58063Y15905I21J21*
G01Y16839*
G02X58072Y16860I30*
G01X58190Y16977*
G02X58211Y16986I21J20*
G01X58398*
G02X58428Y16957J29*
G01Y16109*
G03X58506Y16031I78*
G01X59136*
G03X59215Y16109J78*
G01Y16228*
G02X59244Y16257I29*
G01X59293*
G02X59314Y16248J29*
G01X59460Y16102*
G02X59468Y16082I21J20*
G01Y15636*
G03X59494Y15574I89*
G01X61555Y13513*
G02X61564Y13492I21J21*
G01Y13243*
G02X61534Y13213I30*
G01X61337*
G03X61259Y13135J78*
G01Y12662*
G03X61337Y12583I78*
G01X61967*
G03X62046Y12662J79*
G01Y13135*
G03X61967Y13213I79*
G01X61770*
G02X61741Y13243J30*
G01Y13541*
G03X61715Y13604I89*
G01X59654Y15665*
G02X59646Y15685I21J20*
G01Y16131*
G03X59620Y16193I89*
G01X59405Y16408*
G03X59342Y16434I63J62*
G01X59244*
G02X59215Y16464J30*
G01Y16582*
G03X59136Y16661I79*
G01X58506*
G03X58428Y16582J79*
G01Y16838*
G03X58506Y16759I78*
G01X59136*
G03X59215Y16838J79*
G01Y17310*
G03X59136Y17389I79*
G01X58506*
G03X58428Y17310J79*
G01Y17193*
G02X58398Y17163I30*
G01X58162*
G03X58099Y17137J88*
G01X57912Y16950*
G03X57886Y16888I63J62*
G01Y21527*
X58447Y20556*
Y17566*
G03X58506Y17507I59*
G01X59136*
G03X59195Y17566J59*
G01Y18039*
G03X59136Y18098I59*
G01X58506*
G03X58447Y18039J59*
G01Y20556*
X63576Y11688*
Y6323*
G03X63602Y6261I89*
G01X66144Y3719*
G02X66152Y3698I21J21*
G01Y2606*
G03X66178Y2543I89*
G01X66422Y2300*
G03X66485Y2274I63J62*
G01X66892*
G02X66921Y2244J30*
G01Y2126*
G03X67000Y2047I79*
G01X67630*
G03X67709Y2126J79*
G01Y2598*
G03X67630Y2677I79*
G01X67000*
G03X66921Y2598J79*
G01Y2480*
G02X66892Y2451I29*
G01X66534*
G02X66513Y2459J29*
G01X66338Y2634*
G02X66329Y2655I21J21*
G01Y3747*
G03X66303Y3810I88*
G01X63762Y6351*
G02X63753Y6372I21J21*
G01Y7054*
G02X63762Y7075I30*
G01X63856Y7169*
G02X63877Y7178I21J21*
G01X64060*
G02X64090Y7148J30*
G01Y6302*
G03X64169Y6223I79*
G01X64798*
G03X64877Y6302J79*
G01Y6420*
G02X64907Y6449I30*
G01X65023*
G02X65044Y6441J29*
G01X65327Y6158*
G02X65336Y6137I21J21*
G01Y5553*
G03X65362Y5490I88*
G01X67218Y3634*
G02X67226Y3613I21J21*
G01Y3435*
G02X67197Y3406I29*
G01X67000*
G03X66921Y3327J79*
G01Y2854*
G03X67000Y2776I79*
G01X67630*
G03X67709Y2854J78*
G01Y3327*
G03X67630Y3406I79*
G01X67433*
G02X67404Y3435J29*
G01Y3662*
G03X67378Y3725I89*
G01X65521Y5581*
G02X65513Y5602I21J21*
G01Y6186*
G03X65487Y6248I89*
G01X65135Y6600*
G03X65072Y6626I63J62*
G01X64907*
G02X64877Y6656J30*
G01Y6774*
G03X64798Y6853I79*
G01X64169*
G03X64090Y6774J79*
G01Y7030*
G03X64169Y6951I79*
G01X64798*
G03X64877Y7030J79*
G01Y7502*
G03X64798Y7581I79*
G01X64169*
G03X64090Y7502J79*
G01Y7384*
G02X64060Y7355I30*
G01X63828*
G03X63765Y7329J89*
G01X63602Y7165*
G03X63576Y7103I63J62*
G01Y11688*
X64109Y10766*
Y7758*
G03X64169Y7699I60*
G01X64798*
G03X64857Y7758J59*
G01Y8231*
G03X64798Y8290I59*
G01X64169*
G03X64109Y8231J59*
G01Y10766*
X70242Y162*
G02X70246Y148I25J14*
X70217Y118I29*
G01X256*
G02X226Y148J30*
X230Y162I30*
G37*
G54D10*
G01X0Y0D02*
X70472D01*
X35236Y61031*
X0Y0*
G54D11*
X13944Y4734D03*
X27002Y34402D03*
X39950Y43957D03*
X58360Y4733D03*
G54D12*
X2438Y2362D02*
X3156D01*
X2871Y1634D02*
X2753D01*
X3156Y1427D02*
Y1309D01*
Y1841D02*
Y1959D01*
Y3659D02*
Y3091D01*
X3442Y1634D02*
X3560D01*
X5026D02*
X5184D01*
X5026Y2362D02*
X8819D01*
X5026Y3091D02*
X8819D01*
X5370Y6538D02*
X5580D01*
X5581*
X5987*
Y7266D02*
X5417D01*
X7572Y7994D02*
X7454D01*
X7857Y7788D02*
Y7670D01*
Y8201D02*
Y8319D01*
X8143Y7994D02*
X8261D01*
X8203Y12172D02*
X8411D01*
X8413Y12170*
X8819*
X8533Y1634D02*
X8415D01*
X8533Y11442D02*
X8415D01*
X8819Y1427D02*
Y1309D01*
Y1841D02*
Y1959D01*
Y11235D02*
Y11117D01*
Y11648D02*
Y11767D01*
Y12898D02*
Y13420D01*
X9104Y1634D02*
X9222D01*
X9104Y11442D02*
X9222D01*
X10689Y2362D02*
X14481D01*
X10689Y3091D02*
X14481D01*
X10689Y12170D02*
X14481D01*
X10689Y12898D02*
X14481D01*
X11650Y6538D02*
X7857D01*
X11650Y7266D02*
X7857D01*
X11650Y16346D02*
X11235D01*
X11233Y16348*
X11015*
X11650Y17074D02*
X11035D01*
X13235Y7994D02*
X13117D01*
X13235Y17802D02*
X13117D01*
X13520Y7788D02*
Y7670D01*
Y8201D02*
Y8319D01*
Y17074D02*
X17313D01*
X13520Y17596D02*
Y17478D01*
Y18009D02*
Y18127D01*
X13806Y7994D02*
X13924D01*
X13806Y17802D02*
X13924D01*
X13953Y21979D02*
X13954Y21978D01*
X14481*
X14196Y1634D02*
X14078D01*
X14196Y11442D02*
X14078D01*
X14196Y21250D02*
X14078D01*
X14481Y1427D02*
Y1309D01*
Y1841D02*
Y1959D01*
Y11235D02*
Y11117D01*
Y11648D02*
Y11767D01*
Y21043D02*
Y20925D01*
Y21456D02*
Y21574D01*
Y22706D02*
Y23197D01*
X14767Y1634D02*
X14885D01*
X14767Y11442D02*
X14885D01*
X14767Y21250D02*
X14885D01*
X16352Y2362D02*
X20144D01*
X16352Y3091D02*
X20144D01*
X16352Y12170D02*
X20144D01*
X16352Y12898D02*
X20144D01*
X16352Y21978D02*
X20144D01*
X16352Y22706D02*
X20144D01*
X16663Y26884D02*
X16889D01*
X16890Y26882*
X17313*
X16748Y26154D02*
X17313D01*
Y6538D02*
X13520D01*
X17313Y7266D02*
X13520D01*
X17313Y16346D02*
X13520D01*
X18897Y7994D02*
X18779D01*
X18898Y17802D02*
X18780D01*
X18898Y27611D02*
X18780D01*
X19183Y7788D02*
Y7670D01*
Y8201D02*
Y8319D01*
Y17596D02*
Y17478D01*
Y18009D02*
Y18127D01*
Y27404D02*
Y27286D01*
Y27817D02*
Y27935D01*
X19468Y7994D02*
X19586D01*
X19469Y17802D02*
X19587D01*
X19469Y27611D02*
X19587D01*
X19859Y1634D02*
X19741D01*
X19859Y11442D02*
X19741D01*
X19859Y21250D02*
X19741D01*
X19859Y31058D02*
X19741D01*
X20144Y1427D02*
Y1309D01*
Y1841D02*
Y1959D01*
Y11235D02*
Y11117D01*
Y11648D02*
Y11767D01*
Y21043D02*
Y20925D01*
Y21456D02*
Y21574D01*
Y30851D02*
Y30733D01*
Y31265D02*
Y31383D01*
Y31786D02*
X19603D01*
X20144Y32515D02*
Y33019D01*
X20430Y1634D02*
X20548D01*
X20430Y11442D02*
X20548D01*
X20430Y21250D02*
X20548D01*
X20430Y31058D02*
X20548D01*
X22014Y2362D02*
X25807D01*
X22014Y3091D02*
X25807D01*
X22014Y12170D02*
X25807D01*
X22014Y12898D02*
X25807D01*
X22014Y21978D02*
X25807D01*
X22014Y22706D02*
X25807D01*
X22014Y32515D02*
Y33137D01*
X22578Y33700*
X25263*
X25807Y33156*
Y32515*
X22452Y35965D02*
X22456Y35962D01*
X22976*
X22975Y6538D02*
X19183D01*
X22975Y7266D02*
X19183D01*
X22976Y16346D02*
X19183D01*
X22976Y17074D02*
X19183D01*
X22976Y26154D02*
X19183D01*
X22976Y26882D02*
X19183D01*
X22976Y36690D02*
X22434D01*
X24560Y7994D02*
X24442D01*
X24560Y17802D02*
X24442D01*
X24560Y27611D02*
X24442D01*
X24560Y37419D02*
X24442D01*
X24845Y6538D02*
X28638D01*
X24845Y7266D02*
X28638D01*
X24845Y7788D02*
Y7670D01*
Y8201D02*
Y8319D01*
X24846Y16346D02*
X28638D01*
X24846Y17074D02*
X28638D01*
X24846Y17596D02*
Y17478D01*
Y18009D02*
Y18127D01*
Y27404D02*
Y27286D01*
Y27817D02*
Y27935D01*
Y37212D02*
Y37094D01*
Y37625D02*
Y37743D01*
X25131Y7994D02*
X25249D01*
X25131Y17802D02*
X25249D01*
X25131Y27611D02*
X25249D01*
X25131Y37419D02*
X25249D01*
X25521Y1634D02*
X25403D01*
X25521Y11442D02*
X25403D01*
X25521Y21250D02*
X25403D01*
X25521Y31058D02*
X25403D01*
X25522Y40866D02*
X25404D01*
X25807Y1427D02*
Y1309D01*
Y1841D02*
Y1959D01*
Y11235D02*
Y11117D01*
Y11648D02*
Y11767D01*
Y21043D02*
Y20925D01*
Y21456D02*
Y21574D01*
Y30851D02*
Y30733D01*
Y31265D02*
Y31383D01*
Y31786D02*
X26274D01*
X26474Y31587*
Y30421*
X26215Y30162*
X21614*
X21321Y30456*
Y31580*
X21527Y31786*
X22014*
X25807Y40659D02*
Y40541D01*
Y41072D02*
Y41191D01*
Y41594D02*
X25355D01*
X25354Y41595*
X25144*
X25807Y42322D02*
Y42834D01*
X26092Y1634D02*
X26210D01*
X26092Y11442D02*
X26210D01*
X26092Y21250D02*
X26210D01*
X26092Y31058D02*
X26210D01*
X26093Y40866D02*
X26211D01*
X27677Y2362D02*
X31469D01*
X27677Y3091D02*
X31469D01*
X27677Y12170D02*
X31469D01*
X27677Y12898D02*
X31469D01*
X27677Y21978D02*
X31469D01*
X27677Y22706D02*
X31469D01*
X28638Y26154D02*
X24846D01*
X28638Y26882D02*
X24846D01*
X28638Y35962D02*
X24846D01*
X28638Y36690D02*
X24846D01*
X28638Y45770D02*
X28235D01*
X28232Y45767*
X28025*
X28638Y46498D02*
X28042D01*
X30222Y7994D02*
X30104D01*
X30223Y17802D02*
X30105D01*
X30223Y27611D02*
X30105D01*
X30223Y37419D02*
X30105D01*
X30223Y47227D02*
X30105D01*
X30508Y7788D02*
Y7670D01*
Y8201D02*
Y8319D01*
Y17596D02*
Y17478D01*
Y18009D02*
Y18127D01*
Y27404D02*
Y27286D01*
Y27817D02*
Y27935D01*
Y37212D02*
Y37094D01*
Y37625D02*
Y37743D01*
Y47020D02*
Y46902D01*
Y47433D02*
Y47552D01*
X30793Y7994D02*
X30911D01*
X30794Y17802D02*
X30912D01*
X30794Y27611D02*
X30912D01*
X30794Y37419D02*
X30912D01*
X30794Y47227D02*
X30912D01*
X31184Y1634D02*
X31066D01*
X31184Y11442D02*
X31066D01*
X31184Y21250D02*
X31066D01*
X31184Y31058D02*
X31066D01*
X31184Y40866D02*
X31066D01*
X31184Y50674D02*
X31066D01*
X31469Y1427D02*
Y1309D01*
Y1841D02*
Y1959D01*
Y11235D02*
Y11117D01*
Y11648D02*
Y11767D01*
Y21043D02*
Y20925D01*
Y21456D02*
Y21574D01*
Y30851D02*
Y30733D01*
Y31265D02*
Y31383D01*
Y31786D02*
X27677D01*
X31469Y32515D02*
X27677D01*
X31470Y40659D02*
Y40541D01*
Y41072D02*
Y41191D01*
Y41594D02*
X27677D01*
X31470Y42322D02*
X27677D01*
X31470Y50467D02*
Y50349D01*
Y50881D02*
Y50999D01*
Y51402D02*
X31000D01*
X30999Y51404*
X30726*
X31470Y52131D02*
Y52677D01*
X31755Y1634D02*
X31873D01*
X31755Y11442D02*
X31873D01*
X31755Y21250D02*
X31873D01*
X31755Y31058D02*
X31873D01*
X31755Y40866D02*
X31873D01*
X31755Y50674D02*
X31873D01*
X33339Y2362D02*
X37132D01*
X33339Y3091D02*
X37132D01*
X33339Y12170D02*
X37132D01*
X33339Y12898D02*
X37132D01*
X33339Y21978D02*
X37132D01*
X33339Y22706D02*
X37132D01*
X33339Y31786D02*
X37132D01*
X33339Y32515D02*
X37132D01*
X33340Y41594D02*
X37132D01*
X33340Y42322D02*
X37132D01*
X33340Y51402D02*
X33743D01*
X33874Y51272*
Y49675*
X34418Y49131*
X36137*
X36566Y49561*
Y51319*
X36650Y51402*
X37132*
X34300Y54705D02*
Y54994D01*
X34301Y54995*
Y55578*
X34300Y6538D02*
X30508D01*
X34300Y7266D02*
X30508D01*
X34301Y16346D02*
X30508D01*
X34301Y17074D02*
X30508D01*
X34301Y26154D02*
X30508D01*
X34301Y26882D02*
X30508D01*
X34301Y35962D02*
X30508D01*
X34301Y36690D02*
X30508D01*
X34301Y45770D02*
X30508D01*
X34301Y46498D02*
X30508D01*
X34301Y56306D02*
X33754D01*
X33749Y56312*
X35885Y7994D02*
X35767D01*
X35885Y17802D02*
X35767D01*
X35885Y27611D02*
X35767D01*
X35885Y37419D02*
X35767D01*
X35885Y47227D02*
X35767D01*
X35886Y57035D02*
X35768D01*
X36170Y7788D02*
Y7670D01*
Y8201D02*
Y8319D01*
X36171Y17596D02*
Y17478D01*
Y18009D02*
Y18127D01*
Y27404D02*
Y27286D01*
Y27817D02*
Y27935D01*
Y37212D02*
Y37094D01*
Y37625D02*
Y37743D01*
Y47020D02*
Y46902D01*
Y47433D02*
Y47552D01*
Y55578D02*
X36727D01*
X37043Y55262*
Y54669*
X39002Y52709*
Y52131*
X36171Y56306D02*
X35666D01*
X35576Y56217*
Y55038*
X38323Y52291*
Y51618*
X38539Y51402*
X39002*
X36171Y56828D02*
Y56710D01*
Y57241D02*
Y57359D01*
X36456Y7994D02*
X36574D01*
X36456Y17802D02*
X36574D01*
X36456Y27611D02*
X36574D01*
X36456Y37419D02*
X36574D01*
X36456Y47227D02*
X36574D01*
X36457Y57035D02*
X36575D01*
X36846Y1634D02*
X36728D01*
X36846Y11442D02*
X36728D01*
X36846Y21250D02*
X36728D01*
X36846Y31058D02*
X36728D01*
X36847Y40866D02*
X36729D01*
X36847Y50674D02*
X36729D01*
X37025Y14756D02*
X37026Y14737D01*
Y14719*
X37028Y14702*
X37031Y14688*
X37034Y14674*
X37037Y14662*
X37042Y14651*
X37047Y14642*
X37056Y14628*
X37065Y14617*
X37076Y14607*
X37088Y14598*
X37100Y14593*
X37113Y14588*
X37127Y14585*
X37141Y14584*
X37153Y14585*
X37165Y14587*
X37176Y14590*
X37187Y14595*
X37197Y14601*
X37207Y14608*
X37216Y14617*
X37225Y14627*
X37233Y14638*
X37240Y14650*
X37247Y14664*
X37251Y14679*
X37256Y14696*
X37258Y14714*
X37260Y14732*
Y14753*
Y14773*
X37258Y14793*
X37256Y14810*
X37252Y14827*
X37247Y14842*
X37241Y14856*
X37234Y14868*
X37227Y14880*
X37218Y14889*
X37208Y14897*
X37199Y14904*
X37189Y14910*
X37179Y14914*
X37168Y14918*
X37156Y14920*
X37145*
X37133*
X37121Y14917*
X37110Y14914*
X37099Y14910*
X37089Y14904*
X37079Y14897*
X37070Y14888*
X37061Y14878*
X37052Y14867*
X37045Y14854*
X37039Y14841*
X37034Y14826*
X37030Y14810*
X37028Y14793*
X37026Y14775*
X37025Y14756*
X37026Y14533D02*
X36957D01*
Y15138*
X37031*
Y14922*
X37044Y14936*
X37057Y14948*
X37070Y14958*
X37085Y14966*
X37100Y14973*
X37116Y14978*
X37133Y14980*
X37151Y14981*
X37171Y14980*
X37191Y14977*
X37209Y14972*
X37227Y14965*
X37245Y14956*
X37260Y14945*
X37275Y14933*
X37287Y14919*
X37298Y14904*
X37308Y14887*
X37316Y14868*
X37324Y14848*
X37329Y14827*
X37333Y14805*
X37336Y14782*
X37337Y14759*
X37336Y14731*
X37333Y14706*
X37329Y14682*
X37322Y14659*
X37315Y14638*
X37305Y14619*
X37294Y14601*
X37281Y14585*
X37267Y14571*
X37251Y14558*
X37236Y14548*
X37220Y14539*
X37202Y14532*
X37185Y14527*
X37166Y14525*
X37148Y14523*
X37129Y14525*
X37111Y14528*
X37094Y14532*
X37078Y14539*
X37064Y14549*
X37050Y14559*
X37038Y14573*
X37026Y14588*
Y14533*
X37132Y1427D02*
Y1309D01*
Y1841D02*
Y1959D01*
Y11235D02*
Y11117D01*
Y11648D02*
Y11767D01*
Y21043D02*
Y20925D01*
Y21456D02*
Y21574D01*
Y30851D02*
Y30733D01*
Y31265D02*
Y31383D01*
Y40659D02*
Y40541D01*
Y41072D02*
Y41191D01*
Y50467D02*
Y50349D01*
Y50881D02*
Y50999D01*
Y52131D02*
Y52722D01*
X36553Y53301*
X33715*
X33340Y52926*
Y52131*
X37399Y14752D02*
X37400Y14781D01*
X37403Y14809*
X37408Y14835*
X37416Y14858*
X37425Y14880*
X37436Y14899*
X37450Y14917*
X37466Y14933*
X37481Y14944*
X37496Y14954*
X37512Y14962*
X37529Y14969*
X37547Y14974*
X37565Y14978*
X37584Y14981*
X37604*
X37626Y14980*
X37647Y14978*
X37667Y14973*
X37686Y14966*
X37704Y14958*
X37721Y14948*
X37737Y14936*
X37752Y14922*
X37765Y14906*
X37776Y14890*
X37787Y14871*
X37795Y14851*
X37801Y14831*
X37805Y14807*
X37808Y14784*
X37809Y14758*
X37808Y14738*
X37807Y14718*
X37805Y14700*
X37802Y14683*
X37799Y14667*
X37795Y14652*
X37789Y14638*
X37784Y14626*
X37777Y14614*
X37769Y14603*
X37761Y14592*
X37752Y14582*
X37743Y14573*
X37733Y14565*
X37722Y14557*
X37710Y14550*
X37697Y14544*
X37685Y14538*
X37672Y14534*
X37659Y14530*
X37646Y14527*
X37632Y14525*
X37618Y14524*
X37604Y14523*
X37582Y14525*
X37560Y14527*
X37540Y14532*
X37521Y14538*
X37503Y14546*
X37486Y14556*
X37470Y14568*
X37455Y14582*
X37442Y14598*
X37430Y14615*
X37421Y14634*
X37413Y14655*
X37407Y14676*
X37402Y14700*
X37400Y14725*
X37399Y14752*
X37417Y1634D02*
X37535D01*
X37417Y11442D02*
X37535D01*
X37417Y21250D02*
X37535D01*
X37417Y31058D02*
X37535D01*
X37418Y40866D02*
X37536D01*
X37418Y50674D02*
X37536D01*
X37475Y14752D02*
Y14732D01*
X37477Y14712*
X37480Y14695*
X37484Y14679*
X37489Y14663*
X37495Y14650*
X37503Y14637*
X37511Y14626*
X37521Y14616*
X37531Y14608*
X37541Y14601*
X37553Y14595*
X37565Y14590*
X37577Y14587*
X37590Y14585*
X37604Y14584*
X37618Y14585*
X37631Y14587*
X37643Y14590*
X37655Y14595*
X37666Y14601*
X37677Y14608*
X37687Y14616*
X37696Y14626*
X37704Y14637*
X37712Y14650*
X37719Y14664*
X37723Y14679*
X37727Y14696*
X37730Y14714*
X37732Y14734*
X37733Y14754*
X37732Y14774*
X37730Y14793*
X37727Y14810*
X37723Y14826*
X37719Y14841*
X37712Y14854*
X37704Y14867*
X37696Y14878*
X37686Y14888*
X37676Y14896*
X37665Y14903*
X37654Y14909*
X37642Y14914*
X37630Y14917*
X37618Y14919*
X37604Y14920*
X37590Y14919*
X37577Y14917*
X37565Y14914*
X37553Y14909*
X37541Y14903*
X37531Y14896*
X37521Y14888*
X37511Y14878*
X37503Y14867*
X37495Y14855*
X37489Y14841*
X37484Y14826*
X37480Y14809*
X37477Y14792*
X37475Y14773*
Y14752*
X38182Y14533D02*
Y14597D01*
X38169Y14580*
X38154Y14565*
X38138Y14552*
X38122Y14542*
X38104Y14534*
X38085Y14528*
X38065Y14525*
X38043Y14523*
X38025Y14525*
X38006Y14527*
X37988Y14532*
X37971Y14538*
X37955Y14546*
X37942Y14555*
X37931Y14565*
X37921Y14575*
X37914Y14587*
X37908Y14600*
X37902Y14615*
X37899Y14630*
X37898Y14636*
X37896Y14643*
Y14650*
X37895Y14659*
Y14668*
Y14678*
X37894Y14688*
Y14700*
Y14971*
X37968*
Y14728*
Y14714*
X37969Y14701*
Y14690*
X37970Y14679*
Y14670*
X37971Y14662*
X37972Y14656*
X37973Y14650*
X37977Y14636*
X37984Y14624*
X37992Y14613*
X38003Y14604*
X38014Y14597*
X38028Y14591*
X38043Y14588*
X38059Y14587*
X38075Y14588*
X38091Y14591*
X38106Y14597*
X38121Y14604*
X38134Y14614*
X38146Y14624*
X38155Y14637*
X38162Y14651*
X38165Y14659*
X38167Y14668*
X38170Y14677*
X38172Y14687*
X38173Y14698*
X38174Y14710*
X38175Y14723*
Y14737*
Y14971*
X38249*
Y14533*
X38182*
X38372D02*
Y15138D01*
X38451*
Y14605*
X38749*
Y14533*
X38372*
X38846D02*
Y15138D01*
X39282*
Y15066*
X38926*
Y14882*
X39260*
Y14810*
X38926*
Y14605*
X39297*
Y14533*
X38846*
X39002Y2362D02*
X42794D01*
X39002Y3091D02*
X42794D01*
X39002Y21978D02*
X42794D01*
X39002Y22706D02*
X42794D01*
X39002Y41594D02*
X42795D01*
X39002Y42322D02*
X42795D01*
X39407Y14533D02*
Y15138D01*
X39615*
X39632*
X39649Y15137*
X39663Y15136*
X39677Y15135*
X39690Y15134*
X39702Y15133*
X39713Y15131*
X39723Y15129*
X39735Y15126*
X39748Y15122*
X39760Y15117*
X39771Y15112*
X39782Y15106*
X39792Y15100*
X39802Y15093*
X39812Y15086*
X39823Y15075*
X39834Y15064*
X39844Y15052*
X39853Y15040*
X39862Y15027*
X39869Y15012*
X39876Y14998*
X39883Y14982*
X39888Y14966*
X39893Y14950*
X39897Y14933*
X39901Y14915*
X39903Y14897*
X39905Y14878*
X39906Y14859*
X39907Y14839*
X39905Y14805*
X39902Y14774*
X39898Y14744*
X39891Y14717*
X39882Y14691*
X39872Y14668*
X39861Y14647*
X39849Y14629*
X39836Y14613*
X39823Y14598*
X39809Y14585*
X39794Y14574*
X39778Y14565*
X39761Y14556*
X39742Y14549*
X39722Y14544*
X39700Y14539*
X39677Y14536*
X39651Y14534*
X39625Y14533*
X39407*
X39487Y14605D02*
X39615D01*
X39630*
X39644Y14606*
X39657Y14607*
X39669Y14608*
X39680Y14609*
X39691Y14611*
X39700Y14613*
X39709Y14616*
X39726Y14622*
X39740Y14629*
X39753Y14638*
X39764Y14647*
X39771Y14655*
X39777Y14663*
X39783Y14671*
X39789Y14681*
X39794Y14691*
X39799Y14701*
X39804Y14712*
X39808Y14724*
X39812Y14736*
X39815Y14749*
X39818Y14763*
X39820Y14777*
X39822Y14792*
X39823Y14807*
X39824Y14823*
Y14840*
X39823Y14863*
X39822Y14885*
X39820Y14905*
X39816Y14924*
X39812Y14941*
X39806Y14957*
X39800Y14972*
X39793Y14986*
X39785Y14998*
X39777Y15009*
X39768Y15019*
X39758Y15028*
X39749Y15036*
X39738Y15043*
X39728Y15049*
X39717Y15054*
X39709Y15057*
X39699Y15059*
X39688Y15061*
X39675Y15063*
X39662Y15064*
X39647Y15066*
X39631*
X39614*
X39487*
Y14605*
X39963Y6538D02*
X36170D01*
X39963Y7266D02*
X36170D01*
X39963Y16346D02*
X36171D01*
X39963Y17074D02*
X36171D01*
X39963Y26154D02*
X36171D01*
X39963Y26882D02*
X36171D01*
X39963Y35962D02*
X36171D01*
X39963Y36690D02*
X36171D01*
X39963Y45770D02*
X36171D01*
X39963Y46498D02*
X36171D01*
X40960Y14496D02*
Y15100D01*
X41227*
X41248*
X41266Y15099*
X41283Y15098*
X41299Y15096*
X41314Y15094*
X41327Y15091*
X41340Y15088*
X41351Y15084*
X41361Y15080*
X41370Y15074*
X41380Y15068*
X41389Y15061*
X41396Y15054*
X41404Y15045*
X41411Y15036*
X41418Y15026*
X41424Y15016*
X41429Y15005*
X41433Y14994*
X41437Y14983*
X41439Y14971*
X41441Y14960*
X41442Y14947*
X41443Y14935*
X41442Y14919*
X41441Y14904*
X41437Y14890*
X41432Y14876*
X41426Y14863*
X41419Y14850*
X41411Y14838*
X41402Y14827*
X41390Y14816*
X41377Y14807*
X41364Y14798*
X41349Y14791*
X41331Y14784*
X41313Y14778*
X41294Y14774*
X41273Y14771*
X41288Y14763*
X41301Y14755*
X41312Y14748*
X41321Y14741*
X41338Y14723*
X41355Y14705*
X41372Y14683*
X41387Y14660*
X41492Y14496*
X41392*
X41312Y14622*
X41303Y14635*
X41295Y14647*
X41287Y14658*
X41280Y14670*
X41273Y14680*
X41266Y14689*
X41260Y14697*
X41254Y14705*
X41243Y14718*
X41233Y14729*
X41223Y14738*
X41213Y14745*
X41204Y14751*
X41196Y14755*
X41186Y14758*
X41177Y14761*
X41169Y14762*
X41159Y14764*
X41147*
X41132*
X41040*
Y14496*
X40960*
X41040Y14833D02*
X41212D01*
X41225*
X41238Y14834*
X41249Y14835*
X41261Y14836*
X41271Y14837*
X41281Y14840*
X41289Y14842*
X41297Y14844*
X41312Y14851*
X41324Y14859*
X41336Y14869*
X41344Y14881*
X41351Y14894*
X41356Y14907*
X41359Y14921*
X41360Y14935*
Y14945*
X41359Y14956*
X41356Y14965*
X41353Y14974*
X41348Y14983*
X41343Y14991*
X41337Y14999*
X41329Y15006*
X41321Y15012*
X41311Y15018*
X41301Y15023*
X41289Y15026*
X41276Y15029*
X41262Y15032*
X41248Y15033*
X41231*
X41040*
Y14833*
X41544Y14790D02*
X41545Y14809D01*
Y14827*
X41547Y14844*
X41549Y14862*
X41552Y14878*
X41555Y14894*
X41559Y14909*
X41564Y14924*
X41569Y14939*
X41575Y14953*
X41582Y14966*
X41589Y14979*
X41597Y14992*
X41606Y15003*
X41615Y15015*
X41625Y15026*
X41635Y15036*
X41646Y15046*
X41657Y15055*
X41668Y15063*
X41680Y15071*
X41692Y15078*
X41705Y15084*
X41718Y15090*
X41731Y15094*
X41744Y15099*
X41758Y15103*
X41773Y15106*
X41787Y15108*
X41802Y15110*
X41817*
X41833Y15111*
X41854Y15110*
X41874Y15108*
X41894Y15105*
X41913Y15101*
X41931Y15095*
X41950Y15088*
X41967Y15080*
X41985Y15071*
X42000Y15061*
X42016Y15049*
X42031Y15036*
X42044Y15023*
X42056Y15009*
X42067Y14993*
X42078Y14977*
X42087Y14960*
X42095Y14941*
X42102Y14922*
X42109Y14903*
X42113Y14883*
X42117Y14863*
X42120Y14842*
X42122Y14820*
Y14797*
Y14775*
X42120Y14752*
X42117Y14731*
X42113Y14710*
X42107Y14690*
X42101Y14670*
X42094Y14651*
X42085Y14633*
X42075Y14615*
X42065Y14599*
X42053Y14583*
X42040Y14569*
X42026Y14556*
X42012Y14544*
X41996Y14533*
X41980Y14523*
X41963Y14514*
X41945Y14507*
X41927Y14501*
X41909Y14495*
X41891Y14491*
X41872Y14488*
X41853Y14487*
X41833Y14486*
X41812Y14487*
X41791Y14488*
X41771Y14492*
X41752Y14496*
X41734Y14502*
X41715Y14509*
X41698Y14517*
X41680Y14527*
X41664Y14538*
X41649Y14550*
X41635Y14562*
X41621Y14576*
X41609Y14591*
X41598Y14606*
X41588Y14622*
X41579Y14640*
X41571Y14657*
X41563Y14676*
X41558Y14694*
X41553Y14713*
X41549Y14732*
X41546Y14751*
X41545Y14771*
X41544Y14790*
X41548Y7994D02*
X41430D01*
X41548Y17802D02*
X41430D01*
X41548Y27611D02*
X41430D01*
X41548Y37419D02*
X41430D01*
X41548Y47227D02*
X41430D01*
X41627Y14789D02*
X41628Y14762D01*
X41630Y14738*
X41635Y14714*
X41641Y14692*
X41650Y14671*
X41660Y14651*
X41672Y14634*
X41685Y14617*
X41700Y14602*
X41716Y14590*
X41734Y14579*
X41751Y14570*
X41770Y14563*
X41790Y14559*
X41811Y14556*
X41833Y14555*
X41855Y14556*
X41876Y14559*
X41896Y14563*
X41915Y14570*
X41933Y14579*
X41950Y14590*
X41966Y14603*
X41981Y14618*
X41995Y14634*
X42007Y14653*
X42016Y14673*
X42025Y14694*
X42031Y14718*
X42036Y14743*
X42038Y14769*
X42039Y14798*
Y14816*
X42038Y14833*
X42036Y14850*
X42033Y14866*
X42030Y14882*
X42025Y14898*
X42021Y14912*
X42015Y14926*
X42008Y14940*
X42000Y14952*
X41993Y14964*
X41984Y14975*
X41975Y14985*
X41964Y14994*
X41953Y15003*
X41941Y15012*
X41930Y15019*
X41917Y15025*
X41904Y15030*
X41891Y15034*
X41877Y15038*
X41863Y15040*
X41849Y15041*
X41834Y15042*
X41813Y15041*
X41793Y15038*
X41774Y15033*
X41755Y15027*
X41737Y15019*
X41720Y15009*
X41703Y14997*
X41688Y14983*
X41680Y14976*
X41673Y14968*
X41667Y14959*
X41661Y14950*
X41656Y14940*
X41651Y14929*
X41646Y14918*
X41642Y14906*
X41638Y14894*
X41636Y14880*
X41633Y14866*
X41631Y14852*
X41629Y14837*
X41628Y14822*
X41627Y14806*
Y14789*
X41833Y7788D02*
Y7670D01*
Y8201D02*
Y8319D01*
Y17596D02*
Y17478D01*
Y18009D02*
Y18127D01*
Y27404D02*
Y27286D01*
Y27817D02*
Y27935D01*
Y37212D02*
Y37094D01*
Y37625D02*
Y37743D01*
Y46498D02*
X41253D01*
X41044Y46290*
Y45239*
X43753Y42530*
Y41920*
X44079Y41594*
X44665*
X41833Y47020D02*
Y46902D01*
Y47433D02*
Y47552D01*
X42119Y7994D02*
X42237D01*
X42119Y17802D02*
X42237D01*
X42119Y27611D02*
X42237D01*
X42119Y37419D02*
X42237D01*
X42119Y47227D02*
X42237D01*
X42198Y14690D02*
X42274Y14697D01*
X42277Y14675*
X42283Y14656*
X42290Y14638*
X42299Y14622*
X42304Y14615*
X42310Y14608*
X42316Y14602*
X42324Y14596*
X42332Y14591*
X42340Y14585*
X42350Y14580*
X42360Y14575*
X42381Y14568*
X42403Y14562*
X42427Y14559*
X42452Y14557*
X42474Y14558*
X42495Y14561*
X42514Y14565*
X42533Y14571*
X42549Y14579*
X42563Y14587*
X42575Y14597*
X42585Y14608*
X42592Y14621*
X42598Y14633*
X42600Y14647*
X42602Y14660*
X42600Y14674*
X42598Y14687*
X42592Y14699*
X42585Y14710*
X42580Y14715*
X42575Y14720*
X42569Y14725*
X42563Y14729*
X42556Y14733*
X42548Y14738*
X42540Y14742*
X42530Y14745*
X42523Y14748*
X42514Y14751*
X42504Y14754*
X42491Y14758*
X42477Y14761*
X42461Y14765*
X42443Y14770*
X42423Y14775*
X42403Y14780*
X42384Y14785*
X42367Y14790*
X42352Y14794*
X42338Y14799*
X42326Y14804*
X42315Y14808*
X42306Y14813*
X42296Y14819*
X42286Y14825*
X42277Y14831*
X42269Y14838*
X42261Y14845*
X42254Y14853*
X42247Y14861*
X42242Y14869*
X42237Y14878*
X42233Y14886*
X42229Y14895*
X42226Y14905*
X42224Y14914*
X42222Y14924*
X42221Y14934*
Y14944*
Y14956*
X42223Y14967*
X42224Y14978*
X42227Y14989*
X42231Y14999*
X42236Y15009*
X42241Y15020*
X42247Y15030*
X42254Y15039*
X42261Y15048*
X42270Y15057*
X42279Y15065*
X42289Y15072*
X42299Y15079*
X42311Y15085*
X42322Y15090*
X42335Y15095*
X42348Y15099*
X42361Y15103*
X42375Y15106*
X42389Y15108*
X42403Y15110*
X42418*
X42433Y15111*
X42450Y15110*
X42466*
X42481Y15108*
X42497Y15106*
X42511Y15103*
X42525Y15098*
X42538Y15094*
X42551Y15089*
X42564Y15083*
X42576Y15077*
X42587Y15070*
X42597Y15062*
X42606Y15054*
X42615Y15045*
X42624Y15036*
X42631Y15025*
X42637Y15015*
X42642Y15003*
X42648Y14992*
X42652Y14980*
X42655Y14969*
X42658Y14956*
X42659Y14943*
X42660Y14930*
X42583Y14924*
X42582Y14938*
X42579Y14951*
X42575Y14963*
X42570Y14974*
X42564Y14985*
X42557Y14994*
X42550Y15003*
X42541Y15011*
X42532Y15018*
X42521Y15024*
X42510Y15029*
X42498Y15033*
X42484Y15036*
X42469Y15039*
X42453Y15040*
X42436Y15041*
X42419Y15040*
X42403Y15039*
X42387Y15037*
X42374Y15034*
X42361Y15030*
X42350Y15026*
X42339Y15020*
X42331Y15014*
X42323Y15007*
X42316Y15000*
X42311Y14992*
X42306Y14984*
X42302Y14976*
X42300Y14968*
X42298Y14959*
Y14950*
Y14942*
X42299Y14934*
X42301Y14927*
X42303Y14920*
X42307Y14914*
X42311Y14907*
X42315Y14902*
X42321Y14896*
X42328Y14891*
X42337Y14886*
X42349Y14880*
X42363Y14875*
X42379Y14869*
X42397Y14864*
X42419Y14859*
X42442Y14853*
X42465Y14847*
X42487Y14842*
X42506Y14837*
X42524Y14832*
X42540Y14827*
X42553Y14823*
X42565Y14819*
X42575Y14814*
X42588Y14808*
X42600Y14801*
X42611Y14794*
X42621Y14787*
X42631Y14779*
X42639Y14771*
X42647Y14762*
X42653Y14753*
X42659Y14744*
X42664Y14733*
X42668Y14723*
X42672Y14713*
X42675Y14702*
X42677Y14690*
X42678Y14679*
Y14667*
Y14655*
X42677Y14643*
X42674Y14631*
X42671Y14620*
X42668Y14609*
X42663Y14598*
X42657Y14587*
X42651Y14576*
X42644Y14566*
X42635Y14556*
X42627Y14547*
X42617Y14538*
X42607Y14530*
X42596Y14523*
X42584Y14516*
X42572Y14510*
X42559Y14504*
X42545Y14499*
X42531Y14495*
X42517Y14492*
X42502Y14490*
X42487Y14487*
X42471*
X42455Y14486*
X42435Y14487*
X42416*
X42398Y14490*
X42380Y14492*
X42364Y14495*
X42348Y14500*
X42332Y14504*
X42318Y14510*
X42305Y14516*
X42292Y14523*
X42280Y14531*
X42269Y14540*
X42259Y14549*
X42249Y14559*
X42240Y14570*
X42231Y14582*
X42224Y14594*
X42218Y14606*
X42212Y14619*
X42207Y14633*
X42204Y14647*
X42201Y14661*
X42200Y14676*
X42198Y14690*
X42509Y1634D02*
X42391D01*
X42509Y11442D02*
X42391D01*
X42509Y21250D02*
X42391D01*
X42509Y31058D02*
X42391D01*
X42509Y40866D02*
X42391D01*
X42789Y14496D02*
Y15100D01*
X43226*
Y15029*
X42869*
Y14844*
X43203*
Y14773*
X42869*
Y14568*
X43240*
Y14496*
X42789*
X42794Y1427D02*
Y1309D01*
Y1841D02*
Y1959D01*
Y11235D02*
Y11117D01*
Y11648D02*
Y11767D01*
Y12170D02*
X39002D01*
X42794Y12898D02*
X39002D01*
X42794Y21043D02*
Y20925D01*
Y21456D02*
Y21574D01*
Y30851D02*
Y30733D01*
Y31265D02*
Y31383D01*
Y31786D02*
X39002D01*
X42794Y32515D02*
X39002D01*
X42795Y40659D02*
Y40541D01*
Y41072D02*
Y41191D01*
X43080Y1634D02*
X43198D01*
X43080Y11442D02*
X43198D01*
X43080Y21250D02*
X43198D01*
X43080Y31058D02*
X43198D01*
X43080Y40866D02*
X43198D01*
X43945Y14568D02*
Y14496D01*
X43545*
Y14509*
X43547Y14522*
X43550Y14535*
X43554Y14547*
X43563Y14568*
X43574Y14588*
X43587Y14608*
X43603Y14628*
X43612Y14638*
X43622Y14648*
X43632Y14659*
X43644Y14670*
X43656Y14682*
X43670Y14694*
X43685Y14706*
X43700Y14719*
X43724Y14739*
X43745Y14758*
X43765Y14775*
X43783Y14792*
X43798Y14807*
X43812Y14822*
X43824Y14835*
X43834Y14847*
X43842Y14859*
X43849Y14870*
X43855Y14882*
X43860Y14894*
X43864Y14904*
X43866Y14915*
X43868Y14926*
Y14937*
Y14947*
X43867Y14958*
X43864Y14968*
X43861Y14977*
X43856Y14986*
X43851Y14995*
X43844Y15003*
X43837Y15011*
X43829Y15018*
X43820Y15024*
X43811Y15029*
X43800Y15033*
X43790Y15037*
X43779Y15039*
X43767Y15041*
X43754*
X43741*
X43729Y15039*
X43717Y15036*
X43706Y15033*
X43695Y15029*
X43686Y15023*
X43677Y15016*
X43668Y15009*
X43661Y15000*
X43654Y14992*
X43649Y14981*
X43644Y14971*
X43640Y14959*
X43638Y14947*
X43636Y14934*
Y14920*
X43560Y14928*
X43563Y14948*
X43566Y14968*
X43571Y14986*
X43578Y15003*
X43586Y15019*
X43596Y15033*
X43606Y15046*
X43619Y15058*
X43632Y15068*
X43646Y15077*
X43662Y15085*
X43678Y15091*
X43696Y15096*
X43715Y15100*
X43735Y15102*
X43756Y15103*
X43777Y15102*
X43798Y15100*
X43816Y15095*
X43834Y15090*
X43851Y15084*
X43866Y15075*
X43881Y15065*
X43894Y15054*
X43906Y15042*
X43916Y15029*
X43925Y15015*
X43932Y15000*
X43938Y14985*
X43942Y14969*
X43944Y14953*
X43945Y14935*
X43943Y14917*
X43941Y14899*
X43936Y14881*
X43930Y14863*
X43926Y14855*
X43921Y14846*
X43916Y14837*
X43910Y14827*
X43903Y14819*
X43896Y14809*
X43888Y14800*
X43880Y14790*
X43871Y14780*
X43860Y14769*
X43848Y14756*
X43834Y14744*
X43819Y14730*
X43803Y14716*
X43785Y14700*
X43766Y14684*
X43750Y14670*
X43736Y14658*
X43723Y14647*
X43711Y14637*
X43701Y14628*
X43692Y14620*
X43685Y14613*
X43680Y14608*
X43671Y14598*
X43663Y14588*
X43655Y14578*
X43649Y14568*
X43945*
X44024Y14794D02*
X44025Y14820D01*
Y14845*
X44027Y14869*
X44030Y14891*
X44033Y14912*
X44037Y14931*
X44041Y14950*
X44046Y14967*
X44052Y14983*
X44059Y14997*
X44066Y15012*
X44074Y15025*
X44082Y15036*
X44092Y15048*
X44102Y15058*
X44112Y15067*
X44124Y15075*
X44135Y15082*
X44148Y15089*
X44161Y15094*
X44175Y15098*
X44190Y15100*
X44206Y15102*
X44222Y15103*
X44233Y15102*
X44245Y15101*
X44256Y15100*
X44267Y15098*
X44278Y15095*
X44288Y15091*
X44298Y15088*
X44307Y15083*
X44325Y15072*
X44341Y15059*
X44355Y15044*
X44368Y15026*
X44379Y15007*
X44389Y14986*
X44398Y14962*
X44405Y14937*
X44408Y14923*
X44411Y14908*
X44413Y14892*
X44415Y14875*
X44417Y14856*
X44418Y14837*
X44419Y14816*
Y14794*
X44418Y14768*
Y14744*
X44416Y14720*
X44413Y14698*
X44411Y14677*
X44406Y14658*
X44402Y14640*
X44397Y14622*
X44391Y14606*
X44385Y14592*
X44377Y14578*
X44370Y14565*
X44361Y14552*
X44352Y14541*
X44342Y14531*
X44331Y14521*
X44320Y14513*
X44308Y14506*
X44296Y14500*
X44282Y14495*
X44268Y14491*
X44253Y14488*
X44238Y14487*
X44222Y14486*
X44200Y14487*
X44180Y14490*
X44161Y14495*
X44144Y14501*
X44127Y14510*
X44112Y14521*
X44097Y14534*
X44084Y14548*
X44077Y14558*
X44070Y14569*
X44064Y14580*
X44058Y14592*
X44053Y14605*
X44048Y14618*
X44043Y14632*
X44039Y14648*
X44036Y14663*
X44033Y14680*
X44030Y14697*
X44028Y14715*
X44027Y14733*
X44025Y14753*
X44024Y14773*
Y14794*
X44100D02*
Y14776D01*
X44101Y14758*
X44102Y14742*
X44103Y14726*
X44104Y14710*
X44105Y14696*
X44107Y14683*
X44109Y14670*
X44112Y14658*
X44114Y14647*
X44117Y14636*
X44120Y14627*
X44124Y14618*
X44127Y14609*
X44131Y14602*
X44135Y14596*
X44144Y14585*
X44154Y14575*
X44164Y14566*
X44174Y14559*
X44186Y14554*
X44197Y14550*
X44209Y14547*
X44222*
X44234*
X44246Y14550*
X44258Y14554*
X44269Y14559*
X44279Y14566*
X44289Y14575*
X44299Y14585*
X44308Y14596*
X44312Y14602*
X44316Y14610*
X44320Y14618*
X44323Y14627*
X44326Y14637*
X44329Y14647*
X44331Y14658*
X44334Y14670*
X44336Y14683*
X44338Y14696*
X44339Y14711*
X44340Y14726*
X44341Y14742*
X44342Y14758*
X44343Y14776*
Y14794*
Y14812*
X44342Y14830*
X44341Y14846*
X44340Y14862*
X44339Y14878*
X44338Y14892*
X44336Y14905*
X44334Y14918*
X44331Y14930*
X44329Y14941*
X44326Y14951*
X44323Y14961*
X44320Y14970*
X44316Y14978*
X44312Y14986*
X44308Y14992*
X44299Y15003*
X44289Y15013*
X44279Y15022*
X44269Y15029*
X44258Y15034*
X44246Y15038*
X44233Y15041*
X44221*
X44208*
X44196Y15038*
X44185Y15035*
X44175Y15031*
X44165Y15024*
X44155Y15017*
X44147Y15008*
X44139Y14998*
X44134Y14990*
X44130Y14983*
X44126Y14974*
X44122Y14964*
X44119Y14954*
X44115Y14943*
X44113Y14932*
X44110Y14919*
X44108Y14906*
X44106Y14892*
X44104Y14878*
X44103Y14862*
X44102Y14846*
X44101Y14830*
X44100Y14812*
Y14794*
X44665Y2362D02*
X48457D01*
X44665Y3091D02*
X48457D01*
X44665Y12170D02*
X48457D01*
X44665Y12898D02*
X48457D01*
X44665Y21978D02*
X48457D01*
X44665Y22706D02*
X48457D01*
X44665Y31786D02*
X48457D01*
X44665Y32515D02*
X48457D01*
X44665Y42322D02*
X44586D01*
X42784Y44125*
Y45348*
X42361Y45770*
X41833*
X44774Y14496D02*
X44699D01*
Y14969*
X44685Y14956*
X44669Y14943*
X44650Y14930*
X44629Y14918*
X44608Y14905*
X44588Y14895*
X44569Y14886*
X44551Y14879*
Y14951*
X44581Y14966*
X44610Y14983*
X44636Y15002*
X44660Y15022*
X44671Y15032*
X44682Y15042*
X44691Y15052*
X44700Y15063*
X44708Y15073*
X44715Y15083*
X44721Y15093*
X44726Y15103*
X44774*
Y14496*
X44975Y14636D02*
X45046Y14643D01*
X45048Y14630*
X45051Y14619*
X45055Y14609*
X45059Y14599*
X45064Y14591*
X45069Y14582*
X45074Y14576*
X45081Y14569*
X45087Y14564*
X45094Y14560*
X45101Y14556*
X45110Y14553*
X45118Y14550*
X45127Y14548*
X45136Y14547*
X45146*
X45162Y14548*
X45178Y14551*
X45192Y14556*
X45206Y14562*
X45218Y14571*
X45230Y14581*
X45240Y14592*
X45248Y14604*
X45256Y14618*
X45263Y14635*
X45270Y14654*
X45276Y14675*
X45280Y14697*
X45284Y14720*
X45286Y14743*
X45287Y14765*
Y14768*
Y14772*
X45286Y14776*
Y14781*
X45274Y14764*
X45260Y14748*
X45244Y14735*
X45225Y14723*
X45216Y14718*
X45206Y14713*
X45196Y14709*
X45185Y14706*
X45175Y14704*
X45164Y14702*
X45153*
X45142Y14701*
X45124Y14702*
X45106Y14705*
X45089Y14709*
X45073Y14715*
X45057Y14722*
X45042Y14732*
X45029Y14742*
X45015Y14755*
X45003Y14769*
X44992Y14785*
X44983Y14801*
X44976Y14819*
X44970Y14837*
X44967Y14856*
X44964Y14877*
X44963Y14899*
X44964Y14921*
X44967Y14943*
X44971Y14963*
X44977Y14981*
X44985Y14999*
X44994Y15016*
X45005Y15032*
X45018Y15046*
X45032Y15059*
X45047Y15071*
X45062Y15081*
X45078Y15088*
X45096Y15095*
X45114Y15099*
X45133Y15101*
X45153Y15103*
X45168Y15102*
X45182Y15101*
X45196Y15098*
X45210Y15094*
X45223Y15090*
X45236Y15085*
X45249Y15078*
X45261Y15071*
X45273Y15062*
X45284Y15053*
X45295Y15043*
X45304Y15032*
X45313Y15020*
X45321Y15008*
X45329Y14994*
X45335Y14980*
X45341Y14965*
X45347Y14948*
X45351Y14929*
X45354Y14908*
X45357Y14886*
X45359Y14863*
X45360Y14837*
X45361Y14810*
X45360Y14782*
X45359Y14755*
X45357Y14731*
X45354Y14706*
X45351Y14684*
X45347Y14663*
X45341Y14644*
X45335Y14626*
X45329Y14609*
X45322Y14594*
X45313Y14579*
X45305Y14566*
X45295Y14553*
X45284Y14542*
X45273Y14531*
X45261Y14522*
X45248Y14513*
X45235Y14506*
X45221Y14500*
X45207Y14495*
X45192Y14491*
X45176Y14488*
X45161Y14487*
X45145Y14486*
X45127Y14487*
X45110Y14488*
X45095Y14491*
X45080Y14496*
X45066Y14501*
X45052Y14508*
X45040Y14516*
X45028Y14526*
X45018Y14536*
X45008Y14547*
X45000Y14559*
X44993Y14573*
X44986Y14587*
X44982Y14602*
X44977Y14619*
X44975Y14636*
X45278Y14902D02*
X45277Y14918D01*
X45276Y14932*
X45273Y14947*
X45270Y14960*
X45265Y14972*
X45259Y14983*
X45252Y14994*
X45244Y15003*
X45236Y15012*
X45227Y15020*
X45217Y15026*
X45207Y15032*
X45197Y15036*
X45185Y15039*
X45174Y15041*
X45162*
X45150*
X45138Y15039*
X45127Y15035*
X45116Y15031*
X45105Y15025*
X45095Y15018*
X45086Y15010*
X45076Y15001*
X45067Y14990*
X45060Y14979*
X45054Y14967*
X45049Y14954*
X45045Y14941*
X45042Y14927*
X45040Y14912*
X45039Y14896*
X45040Y14882*
X45042Y14869*
X45044Y14856*
X45048Y14844*
X45053Y14833*
X45059Y14822*
X45066Y14812*
X45074Y14803*
X45083Y14794*
X45093Y14787*
X45103Y14781*
X45113Y14775*
X45124Y14771*
X45136Y14769*
X45148Y14767*
X45160*
X45173*
X45185Y14769*
X45197Y14771*
X45207Y14775*
X45217Y14781*
X45227Y14787*
X45236Y14794*
X45245Y14803*
X45253Y14812*
X45259Y14822*
X45265Y14833*
X45270Y14846*
X45273Y14859*
X45276Y14872*
X45277Y14887*
X45278Y14902*
X45626Y6538D02*
X41833D01*
X45626Y7266D02*
X41833D01*
X45626Y16346D02*
X41833D01*
X45626Y17074D02*
X41833D01*
X45626Y26154D02*
X41833D01*
X45626Y26882D02*
X41833D01*
X45626Y35962D02*
X41833D01*
X45626Y36690D02*
X41833D01*
X47210Y7994D02*
X47092D01*
X47211Y17802D02*
X47093D01*
X47211Y27611D02*
X47093D01*
X47211Y37419D02*
X47093D01*
X47496Y7788D02*
Y7670D01*
Y8201D02*
Y8319D01*
Y17596D02*
Y17478D01*
Y18009D02*
Y18127D01*
Y27404D02*
Y27286D01*
Y27817D02*
Y27935D01*
Y36690D02*
X46959D01*
X46766Y36497*
Y35584*
X49507Y32842*
Y32069*
X49790Y31786*
X50327*
X47496Y37212D02*
Y37094D01*
Y37625D02*
Y37743D01*
X47781Y7994D02*
X47899D01*
X47781Y17802D02*
X47900D01*
X47781Y27611D02*
X47900D01*
X47781Y37419D02*
X47900D01*
X48172Y1634D02*
X48054D01*
X48172Y11442D02*
X48054D01*
X48172Y21250D02*
X48054D01*
X48172Y31058D02*
X48054D01*
X48457Y1427D02*
Y1309D01*
Y1841D02*
Y1959D01*
Y11235D02*
Y11117D01*
Y11648D02*
Y11767D01*
Y21043D02*
Y20925D01*
Y21456D02*
Y21574D01*
Y30851D02*
Y30733D01*
Y31265D02*
Y31383D01*
X48743Y1634D02*
X48861D01*
X48743Y11442D02*
X48861D01*
X48743Y21250D02*
X48861D01*
X48743Y31058D02*
X48861D01*
X50327Y12170D02*
X54120D01*
X50327Y12898D02*
X54120D01*
X50327Y32515D02*
Y33759D01*
X48124Y35962*
X47496*
X51288Y6538D02*
X47496D01*
X51288Y7266D02*
X47496D01*
X51289Y16346D02*
X47496D01*
X51289Y17074D02*
X47496D01*
X51289Y26154D02*
X47496D01*
X51289Y26882D02*
X47496D01*
X52873Y7994D02*
X52755D01*
X52873Y17802D02*
X52755D01*
X52873Y27611D02*
X52755D01*
X53158Y7788D02*
Y7670D01*
Y8201D02*
Y8319D01*
X53159Y17596D02*
Y17478D01*
Y18009D02*
Y18127D01*
Y26154D02*
X53902D01*
X54730Y25326*
Y24466*
X55990Y23206*
Y22706*
X53159Y27404D02*
Y27286D01*
Y27817D02*
Y27935D01*
X53444Y7994D02*
X53562D01*
X53444Y17802D02*
X53562D01*
X53444Y27611D02*
X53562D01*
X53834Y1634D02*
X53716D01*
X53834Y11442D02*
X53716D01*
X53834Y21250D02*
X53716D01*
X54120Y1427D02*
Y1309D01*
Y1841D02*
Y1959D01*
Y2362D02*
X50327D01*
X54120Y3091D02*
X50327D01*
X54120Y11235D02*
Y11117D01*
Y11648D02*
Y11767D01*
Y21043D02*
Y20925D01*
Y21456D02*
Y21574D01*
Y21978D02*
X50327D01*
X54120Y22706D02*
X50327D01*
X54405Y1634D02*
X54523D01*
X54405Y11442D02*
X54523D01*
X54405Y21250D02*
X54523D01*
X55990Y2362D02*
X59782D01*
X55990Y3091D02*
X59782D01*
X55990Y12170D02*
X59782D01*
X55990Y12898D02*
X59782D01*
X55990Y21978D02*
X55459D01*
X54965Y22472*
Y23311*
X52329Y25946*
Y26684*
X52528Y26882*
X53159*
X56951Y6538D02*
X53158D01*
X56951Y7266D02*
X53158D01*
X56951Y16346D02*
X53159D01*
X56951Y17074D02*
X53159D01*
X58535Y7994D02*
X58417D01*
X58536Y17802D02*
X58418D01*
X58821Y7788D02*
Y7670D01*
Y8201D02*
Y8319D01*
Y17596D02*
Y17478D01*
Y18009D02*
Y18127D01*
X59106Y7994D02*
X59224D01*
X59107Y17802D02*
X59225D01*
X59497Y1634D02*
X59379D01*
X59497Y11442D02*
X59379D01*
X59782Y1427D02*
Y1309D01*
Y1841D02*
Y1959D01*
Y11235D02*
Y11117D01*
Y11648D02*
Y11767D01*
X60068Y1634D02*
X60186D01*
X60068Y11442D02*
X60186D01*
X61652Y2362D02*
X65445D01*
X61652Y3091D02*
X65445D01*
X61652Y12170D02*
X61117D01*
X60759Y12528*
Y13072*
X57975Y15856*
Y16888*
X58162Y17075*
X58417*
X58418Y17074*
X58821*
X61652Y12898D02*
Y13541D01*
X59557Y15636*
Y16131*
X59342Y16346*
X58821*
X62613Y6538D02*
X58821D01*
X62613Y7266D02*
X58821D01*
X64198Y7994D02*
X64080D01*
X64483Y6538D02*
X65072D01*
X65424Y6186*
Y5553*
X67315Y3662*
Y3091*
X64483Y7266D02*
X63828D01*
X63665Y7103*
Y6323*
X66241Y3747*
Y2606*
X66485Y2362*
X67315*
X64483Y7788D02*
Y7670D01*
Y8201D02*
Y8319D01*
X64769Y7994D02*
X64887D01*
X65159Y1634D02*
X65041D01*
X65445Y1427D02*
Y1309D01*
Y1841D02*
Y1959D01*
X65730Y1634D02*
X65848D01*
G54D13*
X3142Y1156D02*
X3156Y1170D01*
Y1634*
X8254Y11432D02*
X8264Y11442D01*
X8819*
X8255Y1626D02*
X8263Y1634D01*
X8819*
X8450Y8004D02*
X8440Y7994D01*
X7857*
X13933Y21269D02*
X13952Y21250D01*
X14481*
X13935Y1636D02*
X13937Y1634D01*
X14481*
X13943Y11442D02*
X13944D01*
X14481*
X14057Y8000D02*
X14052Y7994D01*
X13520*
X14119Y17812D02*
X14110Y17802D01*
X13520*
X19584Y31049D02*
X19593Y31058D01*
X20144*
X19603Y11448D02*
X19609Y11442D01*
X20144*
X19615Y21251D02*
X19617Y21250D01*
X20144*
X19619Y1617D02*
X19635Y1634D01*
X20144*
X19711Y7995D02*
Y7994D01*
X19183*
X19731Y27621D02*
X19720Y27611D01*
X19183*
X19745Y17809D02*
X19738Y17802D01*
X19183*
X25224Y1633D02*
X25225Y1634D01*
X25807*
X25233Y21261D02*
X25245Y21250D01*
X25807*
X25239Y11432D02*
X25249Y11442D01*
X25807*
X25240Y40862D02*
X25244Y40866D01*
X25807*
X25372Y7989D02*
X25367Y7994D01*
X24845*
X25379Y27612D02*
X25378Y27611D01*
X24846*
X25394Y17800D02*
X25392Y17802D01*
X24846*
X25398Y37420D02*
X25397Y37419D01*
X24846*
X25811Y30561D02*
X25807Y30566D01*
Y31058*
X30508Y37419D02*
X31032D01*
X31033Y37420*
X30875Y21233D02*
X30892Y21250D01*
X31469*
X30899Y40866D02*
X31470D01*
X30931Y11441D02*
Y11442D01*
X31469*
X30954Y1633D02*
X30955Y1634D01*
X31469*
X31060Y27608D02*
X31057Y27611D01*
X30508*
X31067Y7994D02*
X31066D01*
X30508*
X31067Y47230D02*
X31064Y47227D01*
X30508*
X31088Y17796D02*
X31082Y17802D01*
X30508*
X31468Y50223D02*
X31470Y50224D01*
Y50674*
X31469Y31058D02*
X30909D01*
X30905Y31062*
X36171Y27611D02*
X36994D01*
X37249Y27356*
X36171Y57035D02*
Y57502D01*
X36170Y57503*
X36535Y11445D02*
X36538Y11442D01*
X37132*
X36548Y31062D02*
X36552Y31058D01*
X37132*
X36559Y21252D02*
X36562Y21250D01*
X37132*
X36591Y40862D02*
X36595Y40866D01*
X37132*
X36718Y47224D02*
X36715Y47227D01*
X36171*
X36734Y37417D02*
X36733Y37419D01*
X36171*
X36760Y17810D02*
X36753Y17802D01*
X36171*
X36769Y7993D02*
X36767Y7994D01*
X36170*
X37132Y1634D02*
X36586D01*
X36560Y1660*
X37132Y50674D02*
Y50225D01*
X37144Y50213*
X41838Y47665D02*
X41833Y47661D01*
Y47227*
X42143Y1610D02*
X42167Y1634D01*
X42794*
X42209Y11441D02*
Y11442D01*
X42794*
X42243Y40869D02*
X42247Y40866D01*
X42795*
X42253Y21249D02*
X42254Y21250D01*
X42794*
X42391Y37414D02*
X42387Y37419D01*
X41833*
X42397Y17803D02*
Y17802D01*
X41833*
X42402Y27612D02*
X42401Y27611D01*
X41833*
X42447Y7997D02*
X42445Y7994D01*
X41833*
X42805Y30587D02*
X42794Y30598D01*
Y31058*
X47497Y37859D02*
X47496Y37858D01*
Y37419*
X47866Y1647D02*
X47879Y1634D01*
X48457*
X47893Y31058D02*
X48457D01*
X47895Y11448D02*
X47901Y11442D01*
X48457*
X47918Y21252D02*
X47920Y21250D01*
X48457*
X48053Y27612D02*
X48052Y27611D01*
X47496*
X48079Y17805D02*
X48076Y17802D01*
X47496*
X48107Y7984D02*
X48096Y7994D01*
X47496*
X53151Y28057D02*
X53159Y28050D01*
Y27611*
X53547Y21248D02*
X53548Y21250D01*
X54120*
X53570Y11443D02*
X53571Y11442D01*
X54120*
X53719Y17806D02*
X53715Y17802D01*
X53159*
X53762Y7995D02*
X53761Y7994D01*
X53158*
X54120Y1634D02*
X53557D01*
X53543Y1648*
X58826Y18253D02*
X58821Y18248D01*
Y17802*
X59064Y1666D02*
X59096Y1634D01*
X59782*
X59195Y11436D02*
X59201Y11442D01*
X59782*
X59370Y7995D02*
X59369Y7994D01*
X58821*
X64481Y8442D02*
X64483Y8440D01*
Y7994*
X64876Y1646D02*
X64888Y1634D01*
X65445*
G54D14*
X5026D02*
Y1151D01*
X5470Y708*
X10246*
X10689Y1151*
Y1168*
X5184Y1634D02*
X5215D01*
X5987Y7994D02*
Y8765D01*
X7206Y9983*
X10466*
X10689Y10206*
Y1168D02*
X10707D01*
X11167Y708*
X15878*
X16352Y1181*
X10689Y1634D02*
Y1168D01*
Y10206D02*
Y11442D01*
X11650Y9538D02*
X11205Y9983D01*
X10912*
X10689Y10206*
X11650Y9538D02*
Y7994D01*
Y17802D02*
Y18372D01*
X12677Y19399*
X15906*
X16352Y19845*
Y1181D02*
X16825Y708D01*
X21541*
X22014Y1181*
X16352D02*
Y1634D01*
Y10206D02*
X16129Y9983D01*
X12095*
X11650Y9538*
X16352Y10206D02*
Y11442D01*
Y19845D02*
X17313Y18883D01*
X16352Y21250D02*
Y19845D01*
X17313Y9538D02*
Y7994D01*
Y9538D02*
X16867Y9983D01*
X16574*
X16352Y10206*
X17313Y18883D02*
X17829Y19399D01*
X21569*
X22014Y19845*
X17313Y18883D02*
Y17802D01*
Y27611D02*
Y28205D01*
X18125Y29018*
X22014*
Y29045*
Y1181D02*
X22488Y708D01*
X27203*
X27677Y1181*
X22014D02*
Y1634D01*
Y19845D02*
X22976Y18883D01*
X22014Y19845D02*
Y21250D01*
Y30517D02*
Y31058D01*
X22032Y10206D02*
X21809Y9983D01*
X17758*
X17313Y9538*
X22032Y10206D02*
Y10971D01*
X22014Y10989*
Y11442*
X22933Y9538D02*
X22487Y9983D01*
X22254*
X22032Y10206*
X22933Y9538D02*
Y8908D01*
X22975Y8865*
Y7994*
X22976Y18883D02*
X23492Y19399D01*
X27231*
X27677Y19845*
X22976Y18883D02*
Y17802D01*
Y28391D02*
X22349Y29018D01*
Y29045*
X22014*
X22976Y28391D02*
Y27611D01*
Y28391D02*
X23602Y29018D01*
X27229*
X27674Y29463*
X22976Y37419D02*
Y37982D01*
X24201Y39207*
X27475*
X27697Y39430*
X27674Y29463D02*
Y30441D01*
X27677Y30443*
Y31058*
Y1181D02*
Y1634D01*
Y1181D02*
X28150Y708D01*
X32866*
X33339Y1181*
X27677Y19845D02*
X28638Y18883D01*
X27677Y21250D02*
Y19845D01*
X27685Y10206D02*
X27463Y9983D01*
X23378*
X22933Y9538*
X27685Y10206D02*
Y10981D01*
X27677Y10989*
Y11442*
X27697Y39430D02*
X27920Y39207D01*
X28183*
X28406Y38984*
X28629*
X27697Y39430D02*
Y40159D01*
X27677Y40179*
Y40866*
X28629Y38984D02*
Y38220D01*
X28638Y38210*
Y37419*
X28633Y9538D02*
X28187Y9983D01*
X27908*
X27685Y10206*
X28638Y7994D02*
Y8671D01*
X28633Y8676*
Y9538*
X28638Y18883D02*
X29154Y19399D01*
X32230*
X28638Y18883D02*
Y17802D01*
Y28499D02*
Y27611D01*
Y28499D02*
X27674Y29463D01*
X31720Y39215D02*
Y39207D01*
X28851*
X28629Y38984*
X32229Y10144D02*
Y10142D01*
X29237*
X28633Y9538*
X32394Y48505D02*
X32729D01*
Y48507*
X33172Y48951*
X33340*
X32394Y48505D02*
Y48506D01*
X29464*
X28638Y47680*
Y47227*
X32673Y28665D02*
X28804D01*
X28638Y28499*
X33339Y1181D02*
X33813Y708D01*
X34822*
Y710*
X35157*
X33339Y1634D02*
Y1181D01*
Y10367D02*
X33562Y10144D01*
X33855*
X34300Y9699*
X33339Y10367D02*
Y11442D01*
Y10367D02*
X33117Y10144D01*
X32229*
X33339Y19622D02*
Y21250D01*
Y19622D02*
X33117Y19399D01*
X32230*
X33339Y31058D02*
Y30439D01*
X33341Y30437*
Y29463*
Y28998*
X33340Y39724D02*
X32823Y39207D01*
X32054*
Y39215*
X31720*
X33340Y39724D02*
Y40866D01*
Y48951D02*
X34301Y47990D01*
X33340Y50674D02*
Y48951D01*
X33341Y28998D02*
X33008Y28665D01*
X32673*
X34139D02*
Y28572D01*
X34268Y28443*
Y28196*
X34301Y28164*
Y27611*
X34139Y28665D02*
X33765D01*
X33432Y28998*
X33341*
X34300Y9699D02*
Y7994D01*
X34301Y18799D02*
X34901Y19399D01*
X38559*
X38918Y19758*
X39004*
X34301Y18799D02*
Y17802D01*
Y18799D02*
X33478Y19622D01*
X33339*
X34301Y37419D02*
Y38115D01*
X34302Y38116*
Y38762*
X34301Y47227D02*
Y47990D01*
Y57035D02*
X33763D01*
X33217Y56489*
Y54518*
X32949Y54250*
X34302Y38762D02*
X33340Y39724D01*
X35157Y710D02*
X38531D01*
X39002Y1181*
X38797Y10507D02*
Y10446D01*
X39098Y10144*
X39518*
X39963Y9699*
X38797Y10507D02*
X38434Y10144D01*
X34746*
X34300Y9699*
X39002Y1181D02*
X39248D01*
X39605Y823*
X44307*
X44665Y1181*
X39002Y1634D02*
Y1181D01*
Y11442D02*
Y10712D01*
X38797Y10507*
X39002Y48951D02*
Y50674D01*
Y48951D02*
X38557Y48506D01*
X34816*
X34301Y47990*
X39004Y19758D02*
Y20731D01*
X39002Y20733*
Y21250*
X39005Y39430D02*
X39228Y39207D01*
X39523*
X39968Y38762*
X39005Y39430D02*
Y40081D01*
X39002Y40083*
Y40866*
X39005Y39430D02*
X38782Y39207D01*
X34747*
X34302Y38762*
X39010Y29463D02*
X38565Y29018D01*
X34491*
X34139Y28665*
X39010Y29463D02*
Y30378D01*
X39002Y30386*
Y31058*
X39908Y28795D02*
X39685Y29018D01*
X39455*
X39010Y29463*
X39908Y28795D02*
X40131Y29018D01*
X44204*
X44650Y29463*
X39908Y28795D02*
Y28195D01*
X39963Y28140*
Y27611*
Y9699D02*
Y7994D01*
Y18799D02*
X40564Y19399D01*
X44211*
X44580Y19769*
X44656*
X39963Y18799D02*
Y17802D01*
Y18799D02*
X39004Y19758D01*
X39963Y47227D02*
Y48004D01*
X39461Y48506*
X39448*
X39002Y48951*
X39968Y38762D02*
Y38024D01*
X39963Y38020*
Y37419*
X44581Y10144D02*
X40408D01*
X39963Y9699*
X44581Y10144D02*
Y10518D01*
X44665Y10601*
Y11442*
X44581Y10144D02*
X44644Y10081D01*
X44665*
X45626Y9120*
X44650Y29463D02*
Y30464D01*
X44665Y30479*
Y31058*
X44656Y19769D02*
Y20647D01*
X44665Y20656*
Y21250*
Y1181D02*
Y1634D01*
Y40866D02*
Y39993D01*
X44842Y39816*
Y39207*
X45626Y38423*
Y37419*
X44842Y39207D02*
X40414D01*
X39968Y38762*
X45613Y28795D02*
X45836Y29018D01*
X49888*
X50333Y29463*
X45613Y28795D02*
X45390Y29018D01*
X45095*
X44650Y29463*
X45613Y28795D02*
Y28077D01*
X45626Y28063*
Y27611*
Y9120D02*
Y7994D01*
Y18799D02*
Y17802D01*
Y18799D02*
X44656Y19769D01*
X50307Y10101D02*
X49862Y9656D01*
X46161*
X45626Y9120*
X50307Y10101D02*
Y10969D01*
X50327Y10989*
Y11442*
Y1181D02*
X49969Y823D01*
X45022*
X44665Y1181*
X50327D02*
Y1634D01*
Y19760D02*
Y21250D01*
Y19760D02*
X50243D01*
X49882Y19399*
X46226*
X45626Y18799*
X50333Y29463D02*
Y30462D01*
X50327Y30468*
Y31058*
X51288Y9120D02*
Y7994D01*
Y9120D02*
X50307Y10101D01*
X51289Y18799D02*
Y17802D01*
Y18799D02*
X50327Y19760D01*
X51289Y27611D02*
Y28529D01*
X50799Y29018*
X50779*
X50333Y29463*
X55980Y10101D02*
X55535Y9656D01*
X51824*
X51288Y9120*
X55980Y10101D02*
X56425Y9656D01*
X56707*
X56929Y9433*
X55980Y10101D02*
Y10755D01*
X55990Y10765*
Y11442*
Y1170D02*
Y1634D01*
Y1170D02*
X55643Y823D01*
X50685*
X50327Y1181*
X56177Y19399D02*
X56951Y18625D01*
Y17802*
X56177Y19399D02*
Y20609D01*
X55990Y20797*
Y21250*
X56177Y19399D02*
X51889D01*
X51289Y18799*
X56929Y9433D02*
Y8469D01*
X56951Y8447*
Y7994*
X61652Y1181D02*
X61295Y823D01*
X56348*
X56001Y1170*
X55990*
X61652Y1181D02*
Y1634D01*
Y9870D02*
X61439Y9656D01*
X57152*
X56929Y9433*
X61652Y9870D02*
Y11442D01*
X62613Y7994D02*
Y8964D01*
X61708Y9870*
X61652*
X67315Y1634D02*
Y1028D01*
X67110Y823*
X62010*
X61652Y1181*
G54D15*
X1796Y1064D03*
X2438Y2362D03*
X3142Y1156D03*
X3156Y3659D03*
X5370Y6538D03*
X5417Y7266D03*
X6900Y2682D03*
X7638Y8899D03*
X8203Y12172D03*
X8254Y11432D03*
X8255Y1626D03*
X8450Y8004D03*
X8819Y13420D03*
X11015Y16348D03*
X11035Y17074D03*
X11995Y14295D03*
X12006Y3705D03*
X12836Y18372D03*
X13933Y21269D03*
X13935Y1636D03*
X13943Y11442D03*
X13953Y21979D03*
X14057Y8000D03*
X14119Y17812D03*
X14481Y23197D03*
X16297Y7997D03*
X16663Y26884D03*
X16747Y4768D03*
X16748Y26154D03*
X18323Y14475D03*
X18528Y28366D03*
X19584Y31049D03*
X19603Y31786D03*
Y11448D03*
X19615Y21251D03*
X19619Y1617D03*
X19711Y7995D03*
X19731Y27621D03*
X19745Y17809D03*
X20144Y33019D03*
X21260Y24504D03*
X21345Y18074D03*
X21584Y34202D03*
X22014Y29045D03*
Y30517D03*
X22434Y36690D03*
X22452Y35965D03*
X24588Y38133D03*
X25144Y41595D03*
X25224Y1633D03*
X25233Y21261D03*
X25239Y11432D03*
X25240Y40862D03*
X25372Y7989D03*
X25379Y27612D03*
X25394Y17800D03*
X25398Y37420D03*
X25807Y42834D03*
X25811Y30561D03*
X26812Y37643D03*
X26848Y4911D03*
X27251Y18139D03*
X27287Y44132D03*
X28025Y45767D03*
X28042Y46498D03*
X29360Y33965D03*
X29665Y40189D03*
X29714Y24361D03*
X30098Y43815D03*
X30726Y51404D03*
X30875Y21233D03*
X30899Y40866D03*
X30905Y31062D03*
X30931Y11441D03*
X30954Y1633D03*
X31033Y37420D03*
X31060Y27608D03*
X31067Y7994D03*
Y47230D03*
X31088Y17796D03*
X31194Y49257D03*
X31468Y50223D03*
X31470Y52677D03*
X31720Y39215D03*
X32169Y30688D03*
X32229Y10144D03*
X32230Y19399D03*
X32394Y48505D03*
X32673Y28665D03*
X32706Y29663D03*
X32949Y54250D03*
X33046Y37748D03*
X33343Y18096D03*
X33620Y53767D03*
X33749Y56312D03*
X33765Y34008D03*
X34300Y54705D03*
X34622Y31054D03*
X34954Y34440D03*
X34987Y47760D03*
X35121Y31335D03*
X35134Y58570D03*
X35157Y710D03*
X35182Y40308D03*
X35691Y34454D03*
X35931Y29697D03*
X36122Y33047D03*
X36170Y57503D03*
X36535Y11445D03*
X36548Y31062D03*
X36559Y21252D03*
X36560Y1660D03*
X36591Y40862D03*
X36718Y47224D03*
X36734Y37417D03*
X36760Y17810D03*
X36769Y7993D03*
X37089Y33407D03*
X37144Y50213D03*
X37210Y29633D03*
X37249Y27356D03*
X38024Y24432D03*
X38125Y37853D03*
X38214Y18128D03*
X38322Y47447D03*
X38405Y29908D03*
X38465Y28335D03*
X39007Y33069D03*
X39240Y27468D03*
X40096Y34190D03*
X40160Y30109D03*
X41016Y30722D03*
X41032Y4696D03*
X41132Y33450D03*
X41186Y43686D03*
X41838Y47665D03*
X42143Y1610D03*
X42209Y11441D03*
X42243Y40869D03*
X42253Y21249D03*
X42391Y37414D03*
X42397Y17803D03*
X42402Y27612D03*
X42447Y7997D03*
X42805Y30587D03*
X43835Y34176D03*
X43966Y37696D03*
X44041Y18064D03*
X45402Y24432D03*
X47497Y37859D03*
X47866Y1647D03*
X47893Y31058D03*
X47895Y11448D03*
X47918Y21252D03*
X48053Y27612D03*
X48079Y17805D03*
X48107Y7984D03*
X49414Y14833D03*
X49835Y18224D03*
X50130Y4768D03*
X53151Y28057D03*
X53543Y1648D03*
X53547Y21248D03*
X53570Y11443D03*
X53719Y17806D03*
X53762Y7995D03*
X58826Y18253D03*
X59064Y1666D03*
X59195Y11436D03*
X59370Y7995D03*
X64481Y8442D03*
X64876Y1646D03*
X68562Y873D03*
G54D16*
X3156Y1634D03*
Y2362D03*
Y3091D03*
X5026Y1634D03*
Y2362D03*
Y3091D03*
X5987Y6538D03*
Y7266D03*
Y7994D03*
X7857Y6538D03*
Y7266D03*
Y7994D03*
X8819Y1634D03*
Y2362D03*
Y3091D03*
Y11442D03*
Y12170D03*
Y12898D03*
X10689Y1634D03*
Y2362D03*
Y3091D03*
Y11442D03*
Y12170D03*
Y12898D03*
X11650Y6538D03*
Y7266D03*
Y7994D03*
Y16346D03*
Y17074D03*
Y17802D03*
X13520Y6538D03*
Y7266D03*
Y7994D03*
Y16346D03*
Y17074D03*
Y17802D03*
X14481Y1634D03*
Y2362D03*
Y3091D03*
Y11442D03*
Y12170D03*
Y12898D03*
Y21250D03*
Y21978D03*
Y22706D03*
X16352Y1634D03*
Y2362D03*
Y3091D03*
Y11442D03*
Y12170D03*
Y12898D03*
Y21250D03*
Y21978D03*
Y22706D03*
X17313Y6538D03*
Y7266D03*
Y7994D03*
Y16346D03*
Y17074D03*
Y17802D03*
Y26154D03*
Y26882D03*
Y27611D03*
X19183Y6538D03*
Y7266D03*
Y7994D03*
Y16346D03*
Y17074D03*
Y17802D03*
Y26154D03*
Y26882D03*
Y27611D03*
X20144Y1634D03*
Y2362D03*
Y3091D03*
Y11442D03*
Y12170D03*
Y12898D03*
Y21250D03*
Y21978D03*
Y22706D03*
Y31058D03*
Y31786D03*
Y32515D03*
X22014Y1634D03*
Y2362D03*
Y3091D03*
Y11442D03*
Y12170D03*
Y12898D03*
Y21250D03*
Y21978D03*
Y22706D03*
Y31058D03*
Y31786D03*
Y32515D03*
X22975Y6538D03*
Y7266D03*
Y7994D03*
X22976Y16346D03*
Y17074D03*
Y17802D03*
Y26154D03*
Y26882D03*
Y27611D03*
Y35962D03*
Y36690D03*
Y37419D03*
X24845Y6538D03*
Y7266D03*
Y7994D03*
X24846Y16346D03*
Y17074D03*
Y17802D03*
Y26154D03*
Y26882D03*
Y27611D03*
Y35962D03*
Y36690D03*
Y37419D03*
X25807Y1634D03*
Y2362D03*
Y3091D03*
Y11442D03*
Y12170D03*
Y12898D03*
Y21250D03*
Y21978D03*
Y22706D03*
Y31058D03*
Y31786D03*
Y32515D03*
Y40866D03*
Y41594D03*
Y42322D03*
X27677Y1634D03*
Y2362D03*
Y3091D03*
Y11442D03*
Y12170D03*
Y12898D03*
Y21250D03*
Y21978D03*
Y22706D03*
Y31058D03*
Y31786D03*
Y32515D03*
Y40866D03*
Y41594D03*
Y42322D03*
X28638Y6538D03*
Y7266D03*
Y7994D03*
Y16346D03*
Y17074D03*
Y17802D03*
Y26154D03*
Y26882D03*
Y27611D03*
Y35962D03*
Y36690D03*
Y37419D03*
Y45770D03*
Y46498D03*
Y47227D03*
X30508Y6538D03*
Y7266D03*
Y7994D03*
Y16346D03*
Y17074D03*
Y17802D03*
Y26154D03*
Y26882D03*
Y27611D03*
Y35962D03*
Y36690D03*
Y37419D03*
Y45770D03*
Y46498D03*
Y47227D03*
X31469Y1634D03*
Y2362D03*
Y3091D03*
Y11442D03*
Y12170D03*
Y12898D03*
Y21250D03*
Y21978D03*
Y22706D03*
Y31058D03*
Y31786D03*
Y32515D03*
X31470Y40866D03*
Y41594D03*
Y42322D03*
Y50674D03*
Y51402D03*
Y52131D03*
X33339Y1634D03*
Y2362D03*
Y3091D03*
Y11442D03*
Y12170D03*
Y12898D03*
Y21250D03*
Y21978D03*
Y22706D03*
Y31058D03*
Y31786D03*
Y32515D03*
X33340Y40866D03*
Y41594D03*
Y42322D03*
Y50674D03*
Y51402D03*
Y52131D03*
X34300Y6538D03*
Y7266D03*
Y7994D03*
X34301Y16346D03*
Y17074D03*
Y17802D03*
Y26154D03*
Y26882D03*
Y27611D03*
Y35962D03*
Y36690D03*
Y37419D03*
Y45770D03*
Y46498D03*
Y47227D03*
Y55578D03*
Y56306D03*
Y57035D03*
X36170Y6538D03*
Y7266D03*
Y7994D03*
X36171Y16346D03*
Y17074D03*
Y17802D03*
Y26154D03*
Y26882D03*
Y27611D03*
Y35962D03*
Y36690D03*
Y37419D03*
Y45770D03*
Y46498D03*
Y47227D03*
Y55578D03*
Y56306D03*
Y57035D03*
X37132Y1634D03*
Y2362D03*
Y3091D03*
Y11442D03*
Y12170D03*
Y12898D03*
Y21250D03*
Y21978D03*
Y22706D03*
Y31058D03*
Y31786D03*
Y32515D03*
Y40866D03*
Y41594D03*
Y42322D03*
Y50674D03*
Y51402D03*
Y52131D03*
X39002Y1634D03*
Y2362D03*
Y3091D03*
Y11442D03*
Y12170D03*
Y12898D03*
Y21250D03*
Y21978D03*
Y22706D03*
Y31058D03*
Y31786D03*
Y32515D03*
Y40866D03*
Y41594D03*
Y42322D03*
Y50674D03*
Y51402D03*
Y52131D03*
X39963Y6538D03*
Y7266D03*
Y7994D03*
Y16346D03*
Y17074D03*
Y17802D03*
Y26154D03*
Y26882D03*
Y27611D03*
Y35962D03*
Y36690D03*
Y37419D03*
Y45770D03*
Y46498D03*
Y47227D03*
X41833Y6538D03*
Y7266D03*
Y7994D03*
Y16346D03*
Y17074D03*
Y17802D03*
Y26154D03*
Y26882D03*
Y27611D03*
Y35962D03*
Y36690D03*
Y37419D03*
Y45770D03*
Y46498D03*
Y47227D03*
X42794Y1634D03*
Y2362D03*
Y3091D03*
Y11442D03*
Y12170D03*
Y12898D03*
Y21250D03*
Y21978D03*
Y22706D03*
Y31058D03*
Y31786D03*
Y32515D03*
X42795Y40866D03*
Y41594D03*
Y42322D03*
X44665Y1634D03*
Y2362D03*
Y3091D03*
Y11442D03*
Y12170D03*
Y12898D03*
Y21250D03*
Y21978D03*
Y22706D03*
Y31058D03*
Y31786D03*
Y32515D03*
Y40866D03*
Y41594D03*
Y42322D03*
X45626Y6538D03*
Y7266D03*
Y7994D03*
Y16346D03*
Y17074D03*
Y17802D03*
Y26154D03*
Y26882D03*
Y27611D03*
Y35962D03*
Y36690D03*
Y37419D03*
X47496Y6538D03*
Y7266D03*
Y7994D03*
Y16346D03*
Y17074D03*
Y17802D03*
Y26154D03*
Y26882D03*
Y27611D03*
Y35962D03*
Y36690D03*
Y37419D03*
X48457Y1634D03*
Y2362D03*
Y3091D03*
Y11442D03*
Y12170D03*
Y12898D03*
Y21250D03*
Y21978D03*
Y22706D03*
Y31058D03*
Y31786D03*
Y32515D03*
X50327Y1634D03*
Y2362D03*
Y3091D03*
Y11442D03*
Y12170D03*
Y12898D03*
Y21250D03*
Y21978D03*
Y22706D03*
Y31058D03*
Y31786D03*
Y32515D03*
X51288Y6538D03*
Y7266D03*
Y7994D03*
X51289Y16346D03*
Y17074D03*
Y17802D03*
Y26154D03*
Y26882D03*
Y27611D03*
X53158Y6538D03*
Y7266D03*
Y7994D03*
X53159Y16346D03*
Y17074D03*
Y17802D03*
Y26154D03*
Y26882D03*
Y27611D03*
X54120Y1634D03*
Y2362D03*
Y3091D03*
Y11442D03*
Y12170D03*
Y12898D03*
Y21250D03*
Y21978D03*
Y22706D03*
X55990Y1634D03*
Y2362D03*
Y3091D03*
Y11442D03*
Y12170D03*
Y12898D03*
Y21250D03*
Y21978D03*
Y22706D03*
X56951Y6538D03*
Y7266D03*
Y7994D03*
Y16346D03*
Y17074D03*
Y17802D03*
X58821Y6538D03*
Y7266D03*
Y7994D03*
Y16346D03*
Y17074D03*
Y17802D03*
X59782Y1634D03*
Y2362D03*
Y3091D03*
Y11442D03*
Y12170D03*
Y12898D03*
X61652Y1634D03*
Y2362D03*
Y3091D03*
Y11442D03*
Y12170D03*
Y12898D03*
X62613Y6538D03*
Y7266D03*
Y7994D03*
X64483Y6538D03*
Y7266D03*
Y7994D03*
X65445Y1634D03*
Y2362D03*
Y3091D03*
X67315Y1634D03*
Y2362D03*
Y3091D03*
M02*
