*
G04 Job   : E:\BOULED\DESIGN\LED_PANEL\PCB\PCB.pcb*
G04 User  : DESKTOP-D6MOGOB:alexis*
G04 Layer : DrillDrawingThrough.gdo*
G04 Date  : Sat Dec 29 22:08:19 2018*
G04 Mentor Graphics Example Gerber Output Definition*
%ICAS*%
%MOIN*%
%FSLAX24Y24*%
%OFA0.0000B0.0000*%
G90*
G74*
%ADD10C,0.00500*%
G01*
G54D10*
Y-7500D02*
X59500D01*
Y0*
X0*
Y-7500*
Y-4000D02*
X59500D01*
X0Y-2000D02*
X59500D01*
X1430Y-3000D02*
X1514Y-3069D01*
X1516Y-3071*
Y-3073*
X1517Y-3075*
Y-3076*
X1518Y-3077*
Y-3180*
X1517Y-3182*
X1516Y-3185*
Y-3186*
X1514Y-3188*
X1430Y-3257*
X1428Y-3258*
X1427*
X1426*
X1425Y-3259*
X1424*
X1255*
X1253Y-3258*
X1251*
X1249Y-3257*
X1165Y-3188*
X1163Y-3186*
X1162Y-3184*
Y-3183*
X1163Y-3179*
X1165Y-3176*
X1167Y-3173*
X1170Y-3171*
X1173*
X1177Y-3172*
X1258Y-3238*
X1420*
X1498Y-3175*
Y-3082*
X1420Y-3019*
X1255*
X1253*
X1251Y-3018*
X1249Y-3017*
X1165Y-2949*
X1164Y-2948*
X1163Y-2947*
X1162Y-2946*
X1161Y-2942*
Y-2940*
Y-2837*
Y-2835*
X1162Y-2833*
X1163Y-2832*
X1164Y-2831*
X1165Y-2829*
X1249Y-2761*
X1251Y-2760*
X1253*
Y-2759*
X1255*
X1424*
X1426*
X1427Y-2760*
X1428*
X1430Y-2761*
X1493Y-2812*
X1495Y-2815*
X1496Y-2818*
Y-2821*
X1494Y-2825*
X1492Y-2827*
X1488Y-2829*
X1484Y-2830*
X1481Y-2829*
X1421Y-2779*
X1258*
X1181Y-2842*
Y-2935*
X1258Y-2999*
X1424*
X1426*
X1428Y-3000*
X1430*
X1633Y-3180D02*
Y-2905D01*
X1634Y-2901*
X1636Y-2898*
X1640Y-2896*
X1643Y-2895*
X1647Y-2896*
X1651Y-2898*
X1653Y-2901*
X1654Y-2905*
Y-3175*
X1731Y-3238*
X1893*
X1970Y-3175*
Y-2905*
X1971Y-2901*
X1973Y-2898*
X1977Y-2896*
X1980Y-2895*
X1984Y-2896*
X1987Y-2898*
X1989Y-2901*
X1990Y-2905*
Y-3454*
Y-3458*
X1987Y-3461*
X1984Y-3463*
X1980Y-3464*
X1643*
X1640Y-3463*
X1637Y-3461*
X1635Y-3458*
Y-3454*
Y-3450*
X1637Y-3447*
X1640Y-3445*
X1643Y-3444*
X1970*
Y-3202*
X1902Y-3257*
X1900Y-3258*
X1898*
X1897Y-3259*
X1896*
X1728*
X1726Y-3258*
X1724*
X1722Y-3257*
X1638Y-3188*
X1637Y-3187*
X1636*
X1635Y-3185*
X1634Y-3182*
X1633Y-3180*
X1894Y1064D02*
G03X1796Y1162I98D01*
X1698Y1064J98*
X1796Y965I98*
X1894Y1064J99*
G01X1968D02*
G03X1796Y1235I172D01*
X1624Y1064J171*
X1796Y892I172*
X1968Y1064J172*
G01X2300Y-6500D02*
X2700D01*
X2331Y-5749D02*
X2332Y-5753D01*
X2334Y-5755*
X2337Y-5757*
X2341*
X2345*
X2348Y-5755*
X2351Y-5753*
X2352Y-5749*
Y-5519*
X2668*
Y-5749*
X2669Y-5753*
X2671Y-5755*
X2675Y-5757*
X2678*
X2682*
X2685Y-5755*
X2687Y-5753*
X2688Y-5749*
Y-5269*
X2687Y-5265*
X2685Y-5262*
X2682Y-5261*
X2678Y-5260*
X2675Y-5261*
X2671Y-5262*
X2669Y-5265*
X2668Y-5269*
Y-5499*
X2352*
Y-5269*
X2351Y-5265*
X2348Y-5262*
X2345Y-5261*
X2341Y-5260*
X2337Y-5261*
X2334Y-5262*
X2332Y-5265*
X2331Y-5269*
Y-5749*
X2463Y-2945D02*
X2462Y-2943D01*
Y-2940*
X2460Y-2937*
X2409Y-2903*
X2406Y-2902*
X2403Y-2901*
X2336*
X2333Y-2902*
X2331Y-2903*
X2285Y-2934*
X2240Y-2903*
X2237Y-2902*
X2235Y-2901*
X2167*
X2164Y-2902*
X2162Y-2903*
X2127Y-2927*
Y-2911*
X2126Y-2907*
X2123Y-2905*
X2120Y-2903*
X2116Y-2902*
X2112Y-2903*
X2109Y-2905*
X2107Y-2907*
X2106Y-2911*
Y-3248*
X2107Y-3252*
X2109Y-3255*
X2112Y-3256*
X2116Y-3257*
X2120Y-3256*
X2123Y-3255*
X2126Y-3252*
X2127Y-3248*
Y-2950*
X2169Y-2921*
X2232*
X2275Y-2950*
Y-3249*
Y-3253*
X2278Y-3255*
X2281Y-3257*
X2285*
X2289*
X2292Y-3255*
X2294Y-3253*
X2295Y-3249*
Y-2951*
X2338Y-2921*
X2401*
X2443Y-2950*
Y-3249*
X2444Y-3253*
X2446Y-3255*
X2450Y-3257*
X2453*
X2457*
X2460Y-3255*
X2462Y-3253*
X2463Y-3249*
Y-2945*
X2500Y-6725D02*
X2725Y-6500D01*
X2500Y-6275*
X2275Y-6500*
X2500Y-6725*
Y-6700D02*
Y-6300D01*
X2536Y2362D02*
G03X2438Y2460I98D01*
X2340Y2362J98*
X2438Y2264I98*
X2536Y2362J98*
G01X2597Y-2980D02*
X2691Y-2917D01*
X2819*
X2915Y-3014*
Y-3141*
X2819Y-3238*
X2691*
X2598Y-3175*
X2597Y-2980*
X2610Y2362D02*
G03X2438Y2534I172D01*
X2266Y2362J172*
X2438Y2190I172*
X2610Y2362J172*
G01X2629Y-4500D02*
G03X2500Y-4371I129D01*
X2371Y-4500J129*
X2500Y-4629I129*
X2629Y-4500J129*
G01X2725D02*
G03X2500Y-4275I225D01*
X2275Y-4500J225*
X2500Y-4725I225*
X2725Y-4500J225*
G01X2935Y-3009D02*
X2934Y-3007D01*
Y-3004*
X2933Y-3001*
X2831Y-2899*
X2828Y-2897*
X2826*
X2824Y-2896*
X2689*
X2686Y-2897*
X2683Y-2898*
X2597Y-2956*
Y-2770*
Y-2767*
X2594Y-2764*
X2591Y-2762*
X2587*
X2583*
X2580Y-2764*
X2578Y-2767*
X2577Y-2770*
Y-3249*
X2578Y-3253*
X2581Y-3255*
X2584Y-3257*
X2587Y-3258*
X2591Y-3257*
X2595Y-3255*
X2597Y-3253*
X2598Y-3249*
Y-3200*
X2683Y-3257*
X2686Y-3258*
X2689Y-3259*
X2824*
X2826Y-3258*
X2828*
X2831Y-3256*
X2933Y-3153*
X2934Y-3151*
Y-3149*
X2935Y-3148*
Y-3146*
Y-3009*
X3070Y-2984D02*
Y-3177D01*
X3131Y-3239*
X3324*
X3386Y-3177*
Y-2984*
X3324Y-2922*
X3131*
X3070Y-2984*
X3240Y1156D02*
G03X3142Y1254I98D01*
X3044Y1156J98*
X3142Y1058I98*
X3240Y1156J98*
G01X3254Y3659D02*
G03X3156Y3758I98D01*
X3058Y3659J99*
X3156Y3561I98*
X3254Y3659J98*
G01X3314Y1156D02*
G03X3142Y1328I172D01*
X2970Y1156J172*
X3142Y984I172*
X3314Y1156J172*
G01X3328Y3659D02*
G03X3156Y3831I172D01*
X2984Y3659J172*
X3156Y3488I172*
X3328Y3659J171*
G01X3329Y-3259D02*
X3127D01*
X3125*
X3124Y-3258*
X3122*
X3119Y-3256*
X3052Y-3189*
X3050Y-3186*
X3049Y-3184*
Y-3181*
Y-2979*
Y-2977*
X3050Y-2974*
X3052Y-2971*
X3119Y-2904*
X3122Y-2903*
X3124Y-2902*
X3125*
X3127Y-2901*
X3329Y-2902*
X3331*
X3333Y-2903*
X3336Y-2904*
X3404Y-2971*
X3405Y-2974*
Y-2976*
X3406Y-2977*
Y-2979*
Y-3181*
Y-3184*
X3405Y-3185*
X3404Y-3189*
X3336Y-3256*
X3333Y-3258*
X3331*
X3329Y-3259*
X3593Y-2759D02*
X3589Y-2760D01*
X3587Y-2762*
X3585Y-2765*
Y-2769*
Y-2773*
X3587Y-2776*
X3589Y-2778*
X3593Y-2779*
X3680*
Y-3238*
X3593*
X3589Y-3239*
X3587Y-3241*
X3585Y-3245*
Y-3249*
Y-3252*
X3587Y-3256*
X3589Y-3258*
X3593Y-3259*
X3788*
X3791Y-3258*
X3794Y-3256*
X3796Y-3252*
Y-3249*
Y-3245*
X3794Y-3241*
X3791Y-3239*
X3788Y-3238*
X3700*
Y-2769*
X3699Y-2765*
X3697Y-2762*
X3694Y-2760*
X3690Y-2759*
X3593*
X5469Y6538D02*
G03X5370Y6636I99D01*
X5272Y6538J98*
X5370Y6440I98*
X5469Y6538J98*
G01X5515Y7266D02*
G03X5417Y7364I98D01*
X5319Y7266J98*
X5417Y7168I98*
X5515Y7266J98*
G01X5542Y6538D02*
G03X5370Y6710I172D01*
X5199Y6538J172*
X5370Y6366I171*
X5542Y6538J172*
G01X5589Y7266D02*
G03X5417Y7438I172D01*
X5245Y7266J172*
X5417Y7094I172*
X5589Y7266J172*
G01X6998Y2682D02*
G03X6900Y2781I98D01*
X6802Y2682J99*
X6900Y2584I98*
X6998Y2682J98*
G01X7072D02*
G03X6900Y2854I172D01*
X6728Y2682J172*
X6900Y2511I172*
X7072Y2682J171*
G01X7737Y8899D02*
G03X7638Y8998I99D01*
X7540Y8899J99*
X7638Y8801I98*
X7737Y8899J98*
G01X7810D02*
G03X7638Y9071I172D01*
X7467Y8899J172*
X7638Y8728I171*
X7810Y8899J171*
G01X7839Y4724D02*
X8527D01*
X8183Y4356D02*
X8552Y4724D01*
X8183Y5093*
X7814Y4724*
X8183Y4356*
Y4381D02*
Y5068D01*
X8301Y12172D02*
G03X8203Y12271I98D01*
X8104Y12172J99*
X8203Y12074I99*
X8301Y12172J98*
G01X8352Y11432D02*
G03X8254Y11531I98D01*
X8156Y11432J99*
X8254Y11334I98*
X8352Y11432J98*
G01X8354Y1626D02*
G03X8255Y1724I99D01*
X8157Y1626J98*
X8255Y1528I98*
X8354Y1626J98*
G01X8374Y12172D02*
G03X8203Y12344I171D01*
X8031Y12172J172*
X8203Y12000I172*
X8374Y12172J172*
G01X8426Y11432D02*
G03X8254Y11604I172D01*
X8082Y11432J172*
X8254Y11261I172*
X8426Y11432J171*
G01X8427Y1626D02*
G03X8255Y1798I172D01*
X8083Y1626J172*
X8255Y1454I172*
X8427Y1626J172*
G01X8548Y8004D02*
G03X8450Y8102I98D01*
X8351Y8004J98*
X8450Y7906I99*
X8548Y8004J98*
G01X8621D02*
G03X8450Y8176I171D01*
X8278Y8004J172*
X8450Y7832I172*
X8621Y8004J172*
G01X8721Y-2779D02*
X8959D01*
X9037Y-2842*
Y-3175*
X8959Y-3238*
X8721*
Y-2779*
X8917Y13420D02*
G03X8819Y13519I98D01*
X8721Y13420J99*
X8819Y13322I98*
X8917Y13420J98*
G01X8962Y-6329D02*
X9046Y-6261D01*
X9048Y-6260*
X9050*
Y-6259*
X9052*
X9221*
X9223*
X9224Y-6260*
X9225*
X9227Y-6261*
X9311Y-6329*
X9313Y-6332*
Y-6334*
X9314Y-6335*
X9315Y-6337*
Y-6680*
X9314Y-6682*
X9313Y-6685*
Y-6686*
X9311Y-6688*
X9227Y-6757*
X9225*
X9224Y-6758*
X9223*
X9222Y-6759*
X9221*
X9052*
X9050Y-6758*
X9048*
X9046Y-6757*
X8962Y-6688*
X8961Y-6687*
X8960*
X8959Y-6685*
X8958Y-6682*
Y-6680*
Y-6337*
Y-6335*
X8959Y-6334*
X8960Y-6332*
X8962Y-6329*
Y-4329D02*
X9046Y-4261D01*
X9048Y-4260*
X9050*
Y-4259*
X9052*
X9221*
X9223*
X9224Y-4260*
X9225*
X9227Y-4261*
X9311Y-4329*
X9313Y-4332*
Y-4334*
X9314Y-4335*
X9315Y-4337*
Y-4680*
X9314Y-4682*
X9313Y-4685*
Y-4686*
X9311Y-4688*
X9227Y-4757*
X9225*
X9224Y-4758*
X9223*
X9222Y-4759*
X9221*
X9052*
X9050Y-4758*
X9048*
X9046Y-4757*
X8962Y-4688*
X8961Y-4687*
X8960*
X8959Y-4685*
X8958Y-4682*
Y-4680*
Y-4337*
Y-4335*
X8959Y-4334*
X8960Y-4332*
X8962Y-4329*
X8969Y-2761D02*
X8967Y-2760D01*
X8965Y-2759*
X8963*
X8710*
X8706Y-2760*
X8703Y-2762*
X8701Y-2765*
X8700Y-2769*
Y-3249*
X8701Y-3253*
X8703Y-3255*
X8706Y-3258*
X8710Y-3259*
X8963*
X8965*
X8966Y-3258*
X8967*
X8969Y-3257*
X9054Y-3188*
X9055Y-3186*
X9056Y-3185*
X9057Y-3183*
Y-3180*
Y-2837*
Y-2835*
X9056Y-2833*
Y-2832*
X9055Y-2831*
X9054*
Y-2830*
X8969Y-2761*
X8971Y-5329D02*
X9055Y-5261D01*
X9057Y-5260*
X9059*
Y-5259*
X9061*
X9230*
X9232*
X9233Y-5260*
X9234*
X9236Y-5261*
X9320Y-5329*
X9322Y-5332*
Y-5334*
X9323Y-5335*
X9324Y-5337*
Y-5680*
X9323Y-5682*
X9322Y-5685*
Y-5686*
X9320Y-5688*
X9236Y-5757*
X9234*
X9233Y-5758*
X9232*
X9231Y-5759*
X9230*
X9061*
X9059Y-5758*
X9057*
X9055Y-5757*
X8971Y-5688*
X8970Y-5687*
X8969*
X8968Y-5685*
X8967Y-5682*
Y-5680*
Y-5337*
Y-5335*
X8968Y-5334*
X8969Y-5332*
X8971Y-5329*
X8978Y-6342D02*
Y-6675D01*
X9008Y-6700*
X9250Y-6306*
X9217Y-6279*
X9055*
X8978Y-6342*
Y-4342D02*
Y-4675D01*
X9008Y-4700*
X9250Y-4306*
X9217Y-4279*
X9055*
X8978Y-4342*
X8987Y-5342D02*
Y-5675D01*
X9017Y-5700*
X9259Y-5306*
X9226Y-5279*
X9064*
X8987Y-5342*
X8991Y13420D02*
G03X8819Y13592I172D01*
X8647Y13420J172*
X8819Y13249I172*
X8991Y13420J171*
G01X9024Y-6713D02*
X9055Y-6738D01*
X9217*
X9295Y-6675*
Y-6342*
X9265Y-6319*
X9024Y-6713*
Y-4713D02*
X9055Y-4738D01*
X9217*
X9295Y-4675*
Y-4342*
X9265Y-4319*
X9024Y-4713*
X9033Y-5713D02*
X9064Y-5738D01*
X9226*
X9304Y-5675*
Y-5342*
X9274Y-5319*
X9033Y-5713*
X9394Y-3259D02*
X9398Y-3258D01*
X9400Y-3256*
X9401Y-3252*
X9402Y-3249*
X9401Y-3245*
X9400Y-3242*
X9398Y-3240*
X9394Y-3239*
X9341*
Y-2912*
X9340Y-2908*
X9338Y-2905*
X9336Y-2902*
X9332*
X9270*
X9266*
X9264Y-2905*
X9262Y-2908*
Y-2912*
Y-2915*
X9264Y-2918*
X9266Y-2921*
X9270Y-2922*
X9322*
Y-3239*
X9270*
X9266Y-3240*
X9264Y-3242*
X9262Y-3245*
Y-3249*
Y-3252*
X9264Y-3256*
X9266Y-3258*
X9270Y-3259*
X9394*
X9435Y-4329D02*
X9519Y-4261D01*
X9521Y-4260*
X9522*
X9523Y-4259*
X9525*
X9693*
X9695*
X9696*
Y-4260*
X9698*
X9700Y-4261*
X9784Y-4329*
X9785Y-4332*
X9786Y-4334*
X9787Y-4335*
Y-4337*
Y-4680*
Y-4682*
X9786Y-4685*
X9785Y-4686*
X9784Y-4688*
X9700Y-4757*
X9698*
X9697Y-4758*
X9696*
X9695Y-4759*
X9693*
X9525*
X9523Y-4758*
X9521*
X9519Y-4757*
X9435Y-4688*
X9434Y-4687*
X9433*
X9432Y-4685*
X9431Y-4682*
X9430Y-4680*
Y-4337*
X9431Y-4335*
X9432Y-4334*
X9433Y-4332*
X9435Y-4329*
X9451Y-4342D02*
Y-4675D01*
X9480Y-4700*
X9722Y-4306*
X9689Y-4279*
X9528*
X9451Y-4342*
X9496Y-4713D02*
X9528Y-4738D01*
X9689*
X9767Y-4675*
Y-4342*
X9738Y-4319*
X9496Y-4713*
X9511Y-5738D02*
X9507Y-5739D01*
X9505Y-5741*
X9504Y-5745*
X9503Y-5749*
X9504Y-5752*
X9505Y-5756*
X9507Y-5758*
X9511Y-5759*
X9706*
X9710Y-5758*
X9713Y-5756*
X9714Y-5752*
X9715Y-5749*
X9714Y-5745*
X9713Y-5741*
X9710Y-5739*
X9706Y-5738*
X9618*
Y-5269*
Y-5265*
X9616Y-5263*
X9614Y-5261*
X9610*
X9608Y-5260*
X9605*
X9603Y-5261*
X9601Y-5263*
X9504Y-5400*
X9502Y-5404*
Y-5407*
X9504Y-5410*
X9506Y-5413*
X9509Y-5415*
X9513Y-5416*
X9515*
X9516Y-5415*
X9519Y-5412*
X9599Y-5300*
Y-5738*
X9511*
X9519Y-6757D02*
X9434Y-6688D01*
X9432Y-6686*
X9431Y-6683*
X9432Y-6679*
X9434Y-6676*
X9436Y-6673*
X9439Y-6671*
X9443*
X9446Y-6672*
X9528Y-6738*
X9689*
X9767Y-6675*
Y-6582*
X9690Y-6519*
X9607*
X9603Y-6518*
X9601Y-6516*
X9599Y-6512*
Y-6509*
Y-6505*
X9601Y-6502*
X9603Y-6500*
X9607Y-6499*
X9690*
X9767Y-6435*
Y-6342*
X9689Y-6279*
X9528*
X9446Y-6346*
X9443Y-6347*
X9439Y-6346*
X9436Y-6345*
X9434Y-6342*
X9432Y-6339*
X9431Y-6335*
X9432Y-6332*
X9434Y-6329*
X9519Y-6261*
X9520Y-6260*
X9522*
Y-6259*
X9524*
X9693*
X9695*
X9696Y-6260*
X9698*
X9699Y-6261*
X9784Y-6329*
X9785Y-6332*
X9786Y-6334*
X9787Y-6335*
Y-6337*
Y-6440*
Y-6442*
X9786Y-6445*
X9785Y-6448*
X9784Y-6449*
X9710Y-6509*
X9784Y-6569*
Y-6570*
X9785Y-6571*
X9786*
Y-6572*
X9787Y-6576*
Y-6577*
Y-6680*
Y-6683*
X9786Y-6685*
X9785Y-6687*
X9784Y-6688*
X9699Y-6757*
X9697Y-6758*
X9695*
Y-6759*
X9694*
X9693*
X9524*
X9522Y-6758*
X9520*
X9519Y-6757*
X9628Y-3086D02*
X9721Y-3023D01*
X9851*
X9945Y-3086*
Y-3177*
X9851Y-3239*
X9721*
X9628Y-3177*
Y-3086*
X9945Y-3249D02*
Y-3253D01*
X9948Y-3255*
X9951Y-3257*
X9955*
X9958*
X9961Y-3255*
X9964Y-3253*
X9965Y-3249*
Y-2979*
X9964Y-2977*
Y-2975*
X9963Y-2972*
X9895Y-2904*
X9892Y-2903*
X9890Y-2902*
X9888*
X9617*
X9614*
X9611Y-2905*
X9609Y-2908*
Y-2912*
Y-2915*
X9611Y-2918*
X9614Y-2921*
X9617Y-2922*
X9882*
X9945Y-2984*
Y-3062*
X9859Y-3004*
X9857Y-3003*
X9854*
X9719*
X9715*
X9713Y-3004*
X9612Y-3072*
X9611Y-3073*
Y-3074*
X9610*
X9608Y-3077*
X9607Y-3080*
Y-3182*
X9608Y-3184*
X9610Y-3187*
X9611Y-3188*
X9612Y-3189*
X9713Y-3257*
X9716Y-3258*
X9719Y-3259*
X9854*
X9857Y-3258*
X9859Y-3257*
X9945Y-3200*
Y-3249*
X9992Y-5696D02*
Y-5750D01*
Y-5753*
X9993Y-5754*
X9994Y-5755*
X9995Y-5756*
X9997Y-5758*
X10000Y-5759*
X10055*
X10058Y-5758*
X10060Y-5756*
X10063Y-5754*
Y-5750*
Y-5696*
Y-5692*
X10060Y-5690*
X10058Y-5688*
X10055Y-5687*
X10000*
X9997Y-5688*
X9995Y-5690*
X9994Y-5691*
X9993Y-5692*
X9992Y-5694*
Y-5696*
X10000Y-6696D02*
Y-6750D01*
X10001Y-6753*
Y-6754*
X10002Y-6755*
X10003Y-6756*
X10005Y-6758*
X10008Y-6759*
X10063*
X10066Y-6758*
X10069Y-6756*
X10071Y-6754*
X10072Y-6750*
Y-6696*
X10071Y-6692*
X10069Y-6690*
X10066Y-6688*
X10063Y-6687*
X10008*
X10005Y-6688*
X10003Y-6690*
X10002Y-6691*
X10001Y-6692*
Y-6694*
X10000Y-6696*
Y-4696D02*
Y-4750D01*
X10001Y-4753*
Y-4754*
X10002Y-4755*
X10003Y-4756*
X10005Y-4758*
X10008Y-4759*
X10063*
X10066Y-4758*
X10069Y-4756*
X10071Y-4754*
X10072Y-4750*
Y-4696*
X10071Y-4692*
X10069Y-4690*
X10066Y-4688*
X10063Y-4687*
X10008*
X10005Y-4688*
X10003Y-4690*
X10002Y-4691*
X10001Y-4692*
Y-4694*
X10000Y-4696*
X10008Y-5704D02*
X10047D01*
Y-5742*
X10008*
Y-5704*
X10017Y-6704D02*
X10055D01*
Y-6742*
X10017*
Y-6704*
Y-4704D02*
X10055D01*
Y-4742*
X10017*
Y-4704*
X10373Y-5431D02*
X10371D01*
X10369Y-5432*
X10367Y-5433*
X10299Y-5488*
Y-5279*
X10626*
X10629Y-5278*
X10632Y-5276*
X10634Y-5273*
Y-5269*
Y-5265*
X10632Y-5262*
X10629Y-5260*
X10626Y-5259*
X10288*
X10285Y-5260*
X10282Y-5262*
X10279Y-5265*
X10278Y-5269*
Y-5509*
X10279Y-5513*
X10280Y-5515*
X10282Y-5517*
X10286Y-5518*
X10288Y-5519*
X10290*
X10293*
X10295Y-5517*
X10376Y-5451*
X10538*
X10616Y-5514*
Y-5675*
X10538Y-5738*
X10376*
X10295Y-5672*
X10291Y-5670*
X10288*
X10285Y-5672*
X10282Y-5675*
X10280Y-5678*
Y-5682*
Y-5685*
X10283Y-5688*
X10367Y-5757*
X10369Y-5758*
X10371*
X10373Y-5759*
X10541*
X10543*
Y-5758*
X10544*
X10545*
X10546*
X10548Y-5757*
X10632Y-5688*
X10634Y-5686*
Y-5685*
X10635Y-5682*
X10636Y-5680*
Y-5509*
X10635Y-5507*
X10634Y-5504*
Y-5503*
X10633Y-5502*
X10632Y-5501*
X10548Y-5433*
X10545Y-5432*
X10543Y-5431*
X10541*
X10373*
X10376Y-4757D02*
X10291Y-4688D01*
X10289Y-4686*
X10288Y-4683*
X10289Y-4679*
X10291Y-4676*
X10293Y-4673*
X10296Y-4671*
X10300*
X10303Y-4672*
X10385Y-4738*
X10546*
X10624Y-4675*
Y-4582*
X10547Y-4519*
X10464*
X10460Y-4518*
X10458Y-4516*
X10456Y-4512*
Y-4509*
Y-4505*
X10458Y-4502*
X10460Y-4500*
X10464Y-4499*
X10547*
X10624Y-4435*
Y-4342*
X10546Y-4279*
X10385*
X10303Y-4346*
X10300Y-4347*
X10296Y-4346*
X10293Y-4345*
X10291Y-4342*
X10289Y-4339*
X10288Y-4335*
X10289Y-4332*
X10291Y-4329*
X10376Y-4261*
X10377Y-4260*
X10379*
Y-4259*
X10381*
X10550*
X10552*
X10553Y-4260*
X10555*
X10556Y-4261*
X10641Y-4329*
X10642Y-4332*
X10643Y-4334*
X10644Y-4335*
Y-4337*
Y-4440*
Y-4442*
X10643Y-4445*
X10642Y-4448*
X10641Y-4449*
X10567Y-4509*
X10641Y-4569*
Y-4570*
X10642Y-4571*
X10643*
Y-4572*
X10644Y-4576*
Y-4577*
Y-4680*
Y-4683*
X10643Y-4685*
X10642Y-4687*
X10641Y-4688*
X10556Y-4757*
X10554Y-4758*
X10552*
Y-4759*
X10551*
X10550*
X10381*
X10379Y-4758*
X10377*
X10376Y-4757*
X10436Y-2945D02*
X10435Y-2943D01*
Y-2940*
X10433Y-2937*
X10382Y-2903*
X10379Y-2902*
X10376Y-2901*
X10309*
X10306Y-2902*
X10304Y-2903*
X10258Y-2934*
X10213Y-2903*
X10210Y-2902*
X10208Y-2901*
X10140*
X10137Y-2902*
X10135Y-2903*
X10100Y-2927*
Y-2911*
X10099Y-2907*
X10096Y-2905*
X10093Y-2903*
X10089Y-2902*
X10085Y-2903*
X10082Y-2905*
X10080Y-2907*
X10079Y-2911*
Y-3248*
X10080Y-3252*
X10082Y-3255*
X10085Y-3256*
X10089Y-3257*
X10093Y-3256*
X10096Y-3255*
X10099Y-3252*
X10100Y-3248*
Y-2950*
X10142Y-2921*
X10205*
X10248Y-2950*
Y-3249*
Y-3253*
X10251Y-3255*
X10254Y-3257*
X10258*
X10262*
X10265Y-3255*
X10267Y-3253*
X10268Y-3249*
Y-2951*
X10311Y-2921*
X10374*
X10416Y-2950*
Y-3249*
X10417Y-3253*
X10419Y-3255*
X10423Y-3257*
X10426*
X10430*
X10433Y-3255*
X10435Y-3253*
X10436Y-3249*
Y-2945*
X10557Y-6261D02*
X10641Y-6329D01*
X10642Y-6332*
X10643Y-6334*
X10644Y-6335*
Y-6337*
Y-6406*
Y-6408*
X10643Y-6411*
X10642Y-6413*
X10641Y-6414*
X10308Y-6685*
Y-6738*
X10634*
X10638Y-6739*
X10641Y-6741*
X10642Y-6745*
X10643Y-6749*
X10642Y-6752*
X10641Y-6756*
X10638Y-6758*
X10634Y-6759*
X10297*
X10293Y-6758*
X10291Y-6755*
X10288Y-6753*
X10287Y-6749*
Y-6680*
X10288Y-6679*
X10289Y-6675*
X10290Y-6674*
X10291Y-6673*
X10292Y-6672*
X10624Y-6401*
Y-6342*
X10546Y-6279*
X10385*
X10303Y-6346*
X10300Y-6347*
X10296Y-6346*
X10293Y-6345*
X10291Y-6342*
X10289Y-6339*
Y-6335*
Y-6333*
Y-6332*
X10292Y-6329*
X10376Y-6261*
X10378Y-6260*
X10379*
X10380Y-6259*
X10382*
X10550*
X10552*
X10553*
Y-6260*
X10555*
X10557Y-6261*
X10571Y-2985D02*
Y-3037D01*
X10888*
Y-3017*
X10792Y-2922*
X10664*
X10571Y-2985*
X10662Y-2901D02*
X10797Y-2902D01*
X10799*
X10801Y-2903*
X10804Y-2904*
X10906Y-3005*
Y-3008*
X10907Y-3010*
Y-3011*
X10908Y-3013*
Y-3047*
X10907Y-3050*
X10905Y-3053*
X10902Y-3056*
X10898Y-3057*
X10571*
Y-3177*
X10664Y-3239*
X10792*
X10891Y-3140*
X10894Y-3138*
X10897*
X10901Y-3139*
X10904Y-3142*
X10907Y-3145*
X10908Y-3148*
Y-3152*
X10906Y-3155*
X10804Y-3256*
X10801Y-3258*
X10799*
X10797Y-3259*
X10662*
X10659Y-3258*
X10656Y-3257*
X10556Y-3190*
X10554Y-3189*
X10553Y-3187*
X10551Y-3184*
Y-3182*
Y-2979*
Y-2976*
X10553Y-2974*
X10554Y-2972*
X10555*
X10556Y-2971*
X10656Y-2904*
X10659Y-2902*
X10662Y-2901*
X10756Y-5329D02*
X10840Y-5261D01*
X10842Y-5260*
X10843*
X10844Y-5259*
X10846*
X11014*
X11016*
X11017*
Y-5260*
X11019*
X11021Y-5261*
X11105Y-5329*
X11106Y-5332*
X11107Y-5334*
X11108Y-5335*
Y-5337*
Y-5680*
Y-5682*
X11107Y-5685*
X11106Y-5686*
X11105Y-5688*
X11021Y-5757*
X11019*
X11018Y-5758*
X11017*
X11016Y-5759*
X11014*
X10846*
X10844Y-5758*
X10842*
X10840Y-5757*
X10756Y-5688*
X10755Y-5687*
X10754*
X10753Y-5685*
X10752Y-5682*
X10751Y-5680*
Y-5337*
X10752Y-5335*
X10753Y-5334*
X10754Y-5332*
X10756Y-5329*
X10764Y-4329D02*
X10848Y-4261D01*
X10850Y-4260*
X10852*
Y-4259*
X10854*
X11023*
X11025*
X11026Y-4260*
X11027*
X11029Y-4261*
X11113Y-4329*
X11115Y-4332*
Y-4334*
X11116Y-4335*
X11117Y-4337*
Y-4680*
X11116Y-4682*
X11115Y-4685*
Y-4686*
X11113Y-4688*
X11029Y-4757*
X11027*
X11026Y-4758*
X11025*
X11024Y-4759*
X11023*
X10854*
X10852Y-4758*
X10850*
X10848Y-4757*
X10764Y-4688*
X10763Y-4687*
X10762*
X10761Y-4685*
X10760Y-4682*
Y-4680*
Y-4337*
Y-4335*
X10761Y-4334*
X10762Y-4332*
X10764Y-4329*
X10772Y-5342D02*
Y-5675D01*
X10801Y-5700*
X11043Y-5306*
X11010Y-5279*
X10849*
X10772Y-5342*
X10780Y-4342D02*
Y-4675D01*
X10810Y-4700*
X11052Y-4306*
X11019Y-4279*
X10857*
X10780Y-4342*
X10817Y-5713D02*
X10849Y-5738D01*
X11010*
X11088Y-5675*
Y-5342*
X11059Y-5319*
X10817Y-5713*
X10826Y-4713D02*
X10857Y-4738D01*
X11019*
X11097Y-4675*
Y-4342*
X11067Y-4319*
X10826Y-4713*
X10854Y-6431D02*
X10852D01*
X10850Y-6432*
X10848Y-6433*
X10780Y-6488*
Y-6279*
X11107*
X11110Y-6278*
X11113Y-6276*
X11115Y-6273*
Y-6269*
Y-6265*
X11113Y-6262*
X11110Y-6260*
X11107Y-6259*
X10769*
X10766Y-6260*
X10763Y-6262*
X10760Y-6265*
X10759Y-6269*
Y-6509*
X10760Y-6513*
X10761Y-6515*
X10763Y-6517*
X10767Y-6518*
X10769Y-6519*
X10771*
X10774*
X10776Y-6517*
X10857Y-6451*
X11019*
X11097Y-6514*
Y-6675*
X11019Y-6738*
X10857*
X10776Y-6672*
X10772Y-6670*
X10769*
X10766Y-6672*
X10763Y-6675*
X10761Y-6678*
Y-6682*
Y-6685*
X10764Y-6688*
X10848Y-6757*
X10850Y-6758*
X10852*
X10854Y-6759*
X11022*
X11024*
Y-6758*
X11025*
X11026*
X11027*
X11029Y-6757*
X11113Y-6688*
X11115Y-6686*
Y-6685*
X11116Y-6682*
X11117Y-6680*
Y-6509*
X11116Y-6507*
X11115Y-6504*
Y-6503*
X11114Y-6502*
X11113Y-6501*
X11029Y-6433*
X11026Y-6432*
X11024Y-6431*
X11022*
X10854*
X11113Y16348D02*
G03X11015Y16446I98D01*
X10916Y16348J98*
X11015Y16249I99*
X11113Y16348J99*
G01X11133Y17074D02*
G03X11035Y17172I98D01*
X10936Y17074J98*
X11035Y16976I99*
X11133Y17074J98*
G01X11186Y16348D02*
G03X11015Y16519I171D01*
X10843Y16348J171*
X11015Y16176I172*
X11186Y16348J172*
G01X11206Y17074D02*
G03X11035Y17246I171D01*
X10863Y17074J172*
X11035Y16902I172*
X11206Y17074J172*
G01X11209Y-2769D02*
X11208Y-2765D01*
X11206Y-2762*
X11203Y-2761*
X11199Y-2760*
X11196Y-2761*
X11192Y-2762*
X11190Y-2765*
X11189Y-2769*
Y-2930*
X11067*
X11063Y-2931*
X11061Y-2933*
X11060Y-2937*
X11059Y-2940*
X11060Y-2944*
X11061Y-2947*
X11063Y-2949*
X11067Y-2950*
X11189*
Y-3215*
X11190Y-3217*
X11191Y-3220*
X11192Y-3221*
X11194Y-3222*
X11244Y-3257*
X11246Y-3258*
X11249Y-3259*
X11316*
X11320Y-3258*
X11322Y-3257*
X11372Y-3222*
X11375Y-3220*
X11376Y-3217*
X11375Y-3213*
X11373Y-3210*
X11371Y-3207*
X11368Y-3205*
X11365*
X11361Y-3206*
X11313Y-3238*
X11251*
X11209Y-3210*
Y-2950*
X11333*
X11336Y-2949*
X11339Y-2947*
X11341Y-2944*
Y-2940*
Y-2937*
X11339Y-2933*
X11336Y-2931*
X11333Y-2930*
X11209*
Y-2769*
X11228Y-5329D02*
X11312Y-5261D01*
X11314Y-5260*
X11316*
Y-5259*
X11318*
X11487*
X11489*
X11490Y-5260*
X11491*
X11493Y-5261*
X11577Y-5329*
X11579Y-5332*
Y-5334*
X11580Y-5335*
X11581Y-5337*
Y-5680*
X11580Y-5682*
X11579Y-5685*
Y-5686*
X11577Y-5688*
X11493Y-5757*
X11491*
X11490Y-5758*
X11489*
X11488Y-5759*
X11487*
X11318*
X11316Y-5758*
X11314*
X11312Y-5757*
X11228Y-5688*
X11227Y-5687*
X11226*
X11225Y-5685*
X11224Y-5682*
Y-5680*
Y-5337*
Y-5335*
X11225Y-5334*
X11226Y-5332*
X11228Y-5329*
X11237Y-6329D02*
X11321Y-6261D01*
X11323Y-6260*
X11324*
X11325Y-6259*
X11327*
X11495*
X11497*
X11498*
Y-6260*
X11500*
X11502Y-6261*
X11586Y-6329*
X11587Y-6332*
X11588Y-6334*
X11589Y-6335*
Y-6337*
Y-6680*
Y-6682*
X11588Y-6685*
X11587Y-6686*
X11586Y-6688*
X11502Y-6757*
X11500*
X11499Y-6758*
X11498*
X11497Y-6759*
X11495*
X11327*
X11325Y-6758*
X11323*
X11321Y-6757*
X11237Y-6688*
X11236Y-6687*
X11235*
X11234Y-6685*
X11233Y-6682*
X11232Y-6680*
Y-6337*
X11233Y-6335*
X11234Y-6334*
X11235Y-6332*
X11237Y-6329*
Y-4329D02*
X11321Y-4261D01*
X11323Y-4260*
X11324*
X11325Y-4259*
X11327*
X11495*
X11497*
X11498*
Y-4260*
X11500*
X11502Y-4261*
X11586Y-4329*
X11587Y-4332*
X11588Y-4334*
X11589Y-4335*
Y-4337*
Y-4680*
Y-4682*
X11588Y-4685*
X11587Y-4686*
X11586Y-4688*
X11502Y-4757*
X11500*
X11499Y-4758*
X11498*
X11497Y-4759*
X11495*
X11327*
X11325Y-4758*
X11323*
X11321Y-4757*
X11237Y-4688*
X11236Y-4687*
X11235*
X11234Y-4685*
X11233Y-4682*
X11232Y-4680*
Y-4337*
X11233Y-4335*
X11234Y-4334*
X11235Y-4332*
X11237Y-4329*
X11244Y-5342D02*
Y-5675D01*
X11274Y-5700*
X11516Y-5306*
X11483Y-5279*
X11321*
X11244Y-5342*
X11253Y-6342D02*
Y-6675D01*
X11282Y-6700*
X11524Y-6306*
X11491Y-6279*
X11330*
X11253Y-6342*
Y-4342D02*
Y-4675D01*
X11282Y-4700*
X11524Y-4306*
X11491Y-4279*
X11330*
X11253Y-4342*
X11290Y-5713D02*
X11321Y-5738D01*
X11483*
X11561Y-5675*
Y-5342*
X11531Y-5319*
X11290Y-5713*
X11298Y-6713D02*
X11330Y-6738D01*
X11491*
X11569Y-6675*
Y-6342*
X11540Y-6319*
X11298Y-6713*
Y-4713D02*
X11330Y-4738D01*
X11491*
X11569Y-4675*
Y-4342*
X11540Y-4319*
X11298Y-4713*
X11511Y-2985D02*
Y-3037D01*
X11828*
Y-3017*
X11732Y-2922*
X11604*
X11511Y-2985*
X11602Y-2901D02*
X11737Y-2902D01*
X11739*
X11741Y-2903*
X11744Y-2904*
X11846Y-3005*
Y-3008*
X11847Y-3010*
Y-3011*
X11848Y-3013*
Y-3047*
X11847Y-3050*
X11845Y-3053*
X11842Y-3056*
X11838Y-3057*
X11511*
Y-3177*
X11604Y-3239*
X11732*
X11831Y-3140*
X11834Y-3138*
X11837*
X11841Y-3139*
X11844Y-3142*
X11847Y-3145*
X11848Y-3148*
Y-3152*
X11846Y-3155*
X11744Y-3256*
X11741Y-3258*
X11739*
X11737Y-3259*
X11602*
X11599Y-3258*
X11596Y-3257*
X11496Y-3190*
X11494Y-3189*
X11493Y-3187*
X11491Y-3184*
Y-3182*
Y-2979*
Y-2976*
X11493Y-2974*
X11494Y-2972*
X11495*
X11496Y-2971*
X11596Y-2904*
X11599Y-2902*
X11602Y-2901*
X11701Y-5329D02*
X11785Y-5261D01*
X11787Y-5260*
X11788*
X11789Y-5259*
X11791*
X11959*
X11961*
X11962*
Y-5260*
X11964*
X11966Y-5261*
X12050Y-5329*
X12051Y-5332*
X12052Y-5334*
X12053Y-5335*
Y-5337*
Y-5680*
Y-5682*
X12052Y-5685*
X12051Y-5686*
X12050Y-5688*
X11966Y-5757*
X11964*
X11963Y-5758*
X11962*
X11961Y-5759*
X11959*
X11791*
X11789Y-5758*
X11787*
X11785Y-5757*
X11701Y-5688*
X11700Y-5687*
X11699*
X11698Y-5685*
X11697Y-5682*
X11696Y-5680*
Y-5337*
X11697Y-5335*
X11698Y-5334*
X11699Y-5332*
X11701Y-5329*
X11709Y-6329D02*
X11793Y-6261D01*
X11795Y-6260*
X11797*
Y-6259*
X11799*
X11968*
X11970*
X11971Y-6260*
X11972*
X11974Y-6261*
X12058Y-6329*
X12060Y-6332*
Y-6334*
X12061Y-6335*
X12062Y-6337*
Y-6680*
X12061Y-6682*
X12060Y-6685*
Y-6686*
X12058Y-6688*
X11974Y-6757*
X11972*
X11971Y-6758*
X11970*
X11969Y-6759*
X11968*
X11799*
X11797Y-6758*
X11795*
X11793Y-6757*
X11709Y-6688*
X11708Y-6687*
X11707*
X11706Y-6685*
X11705Y-6682*
Y-6680*
Y-6337*
Y-6335*
X11706Y-6334*
X11707Y-6332*
X11709Y-6329*
Y-4329D02*
X11793Y-4261D01*
X11795Y-4260*
X11797*
Y-4259*
X11799*
X11968*
X11970*
X11971Y-4260*
X11972*
X11974Y-4261*
X12058Y-4329*
X12060Y-4332*
Y-4334*
X12061Y-4335*
X12062Y-4337*
Y-4680*
X12061Y-4682*
X12060Y-4685*
Y-4686*
X12058Y-4688*
X11974Y-4757*
X11972*
X11971Y-4758*
X11970*
X11969Y-4759*
X11968*
X11799*
X11797Y-4758*
X11795*
X11793Y-4757*
X11709Y-4688*
X11708Y-4687*
X11707*
X11706Y-4685*
X11705Y-4682*
Y-4680*
Y-4337*
Y-4335*
X11706Y-4334*
X11707Y-4332*
X11709Y-4329*
X11717Y-5342D02*
Y-5675D01*
X11746Y-5700*
X11988Y-5306*
X11955Y-5279*
X11794*
X11717Y-5342*
X11725Y-6342D02*
Y-6675D01*
X11755Y-6700*
X11997Y-6306*
X11964Y-6279*
X11802*
X11725Y-6342*
Y-4342D02*
Y-4675D01*
X11755Y-4700*
X11997Y-4306*
X11964Y-4279*
X11802*
X11725Y-4342*
X11762Y-5713D02*
X11794Y-5738D01*
X11955*
X12033Y-5675*
Y-5342*
X12004Y-5319*
X11762Y-5713*
X11771Y-6713D02*
X11802Y-6738D01*
X11964*
X12042Y-6675*
Y-6342*
X12012Y-6319*
X11771Y-6713*
Y-4713D02*
X11802Y-4738D01*
X11964*
X12042Y-4675*
Y-4342*
X12012Y-4319*
X11771Y-4713*
X11962Y-3249D02*
X11963Y-3253D01*
X11965Y-3255*
X11968Y-3257*
X11972*
X11976*
X11979Y-3255*
X11982Y-3253*
X11983Y-3249*
Y-2984*
X12060Y-2922*
X12221*
X12303Y-2987*
X12306Y-2989*
X12310Y-2988*
X12313Y-2987*
X12316Y-2984*
X12318Y-2981*
Y-2977*
Y-2974*
X12316Y-2971*
X12231Y-2904*
X12229Y-2903*
X12227Y-2902*
X12225*
X12056*
X12054*
X12053Y-2903*
X12051Y-2904*
X11983Y-2958*
Y-2912*
X11982Y-2908*
X11979Y-2905*
X11976Y-2904*
X11972Y-2903*
X11968Y-2904*
X11965Y-2905*
X11963Y-2908*
X11962Y-2912*
Y-2978*
Y-2979*
Y-2981*
Y-3249*
X12093Y14295D02*
G03X11995Y14394I98D01*
X11897Y14295J99*
X11995Y14197I98*
X12093Y14295J98*
G01X12104Y3705D02*
G03X12006Y3804I98D01*
X11908Y3705J99*
X12006Y3607I98*
X12104Y3705J98*
G01X12167Y14295D02*
G03X11995Y14467I172D01*
X11823Y14295J172*
X11995Y14124I172*
X12167Y14295J171*
G01X12178Y3705D02*
G03X12006Y3877I172D01*
X11834Y3705J172*
X12006Y3533I172*
X12178Y3705J172*
G01X12934Y18372D02*
G03X12836Y18470I98D01*
X12737Y18372J98*
X12836Y18274I99*
X12934Y18372J98*
G01X13007D02*
G03X12836Y18544I171D01*
X12664Y18372J172*
X12836Y18200I172*
X13007Y18372J172*
G01X14032Y21269D02*
G03X13933Y21367I99D01*
X13835Y21269J98*
X13933Y21171I98*
X14032Y21269J98*
G01X14033Y1636D02*
G03X13935Y1734I98D01*
X13836Y1636J98*
X13935Y1538I99*
X14033Y1636J98*
G01X14042Y11442D02*
G03X13943Y11540I99D01*
X13845Y11442J98*
X13943Y11344I98*
X14042Y11442J98*
G01X14051Y21979D02*
G03X13953Y22077I98D01*
X13855Y21979J98*
X13953Y21881I98*
X14051Y21979J98*
G01X14105Y21269D02*
G03X13933Y21441I172D01*
X13761Y21269J172*
X13933Y21097I172*
X14105Y21269J172*
G01X14106Y1636D02*
G03X13935Y1808I171D01*
X13763Y1636J172*
X13935Y1464I172*
X14106Y1636J172*
G01X14115Y11442D02*
G03X13943Y11614I172D01*
X13772Y11442J172*
X13943Y11270I171*
X14115Y11442J172*
G01X14125Y21979D02*
G03X13953Y22151I172D01*
X13781Y21979J172*
X13953Y21807I172*
X14125Y21979J172*
G01X14156Y8000D02*
G03X14057Y8099I99D01*
X13959Y8000J99*
X14057Y7902I98*
X14156Y8000J98*
G01X14218Y17812D02*
G03X14119Y17910I99D01*
X14021Y17812J98*
X14119Y17714I98*
X14218Y17812J98*
G01X14229Y8000D02*
G03X14057Y8172I172D01*
X13885Y8000J172*
X14057Y7828I172*
X14229Y8000J172*
G01X14291Y17812D02*
G03X14119Y17984I172D01*
X13947Y17812J172*
X14119Y17640I172*
X14291Y17812J172*
G01X14580Y23197D02*
G03X14481Y23295I99D01*
X14383Y23197J98*
X14481Y23099I98*
X14580Y23197J98*
G01X14653D02*
G03X14481Y23369I172D01*
X14310Y23197J172*
X14481Y23025I171*
X14653Y23197J172*
G01X16395Y7997D02*
G03X16297Y8095I98D01*
X16199Y7997J98*
X16297Y7898I98*
X16395Y7997J99*
G01X16469D02*
G03X16297Y8168I172D01*
X16125Y7997J171*
X16297Y7825I172*
X16469Y7997J172*
G01X16761Y26884D02*
G03X16663Y26982I98D01*
X16565Y26884J98*
X16663Y26786I98*
X16761Y26884J98*
G01X16835D02*
G03X16663Y27056I172D01*
X16491Y26884J172*
X16663Y26712I172*
X16835Y26884J172*
G01X16845Y4768D02*
G03X16747Y4866I98D01*
X16649Y4768J98*
X16747Y4669I98*
X16845Y4768J99*
G01X16846Y26154D02*
G03X16748Y26252I98D01*
X16650Y26154J98*
X16748Y26056I98*
X16846Y26154J98*
G01X16919Y4768D02*
G03X16747Y4939I172D01*
X16575Y4768J171*
X16747Y4596I172*
X16919Y4768J172*
G01X16920Y26154D02*
G03X16748Y26326I172D01*
X16576Y26154J172*
X16748Y25982I172*
X16920Y26154J172*
G01X17112Y-4559D02*
X17116D01*
X17118Y-4556*
X17120Y-4553*
Y-4549*
Y-4546*
X17118Y-4543*
X17116Y-4540*
X17112Y-4539*
X16988*
Y-4416*
Y-4413*
X16986Y-4410*
X16982Y-4408*
X16978*
X16975*
X16972Y-4410*
X16970Y-4413*
X16969Y-4416*
Y-4539*
X16846*
X16842Y-4540*
X16840Y-4543*
X16838Y-4546*
Y-4549*
Y-4553*
X16840Y-4556*
X16842Y-4559*
X16846*
X16969*
Y-4682*
X16970Y-4686*
X16972Y-4689*
X16975Y-4690*
X16978Y-4691*
X16982Y-4690*
X16986Y-4689*
X16988Y-4686*
Y-4682*
Y-4559*
X17112*
X17273Y-4329D02*
X17357Y-4261D01*
X17359Y-4260*
X17360*
X17361Y-4259*
X17363*
X17531*
X17533*
X17534*
Y-4260*
X17536*
X17538Y-4261*
X17622Y-4329*
X17623Y-4332*
X17624Y-4334*
X17625Y-4335*
Y-4337*
Y-4680*
Y-4682*
X17624Y-4685*
X17623Y-4686*
X17622Y-4688*
X17538Y-4757*
X17536*
X17535Y-4758*
X17534*
X17533Y-4759*
X17531*
X17363*
X17361Y-4758*
X17359*
X17357Y-4757*
X17273Y-4688*
X17272Y-4687*
X17271*
X17270Y-4685*
X17269Y-4682*
X17268Y-4680*
Y-4337*
X17269Y-4335*
X17270Y-4334*
X17271Y-4332*
X17273Y-4329*
X17289Y-4342D02*
Y-4675D01*
X17318Y-4700*
X17560Y-4306*
X17527Y-4279*
X17366*
X17289Y-4342*
X17334Y-4713D02*
X17366Y-4738D01*
X17527*
X17605Y-4675*
Y-4342*
X17576Y-4319*
X17334Y-4713*
X17745Y-4329D02*
X17829Y-4261D01*
X17831Y-4260*
X17833*
Y-4259*
X17835*
X18004*
X18006*
X18007Y-4260*
X18008*
X18010Y-4261*
X18094Y-4329*
X18096Y-4332*
Y-4334*
X18097Y-4335*
X18098Y-4337*
Y-4680*
X18097Y-4682*
X18096Y-4685*
Y-4686*
X18094Y-4688*
X18010Y-4757*
X18008*
X18007Y-4758*
X18006*
X18005Y-4759*
X18004*
X17835*
X17833Y-4758*
X17831*
X17829Y-4757*
X17745Y-4688*
X17744Y-4687*
X17743*
X17742Y-4685*
X17741Y-4682*
Y-4680*
Y-4337*
Y-4335*
X17742Y-4334*
X17743Y-4332*
X17745Y-4329*
X17761Y-4342D02*
Y-4675D01*
X17791Y-4700*
X18033Y-4306*
X18000Y-4279*
X17838*
X17761Y-4342*
X17807Y-4713D02*
X17838Y-4738D01*
X18000*
X18078Y-4675*
Y-4342*
X18048Y-4319*
X17807Y-4713*
X18311Y-4696D02*
Y-4750D01*
Y-4753*
X18312Y-4754*
X18313Y-4755*
X18314Y-4756*
X18316Y-4758*
X18319Y-4759*
X18374*
X18377Y-4758*
X18379Y-4756*
X18382Y-4754*
Y-4750*
Y-4696*
Y-4692*
X18379Y-4690*
X18377Y-4688*
X18374Y-4687*
X18319*
X18316Y-4688*
X18314Y-4690*
X18313Y-4691*
X18312Y-4692*
X18311Y-4694*
Y-4696*
X18327Y-4704D02*
X18366D01*
Y-4742*
X18327*
Y-4704*
X18421Y14475D02*
G03X18323Y14573I98D01*
X18225Y14475J98*
X18323Y14376I98*
X18421Y14475J99*
G01X18495D02*
G03X18323Y14646I172D01*
X18151Y14475J171*
X18323Y14303I172*
X18495Y14475J172*
G01X18602Y-4329D02*
X18686Y-4261D01*
X18688Y-4260*
X18690*
Y-4259*
X18692*
X18861*
X18863*
X18864Y-4260*
X18865*
X18867Y-4261*
X18951Y-4329*
X18953Y-4332*
Y-4334*
X18954Y-4335*
X18955Y-4337*
Y-4680*
X18954Y-4682*
X18953Y-4685*
Y-4686*
X18951Y-4688*
X18867Y-4757*
X18865*
X18864Y-4758*
X18863*
X18862Y-4759*
X18861*
X18692*
X18690Y-4758*
X18688*
X18686Y-4757*
X18602Y-4688*
X18601Y-4687*
X18600*
X18599Y-4685*
X18598Y-4682*
Y-4680*
Y-4337*
Y-4335*
X18599Y-4334*
X18600Y-4332*
X18602Y-4329*
X18618Y-4342D02*
Y-4675D01*
X18648Y-4700*
X18890Y-4306*
X18857Y-4279*
X18695*
X18618Y-4342*
X18626Y28366D02*
G03X18528Y28465I98D01*
X18430Y28366J99*
X18528Y28268I98*
X18626Y28366J98*
G01X18664Y-4713D02*
X18695Y-4738D01*
X18857*
X18935Y-4675*
Y-4342*
X18905Y-4319*
X18664Y-4713*
X18700Y28366D02*
G03X18528Y28538I172D01*
X18356Y28366J172*
X18528Y28195I172*
X18700Y28366J171*
G01X18901Y-6559D02*
X18904D01*
X18907Y-6556*
X18908Y-6553*
Y-6549*
Y-6546*
X18907Y-6543*
X18904Y-6540*
X18901Y-6539*
X18777*
Y-6416*
X18776Y-6413*
X18774Y-6410*
X18771Y-6408*
X18767*
X18764*
X18761Y-6410*
X18758Y-6413*
Y-6416*
Y-6539*
X18634*
X18630Y-6540*
X18628Y-6543*
X18627Y-6546*
X18626Y-6549*
X18627Y-6553*
X18628Y-6556*
X18630Y-6559*
X18634*
X18758*
Y-6682*
Y-6686*
X18761Y-6689*
X18764Y-6690*
X18767Y-6691*
X18771Y-6690*
X18774Y-6689*
X18776Y-6686*
X18777Y-6682*
Y-6559*
X18901*
Y-5559D02*
X18904D01*
X18907Y-5556*
X18908Y-5553*
Y-5549*
Y-5546*
X18907Y-5543*
X18904Y-5540*
X18901Y-5539*
X18777*
Y-5416*
X18776Y-5413*
X18774Y-5410*
X18771Y-5408*
X18767*
X18764*
X18761Y-5410*
X18758Y-5413*
Y-5416*
Y-5539*
X18634*
X18630Y-5540*
X18628Y-5543*
X18627Y-5546*
X18626Y-5549*
X18627Y-5553*
X18628Y-5556*
X18630Y-5559*
X18634*
X18758*
Y-5682*
Y-5686*
X18761Y-5689*
X18764Y-5690*
X18767Y-5691*
X18771Y-5690*
X18774Y-5689*
X18776Y-5686*
X18777Y-5682*
Y-5559*
X18901*
X19059Y-6742D02*
X19396Y-6263D01*
X19398Y-6260*
X19402*
X19405Y-6261*
X19408Y-6262*
X19411Y-6265*
X19413Y-6268*
Y-6272*
X19412Y-6275*
X19075Y-6754*
X19074Y-6756*
X19072Y-6757*
X19070Y-6758*
X19069*
X19065Y-6757*
X19062Y-6755*
X19060Y-6753*
X19058Y-6750*
X19057Y-6746*
X19059Y-6742*
Y-5742D02*
X19396Y-5263D01*
X19398Y-5260*
X19402*
X19405Y-5261*
X19408Y-5262*
X19411Y-5265*
X19413Y-5268*
Y-5272*
X19412Y-5275*
X19075Y-5754*
X19074Y-5756*
X19072Y-5757*
X19070Y-5758*
X19069*
X19065Y-5757*
X19062Y-5755*
X19060Y-5753*
X19058Y-5750*
X19057Y-5746*
X19059Y-5742*
X19122Y-3249D02*
X19123Y-3252D01*
X19125Y-3255*
X19129Y-3257*
X19132*
X19136*
X19139Y-3255*
X19141Y-3252*
X19142Y-3249*
Y-2779*
X19301*
X19304Y-2778*
X19307Y-2776*
X19309Y-2773*
Y-2769*
Y-2765*
X19307Y-2762*
X19304Y-2759*
X19301*
X18963*
X18960*
X18957Y-2762*
X18955Y-2765*
Y-2769*
Y-2773*
X18957Y-2776*
X18960Y-2778*
X18963Y-2779*
X19122*
Y-3249*
X19164Y-4431D02*
X19162D01*
X19161Y-4432*
X19159Y-4433*
X19091Y-4488*
Y-4279*
X19417*
X19421Y-4278*
X19424Y-4276*
X19425Y-4273*
X19426Y-4269*
X19425Y-4265*
X19424Y-4262*
X19421Y-4260*
X19417Y-4259*
X19080*
X19076Y-4260*
X19073Y-4262*
X19071Y-4265*
X19070Y-4269*
Y-4509*
Y-4513*
X19072Y-4515*
X19074Y-4517*
X19077Y-4518*
X19080Y-4519*
X19082*
X19084*
X19086Y-4517*
X19168Y-4451*
X19329*
X19407Y-4514*
Y-4675*
X19329Y-4738*
X19168*
X19086Y-4672*
X19083Y-4670*
X19080*
X19077Y-4672*
X19074Y-4675*
X19072Y-4678*
X19071Y-4682*
X19072Y-4685*
X19074Y-4688*
X19159Y-4757*
X19160Y-4758*
X19162*
X19164Y-4759*
X19333*
X19334*
X19335Y-4758*
X19336*
X19337*
X19339Y-4757*
X19424Y-4688*
X19425Y-4686*
X19426Y-4685*
X19427Y-4682*
Y-4680*
Y-4509*
Y-4507*
X19426Y-4504*
Y-4503*
X19425*
X19424Y-4502*
Y-4501*
X19339Y-4433*
X19337Y-4432*
X19335Y-4431*
X19333*
X19164*
X19447Y-2984D02*
Y-3177D01*
X19508Y-3239*
X19701*
X19763Y-3177*
Y-2984*
X19701Y-2922*
X19508*
X19447Y-2984*
X19547Y-4329D02*
X19631Y-4261D01*
X19633Y-4260*
X19635*
Y-4259*
X19637*
X19806*
X19808*
X19809Y-4260*
X19810*
X19812Y-4261*
X19896Y-4329*
X19898Y-4332*
Y-4334*
X19899Y-4335*
X19900Y-4337*
Y-4680*
X19899Y-4682*
X19898Y-4685*
Y-4686*
X19896Y-4688*
X19812Y-4757*
X19810*
X19809Y-4758*
X19808*
X19807Y-4759*
X19806*
X19637*
X19635Y-4758*
X19633*
X19631Y-4757*
X19547Y-4688*
X19546Y-4687*
X19545*
X19544Y-4685*
X19543Y-4682*
Y-4680*
Y-4337*
Y-4335*
X19544Y-4334*
X19545Y-4332*
X19547Y-4329*
X19563Y-4342D02*
Y-4675D01*
X19593Y-4700*
X19835Y-4306*
X19802Y-4279*
X19640*
X19563Y-4342*
X19598Y-6537D02*
X19759D01*
X19762*
X19765Y-6539*
X19766Y-6542*
X19767Y-6545*
X19766Y-6549*
X19765Y-6551*
X19762Y-6553*
X19759Y-6554*
X19598*
X19595Y-6553*
X19592Y-6551*
X19591Y-6549*
X19590Y-6545*
X19591Y-6542*
X19592Y-6539*
X19594Y-6537*
X19598*
Y-5537D02*
X19759D01*
X19762*
X19765Y-5539*
X19766Y-5542*
X19767Y-5545*
X19766Y-5549*
X19765Y-5551*
X19762Y-5553*
X19759Y-5554*
X19598*
X19595Y-5553*
X19592Y-5551*
X19591Y-5549*
X19590Y-5545*
X19591Y-5542*
X19592Y-5539*
X19594Y-5537*
X19598*
X19609Y-4713D02*
X19640Y-4738D01*
X19802*
X19880Y-4675*
Y-4342*
X19850Y-4319*
X19609Y-4713*
X19682Y31049D02*
G03X19584Y31147I98D01*
X19486Y31049J98*
X19584Y30951I98*
X19682Y31049J98*
G01X19701Y31786D02*
G03X19603Y31884I98D01*
X19505Y31786J98*
X19603Y31688I98*
X19701Y31786J98*
G01Y11448D02*
G03X19603Y11546I98D01*
X19505Y11448J98*
X19603Y11350I98*
X19701Y11448J98*
G01X19706Y-3259D02*
X19504D01*
X19502*
X19501Y-3258*
X19499*
X19496Y-3256*
X19429Y-3189*
X19427Y-3186*
X19426Y-3184*
Y-3181*
Y-2979*
Y-2977*
X19427Y-2974*
X19429Y-2971*
X19496Y-2904*
X19499Y-2903*
X19501Y-2902*
X19502*
X19504Y-2901*
X19706Y-2902*
X19708*
X19710Y-2903*
X19713Y-2904*
X19781Y-2971*
X19782Y-2974*
Y-2976*
X19783Y-2977*
Y-2979*
Y-3181*
Y-3184*
X19782Y-3185*
X19781Y-3189*
X19713Y-3256*
X19710Y-3258*
X19708*
X19706Y-3259*
X19713Y21251D02*
G03X19615Y21350I98D01*
X19517Y21251J99*
X19615Y21153I98*
X19713Y21251J98*
G01X19717Y1617D02*
G03X19619Y1715I98D01*
X19520Y1617J98*
X19619Y1519I99*
X19717Y1617J98*
G01X19756Y31049D02*
G03X19584Y31221I172D01*
X19412Y31049J172*
X19584Y30877I172*
X19756Y31049J172*
G01X19775Y31786D02*
G03X19603Y31958I172D01*
X19431Y31786J172*
X19603Y31614I172*
X19775Y31786J172*
G01Y11448D02*
G03X19603Y11620I172D01*
X19431Y11448J172*
X19603Y11276I172*
X19775Y11448J172*
G01X19787Y21251D02*
G03X19615Y21423I172D01*
X19443Y21251J172*
X19615Y21079I172*
X19787Y21251J172*
G01X19790Y1617D02*
G03X19619Y1789I171D01*
X19447Y1617J172*
X19619Y1445I172*
X19790Y1617J172*
G01X19809Y7995D02*
G03X19711Y8093I98D01*
X19612Y7995J98*
X19711Y7896I99*
X19809Y7995J99*
G01X19829Y27621D02*
G03X19731Y27719I98D01*
X19632Y27621J98*
X19731Y27523I99*
X19829Y27621J98*
G01X19843Y17809D02*
G03X19745Y17908I98D01*
X19647Y17809J99*
X19745Y17711I98*
X19843Y17809J98*
G01X19883Y7995D02*
G03X19711Y8167I172D01*
X19539Y7995J172*
X19711Y7823I172*
X19883Y7995J172*
G01X19902Y27621D02*
G03X19731Y27793I171D01*
X19559Y27621J172*
X19731Y27449I172*
X19902Y27621J172*
G01X19917Y17809D02*
G03X19745Y17981I172D01*
X19573Y17809J172*
X19745Y17638I172*
X19917Y17809J171*
G01X19970Y-2759D02*
X19966Y-2760D01*
X19964Y-2762*
X19962Y-2765*
Y-2769*
Y-2773*
X19964Y-2776*
X19966Y-2778*
X19970Y-2779*
X20057*
Y-3238*
X19970*
X19966Y-3239*
X19964Y-3241*
X19962Y-3245*
Y-3249*
Y-3252*
X19964Y-3256*
X19966Y-3258*
X19970Y-3259*
X20165*
X20168Y-3258*
X20171Y-3256*
X20173Y-3252*
Y-3249*
Y-3245*
X20171Y-3241*
X20168Y-3239*
X20165Y-3238*
X20077*
Y-2769*
X20076Y-2765*
X20074Y-2762*
X20071Y-2760*
X20067Y-2759*
X19970*
X20020Y-4329D02*
X20104Y-4261D01*
X20106Y-4260*
X20107*
X20108Y-4259*
X20110*
X20278*
X20280*
X20281*
Y-4260*
X20283*
X20285Y-4261*
X20369Y-4329*
X20370Y-4332*
X20371Y-4334*
X20372Y-4335*
Y-4337*
Y-4680*
Y-4682*
X20371Y-4685*
X20370Y-4686*
X20369Y-4688*
X20285Y-4757*
X20283*
X20282Y-4758*
X20281*
X20280Y-4759*
X20278*
X20110*
X20108Y-4758*
X20106*
X20104Y-4757*
X20020Y-4688*
X20019Y-4687*
X20018*
X20017Y-4685*
X20016Y-4682*
X20015Y-4680*
Y-4337*
X20016Y-4335*
X20017Y-4334*
X20018Y-4332*
X20020Y-4329*
X20036Y-4342D02*
Y-4675D01*
X20065Y-4700*
X20307Y-4306*
X20274Y-4279*
X20113*
X20036Y-4342*
X20081Y-4713D02*
X20113Y-4738D01*
X20274*
X20352Y-4675*
Y-4342*
X20323Y-4319*
X20081Y-4713*
X20242Y33019D02*
G03X20144Y33118I98D01*
X20046Y33019J99*
X20144Y32921I98*
X20242Y33019J98*
G01X20316D02*
G03X20144Y33191I172D01*
X19972Y33019J172*
X20144Y32848I172*
X20316Y33019J171*
G01X20345Y-6329D02*
X20429Y-6261D01*
X20431Y-6260*
X20433*
Y-6259*
X20435*
X20604*
X20606*
X20607Y-6260*
X20608*
X20610Y-6261*
X20694Y-6329*
X20696Y-6332*
Y-6334*
X20697Y-6335*
X20698Y-6337*
Y-6680*
X20697Y-6682*
X20696Y-6685*
Y-6686*
X20694Y-6688*
X20610Y-6757*
X20608*
X20607Y-6758*
X20606*
X20605Y-6759*
X20604*
X20435*
X20433Y-6758*
X20431*
X20429Y-6757*
X20345Y-6688*
X20344Y-6687*
X20343*
X20342Y-6685*
X20341Y-6682*
Y-6680*
Y-6337*
Y-6335*
X20342Y-6334*
X20343Y-6332*
X20345Y-6329*
Y-5329D02*
X20429Y-5261D01*
X20431Y-5260*
X20433*
Y-5259*
X20435*
X20604*
X20606*
X20607Y-5260*
X20608*
X20610Y-5261*
X20694Y-5329*
X20696Y-5332*
Y-5334*
X20697Y-5335*
X20698Y-5337*
Y-5680*
X20697Y-5682*
X20696Y-5685*
Y-5686*
X20694Y-5688*
X20610Y-5757*
X20608*
X20607Y-5758*
X20606*
X20605Y-5759*
X20604*
X20435*
X20433Y-5758*
X20431*
X20429Y-5757*
X20345Y-5688*
X20344Y-5687*
X20343*
X20342Y-5685*
X20341Y-5682*
Y-5680*
Y-5337*
Y-5335*
X20342Y-5334*
X20343Y-5332*
X20345Y-5329*
X20361Y-6342D02*
Y-6675D01*
X20391Y-6700*
X20633Y-6306*
X20600Y-6279*
X20438*
X20361Y-6342*
Y-5342D02*
Y-5675D01*
X20391Y-5700*
X20633Y-5306*
X20600Y-5279*
X20438*
X20361Y-5342*
X20372Y-2985D02*
Y-3037D01*
X20688*
Y-3017*
X20593Y-2922*
X20465*
X20372Y-2985*
X20407Y-6713D02*
X20438Y-6738D01*
X20600*
X20678Y-6675*
Y-6342*
X20648Y-6319*
X20407Y-6713*
Y-5713D02*
X20438Y-5738D01*
X20600*
X20678Y-5675*
Y-5342*
X20648Y-5319*
X20407Y-5713*
X20462Y-2901D02*
X20598Y-2902D01*
X20600*
X20602Y-2903*
X20605Y-2904*
X20706Y-3005*
X20707Y-3008*
Y-3010*
Y-3011*
X20708*
Y-3013*
Y-3047*
Y-3050*
X20705Y-3053*
X20703Y-3056*
X20698Y-3057*
X20372*
Y-3177*
X20465Y-3239*
X20593*
X20691Y-3140*
X20694Y-3138*
X20698*
X20702Y-3139*
X20705Y-3142*
X20707Y-3145*
X20708Y-3148*
Y-3152*
X20706Y-3155*
X20605Y-3256*
X20602Y-3258*
X20600*
X20598Y-3259*
X20462*
X20459Y-3258*
X20457Y-3257*
X20356Y-3190*
X20354Y-3189*
X20353Y-3187*
X20352Y-3184*
X20351Y-3182*
Y-2979*
X20352Y-2976*
X20353Y-2974*
X20354Y-2972*
X20355*
X20356Y-2971*
X20457Y-2904*
X20459Y-2902*
X20462Y-2901*
X20818Y-6329D02*
X20902Y-6261D01*
X20904Y-6260*
X20905*
X20906Y-6259*
X20908*
X21076*
X21078*
X21079*
Y-6260*
X21081*
X21083Y-6261*
X21167Y-6329*
X21168Y-6332*
X21169Y-6334*
X21170Y-6335*
Y-6337*
Y-6680*
Y-6682*
X21169Y-6685*
X21168Y-6686*
X21167Y-6688*
X21083Y-6757*
X21081*
X21080Y-6758*
X21079*
X21078Y-6759*
X21076*
X20908*
X20906Y-6758*
X20904*
X20902Y-6757*
X20818Y-6688*
X20817Y-6687*
X20816*
X20815Y-6685*
X20814Y-6682*
X20813Y-6680*
Y-6337*
X20814Y-6335*
X20815Y-6334*
X20816Y-6332*
X20818Y-6329*
Y-5329D02*
X20902Y-5261D01*
X20904Y-5260*
X20905*
X20906Y-5259*
X20908*
X21076*
X21078*
X21079*
Y-5260*
X21081*
X21083Y-5261*
X21167Y-5329*
X21168Y-5332*
X21169Y-5334*
X21170Y-5335*
Y-5337*
Y-5680*
Y-5682*
X21169Y-5685*
X21168Y-5686*
X21167Y-5688*
X21083Y-5757*
X21081*
X21080Y-5758*
X21079*
X21078Y-5759*
X21076*
X20908*
X20906Y-5758*
X20904*
X20902Y-5757*
X20818Y-5688*
X20817Y-5687*
X20816*
X20815Y-5685*
X20814Y-5682*
X20813Y-5680*
Y-5337*
X20814Y-5335*
X20815Y-5334*
X20816Y-5332*
X20818Y-5329*
X20822Y-3249D02*
X20823Y-3253D01*
X20826Y-3255*
X20829Y-3257*
X20832*
X20836*
X20840Y-3255*
X20842Y-3253*
X20843Y-3249*
Y-2984*
X20920Y-2922*
X21082*
X21164Y-2987*
X21167Y-2989*
X21170Y-2988*
X21174Y-2987*
X21176Y-2984*
X21178Y-2981*
X21179Y-2977*
X21178Y-2974*
X21176Y-2971*
X21092Y-2904*
X21089Y-2903*
X21087Y-2902*
X21085*
X20917*
X20915*
X20913Y-2903*
X20911Y-2904*
X20843Y-2958*
Y-2912*
X20842Y-2908*
X20840Y-2905*
X20836Y-2904*
X20832Y-2903*
X20829Y-2904*
X20826Y-2905*
X20823Y-2908*
X20822Y-2912*
Y-2978*
Y-2979*
Y-2981*
Y-3249*
X20834Y-6342D02*
Y-6675D01*
X20863Y-6700*
X21105Y-6306*
X21072Y-6279*
X20911*
X20834Y-6342*
Y-5342D02*
Y-5675D01*
X20863Y-5700*
X21105Y-5306*
X21072Y-5279*
X20911*
X20834Y-5342*
X20847Y-4742D02*
X21184Y-4263D01*
X21187Y-4260*
X21190*
X21194Y-4261*
X21197Y-4262*
X21200Y-4265*
X21201Y-4268*
X21202Y-4272*
X21201Y-4275*
X20863Y-4754*
X20862Y-4756*
X20860Y-4757*
X20859Y-4758*
X20857*
X20854Y-4757*
X20851Y-4755*
X20848Y-4753*
X20846Y-4750*
Y-4746*
X20847Y-4742*
X20879Y-6713D02*
X20911Y-6738D01*
X21072*
X21150Y-6675*
Y-6342*
X21121Y-6319*
X20879Y-6713*
Y-5713D02*
X20911Y-5738D01*
X21072*
X21150Y-5675*
Y-5342*
X21121Y-5319*
X20879Y-5713*
X21060Y8568D02*
X21061Y8563D01*
X21064Y8560*
X21068Y8558*
X21072*
X21076*
X21081Y8560*
X21083Y8563*
X21085Y8568*
Y8839*
X21458*
Y8568*
X21459Y8563*
X21462Y8560*
X21466Y8558*
X21470*
X21474*
X21478Y8560*
X21481Y8563*
X21482Y8568*
Y9135*
X21481Y9139*
X21478Y9142*
X21474Y9144*
X21470Y9145*
X21466Y9144*
X21462Y9142*
X21459Y9139*
X21458Y9135*
Y8863*
X21085*
Y9135*
X21083Y9139*
X21081Y9142*
X21076Y9144*
X21072Y9145*
X21068Y9144*
X21064Y9142*
X21061Y9139*
X21060Y9135*
Y8568*
X21316Y-3086D02*
X21409Y-3023D01*
X21539*
X21633Y-3086*
Y-3177*
X21539Y-3239*
X21409*
X21316Y-3177*
Y-3086*
X21358Y24504D02*
G03X21260Y24602I98D01*
X21162Y24504J98*
X21260Y24406I98*
X21358Y24504J98*
G01X21383Y-6696D02*
Y-6750D01*
X21384Y-6753*
Y-6754*
X21385Y-6755*
X21386Y-6756*
X21388Y-6758*
X21391Y-6759*
X21446*
X21449Y-6758*
X21452Y-6756*
X21454Y-6754*
X21455Y-6750*
Y-6696*
X21454Y-6692*
X21452Y-6690*
X21449Y-6688*
X21446Y-6687*
X21391*
X21388Y-6688*
X21386Y-6690*
X21385Y-6691*
X21384Y-6692*
Y-6694*
X21383Y-6696*
Y-5696D02*
Y-5750D01*
X21384Y-5753*
Y-5754*
X21385Y-5755*
X21386Y-5756*
X21388Y-5758*
X21391Y-5759*
X21446*
X21449Y-5758*
X21452Y-5756*
X21454Y-5754*
X21455Y-5750*
Y-5696*
X21454Y-5692*
X21452Y-5690*
X21449Y-5688*
X21446Y-5687*
X21391*
X21388Y-5688*
X21386Y-5690*
X21385Y-5691*
X21384Y-5692*
Y-5694*
X21383Y-5696*
X21400Y-6704D02*
X21438D01*
Y-6742*
X21400*
Y-6704*
Y-5704D02*
X21438D01*
Y-5742*
X21400*
Y-5704*
X21432Y24504D02*
G03X21260Y24676I172D01*
X21088Y24504J172*
X21260Y24332I172*
X21432Y24504J172*
G01X21443Y18074D02*
G03X21345Y18172I98D01*
X21247Y18074J98*
X21345Y17976I98*
X21443Y18074J98*
G01X21517D02*
G03X21345Y18246I172D01*
X21173Y18074J172*
X21345Y17902I172*
X21517Y18074J172*
G01X21633Y-3249D02*
Y-3253D01*
X21636Y-3255*
X21639Y-3257*
X21643*
X21646*
X21649Y-3255*
X21652Y-3253*
X21653Y-3249*
Y-2979*
X21652Y-2977*
Y-2975*
X21651Y-2972*
X21583Y-2904*
X21580Y-2903*
X21578Y-2902*
X21576*
X21305*
X21302*
X21299Y-2905*
X21297Y-2908*
Y-2912*
Y-2915*
X21299Y-2918*
X21302Y-2921*
X21305Y-2922*
X21570*
X21633Y-2984*
Y-3062*
X21547Y-3004*
X21545Y-3003*
X21542*
X21407*
X21403*
X21401Y-3004*
X21300Y-3072*
X21299Y-3073*
Y-3074*
X21298*
X21296Y-3077*
X21295Y-3080*
Y-3182*
X21296Y-3184*
X21298Y-3187*
X21299Y-3188*
X21300Y-3189*
X21401Y-3257*
X21404Y-3258*
X21407Y-3259*
X21542*
X21545Y-3258*
X21547Y-3257*
X21633Y-3200*
Y-3249*
X21683Y34202D02*
G03X21584Y34300I99D01*
X21486Y34202J98*
X21584Y34104I98*
X21683Y34202J98*
G01X21742Y-6738D02*
X21738Y-6739D01*
X21736Y-6741*
X21735Y-6745*
X21734Y-6749*
X21735Y-6752*
X21736Y-6756*
X21738Y-6758*
X21742Y-6759*
X21937*
X21941Y-6758*
X21944Y-6756*
X21945Y-6752*
X21946Y-6749*
X21945Y-6745*
X21944Y-6741*
X21941Y-6739*
X21937Y-6738*
X21849*
Y-6269*
Y-6265*
X21847Y-6263*
X21845Y-6261*
X21841*
X21839Y-6260*
X21836*
X21834Y-6261*
X21832Y-6263*
X21735Y-6400*
X21733Y-6404*
Y-6407*
X21735Y-6410*
X21737Y-6413*
X21740Y-6415*
X21744Y-6416*
X21746*
X21747Y-6415*
X21750Y-6412*
X21830Y-6300*
Y-6738*
X21742*
Y-5738D02*
X21738Y-5739D01*
X21736Y-5741*
X21735Y-5745*
X21734Y-5749*
X21735Y-5752*
X21736Y-5756*
X21738Y-5758*
X21742Y-5759*
X21937*
X21941Y-5758*
X21944Y-5756*
X21945Y-5752*
X21946Y-5749*
X21945Y-5745*
X21944Y-5741*
X21941Y-5739*
X21937Y-5738*
X21849*
Y-5269*
Y-5265*
X21847Y-5263*
X21845Y-5261*
X21841*
X21839Y-5260*
X21836*
X21834Y-5261*
X21832Y-5263*
X21735Y-5400*
X21733Y-5404*
Y-5407*
X21735Y-5410*
X21737Y-5413*
X21740Y-5415*
X21744Y-5416*
X21746*
X21747Y-5415*
X21750Y-5412*
X21830Y-5300*
Y-5738*
X21742*
X21744Y-4537D02*
X21905D01*
X21908*
X21911Y-4539*
X21912Y-4542*
X21913Y-4545*
X21912Y-4549*
X21911Y-4551*
X21908Y-4553*
X21905Y-4554*
X21744*
X21741Y-4553*
X21738Y-4551*
X21737Y-4549*
X21736Y-4545*
X21737Y-4542*
X21738Y-4539*
X21740Y-4537*
X21744*
X21756Y34202D02*
G03X21584Y34374I172D01*
X21412Y34202J172*
X21584Y34030I172*
X21756Y34202J172*
G01X22104Y-3249D02*
X22105Y-3253D01*
X22107Y-3255*
X22111Y-3257*
X22114*
X22118*
X22121Y-3255*
X22123Y-3253*
X22124Y-3249*
Y-2979*
Y-2977*
X22123Y-2975*
X22122Y-2973*
X22121Y-2971*
X22036Y-2904*
X22034Y-2903*
X22032Y-2902*
X22030*
X21861*
X21859*
X21858Y-2903*
X21856Y-2904*
X21788Y-2958*
Y-2912*
X21787Y-2908*
X21784Y-2905*
X21781Y-2904*
X21777Y-2903*
X21773Y-2904*
X21770Y-2905*
X21768Y-2908*
X21767Y-2912*
Y-3249*
X21768Y-3253*
X21770Y-3255*
X21773Y-3257*
X21777*
X21781*
X21784Y-3255*
X21787Y-3253*
X21788Y-3249*
Y-2984*
X21865Y-2922*
X22026*
X22104Y-2984*
Y-3249*
X22112Y29045D02*
G03X22014Y29143I98D01*
X21916Y29045J98*
X22014Y28947I98*
X22112Y29045J98*
G01Y30517D02*
G03X22014Y30616I98D01*
X21916Y30517J99*
X22014Y30419I98*
X22112Y30517J98*
G01X22130Y-6329D02*
X22214Y-6261D01*
X22216Y-6260*
X22217*
X22218Y-6259*
X22220*
X22388*
X22390*
X22391*
Y-6260*
X22393*
X22395Y-6261*
X22479Y-6329*
X22480Y-6332*
X22481Y-6334*
X22482Y-6335*
Y-6337*
Y-6680*
Y-6682*
X22481Y-6685*
X22480Y-6686*
X22479Y-6688*
X22395Y-6757*
X22393*
X22392Y-6758*
X22391*
X22390Y-6759*
X22388*
X22220*
X22218Y-6758*
X22216*
X22214Y-6757*
X22130Y-6688*
X22129Y-6687*
X22128*
X22127Y-6685*
X22126Y-6682*
X22125Y-6680*
Y-6337*
X22126Y-6335*
X22127Y-6334*
X22128Y-6332*
X22130Y-6329*
Y-5329D02*
X22214Y-5261D01*
X22216Y-5260*
X22217*
X22218Y-5259*
X22220*
X22388*
X22390*
X22391*
Y-5260*
X22393*
X22395Y-5261*
X22479Y-5329*
X22480Y-5332*
X22481Y-5334*
X22482Y-5335*
Y-5337*
Y-5680*
Y-5682*
X22481Y-5685*
X22480Y-5686*
X22479Y-5688*
X22395Y-5757*
X22393*
X22392Y-5758*
X22391*
X22390Y-5759*
X22388*
X22220*
X22218Y-5758*
X22216*
X22214Y-5757*
X22130Y-5688*
X22129Y-5687*
X22128*
X22127Y-5685*
X22126Y-5682*
X22125Y-5680*
Y-5337*
X22126Y-5335*
X22127Y-5334*
X22128Y-5332*
X22130Y-5329*
X22134Y-4329D02*
X22218Y-4261D01*
X22220Y-4260*
X22221*
X22222Y-4259*
X22224*
X22392*
X22394*
X22395*
Y-4260*
X22397*
X22399Y-4261*
X22483Y-4329*
X22484Y-4332*
X22485Y-4334*
X22486Y-4335*
Y-4337*
Y-4680*
Y-4682*
X22485Y-4685*
X22484Y-4686*
X22483Y-4688*
X22399Y-4757*
X22397*
X22396Y-4758*
X22395*
X22394Y-4759*
X22392*
X22224*
X22222Y-4758*
X22220*
X22218Y-4757*
X22134Y-4688*
X22133Y-4687*
X22132*
X22131Y-4685*
X22130Y-4682*
X22129Y-4680*
Y-4337*
X22130Y-4335*
X22131Y-4334*
X22132Y-4332*
X22134Y-4329*
X22146Y-6342D02*
Y-6675D01*
X22175Y-6700*
X22417Y-6306*
X22384Y-6279*
X22223*
X22146Y-6342*
Y-5342D02*
Y-5675D01*
X22175Y-5700*
X22417Y-5306*
X22384Y-5279*
X22223*
X22146Y-5342*
X22150Y-4342D02*
Y-4675D01*
X22179Y-4700*
X22421Y-4306*
X22388Y-4279*
X22227*
X22150Y-4342*
X22186Y29045D02*
G03X22014Y29217I172D01*
X21842Y29045J172*
X22014Y28873I172*
X22186Y29045J172*
G01Y30517D02*
G03X22014Y30689I172D01*
X21842Y30517J172*
X22014Y30346I172*
X22186Y30517J171*
G01X22191Y-6713D02*
X22223Y-6738D01*
X22384*
X22462Y-6675*
Y-6342*
X22433Y-6319*
X22191Y-6713*
Y-5713D02*
X22223Y-5738D01*
X22384*
X22462Y-5675*
Y-5342*
X22433Y-5319*
X22191Y-5713*
X22195Y-4713D02*
X22227Y-4738D01*
X22388*
X22466Y-4675*
Y-4342*
X22437Y-4319*
X22195Y-4713*
X22486Y-3259D02*
X22350D01*
X22347Y-3258*
X22345Y-3257*
X22244Y-3190*
X22242Y-3189*
X22241Y-3187*
X22240Y-3184*
X22239Y-3182*
Y-2979*
X22240Y-2976*
X22241Y-2974*
X22242Y-2972*
X22243*
X22244Y-2971*
X22345Y-2904*
X22347Y-2902*
X22350Y-2901*
X22486Y-2902*
X22487*
X22489Y-2903*
X22493Y-2904*
X22594Y-3005*
X22596Y-3009*
Y-3013*
X22595Y-3016*
X22592Y-3019*
X22590Y-3021*
X22586Y-3023*
X22582Y-3022*
X22579Y-3020*
X22481Y-2922*
X22353*
X22260Y-2985*
Y-3177*
X22353Y-3239*
X22481*
X22579Y-3140*
X22582Y-3138*
X22586*
X22590Y-3139*
X22593Y-3142*
X22595Y-3145*
X22596Y-3148*
Y-3152*
X22594Y-3155*
X22493Y-3256*
X22489Y-3258*
X22487*
Y-3259*
X22486*
X22532Y36690D02*
G03X22434Y36788I98D01*
X22336Y36690J98*
X22434Y36592I98*
X22532Y36690J98*
G01X22551Y35965D02*
G03X22452Y36064I99D01*
X22354Y35965J99*
X22452Y35867I98*
X22551Y35965J98*
G01X22602Y-6329D02*
X22686Y-6261D01*
X22688Y-6260*
X22690*
Y-6259*
X22692*
X22861*
X22863*
X22864Y-6260*
X22865*
X22867Y-6261*
X22951Y-6329*
X22953Y-6332*
Y-6334*
X22954Y-6335*
X22955Y-6337*
Y-6680*
X22954Y-6682*
X22953Y-6685*
Y-6686*
X22951Y-6688*
X22867Y-6757*
X22865*
X22864Y-6758*
X22863*
X22862Y-6759*
X22861*
X22692*
X22690Y-6758*
X22688*
X22686Y-6757*
X22602Y-6688*
X22601Y-6687*
X22600*
X22599Y-6685*
X22598Y-6682*
Y-6680*
Y-6337*
Y-6335*
X22599Y-6334*
X22600Y-6332*
X22602Y-6329*
Y-5329D02*
X22686Y-5261D01*
X22688Y-5260*
X22690*
Y-5259*
X22692*
X22861*
X22863*
X22864Y-5260*
X22865*
X22867Y-5261*
X22951Y-5329*
X22953Y-5332*
Y-5334*
X22954Y-5335*
X22955Y-5337*
Y-5680*
X22954Y-5682*
X22953Y-5685*
Y-5686*
X22951Y-5688*
X22867Y-5757*
X22865*
X22864Y-5758*
X22863*
X22862Y-5759*
X22861*
X22692*
X22690Y-5758*
X22688*
X22686Y-5757*
X22602Y-5688*
X22601Y-5687*
X22600*
X22599Y-5685*
X22598Y-5682*
Y-5680*
Y-5337*
Y-5335*
X22599Y-5334*
X22600Y-5332*
X22602Y-5329*
X22606Y36690D02*
G03X22434Y36862I172D01*
X22262Y36690J172*
X22434Y36518I172*
X22606Y36690J172*
G01Y-4329D02*
X22690Y-4261D01*
X22692Y-4260*
X22694*
Y-4259*
X22696*
X22865*
X22867*
X22868Y-4260*
X22869*
X22871Y-4261*
X22955Y-4329*
X22957Y-4332*
Y-4334*
X22958Y-4335*
X22959Y-4337*
Y-4680*
X22958Y-4682*
X22957Y-4685*
Y-4686*
X22955Y-4688*
X22871Y-4757*
X22869*
X22868Y-4758*
X22867*
X22866Y-4759*
X22865*
X22696*
X22694Y-4758*
X22692*
X22690Y-4757*
X22606Y-4688*
X22605Y-4687*
X22604*
X22603Y-4685*
X22602Y-4682*
Y-4680*
Y-4337*
Y-4335*
X22603Y-4334*
X22604Y-4332*
X22606Y-4329*
X22618Y-6342D02*
Y-6675D01*
X22648Y-6700*
X22890Y-6306*
X22857Y-6279*
X22695*
X22618Y-6342*
Y-5342D02*
Y-5675D01*
X22648Y-5700*
X22890Y-5306*
X22857Y-5279*
X22695*
X22618Y-5342*
X22622Y-4342D02*
Y-4675D01*
X22652Y-4700*
X22894Y-4306*
X22861Y-4279*
X22699*
X22622Y-4342*
X22624Y35965D02*
G03X22452Y36137I172D01*
X22280Y35965J172*
X22452Y35794I172*
X22624Y35965J171*
G01X22664Y-6713D02*
X22695Y-6738D01*
X22857*
X22935Y-6675*
Y-6342*
X22905Y-6319*
X22664Y-6713*
Y-5713D02*
X22695Y-5738D01*
X22857*
X22935Y-5675*
Y-5342*
X22905Y-5319*
X22664Y-5713*
X22668Y-4713D02*
X22699Y-4738D01*
X22861*
X22939Y-4675*
Y-4342*
X22909Y-4319*
X22668Y-4713*
X22731Y-2985D02*
Y-3037D01*
X23047*
Y-3017*
X22952Y-2922*
X22824*
X22731Y-2985*
X22821Y-2901D02*
X22957Y-2902D01*
X22959*
X22961Y-2903*
X22964Y-2904*
X23065Y-3005*
X23066Y-3008*
Y-3010*
Y-3011*
X23067*
Y-3013*
Y-3047*
Y-3050*
X23064Y-3053*
X23062Y-3056*
X23057Y-3057*
X22731*
Y-3177*
X22824Y-3239*
X22952*
X23050Y-3140*
X23053Y-3138*
X23057*
X23061Y-3139*
X23064Y-3142*
X23066Y-3145*
X23067Y-3148*
Y-3152*
X23065Y-3155*
X22964Y-3256*
X22961Y-3258*
X22959*
X22957Y-3259*
X22821*
X22818Y-3258*
X22816Y-3257*
X22715Y-3190*
X22713Y-3189*
X22712Y-3187*
X22711Y-3184*
X22710Y-3182*
Y-2979*
X22711Y-2976*
X22712Y-2974*
X22713Y-2972*
X22714*
X22715Y-2971*
X22816Y-2904*
X22818Y-2902*
X22821Y-2901*
X23075Y-6329D02*
X23159Y-6261D01*
X23161Y-6260*
X23162*
X23163Y-6259*
X23165*
X23333*
X23335*
X23336*
Y-6260*
X23338*
X23340Y-6261*
X23424Y-6329*
X23425Y-6332*
X23426Y-6334*
X23427Y-6335*
Y-6337*
Y-6680*
Y-6682*
X23426Y-6685*
X23425Y-6686*
X23424Y-6688*
X23340Y-6757*
X23338*
X23337Y-6758*
X23336*
X23335Y-6759*
X23333*
X23165*
X23163Y-6758*
X23161*
X23159Y-6757*
X23075Y-6688*
X23074Y-6687*
X23073*
X23072Y-6685*
X23071Y-6682*
X23070Y-6680*
Y-6337*
X23071Y-6335*
X23072Y-6334*
X23073Y-6332*
X23075Y-6329*
Y-5329D02*
X23159Y-5261D01*
X23161Y-5260*
X23162*
X23163Y-5259*
X23165*
X23333*
X23335*
X23336*
Y-5260*
X23338*
X23340Y-5261*
X23424Y-5329*
X23425Y-5332*
X23426Y-5334*
X23427Y-5335*
Y-5337*
Y-5680*
Y-5682*
X23426Y-5685*
X23425Y-5686*
X23424Y-5688*
X23340Y-5757*
X23338*
X23337Y-5758*
X23336*
X23335Y-5759*
X23333*
X23165*
X23163Y-5758*
X23161*
X23159Y-5757*
X23075Y-5688*
X23074Y-5687*
X23073*
X23072Y-5685*
X23071Y-5682*
X23070Y-5680*
Y-5337*
X23071Y-5335*
X23072Y-5334*
X23073Y-5332*
X23075Y-5329*
X23091Y-6342D02*
Y-6675D01*
X23120Y-6700*
X23362Y-6306*
X23329Y-6279*
X23168*
X23091Y-6342*
Y-5342D02*
Y-5675D01*
X23120Y-5700*
X23362Y-5306*
X23329Y-5279*
X23168*
X23091Y-5342*
X23136Y-6713D02*
X23168Y-6738D01*
X23329*
X23407Y-6675*
Y-6342*
X23378Y-6319*
X23136Y-6713*
Y-5713D02*
X23168Y-5738D01*
X23329*
X23407Y-5675*
Y-5342*
X23378Y-5319*
X23136Y-5713*
X23172Y-4696D02*
Y-4750D01*
Y-4753*
X23173Y-4754*
X23174Y-4755*
X23175Y-4756*
X23177Y-4758*
X23180Y-4759*
X23235*
X23238Y-4758*
X23240Y-4756*
X23243Y-4754*
Y-4750*
Y-4696*
Y-4692*
X23240Y-4690*
X23238Y-4688*
X23235Y-4687*
X23180*
X23177Y-4688*
X23175Y-4690*
X23174Y-4691*
X23173Y-4692*
X23172Y-4694*
Y-4696*
X23188Y-4704D02*
X23227D01*
Y-4742*
X23188*
Y-4704*
X23530Y31902D02*
X24218D01*
X23531Y-4738D02*
X23527Y-4739D01*
X23525Y-4741*
X23523Y-4745*
Y-4749*
Y-4752*
X23525Y-4756*
X23527Y-4758*
X23531Y-4759*
X23726*
X23729Y-4758*
X23732Y-4756*
X23734Y-4752*
Y-4749*
Y-4745*
X23732Y-4741*
X23729Y-4739*
X23726Y-4738*
X23638*
Y-4269*
X23637Y-4265*
X23636Y-4263*
X23633Y-4261*
X23630*
X23627Y-4260*
X23625*
X23623Y-4261*
X23621Y-4263*
X23523Y-4400*
X23522Y-4404*
Y-4407*
X23523Y-4410*
X23526Y-4413*
X23529Y-4415*
X23532Y-4416*
X23534*
X23536Y-4415*
X23538Y-4412*
X23618Y-4300*
Y-4738*
X23531*
X23874Y31533D02*
X24243Y31902D01*
X23874Y32270*
X23505Y31902*
X23874Y31533*
Y31558D02*
Y32245D01*
X23918Y-4329D02*
X24002Y-4261D01*
X24004Y-4260*
X24006*
Y-4259*
X24008*
X24177*
X24179*
X24180Y-4260*
X24181*
X24183Y-4261*
X24267Y-4329*
X24269Y-4332*
Y-4334*
X24270Y-4335*
X24271Y-4337*
Y-4680*
X24270Y-4682*
X24269Y-4685*
Y-4686*
X24267Y-4688*
X24183Y-4757*
X24181*
X24180Y-4758*
X24179*
X24178Y-4759*
X24177*
X24008*
X24006Y-4758*
X24004*
X24002Y-4757*
X23918Y-4688*
X23917Y-4687*
X23916*
X23915Y-4685*
X23914Y-4682*
Y-4680*
Y-4337*
Y-4335*
X23915Y-4334*
X23916Y-4332*
X23918Y-4329*
X23934Y-4342D02*
Y-4675D01*
X23964Y-4700*
X24206Y-4306*
X24173Y-4279*
X24011*
X23934Y-4342*
X23980Y-4713D02*
X24011Y-4738D01*
X24173*
X24251Y-4675*
Y-4342*
X24221Y-4319*
X23980Y-4713*
X24391Y-4329D02*
X24475Y-4261D01*
X24477Y-4260*
X24478*
X24479Y-4259*
X24481*
X24649*
X24651*
X24652*
Y-4260*
X24654*
X24656Y-4261*
X24740Y-4329*
X24741Y-4332*
X24742Y-4334*
X24743Y-4335*
Y-4337*
Y-4680*
Y-4682*
X24742Y-4685*
X24741Y-4686*
X24740Y-4688*
X24656Y-4757*
X24654*
X24653Y-4758*
X24652*
X24651Y-4759*
X24649*
X24481*
X24479Y-4758*
X24477*
X24475Y-4757*
X24391Y-4688*
X24390Y-4687*
X24389*
X24388Y-4685*
X24387Y-4682*
X24386Y-4680*
Y-4337*
X24387Y-4335*
X24388Y-4334*
X24389Y-4332*
X24391Y-4329*
X24407Y-4342D02*
Y-4675D01*
X24436Y-4700*
X24678Y-4306*
X24645Y-4279*
X24484*
X24407Y-4342*
X24452Y-4713D02*
X24484Y-4738D01*
X24645*
X24723Y-4675*
Y-4342*
X24694Y-4319*
X24452Y-4713*
X24686Y38133D02*
G03X24588Y38232I98D01*
X24490Y38133J99*
X24588Y38035I98*
X24686Y38133J98*
G01X24760D02*
G03X24588Y38305I172D01*
X24416Y38133J172*
X24588Y37962I172*
X24760Y38133J171*
G01X24863Y-4329D02*
X24947Y-4261D01*
X24949Y-4260*
X24951*
Y-4259*
X24953*
X25122*
X25124*
X25125Y-4260*
X25126*
X25128Y-4261*
X25212Y-4329*
X25214Y-4332*
Y-4334*
X25215Y-4335*
X25216Y-4337*
Y-4680*
X25215Y-4682*
X25214Y-4685*
Y-4686*
X25212Y-4688*
X25128Y-4757*
X25126*
X25125Y-4758*
X25124*
X25123Y-4759*
X25122*
X24953*
X24951Y-4758*
X24949*
X24947Y-4757*
X24863Y-4688*
X24862Y-4687*
X24861*
X24860Y-4685*
X24859Y-4682*
Y-4680*
Y-4337*
Y-4335*
X24860Y-4334*
X24861Y-4332*
X24863Y-4329*
X24879Y-4342D02*
Y-4675D01*
X24909Y-4700*
X25151Y-4306*
X25118Y-4279*
X24956*
X24879Y-4342*
X24925Y-4713D02*
X24956Y-4738D01*
X25118*
X25196Y-4675*
Y-4342*
X25166Y-4319*
X24925Y-4713*
X25242Y41595D02*
G03X25144Y41693I98D01*
X25045Y41595J98*
X25144Y41496I99*
X25242Y41595J99*
G01X25316D02*
G03X25144Y41766I172D01*
X24972Y41595J171*
X25144Y41423I172*
X25316Y41595J172*
G01X25322Y1633D02*
G03X25224Y1731I98D01*
X25126Y1633J98*
X25224Y1535I98*
X25322Y1633J98*
G01X25331Y21261D02*
G03X25233Y21359I98D01*
X25135Y21261J98*
X25233Y21163I98*
X25331Y21261J98*
G01X25337Y11432D02*
G03X25239Y11530I98D01*
X25141Y11432J98*
X25239Y11334I98*
X25337Y11432J98*
G01X25339Y40862D02*
G03X25240Y40960I99D01*
X25142Y40862J98*
X25240Y40764I98*
X25339Y40862J98*
G01X25396Y1633D02*
G03X25224Y1805I172D01*
X25052Y1633J172*
X25224Y1461I172*
X25396Y1633J172*
G01X25405Y21261D02*
G03X25233Y21433I172D01*
X25061Y21261J172*
X25233Y21089I172*
X25405Y21261J172*
G01X25411Y11432D02*
G03X25239Y11604I172D01*
X25067Y11432J172*
X25239Y11260I172*
X25411Y11432J172*
G01X25412Y40862D02*
G03X25240Y41034I172D01*
X25069Y40862J172*
X25240Y40690I171*
X25412Y40862J172*
G01X25471Y7989D02*
G03X25372Y8087I99D01*
X25274Y7989J98*
X25372Y7891I98*
X25471Y7989J98*
G01X25477Y27612D02*
G03X25379Y27710I98D01*
X25281Y27612J98*
X25379Y27514I98*
X25477Y27612J98*
G01X25493Y17800D02*
G03X25394Y17898I99D01*
X25296Y17800J98*
X25394Y17702I98*
X25493Y17800J98*
G01X25496Y37420D02*
G03X25398Y37518I98D01*
X25300Y37420J98*
X25398Y37322I98*
X25496Y37420J98*
G01X25544Y7989D02*
G03X25372Y8161I172D01*
X25201Y7989J172*
X25372Y7817I171*
X25544Y7989J172*
G01X25551Y27612D02*
G03X25379Y27784I172D01*
X25207Y27612J172*
X25379Y27440I172*
X25551Y27612J172*
G01X25566Y17800D02*
G03X25394Y17972I172D01*
X25223Y17800J172*
X25394Y17628I171*
X25566Y17800J172*
G01X25570Y37420D02*
G03X25398Y37592I172D01*
X25226Y37420J172*
X25398Y37248I172*
X25570Y37420J172*
G01X25905Y42834D02*
G03X25807Y42932I98D01*
X25709Y42834J98*
X25807Y42735I98*
X25905Y42834J99*
G01X25909Y30561D02*
G03X25811Y30659I98D01*
X25713Y30561J98*
X25811Y30463I98*
X25909Y30561J98*
G01X25979Y42834D02*
G03X25807Y43006I172D01*
X25635Y42834J172*
X25807Y42662I172*
X25979Y42834J172*
G01X25983Y30561D02*
G03X25811Y30733I172D01*
X25639Y30561J172*
X25811Y30389I172*
X25983Y30561J172*
G01X26910Y37643D02*
G03X26812Y37741I98D01*
X26714Y37643J98*
X26812Y37545I98*
X26910Y37643J98*
G01X26946Y4911D02*
G03X26848Y5009I98D01*
X26750Y4911J98*
X26848Y4813I98*
X26946Y4911J98*
G01X26984Y37643D02*
G03X26812Y37815I172D01*
X26640Y37643J172*
X26812Y37471I172*
X26984Y37643J172*
G01X27020Y4911D02*
G03X26848Y5083I172D01*
X26676Y4911J172*
X26848Y4739I172*
X27020Y4911J172*
G01X27184Y-2779D02*
X27423D01*
X27501Y-2842*
Y-2935*
X27423Y-2999*
X27184*
Y-2779*
X27235Y-1249D02*
Y-1252D01*
X27238Y-1255*
X27241Y-1257*
X27245*
X27248*
X27251Y-1255*
X27254Y-1252*
X27255Y-1249*
Y-779*
X27413*
X27417Y-778*
X27420Y-776*
X27421Y-773*
X27422Y-769*
X27421Y-765*
X27420Y-762*
X27417Y-759*
X27413*
X27076*
X27072*
X27070Y-762*
X27068Y-765*
X27067Y-769*
X27068Y-773*
X27070Y-776*
X27072Y-778*
X27076Y-779*
X27235*
Y-1249*
X27349Y18139D02*
G03X27251Y18237I98D01*
X27153Y18139J98*
X27251Y18040I98*
X27349Y18139J99*
G01X27385Y44132D02*
G03X27287Y44230I98D01*
X27189Y44132J98*
X27287Y44033I98*
X27385Y44132J99*
G01X27423Y18139D02*
G03X27251Y18310I172D01*
X27079Y18139J171*
X27251Y17967I172*
X27423Y18139J172*
G01X27459Y44132D02*
G03X27287Y44304I172D01*
X27115Y44132J172*
X27287Y43960I172*
X27459Y44132J172*
G01X27517Y-2949D02*
X27519Y-2948D01*
Y-2945*
X27521Y-2943*
Y-2940*
Y-2837*
Y-2835*
X27519Y-2833*
Y-2832*
Y-2831*
X27518*
X27517Y-2830*
X27432Y-2761*
X27430Y-2760*
X27428Y-2759*
X27426*
X27174*
X27169Y-2760*
X27166Y-2762*
X27164Y-2765*
X27163Y-2769*
Y-3249*
X27164Y-3253*
X27166Y-3255*
X27169Y-3257*
X27173*
X27177*
X27180Y-3255*
X27183Y-3253*
X27184Y-3249*
Y-3019*
X27426*
X27429Y-3018*
X27431*
X27432Y-3017*
X27517Y-2949*
X27650Y-896D02*
X27649D01*
X27648*
X27647Y-897*
X27646*
X27645Y-898*
X27644*
X27559Y-956*
Y-769*
X27558Y-765*
X27556Y-762*
X27552Y-761*
X27548Y-760*
X27545Y-761*
X27542Y-762*
X27539Y-765*
X27538Y-769*
Y-1249*
X27539Y-1253*
X27542Y-1255*
X27545Y-1257*
X27548*
X27552*
X27556Y-1255*
X27558Y-1253*
X27559Y-1249*
Y-980*
X27651Y-917*
X27782*
X27876Y-980*
Y-1249*
Y-1253*
X27879Y-1255*
X27882Y-1257*
X27886*
X27889*
X27892Y-1255*
X27895Y-1253*
X27896Y-1249*
Y-975*
X27895Y-972*
X27894Y-969*
X27891Y-967*
X27790Y-898*
X27788Y-897*
X27785Y-896*
X27650*
X27708Y-2759D02*
X27704Y-2760D01*
X27702Y-2762*
X27700Y-2765*
Y-2769*
Y-2773*
X27702Y-2776*
X27704Y-2778*
X27708Y-2779*
X27795*
Y-3238*
X27708*
X27704Y-3239*
X27702Y-3241*
X27700Y-3245*
Y-3249*
Y-3252*
X27702Y-3256*
X27704Y-3258*
X27708Y-3259*
X27903*
X27906Y-3258*
X27909Y-3256*
X27911Y-3252*
Y-3249*
Y-3245*
X27909Y-3241*
X27906Y-3239*
X27903Y-3238*
X27815*
Y-2769*
X27814Y-2765*
X27812Y-2762*
X27809Y-2760*
X27805Y-2759*
X27708*
X28010Y-1249D02*
X28011Y-1253D01*
X28013Y-1255*
X28016Y-1257*
X28020*
X28024*
X28027Y-1255*
X28030Y-1253*
X28031Y-1249*
Y-984*
X28108Y-922*
X28269*
X28351Y-987*
X28354Y-989*
X28358Y-988*
X28361Y-987*
X28364Y-984*
X28366Y-981*
Y-977*
Y-974*
X28364Y-971*
X28279Y-904*
X28277Y-903*
X28275Y-902*
X28273*
X28104*
X28102*
X28101Y-903*
X28099Y-904*
X28031Y-958*
Y-912*
X28030Y-908*
X28027Y-905*
X28024Y-904*
X28020Y-903*
X28016Y-904*
X28013Y-905*
X28011Y-908*
X28010Y-912*
Y-978*
Y-979*
Y-981*
Y-1249*
X28095Y-6749D02*
X28096Y-6753D01*
X28099Y-6755*
X28102Y-6757*
X28105*
X28109*
X28113Y-6755*
X28115Y-6753*
X28116Y-6749*
Y-6301*
X28435Y-6755*
X28436Y-6757*
X28439Y-6758*
X28441*
X28444Y-6757*
X28448Y-6756*
X28451Y-6754*
X28452Y-6752*
X28453Y-6749*
Y-6269*
X28452Y-6265*
X28449Y-6262*
X28446Y-6261*
X28443Y-6260*
X28439Y-6261*
X28436Y-6262*
X28433Y-6265*
Y-6269*
Y-6717*
X28114Y-6263*
X28112Y-6261*
X28110Y-6260*
X28107*
X28105Y-6261*
X28101*
X28098Y-6263*
X28096Y-6265*
X28095Y-6269*
Y-6749*
Y-5749D02*
X28096Y-5753D01*
X28099Y-5755*
X28102Y-5757*
X28105*
X28109*
X28113Y-5755*
X28115Y-5753*
X28116Y-5749*
Y-5301*
X28435Y-5755*
X28436Y-5757*
X28439Y-5758*
X28441*
X28444Y-5757*
X28448Y-5756*
X28451Y-5754*
X28452Y-5752*
X28453Y-5749*
Y-5269*
X28452Y-5265*
X28449Y-5262*
X28446Y-5261*
X28443Y-5260*
X28439Y-5261*
X28436Y-5262*
X28433Y-5265*
Y-5269*
Y-5717*
X28114Y-5263*
X28112Y-5261*
X28110Y-5260*
X28107*
X28105Y-5261*
X28101*
X28098Y-5263*
X28096Y-5265*
X28095Y-5269*
Y-5749*
X28110Y-3086D02*
X28203Y-3023D01*
X28333*
X28426Y-3086*
Y-3177*
X28333Y-3239*
X28203*
X28110Y-3177*
Y-3086*
X28123Y45767D02*
G03X28025Y45865I98D01*
X27927Y45767J98*
X28025Y45669I98*
X28123Y45767J98*
G01X28140Y46498D02*
G03X28042Y46597I98D01*
X27944Y46498J99*
X28042Y46400I98*
X28140Y46498J98*
G01X28197Y45767D02*
G03X28025Y45939I172D01*
X27853Y45767J172*
X28025Y45595I172*
X28197Y45767J172*
G01X28214Y46498D02*
G03X28042Y46670I172D01*
X27870Y46498J172*
X28042Y46327I172*
X28214Y46498J171*
G01X28215Y-4275D02*
X28048Y-4512D01*
Y-4749*
X28047Y-4752*
X28045Y-4755*
X28041Y-4757*
X28038*
X28034*
X28031Y-4755*
X28029Y-4752*
X28028Y-4749*
Y-4512*
X27861Y-4275*
X27860Y-4272*
Y-4268*
X27862Y-4265*
X27864Y-4262*
X27868Y-4260*
X27871*
X27875*
X27878Y-4263*
X28038Y-4491*
X28199Y-4263*
X28201Y-4260*
X28204*
X28208*
X28211Y-4262*
X28214Y-4265*
X28216Y-4268*
Y-4272*
X28215Y-4275*
X28352Y-4485D02*
Y-4537D01*
X28669*
Y-4517*
X28573Y-4422*
X28445*
X28352Y-4485*
X28426Y-3249D02*
X28427Y-3253D01*
X28429Y-3255*
X28433Y-3257*
X28436*
X28440*
X28443Y-3255*
X28445Y-3253*
X28446Y-3249*
Y-2979*
X28445Y-2977*
Y-2975*
X28444Y-2972*
X28376Y-2904*
X28373Y-2903*
X28371Y-2902*
X28369*
X28099*
X28095*
X28093Y-2905*
X28091Y-2908*
X28090Y-2912*
X28091Y-2915*
X28093Y-2918*
X28095Y-2921*
X28099Y-2922*
X28364*
X28426Y-2984*
Y-3062*
X28340Y-3004*
X28338Y-3003*
X28335*
X28200*
X28197*
X28195Y-3004*
X28094Y-3072*
X28093Y-3073*
X28092Y-3074*
X28091*
X28089Y-3077*
Y-3080*
Y-3182*
Y-3184*
X28091Y-3187*
X28092Y-3188*
X28094Y-3189*
X28195Y-3257*
X28197Y-3258*
X28200Y-3259*
X28335*
X28338Y-3258*
X28340Y-3257*
X28426Y-3200*
Y-3249*
X28443Y-4401D02*
X28578Y-4402D01*
X28580*
X28582Y-4403*
X28585Y-4404*
X28687Y-4505*
Y-4508*
X28688Y-4510*
Y-4511*
X28689Y-4513*
Y-4547*
X28688Y-4550*
X28686Y-4553*
X28683Y-4556*
X28679Y-4557*
X28352*
Y-4677*
X28445Y-4739*
X28573*
X28672Y-4640*
X28675Y-4638*
X28678*
X28682Y-4639*
X28685Y-4642*
X28688Y-4645*
X28689Y-4648*
Y-4652*
X28687Y-4655*
X28585Y-4756*
X28582Y-4758*
X28580*
X28578Y-4759*
X28443*
X28440Y-4758*
X28437Y-4757*
X28337Y-4690*
X28335Y-4689*
X28334Y-4687*
X28332Y-4684*
Y-4682*
Y-4479*
Y-4476*
X28334Y-4474*
X28335Y-4472*
X28336*
X28337Y-4471*
X28437Y-4404*
X28440Y-4402*
X28443Y-4401*
X28504Y-984D02*
Y-1177D01*
X28565Y-1239*
X28758*
X28820Y-1177*
Y-984*
X28758Y-922*
X28565*
X28504Y-984*
X28589Y-6484D02*
Y-6677D01*
X28650Y-6739*
X28843*
X28905Y-6677*
Y-6484*
X28843Y-6422*
X28650*
X28589Y-6484*
Y-5484D02*
Y-5677D01*
X28650Y-5739*
X28843*
X28905Y-5677*
Y-5484*
X28843Y-5422*
X28650*
X28589Y-5484*
X28748Y-2769D02*
X28747Y-2765D01*
X28744Y-2762*
X28741Y-2761*
X28738Y-2760*
X28734Y-2761*
X28731Y-2762*
X28728Y-2765*
Y-2769*
Y-2930*
X28605*
X28602Y-2931*
X28599Y-2933*
X28598Y-2937*
Y-2940*
Y-2944*
X28599Y-2947*
X28602Y-2949*
X28605Y-2950*
X28728*
Y-3215*
Y-3217*
X28730Y-3220*
X28731Y-3221*
X28733Y-3222*
X28783Y-3257*
X28785Y-3258*
X28788Y-3259*
X28855*
X28858Y-3258*
X28861Y-3257*
X28911Y-3222*
X28913Y-3220*
X28914Y-3217*
Y-3213*
X28912Y-3210*
X28910Y-3207*
X28907Y-3205*
X28903*
X28900Y-3206*
X28852Y-3238*
X28790*
X28748Y-3210*
Y-2950*
X28871*
X28875Y-2949*
X28878Y-2947*
X28879Y-2944*
X28880Y-2940*
X28879Y-2937*
X28878Y-2933*
X28875Y-2931*
X28871Y-2930*
X28748*
Y-2769*
X28763Y-1259D02*
X28561D01*
X28559*
X28558Y-1258*
X28556*
X28553Y-1256*
X28486Y-1189*
X28484Y-1186*
X28483Y-1184*
Y-1181*
Y-979*
Y-977*
X28484Y-974*
X28486Y-971*
X28553Y-904*
X28556Y-903*
X28558Y-902*
X28559*
X28561Y-901*
X28763Y-902*
X28765*
X28767Y-903*
X28770Y-904*
X28838Y-971*
X28839Y-974*
Y-976*
X28840Y-977*
Y-979*
Y-1181*
Y-1184*
X28839Y-1185*
X28838Y-1189*
X28770Y-1256*
X28767Y-1258*
X28765*
X28763Y-1259*
X28848Y-6759D02*
X28646D01*
X28644*
X28643Y-6758*
X28641*
X28638Y-6756*
X28571Y-6689*
X28569Y-6686*
X28568Y-6684*
Y-6681*
Y-6479*
Y-6477*
X28569Y-6474*
X28571Y-6471*
X28638Y-6404*
X28641Y-6403*
X28643Y-6402*
X28644*
X28646Y-6401*
X28848Y-6402*
X28850*
X28852Y-6403*
X28855Y-6404*
X28923Y-6471*
X28924Y-6474*
Y-6476*
X28925Y-6477*
Y-6479*
Y-6681*
Y-6684*
X28924Y-6685*
X28923Y-6689*
X28855Y-6756*
X28852Y-6758*
X28850*
X28848Y-6759*
Y-5759D02*
X28646D01*
X28644*
X28643Y-5758*
X28641*
X28638Y-5756*
X28571Y-5689*
X28569Y-5686*
X28568Y-5684*
Y-5681*
Y-5479*
Y-5477*
X28569Y-5474*
X28571Y-5471*
X28638Y-5404*
X28641Y-5403*
X28643Y-5402*
X28644*
X28646Y-5401*
X28848Y-5402*
X28850*
X28852Y-5403*
X28855Y-5404*
X28923Y-5471*
X28924Y-5474*
Y-5476*
X28925Y-5477*
Y-5479*
Y-5681*
Y-5684*
X28924Y-5685*
X28923Y-5689*
X28855Y-5756*
X28852Y-5758*
X28850*
X28848Y-5759*
X28954Y-1182D02*
X28955Y-1183D01*
X28956Y-1186*
X28957Y-1188*
X28959Y-1189*
X29043Y-1257*
X29045Y-1258*
X29047*
X29049Y-1259*
X29217*
X29219*
Y-1258*
X29220*
X29221*
X29222*
X29224Y-1257*
X29292Y-1202*
Y-1249*
Y-1253*
X29295Y-1255*
X29298Y-1257*
X29302*
X29305*
X29308Y-1255*
X29311Y-1253*
X29312Y-1249*
Y-912*
X29311Y-908*
X29308Y-905*
X29305Y-904*
X29302Y-903*
X29298Y-904*
X29295Y-905*
X29292Y-908*
Y-912*
Y-1177*
X29214Y-1239*
X29052*
X28975Y-1177*
Y-912*
X28974Y-908*
X28972Y-905*
X28968Y-904*
X28964Y-903*
X28961Y-904*
X28958Y-905*
X28955Y-908*
X28954Y-912*
Y-1182*
X29050Y-2985D02*
Y-3037D01*
X29366*
Y-3017*
X29271Y-2922*
X29143*
X29050Y-2985*
X29072Y-4403D02*
X29156Y-4454D01*
X29158Y-4455*
X29159Y-4457*
X29160Y-4458*
Y-4460*
X29159Y-4463*
Y-4466*
X29157Y-4468*
X29155Y-4470*
X29153Y-4472*
X29151Y-4473*
X29148Y-4472*
X29145Y-4471*
X29063Y-4422*
X28900*
X28824Y-4468*
Y-4540*
X28883Y-4570*
X29083*
X29085Y-4571*
X29086*
X29087*
Y-4572*
X29155Y-4605*
X29158Y-4608*
X29159Y-4610*
X29160Y-4612*
Y-4614*
Y-4698*
Y-4700*
X29159Y-4703*
X29158Y-4705*
X29157Y-4706*
X29089Y-4757*
X29088*
X29087Y-4758*
X29086*
X29085Y-4759*
X29084*
X29083*
X28881*
X28879*
X28878Y-4758*
X28876*
X28875Y-4757*
X28808Y-4706*
X28805Y-4703*
Y-4702*
Y-4700*
Y-4697*
X28807Y-4693*
X28809Y-4691*
X28812Y-4689*
X28814Y-4688*
X28816*
X28818Y-4689*
X28819Y-4690*
X28884Y-4739*
X29079*
X29140Y-4693*
Y-4620*
X29081Y-4590*
X28881*
X28879*
X28878*
X28876Y-4589*
X28809Y-4555*
X28806Y-4554*
X28805Y-4551*
X28804Y-4549*
X28803Y-4547*
Y-4462*
Y-4460*
X28804Y-4458*
X28805Y-4456*
X28808Y-4454*
X28892Y-4403*
X28894Y-4402*
X28896*
X28897*
X29066*
X29067*
X29069Y-4403*
X29072*
X29140Y-2901D02*
X29276Y-2902D01*
X29278*
X29280Y-2903*
X29283Y-2904*
X29384Y-3005*
X29385Y-3008*
Y-3010*
Y-3011*
X29386*
Y-3013*
Y-3047*
Y-3050*
X29383Y-3053*
X29381Y-3056*
X29376Y-3057*
X29050*
Y-3177*
X29143Y-3239*
X29271*
X29369Y-3140*
X29372Y-3138*
X29376*
X29380Y-3139*
X29383Y-3142*
X29385Y-3145*
X29386Y-3148*
Y-3152*
X29384Y-3155*
X29283Y-3256*
X29280Y-3258*
X29278*
X29276Y-3259*
X29140*
X29137Y-3258*
X29135Y-3257*
X29034Y-3190*
X29032Y-3189*
X29031Y-3187*
X29030Y-3184*
X29029Y-3182*
Y-2979*
X29030Y-2976*
X29031Y-2974*
X29032Y-2972*
X29033*
X29034Y-2971*
X29135Y-2904*
X29137Y-2902*
X29140Y-2901*
X29448Y-979D02*
Y-1175D01*
X29541Y-1238*
X29669*
X29764Y-1140*
X29765Y-1013*
X29669Y-914*
X29541*
X29448Y-979*
X29458Y33965D02*
G03X29360Y34064I98D01*
X29262Y33965J99*
X29360Y33867I98*
X29458Y33965J98*
G01X29521Y-2979D02*
X29598Y-2917D01*
X29758*
X29838Y-3014*
Y-3175*
X29760Y-3238*
X29598*
X29521Y-3175*
Y-2979*
X29532Y33965D02*
G03X29360Y34137I172D01*
X29188Y33965J172*
X29360Y33794I172*
X29532Y33965J171*
G01X29589Y-3257D02*
X29591Y-3258D01*
X29593*
X29595Y-3259*
X29763*
X29765*
X29766Y-3258*
X29767*
X29770Y-3257*
X29838Y-3201*
Y-3249*
Y-3253*
X29841Y-3255*
X29844Y-3257*
X29848*
X29851*
X29854Y-3255*
X29857Y-3253*
X29858Y-3249*
Y-3008*
Y-3007*
Y-2769*
X29857Y-2765*
X29854Y-2762*
X29851Y-2761*
X29848Y-2760*
X29844Y-2761*
X29841Y-2762*
X29838Y-2765*
Y-2769*
Y-2980*
X29772Y-2900*
X29770Y-2898*
X29766Y-2897*
X29765Y-2896*
X29763*
X29595*
X29593Y-2897*
X29591*
X29589Y-2898*
X29505Y-2967*
X29503Y-2968*
X29502Y-2970*
X29501Y-2973*
X29500Y-2975*
Y-3180*
X29501Y-3183*
X29502Y-3185*
X29503Y-3187*
X29505Y-3188*
X29589Y-3257*
X29763Y40189D02*
G03X29665Y40288I98D01*
X29567Y40189J99*
X29665Y40091I98*
X29763Y40189J98*
G01X29774Y-1464D02*
X29438D01*
X29434Y-1463*
X29431Y-1461*
X29429Y-1458*
Y-1454*
Y-1450*
X29431Y-1447*
X29434Y-1445*
X29438Y-1444*
X29764*
Y-1171*
X29681Y-1256*
X29678Y-1258*
X29676*
X29674Y-1259*
X29539*
X29535Y-1258*
X29533Y-1257*
X29432Y-1188*
X29430Y-1187*
X29429Y-1185*
X29428Y-1183*
X29427Y-1179*
Y-973*
X29428Y-970*
X29429Y-967*
X29430Y-966*
X29431Y-965*
X29432Y-964*
X29533Y-896*
X29535Y-894*
X29539*
X29673*
X29676*
X29678Y-895*
X29681Y-896*
X29765Y-983*
Y-904*
X29766Y-900*
X29768Y-898*
X29771Y-896*
X29775Y-895*
X29778Y-896*
X29782Y-898*
X29784Y-901*
X29785Y-905*
X29784Y-1454*
Y-1458*
X29781Y-1461*
X29778Y-1463*
X29774Y-1464*
X29812Y24361D02*
G03X29714Y24459I98D01*
X29615Y24361J98*
X29714Y24262I99*
X29812Y24361J99*
G01X29837Y40189D02*
G03X29665Y40361I172D01*
X29493Y40189J172*
X29665Y40018I172*
X29837Y40189J171*
G01X29885Y24361D02*
G03X29714Y24532I171D01*
X29542Y24361J171*
X29714Y24189I172*
X29885Y24361J172*
G01X30010Y-896D02*
X30009D01*
X30008*
X30007Y-897*
X30006*
X30005Y-898*
X30004*
X29919Y-956*
Y-769*
X29918Y-765*
X29916Y-762*
X29912Y-761*
X29908Y-760*
X29905Y-761*
X29902Y-762*
X29899Y-765*
X29898Y-769*
Y-1249*
X29899Y-1253*
X29902Y-1255*
X29905Y-1257*
X29908*
X29912*
X29916Y-1255*
X29918Y-1253*
X29919Y-1249*
Y-980*
X30011Y-917*
X30142*
X30236Y-980*
Y-1249*
Y-1253*
X30239Y-1255*
X30242Y-1257*
X30246*
X30249*
X30252Y-1255*
X30255Y-1253*
X30256Y-1249*
Y-975*
X30255Y-972*
X30254Y-969*
X30251Y-967*
X30150Y-898*
X30148Y-897*
X30145Y-896*
X30010*
X30197Y43815D02*
G03X30098Y43913I99D01*
X30000Y43815J98*
X30098Y43716I98*
X30197Y43815J99*
G01X30270D02*
G03X30098Y43986I172D01*
X29927Y43815J171*
X30098Y43643I171*
X30270Y43815J172*
G01X30566Y4724D02*
X31253D01*
X30727Y-1249D02*
X30728Y-1253D01*
X30731Y-1255*
X30734Y-1257*
X30737*
X30741*
X30745Y-1255*
X30747Y-1253*
X30748Y-1249*
Y-1019*
X31065*
Y-1249*
Y-1253*
X31068Y-1255*
X31071Y-1257*
X31075*
X31078*
X31081Y-1255*
X31084Y-1253*
X31085Y-1249*
Y-769*
X31084Y-765*
X31081Y-762*
X31078Y-761*
X31075Y-760*
X31071Y-761*
X31068Y-762*
X31065Y-765*
Y-769*
Y-999*
X30748*
Y-769*
X30747Y-765*
X30745Y-762*
X30741Y-761*
X30737Y-760*
X30734Y-761*
X30731Y-762*
X30728Y-765*
X30727Y-769*
Y-1249*
X30824Y51404D02*
G03X30726Y51502I98D01*
X30628Y51404J98*
X30726Y51305I98*
X30824Y51404J99*
G01X30898D02*
G03X30726Y51575I172D01*
X30554Y51404J171*
X30726Y51232I172*
X30898Y51404J172*
G01X30909Y4356D02*
X31278Y4724D01*
X30909Y5093*
X30541Y4724*
X30909Y4356*
Y4381D02*
Y5068D01*
X30974Y21233D02*
G03X30875Y21332I99D01*
X30777Y21233J99*
X30875Y21135I98*
X30974Y21233J98*
G01X30997Y40866D02*
G03X30899Y40964I98D01*
X30801Y40866J98*
X30899Y40768I98*
X30997Y40866J98*
G01X31003Y31062D02*
G03X30905Y31160I98D01*
X30807Y31062J98*
X30905Y30964I98*
X31003Y31062J98*
G01X31029Y11441D02*
G03X30931Y11539I98D01*
X30832Y11441J98*
X30931Y11343I99*
X31029Y11441J98*
G01X31047Y21233D02*
G03X30875Y21405I172D01*
X30704Y21233J172*
X30875Y21062I171*
X31047Y21233J171*
G01X31052Y1633D02*
G03X30954Y1731I98D01*
X30856Y1633J98*
X30954Y1534I98*
X31052Y1633J99*
G01X31071Y40866D02*
G03X30899Y41038I172D01*
X30727Y40866J172*
X30899Y40694I172*
X31071Y40866J172*
G01X31077Y31062D02*
G03X30905Y31234I172D01*
X30733Y31062J172*
X30905Y30890I172*
X31077Y31062J172*
G01X31102Y11441D02*
G03X30931Y11613I171D01*
X30759Y11441J172*
X30931Y11269I172*
X31102Y11441J172*
G01X31126Y1633D02*
G03X30954Y1804I172D01*
X30782Y1633J171*
X30954Y1461I172*
X31126Y1633J172*
G01X31131Y37420D02*
G03X31033Y37518I98D01*
X30935Y37420J98*
X31033Y37321I98*
X31131Y37420J99*
G01X31158Y27608D02*
G03X31060Y27706I98D01*
X30962Y27608J98*
X31060Y27509I98*
X31158Y27608J99*
G01X31165Y7994D02*
G03X31067Y8092I98D01*
X30968Y7994J98*
X31067Y7895I99*
X31165Y7994J99*
G01Y47230D02*
G03X31067Y47328I98D01*
X30969Y47230J98*
X31067Y47131I98*
X31165Y47230J99*
G01X31186Y17796D02*
G03X31088Y17894I98D01*
X30990Y17796J98*
X31088Y17698I98*
X31186Y17796J98*
G01X31205Y37420D02*
G03X31033Y37591I172D01*
X30861Y37420J171*
X31033Y37248I172*
X31205Y37420J172*
G01X31221Y-984D02*
Y-1177D01*
X31282Y-1239*
X31475*
X31537Y-1177*
Y-984*
X31475Y-922*
X31282*
X31221Y-984*
X31232Y27608D02*
G03X31060Y27779I172D01*
X30888Y27608J171*
X31060Y27436I172*
X31232Y27608J172*
G01X31238Y7994D02*
G03X31067Y8165I171D01*
X30895Y7994J171*
X31067Y7822I172*
X31238Y7994J172*
G01X31239Y47230D02*
G03X31067Y47401I172D01*
X30895Y47230J171*
X31067Y47058I172*
X31239Y47230J172*
G01X31260Y17796D02*
G03X31088Y17968I172D01*
X30916Y17796J172*
X31088Y17624I172*
X31260Y17796J172*
G01X31292Y49257D02*
G03X31194Y49355I98D01*
X31096Y49257J98*
X31194Y49159I98*
X31292Y49257J98*
G01X31366D02*
G03X31194Y49429I172D01*
X31022Y49257J172*
X31194Y49085I172*
X31366Y49257J172*
G01X31480Y-1259D02*
X31278D01*
X31276*
X31275Y-1258*
X31273*
X31270Y-1256*
X31203Y-1189*
X31201Y-1186*
X31200Y-1184*
Y-1181*
Y-979*
Y-977*
X31201Y-974*
X31203Y-971*
X31270Y-904*
X31273Y-903*
X31275Y-902*
X31276*
X31278Y-901*
X31480Y-902*
X31482*
X31484Y-903*
X31487Y-904*
X31555Y-971*
X31556Y-974*
Y-976*
X31557Y-977*
Y-979*
Y-1181*
Y-1184*
X31556Y-1185*
X31555Y-1189*
X31487Y-1256*
X31484Y-1258*
X31482*
X31480Y-1259*
X31566Y50223D02*
G03X31468Y50321I98D01*
X31370Y50223J98*
X31468Y50124I98*
X31566Y50223J99*
G01X31568Y52677D02*
G03X31470Y52775I98D01*
X31371Y52677J98*
X31470Y52579I99*
X31568Y52677J98*
G01X31640Y50223D02*
G03X31468Y50394I172D01*
X31296Y50223J171*
X31468Y50051I172*
X31640Y50223J172*
G01X31642Y52677D02*
G03X31470Y52849I172D01*
X31298Y52677J172*
X31470Y52505I172*
X31642Y52677J172*
G01X31744Y-759D02*
X31740Y-760D01*
X31738Y-762*
X31736Y-765*
Y-769*
Y-773*
X31738Y-776*
X31740Y-778*
X31744Y-779*
X31831*
Y-1238*
X31744*
X31740Y-1239*
X31738Y-1241*
X31736Y-1245*
Y-1249*
Y-1252*
X31738Y-1256*
X31740Y-1258*
X31744Y-1259*
X31939*
X31942Y-1258*
X31945Y-1256*
X31947Y-1252*
Y-1249*
Y-1245*
X31945Y-1241*
X31942Y-1239*
X31939Y-1238*
X31851*
Y-769*
X31850Y-765*
X31848Y-762*
X31845Y-760*
X31841Y-759*
X31744*
X31818Y39215D02*
G03X31720Y39313I98D01*
X31622Y39215J98*
X31720Y39117I98*
X31818Y39215J98*
G01X31892D02*
G03X31720Y39387I172D01*
X31548Y39215J172*
X31720Y39043I172*
X31892Y39215J172*
G01X32146Y-985D02*
Y-1037D01*
X32462*
Y-1017*
X32367Y-922*
X32239*
X32146Y-985*
X32236Y-901D02*
X32372Y-902D01*
X32374*
X32376Y-903*
X32379Y-904*
X32480Y-1005*
X32481Y-1008*
Y-1010*
Y-1011*
X32482*
Y-1013*
Y-1047*
Y-1050*
X32479Y-1053*
X32477Y-1056*
X32472Y-1057*
X32146*
Y-1177*
X32239Y-1239*
X32367*
X32465Y-1140*
X32468Y-1138*
X32472*
X32476Y-1139*
X32479Y-1142*
X32481Y-1145*
X32482Y-1148*
Y-1152*
X32480Y-1155*
X32379Y-1256*
X32376Y-1258*
X32374*
X32372Y-1259*
X32236*
X32233Y-1258*
X32231Y-1257*
X32130Y-1190*
X32128Y-1189*
X32127Y-1187*
X32126Y-1184*
X32125Y-1182*
Y-979*
X32126Y-976*
X32127Y-974*
X32128Y-972*
X32129*
X32130Y-971*
X32231Y-904*
X32233Y-902*
X32236Y-901*
X32267Y30688D02*
G03X32169Y30786I98D01*
X32071Y30688J98*
X32169Y30590I98*
X32267Y30688J98*
G01X32328Y10144D02*
G03X32229Y10242I99D01*
X32131Y10144J98*
X32229Y10046I98*
X32328Y10144J98*
G01Y19399D02*
G03X32230Y19497I98D01*
X32132Y19399J98*
X32230Y19301I98*
X32328Y19399J98*
G01X32341Y30688D02*
G03X32169Y30860I172D01*
X31997Y30688J172*
X32169Y30516I172*
X32341Y30688J172*
G01X32401Y10144D02*
G03X32229Y10316I172D01*
X32058Y10144J172*
X32229Y9972I171*
X32401Y10144J172*
G01X32402Y19399D02*
G03X32230Y19571I172D01*
X32058Y19399J172*
X32230Y19227I172*
X32402Y19399J172*
G01X32437Y-2779D02*
X32676D01*
X32754Y-2842*
Y-2935*
X32676Y-2999*
X32437*
Y-2779*
X32492Y48505D02*
G03X32394Y48604I98D01*
X32296Y48505J99*
X32394Y48407I98*
X32492Y48505J98*
G01X32566D02*
G03X32394Y48677I172D01*
X32222Y48505J172*
X32394Y48333I172*
X32566Y48505J172*
G01X32770Y-2949D02*
X32772Y-2948D01*
Y-2945*
X32774Y-2943*
Y-2940*
Y-2837*
Y-2835*
X32772Y-2833*
Y-2832*
Y-2831*
X32771*
X32770Y-2830*
X32685Y-2761*
X32683Y-2760*
X32681Y-2759*
X32679*
X32427*
X32422Y-2760*
X32419Y-2762*
X32417Y-2765*
X32416Y-2769*
Y-3249*
X32417Y-3253*
X32419Y-3255*
X32422Y-3257*
X32426*
X32430*
X32433Y-3255*
X32436Y-3253*
X32437Y-3249*
Y-3019*
X32679*
X32682Y-3018*
X32684*
X32685Y-3017*
X32770Y-2949*
X32772Y28665D02*
G03X32673Y28764I99D01*
X32575Y28665J99*
X32673Y28567I98*
X32772Y28665J98*
G01X32804Y29663D02*
G03X32706Y29761I98D01*
X32608Y29663J98*
X32706Y29564I98*
X32804Y29663J99*
G01X32845Y28665D02*
G03X32673Y28837I172D01*
X32501Y28665J172*
X32673Y28494I172*
X32845Y28665J171*
G01X32865Y-903D02*
X32949Y-954D01*
X32951Y-955*
X32952Y-957*
X32953Y-958*
Y-960*
Y-963*
X32952Y-966*
X32951Y-968*
X32949Y-970*
X32947Y-972*
X32944Y-973*
X32942Y-972*
X32939Y-971*
X32857Y-922*
X32694*
X32617Y-968*
Y-1040*
X32677Y-1070*
X32877*
X32878Y-1071*
X32879*
X32881*
Y-1072*
X32949Y-1105*
X32951Y-1108*
X32952Y-1110*
X32953Y-1112*
X32954Y-1114*
Y-1198*
X32953Y-1200*
X32952Y-1203*
Y-1205*
X32950Y-1206*
X32882Y-1257*
X32881*
X32880Y-1258*
X32879*
Y-1259*
X32878*
X32877*
X32675*
X32673*
X32672Y-1258*
X32670*
X32668Y-1257*
X32601Y-1206*
X32599Y-1203*
X32598Y-1202*
Y-1200*
X32599Y-1197*
X32601Y-1193*
X32603Y-1191*
X32606Y-1189*
X32608Y-1188*
X32609*
X32611Y-1189*
X32613Y-1190*
X32678Y-1239*
X32873*
X32934Y-1193*
Y-1120*
X32875Y-1090*
X32675*
X32672*
X32671*
X32670Y-1089*
X32603Y-1055*
X32600Y-1054*
X32598Y-1051*
X32597Y-1049*
Y-1047*
Y-962*
Y-960*
Y-958*
X32599Y-956*
X32602Y-954*
X32686Y-903*
X32688Y-902*
X32690*
X32691*
X32859*
X32860*
X32861*
X32863Y-903*
X32865*
X32878Y29663D02*
G03X32706Y29834I172D01*
X32534Y29663J171*
X32706Y29491I172*
X32878Y29663J172*
G01X32888Y-3182D02*
X32889Y-3183D01*
X32890Y-3186*
X32891Y-3188*
X32893Y-3189*
X32977Y-3257*
X32979Y-3258*
X32981*
X32983Y-3259*
X33151*
X33153*
Y-3258*
X33154*
X33155*
X33156*
X33158Y-3257*
X33226Y-3202*
Y-3249*
Y-3253*
X33229Y-3255*
X33232Y-3257*
X33236*
X33239*
X33242Y-3255*
X33245Y-3253*
X33246Y-3249*
Y-2912*
X33245Y-2908*
X33242Y-2905*
X33239Y-2904*
X33236Y-2903*
X33232Y-2904*
X33229Y-2905*
X33226Y-2908*
Y-2912*
Y-3177*
X33148Y-3239*
X32986*
X32909Y-3177*
Y-2912*
X32908Y-2908*
X32906Y-2905*
X32902Y-2904*
X32898Y-2903*
X32895Y-2904*
X32892Y-2905*
X32889Y-2908*
X32888Y-2912*
Y-3182*
X33047Y54250D02*
G03X32949Y54348I98D01*
X32851Y54250J98*
X32949Y54152I98*
X33047Y54250J98*
G01X33121D02*
G03X32949Y54422I172D01*
X32777Y54250J172*
X32949Y54078I172*
X33121Y54250J172*
G01X33145Y37748D02*
G03X33046Y37846I99D01*
X32948Y37748J98*
X33046Y37650I98*
X33145Y37748J98*
G01X33218D02*
G03X33046Y37920I172D01*
X32875Y37748J172*
X33046Y37576I171*
X33218Y37748J172*
G01X33441Y18096D02*
G03X33343Y18194I98D01*
X33245Y18096J98*
X33343Y17998I98*
X33441Y18096J98*
G01X33515D02*
G03X33343Y18268I172D01*
X33171Y18096J172*
X33343Y17924I172*
X33515Y18096J172*
G01X33595Y-6749D02*
X33596Y-6753D01*
X33599Y-6755*
X33602Y-6757*
X33605*
X33609*
X33613Y-6755*
X33615Y-6753*
X33616Y-6749*
Y-6301*
X33935Y-6755*
X33936Y-6757*
X33939Y-6758*
X33941*
X33944Y-6757*
X33948Y-6756*
X33951Y-6754*
X33952Y-6752*
X33953Y-6749*
Y-6269*
X33952Y-6265*
X33949Y-6262*
X33946Y-6261*
X33943Y-6260*
X33939Y-6261*
X33936Y-6262*
X33933Y-6265*
Y-6269*
Y-6717*
X33614Y-6263*
X33612Y-6261*
X33610Y-6260*
X33607*
X33605Y-6261*
X33601*
X33598Y-6263*
X33596Y-6265*
X33595Y-6269*
Y-6749*
Y-5749D02*
X33596Y-5753D01*
X33599Y-5755*
X33602Y-5757*
X33605*
X33609*
X33613Y-5755*
X33615Y-5753*
X33616Y-5749*
Y-5301*
X33935Y-5755*
X33936Y-5757*
X33939Y-5758*
X33941*
X33944Y-5757*
X33948Y-5756*
X33951Y-5754*
X33952Y-5752*
X33953Y-5749*
Y-5269*
X33952Y-5265*
X33949Y-5262*
X33946Y-5261*
X33943Y-5260*
X33939Y-5261*
X33936Y-5262*
X33933Y-5265*
Y-5269*
Y-5717*
X33614Y-5263*
X33612Y-5261*
X33610Y-5260*
X33607*
X33605Y-5261*
X33601*
X33598Y-5263*
X33596Y-5265*
X33595Y-5269*
Y-5749*
Y-4749D02*
X33596Y-4753D01*
X33599Y-4755*
X33602Y-4757*
X33605*
X33609*
X33613Y-4755*
X33615Y-4753*
X33616Y-4749*
Y-4301*
X33935Y-4755*
X33936Y-4757*
X33939Y-4758*
X33941*
X33944Y-4757*
X33948Y-4756*
X33951Y-4754*
X33952Y-4752*
X33953Y-4749*
Y-4269*
X33952Y-4265*
X33949Y-4262*
X33946Y-4261*
X33943Y-4260*
X33939Y-4261*
X33936Y-4262*
X33933Y-4265*
Y-4269*
Y-4717*
X33614Y-4263*
X33612Y-4261*
X33610Y-4260*
X33607*
X33605Y-4261*
X33601*
X33598Y-4263*
X33596Y-4265*
X33595Y-4269*
Y-4749*
X33698Y-3249D02*
X33699Y-3253D01*
X33701Y-3255*
X33705Y-3257*
X33708*
X33712*
X33715Y-3255*
X33717Y-3253*
X33718Y-3249*
Y-2979*
Y-2977*
X33717Y-2975*
X33716Y-2973*
X33715Y-2971*
X33630Y-2904*
X33628Y-2903*
X33626Y-2902*
X33624*
X33455*
X33453*
X33452Y-2903*
X33450Y-2904*
X33382Y-2958*
Y-2912*
X33381Y-2908*
X33378Y-2905*
X33375Y-2904*
X33371Y-2903*
X33367Y-2904*
X33364Y-2905*
X33362Y-2908*
X33361Y-2912*
Y-3249*
X33362Y-3253*
X33364Y-3255*
X33367Y-3257*
X33371*
X33375*
X33378Y-3255*
X33381Y-3253*
X33382Y-3249*
Y-2984*
X33459Y-2922*
X33620*
X33698Y-2984*
Y-3249*
X33718Y53767D02*
G03X33620Y53866I98D01*
X33522Y53767J99*
X33620Y53669I98*
X33718Y53767J98*
G01X33792D02*
G03X33620Y53939I172D01*
X33448Y53767J172*
X33620Y53596I172*
X33792Y53767J171*
G01X33847Y56312D02*
G03X33749Y56410I98D01*
X33650Y56312J98*
X33749Y56213I99*
X33847Y56312J99*
G01X33863Y34008D02*
G03X33765Y34106I98D01*
X33667Y34008J98*
X33765Y33910I98*
X33863Y34008J98*
G01X33921Y56312D02*
G03X33749Y56484I172D01*
X33577Y56312J172*
X33749Y56140I172*
X33921Y56312J172*
G01X33937Y34008D02*
G03X33765Y34180I172D01*
X33593Y34008J172*
X33765Y33836I172*
X33937Y34008J172*
G01X34080Y-3259D02*
X33944D01*
X33941Y-3258*
X33939Y-3257*
X33838Y-3190*
X33836Y-3189*
X33835Y-3187*
X33834Y-3184*
X33833Y-3182*
Y-2979*
X33834Y-2976*
X33835Y-2974*
X33836Y-2972*
X33837*
X33838Y-2971*
X33939Y-2904*
X33941Y-2902*
X33944Y-2901*
X34080Y-2902*
X34081*
X34083Y-2903*
X34087Y-2904*
X34188Y-3005*
X34190Y-3009*
Y-3013*
X34189Y-3016*
X34186Y-3019*
X34184Y-3021*
X34180Y-3023*
X34176Y-3022*
X34173Y-3020*
X34075Y-2922*
X33947*
X33854Y-2985*
Y-3177*
X33947Y-3239*
X34075*
X34173Y-3140*
X34176Y-3138*
X34180*
X34184Y-3139*
X34187Y-3142*
X34189Y-3145*
X34190Y-3148*
Y-3152*
X34188Y-3155*
X34087Y-3256*
X34083Y-3258*
X34081*
Y-3259*
X34080*
X34089Y-6484D02*
Y-6677D01*
X34150Y-6739*
X34343*
X34405Y-6677*
Y-6484*
X34343Y-6422*
X34150*
X34089Y-6484*
Y-5484D02*
Y-5677D01*
X34150Y-5739*
X34343*
X34405Y-5677*
Y-5484*
X34343Y-5422*
X34150*
X34089Y-5484*
Y-4484D02*
Y-4677D01*
X34150Y-4739*
X34343*
X34405Y-4677*
Y-4484*
X34343Y-4422*
X34150*
X34089Y-4484*
X34348Y-6759D02*
X34146D01*
X34144*
X34143Y-6758*
X34141*
X34138Y-6756*
X34071Y-6689*
X34069Y-6686*
X34068Y-6684*
Y-6681*
Y-6479*
Y-6477*
X34069Y-6474*
X34071Y-6471*
X34138Y-6404*
X34141Y-6403*
X34143Y-6402*
X34144*
X34146Y-6401*
X34348Y-6402*
X34350*
X34352Y-6403*
X34355Y-6404*
X34423Y-6471*
X34424Y-6474*
Y-6476*
X34425Y-6477*
Y-6479*
Y-6681*
Y-6684*
X34424Y-6685*
X34423Y-6689*
X34355Y-6756*
X34352Y-6758*
X34350*
X34348Y-6759*
Y-5759D02*
X34146D01*
X34144*
X34143Y-5758*
X34141*
X34138Y-5756*
X34071Y-5689*
X34069Y-5686*
X34068Y-5684*
Y-5681*
Y-5479*
Y-5477*
X34069Y-5474*
X34071Y-5471*
X34138Y-5404*
X34141Y-5403*
X34143Y-5402*
X34144*
X34146Y-5401*
X34348Y-5402*
X34350*
X34352Y-5403*
X34355Y-5404*
X34423Y-5471*
X34424Y-5474*
Y-5476*
X34425Y-5477*
Y-5479*
Y-5681*
Y-5684*
X34424Y-5685*
X34423Y-5689*
X34355Y-5756*
X34352Y-5758*
X34350*
X34348Y-5759*
Y-4759D02*
X34146D01*
X34144*
X34143Y-4758*
X34141*
X34138Y-4756*
X34071Y-4689*
X34069Y-4686*
X34068Y-4684*
Y-4681*
Y-4479*
Y-4477*
X34069Y-4474*
X34071Y-4471*
X34138Y-4404*
X34141Y-4403*
X34143Y-4402*
X34144*
X34146Y-4401*
X34348Y-4402*
X34350*
X34352Y-4403*
X34355Y-4404*
X34423Y-4471*
X34424Y-4474*
Y-4476*
X34425Y-4477*
Y-4479*
Y-4681*
Y-4684*
X34424Y-4685*
X34423Y-4689*
X34355Y-4756*
X34352Y-4758*
X34350*
X34348Y-4759*
X34399Y54705D02*
G03X34300Y54803I99D01*
X34202Y54705J98*
X34300Y54606I98*
X34399Y54705J99*
G01X34415Y-2896D02*
X34414D01*
X34413Y-2897*
X34412*
X34410Y-2898*
X34325Y-2956*
Y-2769*
X34324Y-2765*
X34321Y-2762*
X34318Y-2761*
X34314Y-2760*
X34310Y-2761*
X34307Y-2762*
X34305Y-2765*
X34304Y-2769*
Y-3249*
X34305Y-3253*
X34307Y-3255*
X34310Y-3257*
X34314*
X34318*
X34321Y-3255*
X34324Y-3253*
X34325Y-3249*
Y-2980*
X34417Y-2917*
X34548*
X34641Y-2980*
Y-3249*
X34642Y-3253*
X34644Y-3255*
X34648Y-3257*
X34651*
X34655*
X34658Y-3255*
X34660Y-3253*
X34661Y-3249*
Y-2975*
Y-2972*
X34660Y-2969*
X34657Y-2967*
X34555Y-2898*
X34553Y-2897*
X34550Y-2896*
X34415*
X34472Y54705D02*
G03X34300Y54877I172D01*
X34128Y54705J172*
X34300Y54533I172*
X34472Y54705J172*
G01X34720Y31054D02*
G03X34622Y31152I98D01*
X34523Y31054J98*
X34622Y30956I99*
X34720Y31054J98*
G01X34737Y42476D02*
X34738Y42472D01*
X34741Y42469*
X34745Y42467*
X34749Y42466*
X34754Y42467*
X34758Y42469*
X34761Y42472*
X34762Y42476*
Y42748*
X35136*
Y42476*
Y42472*
X35139Y42469*
X35144Y42467*
X35148Y42466*
X35152Y42467*
X35155Y42469*
X35158Y42472*
X35159Y42476*
Y43043*
X35158Y43047*
X35155Y43051*
X35152Y43053*
X35148*
X35144*
X35139Y43051*
X35136Y43047*
Y43043*
Y42772*
X34762*
Y43043*
X34761Y43047*
X34758Y43051*
X34754Y43053*
X34749*
X34745*
X34741Y43051*
X34738Y43047*
X34737Y43043*
Y42476*
X34794Y31054D02*
G03X34622Y31226I172D01*
X34450Y31054J172*
X34622Y30882I172*
X34794Y31054J172*
G01X34796Y-2985D02*
Y-3037D01*
X35113*
Y-3017*
X35017Y-2922*
X34889*
X34796Y-2985*
X34887Y-2901D02*
X35022Y-2902D01*
X35024*
X35026Y-2903*
X35029Y-2904*
X35131Y-3005*
Y-3008*
X35132Y-3010*
Y-3011*
X35133Y-3013*
Y-3047*
X35132Y-3050*
X35130Y-3053*
X35127Y-3056*
X35123Y-3057*
X34796*
Y-3177*
X34889Y-3239*
X35017*
X35116Y-3140*
X35119Y-3138*
X35122*
X35126Y-3139*
X35129Y-3142*
X35132Y-3145*
X35133Y-3148*
Y-3152*
X35131Y-3155*
X35029Y-3256*
X35026Y-3258*
X35024*
X35022Y-3259*
X34887*
X34884Y-3258*
X34881Y-3257*
X34781Y-3190*
X34779Y-3189*
X34778Y-3187*
X34776Y-3184*
Y-3182*
Y-2979*
Y-2976*
X34778Y-2974*
X34779Y-2972*
X34780*
X34781Y-2971*
X34881Y-2904*
X34884Y-2902*
X34887Y-2901*
X34893Y51583D02*
X35580D01*
X35052Y34440D02*
G03X34954Y34538I98D01*
X34855Y34440J98*
X34954Y34342I99*
X35052Y34440J98*
G01X35085Y47760D02*
G03X34987Y47858I98D01*
X34889Y47760J98*
X34987Y47662I98*
X35085Y47760J98*
G01X35126Y34440D02*
G03X34954Y34612I172D01*
X34782Y34440J172*
X34954Y34268I172*
X35126Y34440J172*
G01X35159Y47760D02*
G03X34987Y47932I172D01*
X34815Y47760J172*
X34987Y47588I172*
X35159Y47760J172*
G01X35219Y31335D02*
G03X35121Y31434I98D01*
X35023Y31335J99*
X35121Y31237I98*
X35219Y31335J98*
G01X35232Y58570D02*
G03X35134Y58668I98D01*
X35036Y58570J98*
X35134Y58472I98*
X35232Y58570J98*
G01X35236Y51214D02*
X35605Y51583D01*
X35236Y51951*
X34868Y51583*
X35236Y51214*
Y51239D02*
Y51926D01*
X35255Y710D02*
G03X35157Y808I98D01*
X35058Y710J98*
X35157Y612I99*
X35255Y710J98*
G01X35268Y-2979D02*
X35345Y-2917D01*
X35505*
X35584Y-3014*
Y-3175*
X35506Y-3238*
X35345*
X35268Y-3175*
Y-2979*
X35280Y40308D02*
G03X35182Y40406I98D01*
X35083Y40308J98*
X35182Y40209I99*
X35280Y40308J99*
G01X35293Y31335D02*
G03X35121Y31507I172D01*
X34949Y31335J172*
X35121Y31164I172*
X35293Y31335J171*
G01X35306Y58570D02*
G03X35134Y58742I172D01*
X34962Y58570J172*
X35134Y58398I172*
X35306Y58570J172*
G01X35328Y710D02*
G03X35157Y882I171D01*
X34985Y710J172*
X35157Y538I172*
X35328Y710J172*
G01X35336Y-3257D02*
X35337Y-3258D01*
X35339*
X35341Y-3259*
X35510*
X35512*
X35513Y-3258*
X35514*
X35516Y-3257*
X35584Y-3201*
Y-3249*
X35585Y-3253*
X35587Y-3255*
X35591Y-3257*
X35594*
X35598*
X35601Y-3255*
X35603Y-3253*
X35604Y-3249*
Y-3008*
Y-3007*
Y-2769*
X35603Y-2765*
X35601Y-2762*
X35598Y-2761*
X35594Y-2760*
X35591Y-2761*
X35587Y-2762*
X35585Y-2765*
X35584Y-2769*
Y-2980*
X35518Y-2900*
X35516Y-2898*
X35513Y-2897*
X35511Y-2896*
X35510*
X35341*
X35339Y-2897*
X35338*
X35336Y-2898*
X35251Y-2967*
X35249Y-2968*
X35248Y-2970*
X35247Y-2973*
Y-2975*
Y-3180*
Y-3183*
X35248Y-3185*
X35249Y-3187*
X35251Y-3188*
X35336Y-3257*
X35353Y40308D02*
G03X35182Y40479I171D01*
X35010Y40308J171*
X35182Y40136I172*
X35353Y40308J172*
G01X35790Y34454D02*
G03X35691Y34552I99D01*
X35593Y34454J98*
X35691Y34356I98*
X35790Y34454J98*
G01X35863D02*
G03X35691Y34626I172D01*
X35519Y34454J172*
X35691Y34282I172*
X35863Y34454J172*
G01X36029Y29697D02*
G03X35931Y29795I98D01*
X35833Y29697J98*
X35931Y29599I98*
X36029Y29697J98*
G01X36103D02*
G03X35931Y29869I172D01*
X35759Y29697J172*
X35931Y29525I172*
X36103Y29697J172*
G01X36220Y33047D02*
G03X36122Y33145I98D01*
X36023Y33047J98*
X36122Y32949I99*
X36220Y33047J98*
G01X36268Y57503D02*
G03X36170Y57602I98D01*
X36072Y57503J99*
X36170Y57405I98*
X36268Y57503J98*
G01X36294Y33047D02*
G03X36122Y33219I172D01*
X35950Y33047J172*
X36122Y32875I172*
X36294Y33047J172*
G01X36342Y57503D02*
G03X36170Y57675I172D01*
X35998Y57503J172*
X36170Y57332I172*
X36342Y57503J171*
G01X36633Y11445D02*
G03X36535Y11544I98D01*
X36437Y11445J99*
X36535Y11347I98*
X36633Y11445J98*
G01X36646Y31062D02*
G03X36548Y31160I98D01*
X36450Y31062J98*
X36548Y30964I98*
X36646Y31062J98*
G01X36658Y21252D02*
G03X36559Y21350I99D01*
X36461Y21252J98*
X36559Y21154I98*
X36658Y21252J98*
G01Y1660D02*
G03X36560Y1758I98D01*
X36461Y1660J98*
X36560Y1562I99*
X36658Y1660J98*
G01X36689Y40862D02*
G03X36591Y40960I98D01*
X36493Y40862J98*
X36591Y40764I98*
X36689Y40862J98*
G01X36707Y11445D02*
G03X36535Y11617I172D01*
X36363Y11445J172*
X36535Y11274I172*
X36707Y11445J171*
G01X36720Y31062D02*
G03X36548Y31234I172D01*
X36376Y31062J172*
X36548Y30890I172*
X36720Y31062J172*
G01X36731Y21252D02*
G03X36559Y21424I172D01*
X36388Y21252J172*
X36559Y21080I171*
X36731Y21252J172*
G01X36732Y1660D02*
G03X36560Y1832I172D01*
X36388Y1660J172*
X36560Y1488I172*
X36732Y1660J172*
G01X36763Y40862D02*
G03X36591Y41034I172D01*
X36419Y40862J172*
X36591Y40690I172*
X36763Y40862J172*
G01X36816Y47224D02*
G03X36718Y47322I98D01*
X36619Y47224J98*
X36718Y47126I99*
X36816Y47224J98*
G01X36833Y37417D02*
G03X36734Y37516I99D01*
X36636Y37417J99*
X36734Y37319I98*
X36833Y37417J98*
G01X36858Y17810D02*
G03X36760Y17908I98D01*
X36662Y17810J98*
X36760Y17712I98*
X36858Y17810J98*
G01X36867Y7993D02*
G03X36769Y8091I98D01*
X36671Y7993J98*
X36769Y7895I98*
X36867Y7993J98*
G01X36889Y47224D02*
G03X36718Y47396I171D01*
X36546Y47224J172*
X36718Y47052I172*
X36889Y47224J172*
G01X36906Y37417D02*
G03X36734Y37589I172D01*
X36563Y37417J172*
X36734Y37246I171*
X36906Y37417J171*
G01X36932Y17810D02*
G03X36760Y17982I172D01*
X36588Y17810J172*
X36760Y17638I172*
X36932Y17810J172*
G01X36941Y7993D02*
G03X36769Y8165I172D01*
X36597Y7993J172*
X36769Y7821I172*
X36941Y7993J172*
G01X37187Y33407D02*
G03X37089Y33505I98D01*
X36991Y33407J98*
X37089Y33309I98*
X37187Y33407J98*
G01X37242Y50213D02*
G03X37144Y50312I98D01*
X37046Y50213J99*
X37144Y50115I98*
X37242Y50213J98*
G01X37261Y33407D02*
G03X37089Y33579I172D01*
X36917Y33407J172*
X37089Y33235I172*
X37261Y33407J172*
G01X37309Y29633D02*
G03X37210Y29732I99D01*
X37112Y29633J99*
X37210Y29535I98*
X37309Y29633J98*
G01X37316Y50213D02*
G03X37144Y50385I172D01*
X36972Y50213J172*
X37144Y50041I172*
X37316Y50213J172*
G01X37347Y27356D02*
G03X37249Y27454I98D01*
X37150Y27356J98*
X37249Y27258I99*
X37347Y27356J98*
G01X37382Y29633D02*
G03X37210Y29805I172D01*
X37038Y29633J172*
X37210Y29462I172*
X37382Y29633J171*
G01X37420Y27356D02*
G03X37249Y27528I171D01*
X37077Y27356J172*
X37249Y27184I172*
X37420Y27356J172*
G01X38122Y24432D02*
G03X38024Y24530I98D01*
X37925Y24432J98*
X38024Y24334I99*
X38122Y24432J98*
G01X38195D02*
G03X38024Y24604I171D01*
X37852Y24432J172*
X38024Y24260I172*
X38195Y24432J172*
G01X38223Y37853D02*
G03X38125Y37951I98D01*
X38027Y37853J98*
X38125Y37755I98*
X38223Y37853J98*
G01X38297D02*
G03X38125Y38025I172D01*
X37953Y37853J172*
X38125Y37681I172*
X38297Y37853J172*
G01X38312Y18128D02*
G03X38214Y18226I98D01*
X38116Y18128J98*
X38214Y18030I98*
X38312Y18128J98*
G01X38375Y-6279D02*
X38614D01*
X38692Y-6342*
Y-6435*
X38614Y-6499*
X38375*
Y-6279*
X38386Y18128D02*
G03X38214Y18300I172D01*
X38042Y18128J172*
X38214Y17956I172*
X38386Y18128J172*
G01X38420Y47447D02*
G03X38322Y47545I98D01*
X38224Y47447J98*
X38322Y47348I98*
X38420Y47447J99*
G01X38494D02*
G03X38322Y47618I172D01*
X38150Y47447J171*
X38322Y47275I172*
X38494Y47447J172*
G01X38503Y29908D02*
G03X38405Y30007I98D01*
X38307Y29908J99*
X38405Y29810I98*
X38503Y29908J98*
G01X38563Y28335D02*
G03X38465Y28433I98D01*
X38367Y28335J98*
X38465Y28237I98*
X38563Y28335J98*
G01X38577Y29908D02*
G03X38405Y30080I172D01*
X38233Y29908J172*
X38405Y29736I172*
X38577Y29908J172*
G01X38620Y-5279D02*
X38859D01*
X38937Y-5342*
Y-5435*
X38859Y-5499*
X38620*
Y-5279*
X38637Y28335D02*
G03X38465Y28507I172D01*
X38293Y28335J172*
X38465Y28163I172*
X38637Y28335J172*
G01X38709Y-6449D02*
X38710Y-6448D01*
X38711Y-6445*
X38712Y-6443*
Y-6440*
Y-6337*
Y-6335*
X38711Y-6333*
Y-6332*
X38710Y-6331*
X38709Y-6330*
X38624Y-6261*
X38621Y-6260*
X38619Y-6259*
X38617*
X38365*
X38361Y-6260*
X38358Y-6262*
X38355Y-6265*
X38354Y-6269*
Y-6749*
X38355Y-6753*
X38358Y-6755*
X38361Y-6757*
X38364*
X38368*
X38372Y-6755*
X38374Y-6753*
X38375Y-6749*
Y-6519*
X38610*
X38692Y-6752*
X38694Y-6755*
X38698Y-6757*
X38702Y-6758*
X38705Y-6757*
X38708Y-6755*
X38710Y-6753*
X38712Y-6749*
X38711Y-6745*
X38629Y-6512*
X38709Y-6449*
X38954Y-5449D02*
X38955Y-5448D01*
X38956Y-5445*
X38957Y-5443*
Y-5440*
Y-5337*
Y-5335*
X38956Y-5333*
Y-5332*
X38955Y-5331*
X38954Y-5330*
X38869Y-5261*
X38866Y-5260*
X38864Y-5259*
X38862*
X38610*
X38606Y-5260*
X38603Y-5262*
X38600Y-5265*
X38599Y-5269*
Y-5749*
X38600Y-5753*
X38603Y-5755*
X38606Y-5757*
X38609*
X38613*
X38617Y-5755*
X38619Y-5753*
X38620Y-5749*
Y-5519*
X38855*
X38937Y-5752*
X38939Y-5755*
X38943Y-5757*
X38947Y-5758*
X38950Y-5757*
X38953Y-5755*
X38955Y-5753*
X38957Y-5749*
X38956Y-5745*
X38874Y-5512*
X38954Y-5449*
X39106Y33069D02*
G03X39007Y33167I99D01*
X38909Y33069J98*
X39007Y32971I98*
X39106Y33069J98*
G01X39164Y-6749D02*
X39165Y-6753D01*
X39167Y-6755*
X39171Y-6757*
X39174*
X39178*
X39181Y-6755*
X39183Y-6753*
X39184Y-6749*
Y-6479*
Y-6477*
X39183Y-6475*
X39182Y-6473*
X39181Y-6471*
X39096Y-6404*
X39094Y-6403*
X39092Y-6402*
X39090*
X38921*
X38919*
X38918Y-6403*
X38916Y-6404*
X38848Y-6458*
Y-6412*
X38847Y-6408*
X38844Y-6405*
X38841Y-6404*
X38837Y-6403*
X38833Y-6404*
X38830Y-6405*
X38828Y-6408*
X38827Y-6412*
Y-6749*
X38828Y-6753*
X38830Y-6755*
X38833Y-6757*
X38837*
X38841*
X38844Y-6755*
X38847Y-6753*
X38848Y-6749*
Y-6484*
X38925Y-6422*
X39086*
X39164Y-6484*
Y-6749*
X39179Y33069D02*
G03X39007Y33241I172D01*
X38836Y33069J172*
X39007Y32897I171*
X39179Y33069J172*
G01X39182Y-4279D02*
X39421D01*
X39499Y-4342*
Y-4435*
X39421Y-4499*
X39182*
Y-4279*
X39319Y-6479D02*
X39396Y-6417D01*
X39556*
X39636Y-6514*
Y-6675*
X39558Y-6738*
X39396*
X39319Y-6675*
Y-6479*
X39338Y27468D02*
G03X39240Y27566I98D01*
X39142Y27468J98*
X39240Y27370I98*
X39338Y27468J98*
G01X39387Y-6757D02*
X39389Y-6758D01*
X39391*
X39393Y-6759*
X39561*
X39563*
X39564Y-6758*
X39565*
X39568Y-6757*
X39636Y-6701*
Y-6749*
Y-6753*
X39639Y-6755*
X39642Y-6757*
X39646*
X39649*
X39652Y-6755*
X39655Y-6753*
X39656Y-6749*
Y-6508*
Y-6507*
Y-6269*
X39655Y-6265*
X39652Y-6262*
X39649Y-6261*
X39646Y-6260*
X39642Y-6261*
X39639Y-6262*
X39636Y-6265*
Y-6269*
Y-6480*
X39570Y-6400*
X39568Y-6398*
X39564Y-6397*
X39563Y-6396*
X39561*
X39393*
X39391Y-6397*
X39389*
X39387Y-6398*
X39303Y-6467*
X39301Y-6468*
X39300Y-6470*
X39299Y-6473*
X39298Y-6475*
Y-6680*
X39299Y-6683*
X39300Y-6685*
X39301Y-6687*
X39303Y-6688*
X39387Y-6757*
X39409Y-5749D02*
X39410Y-5753D01*
X39412Y-5755*
X39416Y-5757*
X39419*
X39423*
X39426Y-5755*
X39428Y-5753*
X39429Y-5749*
Y-5479*
Y-5477*
X39428Y-5475*
X39427Y-5473*
X39426Y-5471*
X39341Y-5404*
X39339Y-5403*
X39337Y-5402*
X39335*
X39166*
X39164*
X39163Y-5403*
X39161Y-5404*
X39093Y-5458*
Y-5412*
X39092Y-5408*
X39089Y-5405*
X39086Y-5404*
X39082Y-5403*
X39078Y-5404*
X39075Y-5405*
X39073Y-5408*
X39072Y-5412*
Y-5749*
X39073Y-5753*
X39075Y-5755*
X39078Y-5757*
X39082*
X39086*
X39089Y-5755*
X39092Y-5753*
X39093Y-5749*
Y-5484*
X39170Y-5422*
X39331*
X39409Y-5484*
Y-5749*
X39412Y27468D02*
G03X39240Y27640I172D01*
X39068Y27468J172*
X39240Y27296I172*
X39412Y27468J172*
G01X39515Y-4449D02*
X39517Y-4448D01*
Y-4445*
X39519Y-4443*
Y-4440*
Y-4337*
Y-4335*
X39517Y-4333*
Y-4332*
Y-4331*
X39516*
X39515Y-4330*
X39430Y-4261*
X39428Y-4260*
X39426Y-4259*
X39424*
X39172*
X39167Y-4260*
X39164Y-4262*
X39162Y-4265*
X39161Y-4269*
Y-4749*
X39162Y-4753*
X39164Y-4755*
X39167Y-4757*
X39171*
X39175*
X39178Y-4755*
X39181Y-4753*
X39182Y-4749*
Y-4519*
X39417*
X39499Y-4752*
X39501Y-4755*
X39504Y-4757*
X39508Y-4758*
X39511Y-4757*
X39514Y-4755*
X39517Y-4753*
X39518Y-4749*
X39517Y-4745*
X39435Y-4512*
X39515Y-4449*
X39564Y-5479D02*
X39641Y-5417D01*
X39801*
X39881Y-5514*
Y-5675*
X39803Y-5738*
X39641*
X39564Y-5675*
Y-5479*
X39632Y-5757D02*
X39634Y-5758D01*
X39636*
X39638Y-5759*
X39806*
X39808*
X39809Y-5758*
X39810*
X39813Y-5757*
X39881Y-5701*
Y-5749*
Y-5753*
X39884Y-5755*
X39887Y-5757*
X39891*
X39894*
X39897Y-5755*
X39900Y-5753*
X39901Y-5749*
Y-5508*
Y-5507*
Y-5269*
X39900Y-5265*
X39897Y-5262*
X39894Y-5261*
X39891Y-5260*
X39887Y-5261*
X39884Y-5262*
X39881Y-5265*
Y-5269*
Y-5480*
X39815Y-5400*
X39813Y-5398*
X39809Y-5397*
X39808Y-5396*
X39806*
X39638*
X39636Y-5397*
X39634*
X39632Y-5398*
X39548Y-5467*
X39546Y-5468*
X39545Y-5470*
X39544Y-5473*
X39543Y-5475*
Y-5680*
X39544Y-5683*
X39545Y-5685*
X39546Y-5687*
X39548Y-5688*
X39632Y-5757*
X39971Y-4749D02*
Y-4753D01*
X39974Y-4755*
X39977Y-4757*
X39981*
X39984*
X39987Y-4755*
X39990Y-4753*
X39991Y-4749*
Y-4479*
X39990Y-4477*
X39989Y-4475*
Y-4473*
X39987Y-4471*
X39903Y-4404*
X39900Y-4403*
X39898Y-4402*
X39896*
X39728*
X39726*
X39724Y-4403*
X39722Y-4404*
X39654Y-4458*
Y-4412*
X39653Y-4408*
X39651Y-4405*
X39647Y-4404*
X39643Y-4403*
X39640Y-4404*
X39637Y-4405*
X39634Y-4408*
X39633Y-4412*
Y-4749*
X39634Y-4753*
X39637Y-4755*
X39640Y-4757*
X39643*
X39647*
X39651Y-4755*
X39653Y-4753*
X39654Y-4749*
Y-4484*
X39731Y-4422*
X39893*
X39971Y-4484*
Y-4749*
X40126Y-4479D02*
X40203Y-4417D01*
X40363*
X40442Y-4514*
Y-4675*
X40364Y-4738*
X40203*
X40126Y-4675*
Y-4479*
X40194Y-4757D02*
X40195Y-4758D01*
X40197*
X40199Y-4759*
X40368*
X40370*
X40371Y-4758*
X40372*
X40374Y-4757*
X40442Y-4701*
Y-4749*
X40443Y-4753*
X40445Y-4755*
X40449Y-4757*
X40452*
X40456*
X40459Y-4755*
X40461Y-4753*
X40462Y-4749*
Y-4508*
Y-4507*
Y-4269*
X40461Y-4265*
X40459Y-4262*
X40456Y-4261*
X40452Y-4260*
X40449Y-4261*
X40445Y-4262*
X40443Y-4265*
X40442Y-4269*
Y-4480*
X40376Y-4400*
X40374Y-4398*
X40371Y-4397*
X40369Y-4396*
X40368*
X40199*
X40197Y-4397*
X40196*
X40194Y-4398*
X40109Y-4467*
X40107Y-4468*
X40106Y-4470*
X40105Y-4473*
Y-4475*
Y-4680*
Y-4683*
X40106Y-4685*
X40107Y-4687*
X40109Y-4688*
X40194Y-4757*
X40195Y34190D02*
G03X40096Y34288I99D01*
X39998Y34190J98*
X40096Y34092I98*
X40195Y34190J98*
G01X40216Y-6757D02*
X40132Y-6688D01*
X40129Y-6686*
Y-6683*
Y-6679*
X40131Y-6676*
X40134Y-6673*
X40137Y-6671*
X40140*
X40144Y-6672*
X40225Y-6738*
X40387*
X40465Y-6675*
Y-6582*
X40388Y-6519*
X40305*
X40301Y-6518*
X40298Y-6516*
X40297Y-6512*
X40296Y-6509*
X40297Y-6505*
X40298Y-6502*
X40301Y-6500*
X40305Y-6499*
X40388*
X40465Y-6435*
Y-6342*
X40387Y-6279*
X40225*
X40144Y-6346*
X40140Y-6347*
X40137Y-6346*
X40134Y-6345*
X40131Y-6342*
X40129Y-6339*
Y-6335*
Y-6332*
X40132Y-6329*
X40216Y-6261*
X40218Y-6260*
X40219*
X40220Y-6259*
X40222*
X40390*
X40393*
X40394Y-6260*
X40395*
X40397Y-6261*
X40481Y-6329*
X40483Y-6332*
Y-6334*
X40484Y-6335*
X40485Y-6337*
Y-6440*
X40484Y-6442*
X40483Y-6445*
Y-6448*
X40481Y-6449*
X40408Y-6509*
X40481Y-6569*
X40482Y-6570*
X40483Y-6571*
Y-6572*
X40484Y-6576*
X40485Y-6577*
Y-6680*
X40484Y-6683*
X40483Y-6685*
Y-6687*
X40481Y-6688*
X40397Y-6757*
X40395Y-6758*
X40394*
X40393*
X40392Y-6759*
X40390*
X40222*
X40220Y-6758*
X40218*
X40216Y-6757*
X40258Y30109D02*
G03X40160Y30207I98D01*
X40062Y30109J98*
X40160Y30011I98*
X40258Y30109J98*
G01X40268Y34190D02*
G03X40096Y34362I172D01*
X39925Y34190J172*
X40096Y34018I171*
X40268Y34190J172*
G01X40332Y30109D02*
G03X40160Y30281I172D01*
X39988Y30109J172*
X40160Y29937I172*
X40332Y30109J172*
G01X40445Y-5738D02*
X40441Y-5739D01*
X40439Y-5741*
X40437Y-5745*
Y-5749*
Y-5752*
X40439Y-5756*
X40441Y-5758*
X40445Y-5759*
X40640*
X40643Y-5758*
X40646Y-5756*
X40648Y-5752*
Y-5749*
Y-5745*
X40646Y-5741*
X40643Y-5739*
X40640Y-5738*
X40552*
Y-5269*
X40551Y-5265*
X40550Y-5263*
X40547Y-5261*
X40544*
X40541Y-5260*
X40539*
X40537Y-5261*
X40535Y-5263*
X40437Y-5400*
X40436Y-5404*
Y-5407*
X40437Y-5410*
X40440Y-5413*
X40443Y-5415*
X40446Y-5416*
X40448*
X40450Y-5415*
X40452Y-5412*
X40532Y-5300*
Y-5738*
X40445*
X40698Y-6696D02*
Y-6750D01*
Y-6753*
X40699Y-6754*
X40700Y-6755*
X40701Y-6756*
X40703Y-6758*
X40706Y-6759*
X40761*
X40764Y-6758*
X40766Y-6756*
X40769Y-6754*
Y-6750*
Y-6696*
Y-6692*
X40766Y-6690*
X40764Y-6688*
X40761Y-6687*
X40706*
X40703Y-6688*
X40701Y-6690*
X40700Y-6691*
X40699Y-6692*
X40698Y-6694*
Y-6696*
X40714Y-6704D02*
X40753D01*
Y-6742*
X40714*
Y-6704*
X40925Y-5696D02*
Y-5750D01*
X40926Y-5753*
Y-5754*
X40927Y-5755*
X40928Y-5756*
X40930Y-5758*
X40933Y-5759*
X40988*
X40991Y-5758*
X40994Y-5756*
X40996Y-5754*
X40997Y-5750*
Y-5696*
X40996Y-5692*
X40994Y-5690*
X40991Y-5688*
X40988Y-5687*
X40933*
X40930Y-5688*
X40928Y-5690*
X40927Y-5691*
X40926Y-5692*
Y-5694*
X40925Y-5696*
X40939Y-4329D02*
X41023Y-4261D01*
X41025Y-4260*
X41026*
X41027Y-4259*
X41029*
X41197*
X41199*
X41200*
Y-4260*
X41202*
X41204Y-4261*
X41288Y-4329*
X41289Y-4332*
X41290Y-4334*
X41291Y-4335*
Y-4337*
Y-4680*
Y-4682*
X41290Y-4685*
X41289Y-4686*
X41288Y-4688*
X41204Y-4757*
X41202*
X41201Y-4758*
X41200*
X41199Y-4759*
X41197*
X41029*
X41027Y-4758*
X41025*
X41023Y-4757*
X40939Y-4688*
X40938Y-4687*
X40937*
X40936Y-4685*
X40935Y-4682*
X40934Y-4680*
Y-4337*
X40935Y-4335*
X40936Y-4334*
X40937Y-4332*
X40939Y-4329*
X40942Y-5704D02*
X40980D01*
Y-5742*
X40942*
Y-5704*
X40955Y-4342D02*
Y-4675D01*
X40984Y-4700*
X41226Y-4306*
X41193Y-4279*
X41032*
X40955Y-4342*
X41000Y-4713D02*
X41032Y-4738D01*
X41193*
X41271Y-4675*
Y-4342*
X41242Y-4319*
X41000Y-4713*
X41114Y30722D02*
G03X41016Y30821I98D01*
X40918Y30722J99*
X41016Y30624I98*
X41114Y30722J98*
G01X41130Y4696D02*
G03X41032Y4794I98D01*
X40934Y4696J98*
X41032Y4598I98*
X41130Y4696J98*
G01X41188Y30722D02*
G03X41016Y30894I172D01*
X40844Y30722J172*
X41016Y30550I172*
X41188Y30722J172*
G01X41204Y4696D02*
G03X41032Y4868I172D01*
X40860Y4696J172*
X41032Y4524I172*
X41204Y4696J172*
G01X41231Y33450D02*
G03X41132Y33548I99D01*
X41034Y33450J98*
X41132Y33352I98*
X41231Y33450J98*
G01X41254Y-6261D02*
X41338Y-6329D01*
X41340Y-6332*
Y-6334*
X41341Y-6335*
X41342Y-6337*
Y-6406*
X41341Y-6408*
X41340Y-6411*
Y-6413*
X41338Y-6414*
X41005Y-6685*
Y-6738*
X41332*
X41335Y-6739*
X41338Y-6741*
X41340Y-6745*
Y-6749*
Y-6752*
X41338Y-6756*
X41335Y-6758*
X41332Y-6759*
X40995*
X40991Y-6758*
X40988Y-6755*
X40986Y-6753*
X40985Y-6749*
Y-6680*
Y-6679*
X40986Y-6675*
X40987Y-6674*
X40988Y-6673*
X40989Y-6672*
X41322Y-6401*
Y-6342*
X41244Y-6279*
X41082*
X41001Y-6346*
X40997Y-6347*
X40994Y-6346*
X40991Y-6345*
X40989Y-6342*
X40987Y-6339*
X40986Y-6335*
Y-6333*
X40987Y-6332*
X40989Y-6329*
X41073Y-6261*
X41075Y-6260*
X41077*
Y-6259*
X41079*
X41248*
X41250*
X41251Y-6260*
X41252*
X41254Y-6261*
X41284Y43686D02*
G03X41186Y43785I98D01*
X41088Y43686J99*
X41186Y43588I98*
X41284Y43686J98*
G01X41304Y33450D02*
G03X41132Y33622I172D01*
X40961Y33450J172*
X41132Y33278I171*
X41304Y33450J172*
G01X41306Y-5431D02*
X41304D01*
X41303Y-5432*
X41301Y-5433*
X41233Y-5488*
Y-5279*
X41559*
X41563Y-5278*
X41566Y-5276*
X41567Y-5273*
X41568Y-5269*
X41567Y-5265*
X41566Y-5262*
X41563Y-5260*
X41559Y-5259*
X41222*
X41218Y-5260*
X41215Y-5262*
X41213Y-5265*
X41212Y-5269*
Y-5509*
Y-5513*
X41214Y-5515*
X41216Y-5517*
X41219Y-5518*
X41222Y-5519*
X41224*
X41226*
X41228Y-5517*
X41310Y-5451*
X41471*
X41549Y-5514*
Y-5675*
X41471Y-5738*
X41310*
X41228Y-5672*
X41225Y-5670*
X41222*
X41219Y-5672*
X41216Y-5675*
X41214Y-5678*
X41213Y-5682*
X41214Y-5685*
X41216Y-5688*
X41301Y-5757*
X41302Y-5758*
X41304*
X41306Y-5759*
X41475*
X41476*
X41477Y-5758*
X41478*
X41479*
X41481Y-5757*
X41566Y-5688*
X41567Y-5686*
X41568Y-5685*
X41569Y-5682*
Y-5680*
Y-5509*
Y-5507*
X41568Y-5504*
Y-5503*
X41567*
X41566Y-5502*
Y-5501*
X41481Y-5433*
X41479Y-5432*
X41477Y-5431*
X41475*
X41306*
X41358Y43686D02*
G03X41186Y43858I172D01*
X41014Y43686J172*
X41186Y43514I172*
X41358Y43686J172*
G01X41504Y-4696D02*
Y-4750D01*
X41505Y-4753*
Y-4754*
X41506Y-4755*
X41507Y-4756*
X41509Y-4758*
X41512Y-4759*
X41567*
X41570Y-4758*
X41573Y-4756*
X41575Y-4754*
X41576Y-4750*
Y-4696*
X41575Y-4692*
X41573Y-4690*
X41570Y-4688*
X41567Y-4687*
X41512*
X41509Y-4688*
X41507Y-4690*
X41506Y-4691*
X41505Y-4692*
Y-4694*
X41504Y-4696*
X41521Y-4704D02*
X41559D01*
Y-4742*
X41521*
Y-4704*
X41551Y-6431D02*
X41549D01*
X41548Y-6432*
X41546Y-6433*
X41478Y-6488*
Y-6279*
X41804*
X41808Y-6278*
X41811Y-6276*
X41812Y-6273*
X41813Y-6269*
X41812Y-6265*
X41811Y-6262*
X41808Y-6260*
X41804Y-6259*
X41467*
X41463Y-6260*
X41460Y-6262*
X41458Y-6265*
X41457Y-6269*
Y-6509*
Y-6513*
X41459Y-6515*
X41461Y-6517*
X41464Y-6518*
X41467Y-6519*
X41469*
X41471*
X41473Y-6517*
X41555Y-6451*
X41716*
X41794Y-6514*
Y-6675*
X41716Y-6738*
X41555*
X41473Y-6672*
X41470Y-6670*
X41467*
X41464Y-6672*
X41461Y-6675*
X41459Y-6678*
X41458Y-6682*
X41459Y-6685*
X41461Y-6688*
X41546Y-6757*
X41547Y-6758*
X41549*
X41551Y-6759*
X41720*
X41721*
X41722Y-6758*
X41723*
X41724*
X41726Y-6757*
X41811Y-6688*
X41812Y-6686*
X41813Y-6685*
X41814Y-6682*
Y-6680*
Y-6509*
Y-6507*
X41813Y-6504*
Y-6503*
X41812*
X41811Y-6502*
Y-6501*
X41726Y-6433*
X41724Y-6432*
X41722Y-6431*
X41720*
X41551*
X41880Y-4757D02*
X41795Y-4688D01*
X41793Y-4686*
X41792Y-4683*
X41793Y-4679*
X41795Y-4676*
X41797Y-4673*
X41800Y-4671*
X41804*
X41807Y-4672*
X41889Y-4738*
X42050*
X42128Y-4675*
Y-4582*
X42051Y-4519*
X41968*
X41964Y-4518*
X41962Y-4516*
X41960Y-4512*
Y-4509*
Y-4505*
X41962Y-4502*
X41964Y-4500*
X41968Y-4499*
X42051*
X42128Y-4435*
Y-4342*
X42050Y-4279*
X41889*
X41807Y-4346*
X41804Y-4347*
X41800Y-4346*
X41797Y-4345*
X41795Y-4342*
X41793Y-4339*
X41792Y-4335*
X41793Y-4332*
X41795Y-4329*
X41880Y-4261*
X41881Y-4260*
X41883*
Y-4259*
X41885*
X42054*
X42056*
X42057Y-4260*
X42059*
X42060Y-4261*
X42145Y-4329*
X42146Y-4332*
X42147Y-4334*
X42148Y-4335*
Y-4337*
Y-4440*
Y-4442*
X42147Y-4445*
X42146Y-4448*
X42145Y-4449*
X42071Y-4509*
X42145Y-4569*
Y-4570*
X42146Y-4571*
X42147*
Y-4572*
X42148Y-4576*
Y-4577*
Y-4680*
Y-4683*
X42147Y-4685*
X42146Y-4687*
X42145Y-4688*
X42060Y-4757*
X42058Y-4758*
X42056*
Y-4759*
X42055*
X42054*
X41885*
X41883Y-4758*
X41881*
X41880Y-4757*
X41936Y47665D02*
G03X41838Y47763I98D01*
X41739Y47665J98*
X41838Y47567I99*
X41936Y47665J98*
G01X42009D02*
G03X41838Y47837I171D01*
X41666Y47665J172*
X41838Y47493I172*
X42009Y47665J172*
G01X42241Y1610D02*
G03X42143Y1708I98D01*
X42045Y1610J98*
X42143Y1512I98*
X42241Y1610J98*
G01X42307Y11441D02*
G03X42209Y11539I98D01*
X42111Y11441J98*
X42209Y11343I98*
X42307Y11441J98*
G01X42315Y1610D02*
G03X42143Y1782I172D01*
X41971Y1610J172*
X42143Y1438I172*
X42315Y1610J172*
G01X42341Y40869D02*
G03X42243Y40968I98D01*
X42145Y40869J99*
X42243Y40771I98*
X42341Y40869J98*
G01X42351Y-5559D02*
X42354D01*
X42357Y-5556*
X42358Y-5553*
Y-5549*
Y-5546*
X42357Y-5543*
X42354Y-5540*
X42351Y-5539*
X42227*
Y-5416*
X42226Y-5413*
X42224Y-5410*
X42221Y-5408*
X42217*
X42214*
X42211Y-5410*
X42208Y-5413*
Y-5416*
Y-5539*
X42084*
X42080Y-5540*
X42078Y-5543*
X42077Y-5546*
X42076Y-5549*
X42077Y-5553*
X42078Y-5556*
X42080Y-5559*
X42084*
X42208*
Y-5682*
Y-5686*
X42211Y-5689*
X42214Y-5690*
X42217Y-5691*
X42221Y-5690*
X42224Y-5689*
X42226Y-5686*
X42227Y-5682*
Y-5559*
X42351*
Y21249D02*
G03X42253Y21347I98D01*
X42155Y21249J98*
X42253Y21150I98*
X42351Y21249J99*
G01X42381Y11441D02*
G03X42209Y11613I172D01*
X42037Y11441J172*
X42209Y11269I172*
X42381Y11441J172*
G01X42415Y40869D02*
G03X42243Y41041I172D01*
X42071Y40869J172*
X42243Y40698I172*
X42415Y40869J171*
G01X42425Y21249D02*
G03X42253Y21421I172D01*
X42081Y21249J172*
X42253Y21077I172*
X42425Y21249J172*
G01X42489Y37414D02*
G03X42391Y37513I98D01*
X42293Y37414J99*
X42391Y37316I98*
X42489Y37414J98*
G01X42495Y17803D02*
G03X42397Y17901I98D01*
X42299Y17803J98*
X42397Y17705I98*
X42495Y17803J98*
G01X42500Y27612D02*
G03X42402Y27710I98D01*
X42304Y27612J98*
X42402Y27514I98*
X42500Y27612J98*
G01X42509Y-5742D02*
X42846Y-5263D01*
X42848Y-5260*
X42852*
X42855Y-5261*
X42858Y-5262*
X42861Y-5265*
X42863Y-5268*
Y-5272*
X42862Y-5275*
X42525Y-5754*
X42524Y-5756*
X42522Y-5757*
X42520Y-5758*
X42519*
X42515Y-5757*
X42512Y-5755*
X42510Y-5753*
X42508Y-5750*
X42507Y-5746*
X42509Y-5742*
X42545Y7997D02*
G03X42447Y8095I98D01*
X42348Y7997J98*
X42447Y7898I99*
X42545Y7997J99*
G01X42563Y37414D02*
G03X42391Y37586I172D01*
X42219Y37414J172*
X42391Y37242I172*
X42563Y37414J172*
G01X42569Y17803D02*
G03X42397Y17975I172D01*
X42225Y17803J172*
X42397Y17631I172*
X42569Y17803J172*
G01X42574Y27612D02*
G03X42402Y27784I172D01*
X42230Y27612J172*
X42402Y27440I172*
X42574Y27612J172*
G01X42596Y-6559D02*
X42599D01*
X42602Y-6556*
X42603Y-6553*
Y-6549*
Y-6546*
X42602Y-6543*
X42599Y-6540*
X42596Y-6539*
X42472*
Y-6416*
X42471Y-6413*
X42469Y-6410*
X42466Y-6408*
X42462*
X42459*
X42456Y-6410*
X42453Y-6413*
Y-6416*
Y-6539*
X42329*
X42325Y-6540*
X42323Y-6543*
X42322Y-6546*
X42321Y-6549*
X42322Y-6553*
X42323Y-6556*
X42325Y-6559*
X42329*
X42453*
Y-6682*
Y-6686*
X42456Y-6689*
X42459Y-6690*
X42462Y-6691*
X42466Y-6690*
X42469Y-6689*
X42471Y-6686*
X42472Y-6682*
Y-6559*
X42596*
X42618Y7997D02*
G03X42447Y8168I171D01*
X42275Y7997J171*
X42447Y7825I172*
X42618Y7997J172*
G01X42754Y-6742D02*
X43091Y-6263D01*
X43093Y-6260*
X43097*
X43100Y-6261*
X43103Y-6262*
X43106Y-6265*
X43108Y-6268*
Y-6272*
X43107Y-6275*
X42770Y-6754*
X42769Y-6756*
X42767Y-6757*
X42765Y-6758*
X42764*
X42760Y-6757*
X42757Y-6755*
X42755Y-6753*
X42753Y-6750*
X42752Y-6746*
X42754Y-6742*
X42904Y30587D02*
G03X42805Y30685I99D01*
X42707Y30587J98*
X42805Y30489I98*
X42904Y30587J98*
G01X42930Y-4559D02*
X42933D01*
X42936Y-4556*
X42937Y-4553*
Y-4549*
Y-4546*
X42936Y-4543*
X42933Y-4540*
X42930Y-4539*
X42806*
Y-4416*
X42805Y-4413*
X42803Y-4410*
X42800Y-4408*
X42796*
X42793*
X42790Y-4410*
X42787Y-4413*
Y-4416*
Y-4539*
X42663*
X42659Y-4540*
X42657Y-4543*
X42656Y-4546*
X42655Y-4549*
X42656Y-4553*
X42657Y-4556*
X42659Y-4559*
X42663*
X42787*
Y-4682*
Y-4686*
X42790Y-4689*
X42793Y-4690*
X42796Y-4691*
X42800Y-4690*
X42803Y-4689*
X42805Y-4686*
X42806Y-4682*
Y-4559*
X42930*
X42977Y30587D02*
G03X42805Y30759I172D01*
X42634Y30587J172*
X42805Y30415I171*
X42977Y30587J172*
G01X43048Y-5537D02*
X43209D01*
X43212*
X43215Y-5539*
X43216Y-5542*
X43217Y-5545*
X43216Y-5549*
X43215Y-5551*
X43212Y-5553*
X43209Y-5554*
X43048*
X43045Y-5553*
X43042Y-5551*
X43041Y-5549*
X43040Y-5545*
X43041Y-5542*
X43042Y-5539*
X43044Y-5537*
X43048*
X43189Y-3249D02*
X43190Y-3253D01*
X43193Y-3255*
X43196Y-3257*
X43199*
X43203*
X43207Y-3255*
X43209Y-3253*
X43210Y-3249*
Y-3019*
X43527*
Y-3249*
Y-3253*
X43530Y-3255*
X43533Y-3257*
X43537*
X43540*
X43543Y-3255*
X43546Y-3253*
X43547Y-3249*
Y-2769*
X43546Y-2765*
X43543Y-2762*
X43540Y-2761*
X43537Y-2760*
X43533Y-2761*
X43530Y-2762*
X43527Y-2765*
Y-2769*
Y-2999*
X43210*
Y-2769*
X43209Y-2765*
X43207Y-2762*
X43203Y-2761*
X43199Y-2760*
X43196Y-2761*
X43193Y-2762*
X43190Y-2765*
X43189Y-2769*
Y-3249*
X43254Y-4749D02*
X43255Y-4752D01*
X43257Y-4755*
X43261Y-4757*
X43264*
X43268*
X43271Y-4755*
X43273Y-4752*
X43274Y-4749*
Y-4279*
X43433*
X43436Y-4278*
X43439Y-4276*
X43441Y-4273*
Y-4269*
Y-4265*
X43439Y-4262*
X43436Y-4259*
X43433*
X43095*
X43092*
X43089Y-4262*
X43087Y-4265*
Y-4269*
Y-4273*
X43089Y-4276*
X43092Y-4278*
X43095Y-4279*
X43254*
Y-4749*
X43293Y-6537D02*
X43454D01*
X43457*
X43460Y-6539*
X43461Y-6542*
X43462Y-6545*
X43461Y-6549*
X43460Y-6551*
X43457Y-6553*
X43454Y-6554*
X43293*
X43290Y-6553*
X43287Y-6551*
X43286Y-6549*
X43285Y-6545*
X43286Y-6542*
X43287Y-6539*
X43289Y-6537*
X43293*
X43579Y-4484D02*
Y-4677D01*
X43640Y-4739*
X43833*
X43895Y-4677*
Y-4484*
X43833Y-4422*
X43640*
X43579Y-4484*
X43602Y-5749D02*
Y-5752D01*
X43605Y-5755*
X43608Y-5757*
X43612*
X43615*
X43618Y-5755*
X43621Y-5752*
X43622Y-5749*
Y-5279*
X43780*
X43784Y-5278*
X43787Y-5276*
X43788Y-5273*
X43789Y-5269*
X43788Y-5265*
X43787Y-5262*
X43784Y-5259*
X43780*
X43443*
X43439*
X43437Y-5262*
X43435Y-5265*
X43434Y-5269*
X43435Y-5273*
X43437Y-5276*
X43439Y-5278*
X43443Y-5279*
X43602*
Y-5749*
X43683Y-2984D02*
Y-3177D01*
X43744Y-3239*
X43937*
X43999Y-3177*
Y-2984*
X43937Y-2922*
X43744*
X43683Y-2984*
X43838Y-4759D02*
X43636D01*
X43634*
X43633Y-4758*
X43631*
X43628Y-4756*
X43561Y-4689*
X43559Y-4686*
X43558Y-4684*
Y-4681*
Y-4479*
Y-4477*
X43559Y-4474*
X43561Y-4471*
X43628Y-4404*
X43631Y-4403*
X43633Y-4402*
X43634*
X43636Y-4401*
X43838Y-4402*
X43840*
X43842Y-4403*
X43845Y-4404*
X43913Y-4471*
X43914Y-4474*
Y-4476*
X43915Y-4477*
Y-4479*
Y-4681*
Y-4684*
X43914Y-4685*
X43913Y-4689*
X43845Y-4756*
X43842Y-4758*
X43840*
X43838Y-4759*
X43847Y-6749D02*
Y-6752D01*
X43850Y-6755*
X43853Y-6757*
X43857*
X43860*
X43863Y-6755*
X43866Y-6752*
X43867Y-6749*
Y-6279*
X44025*
X44029Y-6278*
X44032Y-6276*
X44033Y-6273*
X44034Y-6269*
X44033Y-6265*
X44032Y-6262*
X44029Y-6259*
X44025*
X43688*
X43684*
X43682Y-6262*
X43680Y-6265*
X43679Y-6269*
X43680Y-6273*
X43682Y-6276*
X43684Y-6278*
X43688Y-6279*
X43847*
Y-6749*
X43926Y-5484D02*
Y-5677D01*
X43988Y-5739*
X44181*
X44243Y-5677*
Y-5484*
X44181Y-5422*
X43988*
X43926Y-5484*
X43933Y34176D02*
G03X43835Y34274I98D01*
X43737Y34176J98*
X43835Y34077I98*
X43933Y34176J99*
G01X43942Y-3259D02*
X43740D01*
X43738*
X43737Y-3258*
X43735*
X43732Y-3256*
X43665Y-3189*
X43663Y-3186*
X43662Y-3184*
Y-3181*
Y-2979*
Y-2977*
X43663Y-2974*
X43665Y-2971*
X43732Y-2904*
X43735Y-2903*
X43737Y-2902*
X43738*
X43740Y-2901*
X43942Y-2902*
X43944*
X43946Y-2903*
X43949Y-2904*
X44017Y-2971*
X44018Y-2974*
Y-2976*
X44019Y-2977*
Y-2979*
Y-3181*
Y-3184*
X44018Y-3185*
X44017Y-3189*
X43949Y-3256*
X43946Y-3258*
X43944*
X43942Y-3259*
X44007Y34176D02*
G03X43835Y34347I172D01*
X43663Y34176J171*
X43835Y34004I172*
X44007Y34176J172*
G01X44064Y37696D02*
G03X43966Y37794I98D01*
X43868Y37696J98*
X43966Y37597I98*
X44064Y37696J99*
G01X44102Y-4259D02*
X44098Y-4260D01*
X44096Y-4262*
X44094Y-4265*
Y-4269*
Y-4273*
X44096Y-4276*
X44098Y-4278*
X44102Y-4279*
X44189*
Y-4738*
X44102*
X44098Y-4739*
X44096Y-4741*
X44094Y-4745*
Y-4749*
Y-4752*
X44096Y-4756*
X44098Y-4758*
X44102Y-4759*
X44297*
X44300Y-4758*
X44303Y-4756*
X44305Y-4752*
Y-4749*
Y-4745*
X44303Y-4741*
X44300Y-4739*
X44297Y-4738*
X44209*
Y-4269*
X44208Y-4265*
X44206Y-4262*
X44203Y-4260*
X44199Y-4259*
X44102*
X44138Y37696D02*
G03X43966Y37868I172D01*
X43794Y37696J172*
X43966Y37524I172*
X44138Y37696J172*
G01X44139Y18064D02*
G03X44041Y18163I98D01*
X43942Y18064J99*
X44041Y17966I99*
X44139Y18064J98*
G01X44171Y-6484D02*
Y-6677D01*
X44233Y-6739*
X44426*
X44488Y-6677*
Y-6484*
X44426Y-6422*
X44233*
X44171Y-6484*
X44186Y-5759D02*
X43984D01*
X43982*
X43981Y-5758*
X43978*
X43976Y-5756*
X43909Y-5689*
X43907Y-5686*
X43906Y-5684*
Y-5681*
Y-5479*
Y-5477*
X43907Y-5474*
X43909Y-5471*
X43976Y-5404*
X43978Y-5403*
X43981Y-5402*
X43982*
X43984Y-5401*
X44186Y-5402*
X44188*
X44190Y-5403*
X44193Y-5404*
X44261Y-5471*
Y-5474*
X44262Y-5476*
Y-5477*
X44263Y-5479*
Y-5681*
X44262Y-5684*
Y-5685*
X44261Y-5689*
X44193Y-5756*
X44190Y-5758*
X44188*
X44186Y-5759*
X44206Y-2759D02*
X44202Y-2760D01*
X44200Y-2762*
X44198Y-2765*
Y-2769*
Y-2773*
X44200Y-2776*
X44202Y-2778*
X44206Y-2779*
X44293*
Y-3238*
X44206*
X44202Y-3239*
X44200Y-3241*
X44198Y-3245*
Y-3249*
Y-3252*
X44200Y-3256*
X44202Y-3258*
X44206Y-3259*
X44401*
X44404Y-3258*
X44407Y-3256*
X44409Y-3252*
Y-3249*
Y-3245*
X44407Y-3241*
X44404Y-3239*
X44401Y-3238*
X44313*
Y-2769*
X44312Y-2765*
X44310Y-2762*
X44307Y-2760*
X44303Y-2759*
X44206*
X44212Y18064D02*
G03X44041Y18236I171D01*
X43869Y18064J172*
X44041Y17892I172*
X44212Y18064J172*
G01X44431Y-6759D02*
X44229D01*
X44227*
X44226Y-6758*
X44223*
X44221Y-6756*
X44154Y-6689*
X44152Y-6686*
X44151Y-6684*
Y-6681*
Y-6479*
Y-6477*
X44152Y-6474*
X44154Y-6471*
X44221Y-6404*
X44223Y-6403*
X44226Y-6402*
X44227*
X44229Y-6401*
X44431Y-6402*
X44433*
X44435Y-6403*
X44438Y-6404*
X44506Y-6471*
Y-6474*
X44507Y-6476*
Y-6477*
X44508Y-6479*
Y-6681*
X44507Y-6684*
Y-6685*
X44506Y-6689*
X44438Y-6756*
X44435Y-6758*
X44433*
X44431Y-6759*
X44449Y-5259D02*
X44445Y-5260D01*
X44443Y-5262*
X44442Y-5265*
X44441Y-5269*
X44442Y-5273*
X44443Y-5276*
X44445Y-5278*
X44449Y-5279*
X44537*
Y-5738*
X44449*
X44445Y-5739*
X44443Y-5741*
X44442Y-5745*
X44441Y-5749*
X44442Y-5752*
X44443Y-5756*
X44445Y-5758*
X44449Y-5759*
X44644*
X44648Y-5758*
X44651Y-5756*
X44652Y-5752*
X44653Y-5749*
X44652Y-5745*
X44651Y-5741*
X44648Y-5739*
X44644Y-5738*
X44556*
Y-5269*
Y-5265*
X44553Y-5262*
X44551Y-5260*
X44547Y-5259*
X44449*
X44608Y-2985D02*
Y-3037D01*
X44924*
Y-3017*
X44829Y-2922*
X44701*
X44608Y-2985*
X44694Y-6259D02*
X44690Y-6260D01*
X44688Y-6262*
X44687Y-6265*
X44686Y-6269*
X44687Y-6273*
X44688Y-6276*
X44690Y-6278*
X44694Y-6279*
X44782*
Y-6738*
X44694*
X44690Y-6739*
X44688Y-6741*
X44687Y-6745*
X44686Y-6749*
X44687Y-6752*
X44688Y-6756*
X44690Y-6758*
X44694Y-6759*
X44889*
X44893Y-6758*
X44896Y-6756*
X44897Y-6752*
X44898Y-6749*
X44897Y-6745*
X44896Y-6741*
X44893Y-6739*
X44889Y-6738*
X44801*
Y-6269*
Y-6265*
X44798Y-6262*
X44796Y-6260*
X44792Y-6259*
X44694*
X44698Y-2901D02*
X44834Y-2902D01*
X44836*
X44838Y-2903*
X44841Y-2904*
X44942Y-3005*
X44943Y-3008*
Y-3010*
Y-3011*
X44944*
Y-3013*
Y-3047*
Y-3050*
X44941Y-3053*
X44939Y-3056*
X44934Y-3057*
X44608*
Y-3177*
X44701Y-3239*
X44829*
X44927Y-3140*
X44930Y-3138*
X44934*
X44938Y-3139*
X44941Y-3142*
X44943Y-3145*
X44944Y-3148*
Y-3152*
X44942Y-3155*
X44841Y-3256*
X44838Y-3258*
X44836*
X44834Y-3259*
X44698*
X44695Y-3258*
X44693Y-3257*
X44592Y-3190*
X44590Y-3189*
X44589Y-3187*
X44588Y-3184*
X44587Y-3182*
Y-2979*
X44588Y-2976*
X44589Y-2974*
X44590Y-2972*
X44591*
X44592Y-2971*
X44693Y-2904*
X44695Y-2902*
X44698Y-2901*
X44845Y-4329D02*
X44929Y-4261D01*
X44931Y-4260*
X44933*
Y-4259*
X44935*
X45104*
X45106*
X45107Y-4260*
X45108*
X45110Y-4261*
X45194Y-4329*
X45196Y-4332*
Y-4334*
X45197Y-4335*
X45198Y-4337*
Y-4680*
X45197Y-4682*
X45196Y-4685*
Y-4686*
X45194Y-4688*
X45110Y-4757*
X45108*
X45107Y-4758*
X45106*
X45105Y-4759*
X45104*
X44935*
X44933Y-4758*
X44931*
X44929Y-4757*
X44845Y-4688*
X44844Y-4687*
X44843*
X44842Y-4685*
X44841Y-4682*
Y-4680*
Y-4337*
Y-4335*
X44842Y-4334*
X44843Y-4332*
X44845Y-4329*
X44861Y-4342D02*
Y-4675D01*
X44891Y-4700*
X45133Y-4306*
X45100Y-4279*
X44938*
X44861Y-4342*
X44907Y-4713D02*
X44938Y-4738D01*
X45100*
X45178Y-4675*
Y-4342*
X45148Y-4319*
X44907Y-4713*
X45058Y-3249D02*
X45059Y-3253D01*
X45062Y-3255*
X45065Y-3257*
X45068*
X45072*
X45076Y-3255*
X45078Y-3253*
X45079Y-3249*
Y-2801*
X45398Y-3255*
X45399Y-3257*
X45402Y-3258*
X45404*
X45407Y-3257*
X45411Y-3256*
X45414Y-3254*
X45415Y-3252*
X45416Y-3249*
Y-2769*
X45415Y-2765*
X45412Y-2762*
X45409Y-2761*
X45406Y-2760*
X45402Y-2761*
X45399Y-2762*
X45396Y-2765*
Y-2769*
Y-3217*
X45077Y-2763*
X45075Y-2761*
X45073Y-2760*
X45070*
X45068Y-2761*
X45064*
X45061Y-2763*
X45059Y-2765*
X45058Y-2769*
Y-3249*
X45193Y-5329D02*
X45277Y-5261D01*
X45279Y-5260*
X45280*
X45281Y-5259*
X45283*
X45451*
X45453*
X45454*
Y-5260*
X45456*
X45458Y-5261*
X45542Y-5329*
X45543Y-5332*
X45544Y-5334*
X45545Y-5335*
Y-5337*
Y-5680*
Y-5682*
X45544Y-5685*
X45543Y-5686*
X45542Y-5688*
X45458Y-5757*
X45456*
X45455Y-5758*
X45454*
X45453Y-5759*
X45451*
X45283*
X45281Y-5758*
X45279*
X45277Y-5757*
X45193Y-5688*
X45192Y-5687*
X45191*
X45190Y-5685*
X45189Y-5682*
X45188Y-5680*
Y-5337*
X45189Y-5335*
X45190Y-5334*
X45191Y-5332*
X45193Y-5329*
X45209Y-5342D02*
Y-5675D01*
X45238Y-5700*
X45480Y-5306*
X45447Y-5279*
X45286*
X45209Y-5342*
X45254Y-5713D02*
X45286Y-5738D01*
X45447*
X45525Y-5675*
Y-5342*
X45496Y-5319*
X45254Y-5713*
X45411Y-4696D02*
Y-4750D01*
Y-4753*
X45412Y-4754*
X45413Y-4755*
X45414Y-4756*
X45416Y-4758*
X45419Y-4759*
X45474*
X45477Y-4758*
X45479Y-4756*
X45482Y-4754*
Y-4750*
Y-4696*
Y-4692*
X45479Y-4690*
X45477Y-4688*
X45474Y-4687*
X45419*
X45416Y-4688*
X45414Y-4690*
X45413Y-4691*
X45412Y-4692*
X45411Y-4694*
Y-4696*
X45427Y-4704D02*
X45466D01*
Y-4742*
X45427*
Y-4704*
X45438Y-6329D02*
X45522Y-6261D01*
X45524Y-6260*
X45525*
X45526Y-6259*
X45528*
X45696*
X45698*
X45699*
Y-6260*
X45701*
X45703Y-6261*
X45787Y-6329*
X45788Y-6332*
X45789Y-6334*
X45790Y-6335*
Y-6337*
Y-6680*
Y-6682*
X45789Y-6685*
X45788Y-6686*
X45787Y-6688*
X45703Y-6757*
X45701*
X45700Y-6758*
X45699*
X45698Y-6759*
X45696*
X45528*
X45526Y-6758*
X45524*
X45522Y-6757*
X45438Y-6688*
X45437Y-6687*
X45436*
X45435Y-6685*
X45434Y-6682*
X45433Y-6680*
Y-6337*
X45434Y-6335*
X45435Y-6334*
X45436Y-6332*
X45438Y-6329*
X45454Y-6342D02*
Y-6675D01*
X45483Y-6700*
X45725Y-6306*
X45692Y-6279*
X45531*
X45454Y-6342*
X45499Y-6713D02*
X45531Y-6738D01*
X45692*
X45770Y-6675*
Y-6342*
X45741Y-6319*
X45499Y-6713*
X45500Y24432D02*
G03X45402Y24530I98D01*
X45304Y24432J98*
X45402Y24334I98*
X45500Y24432J98*
G01X45552Y-3086D02*
X45645Y-3023D01*
X45775*
X45868Y-3086*
Y-3177*
X45775Y-3239*
X45645*
X45552Y-3177*
Y-3086*
X45574Y24432D02*
G03X45402Y24604I172D01*
X45230Y24432J172*
X45402Y24260I172*
X45574Y24432J172*
G01X45702Y-4329D02*
X45786Y-4261D01*
X45788Y-4260*
X45790*
Y-4259*
X45792*
X45961*
X45963*
X45964Y-4260*
X45965*
X45967Y-4261*
X46051Y-4329*
X46053Y-4332*
Y-4334*
X46054Y-4335*
X46055Y-4337*
Y-4680*
X46054Y-4682*
X46053Y-4685*
Y-4686*
X46051Y-4688*
X45967Y-4757*
X45965*
X45964Y-4758*
X45963*
X45962Y-4759*
X45961*
X45792*
X45790Y-4758*
X45788*
X45786Y-4757*
X45702Y-4688*
X45701Y-4687*
X45700*
X45699Y-4685*
X45698Y-4682*
Y-4680*
Y-4337*
Y-4335*
X45699Y-4334*
X45700Y-4332*
X45702Y-4329*
X45718Y-4342D02*
Y-4675D01*
X45748Y-4700*
X45990Y-4306*
X45957Y-4279*
X45795*
X45718Y-4342*
X45758Y-5696D02*
Y-5750D01*
X45759Y-5753*
Y-5754*
X45760Y-5755*
X45761Y-5756*
X45763Y-5758*
X45766Y-5759*
X45821*
X45824Y-5758*
X45827Y-5756*
X45829Y-5754*
X45830Y-5750*
Y-5696*
X45829Y-5692*
X45827Y-5690*
X45824Y-5688*
X45821Y-5687*
X45766*
X45763Y-5688*
X45761Y-5690*
X45760Y-5691*
X45759Y-5692*
Y-5694*
X45758Y-5696*
X45764Y-4713D02*
X45795Y-4738D01*
X45957*
X46035Y-4675*
Y-4342*
X46005Y-4319*
X45764Y-4713*
X45775Y-5704D02*
X45813D01*
Y-5742*
X45775*
Y-5704*
X45868Y-3249D02*
X45869Y-3253D01*
X45871Y-3255*
X45875Y-3257*
X45878*
X45882*
X45885Y-3255*
X45887Y-3253*
X45888Y-3249*
Y-2979*
X45887Y-2977*
Y-2975*
X45886Y-2972*
X45818Y-2904*
X45815Y-2903*
X45813Y-2902*
X45811*
X45541*
X45537*
X45535Y-2905*
X45533Y-2908*
X45532Y-2912*
X45533Y-2915*
X45535Y-2918*
X45537Y-2921*
X45541Y-2922*
X45806*
X45868Y-2984*
Y-3062*
X45782Y-3004*
X45780Y-3003*
X45777*
X45642*
X45639*
X45637Y-3004*
X45536Y-3072*
X45535Y-3073*
X45534Y-3074*
X45533*
X45531Y-3077*
Y-3080*
Y-3182*
Y-3184*
X45533Y-3187*
X45534Y-3188*
X45536Y-3189*
X45637Y-3257*
X45639Y-3258*
X45642Y-3259*
X45777*
X45780Y-3258*
X45782Y-3257*
X45868Y-3200*
Y-3249*
X46003Y-6696D02*
Y-6750D01*
X46004Y-6753*
Y-6754*
X46005Y-6755*
X46006Y-6756*
X46008Y-6758*
X46011Y-6759*
X46066*
X46069Y-6758*
X46072Y-6756*
X46074Y-6754*
X46075Y-6750*
Y-6696*
X46074Y-6692*
X46072Y-6690*
X46069Y-6688*
X46066Y-6687*
X46011*
X46008Y-6688*
X46006Y-6690*
X46005Y-6691*
X46004Y-6692*
Y-6694*
X46003Y-6696*
X46020Y-6704D02*
X46058D01*
Y-6742*
X46020*
Y-6704*
X46117Y-5738D02*
X46113Y-5739D01*
X46111Y-5741*
X46110Y-5745*
X46109Y-5749*
X46110Y-5752*
X46111Y-5756*
X46113Y-5758*
X46117Y-5759*
X46312*
X46316Y-5758*
X46319Y-5756*
X46320Y-5752*
X46321Y-5749*
X46320Y-5745*
X46319Y-5741*
X46316Y-5739*
X46312Y-5738*
X46224*
Y-5269*
Y-5265*
X46222Y-5263*
X46220Y-5261*
X46216*
X46214Y-5260*
X46211*
X46209Y-5261*
X46207Y-5263*
X46110Y-5400*
X46108Y-5404*
Y-5407*
X46110Y-5410*
X46112Y-5413*
X46115Y-5415*
X46119Y-5416*
X46121*
X46122Y-5415*
X46125Y-5412*
X46205Y-5300*
Y-5738*
X46117*
X46264Y-4431D02*
X46262D01*
X46261Y-4432*
X46259Y-4433*
X46191Y-4488*
Y-4279*
X46517*
X46521Y-4278*
X46524Y-4276*
X46525Y-4273*
X46526Y-4269*
X46525Y-4265*
X46524Y-4262*
X46521Y-4260*
X46517Y-4259*
X46180*
X46176Y-4260*
X46173Y-4262*
X46171Y-4265*
X46170Y-4269*
Y-4509*
Y-4513*
X46172Y-4515*
X46174Y-4517*
X46177Y-4518*
X46180Y-4519*
X46182*
X46184*
X46186Y-4517*
X46268Y-4451*
X46429*
X46507Y-4514*
Y-4675*
X46429Y-4738*
X46268*
X46186Y-4672*
X46183Y-4670*
X46180*
X46177Y-4672*
X46174Y-4675*
X46172Y-4678*
X46171Y-4682*
X46172Y-4685*
X46174Y-4688*
X46259Y-4757*
X46260Y-4758*
X46262*
X46264Y-4759*
X46433*
X46434*
X46435Y-4758*
X46436*
X46437*
X46439Y-4757*
X46524Y-4688*
X46525Y-4686*
X46526Y-4685*
X46527Y-4682*
Y-4680*
Y-4509*
Y-4507*
X46526Y-4504*
Y-4503*
X46525*
X46524Y-4502*
Y-4501*
X46439Y-4433*
X46437Y-4432*
X46435Y-4431*
X46433*
X46264*
X46360Y-2945D02*
X46359Y-2943D01*
X46358Y-2940*
X46356Y-2937*
X46305Y-2903*
X46303Y-2902*
X46300Y-2901*
X46232*
X46229Y-2902*
X46227Y-2903*
X46181Y-2934*
X46136Y-2903*
X46134Y-2902*
X46131Y-2901*
X46063*
X46060Y-2902*
X46058Y-2903*
X46023Y-2927*
Y-2911*
X46022Y-2907*
X46020Y-2905*
X46016Y-2903*
X46012Y-2902*
X46009Y-2903*
X46006Y-2905*
X46003Y-2907*
X46002Y-2911*
Y-3248*
X46003Y-3252*
X46006Y-3255*
X46009Y-3256*
X46012Y-3257*
X46016Y-3256*
X46020Y-3255*
X46022Y-3252*
X46023Y-3248*
Y-2950*
X46065Y-2921*
X46128*
X46171Y-2950*
Y-3249*
X46172Y-3253*
X46174Y-3255*
X46178Y-3257*
X46181*
X46185*
X46189Y-3255*
X46191Y-3253*
X46192Y-3249*
Y-2951*
X46235Y-2921*
X46298*
X46340Y-2950*
Y-3249*
Y-3253*
X46343Y-3255*
X46346Y-3257*
X46350*
X46353*
X46356Y-3255*
X46359Y-3253*
X46360Y-3249*
Y-2945*
X46362Y-6738D02*
X46358Y-6739D01*
X46356Y-6741*
X46355Y-6745*
X46354Y-6749*
X46355Y-6752*
X46356Y-6756*
X46358Y-6758*
X46362Y-6759*
X46557*
X46561Y-6758*
X46564Y-6756*
X46565Y-6752*
X46566Y-6749*
X46565Y-6745*
X46564Y-6741*
X46561Y-6739*
X46557Y-6738*
X46469*
Y-6269*
Y-6265*
X46467Y-6263*
X46465Y-6261*
X46461*
X46459Y-6260*
X46456*
X46454Y-6261*
X46452Y-6263*
X46355Y-6400*
X46353Y-6404*
Y-6407*
X46355Y-6410*
X46357Y-6413*
X46360Y-6415*
X46364Y-6416*
X46366*
X46367Y-6415*
X46370Y-6412*
X46450Y-6300*
Y-6738*
X46362*
X46495Y-2985D02*
Y-3037D01*
X46811*
Y-3017*
X46716Y-2922*
X46588*
X46495Y-2985*
X46585Y-2901D02*
X46721Y-2902D01*
X46723*
X46725Y-2903*
X46728Y-2904*
X46829Y-3005*
X46830Y-3008*
Y-3010*
Y-3011*
X46831*
Y-3013*
Y-3047*
Y-3050*
X46828Y-3053*
X46826Y-3056*
X46821Y-3057*
X46495*
Y-3177*
X46588Y-3239*
X46716*
X46814Y-3140*
X46817Y-3138*
X46821*
X46825Y-3139*
X46828Y-3142*
X46830Y-3145*
X46831Y-3148*
Y-3152*
X46829Y-3155*
X46728Y-3256*
X46725Y-3258*
X46723*
X46721Y-3259*
X46585*
X46582Y-3258*
X46580Y-3257*
X46479Y-3190*
X46477Y-3189*
X46476Y-3187*
X46475Y-3184*
X46474Y-3182*
Y-2979*
X46475Y-2976*
X46476Y-2974*
X46477Y-2972*
X46478*
X46479Y-2971*
X46580Y-2904*
X46582Y-2902*
X46585Y-2901*
X46857Y-5749D02*
X46858Y-5753D01*
X46861Y-5755*
X46864Y-5757*
X46867*
X46871*
X46875Y-5755*
X46877Y-5753*
X46878Y-5749*
Y-5301*
X47197Y-5755*
X47198Y-5757*
X47201Y-5758*
X47203*
X47206Y-5757*
X47210Y-5756*
X47213Y-5754*
X47214Y-5752*
X47215Y-5749*
Y-5269*
X47214Y-5265*
X47211Y-5262*
X47208Y-5261*
X47205Y-5260*
X47201Y-5261*
X47198Y-5262*
X47195Y-5265*
Y-5269*
Y-5717*
X46876Y-5263*
X46874Y-5261*
X46872Y-5260*
X46869*
X46867Y-5261*
X46863*
X46860Y-5263*
X46858Y-5265*
X46857Y-5269*
Y-5749*
X47069Y-4537D02*
X47229D01*
X47233*
X47235Y-4539*
X47237Y-4542*
Y-4545*
Y-4549*
X47235Y-4551*
X47233Y-4553*
X47229Y-4554*
X47069*
X47065Y-4553*
X47063Y-4551*
X47061Y-4549*
Y-4545*
Y-4542*
X47062Y-4539*
X47065Y-4537*
X47069*
X47102Y-6749D02*
X47103Y-6753D01*
X47106Y-6755*
X47109Y-6757*
X47112*
X47116*
X47120Y-6755*
X47122Y-6753*
X47123Y-6749*
Y-6301*
X47442Y-6755*
X47443Y-6757*
X47446Y-6758*
X47448*
X47451Y-6757*
X47455Y-6756*
X47458Y-6754*
X47459Y-6752*
X47460Y-6749*
Y-6269*
X47459Y-6265*
X47456Y-6262*
X47453Y-6261*
X47450Y-6260*
X47446Y-6261*
X47443Y-6262*
X47440Y-6265*
Y-6269*
Y-6717*
X47121Y-6263*
X47119Y-6261*
X47117Y-6260*
X47114*
X47112Y-6261*
X47108*
X47105Y-6263*
X47103Y-6265*
X47102Y-6269*
Y-6749*
X47351Y-5484D02*
Y-5677D01*
X47412Y-5739*
X47605*
X47667Y-5677*
Y-5484*
X47605Y-5422*
X47412*
X47351Y-5484*
X47595Y37859D02*
G03X47497Y37957I98D01*
X47399Y37859J98*
X47497Y37761I98*
X47595Y37859J98*
G01X47596Y-6484D02*
Y-6677D01*
X47657Y-6739*
X47850*
X47912Y-6677*
Y-6484*
X47850Y-6422*
X47657*
X47596Y-6484*
X47610Y-5759D02*
X47408D01*
X47406*
X47405Y-5758*
X47403*
X47400Y-5756*
X47333Y-5689*
X47331Y-5686*
X47330Y-5684*
Y-5681*
Y-5479*
Y-5477*
X47331Y-5474*
X47333Y-5471*
X47400Y-5404*
X47403Y-5403*
X47405Y-5402*
X47406*
X47408Y-5401*
X47610Y-5402*
X47612*
X47614Y-5403*
X47617Y-5404*
X47685Y-5471*
X47686Y-5474*
Y-5476*
X47687Y-5477*
Y-5479*
Y-5681*
Y-5684*
X47686Y-5685*
X47685Y-5689*
X47617Y-5756*
X47614Y-5758*
X47612*
X47610Y-5759*
X47622Y-4749D02*
X47623Y-4752D01*
X47625Y-4755*
X47629Y-4757*
X47632*
X47636*
X47639Y-4755*
X47641Y-4752*
X47642Y-4749*
Y-4279*
X47801*
X47804Y-4278*
X47807Y-4276*
X47809Y-4273*
Y-4269*
Y-4265*
X47807Y-4262*
X47804Y-4259*
X47801*
X47463*
X47460*
X47457Y-4262*
X47455Y-4265*
Y-4269*
Y-4273*
X47457Y-4276*
X47460Y-4278*
X47463Y-4279*
X47622*
Y-4749*
X47669Y37859D02*
G03X47497Y38031I172D01*
X47325Y37859J172*
X47497Y37687I172*
X47669Y37859J172*
G01X47855Y-6759D02*
X47653D01*
X47651*
X47650Y-6758*
X47648*
X47645Y-6756*
X47578Y-6689*
X47576Y-6686*
X47575Y-6684*
Y-6681*
Y-6479*
Y-6477*
X47576Y-6474*
X47578Y-6471*
X47645Y-6404*
X47648Y-6403*
X47650Y-6402*
X47651*
X47653Y-6401*
X47855Y-6402*
X47857*
X47859Y-6403*
X47862Y-6404*
X47930Y-6471*
X47931Y-6474*
Y-6476*
X47932Y-6477*
Y-6479*
Y-6681*
Y-6684*
X47931Y-6685*
X47930Y-6689*
X47862Y-6756*
X47859Y-6758*
X47857*
X47855Y-6759*
X47947Y-4484D02*
Y-4677D01*
X48008Y-4739*
X48201*
X48263Y-4677*
Y-4484*
X48201Y-4422*
X48008*
X47947Y-4484*
X47964Y1647D02*
G03X47866Y1745I98D01*
X47768Y1647J98*
X47866Y1549I98*
X47964Y1647J98*
G01X47991Y31058D02*
G03X47893Y31156I98D01*
X47794Y31058J98*
X47893Y30960I99*
X47991Y31058J98*
G01X47994Y11448D02*
G03X47895Y11546I99D01*
X47797Y11448J98*
X47895Y11349I98*
X47994Y11448J99*
G01X48016Y21252D02*
G03X47918Y21350I98D01*
X47820Y21252J98*
X47918Y21153I98*
X48016Y21252J99*
G01X48038Y1647D02*
G03X47866Y1819I172D01*
X47694Y1647J172*
X47866Y1475I172*
X48038Y1647J172*
G01X48065Y31058D02*
G03X47893Y31230I172D01*
X47721Y31058J172*
X47893Y30886I172*
X48065Y31058J172*
G01X48067Y11448D02*
G03X47895Y11619I172D01*
X47724Y11448J171*
X47895Y11276I171*
X48067Y11448J172*
G01X48090Y21252D02*
G03X47918Y21424I172D01*
X47746Y21252J172*
X47918Y21080I172*
X48090Y21252J172*
G01X48139Y-5749D02*
Y-5753D01*
X48142Y-5755*
X48145Y-5757*
X48149*
X48152*
X48155Y-5755*
X48158Y-5753*
X48159Y-5749*
Y-5479*
X48158Y-5477*
X48157Y-5475*
Y-5473*
X48155Y-5471*
X48071Y-5404*
X48068Y-5403*
X48066Y-5402*
X48064*
X47896*
X47894*
X47892Y-5403*
X47890Y-5404*
X47822Y-5458*
Y-5412*
X47821Y-5408*
X47819Y-5405*
X47815Y-5404*
X47811Y-5403*
X47808Y-5404*
X47805Y-5405*
X47802Y-5408*
X47801Y-5412*
Y-5749*
X47802Y-5753*
X47805Y-5755*
X47808Y-5757*
X47811*
X47815*
X47819Y-5755*
X47821Y-5753*
X47822Y-5749*
Y-5484*
X47899Y-5422*
X48061*
X48139Y-5484*
Y-5749*
X48151Y27612D02*
G03X48053Y27710I98D01*
X47955Y27612J98*
X48053Y27513I98*
X48151Y27612J99*
G01X48177Y17805D02*
G03X48079Y17903I98D01*
X47980Y17805J98*
X48079Y17707I99*
X48177Y17805J98*
G01X48205Y7984D02*
G03X48107Y8082I98D01*
X48008Y7984J98*
X48107Y7885I99*
X48205Y7984J99*
G01X48206Y-4759D02*
X48004D01*
X48002*
X48001Y-4758*
X47999*
X47996Y-4756*
X47929Y-4689*
X47927Y-4686*
X47926Y-4684*
Y-4681*
Y-4479*
Y-4477*
X47927Y-4474*
X47929Y-4471*
X47996Y-4404*
X47999Y-4403*
X48001Y-4402*
X48002*
X48004Y-4401*
X48206Y-4402*
X48208*
X48210Y-4403*
X48213Y-4404*
X48281Y-4471*
X48282Y-4474*
Y-4476*
X48283Y-4477*
Y-4479*
Y-4681*
Y-4684*
X48282Y-4685*
X48281Y-4689*
X48213Y-4756*
X48210Y-4758*
X48208*
X48206Y-4759*
X48225Y27612D02*
G03X48053Y27783I172D01*
X47881Y27612J171*
X48053Y27440I172*
X48225Y27612J172*
G01X48250Y17805D02*
G03X48079Y17977I171D01*
X47907Y17805J172*
X48079Y17633I172*
X48250Y17805J172*
G01X48279Y7984D02*
G03X48107Y8155I172D01*
X47935Y7984J171*
X48107Y7812I172*
X48279Y7984J172*
G01X48342Y-5537D02*
X48502D01*
X48506*
X48508Y-5539*
X48510Y-5542*
Y-5545*
Y-5549*
X48508Y-5551*
X48506Y-5553*
X48502Y-5554*
X48342*
X48338Y-5553*
X48336Y-5551*
X48334Y-5549*
Y-5545*
Y-5542*
X48335Y-5539*
X48338Y-5537*
X48342*
X48384Y-6749D02*
Y-6753D01*
X48387Y-6755*
X48390Y-6757*
X48394*
X48397*
X48400Y-6755*
X48403Y-6753*
X48404Y-6749*
Y-6479*
X48403Y-6477*
X48402Y-6475*
Y-6473*
X48400Y-6471*
X48316Y-6404*
X48313Y-6403*
X48311Y-6402*
X48309*
X48141*
X48139*
X48137Y-6403*
X48135Y-6404*
X48067Y-6458*
Y-6412*
X48066Y-6408*
X48064Y-6405*
X48060Y-6404*
X48056Y-6403*
X48053Y-6404*
X48050Y-6405*
X48047Y-6408*
X48046Y-6412*
Y-6749*
X48047Y-6753*
X48050Y-6755*
X48053Y-6757*
X48056*
X48060*
X48064Y-6755*
X48066Y-6753*
X48067Y-6749*
Y-6484*
X48144Y-6422*
X48306*
X48384Y-6484*
Y-6749*
X48470Y-4259D02*
X48466Y-4260D01*
X48464Y-4262*
X48462Y-4265*
Y-4269*
Y-4273*
X48464Y-4276*
X48466Y-4278*
X48470Y-4279*
X48557*
Y-4738*
X48470*
X48466Y-4739*
X48464Y-4741*
X48462Y-4745*
Y-4749*
Y-4752*
X48464Y-4756*
X48466Y-4758*
X48470Y-4759*
X48665*
X48668Y-4758*
X48671Y-4756*
X48673Y-4752*
Y-4749*
Y-4745*
X48671Y-4741*
X48668Y-4739*
X48665Y-4738*
X48577*
Y-4269*
X48576Y-4265*
X48574Y-4262*
X48571Y-4260*
X48567Y-4259*
X48470*
X48587Y-6537D02*
X48747D01*
X48751*
X48753Y-6539*
X48755Y-6542*
Y-6545*
Y-6549*
X48753Y-6551*
X48751Y-6553*
X48747Y-6554*
X48587*
X48583Y-6553*
X48581Y-6551*
X48579Y-6549*
Y-6545*
Y-6542*
X48580Y-6539*
X48583Y-6537*
X48587*
X48747Y-5279D02*
X48986D01*
X49064Y-5342*
Y-5435*
X48986Y-5499*
X48747*
Y-5279*
X48992Y-6279D02*
X49231D01*
X49309Y-6342*
Y-6435*
X49231Y-6499*
X48992*
Y-6279*
X49081Y-5449D02*
X49082Y-5448D01*
X49083Y-5445*
X49084Y-5443*
Y-5440*
Y-5337*
Y-5335*
X49083Y-5333*
Y-5332*
X49082Y-5331*
X49081Y-5330*
X48996Y-5261*
X48993Y-5260*
X48991Y-5259*
X48989*
X48737*
X48733Y-5260*
X48730Y-5262*
X48727Y-5265*
X48726Y-5269*
Y-5749*
X48727Y-5753*
X48730Y-5755*
X48733Y-5757*
X48736*
X48740*
X48744Y-5755*
X48746Y-5753*
X48747Y-5749*
Y-5519*
X48989*
X48993Y-5518*
X48994*
X48995*
X48996Y-5517*
X49081Y-5449*
X49271Y-5259D02*
X49267Y-5260D01*
X49265Y-5262*
X49264Y-5265*
X49263Y-5269*
X49264Y-5273*
X49265Y-5276*
X49267Y-5278*
X49271Y-5279*
X49359*
Y-5738*
X49271*
X49267Y-5739*
X49265Y-5741*
X49264Y-5745*
X49263Y-5749*
X49264Y-5752*
X49265Y-5756*
X49267Y-5758*
X49271Y-5759*
X49466*
X49470Y-5758*
X49473Y-5756*
X49474Y-5752*
X49475Y-5749*
X49474Y-5745*
X49473Y-5741*
X49470Y-5739*
X49466Y-5738*
X49378*
Y-5269*
Y-5265*
X49375Y-5262*
X49373Y-5260*
X49369Y-5259*
X49271*
X49277Y-4537D02*
X49438D01*
X49441*
X49444Y-4539*
X49445Y-4542*
X49446Y-4545*
X49445Y-4549*
X49444Y-4551*
X49441Y-4553*
X49438Y-4554*
X49277*
X49274Y-4553*
X49271Y-4551*
X49270Y-4549*
X49269Y-4545*
X49270Y-4542*
X49271Y-4539*
X49273Y-4537*
X49277*
X49326Y-6449D02*
X49327Y-6448D01*
X49328Y-6445*
X49329Y-6443*
Y-6440*
Y-6337*
Y-6335*
X49328Y-6333*
Y-6332*
X49327Y-6331*
X49326Y-6330*
X49241Y-6261*
X49238Y-6260*
X49236Y-6259*
X49234*
X48982*
X48978Y-6260*
X48975Y-6262*
X48972Y-6265*
X48971Y-6269*
Y-6749*
X48972Y-6753*
X48975Y-6755*
X48978Y-6757*
X48981*
X48985*
X48989Y-6755*
X48991Y-6753*
X48992Y-6749*
Y-6519*
X49234*
X49238Y-6518*
X49239*
X49240*
X49241Y-6517*
X49326Y-6449*
X49512Y14833D02*
G03X49414Y14931I98D01*
X49316Y14833J98*
X49414Y14735I98*
X49512Y14833J98*
G01X49516Y-6259D02*
X49512Y-6260D01*
X49510Y-6262*
X49509Y-6265*
X49508Y-6269*
X49509Y-6273*
X49510Y-6276*
X49512Y-6278*
X49516Y-6279*
X49604*
Y-6738*
X49516*
X49512Y-6739*
X49510Y-6741*
X49509Y-6745*
X49508Y-6749*
X49509Y-6752*
X49510Y-6756*
X49512Y-6758*
X49516Y-6759*
X49711*
X49715Y-6758*
X49718Y-6756*
X49719Y-6752*
X49720Y-6749*
X49719Y-6745*
X49718Y-6741*
X49715Y-6739*
X49711Y-6738*
X49623*
Y-6269*
Y-6265*
X49620Y-6262*
X49618Y-6260*
X49614Y-6259*
X49516*
X49586Y14833D02*
G03X49414Y15005I172D01*
X49242Y14833J172*
X49414Y14661I172*
X49586Y14833J172*
G01X49667Y-4329D02*
X49751Y-4261D01*
X49753Y-4260*
X49754*
X49755Y-4259*
X49757*
X49925*
X49927*
X49928*
Y-4260*
X49930*
X49932Y-4261*
X50016Y-4329*
X50017Y-4332*
X50018Y-4334*
X50019Y-4335*
Y-4337*
Y-4680*
Y-4682*
X50018Y-4685*
X50017Y-4686*
X50016Y-4688*
X49932Y-4757*
X49930*
X49929Y-4758*
X49928*
X49927Y-4759*
X49925*
X49757*
X49755Y-4758*
X49753*
X49751Y-4757*
X49667Y-4688*
X49666Y-4687*
X49665*
X49664Y-4685*
X49663Y-4682*
X49662Y-4680*
Y-4337*
X49663Y-4335*
X49664Y-4334*
X49665Y-4332*
X49667Y-4329*
X49673Y-5586D02*
X49766Y-5523D01*
X49896*
X49990Y-5586*
Y-5677*
X49896Y-5739*
X49766*
X49673Y-5677*
Y-5586*
X49683Y-4342D02*
Y-4675D01*
X49712Y-4700*
X49954Y-4306*
X49921Y-4279*
X49760*
X49683Y-4342*
X49728Y-4713D02*
X49760Y-4738D01*
X49921*
X49999Y-4675*
Y-4342*
X49970Y-4319*
X49728Y-4713*
X49918Y-6586D02*
X50011Y-6523D01*
X50141*
X50235Y-6586*
Y-6677*
X50141Y-6739*
X50011*
X49918Y-6677*
Y-6586*
X49934Y18224D02*
G03X49835Y18322I99D01*
X49737Y18224J98*
X49835Y18125I98*
X49934Y18224J99*
G01X49990Y-5749D02*
Y-5753D01*
X49993Y-5755*
X49996Y-5757*
X50000*
X50003*
X50006Y-5755*
X50009Y-5753*
X50010Y-5749*
Y-5479*
X50009Y-5477*
Y-5475*
X50008Y-5472*
X49940Y-5404*
X49937Y-5403*
X49935Y-5402*
X49933*
X49662*
X49659*
X49656Y-5405*
X49654Y-5408*
Y-5412*
Y-5415*
X49656Y-5418*
X49659Y-5421*
X49662Y-5422*
X49927*
X49990Y-5484*
Y-5562*
X49904Y-5504*
X49902Y-5503*
X49899*
X49764*
X49760*
X49758Y-5504*
X49657Y-5572*
X49656Y-5573*
Y-5574*
X49655*
X49653Y-5577*
X49652Y-5580*
Y-5682*
X49653Y-5684*
X49655Y-5687*
X49656Y-5688*
X49657Y-5689*
X49758Y-5757*
X49761Y-5758*
X49764Y-5759*
X49899*
X49902Y-5758*
X49904Y-5757*
X49990Y-5700*
Y-5749*
X50007Y18224D02*
G03X49835Y18395I172D01*
X49663Y18224J171*
X49835Y18052I172*
X50007Y18224J172*
G01X50228Y4768D02*
G03X50130Y4866I98D01*
X50032Y4768J98*
X50130Y4669I98*
X50228Y4768J99*
G01X50232Y-4696D02*
Y-4750D01*
X50233Y-4753*
Y-4754*
X50234Y-4755*
X50235Y-4756*
X50237Y-4758*
X50240Y-4759*
X50295*
X50298Y-4758*
X50301Y-4756*
X50303Y-4754*
X50304Y-4750*
Y-4696*
X50303Y-4692*
X50301Y-4690*
X50298Y-4688*
X50295Y-4687*
X50240*
X50237Y-4688*
X50235Y-4690*
X50234Y-4691*
X50233Y-4692*
Y-4694*
X50232Y-4696*
X50235Y-6749D02*
Y-6753D01*
X50238Y-6755*
X50241Y-6757*
X50245*
X50248*
X50251Y-6755*
X50254Y-6753*
X50255Y-6749*
Y-6479*
X50254Y-6477*
Y-6475*
X50253Y-6472*
X50185Y-6404*
X50182Y-6403*
X50180Y-6402*
X50178*
X49907*
X49904*
X49901Y-6405*
X49899Y-6408*
Y-6412*
Y-6415*
X49901Y-6418*
X49904Y-6421*
X49907Y-6422*
X50172*
X50235Y-6484*
Y-6562*
X50149Y-6504*
X50147Y-6503*
X50144*
X50009*
X50005*
X50003Y-6504*
X49902Y-6572*
X49901Y-6573*
Y-6574*
X49900*
X49898Y-6577*
X49897Y-6580*
Y-6682*
X49898Y-6684*
X49900Y-6687*
X49901Y-6688*
X49902Y-6689*
X50003Y-6757*
X50006Y-6758*
X50009Y-6759*
X50144*
X50147Y-6758*
X50149Y-6757*
X50235Y-6700*
Y-6749*
X50249Y-4704D02*
X50287D01*
Y-4742*
X50249*
Y-4704*
X50302Y4768D02*
G03X50130Y4939I172D01*
X49958Y4768J171*
X50130Y4596I172*
X50302Y4768J172*
G01X50311Y-5269D02*
X50310Y-5265D01*
X50308Y-5262*
X50305Y-5261*
X50301Y-5260*
X50298Y-5261*
X50294Y-5262*
X50292Y-5265*
X50291Y-5269*
Y-5430*
X50169*
X50165Y-5431*
X50163Y-5433*
X50162Y-5437*
X50161Y-5440*
X50162Y-5444*
X50163Y-5447*
X50165Y-5449*
X50169Y-5450*
X50291*
Y-5715*
X50292Y-5717*
X50293Y-5720*
X50294Y-5721*
X50296Y-5722*
X50346Y-5757*
X50348Y-5758*
X50351Y-5759*
X50418*
X50422Y-5758*
X50424Y-5757*
X50474Y-5722*
X50477Y-5720*
X50478Y-5717*
X50477Y-5713*
X50475Y-5710*
X50473Y-5707*
X50470Y-5705*
X50467*
X50463Y-5706*
X50415Y-5738*
X50353*
X50311Y-5710*
Y-5450*
X50435*
X50438Y-5449*
X50441Y-5447*
X50443Y-5444*
Y-5440*
Y-5437*
X50441Y-5433*
X50438Y-5431*
X50435Y-5430*
X50311*
Y-5269*
X50556Y-6269D02*
X50555Y-6265D01*
X50553Y-6262*
X50550Y-6261*
X50546Y-6260*
X50543Y-6261*
X50539Y-6262*
X50537Y-6265*
X50536Y-6269*
Y-6430*
X50414*
X50410Y-6431*
X50408Y-6433*
X50407Y-6437*
X50406Y-6440*
X50407Y-6444*
X50408Y-6447*
X50410Y-6449*
X50414Y-6450*
X50536*
Y-6715*
X50537Y-6717*
X50538Y-6720*
X50539Y-6721*
X50541Y-6722*
X50591Y-6757*
X50593Y-6758*
X50596Y-6759*
X50663*
X50667Y-6758*
X50669Y-6757*
X50719Y-6722*
X50722Y-6720*
X50723Y-6717*
X50722Y-6713*
X50720Y-6710*
X50718Y-6707*
X50715Y-6705*
X50712*
X50708Y-6706*
X50660Y-6738*
X50598*
X50556Y-6710*
Y-6450*
X50680*
X50683Y-6449*
X50686Y-6447*
X50688Y-6444*
Y-6440*
Y-6437*
X50686Y-6433*
X50683Y-6431*
X50680Y-6430*
X50556*
Y-6269*
X50581Y24406D02*
X51269D01*
X50591Y-4738D02*
X50587Y-4739D01*
X50585Y-4741*
X50584Y-4745*
X50583Y-4749*
X50584Y-4752*
X50585Y-4756*
X50587Y-4758*
X50591Y-4759*
X50786*
X50790Y-4758*
X50793Y-4756*
X50794Y-4752*
X50795Y-4749*
X50794Y-4745*
X50793Y-4741*
X50790Y-4739*
X50786Y-4738*
X50698*
Y-4269*
Y-4265*
X50696Y-4263*
X50694Y-4261*
X50690*
X50688Y-4260*
X50685*
X50683Y-4261*
X50681Y-4263*
X50584Y-4400*
X50582Y-4404*
Y-4407*
X50584Y-4410*
X50586Y-4413*
X50589Y-4415*
X50593Y-4416*
X50595*
X50596Y-4415*
X50599Y-4412*
X50679Y-4300*
Y-4738*
X50591*
X50613Y-5485D02*
Y-5537D01*
X50930*
Y-5517*
X50834Y-5422*
X50706*
X50613Y-5485*
X50704Y-5401D02*
X50839Y-5402D01*
X50841*
X50843Y-5403*
X50846Y-5404*
X50948Y-5505*
Y-5508*
X50949Y-5510*
Y-5511*
X50950Y-5513*
Y-5547*
X50949Y-5550*
X50947Y-5553*
X50944Y-5556*
X50940Y-5557*
X50613*
Y-5677*
X50706Y-5739*
X50834*
X50933Y-5640*
X50936Y-5638*
X50939*
X50943Y-5639*
X50946Y-5642*
X50949Y-5645*
X50950Y-5648*
Y-5652*
X50948Y-5655*
X50846Y-5756*
X50843Y-5758*
X50841*
X50839Y-5759*
X50704*
X50701Y-5758*
X50698Y-5757*
X50598Y-5690*
X50596Y-5689*
X50595Y-5687*
X50593Y-5684*
Y-5682*
Y-5479*
Y-5476*
X50595Y-5474*
X50596Y-5472*
X50597*
X50598Y-5471*
X50698Y-5404*
X50701Y-5402*
X50704Y-5401*
X50858Y-6485D02*
Y-6537D01*
X51175*
Y-6517*
X51079Y-6422*
X50951*
X50858Y-6485*
X50925Y24037D02*
X51294Y24406D01*
X50925Y24774*
X50556Y24406*
X50925Y24037*
Y24062D02*
Y24749D01*
X50949Y-6401D02*
X51084Y-6402D01*
X51086*
X51088Y-6403*
X51091Y-6404*
X51193Y-6505*
Y-6508*
X51194Y-6510*
Y-6511*
X51195Y-6513*
Y-6547*
X51194Y-6550*
X51192Y-6553*
X51189Y-6556*
X51185Y-6557*
X50858*
Y-6677*
X50951Y-6739*
X51079*
X51178Y-6640*
X51181Y-6638*
X51184*
X51188Y-6639*
X51191Y-6642*
X51194Y-6645*
X51195Y-6648*
Y-6652*
X51193Y-6655*
X51091Y-6756*
X51088Y-6758*
X51086*
X51084Y-6759*
X50949*
X50946Y-6758*
X50943Y-6757*
X50843Y-6690*
X50841Y-6689*
X50840Y-6687*
X50838Y-6684*
Y-6682*
Y-6479*
Y-6476*
X50840Y-6474*
X50841Y-6472*
X50842*
X50843Y-6471*
X50943Y-6404*
X50946Y-6402*
X50949Y-6401*
X51085Y-5479D02*
X51162Y-5417D01*
X51322*
X51401Y-5514*
Y-5675*
X51323Y-5738*
X51162*
X51085Y-5675*
Y-5479*
X51153Y-5757D02*
X51154Y-5758D01*
X51156*
X51158Y-5759*
X51327*
X51329*
X51330Y-5758*
X51331*
X51333Y-5757*
X51401Y-5701*
Y-5749*
X51402Y-5753*
X51404Y-5755*
X51408Y-5757*
X51411*
X51415*
X51418Y-5755*
X51420Y-5753*
X51421Y-5749*
Y-5508*
Y-5507*
Y-5269*
X51420Y-5265*
X51418Y-5262*
X51415Y-5261*
X51411Y-5260*
X51408Y-5261*
X51404Y-5262*
X51402Y-5265*
X51401Y-5269*
Y-5480*
X51335Y-5400*
X51333Y-5398*
X51330Y-5397*
X51328Y-5396*
X51327*
X51158*
X51156Y-5397*
X51155*
X51153Y-5398*
X51068Y-5467*
X51066Y-5468*
X51065Y-5470*
X51064Y-5473*
Y-5475*
Y-5680*
Y-5683*
X51065Y-5685*
X51066Y-5687*
X51068Y-5688*
X51153Y-5757*
X51330Y-6479D02*
X51407Y-6417D01*
X51567*
X51646Y-6514*
Y-6675*
X51568Y-6738*
X51407*
X51330Y-6675*
Y-6479*
X51398Y-6757D02*
X51399Y-6758D01*
X51401*
X51403Y-6759*
X51572*
X51574*
X51575Y-6758*
X51576*
X51578Y-6757*
X51646Y-6701*
Y-6749*
X51647Y-6753*
X51649Y-6755*
X51653Y-6757*
X51656*
X51660*
X51663Y-6755*
X51665Y-6753*
X51666Y-6749*
Y-6508*
Y-6507*
Y-6269*
X51665Y-6265*
X51663Y-6262*
X51660Y-6261*
X51656Y-6260*
X51653Y-6261*
X51649Y-6262*
X51647Y-6265*
X51646Y-6269*
Y-6480*
X51580Y-6400*
X51578Y-6398*
X51575Y-6397*
X51573Y-6396*
X51572*
X51403*
X51401Y-6397*
X51400*
X51398Y-6398*
X51313Y-6467*
X51311Y-6468*
X51310Y-6470*
X51309Y-6473*
Y-6475*
Y-6680*
Y-6683*
X51310Y-6685*
X51311Y-6687*
X51313Y-6688*
X51398Y-6757*
X53250Y28057D02*
G03X53151Y28155I99D01*
X53053Y28057J98*
X53151Y27959I98*
X53250Y28057J98*
G01X53323D02*
G03X53151Y28229I172D01*
X52980Y28057J172*
X53151Y27885I171*
X53323Y28057J172*
G01X53641Y1648D02*
G03X53543Y1746I98D01*
X53445Y1648J98*
X53543Y1549I98*
X53641Y1648J99*
G01X53645Y21248D02*
G03X53547Y21347I98D01*
X53449Y21248J99*
X53547Y21150I98*
X53645Y21248J98*
G01X53668Y11443D02*
G03X53570Y11541I98D01*
X53471Y11443J98*
X53570Y11345I99*
X53668Y11443J98*
G01X53715Y1648D02*
G03X53543Y1819I172D01*
X53371Y1648J171*
X53543Y1476I172*
X53715Y1648J172*
G01X53719Y21248D02*
G03X53547Y21420I172D01*
X53375Y21248J172*
X53547Y21077I172*
X53719Y21248J171*
G01X53741Y11443D02*
G03X53570Y11615I171D01*
X53398Y11443J172*
X53570Y11271I172*
X53741Y11443J172*
G01X53817Y17806D02*
G03X53719Y17904I98D01*
X53620Y17806J98*
X53719Y17708I99*
X53817Y17806J98*
G01X53860Y7995D02*
G03X53762Y8094I98D01*
X53663Y7995J99*
X53762Y7897I99*
X53860Y7995J98*
G01X53890Y17806D02*
G03X53719Y17978I171D01*
X53547Y17806J172*
X53719Y17634I172*
X53890Y17806J172*
G01X53933Y7995D02*
G03X53762Y8167I171D01*
X53590Y7995J172*
X53762Y7824I172*
X53933Y7995J171*
G01X55075Y-3134D02*
X55073Y-3130D01*
Y-3126*
X55074Y-3123*
X55077Y-3120*
X55080Y-3118*
X55084Y-3117*
X55088Y-3118*
X55091Y-3120*
X55150Y-3193*
X55172Y-3175*
Y-2842*
X55094Y-2779*
X54932*
X54855Y-2842*
Y-3175*
X54932Y-3238*
X55094*
X55133Y-3206*
X55075Y-3134*
X55174Y-3255D02*
X55146Y-3222D01*
X55104Y-3257*
X55102*
X55101Y-3258*
X55100*
X55099Y-3259*
X55097*
X54929*
X54927Y-3258*
X54925*
X54923Y-3257*
X54839Y-3188*
X54838Y-3187*
X54837*
X54836Y-3185*
X54835Y-3182*
Y-3180*
Y-2837*
Y-2835*
X54836Y-2834*
X54837Y-2832*
X54839Y-2829*
X54923Y-2761*
X54925Y-2760*
X54927*
Y-2759*
X54929*
X55098*
X55100*
X55101Y-2760*
X55102*
X55104Y-2761*
X55188Y-2829*
X55189Y-2831*
X55190*
Y-2832*
Y-2833*
X55191Y-2835*
X55192Y-2837*
Y-3180*
X55191Y-3183*
X55190Y-3184*
Y-3187*
X55188Y-3188*
X55163Y-3209*
X55190Y-3242*
X55192Y-3245*
Y-3249*
X55190Y-3252*
X55188Y-3255*
X55184Y-3257*
X55181Y-3258*
X55179*
X55177*
X55174Y-3255*
X55307Y-3182D02*
Y-3183D01*
X55308Y-3186*
X55309Y-3188*
X55311Y-3189*
X55396Y-3257*
X55397Y-3258*
X55399*
X55401Y-3259*
X55570*
X55571*
X55572Y-3258*
X55573*
X55574*
X55576Y-3257*
X55644Y-3202*
Y-3249*
X55645Y-3253*
X55647Y-3255*
X55651Y-3257*
X55654*
X55658*
X55661Y-3255*
X55663Y-3253*
X55664Y-3249*
Y-2912*
X55663Y-2908*
X55661Y-2905*
X55658Y-2904*
X55654Y-2903*
X55651Y-2904*
X55647Y-2905*
X55645Y-2908*
X55644Y-2912*
Y-3177*
X55566Y-3239*
X55405*
X55328Y-3177*
Y-2912*
X55327Y-2908*
X55324Y-2905*
X55321Y-2904*
X55317Y-2903*
X55313Y-2904*
X55310Y-2905*
X55308Y-2908*
X55307Y-2912*
Y-3182*
X55800Y-3086D02*
X55893Y-3023D01*
X56023*
X56117Y-3086*
Y-3177*
X56023Y-3239*
X55893*
X55800Y-3177*
Y-3086*
X56117Y-3249D02*
Y-3253D01*
X56120Y-3255*
X56123Y-3257*
X56127*
X56130*
X56133Y-3255*
X56136Y-3253*
X56137Y-3249*
Y-2979*
X56136Y-2977*
Y-2975*
X56135Y-2972*
X56067Y-2904*
X56064Y-2903*
X56062Y-2902*
X56060*
X55789*
X55786*
X55783Y-2905*
X55781Y-2908*
Y-2912*
Y-2915*
X55783Y-2918*
X55786Y-2921*
X55789Y-2922*
X56054*
X56117Y-2984*
Y-3062*
X56031Y-3004*
X56029Y-3003*
X56026*
X55891*
X55887*
X55885Y-3004*
X55784Y-3072*
X55783Y-3073*
Y-3074*
X55782*
X55780Y-3077*
X55779Y-3080*
Y-3182*
X55780Y-3184*
X55782Y-3187*
X55783Y-3188*
X55784Y-3189*
X55885Y-3257*
X55888Y-3258*
X55891Y-3259*
X56026*
X56029Y-3258*
X56031Y-3257*
X56117Y-3200*
Y-3249*
X56588D02*
X56589Y-3253D01*
X56591Y-3255*
X56595Y-3257*
X56598*
X56602*
X56605Y-3255*
X56607Y-3253*
X56608Y-3249*
Y-2979*
Y-2977*
X56607Y-2975*
X56606Y-2973*
X56605Y-2971*
X56520Y-2904*
X56518Y-2903*
X56516Y-2902*
X56514*
X56345*
X56343*
X56342Y-2903*
X56340Y-2904*
X56272Y-2958*
Y-2912*
X56271Y-2908*
X56268Y-2905*
X56265Y-2904*
X56261Y-2903*
X56257Y-2904*
X56254Y-2905*
X56252Y-2908*
X56251Y-2912*
Y-3249*
X56252Y-3253*
X56254Y-3255*
X56257Y-3257*
X56261*
X56265*
X56268Y-3255*
X56271Y-3253*
X56272Y-3249*
Y-2984*
X56349Y-2922*
X56510*
X56588Y-2984*
Y-3249*
X56910Y-2769D02*
X56909Y-2765D01*
X56906Y-2762*
X56903Y-2761*
X56900Y-2760*
X56896Y-2761*
X56893Y-2762*
X56890Y-2765*
Y-2769*
Y-2930*
X56767*
X56764Y-2931*
X56761Y-2933*
X56760Y-2937*
Y-2940*
Y-2944*
X56761Y-2947*
X56764Y-2949*
X56767Y-2950*
X56890*
Y-3215*
Y-3217*
X56892Y-3220*
X56893Y-3221*
X56895Y-3222*
X56945Y-3257*
X56947Y-3258*
X56950Y-3259*
X57017*
X57020Y-3258*
X57023Y-3257*
X57073Y-3222*
X57075Y-3220*
X57076Y-3217*
Y-3213*
X57074Y-3210*
X57072Y-3207*
X57069Y-3205*
X57065*
X57062Y-3206*
X57014Y-3238*
X56952*
X56910Y-3210*
Y-2950*
X57033*
X57037Y-2949*
X57040Y-2947*
X57041Y-2944*
X57042Y-2940*
X57041Y-2937*
X57040Y-2933*
X57037Y-2931*
X57033Y-2930*
X56910*
Y-2769*
X57240Y-4738D02*
X57236Y-4739D01*
X57234Y-4741*
X57232Y-4745*
Y-4749*
Y-4752*
X57234Y-4756*
X57236Y-4758*
X57240Y-4759*
X57435*
X57438Y-4758*
X57441Y-4756*
X57443Y-4752*
Y-4749*
Y-4745*
X57441Y-4741*
X57438Y-4739*
X57435Y-4738*
X57347*
Y-4269*
X57346Y-4265*
X57345Y-4263*
X57342Y-4261*
X57339*
X57336Y-4260*
X57334*
X57332Y-4261*
X57330Y-4263*
X57232Y-4400*
X57231Y-4404*
Y-4407*
X57232Y-4410*
X57235Y-4413*
X57238Y-4415*
X57241Y-4416*
X57243*
X57245Y-4415*
X57247Y-4412*
X57327Y-4300*
Y-4738*
X57240*
X57412Y-3259D02*
X57416Y-3258D01*
X57418Y-3256*
X57420Y-3252*
Y-3249*
Y-3245*
X57418Y-3242*
X57416Y-3240*
X57412Y-3239*
X57360*
Y-2912*
X57359Y-2908*
X57357Y-2905*
X57354Y-2902*
X57350*
X57288*
X57285*
X57282Y-2905*
X57281Y-2908*
X57280Y-2912*
X57281Y-2915*
X57282Y-2918*
X57285Y-2921*
X57288Y-2922*
X57341*
Y-3239*
X57288*
X57285Y-3240*
X57282Y-3242*
X57281Y-3245*
X57280Y-3249*
X57281Y-3252*
X57282Y-3256*
X57285Y-3258*
X57288Y-3259*
X57412*
X57692Y-4744D02*
X57691Y-4747D01*
Y-4751*
X57694Y-4754*
X57696Y-4756*
X57700Y-4757*
X57703*
X57706Y-4756*
X57709Y-4753*
X57978Y-4274*
X57979Y-4271*
Y-4269*
Y-4267*
X57978Y-4265*
X57977Y-4262*
X57975Y-4260*
X57972Y-4259*
X57970*
X57632*
X57629Y-4260*
X57626Y-4262*
X57624Y-4265*
Y-4269*
Y-4273*
X57626Y-4276*
X57629Y-4279*
X57632*
X57953*
X57692Y-4744*
X57813Y-2769D02*
X57812Y-2765D01*
X57810Y-2762*
X57807Y-2761*
X57803Y-2760*
X57800Y-2761*
X57796Y-2762*
X57794Y-2765*
X57793Y-2769*
Y-2930*
X57671*
X57667Y-2931*
X57665Y-2933*
X57664Y-2937*
X57663Y-2940*
X57664Y-2944*
X57665Y-2947*
X57667Y-2949*
X57671Y-2950*
X57793*
Y-3215*
X57794Y-3217*
X57795Y-3220*
X57796Y-3221*
X57798Y-3222*
X57848Y-3257*
X57850Y-3258*
X57853Y-3259*
X57920*
X57924Y-3258*
X57926Y-3257*
X57976Y-3222*
X57979Y-3220*
X57980Y-3217*
X57979Y-3213*
X57977Y-3210*
X57975Y-3207*
X57972Y-3205*
X57969*
X57965Y-3206*
X57917Y-3238*
X57855*
X57813Y-3210*
Y-2950*
X57937*
X57940Y-2949*
X57943Y-2947*
X57945Y-2944*
Y-2940*
Y-2937*
X57943Y-2933*
X57940Y-2931*
X57937Y-2930*
X57813*
Y-2769*
X58095Y-3180D02*
Y-2905D01*
X58096Y-2901*
X58098Y-2898*
X58101Y-2896*
X58105Y-2895*
X58109Y-2896*
X58112Y-2898*
X58114Y-2901*
X58115Y-2905*
Y-3175*
X58192Y-3238*
X58355*
X58432Y-3175*
Y-2905*
X58433Y-2901*
X58435Y-2898*
X58438Y-2896*
X58442Y-2895*
X58445Y-2896*
X58449Y-2898*
X58451Y-2901*
X58452Y-2905*
Y-3454*
X58451Y-3458*
X58449Y-3461*
X58446Y-3463*
X58442Y-3464*
X58105*
X58101Y-3463*
X58098Y-3461*
X58097Y-3458*
X58096Y-3454*
X58097Y-3450*
X58098Y-3447*
X58101Y-3445*
X58105Y-3444*
X58432*
Y-3202*
X58364Y-3257*
X58362Y-3258*
X58361*
X58360*
X58359*
Y-3259*
X58358*
X58189*
X58187Y-3258*
X58185*
X58183Y-3257*
X58099Y-3188*
X58098Y-3187*
X58097*
X58096Y-3185*
X58095Y-3182*
Y-3180*
X58115Y-6548D02*
Y-6675D01*
X58192Y-6738*
X58354*
X58432Y-6675*
Y-6548*
X58354Y-6484*
X58192*
X58115Y-6548*
X58184Y-4757D02*
X58099Y-4688D01*
X58097Y-4686*
X58096Y-4683*
X58097Y-4679*
X58099Y-4676*
X58101Y-4673*
X58104Y-4671*
X58108*
X58111Y-4672*
X58193Y-4738*
X58354*
X58432Y-4675*
Y-4582*
X58355Y-4519*
X58272*
X58268Y-4518*
X58266Y-4516*
X58264Y-4512*
Y-4509*
Y-4505*
X58266Y-4502*
X58268Y-4500*
X58272Y-4499*
X58355*
X58432Y-4435*
Y-4342*
X58354Y-4279*
X58193*
X58111Y-4346*
X58108Y-4347*
X58104Y-4346*
X58101Y-4345*
X58099Y-4342*
X58097Y-4339*
X58096Y-4335*
X58097Y-4332*
X58099Y-4329*
X58184Y-4261*
X58185Y-4260*
X58187*
Y-4259*
X58189*
X58358*
X58360*
X58361Y-4260*
X58363*
X58364Y-4261*
X58449Y-4329*
X58450Y-4332*
X58451Y-4334*
X58452Y-4335*
Y-4337*
Y-4440*
Y-4442*
X58451Y-4445*
X58450Y-4448*
X58449Y-4449*
X58375Y-4509*
X58449Y-4569*
Y-4570*
X58450Y-4571*
X58451*
Y-4572*
X58452Y-4576*
Y-4577*
Y-4680*
Y-4683*
X58451Y-4685*
X58450Y-4687*
X58449Y-4688*
X58364Y-4757*
X58362Y-4758*
X58360*
Y-4759*
X58359*
X58358*
X58189*
X58187Y-4758*
X58185*
X58184Y-4757*
X58364Y-6261D02*
X58448Y-6329D01*
X58451Y-6332*
Y-6336*
Y-6339*
X58450Y-6341*
X58448Y-6343*
X58446Y-6345*
X58443Y-6347*
X58441*
X58438*
X58436Y-6346*
X58354Y-6279*
X58192*
X58115Y-6342*
Y-6522*
X58183Y-6466*
X58185*
X58186Y-6465*
X58187*
X58189Y-6464*
X58358*
X58360Y-6465*
X58361*
X58362Y-6466*
X58364*
X58448Y-6534*
X58449Y-6536*
X58450*
Y-6537*
Y-6538*
X58451Y-6541*
X58452Y-6543*
Y-6680*
X58451Y-6683*
X58450Y-6685*
Y-6687*
X58448Y-6688*
X58364Y-6757*
X58362Y-6758*
X58361*
X58360*
X58359Y-6759*
X58358*
X58189*
X58187Y-6758*
X58185*
X58183Y-6757*
X58099Y-6688*
X58098Y-6687*
X58097*
X58096Y-6685*
X58095Y-6682*
Y-6680*
Y-6337*
Y-6335*
X58096Y-6333*
X58097Y-6332*
X58098Y-6331*
X58099Y-6329*
X58183Y-6261*
X58185Y-6260*
X58187*
Y-6259*
X58189*
X58358*
X58360*
X58361Y-6260*
X58362*
X58364Y-6261*
Y-5261D02*
X58448Y-5329D01*
X58450Y-5332*
Y-5334*
X58451Y-5335*
X58452Y-5337*
Y-5406*
X58451Y-5408*
X58450Y-5411*
Y-5413*
X58448Y-5414*
X58115Y-5685*
Y-5738*
X58442*
X58445Y-5739*
X58448Y-5741*
X58450Y-5745*
Y-5749*
Y-5752*
X58448Y-5756*
X58445Y-5758*
X58442Y-5759*
X58105*
X58101Y-5758*
X58098Y-5755*
X58096Y-5753*
X58095Y-5749*
Y-5680*
Y-5679*
X58096Y-5675*
X58097Y-5674*
X58098Y-5673*
X58099Y-5672*
X58432Y-5401*
Y-5342*
X58354Y-5279*
X58192*
X58111Y-5346*
X58107Y-5347*
X58104Y-5346*
X58101Y-5345*
X58099Y-5342*
X58097Y-5339*
X58096Y-5335*
Y-5333*
X58097Y-5332*
X58099Y-5329*
X58183Y-5261*
X58185Y-5260*
X58187*
Y-5259*
X58189*
X58358*
X58360*
X58361Y-5260*
X58362*
X58364Y-5261*
X58925Y18253D02*
G03X58826Y18351I99D01*
X58728Y18253J98*
X58826Y18155I98*
X58925Y18253J98*
G01X58998D02*
G03X58826Y18425I172D01*
X58655Y18253J172*
X58826Y18081I171*
X58998Y18253J172*
G01X59162Y1666D02*
G03X59064Y1765I98D01*
X58965Y1666J99*
X59064Y1568I99*
X59162Y1666J98*
G01X59236D02*
G03X59064Y1838I172D01*
X58892Y1666J172*
X59064Y1495I172*
X59236Y1666J171*
G01X59293Y11436D02*
G03X59195Y11534I98D01*
X59097Y11436J98*
X59195Y11338I98*
X59293Y11436J98*
G01X59367D02*
G03X59195Y11608I172D01*
X59023Y11436J172*
X59195Y11264I172*
X59367Y11436J172*
G01X59468Y7995D02*
G03X59370Y8094I98D01*
X59272Y7995J99*
X59370Y7897I98*
X59468Y7995J98*
G01X59542D02*
G03X59370Y8167I172D01*
X59198Y7995J172*
X59370Y7824I172*
X59542Y7995J171*
G01X61948Y4724D02*
X62635D01*
X62291Y4356D02*
X62660Y4724D01*
X62291Y5093*
X61923Y4724*
X62291Y4356*
Y4381D02*
Y5068D01*
X64580Y8442D02*
G03X64481Y8540I99D01*
X64383Y8442J98*
X64481Y8344I98*
X64580Y8442J98*
G01X64653D02*
G03X64481Y8614I172D01*
X64310Y8442J172*
X64481Y8270I171*
X64653Y8442J172*
G01X64974Y1646D02*
G03X64876Y1744I98D01*
X64778Y1646J98*
X64876Y1548I98*
X64974Y1646J98*
G01X65048D02*
G03X64876Y1818I172D01*
X64704Y1646J172*
X64876Y1474I172*
X65048Y1646J172*
G01X68661Y873D02*
G03X68562Y971I99D01*
X68464Y873J98*
X68562Y774I98*
X68661Y873J99*
G01X68734D02*
G03X68562Y1044I172D01*
X68391Y873J171*
X68562Y701I171*
X68734Y873J172*
M02*
