*
G04 Job   : E:\BOULED\DESIGN\LED_PANEL\PCB\PCB.pcb*
G04 User  : DESKTOP-D6MOGOB:alexis*
G04 Layer : EtchLayerBottom.gdo*
G04 Date  : Sat Dec 29 22:08:19 2018*
G04 Mentor Graphics Example Gerber Output Definition*
%ICAS*%
%MOIN*%
%FSLAX24Y24*%
%OFA0.0000B0.0000*%
G90*
G74*
%AMVB_RECTANGLE*
21,1,$1,$2,0,0,$3*
%
%ADD10C,0.00500*%
%ADD12C,0.00591*%
%ADD13C,0.01575*%
%ADD15C,0.02362*%
%ADD14C,0.03150*%
%ADD11C,0.03937*%
%ADD20VB_RECTANGLE,0.02638X0.05906X180.00000*%
%ADD21VB_RECTANGLE,0.03543X0.06299X180.00000*%
%ADD18VB_RECTANGLE,0.03937X0.02362X180.00000*%
%ADD24VB_RECTANGLE,0.03937X0.02362X270.00000*%
%ADD23VB_RECTANGLE,0.04528X0.07087X90.00000*%
%ADD25VB_RECTANGLE,0.04528X0.12598X180.00000*%
%ADD16VB_RECTANGLE,0.05118X0.07087X180.00000*%
%ADD22VB_RECTANGLE,0.05906X0.12205X90.00000*%
%ADD71VB_RECTANGLE,0.07087X0.18110X0.00000*%
%ADD17VB_RECTANGLE,0.09843X0.13780X0.00000*%
%ADD70VB_RECTANGLE,0.11811X0.06299X180.00000*%
%ADD19VB_RECTANGLE,0.21654X0.03937X180.00000*%
G01*
G36*
X230Y162D02*
X2241Y3639D01*
Y2362*
G03X2438Y2165I197*
X2606Y2259J197*
G02X2631Y2274I25J15*
G01X11477*
G03X11539Y2300J88*
G01X19057Y9817*
G02X19078Y9826I21J21*
G01X19636*
G02X19666Y9796J30*
G01Y9619*
G03X19744Y9540I78*
G01X20765*
Y8861*
G03X20852Y8580I495*
G01Y5068*
G03X21128Y4792I276*
X21403Y5068J276*
X21128Y5343I275*
X20852Y5068J275*
G01Y8580*
G03X21260Y8366I408J281*
X21755Y8861J495*
X21729Y9021I495*
G02X21727Y9031I28J10*
X21757Y9060I30*
G01X22776*
G03X22835Y9119J59*
G01Y9710*
G03X22776Y9769I59*
G01X21713*
G03X21654Y9710J59*
G01Y9239*
G02X21624Y9210I30*
X21604Y9218J29*
G03X21260Y9357I344J357*
X20765Y8861J496*
G01Y9540*
X20965*
G03X21044Y9619J79*
G01Y10210*
G03X20965Y10288I79*
G01X19744*
G03X19666Y10210J78*
G01Y10033*
G02X19636Y10003I30*
G01X19029*
G03X18966Y9977J89*
G01X11449Y2459*
G02X11428Y2451I21J21*
G01X2631*
G02X2606Y2465J29*
G03X2438Y2559I168J103*
X2241Y2362J197*
G01Y3639*
X2959Y4881*
Y3659*
G03X3156Y3463I197*
X3202Y3468J196*
G02X3209Y3469I7J29*
X3230Y3460J30*
G01X3799Y2892*
G03X3861Y2866I62J63*
G01X10437*
G03X10499Y2892J89*
G01X18425Y10817*
G02X18446Y10826I21J21*
G01X19636*
G02X19666Y10796J30*
G01Y10619*
G03X19744Y10540I78*
G01X20965*
G03X21044Y10619J79*
G01Y11210*
G03X20965Y11288I79*
G01X19744*
G03X19666Y11210J78*
G01Y11033*
G02X19636Y11003I30*
G01X18397*
G03X18334Y10977J89*
G01X10409Y3052*
G02X10388Y3043I21J21*
G01X3910*
G02X3889Y3052J30*
G01X3355Y3586*
G02X3347Y3606I21J20*
X3348Y3613I29*
G03X3353Y3659I192J46*
X3156Y3856I197*
X2959Y3659J197*
G01Y4881*
X5174Y8709*
Y6538*
G03X5370Y6341I196*
X5538Y6435J197*
G02X5564Y6449I26J15*
G01X6013*
G03X6076Y6475J89*
G01X7343Y7743*
Y4724*
G03X8183Y3885I840*
X9023Y4724J839*
X8183Y5564I840*
X7343Y4724J840*
G01Y7743*
X8882Y9281*
G03X8907Y9344I63J63*
G01Y13227*
G02X8922Y13253I30*
G03X9016Y13420I103J167*
X8819Y13617I197*
X8622Y13420J197*
X8716Y13253I197*
G02X8730Y13227I15J26*
G01Y9393*
G02X8722Y9372I29*
G01X5985Y6635*
G02X5964Y6627I21J21*
G01X5564*
G02X5538Y6641J29*
G03X5370Y6735I168J103*
X5174Y6538J197*
G01Y8709*
X5220Y8790*
Y7266*
G03X5417Y7069I197*
X5614Y7266J197*
X5608Y7312I197*
G02X5607Y7319I29J7*
X5616Y7340I30*
G01X7773Y9497*
G03X7799Y9560I62J63*
G01Y11631*
G02X7808Y11652I30*
G01X8129Y11973*
G02X8150Y11982I21J21*
X8156Y11981J30*
G03X8203Y11975I47J191*
X8399Y12172J197*
X8203Y12369I196*
X8006Y12172J197*
X8011Y12126I197*
G02X8012Y12119I29J7*
X8003Y12098I30*
G01X7648Y11743*
G03X7622Y11680I63J63*
G01Y9609*
G02X7613Y9588I30*
G01X5491Y7465*
G02X5470Y7457I21J21*
X5463Y7458J29*
G03X5417Y7463I46J192*
X5220Y7266J197*
G01Y8790*
X10818Y18468*
Y16348*
G03X11015Y16151I197*
X11182Y16245J197*
G02X11208Y16259I26J15*
G01X11356*
G03X11419Y16285J89*
G01X14544Y19410*
G03X14570Y19473I63J63*
G01Y23004*
G02X14584Y23029I30*
G03X14678Y23197I103J168*
X14481Y23394I197*
X14285Y23197J197*
X14379Y23029I196*
G02X14393Y23004I16J25*
G01Y19522*
G02X14384Y19501I30*
G01X11328Y16445*
G02X11307Y16436I21J21*
G01X11208*
G02X11182Y16450J30*
G03X11015Y16544I167J102*
X10818Y16348J196*
G01Y18468*
X10838Y18503*
Y17074*
G03X11035Y16877I197*
X11231Y17074J197*
X11226Y17120I196*
G02X11225Y17127I29J7*
X11234Y17148I30*
G01X13383Y19297*
G03X13409Y19360I63J63*
G01Y21297*
G02X13418Y21318I29*
G01X13879Y21780*
G02X13900Y21788I21J21*
X13907Y21787J29*
G03X13953Y21782I46J192*
X14150Y21979J197*
X13953Y22176I197*
X13756Y21979J197*
X13762Y21933I197*
G02Y21926I29J7*
X13754Y21905I29*
G01X13258Y21409*
G03X13232Y21346I62J63*
G01Y19409*
G02X13223Y19388I30*
G01X11109Y17273*
G02X11088Y17265I21J21*
X11081J29*
G03X11035Y17271I46J191*
X10838Y17074J197*
G01Y18503*
X16466Y28235*
Y26884*
G03X16551Y26722I197*
G01Y26154*
G03X16748Y25957I197*
X16945Y26154J197*
X16940Y26200I197*
G02X16939Y26207I28J7*
X16947Y26228I29*
G01X20206Y29486*
G03X20232Y29549I63J63*
G01Y32745*
G02Y32749I29*
G03X20233Y32760I88J11*
G01Y32826*
G02X20247Y32851I29*
G03X20341Y33019I103J168*
X20144Y33216I197*
X19947Y33019J197*
X20041Y32851I197*
G02X20055Y32826I15J25*
G01Y32774*
G02Y32770I29*
G03X20054Y32759I88J11*
G01Y29598*
G02X20046Y29577I29*
G01X16822Y26353*
G02X16801Y26344I21J21*
X16794Y26345J30*
G03X16748Y26351I46J191*
X16551Y26154J197*
G01Y26722*
G03X16663Y26687I112J162*
X16860Y26884J197*
X16854Y26930I197*
G02Y26937I29J7*
X16862Y26958I29*
G01X19089Y29184*
G03X19115Y29247I63J63*
G01Y31161*
G02X19123Y31181I29*
G01X19529Y31587*
G02X19550Y31596I21J21*
X19557Y31595J30*
G03X19603Y31589I46J191*
X19800Y31786J197*
X19603Y31983I197*
X19406Y31786J197*
X19411Y31740I197*
G02X19412Y31733I28J7*
X19404Y31712I29*
G01X18963Y31272*
G03X18937Y31210I63J62*
G01Y29296*
G02X18929Y29275I29*
G01X16737Y27083*
G02X16716Y27074I21J21*
X16709Y27075J30*
G03X16663Y27081I46J191*
X16466Y26884J197*
G01Y28235*
X21496Y36932*
Y10119*
G03X21555Y10060I59*
G01X22776*
G03X22835Y10119J59*
G01Y10710*
G03X22776Y10769I59*
G01X21555*
G03X21496Y10710J59*
G01Y36932*
X21798Y37453*
Y29045*
G03X22014Y28828I216*
X22231Y29045J217*
G01Y30517*
G03X22014Y30734I217*
X21798Y30517J217*
G01Y37453*
X22237Y38212*
Y36690*
G03X22255Y36607I197*
G01Y35965*
G03X22452Y35769I197*
X22620Y35863J196*
G02X22645Y35877I25J16*
G01X23034*
Y31902*
G03X23391Y31214I840*
G01Y9735*
G03X23450Y9676I59*
G01X24530*
G03X24589Y9735J59*
G01Y10684*
G03X24530Y10743I59*
G01X23450*
G03X23391Y10684J59*
G01Y31214*
G03X23708Y31078I483J688*
G01Y13377*
G03X23767Y13318I59*
G01X28558*
G03X28617Y13377J59*
G01Y14429*
G03X28558Y14488I59*
G01X23767*
G03X23708Y14429J59*
G01Y31078*
G03X23874Y31062I166J824*
X24714Y31902J840*
X23874Y32741I840*
X23034Y31902J839*
G01Y35877*
X23236*
G03X23299Y35903J88*
G01X25213Y37816*
Y14826*
G03X25272Y14767I59*
G01X28536*
G03X28595Y14826J59*
G01Y15879*
G03X28536Y15938I59*
G01X25272*
G03X25213Y15879J59*
G01Y37816*
X25870Y38474*
G03X25896Y38536I63J62*
G01Y42641*
G02X25910Y42666I29*
G03X26004Y42834I103J168*
X25807Y43031I197*
X25610Y42834J197*
X25704Y42666I197*
G02X25719Y42641I15J25*
G01Y38585*
G02X25710Y38564I30*
G01X23208Y36063*
G02X23187Y36054I21J21*
G01X22645*
G02X22620Y36068J30*
G03X22452Y36162I168J103*
X22255Y35965J197*
G01Y36607*
G03X22434Y36493I179J83*
X22631Y36690J197*
X22625Y36736I197*
G02X22624Y36743I29J7*
X22633Y36764I30*
G01X24860Y38991*
G03X24886Y39053I63J62*
G01Y41199*
G02X24894Y41220I29*
G01X25070Y41395*
G02X25091Y41404I21J21*
X25098Y41403J30*
G03X25144Y41398I46J192*
X25341Y41595J197*
X25144Y41791I197*
X24947Y41595J196*
X24952Y41548I197*
G02X24953Y41542I28J6*
X24945Y41521I29*
G01X24734Y41310*
G03X24708Y41248I63J62*
G01Y39102*
G02X24700Y39081I29*
G01X22508Y36889*
G02X22487Y36881I21J21*
X22480Y36882J29*
G03X22434Y36887I46J192*
X22237Y36690J197*
G01Y38212*
X27828Y47879*
Y45767*
G03X28025Y45570I197*
X28193Y45664J197*
G02X28218Y45679I25J15*
G01X28281*
G03X28303Y45681J88*
G02X28311Y45682I8J28*
G01X28527*
G03X28590Y45708J89*
G01X30070Y47188*
Y4724*
G03X30909Y3885I839*
X31749Y4724J839*
X30909Y5564I840*
X30070Y4724J840*
G01Y47188*
X31500Y48618*
Y39550*
G03X31503Y39514I216*
G02Y39509I29J5*
G01Y38616*
G03X31514Y38550I217*
G02X31515Y38540I28J10*
G01Y29607*
G03X31579Y29454I217*
G01X32346Y28686*
G02X32355Y28665I21J21*
X32346Y28644I30*
G01X32077Y28375*
G03X32014Y28222I153J153*
G01Y19419*
G02Y19416I30*
G03X32013Y19399I215J17*
G01Y7939*
G03X32076Y7785I216*
G01X34931Y4930*
G02X34940Y4910I21J20*
G01Y710*
G03X35157Y494I217*
X35373Y710J216*
G01Y5011*
G03X35310Y5165I216*
G01X32455Y8020*
G02X32446Y8041I20J21*
G01Y19380*
G02Y19382I29*
G03X32447Y19399I216J17*
G01Y28120*
G02X32455Y28141I29*
G01X32754Y28440*
G02X32775Y28449I21J21*
G01X33365*
G02X33395Y28419J30*
G01Y27760*
G03X33473Y27681I78*
G01X33582*
G02X33611Y27652J29*
G01Y27594*
G02X33603Y27573I29*
G01X33569Y27540*
G03X33506Y27387I153J153*
G01Y27228*
G02X33476Y27198I30*
G01X33466*
G03X33388Y27119J79*
G01Y26411*
G03X33466Y26332I78*
G01X33978*
G03X34057Y26411J79*
G01Y27119*
G03X33978Y27198I79*
G01X33968*
G02X33939Y27228J30*
G01Y27285*
G02X33947Y27306I29*
G01X33981Y27339*
G03X34044Y27492I153J153*
G01Y27652*
G02X34074Y27681I30*
G01X34182*
G03X34261Y27760J79*
G01Y29571*
G03X34182Y29650I79*
G01X34074*
G02X34044Y29679J29*
G01Y29785*
G03X33993Y29926I216*
G02X33986Y29945I22J19*
G01Y29952*
G02X34010Y29981I29*
G03X34074Y30058I15J77*
G01Y31318*
G03X34026Y31391I79*
G02X34008Y31418I11J27*
X34009Y31427I29*
G03X34019Y31493I206J66*
G01Y32445*
G03X34013Y32496I216*
G02X34012Y32503I29J7*
X34020Y32522I30*
G03X34038Y32573I60J51*
G01Y32809*
G03X33960Y32888I78*
G01X33859*
G02X33848Y32890J30*
G03X33763Y32908I85J199*
X33678Y32890J217*
G02X33666Y32888I12J28*
G01X33566*
G03X33487Y32809J79*
G01Y32573*
G03X33530Y32503I79*
G02X33546Y32477I13J26*
G03X33581Y32366I217J7*
G02X33586Y32350I24J16*
G01Y31583*
G02X33582Y31568I29*
G03X33553Y31459I187J109*
G01Y31425*
G02X33528Y31395I30*
G03X33464Y31318I15J77*
G01Y30058*
G03X33528Y29981I79*
G02X33553Y29952I5J29*
G01Y29844*
G03X33604Y29704I216*
G02X33611Y29684I22J20*
G01Y29679*
G02X33582Y29650I29*
G01X33473*
G03X33395Y29571J79*
G01Y28911*
G02X33365Y28882I30*
G01X32775*
G02X32754Y28891J29*
G01X31957Y29688*
G02X31948Y29709I21J21*
G01Y38604*
G03X31938Y38671I216*
G02X31936Y38680I28J9*
G01Y39550*
G03X31933Y39585I216*
G02Y39590I29J5*
G01Y40039*
G02X31942Y40060I29*
G01X32421Y40539*
Y30058*
G03X32480Y29999I59*
G01X32932*
G03X32992Y30058J59*
G01Y31318*
G03X32932Y31377I60*
G01X32480*
G03X32421Y31318J59*
G01Y40539*
X32559Y40677*
G03X32623Y40830I153J153*
G01Y48159*
G03X32612Y48225I217*
G02X32611Y48235I28J10*
G01Y53593*
G02X32619Y53614I29*
G01X32760Y53754*
Y44193*
G03X32785Y44131I88*
G01X33074Y43842*
Y31664*
G03X33134Y31605I60*
G01X33370*
G03X33429Y31664J59*
G01Y32058*
G03X33370Y32117I59*
G01X33134*
G03X33074Y32058J59*
G01Y43842*
X33156Y43760*
G03X33218Y43734I62J63*
G01X33313*
G02X33343Y43705J29*
G01Y43528*
G03X33422Y43449I79*
G01X33487*
Y33124*
G03X33566Y33045I79*
G01X33960*
G03X34038Y33124J79*
G02X34068Y33154I30*
G01X34288*
G03X34351Y33180J88*
G01X34411Y33240*
Y32218*
G03X34431Y32166I79*
G01Y30210*
G03X34490Y30151I59*
G01X34569*
Y26411*
G03X34647Y26332I78*
G01X35159*
G03X35238Y26411J79*
G01Y26647*
G02X35268Y26677I30*
G01X37519*
G03X37582Y26702J88*
G01X37954Y27074*
G03X37979Y27137I63J63*
G01Y28824*
G03X37954Y28886I88*
G01X37815Y29025*
G02X37807Y29045I21J20*
G01Y29976*
G02X37836Y30005I29*
G01X37895*
G03X37974Y30084J79*
G01Y30714*
G03X37895Y30792I79*
G01X37885*
G02X37856Y30822J30*
G01Y30933*
G03X37815Y31030I138*
G01X37732Y31113*
G03X37635Y31154I97J97*
G01X36917*
G03X36819Y31113J138*
G01X36383Y30676*
G02X36362Y30668I21J21*
X36332Y30697J29*
G01Y30801*
G03X36254Y30879I78*
G01X35990*
G03X35911Y30801J78*
G01Y30210*
G03X35990Y30131I79*
G01X36254*
G03X36300Y30146J79*
G02X36317Y30152I17J24*
X36346Y30122J30*
G01Y29214*
G02X36317Y29185I29*
G01X35992*
G03X35913Y29106J79*
G01Y28785*
G02X35884Y28755I29*
X35863Y28764J30*
G01X35808Y28818*
G03X35655Y28882I153J153*
G01X35590*
G02X35560Y28911J29*
G01Y29571*
G03X35481Y29650I79*
G01X35373*
G02X35344Y29679J29*
G01Y29888*
G03X35339Y29933I217*
G02X35338Y29939I29J6*
G01Y30505*
G03X35333Y30553I216*
G02X35332Y30559I29J6*
G01Y30801*
G03X35254Y30879I78*
G01X34990*
G03X34911Y30801J78*
G01Y30559*
G02X34910Y30553I29*
G03X34905Y30505I212J48*
G01Y29893*
G03X34910Y29848I217*
G02Y29842I29J6*
G01Y29679*
G02X34881Y29650I29*
G01X34773*
G03X34694Y29571J79*
G01Y27760*
G03X34773Y27681I79*
G01X35481*
G03X35560Y27760J79*
G01Y28383*
G02X35590Y28412I30*
X35610Y28404J29*
G01X35750Y28264*
G03X35886Y28201I153J153*
G02X35913Y28172I2J29*
G01Y27728*
G03X35992Y27649I79*
G01X36976*
G03X37055Y27728J79*
G01Y29106*
G03X36976Y29185I79*
G01X36651*
G02X36622Y29214J29*
G01Y30080*
G02X36631Y30101I29*
G01X36782Y30252*
G02X36803Y30261I21J21*
X36832Y30231J30*
G01Y30084*
G03X36911Y30005I79*
G01X37265*
G03X37344Y30084J79*
G01Y30714*
G03X37265Y30792I79*
G01X36960*
G02X36930Y30822J30*
X36939Y30843I30*
G01X36965Y30869*
G02X36986Y30878I21J21*
G01X37551*
G02X37580Y30848J30*
G01Y30822*
G02X37551Y30792I29*
G01X37541*
G03X37462Y30714J78*
G01Y30084*
G03X37541Y30005I79*
G01X37600*
G02X37629Y29976J29*
G01Y28996*
G03X37655Y28934I89*
G01X37794Y28796*
G02X37802Y28775I21J21*
G01Y27186*
G02X37794Y27165I29*
G01X37491Y26862*
G02X37470Y26854I21J21*
G01X35268*
G02X35238Y26883J29*
G01Y27119*
G03X35159Y27198I79*
G01X34647*
G03X34569Y27119J79*
G01Y30151*
X34754*
G03X34813Y30210J59*
G01Y30801*
G03X34754Y30860I59*
G01X34490*
G03X34431Y30801J59*
G01Y32166*
G03X34490Y32139I59J52*
G01X34754*
G03X34832Y32218J79*
G01Y32809*
G03X34754Y32887I78*
G01X34490*
G03X34411Y32809J78*
G01Y33240*
X34488Y33317*
G02X34509Y33326I21J21*
G01X34639*
G02X34669Y33296J30*
G03X34748Y33217I79*
G01X34826*
G02X34856Y33188J29*
G01Y33141*
G03X34882Y33078I88*
G01X35022Y32938*
G02X35031Y32917I20J21*
X35002Y32887I29*
G01X34990*
G03X34911Y32809J78*
G01Y32218*
G03X34990Y32139I79*
G01X35254*
G03X35332Y32218J79*
G01Y32809*
G03X35254Y32887I78*
G01X35240*
G02X35210Y32917J30*
G01Y32964*
G03X35184Y33026I88*
G01X35044Y33167*
G02X35035Y33188I21J21*
X35065Y33217I30*
G01X35141*
G03X35220Y33296J79*
G01Y33532*
G03X35141Y33611I79*
G01X34748*
G03X34669Y33532J79*
G02X34639Y33503I30*
G01X34460*
G03X34397Y33477J89*
G01X34260Y33340*
G02X34239Y33331I21J20*
G01X34068*
G02X34038Y33360J29*
G03X33960Y33439I78*
G01X33566*
G03X33487Y33360J79*
G01Y43449*
X34442*
Y42770*
G03X34689Y42342I495*
G01Y33847*
G03X34748Y33788I59*
G01X35141*
G03X35200Y33847J59*
G01Y34084*
G03X35141Y34143I59*
G01X34748*
G03X34689Y34084J59*
G01Y42342*
G03X34937Y42274I248J428*
X35405Y42607J496*
G01Y30505*
G03X35410Y30458I217*
G02X35411Y30452I28J6*
G01Y30210*
G03X35490Y30131I79*
G01X35754*
G03X35832Y30210J79*
G01Y30452*
G02X35833Y30458I30*
G03X35838Y30505I211J47*
G01Y31231*
G02X35847Y31252I30*
G01X36104Y31509*
G02X36125Y31518I21J21*
G01X36628*
G02X36657Y31494J30*
G03X36734Y31429I77J14*
G01X37443*
G03X37520Y31494J79*
G02X37550Y31518I30J6*
G01X38047*
G02X38074Y31501J30*
G03X38144Y31457I70J35*
G01X38689*
Y27728*
G03X38748Y27669I59*
G01X39732*
G03X39791Y27728J59*
G01Y29106*
G03X39732Y29165I59*
G01X38748*
G03X38689Y29106J59*
G01Y31457*
X39463*
Y30414*
G03X39522Y30355I59*
G01X40704*
G03X40763Y30414J59*
G01Y31044*
G03X40704Y31103I59*
G01X39522*
G03X39463Y31044J59*
G01Y31457*
X40310*
G03X40389Y31536J79*
G01Y31930*
G03X40310Y32008I79*
G01X38144*
G03X38075Y31967J78*
G02X38049Y31951I26J14*
G01X37550*
G02X37520Y31975J30*
G03X37443Y32040I77J14*
G01X36734*
G03X36657Y31975J79*
G02X36628Y31951I29J6*
G01X36023*
G03X35870Y31888J217*
G01X35469Y31486*
G03X35405Y31333I153J153*
G01Y42607*
G03X35411Y42625I468J163*
G01Y32218*
G03X35490Y32139I79*
G01X35754*
G03X35832Y32218J79*
G01Y32809*
G03X35754Y32887I78*
G01X35740*
G02X35710Y32917J30*
G01Y32970*
G02X35719Y32991I30*
G01X35763Y33035*
G03X35789Y33098I62J63*
G01Y33193*
G02X35819Y33222I30*
G01X35898*
G03X35931Y33230J79*
G01Y32218*
G03X35990Y32159I59*
G01X36254*
G03X36313Y32218J59*
G01Y32809*
G03X36254Y32868I59*
G01X35990*
G03X35931Y32809J59*
G01Y33230*
G03X35976Y33301I33J71*
G01Y33537*
G03X35898Y33616I78*
G01X35504*
G03X35425Y33537J79*
G01Y33301*
G03X35504Y33222I79*
G01X35583*
G02X35612Y33193J29*
G01Y33147*
G02X35604Y33126I29*
G01X35559Y33081*
G03X35533Y33019I63J62*
G01Y32917*
G02X35504Y32887I29*
G01X35490*
G03X35411Y32809J78*
G01Y42625*
G03X35433Y42770I474J145*
X35406Y42930I496*
G02X35405Y42939I28J9*
X35434Y42969I29*
G01X35445*
Y33852*
G03X35504Y33793I59*
G01X35898*
G03X35957Y33852J59*
G01Y34089*
G03X35898Y34148I59*
G01X35504*
G03X35445Y34089J59*
G01Y42969*
X36453*
G03X36512Y43028J59*
G01Y43618*
G03X36453Y43677I59*
G01X35390*
G03X35331Y43618J59*
G01Y43148*
G02X35302Y43118I29*
X35281Y43126J30*
G03X34937Y43265I344J356*
X34442Y42770J495*
G01Y43449*
X34642*
G03X34721Y43528J79*
G01Y44118*
G03X34642Y44197I79*
G01X33422*
G03X33343Y44118J79*
G01Y43941*
G02X33313Y43911I30*
G01X33267*
G02X33246Y43920J30*
G01X32945Y44221*
G02X32937Y44242I21J21*
G01Y53418*
G02X32945Y53439I29*
G01X33024Y53518*
Y50023*
G03X33050Y49960I89*
G01X35600Y47410*
G02X35609Y47389I21J21*
G01Y45340*
G02X35600Y45319I30*
G01X35201Y44920*
G02X35181Y44911I20J21*
G01X34750*
G02X34721Y44941J30*
G01Y45118*
G03X34642Y45197I79*
G01X33422*
G03X33343Y45118J79*
G01Y44528*
G03X33422Y44449I79*
G01X34642*
G03X34721Y44528J79*
G01Y44705*
G02X34750Y44734I29*
G01X35173*
G02X35203Y44706J29*
G01X35204Y44687*
Y44685*
G02X35194Y44663I30*
G03X35174Y44618I39J45*
G01Y44028*
G03X35233Y43969I59*
G01X36453*
G03X36512Y44028J59*
G01Y44618*
G03X36453Y44677I59*
G01X35292*
G02X35262Y44705J30*
G01X35261Y44720*
Y44722*
G02X35275Y44747I30*
G03X35292Y44760I46J76*
G01X35760Y45228*
G03X35786Y45291I63J63*
G01Y47438*
G03X35760Y47501I89*
G01X33210Y50051*
G02X33201Y50072I21J21*
G01Y52416*
G02X33210Y52437I30*
G01X34363Y53590*
G03X34389Y53653I63J63*
G01Y54512*
G02X34396Y54531I29*
G01Y51583*
G03X35236Y50743I840*
X36076Y51583J840*
X35236Y52422I840*
X34396Y51583J839*
G01Y54531*
G02X34403Y54537I22J19*
G03X34497Y54705I103J168*
X34300Y54902I197*
X34103Y54705J197*
X34198Y54537I197*
G02X34212Y54512I16J25*
G01Y53702*
G02X34203Y53681I30*
G01X33050Y52528*
G03X33024Y52465I63J63*
G01Y53518*
X33811Y54305*
G03X33837Y54367I62J62*
G01Y56119*
G02X33851Y56144I30*
G03X33946Y56312I102J168*
X33749Y56509I197*
X33552Y56312J197*
X33646Y56144I197*
G02X33660Y56119I15J25*
G01Y54416*
G02X33651Y54395I29*
G01X32785Y53529*
G03X32760Y53467I63J62*
G01Y53754*
X33102Y54097*
G03X33166Y54250I153J153*
X32949Y54467I217*
X32796Y54403J217*
G01X32241Y53848*
G03X32178Y53695I153J153*
G01Y48171*
G03X32188Y48104I216*
G02X32190Y48095I28J9*
G01Y40932*
G02X32181Y40911I30*
G01X31563Y40294*
G03X31500Y40141I153J153*
G01Y48618*
X31937Y49055*
G03X31963Y49118I63J63*
G01Y52272*
G03X31937Y52335I89*
G01X31669Y52603*
G02X31660Y52624I21J21*
X31661Y52631I30*
G03X31667Y52677I191J46*
X31470Y52874I197*
X31273Y52677J197*
X31470Y52480I197*
X31516Y52486J197*
G02X31523I7J29*
X31544Y52478J29*
G01X31777Y52244*
G02X31786Y52223I21J21*
G01Y49167*
G02X31777Y49146I30*
G01X28499Y45868*
G02X28479Y45860I20J21*
G01X28285*
G03X28263Y45857J89*
G02X28255Y45856I8J28*
G01X28218*
G02X28193Y45870J29*
G03X28025Y45964I168J103*
X27828Y45767J197*
G01Y47879*
X27845Y47908*
Y46498*
G03X28042Y46302I197*
X28210Y46396J196*
G02X28235Y46410I25J16*
G01X28673*
G03X28736Y46436J88*
G01X30788Y48488*
G03X30814Y48551I62J63*
G01Y51210*
G02X30828Y51236I30*
G03X30923Y51404I102J168*
X30726Y51600I197*
X30529Y51404J196*
X30623Y51236I197*
G02X30637Y51210I15J26*
G01Y48600*
G02X30628Y48579I29*
G01X28645Y46596*
G02X28624Y46587I21J21*
G01X28235*
G02X28210Y46601J30*
G03X28042Y46695I168J103*
X27845Y46498J197*
G01Y47908*
X35211Y60644*
G02X35236Y60659I25J15*
X35262Y60644J30*
G01X36675Y58200*
Y32571*
G03X36734Y32512I59*
G01X37443*
G03X37502Y32571J59*
G01Y33024*
G03X37443Y33083I59*
G01X36734*
G03X36675Y33024J59*
G01Y58200*
X37205Y57284*
Y43286*
G03X37264Y43227I59*
G01X38085*
Y32323*
G03X38144Y32264I59*
G01X40310*
G03X40369Y32323J59*
G01Y32717*
G03X40310Y32776I59*
G01X38144*
G03X38085Y32717J59*
G01Y43227*
X38344*
G03X38403Y43286J59*
G01Y45219*
G03X38344Y45278I59*
G01X37264*
G03X37205Y45219J59*
G01Y57284*
X39463Y53379*
Y33209*
G03X39522Y33150I59*
G01X40704*
G03X40763Y33209J59*
G01Y33839*
G03X40704Y33898I59*
G01X39522*
G03X39463Y33839J59*
G01Y53379*
X39680Y53005*
Y43963*
G03X39956Y43687I276*
X40231Y43963J276*
X39956Y44238I275*
X39680Y43963J275*
G01Y53005*
X50085Y35014*
Y24406*
G03X50925Y23566I840*
X51765Y24406J840*
X50925Y25245I840*
X50085Y24406J839*
G01Y35014*
X54864Y26751*
Y4872*
G03X55140Y4596I276*
X55415Y4872J276*
X55140Y5147I275*
X54864Y4872J275*
G01Y26751*
X61452Y15361*
Y4724*
G03X62291Y3885I839*
X63131Y4724J839*
X62291Y5564I840*
X61452Y4724J840*
G01Y15361*
X70242Y162*
G02X70246Y148I25J14*
X70217Y118I29*
G01X256*
G02X226Y148J30*
X230Y162I30*
G01X21713Y9119D02*
X22776D01*
Y9710*
X21713*
Y9119*
X35390Y43028D02*
X36453D01*
Y43618*
X35390*
Y43028*
G37*
G54D10*
X0Y0D02*
X70472D01*
X35236Y61031*
X0Y0*
G54D11*
X21128Y5068D03*
X39956Y43963D03*
X55140Y4872D03*
G54D12*
X2438Y2362D02*
X11477D01*
X19029Y9914*
X20355*
X3156Y3659D02*
X3861Y2955D01*
X10437*
X18397Y10914*
X20355*
X5370Y6538D02*
X6013D01*
X8819Y9344*
Y13420*
X8203Y12172D02*
X7711Y11680D01*
Y9560*
X5417Y7266*
X11015Y16348D02*
X11356D01*
X14481Y19473*
Y23197*
X13953Y21979D02*
X13320Y21346D01*
Y19360*
X11035Y17074*
X16663Y26884D02*
X19026Y29247D01*
Y31210*
X19603Y31786*
X16748Y26154D02*
X20143Y29549D01*
Y32759*
X20144Y32760*
Y33019*
X21585Y10414D02*
X21467D01*
X21742Y9414D02*
X21624D01*
X22166Y10149D02*
Y10031D01*
Y10680D02*
Y10798D01*
X22244Y9149D02*
Y9031D01*
Y9680D02*
Y9798D01*
X22434Y36690D02*
X24797Y39053D01*
Y41248*
X25144Y41595*
X22452Y35965D02*
X23236D01*
X25807Y38536*
Y42834*
X22746Y9414D02*
X22864D01*
X22746Y10414D02*
X22864D01*
X24031Y13993D02*
Y14009D01*
X24033Y14023*
X24035Y14038*
X24039Y14051*
X24044Y14063*
X24050Y14074*
X24057Y14085*
X24064Y14094*
X24073Y14103*
X24083Y14111*
X24092Y14117*
X24102Y14123*
X24112Y14127*
X24123Y14130*
X24135Y14131*
X24146Y14132*
X24159Y14131*
X24171Y14130*
X24182Y14126*
X24193Y14122*
X24204Y14116*
X24214Y14109*
X24223Y14101*
X24233Y14092*
X24241Y14081*
X24249Y14070*
X24255Y14058*
X24260Y14045*
X24264Y14032*
X24267Y14018*
X24269Y14003*
Y13987*
Y13973*
X24267Y13960*
X24264Y13947*
X24260Y13935*
X24256Y13924*
X24250Y13913*
X24243Y13903*
X24234Y13894*
X24225Y13885*
X24216Y13878*
X24206Y13872*
X24196Y13866*
X24185Y13862*
X24173Y13860*
X24161Y13858*
X24149Y13857*
X24136Y13858*
X24124Y13860*
X24113Y13862*
X24101Y13866*
X24091Y13872*
X24081Y13878*
X24073Y13885*
X24064Y13894*
X24056Y13903*
X24050Y13913*
X24044Y13924*
X24039Y13937*
X24035Y13950*
X24033Y13963*
X24031Y13978*
Y13993*
X24307Y10332D02*
X23703D01*
Y10250*
X24177Y9933*
X23703*
Y9856*
X24307*
Y9938*
X23833Y10256*
X24307*
Y10332*
Y10553D02*
X23703D01*
Y10473*
X24307*
Y10553*
X24334Y13727D02*
X24263Y13733D01*
X24260Y13721*
X24257Y13710*
X24254Y13700*
X24250Y13690*
X24245Y13681*
X24240Y13673*
X24234Y13667*
X24228Y13660*
X24221Y13655*
X24214Y13651*
X24207Y13647*
X24199Y13644*
X24191Y13641*
X24182Y13639*
X24172Y13638*
X24163*
X24146Y13639*
X24130Y13642*
X24116Y13647*
X24103Y13653*
X24090Y13662*
X24079Y13671*
X24069Y13683*
X24061Y13695*
X24052Y13709*
X24045Y13726*
X24039Y13745*
X24033Y13766*
X24028Y13788*
X24025Y13811*
X24022Y13834*
Y13856*
Y13859*
Y13863*
Y13867*
Y13872*
X24035Y13855*
X24049Y13839*
X24065Y13826*
X24083Y13814*
X24093Y13808*
X24103Y13804*
X24113Y13800*
X24123Y13797*
X24134Y13795*
X24145Y13793*
X24155*
X24166Y13792*
X24185Y13793*
X24202Y13795*
X24220Y13800*
X24236Y13806*
X24251Y13813*
X24266Y13823*
X24280Y13833*
X24293Y13846*
X24306Y13860*
X24316Y13876*
X24325Y13892*
X24332Y13909*
X24338Y13928*
X24342Y13947*
X24345Y13968*
Y13990*
Y14012*
X24342Y14033*
X24338Y14054*
X24332Y14072*
X24324Y14090*
X24315Y14107*
X24304Y14123*
X24291Y14137*
X24277Y14150*
X24262Y14162*
X24247Y14172*
X24230Y14179*
X24213Y14186*
X24194Y14190*
X24175Y14192*
X24155Y14194*
X24140Y14193*
X24126Y14192*
X24113Y14189*
X24099Y14185*
X24086Y14181*
X24073Y14176*
X24060Y14169*
X24048Y14162*
X24036Y14153*
X24025Y14144*
X24014Y14134*
X24005Y14123*
X23996Y14111*
X23988Y14099*
X23980Y14085*
X23973Y14071*
X23967Y14056*
X23962Y14039*
X23958Y14020*
X23954Y13999*
X23951Y13977*
X23950Y13954*
X23949Y13928*
X23948Y13901*
X23949Y13873*
X23950Y13846*
X23951Y13821*
X23954Y13797*
X23958Y13775*
X23962Y13754*
X23967Y13735*
X23973Y13717*
X23980Y13700*
X23988Y13685*
X23995Y13670*
X24005Y13657*
X24014Y13644*
X24025Y13632*
X24036Y13622*
X24048Y13613*
X24061Y13604*
X24074Y13597*
X24087Y13591*
X24102Y13586*
X24117Y13582*
X24132Y13579*
X24148Y13578*
X24164Y13577*
X24182Y13578*
X24198Y13579*
X24214Y13582*
X24229Y13587*
X24243Y13592*
X24256Y13599*
X24269Y13607*
X24280Y13617*
X24291Y13627*
X24300Y13638*
X24309Y13650*
X24316Y13664*
X24322Y13678*
X24328Y13693*
X24331Y13710*
X24334Y13727*
X24535Y13587D02*
X24609D01*
Y14059*
X24624Y14047*
X24640Y14034*
X24659Y14021*
X24680Y14009*
X24701Y13996*
X24721Y13986*
X24740Y13977*
X24758Y13970*
Y14042*
X24727Y14057*
X24699Y14074*
X24673Y14093*
X24649Y14113*
X24638Y14123*
X24627Y14133*
X24618Y14143*
X24609Y14154*
X24601Y14164*
X24595Y14174*
X24588Y14183*
X24583Y14194*
X24535*
Y13587*
X25208Y13885D02*
Y13867D01*
Y13849*
X25207Y13833*
X25206Y13817*
X25205Y13801*
X25203Y13787*
X25202Y13774*
X25199Y13761*
X25197Y13749*
X25195Y13738*
X25192Y13727*
X25189Y13718*
X25185Y13709*
X25182Y13700*
X25177Y13693*
X25173Y13687*
X25164Y13676*
X25155Y13666*
X25145Y13657*
X25134Y13650*
X25123Y13645*
X25112Y13641*
X25100Y13638*
X25087*
X25075*
X25062Y13641*
X25051Y13645*
X25040Y13650*
X25029Y13657*
X25020Y13666*
X25010Y13676*
X25001Y13687*
X24997Y13693*
X24993Y13701*
X24989Y13709*
X24986Y13718*
X24983Y13728*
X24980Y13738*
X24977Y13749*
X24975Y13761*
X24973Y13774*
X24971Y13787*
X24970Y13802*
X24968Y13817*
X24967Y13833*
Y13849*
X24966Y13867*
Y13885*
Y13903*
X24967Y13921*
Y13937*
X24968Y13953*
X24970Y13969*
X24971Y13983*
X24973Y13996*
X24975Y14009*
X24977Y14021*
X24980Y14032*
X24983Y14042*
X24986Y14052*
X24989Y14061*
X24993Y14069*
X24997Y14077*
X25001Y14083*
X25010Y14094*
X25019Y14104*
X25029Y14113*
X25040Y14120*
X25051Y14125*
X25063Y14129*
X25075Y14131*
X25088Y14132*
X25101Y14131*
X25113Y14129*
X25124Y14126*
X25134Y14121*
X25144Y14115*
X25153Y14108*
X25162Y14099*
X25170Y14089*
X25175Y14081*
X25179Y14074*
X25183Y14065*
X25187Y14055*
X25190Y14045*
X25193Y14034*
X25196Y14023*
X25199Y14010*
X25201Y13997*
X25203Y13983*
X25205Y13969*
X25206Y13953*
X25207Y13937*
X25208Y13921*
Y13903*
Y13885*
X25284D02*
Y13911D01*
X25283Y13936*
X25281Y13960*
X25279Y13981*
X25275Y14003*
X25272Y14022*
X25267Y14041*
X25263Y14058*
X25257Y14074*
X25250Y14088*
X25243Y14103*
X25235Y14116*
X25226Y14127*
X25217Y14139*
X25207Y14149*
X25197Y14158*
X25186Y14166*
X25173Y14173*
X25161Y14180*
X25147Y14185*
X25134Y14189*
X25119Y14191*
X25103Y14193*
X25087Y14194*
X25075Y14193*
X25063Y14192*
X25052Y14191*
X25042Y14189*
X25031Y14186*
X25021Y14182*
X25011Y14179*
X25001Y14174*
X24984Y14163*
X24968Y14150*
X24954Y14135*
X24941Y14117*
X24929Y14098*
X24919Y14077*
X24911Y14053*
X24903Y14028*
X24900Y14014*
X24898Y13999*
X24895Y13983*
X24893Y13966*
X24892Y13947*
X24891Y13928*
X24890Y13907*
Y13885*
Y13859*
X24891Y13834*
X24893Y13811*
X24895Y13789*
X24899Y13768*
X24902Y13749*
X24906Y13731*
X24912Y13713*
X24918Y13697*
X24924Y13683*
X24931Y13669*
X24939Y13656*
X24948Y13643*
X24957Y13632*
X24967Y13622*
X24977Y13612*
X24988Y13604*
X25000Y13597*
X25013Y13591*
X25026Y13586*
X25040Y13582*
X25055Y13579*
X25071Y13578*
X25087Y13577*
X25108Y13578*
X25128Y13581*
X25147Y13586*
X25165Y13592*
X25182Y13601*
X25198Y13612*
X25212Y13625*
X25225Y13639*
X25232Y13649*
X25238Y13660*
X25245Y13671*
X25251Y13683*
X25256Y13696*
X25261Y13709*
X25265Y13723*
X25270Y13739*
X25273Y13754*
X25276Y13771*
X25278Y13788*
X25281Y13806*
X25282Y13824*
X25283Y13844*
X25284Y13864*
Y13885*
X25363Y13658D02*
Y13587D01*
X25763*
Y13600*
X25762Y13613*
X25759Y13626*
X25754Y13638*
X25746Y13659*
X25735Y13679*
X25721Y13699*
X25706Y13719*
X25697Y13729*
X25687Y13739*
X25676Y13750*
X25665Y13761*
X25652Y13773*
X25639Y13785*
X25624Y13797*
X25609Y13810*
X25585Y13830*
X25564Y13849*
X25544Y13866*
X25526Y13883*
X25511Y13898*
X25497Y13913*
X25485Y13926*
X25475Y13938*
X25467Y13950*
X25460Y13961*
X25454Y13973*
X25449Y13984*
X25445Y13995*
X25443Y14006*
X25441Y14017*
X25440Y14028*
X25441Y14038*
X25442Y14049*
X25445Y14059*
X25448Y14068*
X25453Y14077*
X25458Y14086*
X25464Y14094*
X25472Y14102*
X25480Y14109*
X25489Y14115*
X25498Y14120*
X25508Y14124*
X25519Y14128*
X25530Y14130*
X25542Y14131*
X25554Y14132*
X25567Y14131*
X25580Y14130*
X25591Y14127*
X25603Y14124*
X25613Y14120*
X25623Y14114*
X25632Y14107*
X25640Y14100*
X25648Y14091*
X25655Y14082*
X25660Y14072*
X25665Y14062*
X25668Y14050*
X25671Y14038*
X25672Y14025*
X25673Y14011*
X25749Y14019*
X25747Y14039*
X25743Y14059*
X25737Y14077*
X25730Y14094*
X25723Y14110*
X25713Y14124*
X25702Y14137*
X25690Y14149*
X25677Y14159*
X25662Y14168*
X25647Y14176*
X25630Y14182*
X25613Y14187*
X25594Y14191*
X25574Y14193*
X25552Y14194*
X25531Y14193*
X25511Y14191*
X25492Y14186*
X25475Y14181*
X25458Y14175*
X25443Y14166*
X25428Y14156*
X25415Y14145*
X25403Y14133*
X25392Y14120*
X25384Y14106*
X25377Y14091*
X25371Y14076*
X25367Y14060*
X25365Y14044*
X25364Y14026*
X25365Y14007*
X25368Y13990*
X25372Y13972*
X25379Y13954*
X25383Y13945*
X25388Y13937*
X25393Y13928*
X25399Y13918*
X25405Y13909*
X25413Y13900*
X25420Y13891*
X25428Y13881*
X25438Y13870*
X25449Y13860*
X25461Y13847*
X25475Y13835*
X25489Y13821*
X25506Y13807*
X25524Y13791*
X25543Y13775*
X25559Y13761*
X25573Y13749*
X25586Y13738*
X25598Y13728*
X25608Y13719*
X25616Y13711*
X25623Y13704*
X25629Y13699*
X25638Y13689*
X25646Y13679*
X25653Y13669*
X25660Y13658*
X25363*
X25844Y15108D02*
X25715D01*
X25700*
X25687*
X25674Y15109*
X25662Y15111*
X25650Y15112*
X25640Y15114*
X25630Y15116*
X25621Y15119*
X25605Y15125*
X25591Y15132*
X25578Y15141*
X25567Y15150*
X25560Y15157*
X25553Y15166*
X25548Y15174*
X25542Y15183*
X25536Y15193*
X25532Y15204*
X25527Y15215*
X25523Y15226*
X25519Y15239*
X25516Y15252*
X25513Y15265*
X25511Y15280*
X25509Y15294*
X25508Y15310*
X25507Y15326*
Y15343*
Y15366*
X25509Y15388*
X25511Y15408*
X25514Y15427*
X25519Y15444*
X25525Y15460*
X25530Y15475*
X25538Y15489*
X25546Y15500*
X25555Y15512*
X25563Y15522*
X25572Y15531*
X25582Y15539*
X25592Y15546*
X25602Y15552*
X25614Y15556*
X25622Y15559*
X25632Y15562*
X25643Y15564*
X25656Y15566*
X25669Y15567*
X25684Y15568*
X25700Y15569*
X25717*
X25844*
Y15108*
X25924Y15036D02*
Y15640D01*
X25716*
X25699*
X25682*
X25667Y15639*
X25653Y15638*
X25640Y15637*
X25628Y15636*
X25618Y15634*
X25608Y15631*
X25595Y15629*
X25583Y15624*
X25571Y15620*
X25560Y15615*
X25549Y15609*
X25539Y15603*
X25529Y15596*
X25519Y15588*
X25508Y15578*
X25497Y15567*
X25487Y15555*
X25478Y15542*
X25469Y15529*
X25461Y15515*
X25454Y15500*
X25448Y15485*
X25442Y15469*
X25438Y15453*
X25434Y15435*
X25430Y15418*
X25428Y15399*
X25426Y15381*
X25425Y15362*
X25424Y15342*
X25425Y15308*
X25428Y15277*
X25433Y15247*
X25440Y15219*
X25449Y15194*
X25458Y15171*
X25470Y15150*
X25481Y15131*
X25494Y15115*
X25508Y15101*
X25522Y15088*
X25536Y15077*
X25552Y15068*
X25569Y15059*
X25588Y15052*
X25608Y15046*
X25631Y15042*
X25654Y15039*
X25679Y15037*
X25706Y15036*
X25924*
X26485D02*
Y15640D01*
X26048*
Y15569*
X26405*
Y15385*
X26071*
Y15313*
X26405*
Y15108*
X26034*
Y15036*
X26485*
X26519Y13587D02*
Y14191D01*
X26083*
Y14120*
X26439*
Y13935*
X26105*
Y13864*
X26439*
Y13658*
X26069*
Y13587*
X26519*
X26959Y15036D02*
Y15640D01*
X26879*
Y15108*
X26582*
Y15036*
X26959*
X27110Y13781D02*
X27035Y13788D01*
X27031Y13766*
X27026Y13746*
X27019Y13729*
X27010Y13713*
X27005Y13706*
X26999Y13699*
X26992Y13693*
X26985Y13687*
X26977Y13681*
X26969Y13676*
X26959Y13671*
X26949Y13666*
X26928Y13658*
X26905Y13653*
X26882Y13650*
X26856Y13648*
X26835Y13649*
X26814Y13652*
X26794Y13656*
X26776Y13662*
X26760Y13670*
X26745Y13678*
X26734Y13688*
X26724Y13699*
X26716Y13712*
X26711Y13724*
X26708Y13738*
X26707Y13751*
X26708Y13765*
X26711Y13778*
X26716Y13790*
X26724Y13801*
X26728Y13806*
X26734Y13811*
X26739Y13816*
X26746Y13820*
X26753Y13824*
X26761Y13829*
X26769Y13833*
X26778Y13836*
X26786Y13839*
X26794Y13842*
X26805Y13845*
X26817Y13849*
X26832Y13852*
X26848Y13856*
X26866Y13861*
X26886Y13866*
X26906Y13871*
X26924Y13876*
X26941Y13881*
X26957Y13885*
X26970Y13890*
X26983Y13895*
X26993Y13899*
X27002Y13904*
X27013Y13909*
X27022Y13916*
X27032Y13922*
X27040Y13929*
X27048Y13936*
X27055Y13944*
X27061Y13952*
X27067Y13960*
X27072Y13969*
X27076Y13977*
X27080Y13986*
X27083Y13996*
X27085Y14005*
X27087Y14015*
Y14025*
X27088Y14035*
X27087Y14046*
X27086Y14058*
X27084Y14069*
X27081Y14080*
X27078Y14090*
X27073Y14100*
X27068Y14111*
X27062Y14121*
X27055Y14130*
X27048Y14139*
X27039Y14148*
X27030Y14156*
X27020Y14163*
X27010Y14170*
X26998Y14176*
X26986Y14181*
X26973Y14186*
X26960Y14190*
X26947Y14194*
X26934Y14196*
X26920Y14199*
X26905Y14201*
X26891*
X26875Y14202*
X26859Y14201*
X26843*
X26827Y14199*
X26812Y14196*
X26798Y14194*
X26784Y14189*
X26770Y14185*
X26757Y14180*
X26745Y14174*
X26733Y14168*
X26722Y14161*
X26712Y14153*
X26702Y14145*
X26693Y14136*
X26686Y14127*
X26678Y14116*
X26672Y14106*
X26666Y14094*
X26661Y14083*
X26657Y14071*
X26654Y14059*
X26651Y14047*
X26650Y14034*
X26649Y14021*
X26725Y14015*
X26727Y14029*
X26730Y14042*
X26734Y14054*
X26739Y14065*
X26745Y14076*
X26751Y14085*
X26759Y14094*
X26767Y14102*
X26777Y14109*
X26787Y14115*
X26799Y14120*
X26812Y14124*
X26825Y14127*
X26840Y14130*
X26855Y14131*
X26872*
X26890*
X26906Y14130*
X26921Y14128*
X26935Y14125*
X26947Y14121*
X26959Y14117*
X26969Y14111*
X26978Y14105*
X26986Y14098*
X26993Y14091*
X26998Y14083*
X27003Y14075*
X27006Y14067*
X27009Y14059*
X27011Y14050*
Y14041*
Y14033*
X27010Y14025*
X27008Y14018*
X27005Y14011*
X27002Y14005*
X26998Y13998*
X26993Y13993*
X26988Y13987*
X26981Y13982*
X26972Y13977*
X26960Y13971*
X26946Y13966*
X26930Y13960*
X26911Y13955*
X26891Y13950*
X26867Y13944*
X26844Y13938*
X26822Y13933*
X26803Y13928*
X26785Y13923*
X26770Y13918*
X26755Y13914*
X26744Y13909*
X26734Y13905*
X26721Y13899*
X26709Y13892*
X26698Y13885*
X26688Y13878*
X26678Y13870*
X26670Y13862*
X26662Y13853*
X26656Y13844*
X26650Y13834*
X26644Y13824*
X26640Y13814*
X26637Y13804*
X26634Y13793*
X26632Y13781*
X26631Y13770*
X26630Y13758*
X26631Y13746*
X26632Y13734*
X26634Y13722*
X26637Y13711*
X26641Y13700*
X26646Y13689*
X26651Y13678*
X26658Y13667*
X26665Y13657*
X26673Y13647*
X26682Y13638*
X26692Y13629*
X26702Y13621*
X26713Y13614*
X26725Y13607*
X26737Y13601*
X26750Y13595*
X26764Y13590*
X26778Y13586*
X26792Y13583*
X26807Y13581*
X26822Y13578*
X26838*
X26853Y13577*
X26874Y13578*
X26892*
X26911Y13581*
X26928Y13583*
X26945Y13586*
X26961Y13591*
X26976Y13595*
X26990Y13601*
X27004Y13607*
X27016Y13614*
X27029Y13622*
X27040Y13631*
X27050Y13640*
X27060Y13650*
X27069Y13661*
X27077Y13673*
X27085Y13685*
X27091Y13697*
X27097Y13710*
X27101Y13724*
X27105Y13738*
X27108Y13752*
X27110Y13767*
Y13781*
X27149Y15036D02*
Y15100D01*
X27162Y15083*
X27176Y15068*
X27192Y15055*
X27209Y15044*
X27226Y15037*
X27246Y15031*
X27266Y15027*
X27287Y15026*
X27306Y15027*
X27325Y15030*
X27342Y15034*
X27359Y15041*
X27375Y15049*
X27389Y15057*
X27400Y15068*
X27410Y15078*
X27417Y15090*
X27423Y15103*
X27428Y15118*
X27432Y15133*
X27433Y15139*
X27434Y15146*
X27435Y15153*
X27436Y15161*
Y15171*
X27437Y15180*
Y15191*
Y15203*
Y15474*
X27362*
Y15231*
Y15217*
Y15204*
Y15193*
X27361Y15182*
Y15173*
X27360Y15165*
X27359Y15158*
X27358Y15153*
X27353Y15139*
X27347Y15127*
X27339Y15116*
X27328Y15106*
X27316Y15099*
X27303Y15094*
X27288Y15091*
X27272Y15090*
X27256Y15091*
X27240Y15094*
X27225Y15099*
X27210Y15107*
X27196Y15117*
X27185Y15127*
X27176Y15140*
X27169Y15154*
X27166Y15161*
X27163Y15170*
X27161Y15180*
X27159Y15190*
X27158Y15201*
X27157Y15213*
X27156Y15226*
Y15239*
Y15474*
X27082*
Y15036*
X27149*
X27682Y13880D02*
X27681Y13853D01*
X27678Y13829*
X27674Y13805*
X27667Y13782*
X27659Y13762*
X27649Y13742*
X27637Y13725*
X27624Y13708*
X27608Y13693*
X27592Y13681*
X27575Y13670*
X27557Y13661*
X27538Y13654*
X27518Y13650*
X27498Y13647*
X27476Y13645*
X27454Y13647*
X27433Y13650*
X27413Y13654*
X27394Y13661*
X27375Y13670*
X27359Y13681*
X27342Y13694*
X27328Y13709*
X27314Y13725*
X27302Y13744*
X27292Y13764*
X27284Y13785*
X27277Y13808*
X27273Y13834*
X27270Y13860*
X27269Y13889*
X27270Y13906*
X27271Y13924*
X27273Y13941*
X27276Y13957*
X27279Y13973*
X27283Y13989*
X27288Y14003*
X27294Y14017*
X27300Y14031*
X27308Y14043*
X27316Y14055*
X27325Y14066*
X27334Y14076*
X27345Y14085*
X27355Y14094*
X27367Y14103*
X27379Y14110*
X27392Y14116*
X27404Y14121*
X27418Y14125*
X27432Y14129*
X27446Y14131*
X27460Y14132*
X27475Y14133*
X27495Y14131*
X27515Y14129*
X27535Y14124*
X27554Y14118*
X27572Y14110*
X27589Y14100*
X27605Y14088*
X27621Y14074*
X27628Y14067*
X27635Y14059*
X27642Y14050*
X27648Y14041*
X27653Y14031*
X27658Y14020*
X27663Y14009*
X27667Y13997*
X27670Y13984*
X27674Y13971*
X27676Y13957*
X27678Y13943*
X27680Y13928*
X27681Y13913*
X27682Y13896*
Y13880*
X27765Y13881D02*
Y13900D01*
X27763Y13918*
X27762Y13935*
X27760Y13953*
X27757Y13969*
X27753Y13985*
X27749Y14000*
X27745Y14015*
X27739Y14030*
X27733Y14044*
X27726Y14057*
X27719Y14070*
X27712Y14082*
X27703Y14094*
X27694Y14106*
X27684Y14117*
X27674Y14127*
X27663Y14137*
X27652Y14146*
X27641Y14154*
X27629Y14162*
X27616Y14169*
X27604Y14175*
X27591Y14181*
X27578Y14185*
X27564Y14190*
X27550Y14194*
X27536Y14196*
X27521Y14199*
X27507Y14201*
X27491*
X27475Y14202*
X27455Y14201*
X27435Y14199*
X27414Y14196*
X27396Y14192*
X27377Y14186*
X27359Y14179*
X27341Y14171*
X27324Y14162*
X27308Y14152*
X27293Y14140*
X27279Y14127*
X27265Y14114*
X27253Y14100*
X27241Y14084*
X27231Y14068*
X27222Y14051*
X27214Y14032*
X27207Y14013*
X27200Y13994*
X27195Y13974*
X27191Y13954*
X27189Y13932*
X27187Y13911*
Y13888*
Y13866*
X27189Y13843*
X27192Y13822*
X27196Y13801*
X27201Y13781*
X27207Y13761*
X27215Y13742*
X27224Y13724*
X27233Y13706*
X27244Y13690*
X27256Y13674*
X27269Y13660*
X27282Y13647*
X27297Y13635*
X27312Y13624*
X27329Y13614*
X27346Y13605*
X27364Y13598*
X27381Y13592*
X27400Y13586*
X27418Y13582*
X27437Y13579*
X27456Y13578*
X27476Y13577*
X27497Y13578*
X27517Y13579*
X27537Y13583*
X27556Y13587*
X27575Y13593*
X27593Y13600*
X27611Y13608*
X27628Y13618*
X27645Y13629*
X27660Y13641*
X27674Y13653*
X27687Y13667*
X27700Y13681*
X27711Y13697*
X27721Y13713*
X27730Y13731*
X27738Y13748*
X27745Y13767*
X27751Y13785*
X27756Y13804*
X27760Y13823*
X27762Y13842*
X27764Y13862*
X27765Y13881*
X27856Y15255D02*
X27855Y15235D01*
X27854Y15215*
X27851Y15197*
X27847Y15181*
X27842Y15166*
X27835Y15153*
X27828Y15140*
X27819Y15129*
X27810Y15119*
X27800Y15111*
X27789Y15104*
X27778Y15098*
X27766Y15093*
X27753Y15089*
X27740Y15088*
X27727Y15087*
X27713Y15088*
X27700Y15089*
X27688Y15093*
X27676Y15098*
X27665Y15104*
X27654Y15111*
X27644Y15119*
X27635Y15129*
X27626Y15140*
X27619Y15153*
X27612Y15167*
X27607Y15182*
X27603Y15199*
X27600Y15217*
X27599Y15236*
X27598Y15257*
X27599Y15277*
X27600Y15295*
X27603Y15313*
X27607Y15329*
X27613Y15343*
X27619Y15357*
X27626Y15369*
X27635Y15381*
X27645Y15391*
X27655Y15399*
X27665Y15406*
X27676Y15412*
X27688Y15417*
X27701Y15419*
X27713Y15422*
X27727*
X27740*
X27753Y15420*
X27766Y15417*
X27778Y15412*
X27789Y15406*
X27800Y15399*
X27810Y15391*
X27819Y15381*
X27828Y15370*
X27835Y15357*
X27842Y15343*
X27847Y15329*
X27851Y15312*
X27854Y15294*
X27855Y15275*
X27856Y15255*
X27932D02*
X27931Y15284D01*
X27928Y15312*
X27923Y15337*
X27915Y15361*
X27906Y15382*
X27894Y15402*
X27880Y15419*
X27864Y15435*
X27850Y15447*
X27835Y15457*
X27819Y15465*
X27802Y15471*
X27785Y15477*
X27766Y15481*
X27747Y15483*
X27727Y15484*
X27705Y15483*
X27684Y15480*
X27663Y15476*
X27645Y15469*
X27627Y15461*
X27610Y15451*
X27594Y15438*
X27579Y15425*
X27565Y15409*
X27554Y15392*
X27544Y15374*
X27536Y15354*
X27530Y15333*
X27525Y15310*
X27523Y15287*
X27522Y15261*
Y15241*
X27524Y15221*
X27525Y15203*
X27528Y15186*
X27532Y15170*
X27536Y15155*
X27541Y15141*
X27547Y15128*
X27554Y15117*
X27561Y15105*
X27570Y15095*
X27578Y15085*
X27588Y15076*
X27598Y15068*
X27609Y15060*
X27621Y15053*
X27633Y15047*
X27646Y15041*
X27659Y15037*
X27672Y15033*
X27685Y15030*
X27699Y15028*
X27713Y15027*
X27727Y15026*
X27749Y15027*
X27770Y15030*
X27791Y15034*
X27810Y15041*
X27828Y15049*
X27845Y15059*
X27861Y15071*
X27875Y15085*
X27889Y15101*
X27900Y15118*
X27910Y15137*
X27918Y15157*
X27925Y15179*
X27929Y15203*
X27932Y15228*
Y15255*
X28042Y46498D02*
X28673D01*
X30726Y48551*
Y51404*
X28269Y13924D02*
X28097D01*
X28084*
X28071Y13925*
X28059Y13926*
X28048Y13927*
X28038Y13928*
X28028Y13931*
X28019Y13933*
X28012Y13935*
X27997Y13942*
X27984Y13950*
X27973Y13960*
X27964Y13972*
X27957Y13984*
X27952Y13998*
X27950Y14012*
X27948Y14026*
X27949Y14036*
X27950Y14046*
X27952Y14056*
X27956Y14065*
X27961Y14074*
X27966Y14082*
X27972Y14090*
X27980Y14097*
X27988Y14103*
X27997Y14109*
X28008Y14114*
X28020Y14117*
X28032Y14120*
X28046Y14123*
X28062Y14124*
X28078*
X28269*
Y13924*
X28305Y15036D02*
X28374D01*
Y15640*
X28300*
Y15425*
X28287Y15439*
X28275Y15451*
X28261Y15461*
X28246Y15469*
X28230Y15476*
X28214Y15480*
X28197Y15483*
X28180Y15484*
X28160Y15483*
X28141Y15480*
X28122Y15474*
X28103Y15467*
X28086Y15458*
X28070Y15448*
X28056Y15435*
X28044Y15422*
X28033Y15406*
X28023Y15389*
X28015Y15370*
X28007Y15350*
X28002Y15330*
X27998Y15307*
X27995Y15285*
X27994Y15262*
X27995Y15234*
X27998Y15209*
X28002Y15184*
X28008Y15162*
X28016Y15141*
X28025Y15121*
X28037Y15104*
X28050Y15088*
X28064Y15073*
X28079Y15060*
X28095Y15050*
X28111Y15042*
X28128Y15035*
X28146Y15030*
X28164Y15027*
X28183Y15026*
X28202Y15027*
X28220Y15030*
X28237Y15035*
X28252Y15042*
X28267Y15052*
X28281Y15062*
X28293Y15076*
X28305Y15091*
Y15036*
Y15258D02*
Y15239D01*
X28304Y15222*
X28302Y15205*
X28300Y15190*
X28297Y15177*
X28294Y15164*
X28289Y15154*
X28284Y15144*
X28275Y15131*
X28265Y15119*
X28255Y15109*
X28243Y15101*
X28231Y15095*
X28218Y15091*
X28204Y15088*
X28190Y15087*
X28178Y15088*
X28166Y15089*
X28155Y15093*
X28144Y15098*
X28134Y15104*
X28124Y15111*
X28115Y15119*
X28106Y15130*
X28098Y15141*
X28090Y15153*
X28084Y15167*
X28079Y15182*
X28075Y15199*
X28073Y15216*
X28071Y15235*
X28070Y15255*
X28071Y15276*
X28073Y15295*
X28075Y15313*
X28079Y15330*
X28084Y15345*
X28089Y15359*
X28096Y15371*
X28104Y15382*
X28113Y15392*
X28122Y15400*
X28132Y15407*
X28142Y15413*
X28152Y15417*
X28163Y15421*
X28174Y15422*
X28186Y15423*
X28198Y15422*
X28210Y15420*
X28221Y15417*
X28232Y15412*
X28242Y15406*
X28252Y15399*
X28261Y15391*
X28270Y15381*
X28278Y15369*
X28285Y15357*
X28292Y15344*
X28297Y15329*
X28301Y15313*
X28303Y15296*
X28305Y15278*
Y15258*
X28349Y13587D02*
Y14191D01*
X28081*
X28061*
X28043Y14190*
X28026Y14189*
X28010Y14187*
X27995Y14185*
X27981Y14182*
X27969Y14179*
X27958Y14175*
X27948Y14170*
X27938Y14165*
X27929Y14159*
X27920Y14152*
X27912Y14144*
X27905Y14136*
X27898Y14127*
X27891Y14117*
X27885Y14107*
X27880Y14096*
X27876Y14085*
X27872Y14074*
X27869Y14062*
X27867Y14051*
X27866Y14038*
Y14026*
Y14010*
X27868Y13995*
X27872Y13981*
X27876Y13967*
X27882Y13954*
X27889Y13941*
X27898Y13929*
X27908Y13918*
X27918Y13907*
X27931Y13898*
X27945Y13889*
X27960Y13882*
X27977Y13875*
X27996Y13869*
X28015Y13865*
X28036Y13862*
X28021Y13854*
X28008Y13846*
X27997Y13839*
X27988Y13831*
X27971Y13814*
X27954Y13795*
X27937Y13774*
X27922Y13751*
X27817Y13587*
X27917*
X27997Y13713*
X28006Y13726*
X28013Y13738*
X28022Y13749*
X28029Y13761*
X28036Y13771*
X28042Y13780*
X28049Y13788*
X28055Y13795*
X28066Y13809*
X28076Y13820*
X28086Y13829*
X28095Y13836*
X28104Y13842*
X28113Y13846*
X28123Y13849*
X28131Y13852*
X28140Y13853*
X28150Y13855*
X28162*
X28176*
X28269*
Y13587*
X28349*
X31470Y52677D02*
X31874Y52272D01*
Y49118*
X28527Y45771*
X28285*
X28281Y45767*
X28025*
X32509Y30688D02*
X32391D01*
X32706Y30088D02*
Y29970D01*
Y31289D02*
Y31407D01*
X32903Y30688D02*
X33021D01*
X33163Y31861D02*
X33045D01*
X33252Y31694D02*
Y31575D01*
Y32028D02*
Y32146D01*
X33340Y31861D02*
X33458D01*
X33749Y56312D02*
Y54367D01*
X32848Y53467*
Y44193*
X33218Y43823*
X34032*
X33769Y31459D02*
X33803Y31493D01*
X34300Y54705D02*
Y53653D01*
X33113Y52465*
Y50023*
X35697Y47438*
Y45291*
X35229Y44823*
X34032*
X34519Y30505D02*
X34401D01*
X34622Y30240D02*
Y30122D01*
Y30771D02*
Y30889D01*
X34724Y30505D02*
X34842D01*
X34777Y33965D02*
X34659D01*
X34944Y33414D02*
X34460D01*
X34288Y33242*
X33763*
X34944Y33877D02*
Y33759D01*
Y34054D02*
Y34172D01*
X35112Y33965D02*
X35230D01*
X35122Y32513D02*
Y32964D01*
X34944Y33141*
Y33414*
X35262Y44323D02*
X35144D01*
X35420Y43323D02*
X35302D01*
X35533Y33971D02*
X35415D01*
X35701Y33419D02*
Y33098D01*
X35622Y33019*
Y32513*
X35701Y33882D02*
Y33764D01*
Y34059D02*
Y34177D01*
X35843Y44057D02*
Y43939D01*
Y44589D02*
Y44707D01*
X35868Y33971D02*
X35986D01*
X35922Y43057D02*
Y42939D01*
Y43589D02*
Y43707D01*
X36019Y32513D02*
X35901D01*
X36122Y32247D02*
Y32129D01*
Y32779D02*
Y32897D01*
X36224Y32513D02*
X36342D01*
X36424Y43323D02*
X36542D01*
X36424Y44323D02*
X36542D01*
X36764Y32797D02*
X36646D01*
X37089Y32601D02*
Y32483D01*
Y32994D02*
Y33112D01*
X37414Y32797D02*
X37532D01*
X37517Y44025D02*
Y43945D01*
X37866*
X37887*
X37909Y43946*
X37929Y43948*
X37947Y43950*
X37965Y43953*
X37981Y43957*
X37996Y43961*
X38010Y43965*
X38023Y43971*
X38036Y43978*
X38047Y43986*
X38059Y43994*
X38069Y44004*
X38079Y44015*
X38088Y44027*
X38097Y44040*
X38105Y44054*
X38112Y44069*
X38118Y44085*
X38122Y44102*
X38126Y44120*
X38128Y44140*
X38130Y44160*
X38131Y44181*
X38130Y44202*
X38129Y44222*
X38127Y44241*
X38124Y44258*
X38119Y44275*
X38114Y44291*
X38108Y44306*
X38102Y44320*
X38094Y44333*
X38085Y44345*
X38076Y44356*
X38066Y44366*
X38055Y44375*
X38043Y44384*
X38030Y44391*
X38017Y44397*
X38003Y44402*
X37987Y44407*
X37969Y44411*
X37951Y44414*
X37932Y44417*
X37911Y44419*
X37889Y44420*
X37866*
X37517*
Y44340*
X37865*
X37884*
X37902Y44339*
X37918Y44338*
X37933Y44337*
X37947Y44335*
X37960Y44332*
X37971Y44329*
X37981Y44326*
X37990Y44322*
X37998Y44317*
X38007Y44312*
X38014Y44306*
X38021Y44299*
X38027Y44292*
X38033Y44284*
X38039Y44275*
X38043Y44266*
X38047Y44257*
X38051Y44247*
X38054Y44236*
X38056Y44225*
X38057Y44213*
X38059Y44200*
Y44188*
X38058Y44167*
X38056Y44147*
X38053Y44129*
X38049Y44113*
X38043Y44097*
X38036Y44084*
X38028Y44072*
X38019Y44062*
X38008Y44053*
X37994Y44046*
X37978Y44039*
X37961Y44034*
X37940Y44030*
X37918Y44027*
X37892Y44025*
X37865*
X37517*
X37718Y30399D02*
Y28996D01*
X37891Y28824*
Y27137*
X37519Y26765*
X34903*
X37827Y45102D02*
X37808D01*
X37790Y45101*
X37772Y45099*
X37755Y45097*
X37739Y45095*
X37723Y45091*
X37707Y45087*
X37693Y45082*
X37678Y45077*
X37664Y45071*
X37651Y45064*
X37638Y45057*
X37625Y45049*
X37613Y45040*
X37602Y45031*
X37591Y45021*
X37581Y45011*
X37571Y45001*
X37562Y44989*
X37554Y44978*
X37546Y44966*
X37539Y44954*
X37533Y44942*
X37527Y44929*
X37522Y44916*
X37518Y44902*
X37514Y44888*
X37511Y44874*
X37509Y44859*
X37507Y44844*
X37506Y44828*
Y44813*
Y44792*
X37508Y44772*
X37512Y44752*
X37516Y44733*
X37522Y44714*
X37528Y44697*
X37537Y44679*
X37546Y44662*
X37556Y44646*
X37568Y44630*
X37580Y44616*
X37594Y44603*
X37608Y44590*
X37623Y44579*
X37640Y44568*
X37657Y44560*
X37675Y44551*
X37694Y44544*
X37714Y44538*
X37734Y44533*
X37754Y44529*
X37775Y44526*
X37797Y44525*
X37819Y44524*
X37842Y44525*
X37864Y44526*
X37886Y44529*
X37906Y44534*
X37926Y44539*
X37946Y44545*
X37965Y44552*
X37984Y44561*
X38001Y44571*
X38018Y44581*
X38033Y44593*
X38047Y44606*
X38060Y44620*
X38073Y44635*
X38083Y44650*
X38094Y44666*
X38102Y44684*
X38110Y44701*
X38116Y44719*
X38121Y44737*
X38125Y44756*
X38128Y44775*
X38130Y44793*
X38131Y44813*
X38130Y44834*
X38128Y44855*
X38125Y44875*
X38121Y44894*
X38115Y44913*
X38108Y44931*
X38099Y44949*
X38089Y44966*
X38079Y44982*
X38067Y44997*
X38055Y45011*
X38041Y45025*
X38026Y45037*
X38011Y45048*
X37994Y45059*
X37977Y45067*
X37959Y45076*
X37941Y45083*
X37922Y45089*
X37904Y45093*
X37885Y45098*
X37866Y45100*
X37846Y45102*
X37827*
X37828Y45020D02*
X37854Y45018D01*
X37879Y45016*
X37903Y45011*
X37925Y45005*
X37946Y44997*
X37965Y44987*
X37983Y44975*
X38000Y44961*
X38014Y44946*
X38027Y44930*
X38038Y44913*
X38047Y44894*
X38053Y44876*
X38058Y44856*
X38061Y44835*
X38062Y44813*
X38061Y44792*
X38058Y44770*
X38053Y44750*
X38046Y44731*
X38037Y44713*
X38027Y44696*
X38014Y44680*
X37999Y44665*
X37982Y44652*
X37964Y44639*
X37944Y44630*
X37922Y44622*
X37899Y44615*
X37874Y44610*
X37847Y44608*
X37819Y44607*
X37801*
X37783Y44609*
X37766Y44610*
X37750Y44613*
X37734Y44616*
X37719Y44621*
X37704Y44626*
X37690Y44632*
X37677Y44638*
X37665Y44646*
X37653Y44653*
X37642Y44662*
X37632Y44672*
X37622Y44682*
X37613Y44693*
X37605Y44705*
X37598Y44717*
X37592Y44729*
X37587Y44742*
X37583Y44756*
X37579Y44769*
X37577Y44783*
X37576Y44798*
X37575Y44812*
X37576Y44833*
X37579Y44853*
X37583Y44873*
X37590Y44891*
X37598Y44909*
X37608Y44926*
X37620Y44943*
X37633Y44958*
X37641Y44966*
X37649Y44973*
X37658Y44979*
X37667Y44985*
X37677Y44991*
X37688Y44995*
X37699Y45000*
X37711Y45004*
X37723Y45008*
X37736Y45011*
X37750Y45014*
X37765Y45015*
X37779Y45017*
X37795Y45018*
X37811Y45020*
X37828*
X38121Y43658D02*
X37588D01*
Y43857*
X37517*
Y43378*
X37588*
Y43578*
X38121*
Y43658*
X38174Y32520D02*
X38056D01*
X38777Y28417D02*
X38659D01*
X39227Y32353D02*
Y32235D01*
Y32687D02*
Y32806D01*
X39240Y27758D02*
Y27639D01*
Y29076D02*
Y29195D01*
X39552Y30729D02*
X39434D01*
X39552Y33524D02*
X39434D01*
X39703Y28417D02*
X39821D01*
X40113Y30443D02*
Y30325D01*
Y31014D02*
Y31132D01*
Y33239D02*
Y33121D01*
Y33810D02*
Y33928D01*
X40280Y32520D02*
X40398D01*
X40674Y30729D02*
X40792D01*
X40674Y33524D02*
X40792D01*
G54D13*
X32706Y30688D02*
Y29663D01*
Y30688D02*
X32169D01*
X33252Y31861D02*
X32903D01*
X34622Y30505D02*
Y31054D01*
X36122Y30505D02*
X36407D01*
X36917Y31016*
X37635*
X37718Y30933*
Y30399*
X36122Y32513D02*
X36362D01*
X36646Y32797*
X37089*
X36122Y33047D02*
Y32513D01*
X37088Y30399D02*
X36733D01*
X36484Y30150*
Y28417*
X37089Y33407D02*
Y32797D01*
X39227Y32520D02*
X37868D01*
X37591Y32797*
X37089*
X39240Y27623D02*
Y27468D01*
Y27623D02*
Y27303D01*
Y27739D02*
Y27623D01*
Y28417D02*
Y27739D01*
Y29515D02*
Y28417D01*
G54D14*
X22014Y29045D02*
Y30517D01*
X31720Y39215D02*
Y39550D01*
X31716*
Y40141*
X32406Y40830*
Y48159*
X32394Y48171*
Y48505*
X31720Y39215D02*
Y38616D01*
X31732Y38604*
Y29607*
X32673Y28665*
X32229Y10144D02*
Y7939D01*
X35157Y5011*
Y710*
X32230Y19399D02*
X32229D01*
Y10144*
X32394Y48505D02*
Y53695D01*
X32949Y54250*
X32673Y28665D02*
X32230Y28222D01*
Y19399*
X33763Y32691D02*
Y32484D01*
X33803Y32445*
Y31861*
X33769Y30688D02*
Y31459D01*
Y30688D02*
Y29844D01*
X33828Y29785*
Y28665*
X33803Y31493D02*
Y31861D01*
X33828Y28665D02*
Y27492D01*
X33722Y27387*
Y26765*
X33828Y28665D02*
X32673D01*
X35122Y30505D02*
Y29893D01*
X35127Y29888*
Y28665*
X35622Y30505D02*
Y31333D01*
X36001Y31712*
X36023Y31734*
X37089*
X36484Y28417D02*
X35903D01*
X35655Y28665*
X35127*
X39227Y31733D02*
X38223D01*
X38221Y31734*
X37089*
G54D15*
X1796Y1064D03*
X2438Y2362D03*
X3142Y1156D03*
X3156Y3659D03*
X5370Y6538D03*
X5417Y7266D03*
X6900Y2682D03*
X7638Y8899D03*
X8203Y12172D03*
X8254Y11432D03*
X8255Y1626D03*
X8450Y8004D03*
X8819Y13420D03*
X11015Y16348D03*
X11035Y17074D03*
X11995Y14295D03*
X12006Y3705D03*
X12836Y18372D03*
X13933Y21269D03*
X13935Y1636D03*
X13943Y11442D03*
X13953Y21979D03*
X14057Y8000D03*
X14119Y17812D03*
X14481Y23197D03*
X16297Y7997D03*
X16663Y26884D03*
X16747Y4768D03*
X16748Y26154D03*
X18323Y14475D03*
X18528Y28366D03*
X19584Y31049D03*
X19603Y31786D03*
Y11448D03*
X19615Y21251D03*
X19619Y1617D03*
X19711Y7995D03*
X19731Y27621D03*
X19745Y17809D03*
X20144Y33019D03*
X21260Y24504D03*
X21345Y18074D03*
X21584Y34202D03*
X22014Y29045D03*
Y30517D03*
X22434Y36690D03*
X22452Y35965D03*
X24588Y38133D03*
X25144Y41595D03*
X25224Y1633D03*
X25233Y21261D03*
X25239Y11432D03*
X25240Y40862D03*
X25372Y7989D03*
X25379Y27612D03*
X25394Y17800D03*
X25398Y37420D03*
X25807Y42834D03*
X25811Y30561D03*
X26812Y37643D03*
X26848Y4911D03*
X27251Y18139D03*
X27287Y44132D03*
X28025Y45767D03*
X28042Y46498D03*
X29360Y33965D03*
X29665Y40189D03*
X29714Y24361D03*
X30098Y43815D03*
X30726Y51404D03*
X30875Y21233D03*
X30899Y40866D03*
X30905Y31062D03*
X30931Y11441D03*
X30954Y1633D03*
X31033Y37420D03*
X31060Y27608D03*
X31067Y7994D03*
Y47230D03*
X31088Y17796D03*
X31194Y49257D03*
X31468Y50223D03*
X31470Y52677D03*
X31720Y39215D03*
X32169Y30688D03*
X32229Y10144D03*
X32230Y19399D03*
X32394Y48505D03*
X32673Y28665D03*
X32706Y29663D03*
X32949Y54250D03*
X33046Y37748D03*
X33343Y18096D03*
X33620Y53767D03*
X33749Y56312D03*
X33765Y34008D03*
X34300Y54705D03*
X34622Y31054D03*
X34954Y34440D03*
X34987Y47760D03*
X35121Y31335D03*
X35134Y58570D03*
X35157Y710D03*
X35182Y40308D03*
X35691Y34454D03*
X35931Y29697D03*
X36122Y33047D03*
X36170Y57503D03*
X36535Y11445D03*
X36548Y31062D03*
X36559Y21252D03*
X36560Y1660D03*
X36591Y40862D03*
X36718Y47224D03*
X36734Y37417D03*
X36760Y17810D03*
X36769Y7993D03*
X37089Y33407D03*
X37144Y50213D03*
X37210Y29633D03*
X37249Y27356D03*
X38024Y24432D03*
X38125Y37853D03*
X38214Y18128D03*
X38322Y47447D03*
X38405Y29908D03*
X38465Y28335D03*
X39007Y33069D03*
X39240Y27468D03*
X40096Y34190D03*
X40160Y30109D03*
X41016Y30722D03*
X41032Y4696D03*
X41132Y33450D03*
X41186Y43686D03*
X41838Y47665D03*
X42143Y1610D03*
X42209Y11441D03*
X42243Y40869D03*
X42253Y21249D03*
X42391Y37414D03*
X42397Y17803D03*
X42402Y27612D03*
X42447Y7997D03*
X42805Y30587D03*
X43835Y34176D03*
X43966Y37696D03*
X44041Y18064D03*
X45402Y24432D03*
X47497Y37859D03*
X47866Y1647D03*
X47893Y31058D03*
X47895Y11448D03*
X47918Y21252D03*
X48053Y27612D03*
X48079Y17805D03*
X48107Y7984D03*
X49414Y14833D03*
X49835Y18224D03*
X50130Y4768D03*
X53151Y28057D03*
X53543Y1648D03*
X53547Y21248D03*
X53570Y11443D03*
X53719Y17806D03*
X53762Y7995D03*
X58826Y18253D03*
X59064Y1666D03*
X59195Y11436D03*
X59370Y7995D03*
X64481Y8442D03*
X64876Y1646D03*
X68562Y873D03*
G54D16*
X33722Y26765D03*
X34903D03*
G54D17*
X36484Y28417D03*
X39240D03*
G54D18*
X33763Y32691D03*
Y33242D03*
X34944Y33414D03*
Y33965D03*
X35701Y33419D03*
Y33971D03*
G54D19*
X39227Y31733D03*
Y32520D03*
G54D20*
X34622Y30505D03*
Y32513D03*
X35122Y30505D03*
Y32513D03*
X35622Y30505D03*
Y32513D03*
X36122Y30505D03*
Y32513D03*
G54D21*
X37088Y30399D03*
X37718D03*
G54D22*
X20355Y9914D03*
Y10914D03*
X22166Y10414D03*
X34032Y43823D03*
Y44823D03*
X35843Y44323D03*
G54D23*
X37089Y31734D03*
Y32797D03*
G54D24*
X33252Y31861D03*
X33803D03*
G54D25*
X32706Y30688D03*
X33769D03*
G54D70*
X40113Y30729D03*
Y33524D03*
G54D71*
X33828Y28665D03*
X35127D03*
M02*
