*
G04 Job   : E:\BOULED\DESIGN\LED_PANEL\PCB\PCB.pcb*
G04 User  : DESKTOP-D6MOGOB:alexis*
G04 Layer : SoldermaskBottom.gdo*
G04 Date  : Sat Dec 29 22:08:18 2018*
G04 Mentor Graphics Example Gerber Output Definition*
%ICAS*%
%MOIN*%
%FSLAX24Y24*%
%OFA0.0000B0.0000*%
G90*
G74*
%AMVB_RECTANGLE*
21,1,$1,$2,0,0,$3*
%
%ADD10C,0.07874*%
%ADD11C,0.14567*%
%ADD18VB_RECTANGLE,0.03228X0.06496X180.00000*%
%ADD19VB_RECTANGLE,0.04134X0.06890X180.00000*%
%ADD14VB_RECTANGLE,0.04528X0.02953X180.00000*%
%ADD20VB_RECTANGLE,0.04528X0.02953X270.00000*%
%ADD71VB_RECTANGLE,0.05118X0.07677X90.00000*%
%ADD21VB_RECTANGLE,0.05118X0.13189X180.00000*%
%ADD12VB_RECTANGLE,0.05709X0.07677X180.00000*%
%ADD70VB_RECTANGLE,0.06496X0.12795X90.00000*%
%ADD17VB_RECTANGLE,0.07677X0.18701X0.00000*%
%ADD13VB_RECTANGLE,0.10433X0.14370X0.00000*%
%ADD16VB_RECTANGLE,0.12106X0.06594X180.00000*%
%ADD15VB_RECTANGLE,0.21949X0.04626X180.00000*%
G01*
G36*
X21683Y9090D02*
X22805D01*
Y9739*
X21683*
Y9090*
X35361Y42998D02*
X36483D01*
Y43648*
X35361*
Y42998*
G37*
G54D10*
X21128Y5068D03*
X21260Y8861D03*
X34937Y42770D03*
X39956Y43963D03*
X55140Y4872D03*
G54D11*
X8183Y4724D03*
X23874Y31902D03*
X30909Y4724D03*
X35236Y51583D03*
X50925Y24406D03*
X62291Y4724D03*
G54D12*
X33722Y26765D03*
X34903D03*
G54D13*
X36484Y28417D03*
X39240D03*
G54D14*
X33763Y32691D03*
Y33242D03*
X34944Y33414D03*
Y33965D03*
X35701Y33419D03*
Y33971D03*
G54D15*
X39227Y31733D03*
Y32520D03*
G54D16*
X40113Y30729D03*
Y33524D03*
G54D17*
X33828Y28665D03*
X35127D03*
G54D18*
X34622Y30505D03*
Y32513D03*
X35122Y30505D03*
Y32513D03*
X35622Y30505D03*
Y32513D03*
X36122Y30505D03*
Y32513D03*
G54D19*
X37088Y30399D03*
X37718D03*
G54D20*
X33252Y31861D03*
X33803D03*
G54D21*
X32706Y30688D03*
X33769D03*
G54D70*
X20355Y9914D03*
Y10914D03*
X22166Y10414D03*
X34032Y43823D03*
Y44823D03*
X35843Y44323D03*
G54D71*
X37089Y31734D03*
Y32797D03*
M02*
