*
G04 Job   : E:\BOULED\DESIGN\LED_PANEL\PCB\PCB.pcb*
G04 User  : DESKTOP-D6MOGOB:alexis*
G04 Layer : SoldermaskTop.gdo*
G04 Date  : Sat Dec 29 22:08:18 2018*
G04 Mentor Graphics Example Gerber Output Definition*
%ICAS*%
%MOIN*%
%FSLAX24Y24*%
%OFA0.0000B0.0000*%
G90*
G74*
%AMVB_RECTANGLE*
21,1,$1,$2,0,0,$3*
%
%ADD10C,0.07874*%
%ADD11C,0.14567*%
%ADD12VB_RECTANGLE,0.05315X0.06890X270.00000*%
G01*
G54D10*
X13944Y4734D03*
X21260Y8861D03*
X27002Y34402D03*
X34937Y42770D03*
X39950Y43957D03*
X58360Y4733D03*
G54D11*
X8183Y4724D03*
X23874Y31902D03*
X30909Y4724D03*
X35236Y51583D03*
X50925Y24406D03*
X62291Y4724D03*
G54D12*
X3156Y1634D03*
Y2362D03*
Y3091D03*
X5026Y1634D03*
Y2362D03*
Y3091D03*
X5987Y6538D03*
Y7266D03*
Y7994D03*
X7857Y6538D03*
Y7266D03*
Y7994D03*
X8819Y1634D03*
Y2362D03*
Y3091D03*
Y11442D03*
Y12170D03*
Y12898D03*
X10689Y1634D03*
Y2362D03*
Y3091D03*
Y11442D03*
Y12170D03*
Y12898D03*
X11650Y6538D03*
Y7266D03*
Y7994D03*
Y16346D03*
Y17074D03*
Y17802D03*
X13520Y6538D03*
Y7266D03*
Y7994D03*
Y16346D03*
Y17074D03*
Y17802D03*
X14481Y1634D03*
Y2362D03*
Y3091D03*
Y11442D03*
Y12170D03*
Y12898D03*
Y21250D03*
Y21978D03*
Y22706D03*
X16352Y1634D03*
Y2362D03*
Y3091D03*
Y11442D03*
Y12170D03*
Y12898D03*
Y21250D03*
Y21978D03*
Y22706D03*
X17313Y6538D03*
Y7266D03*
Y7994D03*
Y16346D03*
Y17074D03*
Y17802D03*
Y26154D03*
Y26882D03*
Y27611D03*
X19183Y6538D03*
Y7266D03*
Y7994D03*
Y16346D03*
Y17074D03*
Y17802D03*
Y26154D03*
Y26882D03*
Y27611D03*
X20144Y1634D03*
Y2362D03*
Y3091D03*
Y11442D03*
Y12170D03*
Y12898D03*
Y21250D03*
Y21978D03*
Y22706D03*
Y31058D03*
Y31786D03*
Y32515D03*
X22014Y1634D03*
Y2362D03*
Y3091D03*
Y11442D03*
Y12170D03*
Y12898D03*
Y21250D03*
Y21978D03*
Y22706D03*
Y31058D03*
Y31786D03*
Y32515D03*
X22975Y6538D03*
Y7266D03*
Y7994D03*
X22976Y16346D03*
Y17074D03*
Y17802D03*
Y26154D03*
Y26882D03*
Y27611D03*
Y35962D03*
Y36690D03*
Y37419D03*
X24845Y6538D03*
Y7266D03*
Y7994D03*
X24846Y16346D03*
Y17074D03*
Y17802D03*
Y26154D03*
Y26882D03*
Y27611D03*
Y35962D03*
Y36690D03*
Y37419D03*
X25807Y1634D03*
Y2362D03*
Y3091D03*
Y11442D03*
Y12170D03*
Y12898D03*
Y21250D03*
Y21978D03*
Y22706D03*
Y31058D03*
Y31786D03*
Y32515D03*
Y40866D03*
Y41594D03*
Y42322D03*
X27677Y1634D03*
Y2362D03*
Y3091D03*
Y11442D03*
Y12170D03*
Y12898D03*
Y21250D03*
Y21978D03*
Y22706D03*
Y31058D03*
Y31786D03*
Y32515D03*
Y40866D03*
Y41594D03*
Y42322D03*
X28638Y6538D03*
Y7266D03*
Y7994D03*
Y16346D03*
Y17074D03*
Y17802D03*
Y26154D03*
Y26882D03*
Y27611D03*
Y35962D03*
Y36690D03*
Y37419D03*
Y45770D03*
Y46498D03*
Y47227D03*
X30508Y6538D03*
Y7266D03*
Y7994D03*
Y16346D03*
Y17074D03*
Y17802D03*
Y26154D03*
Y26882D03*
Y27611D03*
Y35962D03*
Y36690D03*
Y37419D03*
Y45770D03*
Y46498D03*
Y47227D03*
X31469Y1634D03*
Y2362D03*
Y3091D03*
Y11442D03*
Y12170D03*
Y12898D03*
Y21250D03*
Y21978D03*
Y22706D03*
Y31058D03*
Y31786D03*
Y32515D03*
X31470Y40866D03*
Y41594D03*
Y42322D03*
Y50674D03*
Y51402D03*
Y52131D03*
X33339Y1634D03*
Y2362D03*
Y3091D03*
Y11442D03*
Y12170D03*
Y12898D03*
Y21250D03*
Y21978D03*
Y22706D03*
Y31058D03*
Y31786D03*
Y32515D03*
X33340Y40866D03*
Y41594D03*
Y42322D03*
Y50674D03*
Y51402D03*
Y52131D03*
X34300Y6538D03*
Y7266D03*
Y7994D03*
X34301Y16346D03*
Y17074D03*
Y17802D03*
Y26154D03*
Y26882D03*
Y27611D03*
Y35962D03*
Y36690D03*
Y37419D03*
Y45770D03*
Y46498D03*
Y47227D03*
Y55578D03*
Y56306D03*
Y57035D03*
X36170Y6538D03*
Y7266D03*
Y7994D03*
X36171Y16346D03*
Y17074D03*
Y17802D03*
Y26154D03*
Y26882D03*
Y27611D03*
Y35962D03*
Y36690D03*
Y37419D03*
Y45770D03*
Y46498D03*
Y47227D03*
Y55578D03*
Y56306D03*
Y57035D03*
X37132Y1634D03*
Y2362D03*
Y3091D03*
Y11442D03*
Y12170D03*
Y12898D03*
Y21250D03*
Y21978D03*
Y22706D03*
Y31058D03*
Y31786D03*
Y32515D03*
Y40866D03*
Y41594D03*
Y42322D03*
Y50674D03*
Y51402D03*
Y52131D03*
X39002Y1634D03*
Y2362D03*
Y3091D03*
Y11442D03*
Y12170D03*
Y12898D03*
Y21250D03*
Y21978D03*
Y22706D03*
Y31058D03*
Y31786D03*
Y32515D03*
Y40866D03*
Y41594D03*
Y42322D03*
Y50674D03*
Y51402D03*
Y52131D03*
X39963Y6538D03*
Y7266D03*
Y7994D03*
Y16346D03*
Y17074D03*
Y17802D03*
Y26154D03*
Y26882D03*
Y27611D03*
Y35962D03*
Y36690D03*
Y37419D03*
Y45770D03*
Y46498D03*
Y47227D03*
X41833Y6538D03*
Y7266D03*
Y7994D03*
Y16346D03*
Y17074D03*
Y17802D03*
Y26154D03*
Y26882D03*
Y27611D03*
Y35962D03*
Y36690D03*
Y37419D03*
Y45770D03*
Y46498D03*
Y47227D03*
X42794Y1634D03*
Y2362D03*
Y3091D03*
Y11442D03*
Y12170D03*
Y12898D03*
Y21250D03*
Y21978D03*
Y22706D03*
Y31058D03*
Y31786D03*
Y32515D03*
X42795Y40866D03*
Y41594D03*
Y42322D03*
X44665Y1634D03*
Y2362D03*
Y3091D03*
Y11442D03*
Y12170D03*
Y12898D03*
Y21250D03*
Y21978D03*
Y22706D03*
Y31058D03*
Y31786D03*
Y32515D03*
Y40866D03*
Y41594D03*
Y42322D03*
X45626Y6538D03*
Y7266D03*
Y7994D03*
Y16346D03*
Y17074D03*
Y17802D03*
Y26154D03*
Y26882D03*
Y27611D03*
Y35962D03*
Y36690D03*
Y37419D03*
X47496Y6538D03*
Y7266D03*
Y7994D03*
Y16346D03*
Y17074D03*
Y17802D03*
Y26154D03*
Y26882D03*
Y27611D03*
Y35962D03*
Y36690D03*
Y37419D03*
X48457Y1634D03*
Y2362D03*
Y3091D03*
Y11442D03*
Y12170D03*
Y12898D03*
Y21250D03*
Y21978D03*
Y22706D03*
Y31058D03*
Y31786D03*
Y32515D03*
X50327Y1634D03*
Y2362D03*
Y3091D03*
Y11442D03*
Y12170D03*
Y12898D03*
Y21250D03*
Y21978D03*
Y22706D03*
Y31058D03*
Y31786D03*
Y32515D03*
X51288Y6538D03*
Y7266D03*
Y7994D03*
X51289Y16346D03*
Y17074D03*
Y17802D03*
Y26154D03*
Y26882D03*
Y27611D03*
X53158Y6538D03*
Y7266D03*
Y7994D03*
X53159Y16346D03*
Y17074D03*
Y17802D03*
Y26154D03*
Y26882D03*
Y27611D03*
X54120Y1634D03*
Y2362D03*
Y3091D03*
Y11442D03*
Y12170D03*
Y12898D03*
Y21250D03*
Y21978D03*
Y22706D03*
X55990Y1634D03*
Y2362D03*
Y3091D03*
Y11442D03*
Y12170D03*
Y12898D03*
Y21250D03*
Y21978D03*
Y22706D03*
X56951Y6538D03*
Y7266D03*
Y7994D03*
Y16346D03*
Y17074D03*
Y17802D03*
X58821Y6538D03*
Y7266D03*
Y7994D03*
Y16346D03*
Y17074D03*
Y17802D03*
X59782Y1634D03*
Y2362D03*
Y3091D03*
Y11442D03*
Y12170D03*
Y12898D03*
X61652Y1634D03*
Y2362D03*
Y3091D03*
Y11442D03*
Y12170D03*
Y12898D03*
X62613Y6538D03*
Y7266D03*
Y7994D03*
X64483Y6538D03*
Y7266D03*
Y7994D03*
X65445Y1634D03*
Y2362D03*
Y3091D03*
X67315Y1634D03*
Y2362D03*
Y3091D03*
M02*
