*
G04 Job   : E:\BOULED\DESIGN\MAIN_BOARD\BOULED_MAINBOARD\PCB\PCB.pcb*
G04 User  : DESKTOP-D6MOGOB:alexis*
G04 Layer : EtchLayerTop.gdo*
G04 Date  : Sun Dec 30 04:46:14 2018*
G04 Mentor Graphics Example Gerber Output Definition*
%ICAS*%
%MOIN*%
%FSLAX24Y24*%
%OFA0.0000B0.0000*%
G90*
G74*
%AMVB_RECTANGLE*
21,1,$1,$2,0,0,$3*
%
%AMVB_RCRECTANGLE*
$3=$3X2*
21,1,$1-$3,$2,0,0,0*
21,1,$1,$2-$3,0,0,0*
$1=$1/2*
$2=$2/2*
$3=$3/2*
$1=$1-$3*
$2=$2-$3*
1,1,$3X2,0-$1,0-$2*
1,1,$3X2,0-$1,$2*
1,1,$3X2,$1,$2*
1,1,$3X2,$1,0-$2*
%
%ADD10C,0.00000*%
%ADD12C,0.00591*%
%ADD15C,0.01000*%
%ADD14C,0.01575*%
%ADD13C,0.01969*%
%ADD17C,0.02362*%
%ADD16C,0.03150*%
%ADD11C,0.03937*%
%ADD24C,0.05512*%
%ADD31C,0.05906*%
%ADD22VB_RECTANGLE,0.03937X0.03937X0.00000*%
%ADD23VB_RECTANGLE,0.05512X0.05512X270.00000*%
%ADD32VB_RECTANGLE,0.05906X0.05906X180.00000*%
%ADD71VB_RECTANGLE,0.01181X0.07480X0.00000*%
%ADD25VB_RECTANGLE,0.01378X0.07874X270.00000*%
%ADD30VB_RECTANGLE,0.02756X0.01575X90.00000*%
%ADD73VB_RECTANGLE,0.03150X0.12205X180.00000*%
%ADD18VB_RECTANGLE,0.03543X0.03150X180.00000*%
%ADD26VB_RECTANGLE,0.03543X0.06299X180.00000*%
%ADD19VB_RECTANGLE,0.03937X0.02362X180.00000*%
%ADD70VB_RECTANGLE,0.03937X0.02362X270.00000*%
%ADD21VB_RECTANGLE,0.03937X0.03150X270.00000*%
%ADD72VB_RECTANGLE,0.05906X0.12205X90.00000*%
%ADD20VB_RECTANGLE,0.07480X0.01181X0.00000*%
%ADD28VB_RCRECTANGLE,0.03543X0.00787X0.00295*%
%ADD29VB_RCRECTANGLE,0.00787X0.03543X0.00295*%
%ADD27VB_RCRECTANGLE,0.06693X0.06063X0.00591*%
G01*
G36*
X118Y31348D02*
G02X148Y31378I30D01*
G01X502*
Y2493*
G03X561Y2434I59*
G01X2046*
G03X2105Y2493J59*
G01Y6936*
G03X2046Y6995I59*
G01X561*
G03X502Y6936J59*
G01Y31378*
X577*
Y12938*
G03X636Y12879I59*
G01X1655*
G02X1684Y12849J30*
X1683Y12840I29*
G03X1656Y12680I469J160*
X1681Y12526I496*
G01Y9194*
G03X1956Y8918I275*
X2232Y9194J276*
X1956Y9469I276*
X1681Y9194J275*
G01Y12526*
G03X2152Y12184I471J154*
X2386Y12243J496*
G01Y1455*
G03X2445Y1396I59*
G01X3929*
G03X3988Y1455J59*
G01Y7966*
G03X3929Y8025I59*
G01X2445*
G03X2386Y7966J59*
G01Y12243*
G03X2647Y12680I234J437*
X2152Y13175I495*
X1808Y13036J495*
G02X1787Y13028I21J22*
X1758Y13058J30*
G01Y13528*
G03X1699Y13587I59*
G01X636*
G03X577Y13528J59*
G01Y13938*
G03X636Y13879I59*
G01X1856*
G03X1915Y13938J59*
G01Y14528*
G03X1856Y14587I59*
G01X636*
G03X577Y14528J59*
G01Y17873*
G03X636Y17814I59*
G01X1655*
G02X1684Y17785J29*
X1683Y17775I29*
G03X1656Y17615I469J160*
X2152Y17120I496*
X2647Y17615J495*
X2152Y18111I495*
X1808Y17972J496*
G02X1787Y17964I21J21*
X1758Y17993J29*
G01Y18464*
G03X1699Y18523I59*
G01X636*
G03X577Y18464J59*
G01Y18873*
G03X636Y18814I59*
G01X1856*
G03X1915Y18873J59*
G01Y19464*
G03X1856Y19523I59*
G01X636*
G03X577Y19464J59*
G01Y22798*
G03X636Y22739I59*
G01X1655*
G02X1684Y22710J29*
X1683Y22700I29*
G03X1656Y22540I469J160*
X2152Y22045I496*
X2647Y22540J495*
X2152Y23036I495*
X1808Y22897J496*
G02X1787Y22889I21J21*
X1758Y22918J29*
G01Y23389*
G03X1699Y23448I59*
G01X636*
G03X577Y23389J59*
G01Y23798*
G03X636Y23739I59*
G01X1856*
G03X1915Y23798J59*
G01Y24389*
G03X1856Y24448I59*
G01X636*
G03X577Y24389J59*
G01Y27731*
G03X636Y27672I59*
G01X1655*
G02X1684Y27642J30*
X1683Y27633I29*
G03X1656Y27473I469J160*
X2152Y26978I496*
X2647Y27473J495*
X2152Y27968I495*
X1808Y27830J495*
G02X1787Y27821I21J21*
X1758Y27851J30*
G01Y28321*
G03X1699Y28380I59*
G01X636*
G03X577Y28321J59*
G01Y28731*
G03X636Y28672I59*
G01X1856*
G03X1915Y28731J59*
G01Y29321*
G03X1856Y29380I59*
G01X636*
G03X577Y29321J59*
G01Y31378*
X2368*
Y29231*
G03X2447Y29152I79*
G01X3667*
G03X3746Y29231J79*
G01Y29408*
G02X3776Y29438I30*
G01X4310*
G02X4330Y29429J30*
G01X4588Y29171*
G02X4597Y29150I20J21*
G01Y28649*
G02X4568Y28619I29*
X4543Y28633J30*
G03X4377Y28723I166J107*
X4209Y28629J197*
G02X4184Y28615I25J15*
G01X3776*
G02X3746Y28644J29*
G01Y28821*
G03X3667Y28900I79*
G01X2447*
G03X2368Y28821J79*
G01Y28231*
G03X2447Y28152I79*
G01X3667*
G03X3746Y28231J79*
G01Y28408*
G02X3776Y28438I30*
G01X4184*
G02X4209Y28423J30*
G03X4377Y28329I168J103*
X4543Y28419J197*
G02X4568Y28433I25J16*
X4597Y28403J30*
G01Y23756*
G02X4568Y23726I29*
X4548Y23734J30*
G03X4416Y23784I132J147*
X4302Y23748J197*
G02X4285Y23742I17J24*
X4255Y23772J30*
G01Y24552*
G03X4229Y24614I88*
G01X4188Y24656*
G03X4125Y24682I63J63*
G01X3776*
G02X3746Y24712J30*
G01Y24889*
G03X3667Y24967I79*
G01X2447*
G03X2368Y24889J78*
G01Y24298*
G03X2447Y24219I79*
G01X3667*
G03X3746Y24298J79*
G01Y24475*
G02X3776Y24505I30*
G01X4049*
G02X4078Y24475J30*
G01Y23802*
G02X4049Y23772I29*
X4037Y23775J30*
G03X3960Y23790I77J182*
X3800Y23708J197*
G02X3776Y23695I24J17*
X3746Y23725J30*
G01Y23889*
G03X3667Y23967I79*
G01X2447*
G03X2368Y23889J78*
G01Y23298*
G03X2447Y23219I79*
G01X3667*
G03X3746Y23298J79*
G01Y23462*
G02X3776Y23492I30*
X3800Y23479J30*
G03X3960Y23397I160J114*
X4037Y23412J196*
G02X4049Y23415I12J27*
X4078Y23385J30*
G01Y19856*
G03X4104Y19793I89*
G01X4796Y19101*
G03X4859Y19075I63J62*
G01X5959*
G02X5985Y19059J30*
G03X5989Y19051I70J35*
G02X5994Y19035I24J16*
X5989Y19019I29*
G03X5985Y19012I66J43*
G02X5959Y18996I26J14*
G01X4976*
G03X4913Y18970J89*
G01X4708Y18766*
G02X4688Y18757I20J21*
G01X4504*
G02X4475Y18787J30*
X4480Y18804I29*
G03X4519Y18921I158J117*
X4425Y19089I197*
G02X4411Y19114I15J25*
G01Y19264*
G03X4385Y19327I89*
G01X3980Y19731*
G03X3918Y19757I62J63*
G01X3776*
G02X3746Y19787J30*
G01Y19964*
G03X3667Y20042I79*
G01X2447*
G03X2368Y19964J78*
G01Y19373*
G03X2447Y19294I79*
G01X3667*
G03X3746Y19373J79*
G01Y19550*
G02X3776Y19580I30*
G01X3869*
G02X3890Y19571J30*
G01X4225Y19236*
G02X4233Y19215I21J21*
G01Y19114*
G02X4219Y19089I29*
G03X4125Y18921I103J168*
X4164Y18804I197*
G02X4169Y18787I24J17*
X4140Y18757I29*
G01X3776*
G02X3746Y18787J30*
G01Y18964*
G03X3667Y19042I79*
G01X2447*
G03X2368Y18964J78*
G01Y18373*
G03X2447Y18294I79*
G01X3667*
G03X3746Y18373J79*
G01Y18550*
G02X3776Y18580I30*
G01X4146*
G02X4175Y18550J30*
X4169Y18532I29*
G03X4125Y18408I153J124*
X4322Y18212I197*
X4490Y18306J196*
G02X4515Y18320I25J16*
G01X4731*
G02X4761Y18290J30*
X4752Y18269I30*
G01X4483Y18001*
G03X4458Y17938I63J63*
G01Y16716*
G02X4449Y16695I30*
G01X2994Y15241*
G03X2968Y15178I63J63*
G01Y15136*
G02X2939Y15107I29*
G01X2447*
G03X2368Y15028J79*
G01Y14438*
G03X2447Y14359I79*
G01X3667*
G03X3746Y14438J79*
G01Y15028*
G03X3667Y15107I79*
G01X3182*
G02X3153Y15136J29*
X3161Y15157I29*
G01X4609Y16605*
G03X4635Y16667I63J62*
G01Y17889*
G02X4643Y17910I29*
G01X5032Y18298*
G02X5052Y18307I20J20*
G01X5959*
G02X5985Y18291J29*
G03X5989Y18284I70J36*
G02X5994Y18268I24J16*
X5989Y18252I29*
G03X5985Y18244I66J43*
G02X5959Y18228I26J14*
G01X5129*
G03X5066Y18202J88*
G01X4774Y17911*
G03X4748Y17848I63J63*
G01Y14798*
G02X4740Y14777I29*
G01X3796Y13834*
G02X3776Y13825I20J21*
X3746Y13855J30*
G01Y14028*
G03X3667Y14107I79*
G01X2447*
G03X2368Y14028J79*
G01Y13438*
G03X2447Y13359I79*
G01X3667*
G03X3746Y13438J79*
G01Y13615*
G02X3776Y13644I30*
G01X3821*
G03X3883Y13670J89*
G01X4900Y14686*
G03X4926Y14749I63J63*
G01Y17799*
G02X4934Y17820I29*
G01X5099Y17984*
Y757*
G03X5177Y678I78*
G01X5728*
G03X5807Y757J79*
G01Y1308*
G03X5728Y1387I79*
G01X5177*
G03X5099Y1308J79*
G01Y10757*
G03X5177Y10678I78*
G01X5728*
G03X5807Y10757J79*
G01Y11308*
G03X5728Y11387I79*
G01X5177*
G03X5099Y11308J79*
G01Y17984*
X5157Y18042*
G02X5178Y18051I21J20*
G01X5959*
G02X5985Y18035J29*
G03X5999Y18016I70J36*
G02X6007Y17995I21J21*
X6004Y17981I29*
G03X5996Y17953I51J28*
G01Y17815*
G03X6011Y17776I59*
G02X6019Y17756I22J20*
X6011Y17736I30*
G03X5996Y17697I44J39*
G01Y17559*
G03X6055Y17500I59*
G01X6099*
Y1032*
G03X6453Y678I354*
X6807Y1032J354*
X6453Y1387I354*
X6099Y1032J355*
G01Y11032*
G03X6453Y10678I354*
X6807Y11032J354*
X6453Y11387I354*
X6099Y11032J355*
G01Y17500*
X6843*
G03X6902Y17559J59*
G01Y17697*
G03X6887Y17736I59*
G02X6879Y17756I22J20*
X6887Y17776I30*
G03X6902Y17815I44J39*
G01Y17953*
G03X6895Y17981I59*
G02X6891Y17995I26J14*
X6899Y18016I30*
G03X6922Y18071I56J55*
G01Y18209*
G03X6909Y18252I79*
G02X6904Y18268I25J16*
X6909Y18284I30*
G03X6922Y18327I66J43*
G01Y18465*
G03X6909Y18507I79*
G02X6904Y18524I25J17*
X6909Y18540I30*
G03X6922Y18583I66J43*
G01Y18720*
G03X6909Y18763I79*
G02X6904Y18779I25J16*
X6909Y18796I30*
G03X6922Y18839I66J43*
G01Y18976*
G03X6909Y19019I79*
G02X6904Y19035I25J16*
X6909Y19051I30*
G03X6922Y19094I66J43*
G01Y19232*
G03X6909Y19275I79*
G02X6904Y19291I25J16*
X6909Y19307I30*
G03X6922Y19350I66J43*
G01Y19488*
G03X6909Y19531I79*
G02X6904Y19547I25J16*
X6909Y19563I30*
G03X6922Y19606I66J43*
G01Y19744*
G03X6909Y19787I79*
G02X6904Y19803I25J16*
X6909Y19819I30*
G03X6922Y19862I66J43*
G01Y20000*
G03X6899Y20055I79*
G02X6891Y20075I22J20*
X6895Y20090I30*
G03X6902Y20118I52J28*
G01Y20256*
G03X6895Y20284I59*
G02X6891Y20299I26J15*
X6899Y20319I30*
G03X6913Y20338I56J55*
G02X6939Y20354I26J13*
G01X6998*
G02X7019Y20346J29*
G01X7131Y20234*
G02X7140Y20213I21J21*
G01Y17637*
G02X7126Y17612I30*
G03X7031Y17444I102J168*
X7099Y17296I197*
G01Y1032*
G03X7453Y678I354*
X7807Y1032J354*
X7453Y1387I354*
X7099Y1032J355*
G01Y11032*
G03X7453Y10678I354*
X7807Y11032J354*
X7453Y11387I354*
X7099Y11032J355*
G01Y17296*
G03X7228Y17247I129J148*
X7425Y17444J197*
X7331Y17612I197*
G02X7317Y17637I15J25*
G01Y20262*
G03X7291Y20324I89*
G01X7110Y20506*
G03X7047Y20531I63J63*
G01X6939*
G02X6913Y20548J30*
G03X6859Y20589I70J36*
G02X6835Y20618I6J29*
X6844Y20639I30*
G01X6920Y20715*
G03X6946Y20777I63J62*
G01Y20792*
G02X6975Y20822I29*
G01X7034*
G03X7113Y20901J79*
G01Y21531*
G03X7034Y21609I79*
G01X6680*
G03X6601Y21531J78*
G01Y20901*
G03X6635Y20836I79*
G02X6648Y20812I16J24*
X6619Y20782I29*
G01X6542*
G03X6480Y20756J88*
G01X6387Y20663*
G03X6362Y20615I62J63*
G02X6333Y20591I29J5*
G01X6055*
G03X5985Y20548J79*
G02X5959Y20531I26J13*
G01X5567*
G02X5546Y20540J30*
G01X5455Y20632*
G02X5446Y20653I20J21*
X5475Y20682I29*
G01X5486*
G03X5564Y20761J79*
G01Y20997*
G03X5486Y21076I78*
G01X5092*
G03X5024Y21037J79*
G02X4998Y21022I26J15*
X4969Y21052J30*
G01Y28209*
G02X4977Y28230I29*
G01X5004Y28257*
G03X5030Y28319I62J62*
G01Y28333*
G02X5033Y28345I30*
G01Y21312*
G03X5092Y21253I59*
G01X5486*
G03X5545Y21312J59*
G01Y21548*
G03X5486Y21607I59*
G01X5092*
G03X5033Y21548J59*
G01Y28345*
G02X5045Y28358I27J12*
G03X5139Y28526I103J168*
X4942Y28723I197*
X4822Y28682J197*
G02X4804Y28676I18J24*
X4774Y28706J30*
G01Y29199*
G03X4748Y29262I88*
G01X4421Y29589*
G03X4358Y29615I63J63*
G01X3776*
G02X3746Y29644J29*
G01Y29821*
G03X3667Y29900I79*
G01X2447*
G03X2368Y29821J79*
G01Y31378*
X5957*
Y25604*
G03X6014Y25528I79*
G02X6035Y25499I8J29*
X6025Y25477I29*
G03X5957Y25328I129J149*
X5991Y25217I197*
G01Y20901*
G03X6050Y20842I59*
G01X6404*
G03X6464Y20901J59*
G01Y21531*
G03X6404Y21590I60*
G01X6050*
G03X5991Y21531J59*
G01Y25217*
G03X6154Y25131I163J111*
X6351Y25328J197*
X6282Y25477I197*
G02X6272Y25499I20J22*
X6294Y25528I30*
G03X6351Y25604I22J76*
G01Y25997*
G03X6272Y26076I79*
G01X6036*
G03X5957Y25997J79*
G01Y31378*
X6508*
Y26541*
G03X6602Y26374I197*
G02X6616Y26348I15J26*
G01Y26106*
G02X6587Y26076I29*
G03X6508Y25997J79*
G01Y25604*
G03X6587Y25525I79*
G02X6616Y25495J30*
G01Y25136*
G03X6642Y25073I89*
G01X6744Y24971*
G03X6807Y24945I63J63*
G01X9335*
Y20901*
G03X9394Y20842I59*
G01X9788*
G03X9847Y20901J59*
G01Y21138*
G03X9788Y21197I59*
G01X9394*
G03X9335Y21138J59*
G01Y24945*
X10557*
G02X10582Y24931J29*
G03X10750Y24837I168J103*
X10947Y25034J197*
X10750Y25231I197*
X10582Y25137J197*
G02X10557Y25123I25J15*
G01X7525*
G02X7495Y25152J29*
X7503Y25172I30*
G03X7528Y25205I143J136*
G02X7553Y25219I25J16*
G01X8984*
G03X9047Y25245J89*
G01X9163Y25361*
G03X9189Y25424I63J63*
G01Y25495*
G02X9218Y25525I29*
G03X9297Y25604J79*
G01Y25997*
G03X9218Y26076I79*
G01X8982*
G03X8903Y25997J79*
G01Y25604*
G03X8982Y25525I79*
G02X9012Y25495J30*
G01Y25472*
G02X9003Y25452I30*
G01X8956Y25405*
G02X8935Y25396I21J21*
G01X7553*
G02X7528Y25410J30*
G03X7470Y25471I168J102*
G02X7457Y25496I16J25*
X7483Y25525I29*
G03X7554Y25604I7J79*
G01Y25997*
G03X7476Y26076I78*
G02X7446Y26106J30*
G01Y26224*
G02X7455Y26245I30*
G01X7678Y26468*
G02X7699Y26476I21J21*
X7726Y26458J29*
G03X7806Y26363I183J73*
G02X7820Y26338I15J25*
G01Y26106*
G02X7791Y26076I29*
G03X7712Y25997J79*
G01Y25604*
G03X7791Y25525I79*
G01X8027*
G03X8106Y25604J79*
G01Y25997*
G03X8027Y26076I79*
G02X7997Y26106J30*
G01Y26338*
G02X8012Y26363I30*
G03X8106Y26531I103J168*
X7909Y26728I197*
X7891Y26727J197*
G02X7888I3J30*
X7859Y26757J30*
G01Y26867*
G02X7867Y26888I29*
G01X7882Y26902*
G02X7903Y26911I21J21*
G01X8033*
G03X8120Y26985J89*
G02X8149Y27009I29J5*
G01X8210*
G03X8288Y27088J79*
G01Y27718*
G03X8210Y27797I78*
G01X8200*
G02X8170Y27826J29*
G01Y27857*
G02X8182Y27881I30*
G03X8192Y27889I123J154*
G02X8212Y27897I20J21*
G01X8352*
Y26531*
G03X8446Y26363I197*
G02X8460Y26338I15J25*
G01Y26106*
G02X8431Y26076I29*
G03X8352Y25997J79*
G01Y25604*
G03X8431Y25525I79*
G01X8667*
G03X8746Y25604J79*
G01Y25997*
G03X8667Y26076I79*
G02X8637Y26106J30*
G01Y26338*
G02X8652Y26363I30*
G03X8746Y26531I103J168*
X8549Y26728I197*
X8352Y26531J197*
G01Y27897*
X8650*
G02X8671Y27889J29*
G01X11199Y25361*
G02X11207Y25340I21J21*
G01Y24887*
G02X11199Y24866I29*
G01X10688Y24356*
G03X10648Y24259I98J97*
G01Y22009*
G02X10640Y21989I30*
G03X10589Y21865I146J133*
G02X10580Y21846I29J2*
G01X10056Y21321*
G03X10016Y21224I98J97*
G01Y20785*
G02X10007Y20764I30*
G01X9885Y20642*
G02X9865Y20633I20J21*
X9844Y20642J30*
G03X9788Y20665I56J55*
G01X9394*
G03X9324Y20622J78*
G02X9298Y20606I26J14*
G01X9116*
G03X9042Y20585J138*
G02X9027Y20581I15J25*
G01X8856*
G02X8844Y20583J29*
G03X8811Y20591I33J71*
G01X8585*
G02X8555Y20620J29*
G01Y20650*
G03X8483Y20771I137*
G02X8468Y20797I14J26*
Y20801I29*
G01X8470Y20816*
G02X8500Y20842I30J4*
G01X8806*
G03X8865Y20901J59*
G01Y21531*
G03X8806Y21590I59*
G01X8452*
G03X8393Y21531J59*
G01Y20901*
G03X8407Y20862I59*
G02X8414Y20843I22J19*
Y20839I29*
G01X8410Y20813*
G02X8381Y20787I29J4*
G01X8245*
G02X8215Y20817J30*
X8226Y20840I30*
G03X8255Y20901I50J61*
G01Y21531*
G03X8176Y21609I79*
G01X7822*
G03X7743Y21531J78*
G01Y20901*
G03X7822Y20822I79*
G01X7832*
G02X7861Y20792J30*
G01Y20763*
G03X7902Y20665I138*
G01X7963Y20604*
G02X7972Y20583I21J21*
X7965Y20563I30*
G03X7945Y20512I59J51*
G01Y20374*
G03X7958Y20331I79*
G02X7963Y20315I25J16*
X7958Y20299I30*
G03X7945Y20256I66J43*
G01Y20118*
G03X7968Y20063I79*
G02X7976Y20043I22J20*
X7972Y20028I30*
G03X7965Y20000I52J28*
G01Y19862*
G03X7972Y19834I59*
G02X7976Y19820I26J14*
X7968Y19799I30*
G03X7945Y19744I56J55*
G01Y19606*
G03X7958Y19563I79*
G02X7963Y19547I25J16*
X7958Y19531I30*
G03X7945Y19488I66J43*
G01Y19350*
G03X7958Y19307I79*
G02X7963Y19291I25J16*
X7958Y19275I30*
G03X7945Y19232I66J43*
G01Y19094*
G03X7958Y19051I79*
G02X7963Y19035I25J16*
X7958Y19019I30*
G03X7945Y18976I66J43*
G01Y18839*
G03X7958Y18796I79*
G02X7963Y18779I25J17*
X7958Y18763I30*
G03X7945Y18720I66J43*
G01Y18583*
G03X7958Y18540I79*
G02X7963Y18524I25J16*
X7958Y18507I30*
G03X7945Y18465I66J42*
G01Y18327*
G03X7958Y18284I79*
G02X7963Y18268I25J16*
X7958Y18252I30*
G03X7945Y18209I66J43*
G01Y18071*
G03X7958Y18028I79*
G02X7963Y18012I25J16*
X7958Y17996I30*
G03X7945Y17953I66J43*
G01Y17815*
G03X7968Y17760I79*
G02X7976Y17739I22J21*
X7972Y17725I30*
G03X7965Y17697I52J28*
G01Y17559*
G03X8024Y17500I59*
G01X8099*
Y1032*
G03X8453Y678I354*
X8807Y1032J354*
X8607Y1351I354*
G02X8591Y1378I13J27*
G01Y1575*
G02X8620Y1605I29*
G01X8652*
G03X8730Y1684J79*
G01Y1920*
G03X8652Y1999I78*
G01X8258*
G03X8179Y1920J79*
G01Y1684*
G03X8258Y1605I79*
G01X8286*
G02X8315Y1575J30*
G01Y1378*
G02X8298Y1351I29*
G03X8099Y1032I155J319*
G01Y11032*
G03X8179Y10807I354*
G01Y2235*
G03X8258Y2156I79*
G01X8652*
G03X8730Y2235J79*
G01Y2471*
G03X8652Y2550I78*
G01X8573*
G02X8543Y2579J29*
G01Y3667*
G02X8552Y3688I30*
G01X8937Y4073*
G02X8958Y4082I21J21*
X8965Y4081J30*
G03X9011Y4075I46J191*
X9099Y4096J197*
G01Y1032*
G03X9453Y678I354*
X9807Y1032J354*
X9607Y1351I354*
G02X9591Y1378I13J27*
G01Y1575*
G02X9620Y1605I29*
G01X9650*
G03X9728Y1684J79*
G01Y1920*
G03X9650Y1999I78*
G01X9256*
G03X9177Y1920J79*
G01Y1684*
G03X9256Y1605I79*
G01X9286*
G02X9315Y1575J30*
G01Y1378*
G02X9298Y1351I29*
G03X9099Y1032I155J319*
G01Y4096*
G03X9177Y4167I88J176*
G01Y2235*
G03X9256Y2156I79*
G01X9650*
G03X9728Y2235J79*
G01Y2471*
G03X9650Y2550I78*
G01X9571*
G02X9541Y2579J29*
G01Y4960*
G02X9550Y4981I30*
G01X14019Y9450*
G03X14045Y9513I62J63*
G01Y10967*
G02X14075Y10996I30*
X14104Y10972J29*
G03X14453Y10678I349J60*
X14783Y10905J354*
G02X14811Y10924I28J11*
X14840Y10894J30*
G01Y9512*
G02X14832Y9491I29*
G01X9907Y4566*
G03X9881Y4504I63J62*
G01Y4433*
G02X9867Y4408I29*
G03X9773Y4240I103J168*
X9970Y4043I197*
X10099Y4091J197*
G01Y1032*
G03X10453Y678I354*
X10807Y1032J354*
X10453Y1387I354*
X10099Y1032J355*
G01Y4091*
G03X10167Y4240I129J149*
X10072Y4408I197*
G02X10058Y4433I16J25*
G01Y4455*
G02X10067Y4476I30*
G01X11099Y5507*
Y1032*
G03X11453Y678I354*
X11807Y1032J354*
X11453Y1387I354*
X11099Y1032J355*
G01Y5507*
X12099Y6507*
Y1032*
G03X12453Y678I354*
X12807Y1032J354*
X12607Y1351I354*
G02X12591Y1378I13J27*
G01Y1575*
G02X12620Y1605I29*
G01X12652*
G03X12730Y1684J79*
G01Y1920*
G03X12652Y1999I78*
G01X12258*
G03X12179Y1920J79*
G01Y1684*
G03X12258Y1605I79*
G01X12286*
G02X12315Y1575J30*
G01Y1378*
G02X12298Y1351I29*
G03X12099Y1032I155J319*
G01Y6507*
X12179Y6588*
Y2235*
G03X12258Y2156I79*
G01X12652*
G03X12730Y2235J79*
G01Y2471*
G03X12652Y2550I78*
G01X12573*
G02X12543Y2579J29*
G01Y3922*
G02X12557Y3947I30*
G03X12652Y4115I102J168*
X12455Y4312I197*
X12258Y4115J197*
X12352Y3947I197*
G02X12366Y3922I15J25*
G01Y2579*
G02X12337Y2550I29*
G01X12258*
G03X12179Y2471J79*
G01Y6588*
X13099Y7507*
Y1032*
G03X13453Y678I354*
X13807Y1032J354*
X13607Y1351I354*
G02X13591Y1378I13J27*
G01Y1575*
G02X13620Y1605I29*
G01X13652*
G03X13730Y1684J79*
G01Y1920*
G03X13652Y1999I78*
G01X13258*
G03X13179Y1920J79*
G01Y1684*
G03X13258Y1605I79*
G01X13286*
G02X13315Y1575J30*
G01Y1378*
G02X13298Y1351I29*
G03X13099Y1032I155J319*
G01Y7507*
X14992Y9400*
G03X15018Y9463I63J63*
G01Y11886*
G03X14992Y11949I89*
G01X14244Y12696*
G02X14236Y12717I21J21*
G01Y13369*
G02X14265Y13399I29*
X14293Y13379J30*
G03X14479Y13246I186J64*
X14676Y13443J197*
X14582Y13611I197*
G02X14568Y13636I15J25*
G01Y16674*
G02X14597Y16704I29*
X14621Y16692J30*
G03X14628Y16684I70J55*
G01X14820Y16492*
G02X14829Y16471I21J21*
X14799Y16442I30*
G01X14745*
G03X14667Y16363J79*
G01Y16127*
G03X14686Y16075I78*
G01Y15576*
G03X14745Y15517I59*
G01X15099*
Y11032*
G03X15453Y10678I354*
X15807Y11032J354*
X15453Y11387I354*
X15099Y11032J355*
G01Y15517*
X15139*
G03X15198Y15576J59*
G01Y15812*
G03X15139Y15871I59*
G01X14745*
G03X14686Y15812J59*
G01Y16075*
G03X14745Y16048I59J52*
G01X15139*
G03X15218Y16127J79*
G01Y16363*
G03X15139Y16442I79*
G01X15060*
G02X15031Y16471J29*
G01Y16495*
G03X15005Y16558I89*
G01X14788Y16775*
G02X14779Y16796I21J21*
G01Y16947*
G02X14809Y16976I30*
X14814J29*
G03X14829Y16975I15J77*
G01X14947*
G03X14975Y16980J78*
G02X14986Y16982I11J27*
X14997Y16980J29*
G03X15026Y16975I29J73*
G01X15144*
G03X15172Y16980J78*
G02X15183Y16982I11J27*
X15194Y16980J29*
G03X15222Y16975I28J73*
G01X15341*
G03X15387Y16990J78*
G02X15404Y16996I17J24*
X15409Y16995J30*
G03X15419Y16994I10J58*
G01X15537*
G03X15547Y16995J59*
G02X15552Y16996I5J29*
X15570Y16990J30*
G03X15616Y16975I46J63*
G01X15734*
G03X15749Y16976J78*
G02X15754I5J29*
X15783Y16947J29*
G01Y16882*
G02X15775Y16861I29*
G01X15333Y16419*
G03X15307Y16357I63J62*
G01Y15917*
G03X15333Y15855I89*
G01X15442Y15746*
G03X15504Y15720I62J63*
G01X15569*
G02X15599Y15691J29*
G01Y15651*
G03X15677Y15572I78*
G01X15698*
G02X15728Y15543J29*
X15727Y15538I30*
G03X15726Y15522I87J16*
G01Y15481*
G02X15696Y15451I30*
G01X15617*
G03X15539Y15372J79*
G01Y15136*
G03X15558Y15084I78*
G01Y14585*
G03X15617Y14526I59*
G01X16011*
G03X16070Y14585J59*
G01Y14821*
G03X16011Y14880I59*
G01X15617*
G03X15558Y14821J59*
G01Y15084*
G03X15617Y15057I59J52*
G01X16011*
G03X16090Y15136J79*
G01Y15372*
G03X16011Y15451I79*
G01X15940*
G02X15910Y15481J30*
X15918Y15501I30*
G03X15942Y15548I63J62*
G02X15971Y15572I29J5*
G01X16032*
G03X16099Y15609J79*
G01Y11032*
G03X16453Y10678I354*
X16807Y11032J354*
X16453Y11387I354*
X16099Y11032J355*
G01Y15609*
G03X16103Y15618I67J42*
G02X16130Y15636I27J12*
X16157Y15618J30*
G03X16229Y15572I72J33*
G01X16583*
G03X16662Y15651J79*
G01Y15966*
G03X16649Y16009I79*
G02X16644Y16025I25J16*
X16649Y16041I30*
G03X16662Y16084I66J43*
G01Y16124*
G02X16691Y16153I29*
G01X16912*
G02X16933Y16144J29*
G01X16952Y16126*
G02X16961Y16105I21J21*
G01Y15433*
G02X16952Y15412I30*
G01X16897Y15358*
G02X16877Y15349I20J21*
G01X16858*
G02X16828Y15379J30*
G03X16749Y15457I79*
G01X16356*
G03X16277Y15379J78*
G01Y15142*
G03X16297Y15090I79*
G01Y14591*
G03X16356Y14532I59*
G01X16749*
G03X16809Y14591J59*
G01Y14827*
G03X16749Y14886I60*
G01X16356*
G03X16297Y14827J59*
G01Y15090*
G03X16356Y15064I59J52*
G01X16749*
G03X16828Y15142J78*
G02X16858Y15172I30*
G01X16926*
G03X16988Y15198J89*
G01X17099Y15308*
Y11032*
G03X17453Y10678I354*
X17807Y11032J354*
X17453Y11387I354*
X17099Y11032J355*
G01Y15308*
X17112Y15322*
G03X17138Y15384I63J62*
G01Y16154*
G03X17112Y16216I89*
G01X17024Y16304*
G03X16961Y16330I63J62*
G01X16691*
G02X16662Y16360J30*
G01Y16399*
G03X16583Y16478I79*
G01X16524*
G02X16494Y16507J29*
G01Y16524*
G03X16484Y16565I88*
G02X16481Y16579I26J14*
X16510Y16609I29*
X16517Y16608J30*
G03X16536Y16606I19J86*
G01X16646*
G02X16671Y16592J30*
G03X16839Y16498I168J102*
X17036Y16694J196*
X16839Y16891I197*
X16671Y16797J197*
G02X16646Y16783I25J16*
G01X16585*
G02X16564Y16792J30*
G01X16432Y16924*
G02X16423Y16945I20J21*
X16452Y16975I29*
G01X16522*
G03X16550Y16980J78*
G02X16561Y16982I11J27*
X16572Y16980J29*
G03X16600Y16975I28J73*
G01X16718*
G03X16747Y16980J78*
G02X16758Y16982I11J27*
X16769Y16980J29*
G03X16797Y16975I28J73*
G01X16915*
G03X16944Y16980J78*
G02X16955Y16982I11J27*
X16965Y16980J29*
G03X16994Y16975I29J73*
G01X17112*
G03X17159Y16990J78*
G02X17176Y16996I17J24*
X17181Y16995J30*
G03X17191Y16994I10J58*
G01X17309*
G03X17319Y16995J59*
G02X17324Y16996I5J29*
X17341Y16990J30*
G03X17388Y16975I47J63*
G01X17506*
G03X17534Y16980J78*
G02X17545Y16982I11J27*
X17556Y16980J29*
G03X17585Y16975I29J73*
G01X17703*
G03X17717Y16976J78*
G02X17722I5J29*
X17752Y16947J29*
G01Y14506*
G03X17778Y14443I89*
G01X17863Y14358*
G02X17872Y14337I21J21*
G01Y10627*
G02X17863Y10606I30*
G01X13392Y6135*
G03X13366Y6073I63J62*
G01Y2579*
G02X13337Y2550I29*
G01X13258*
G03X13179Y2471J79*
G01Y2235*
G03X13258Y2156I79*
G01X13652*
G03X13730Y2235J79*
G01Y2471*
G03X13652Y2550I78*
G01X13573*
G02X13543Y2579J29*
G01Y6024*
G02X13552Y6045I30*
G01X14099Y6591*
Y1032*
G03X14453Y678I354*
X14807Y1032J354*
X14453Y1387I354*
X14099Y1032J355*
G01Y6591*
X18023Y10515*
G03X18049Y10578I63J63*
G01Y10948*
G02X18078Y10978I29*
X18107Y10955J30*
G03X18453Y10678I346J77*
X18807Y11032J354*
X18453Y11387I354*
X18107Y11110J355*
G02X18078Y11087I29J6*
X18049Y11116J29*
G01Y14386*
G03X18023Y14449I89*
G01X17938Y14534*
G02X17929Y14555I21J21*
G01Y14873*
G02X17959Y14903I30*
X17979Y14894J30*
G01X18859Y14015*
G02X18868Y13994I21J21*
G01Y8803*
G02X18859Y8782I30*
G01X14392Y4315*
G02X14371Y4306I21J20*
X14364Y4307J29*
G03X14318Y4312I46J192*
X14121Y4115J197*
X14318Y3918I197*
X14515Y4115J197*
X14509Y4161I197*
G02Y4168I29J7*
X14517Y4189I29*
G01X15099Y4770*
Y1032*
G03X15453Y678I354*
X15807Y1032J354*
X15453Y1387I354*
X15099Y1032J355*
G01Y4770*
X16099Y5770*
Y1032*
G03X16453Y678I354*
X16807Y1032J354*
X16453Y1387I354*
X16099Y1032J355*
G01Y5770*
X17059Y6731*
Y1032*
G03X17453Y639I394*
X17847Y1032J393*
X17453Y1426I394*
X17059Y1032J394*
G01Y6731*
X18099Y7770*
Y1032*
G03X18453Y678I354*
X18807Y1032J354*
X18453Y1387I354*
X18099Y1032J355*
G01Y7770*
X19019Y8691*
G03X19045Y8754I63J63*
G01Y10968*
G02X19075Y10997I30*
X19099Y10985J29*
G01Y1032*
G03X19453Y678I354*
X19807Y1032J354*
X19453Y1387I354*
X19099Y1032J355*
G01Y10985*
G02X19104Y10972I24J17*
G03X19453Y10678I349J60*
X19807Y11032J354*
X19453Y11387I354*
X19104Y11092J355*
G02X19075Y11068I29J5*
X19045Y11097J29*
G01Y14043*
G03X19019Y14105I89*
G01X18135Y14990*
G02X18126Y15011I20J21*
G01Y16947*
G02X18155Y16976I29*
X18161J29*
G03X18175Y16975I14J77*
G01X18293*
G03X18322Y16980J78*
G02X18333Y16982I11J27*
X18343Y16980J29*
G03X18372Y16975I29J73*
G01X18490*
G03X18569Y17053J78*
G01Y17801*
G03X18490Y17880I79*
G01X18372*
G03X18343Y17875J79*
G02X18333Y17873I10J27*
X18322Y17875J29*
G03X18293Y17880I29J74*
G01X18175*
G03X18147Y17875J79*
G02X18136Y17873I11J27*
X18125Y17875J29*
G03X18096Y17880I29J74*
G01X17978*
G03X17950Y17875J79*
G02X17939Y17873I11J27*
X17928Y17875J29*
G03X17900Y17880I28J74*
G01X17781*
G03X17753Y17875J79*
G02X17742Y17873I11J27*
X17731Y17875J29*
G03X17703Y17880I28J74*
G01X17585*
G03X17570Y17879J79*
G02X17565Y17878I5J29*
X17535Y17908J30*
G01Y17982*
G03X17521Y18031I88*
G02X17516Y18048I24J17*
X17545Y18077I29*
G01X17748*
G02X17768Y18069J29*
G03X17901Y18018I133J146*
X18068Y18112J197*
G02X18094Y18126I26J15*
G01X18557*
G02X18582Y18113J29*
G03X18584Y18109I66J43*
G02X18590Y18092I24J17*
X18589Y18087I30*
G03Y18077I59J10*
G01Y17959*
G03X18648Y17900I59*
G01X19396*
G03X19455Y17959J59*
G01Y18048*
G02X19484Y18077I29*
G01X19650*
G02X19656Y18076J29*
G03X19687Y18073I31J135*
G01X19878*
G02X19904Y18057J30*
G03X19915Y18040I70J35*
G01Y17541*
G03X19974Y17482I59*
G01X20099*
Y1032*
G03X20453Y678I354*
X20807Y1032J354*
X20453Y1387I354*
X20099Y1032J355*
G01Y11032*
G03X20453Y10678I354*
X20807Y11032J354*
X20453Y11387I354*
X20099Y11032J355*
G01Y17482*
X20368*
G03X20427Y17541J59*
G01Y17778*
G03X20368Y17837I59*
G01X19974*
G03X19915Y17778J59*
G01Y18040*
G03X19974Y18014I59J52*
G01X20368*
G03X20446Y18092J78*
G01Y18310*
G02X20476Y18340I30*
X20497Y18331J30*
G01X21099Y17729*
Y1032*
G03X21453Y678I354*
X21807Y1032J354*
X21453Y1387I354*
X21099Y1032J355*
G01Y11032*
G03X21453Y10678I354*
X21807Y11032J354*
X21453Y11387I354*
X21099Y11032J355*
G01Y17729*
X21961Y16866*
G03X22024Y16841I63J63*
G01X22099*
Y1032*
G03X22453Y678I354*
X22807Y1032J354*
X22453Y1387I354*
X22099Y1032J355*
G01Y11032*
G03X22453Y10678I354*
X22807Y11032J354*
X22453Y11387I354*
X22099Y11032J355*
G01Y16841*
X22120*
G02X22149Y16811J30*
G01Y16732*
G03X22228Y16654I79*
G01X22622*
G03X22700Y16732J78*
G01Y17126*
G03X22654Y17198I78*
G02X22637Y17224I13J26*
X22654Y17251I30*
G03X22700Y17323I32J72*
G01Y17717*
G03X22654Y17788I78*
G02X22637Y17815I13J27*
X22654Y17842I30*
G03X22700Y17913I32J71*
G01Y18307*
G03X22654Y18379I78*
G02X22637Y18406I13J27*
X22654Y18432I30*
G03X22700Y18504I32J72*
G01Y18898*
G03X22654Y18969I78*
G02X22637Y18996I13J27*
X22654Y19023I30*
G03X22700Y19094I32J71*
G01Y19488*
G03X22654Y19560I78*
G02X22637Y19587I13J27*
X22654Y19613I30*
G03X22700Y19685I32J72*
G01Y20079*
G03X22654Y20150I78*
G02X22637Y20177I13J27*
X22654Y20204I30*
G03X22700Y20276I32J72*
G01Y20669*
G03X22654Y20741I78*
G02X22637Y20768I13J27*
X22654Y20795I30*
G03X22700Y20866I32J71*
G01Y21260*
G03X22654Y21331I78*
G02X22637Y21358I13J27*
X22654Y21385I30*
G03X22700Y21457I32J72*
G01Y21850*
G03X22654Y21922I78*
G02X22637Y21949I13J27*
X22654Y21976I30*
G03X22700Y22047I32J71*
G01Y22441*
G03X22654Y22513I78*
G02X22637Y22539I13J26*
X22654Y22566I30*
G03X22700Y22638I32J72*
G01Y23031*
G03X22656Y23102I78*
G02X22639Y23129I13J27*
X22657Y23156I30*
G03X22704Y23228I31J72*
G01Y23622*
G03X22626Y23701I78*
G01X22232*
G03X22153Y23622J79*
G01Y23542*
G02X22129Y23513I29*
G03X22081Y23488I14J88*
G01X20773Y22180*
G03X20747Y22118I63J62*
G01Y21813*
G02X20738Y21792I29*
G01X20014Y21068*
G02X19993Y21059I21J21*
G01X19502*
G02X19473Y21089J30*
Y21094I29*
G03X19474Y21109I77J15*
G01Y21227*
G03X19469Y21255I78*
G02X19467Y21266I27J11*
X19469Y21277I29*
G03X19474Y21305I73J28*
G01Y21423*
G03X19469Y21452I78*
G02X19467Y21463I27J11*
X19469Y21474I29*
G03X19474Y21502I73J28*
G01Y21620*
G03X19469Y21649I78*
G02X19467Y21660I27J11*
X19469Y21670I29*
G03X19474Y21699I73J29*
G01Y21817*
G03X19469Y21846I78*
G02X19467Y21857I27J11*
X19469Y21867I29*
G03X19474Y21896I73J29*
G01Y22014*
G03X19469Y22043I78*
G02X19467Y22053I27J10*
X19469Y22064I29*
G03X19474Y22093I73J29*
G01Y22211*
G03X19473Y22225I78*
G02Y22231I29J6*
X19502Y22260I29*
G01X19688*
G03X19704Y22261J89*
G02X19709Y22262I5J29*
G01X19874*
G02X19904Y22232J30*
G03X19923Y22180I79*
G01Y21681*
G03X19983Y21622I60*
G01X20376*
G03X20435Y21681J59*
G01Y21917*
G03X20376Y21977I59*
G01X19983*
G03X19923Y21917J60*
G01Y22180*
G03X19983Y22154I60J52*
G01X20376*
G03X20455Y22232J78*
G01Y22469*
G03X20376Y22547I79*
G01X19983*
G03X19904Y22469J78*
G02X19874Y22439I30*
G01X19690*
G03X19674Y22438J88*
G02X19669Y22437I5J29*
G01X19486*
G02X19462Y22451J30*
G03X19459Y22454I66J43*
G02X19453Y22472I24J18*
X19454Y22477I30*
G03X19455Y22486I58J9*
G01Y22605*
G03X19454Y22614I59*
G02X19453Y22619I29J5*
X19459Y22637I30*
G03X19474Y22683I63J46*
G01Y22791*
G02X19504Y22820I30*
X19528Y22808J29*
G03X19686Y22728I158J117*
X19854Y22822J197*
G02X19879Y22837I25J15*
G01X19882*
G02X19911Y22808J30*
G03X19990Y22733I79J4*
G01X20383*
G03X20462Y22812J79*
G01Y23048*
G03X20383Y23127I79*
G01X19990*
G03X19911Y23048J79*
G01Y23047*
G02X19886Y23018I30*
G03X19883Y23017I13J88*
G02X19877I6J29*
X19852Y23030J29*
G03X19832Y23058I166J105*
G02X19824Y23078I21J20*
G01Y23549*
G03X19784Y23647I138*
G01X19749Y23682*
G02X19740Y23703I21J21*
G01Y23879*
G02X19749Y23900I30*
G01X19931Y24082*
Y23363*
G03X19990Y23304I59*
G01X20383*
G03X20442Y23363J59*
G01Y23599*
G03X20383Y23659I59*
G01X19990*
G03X19931Y23599J60*
G01Y24082*
X21588Y25739*
G03X21628Y25836I98J97*
G01Y26671*
G02X21637Y26692I29*
G01X21772Y26827*
G03X21812Y26925I97J98*
G01Y27319*
G02X21813Y27323I30*
G03X21814Y27341I137J18*
G01Y27370*
G02X21843Y27400I29*
G01X21873*
G03X21943Y27443J78*
G02X21969Y27459I26J14*
G01X22074*
G03X22140Y27476J138*
G02X22154Y27479I14J26*
G01X22199*
G02X22226Y27463J29*
G03X22296Y27420I70J36*
G01X22541*
Y25345*
G03X22816Y25070I275*
X23092Y25345J275*
X22816Y25621I276*
X22541Y25345J276*
G01Y27420*
X22690*
G03X22768Y27499J79*
G01Y27735*
G03X22690Y27814I78*
G01X22296*
G03X22226Y27771J79*
G02X22199Y27755I27J14*
G01X22095*
G03X22028Y27738J138*
G02X22014Y27734I14J26*
G01X21969*
G02X21943Y27751J30*
G03X21873Y27793I70J36*
G01X21479*
G03X21400Y27715J78*
G01Y27478*
G03X21479Y27400I79*
G01X21509*
G02X21538Y27370J30*
G01Y27361*
G02Y27357I29*
G03X21537Y27339I137J18*
G01Y26994*
G02X21528Y26973I30*
G01X21442Y26887*
G02X21421Y26878I21J21*
G01X21016*
G02X20986Y26908J30*
X21011Y26937I30*
G03X21057Y26961I17J87*
G01X21092Y26996*
G02X21112Y27004I20J21*
X21119J29*
G03X21165Y26998I46J191*
X21362Y27195J197*
X21268Y27363I197*
G02X21254Y27388I16J25*
G01Y27473*
G02Y27476I30*
G03X21255Y27485I88J9*
G01Y27883*
G02X21263Y27904I29*
G01X21361Y28002*
G02X21382Y28011I21J21*
X21409Y27994J30*
G03X21479Y27951I70J36*
G01X21579*
G02X21591Y27949J30*
G03X21676Y27931I85J199*
X21761Y27949J217*
G02X21772Y27951I11J28*
G01X21873*
G03X21951Y28030J79*
G01Y28266*
G03X21909Y28336I78*
G02X21892Y28362I13J26*
G01Y29689*
G02X21893Y29693I30*
G03X21895Y29724I215J31*
G01Y29788*
G02X21906Y29812I29*
G03X22052Y30108I228J296*
X21678Y30482I374*
X21304Y30108J374*
X21450Y29812I374*
G02X21462Y29788I18J24*
G01Y29757*
G02Y29752I30*
G03X21459Y29722I214J30*
G01Y28362*
G02X21443Y28336I29*
G03X21400Y28266I36J70*
G01Y28265*
G02X21374Y28236I29*
G03X21319Y28210I8J88*
G01X21103Y27995*
G03X21078Y27932I63J63*
G01Y27642*
G02X21048Y27613I30*
X21022Y27628J29*
G03X20849Y27731I173J94*
X20652Y27534J197*
X20658Y27488I197*
G02X20659Y27481I29J7*
X20650Y27460I30*
G01X20468Y27278*
G02X20448Y27270I20J21*
G01X20235*
G02X20217Y27276J29*
G03X20150Y27299I67J85*
G01X19883*
G02X19853Y27329J30*
G01Y27597*
G03X19830Y27664I108*
G02X19823Y27682I23J18*
G01Y27742*
G02X19837Y27767I30*
G03X19931Y27935I103J168*
X19879Y28067I197*
G02X19872Y28087I22J20*
G01Y28142*
G02X19875Y28155I29*
G03X19895Y28246I197J91*
G01Y29788*
G02X19906Y29812I29*
G03X20052Y30108I228J296*
X19906Y30404I374*
G02X19895Y30428I18J24*
G01Y30753*
G03X19678Y30970I217*
X19670J217*
G01X19669*
G02X19648Y30978J29*
G01X19540Y31086*
G03X19443Y31127I97J97*
G01X15681*
G03X15583Y31086J138*
G01X15338Y30841*
G03X15297Y30743I97J98*
G01Y30636*
G02X15270Y30607I29*
G03X15199Y30528I8J79*
G01Y30499*
G02X15169Y30469I30*
G01X14715*
G03X14618Y30429J137*
G01X14444Y30255*
G02X14423Y30247I21J21*
G01X14038*
G02X14009Y30276J29*
G01Y30719*
G03X13930Y30798I79*
G01X13615*
G03X13540Y30743J79*
G02X13512Y30723I28J10*
X13485Y30741J30*
G03X13430Y30778I55J22*
G01X13115*
G03X13056Y30719J59*
G01Y29499*
G03X13115Y29440I59*
G01X13430*
G03X13485Y29476J59*
G02X13512Y29495I27J11*
X13540Y29474J30*
G03X13615Y29420I75J25*
G01X13930*
G03X14009Y29499J79*
G01Y29942*
G02X14038Y29971I29*
G01X14492*
G03X14590Y30011J138*
G01X14764Y30185*
G02X14784Y30194I20J21*
G01X14930*
Y28878*
G03X15009Y28799I79*
G01X15402*
G03X15481Y28878J79*
G01Y29114*
G03X15402Y29193I79*
G01X15392*
G02X15363Y29223J30*
X15371Y29243I29*
G01X15454Y29326*
G02X15465Y29333I21J21*
G03X15522Y29401I30J83*
G02X15551Y29426I29J4*
G01X15592*
G03X15664Y29472J79*
G02X15691Y29489I27J12*
X15718Y29472J29*
G03X15789Y29426I71J33*
G01X15830*
G02X15859Y29401J29*
G03X15884Y29354I88J15*
G01X15901Y29337*
G02X15910Y29316I21J21*
G01Y29210*
G02X15880Y29180I30*
G01X15801*
G03X15723Y29101J79*
G01Y28865*
G03X15801Y28786I78*
G01X16195*
G03X16274Y28865J79*
G01Y29101*
G03X16195Y29180I79*
G01X16116*
G02X16087Y29210J30*
G01Y29365*
G03X16084Y29389I89*
G02X16082Y29397I28J8*
X16110Y29426I30*
G03X16183Y29505I6J79*
G01Y29899*
G03X16104Y29977I79*
G01X15789*
G03X15718Y29931J78*
G02X15691Y29914I27J13*
X15664Y29931J30*
G03X15592Y29977I72J32*
G01X15278*
G03X15199Y29899J78*
G01Y29505*
G03X15250Y29431I79*
G02X15269Y29404I11J27*
X15260Y29383I30*
G01X15143Y29266*
G03X15118Y29218I63J63*
G02X15089Y29193I29J5*
G01X15009*
G03X14930Y29114J79*
G01Y30194*
X15169*
G02X15199Y30164J30*
G01Y30135*
G03X15278Y30056I79*
G01X15592*
G03X15664Y30102J79*
G02X15691Y30119I27J12*
X15718Y30102J29*
G03X15789Y30056I71J33*
G01X16104*
G03X16183Y30135J79*
G01Y30213*
G02X16213Y30243I30*
G01X16305*
G02X16326Y30234J30*
G01X16657Y29904*
G02X16665Y29883I21J21*
G01Y29243*
G02X16636Y29213I29*
G01X16557*
G03X16478Y29135J78*
G01Y28898*
G03X16557Y28820I79*
G01X16951*
G03X17030Y28898J78*
G01Y29135*
G03X16951Y29213I79*
G01X16872*
G02X16843Y29243J30*
G01Y29932*
G03X16817Y29994I89*
G01X16417Y30394*
G03X16354Y30420I63J62*
G01X16213*
G02X16183Y30450J30*
G01Y30528*
G03X16104Y30607I79*
G01X15789*
G03X15718Y30561J79*
G02X15691Y30544I27J13*
X15664Y30561J30*
G03X15600Y30607I72J33*
G02X15573Y30636I2J29*
G01Y30674*
G02X15581Y30695I29*
G01X15729Y30842*
G02X15750Y30851I21J20*
G01X17321*
Y26515*
G03X17380Y26456I59*
G01X17616*
G03X17675Y26515J59*
G01Y26909*
G03X17616Y26968I59*
G01X17380*
G03X17321Y26909J59*
G01Y30851*
X18265*
Y30108*
G03X18678Y29695I413*
X19092Y30108J413*
X18678Y30521I414*
X18265Y30108J413*
G01Y30851*
X19373*
G02X19394Y30842J29*
G01X19453Y30783*
G02X19462Y30763I21J20*
G01Y30761*
G03Y30753I216J8*
G01Y30428*
G02X19450Y30404I30*
G03X19304Y30108I228J296*
X19450Y29812I374*
G02X19462Y29788I18J24*
G01Y28246*
G03X19544Y28076I216*
G02X19556Y28053I18J23*
X19526Y28023I30*
G01X18678*
G03X18616Y27997J88*
G01X18175Y27557*
G03X18149Y27494I63J63*
G01Y27107*
G03X18175Y27045I89*
G01X18182Y27038*
G02X18191Y27017I21J21*
X18161Y26987I30*
G01X17931*
G03X17852Y26909J78*
G01Y26515*
G03X17931Y26436I79*
G01X18136*
Y24736*
G03X18195Y24677I59*
G01X18431*
G03X18490Y24736J59*
G01Y25129*
G03X18431Y25189I59*
G01X18195*
G03X18136Y25129J60*
G01Y26436*
X18167*
G03X18246Y26515J79*
G01Y26594*
G02X18275Y26623I29*
G01X18316*
G02X18323Y26622J29*
G03X18342Y26620I19J87*
G01X18416*
Y25417*
G03X18475Y25358I59*
G01X18633*
G03X18692Y25417J59*
G01Y25692*
G03X18633Y25751I59*
G01X18475*
G03X18416Y25692J59*
G01Y26620*
X18430*
G02X18459Y26591J29*
X18458Y26583I29*
G03X18455Y26561I86J22*
G01Y26541*
G03X18461Y26510I89*
G02X18463Y26500I28J10*
X18455Y26479I30*
G03X18424Y26404I77J75*
G01Y26384*
G03X18532Y26276I108*
G01X18800*
G02X18829Y26246J30*
G01Y25978*
G03X18853Y25912I109*
G02X18859Y25893I24J19*
G01Y25860*
G03Y25856I89*
G01Y25855*
Y25793*
G02X18840Y25766I29*
G03X18790Y25692I29J74*
G01Y25417*
G03X18794Y25392I79*
G02X18796Y25383I28J9*
X18787Y25362I30*
G01X18767Y25342*
G03X18727Y25245I97J97*
G01Y25226*
G02X18710Y25200I30*
G03X18667Y25129I36J71*
G01Y24736*
G03X18710Y24666I79*
G02X18727Y24639I13J27*
G01Y24371*
G03X18767Y24274I137*
G01X19190Y23851*
G03X19287Y23810I97J97*
G01X19435*
G02X19464Y23781J29*
G01Y23633*
G03X19505Y23536I138*
G01X19540Y23501*
G02X19548Y23480I21J21*
G01Y23078*
G02X19541Y23058I29*
G03X19518Y23028I145J133*
G02X19493Y23014I25J15*
G01X19057*
G03X18994Y22988J89*
G01X18959Y22953*
G03X18934Y22905I63J63*
G02X18905Y22880I29J5*
G01X18648*
G03X18569Y22801J79*
G01Y22683*
G03X18584Y22637I79*
G02X18590Y22619I24J18*
X18589Y22614I30*
G03Y22605I59J9*
G01Y22486*
G03Y22477I59*
G02X18590Y22472I29J5*
X18584Y22454I30*
G03X18569Y22408I64J46*
G01Y22290*
G03X18574Y22261I79*
G02X18576Y22250I27J11*
X18574Y22240I29*
G03X18569Y22211I74J29*
G01Y22093*
G03X18570Y22078I79*
G02X18571Y22073I29J5*
X18541Y22044I30*
G01X15490*
G03X15427Y22018J89*
G01X14960Y21550*
G03X14934Y21488I63J62*
G01Y20410*
G02X14926Y20389I29*
G01X14224Y19688*
G02X14203Y19679I21J21*
X14196Y19680J30*
G03X14150Y19686I46J191*
X13953Y19489J197*
X14150Y19292I197*
X14347Y19489J197*
X14342Y19535I197*
G02X14341Y19542I28J7*
X14349Y19563I29*
G01X15085Y20299*
G03X15111Y20361I62J62*
G01Y21439*
G02X15120Y21460I30*
G01X15518Y21858*
G02X15539Y21866I21J21*
G01X16155*
G02X16185Y21837J29*
X16175Y21815I30*
G03X16111Y21670I133J145*
X16308Y21473I197*
X16440Y21524J197*
G02X16460Y21532I20J22*
G01X17681*
G02X17702Y21523J30*
G01X17723Y21502*
G02X17731Y21483I21J21*
G03X17928Y21295I197J9*
X18125Y21492J197*
X17937Y21689I197*
G02X17918Y21697I2J29*
G01X17848Y21767*
G03X17756Y21807I98J97*
G02X17728Y21837I2J30*
X17758Y21866I30*
G01X18541*
G02X18571Y21837J29*
X18570Y21832I30*
G03X18569Y21817I78J15*
G01Y21699*
G03X18574Y21670I79*
G02X18576Y21660I27J10*
X18574Y21649I29*
G03X18569Y21620I74J29*
G01Y21502*
G03X18574Y21474I79*
G02X18576Y21463I27J11*
X18574Y21452I29*
G03X18569Y21423I74J29*
G01Y21305*
G03X18574Y21277I79*
G02X18576Y21266I27J11*
X18574Y21255I29*
G03X18569Y21227I74J28*
G01Y21109*
G03X18574Y21080I79*
G02X18576Y21069I27J11*
X18574Y21058I29*
G03X18569Y21030I74J28*
G01Y20912*
G03X18574Y20883I79*
G02X18576Y20872I27J11*
X18574Y20862I29*
G03X18569Y20833I74J29*
G01Y20715*
G03X18574Y20686I79*
G02X18576Y20675I27J11*
X18574Y20665I29*
G03X18569Y20636I74J29*
G01Y20518*
G03X18574Y20489I79*
G02X18576Y20479I27J10*
X18574Y20468I29*
G03X18569Y20439I74J29*
G01Y20321*
G03X18574Y20292I79*
G02X18576Y20282I27J10*
X18574Y20271I29*
G03X18569Y20242I74J29*
G01Y20124*
G03X18574Y20096I79*
G02X18576Y20085I27J11*
X18574Y20074I29*
G03X18569Y20046I74J28*
G01Y19927*
G03X18574Y19899I79*
G02X18576Y19888I27J11*
X18574Y19877I29*
G03X18569Y19849I74J28*
G01Y19731*
G03X18574Y19702I79*
G02X18576Y19691I27J11*
X18574Y19680I29*
G03X18569Y19652I74J28*
G01Y19534*
G03X18574Y19505I79*
G02X18576Y19494I27J11*
X18574Y19484I29*
G03X18569Y19455I74J29*
G01Y19337*
G03X18574Y19308I79*
G02X18576Y19298I27J10*
X18574Y19287I29*
G03X18569Y19258I74J29*
G01Y19140*
G03X18570Y19126I79*
G02X18571Y19120I29J6*
X18541Y19091I30*
G01X17836*
G03X17788Y19077J89*
G02X17772Y19072I16J24*
G01X17080*
G02X17055Y19086J29*
G03X16887Y19180I168J103*
X16690Y18983J197*
X16862Y18788I197*
G02X16888Y18759I4J29*
X16880Y18739I30*
G03X16830Y18609I147J130*
X17027Y18412I197*
X17195Y18506J197*
G02X17220Y18520I25J16*
G01X18541*
G02X18571Y18490J30*
X18570Y18485I30*
G03X18569Y18471I78J14*
G01Y18353*
G03X18570Y18338I79*
G02X18571Y18333I29J5*
X18541Y18303I30*
G01X18094*
G02X18068Y18318J30*
G03X17901Y18412I167J103*
X17768Y18360J197*
G02X17748Y18353I20J22*
G01X16926*
G02X16905Y18361J29*
G01X15777Y19490*
G03X15680Y19530I97J98*
G01X14958*
G02X14938Y19538J30*
G03X14805Y19589I133J146*
X14609Y19392J197*
X14703Y19224I196*
G02X14717Y19199I16J25*
G01Y18686*
G02X14708Y18666I30*
G01X14628Y18586*
G03X14602Y18523I63J63*
G01Y17908*
G02X14573Y17878I29*
X14567Y17879J30*
G03X14553Y17880I14J78*
G01X14435*
G03X14406Y17875J79*
G02X14396Y17873I10J27*
X14385Y17875J29*
G03X14356Y17880I29J74*
G01X14238*
G03X14210Y17875J79*
G02X14199Y17873I11J27*
X14188Y17875J29*
G03X14159Y17880I29J74*
G01X14041*
G03X14013Y17875J79*
G02X14002Y17873I11J27*
X13991Y17875J29*
G03X13963Y17880I28J74*
G01X13844*
G03X13816Y17875J79*
G02X13805Y17873I11J27*
X13794Y17875J29*
G03X13766Y17880I28J74*
G01X13648*
G03X13569Y17801J79*
G01Y17053*
G03X13605Y16987I79*
G02X13618Y16963I16J24*
G01Y15905*
G02X13609Y15884I29*
G01X12384Y14659*
G03X12358Y14596I62J63*
G01Y12769*
G02X12328Y12739I30*
G01X12250*
G03X12171Y12661J78*
G01Y12425*
G03X12250Y12346I79*
G01X12643*
G03X12722Y12425J79*
G01Y12661*
G03X12643Y12739I79*
G01X12565*
G02X12535Y12769J30*
G01Y14547*
G02X12544Y14568I30*
G01X13099Y15123*
Y11032*
G03X13453Y10678I354*
X13807Y11032J354*
X13453Y11387I354*
X13099Y11032J355*
G01Y15123*
X13765Y15789*
G02X13785Y15797I20J21*
X13815Y15768J29*
G01Y14714*
G02X13806Y14694I30*
G01X13413Y14300*
G03X13387Y14238I63J62*
G01Y13825*
G03X13413Y13762I89*
G01X13859Y13316*
G02X13868Y13295I21J21*
G01Y9562*
G02X13859Y9541I30*
G01X9390Y5072*
G03X9364Y5009I63J63*
G01Y2579*
G02X9335Y2550I29*
G01X9256*
G03X9177Y2471J79*
G01Y4167*
G03X9208Y4272I166J105*
X9011Y4469I197*
X8814Y4272J197*
X8819Y4226I197*
G02X8820Y4219I28J7*
X8812Y4198I29*
G01X8392Y3779*
G03X8366Y3716I63J63*
G01Y2579*
G02X8337Y2550I29*
G01X8258*
G03X8179Y2471J79*
G01Y10807*
G03X8453Y10678I274J225*
X8807Y11032J354*
X8453Y11387I354*
X8099Y11032J355*
G01Y17500*
X8811*
G03X8870Y17559J59*
G01Y17697*
G03X8863Y17725I59*
G02X8860Y17739I26J14*
X8868Y17760I29*
G03X8882Y17779I57J55*
G02X8908Y17795I26J13*
G01X9099*
Y11032*
G03X9453Y10678I354*
X9807Y11032J354*
X9607Y11351I354*
G02X9591Y11378I13J27*
G01Y11765*
G02X9620Y11795I29*
G01X9647*
G03X9725Y11873J78*
G01Y12110*
G03X9647Y12188I78*
G01X9253*
G03X9174Y12110J78*
G01Y11873*
G03X9253Y11795I79*
G01X9286*
G02X9315Y11765J30*
G01Y11378*
G02X9298Y11351I29*
G03X9099Y11032I155J319*
G01Y17795*
X9174*
Y12425*
G03X9253Y12346I79*
G01X9647*
G03X9725Y12425J79*
G01Y12661*
G03X9647Y12739I78*
G01X9568*
G02X9538Y12769J30*
G01Y13250*
G02X9552Y13275I30*
G03X9647Y13443I102J168*
X9450Y13640I197*
X9253Y13443J197*
X9347Y13275I197*
G02X9361Y13250I15J25*
G01Y12769*
G02X9332Y12739I29*
G01X9253*
G03X9174Y12661J78*
G01Y17795*
X10012*
G02X10033Y17787J29*
G01X10059Y17761*
Y11032*
G03X10453Y10639I394*
X10847Y11032J393*
X10453Y11426I394*
X10059Y11032J394*
G01Y17761*
X10750Y17070*
G03X10813Y17044I63J62*
G01X10833*
G02X10858Y17030J30*
G03X11026Y16935I168J102*
X11123Y16961J197*
G02X11138Y16965I15J25*
X11167Y16936J29*
X11159Y16915I29*
G01X11091Y16847*
G02X11071Y16839I20J21*
G01X10677*
G02X10656Y16847J29*
G01X10521Y16983*
G02X10512Y17002I21J21*
G03X10315Y17190I197J9*
X10119Y16993J197*
X10306Y16797I196*
G02X10326Y16788I1J30*
G01X10510Y16604*
G03X10608Y16563I98J97*
G01X11099*
Y11032*
G03X11453Y10678I354*
X11807Y11032J354*
X11607Y11351I354*
G02X11591Y11378I13J27*
G01Y11765*
G02X11620Y11795I29*
G01X11654*
G03X11733Y11873J78*
G01Y12110*
G03X11654Y12188I79*
G01X11260*
G03X11182Y12110J78*
G01Y11873*
G03X11260Y11795I78*
G01X11286*
G02X11315Y11765J30*
G01Y11378*
G02X11298Y11351I29*
G03X11099Y11032I155J319*
G01Y16563*
X11140*
G03X11182Y16570J138*
G01Y12425*
G03X11260Y12346I78*
G01X11654*
G03X11733Y12425J79*
G01Y12661*
G03X11654Y12739I79*
G01X11575*
G02X11546Y12769J30*
G01Y13855*
G03X11545Y13870I89*
G02X11544Y13875I29J5*
X11558Y13900I30*
G03X11649Y14066I106J166*
X11452Y14263I197*
X11255Y14066J197*
X11350Y13898I197*
G02X11364Y13873I16J25*
G01Y13860*
G03X11367Y13834I88*
G02X11369Y13826I28J8*
G01Y12769*
G02X11339Y12739I30*
G01X11260*
G03X11182Y12661J78*
G01Y16570*
G03X11237Y16604I42J131*
G01X11476Y16842*
G02X11496Y16850I20J21*
G01X11641*
G02X11668Y16834J29*
G03X11679Y16818I70J36*
G01Y16319*
G03X11738Y16260I59*
G01X12099*
Y11032*
G03X12453Y10678I354*
X12807Y11032J354*
X12607Y11351I354*
G02X12591Y11378I13J27*
G01Y11765*
G02X12620Y11795I29*
G01X12643*
G03X12722Y11873J78*
G01Y12110*
G03X12643Y12188I79*
G01X12250*
G03X12171Y12110J78*
G01Y11873*
G03X12250Y11795I79*
G01X12286*
G02X12315Y11765J30*
G01Y11378*
G02X12298Y11351I29*
G03X12099Y11032I155J319*
G01Y16260*
X12132*
G03X12191Y16319J59*
G01Y16555*
G03X12132Y16614I59*
G01X11738*
G03X11679Y16555J59*
G01Y16818*
G03X11738Y16791I59J52*
G01X12132*
G03X12202Y16834J79*
G02X12228Y16850I26J13*
G01X12850*
G03X12947Y16891J138*
G01X13213Y17157*
G03X13253Y17254I98J97*
G01Y17851*
G02X13283Y17880I30*
G01X13490*
G03X13569Y17959J79*
G01Y18077*
G03X13554Y18124I79*
G02X13548Y18141I23J17*
Y18146I29*
G03X13549Y18156I58J10*
G01Y18274*
G03X13548Y18284I59*
G02Y18289I29J5*
X13554Y18306I29*
G03X13569Y18353I64J47*
G01Y18471*
G03X13563Y18499I79*
G02X13561Y18510I28J11*
X13563Y18521I30*
G03X13569Y18549I73J28*
G01Y18668*
G03X13563Y18696I79*
G02X13561Y18707I28J11*
X13563Y18718I30*
G03X13569Y18746I73J28*
G01Y18864*
G03X13563Y18893I79*
G02X13561Y18904I28J11*
X13563Y18915I30*
G03X13569Y18943I73J28*
G01Y19061*
G03X13563Y19090I79*
G02X13561Y19101I28J11*
X13563Y19111I30*
G03X13569Y19140I73J29*
G01Y19258*
G03X13563Y19287I79*
G02X13561Y19298I28J11*
X13563Y19308I30*
G03X13569Y19337I73J29*
G01Y19455*
G03X13563Y19484I79*
G02X13561Y19494I28J10*
X13563Y19505I30*
G03X13569Y19534I73J29*
G01Y19652*
G03X13563Y19680I79*
G02X13561Y19691I28J11*
X13563Y19702I30*
G03X13569Y19731I73J29*
G01Y19849*
G03X13563Y19877I79*
G02X13561Y19888I28J11*
X13563Y19899I30*
G03X13569Y19927I73J28*
G01Y20046*
G03X13563Y20074I79*
G02X13561Y20085I28J11*
X13563Y20096I30*
G03X13569Y20124I73J28*
G01Y20242*
G03X13568Y20257I79*
G02X13567Y20262I29J5*
X13597Y20292I30*
G01X14145*
G03X14208Y20318J88*
G01X14582Y20692*
G03X14608Y20755I63J63*
G01Y21714*
G02X14622Y21740I30*
G03X14716Y21908I103J168*
X14519Y22104I197*
X14389Y22055J196*
G02X14369Y22047I20J22*
X14353Y22052J30*
G01X14346Y22057*
G02X14332Y22081I16J24*
X14334Y22091I30*
G03X14343Y22152I187J61*
X14147Y22349I196*
X13950Y22152J197*
X14044Y21984I197*
G02X14058Y21959I15J25*
G01Y20743*
G02X14049Y20722I29*
G01X14002Y20674*
G02X13981Y20666I21J21*
G01X13597*
G02X13567Y20695J29*
X13568Y20701I30*
G03X13569Y20715I78J14*
G01Y20833*
G03X13563Y20862I79*
G02X13561Y20872I28J10*
X13563Y20883I30*
G03X13569Y20912I73J29*
G01Y21030*
G03X13563Y21058I79*
G02X13561Y21069I28J11*
X13563Y21080I30*
G03X13569Y21109I73J29*
G01Y21227*
G03X13563Y21255I79*
G02X13561Y21266I28J11*
X13563Y21277I30*
G03X13569Y21305I73J28*
G01Y21423*
G03X13563Y21452I79*
G02X13561Y21463I28J11*
X13563Y21474I30*
G03X13569Y21502I73J28*
G01Y21620*
G03X13563Y21649I79*
G02X13561Y21660I28J11*
X13563Y21670I30*
G03X13569Y21699I73J29*
G01Y21817*
G03X13563Y21846I79*
G02X13561Y21857I28J11*
X13563Y21867I30*
G03X13569Y21896I73J29*
G01Y22014*
G03X13563Y22043I79*
G02X13561Y22053I28J10*
X13563Y22064I30*
G03X13569Y22093I73J29*
G01Y22211*
G03X13563Y22240I79*
G02X13561Y22250I28J10*
X13563Y22261I30*
G03X13569Y22290I73J29*
G01Y22408*
G03X13563Y22436I79*
G02X13561Y22447I28J11*
X13563Y22458I30*
G03X13569Y22486I73J28*
G01Y22605*
G03X13563Y22633I79*
G02X13561Y22644I28J11*
X13563Y22655I30*
G03X13569Y22683I73J28*
G01Y22801*
G03X13490Y22880I79*
G01X13234*
G02X13205Y22910J30*
G01Y23569*
G02X13234Y23599I29*
X13259Y23586J30*
G03X13320Y23527I163J109*
G02X13334Y23502I16J25*
G01Y23470*
G03X13360Y23407I88*
G01X13496Y23270*
G03X13544Y23246I63J63*
G02X13569Y23216I5J30*
G01Y22959*
G03X13648Y22880I79*
G01X13766*
G03X13812Y22895J79*
G02X13830Y22901I18J23*
X13835J29*
G03X13844Y22900I9J58*
G01X13963*
G03X13972Y22901J59*
G02X13977I5J29*
X13995Y22895J29*
G03X14041Y22880I46J64*
G01X14159*
G03X14188Y22886J79*
G02X14199Y22888I11J28*
X14210Y22886J30*
G03X14238Y22880I28J73*
G01X14356*
G03X14385Y22886J79*
G02X14396Y22888I11J28*
X14406Y22886J30*
G03X14435Y22880I29J73*
G01X14553*
G03X14582Y22886J79*
G02X14592Y22888I10J28*
X14603Y22886J30*
G03X14632Y22880I29J73*
G01X14750*
G03X14779Y22886J79*
G02X14789Y22888I10J28*
X14800Y22886J30*
G03X14829Y22880I29J73*
G01X14947*
G03X14975Y22886J79*
G02X14986Y22888I11J28*
X14997Y22886J30*
G03X15026Y22880I29J73*
G01X15144*
G03X15172Y22886J79*
G02X15183Y22888I11J28*
X15194Y22886J30*
G03X15222Y22880I28J73*
G01X15341*
G03X15369Y22886J79*
G02X15380Y22888I11J28*
X15391Y22886J30*
G03X15419Y22880I28J73*
G01X15537*
G03X15566Y22886J79*
G02X15577Y22888I11J28*
X15587Y22886J30*
G03X15616Y22880I29J73*
G01X15734*
G03X15763Y22886J79*
G02X15774Y22888I11J28*
X15784Y22886J30*
G03X15813Y22880I29J73*
G01X15931*
G03X15960Y22886J79*
G02X15970Y22888I10J28*
X15981Y22886J30*
G03X16010Y22880I29J73*
G01X16128*
G03X16157Y22886J79*
G02X16167Y22888I10J28*
X16178Y22886J30*
G03X16207Y22880I29J73*
G01X16325*
G03X16353Y22886J79*
G02X16364Y22888I11J28*
X16375Y22886J30*
G03X16403Y22880I28J73*
G01X16522*
G03X16550Y22886J79*
G02X16561Y22888I11J28*
X16572Y22886J30*
G03X16600Y22880I28J73*
G01X16718*
G03X16747Y22886J79*
G02X16758Y22888I11J28*
X16769Y22886J30*
G03X16797Y22880I28J73*
G01X16915*
G03X16944Y22886J79*
G02X16955Y22888I11J28*
X16965Y22886J30*
G03X16994Y22880I29J73*
G01X17112*
G03X17141Y22886J79*
G02X17152Y22888I11J28*
X17162Y22886J30*
G03X17191Y22880I29J73*
G01X17309*
G03X17338Y22886J79*
G02X17348Y22888I10J28*
X17359Y22886J30*
G03X17388Y22880I29J73*
G01X17506*
G03X17534Y22886J79*
G02X17545Y22888I11J28*
X17556Y22886J30*
G03X17585Y22880I29J73*
G01X17703*
G03X17731Y22886J79*
G02X17742Y22888I11J28*
X17753Y22886J30*
G03X17781Y22880I28J73*
G01X17900*
G03X17914Y22881J79*
G02X17919Y22882I5J29*
X17949Y22852J30*
G01Y22761*
G02X17940Y22740I30*
G01X17774Y22575*
G02X17753Y22566I21J21*
G01X15376*
G02X15351Y22580J30*
G03X15183Y22674I168J103*
X14986Y22477J197*
X15183Y22281I197*
X15351Y22375J196*
G02X15376Y22389I25J16*
G01X17802*
G03X17865Y22415J88*
G01X18100Y22650*
G03X18126Y22712I63J62*
G01Y22852*
G02X18155Y22882I29*
X18161Y22881J30*
G03X18175Y22880I14J78*
G01X18293*
G03X18322Y22886J79*
G02X18333Y22888I11J28*
X18343Y22886J30*
G03X18372Y22880I29J73*
G01X18490*
G03X18569Y22959J79*
G01Y23707*
G03X18490Y23786I79*
G01X18372*
G03X18343Y23780J79*
G02X18333Y23778I10J28*
X18322Y23780J30*
G03X18293Y23786I29J73*
G01X18175*
G03X18147Y23780J79*
G02X18136Y23778I11J28*
X18125Y23780J30*
G03X18096Y23786I29J73*
G01X17978*
G03X17950Y23780J79*
G02X17939Y23778I11J28*
X17928Y23780J30*
G03X17900Y23786I28J73*
G01X17781*
G03X17753Y23780J79*
G02X17742Y23778I11J28*
X17731Y23780J30*
G03X17703Y23786I28J73*
G01X17585*
G03X17556Y23780J79*
G02X17545Y23778I11J28*
X17534Y23780J30*
G03X17506Y23786I28J73*
G01X17388*
G03X17359Y23780J79*
G02X17348Y23778I11J28*
X17338Y23780J30*
G03X17309Y23786I29J73*
G01X17191*
G03X17162Y23780J79*
G02X17152Y23778I10J28*
X17141Y23780J30*
G03X17112Y23786I29J73*
G01X16994*
G03X16980Y23784J79*
G02X16974I6J29*
X16945Y23813J29*
G01Y24288*
G02X16953Y24308I29*
G01X17535Y24890*
G02X17556Y24898I21J21*
X17562Y24897J29*
G03X17609Y24892I47J192*
X17805Y25089J197*
X17668Y25277I196*
G02X17647Y25305I9J28*
X17674Y25334I30*
G03X17852Y25530I19J196*
X17655Y25727I197*
X17459Y25530J197*
X17464Y25484I196*
G02X17465Y25477I29J7*
X17456Y25456I30*
G01X16597Y24597*
G03X16571Y24534I62J63*
G01Y23813*
G02X16541Y23784I30*
X16536J29*
G03X16522Y23786I14J77*
G01X16403*
G03X16375Y23780J79*
G02X16364Y23778I11J28*
X16353Y23780J30*
G03X16325Y23786I28J73*
G01X16207*
G03X16178Y23780J79*
G02X16167Y23778I11J28*
X16157Y23780J30*
G03X16128Y23786I29J73*
G01X16010*
G03X15981Y23780J79*
G02X15970Y23778I11J28*
X15960Y23780J30*
G03X15931Y23786I29J73*
G01X15813*
G03X15784Y23780J79*
G02X15774Y23778I10J28*
X15763Y23780J30*
G03X15734Y23786I29J73*
G01X15616*
G03X15587Y23780J79*
G02X15577Y23778I10J28*
X15566Y23780J30*
G03X15537Y23786I29J73*
G01X15419*
G03X15405Y23784J79*
G02X15400I5J29*
X15370Y23813J29*
G01Y24133*
G02X15379Y24153I30*
G01X16315Y25089*
G03X16340Y25152I63J63*
G01Y27639*
G02X16349Y27660I30*
G01X16452Y27763*
G02X16473Y27771I21J21*
X16499Y27757J29*
G03X16508Y27744I68J39*
G01Y27245*
G03X16567Y27186I59*
G01X16960*
G03X17020Y27245J59*
G01Y27481*
G03X16960Y27540I60*
G01X16567*
G03X16508Y27481J59*
G01Y27744*
G03X16567Y27717I59J52*
G01X16960*
G03X17039Y27796J79*
G01Y28032*
G03X16960Y28111I79*
G01X16882*
G02X16852Y28140J29*
G01Y28239*
G02X16882Y28268I30*
G01X16951*
G03X17030Y28347J79*
G01Y28583*
G03X16951Y28662I79*
G01X16557*
G03X16478Y28583J79*
G01Y28347*
G03X16557Y28268I79*
G01X16638*
G02X16667Y28244J29*
G03X16673Y28224I87J15*
G02X16675Y28212I28J12*
G01Y28140*
G02X16645Y28111I30*
G01X16567*
G03X16488Y28032J79*
G01Y28030*
G02X16463Y28001I30*
G03X16416Y27977I15J87*
G01X16189Y27750*
G03X16163Y27688I63J62*
G01Y25201*
G02X16155Y25180I29*
G01X16137Y25162*
G02X16116Y25153I21J21*
X16086Y25183J30*
Y25186I30*
G03X16087Y25194I88J8*
G01Y28206*
G02X16116Y28235I29*
G01X16195*
G03X16274Y28314J79*
G01Y28550*
G03X16195Y28629I79*
G01X15801*
G03X15723Y28550J79*
G01Y28314*
G03X15801Y28235I78*
G01X15880*
G02X15910Y28206J29*
G01Y25243*
G02X15901Y25222I30*
G01X15345Y24666*
G02X15324Y24657I21J21*
X15294Y24687J30*
G01Y28219*
G02X15324Y28248I30*
G01X15402*
G03X15481Y28327J79*
G01Y28563*
G03X15402Y28642I79*
G01X15009*
G03X14930Y28563J79*
G01Y28327*
G03X15009Y28248I79*
G01X15087*
G02X15117Y28219J29*
G01Y24730*
G02X15108Y24709I30*
G01X14957Y24558*
G02X14936Y24549I21J21*
X14907Y24579J30*
X14908Y24588I29*
G03X14913Y24616I84J28*
G01Y25572*
G03X14887Y25635I89*
G01X13870Y26652*
G02X13861Y26673I21J21*
G01Y27792*
G02X13891Y27822I30*
G01X13930*
G03X14009Y27900J78*
G01Y29121*
G03X13930Y29199I79*
G01X13615*
G03X13548Y29162J78*
G02X13523Y29147I25J15*
X13497Y29162J30*
G03X13430Y29199I67J41*
G01X13115*
G03X13048Y29162J78*
G02X13023Y29147I25J15*
X12997Y29162J30*
G03X12930Y29199I67J41*
G01X12615*
G03X12548Y29162J78*
G02X12523Y29147I25J15*
X12497Y29162J30*
G03X12430Y29199I67J41*
G01X12115*
G03X12048Y29162J78*
G02X12023Y29147I25J15*
X11997Y29162J30*
G03X11930Y29199I67J41*
G01X11615*
G03X11536Y29121J78*
G01Y27900*
G03X11615Y27822I79*
G01X11638*
G02X11668Y27792J30*
G01Y26989*
G02X11654Y26963I30*
G03X11560Y26795I103J168*
X11757Y26599I197*
X11953Y26795J196*
X11859Y26963I196*
G02X11845Y26989I16J26*
G01Y27752*
G02X11849Y27767I30*
G03X11860Y27797I76J45*
G02X11889Y27822I29J5*
G01X11930*
G03X11997Y27859J78*
G02X12023Y27874I26J15*
X12048Y27859J30*
G03X12115Y27822I67J41*
G01X12430*
G03X12497Y27859J78*
G02X12523Y27874I26J15*
X12548Y27859J30*
G03X12615Y27822I67J41*
G01X12930*
G03X12997Y27859J78*
G02X13023Y27874I26J15*
X13048Y27859J30*
G03X13115Y27822I67J41*
G01X13154*
G02X13184Y27792J30*
G01Y25697*
G02X13175Y25676I30*
G01X13053Y25554*
G03X13028Y25492I63J62*
G01Y23410*
G02X12998Y23381I30*
X12983Y23385J29*
G03X12884Y23412I99J170*
X12687Y23224J197*
G02X12679Y23204I29J1*
G01X12639Y23164*
G02X12618Y23156I21J21*
G01X12249*
G03X12152Y23115J138*
G01X11695Y22658*
G02X11675Y22650I21J21*
G03X11487Y22453I9J197*
X11684Y22256I197*
X11881Y22444J197*
G02X11889Y22464I29J1*
G01X12297Y22872*
G02X12318Y22880I21J21*
G01X12646*
G02X12675Y22851J29*
X12672Y22837I29*
G03X12663Y22801I70J36*
G01Y22683*
G03X12669Y22655I79*
G02X12671Y22644I28J11*
X12669Y22633I30*
G03X12663Y22605I73J28*
G01Y22486*
G03X12665Y22472I79*
G02Y22467I29J5*
X12636Y22437I29*
G01X12076*
G03X12014Y22411J88*
G01X10342Y20740*
G02X10321Y20731I21J20*
X10291Y20760J29*
G01Y21155*
G02X10300Y21175I30*
G01X10775Y21651*
G02X10795Y21659I21J21*
G03X10983Y21856I9J197*
X10931Y21989I197*
G02X10924Y22009I22J20*
G01Y24189*
G02X10932Y24210I29*
G01X11442Y24721*
G03X11483Y24818I97J97*
G01Y25409*
G03X11442Y25506I138*
G01X8816Y28132*
G03X8719Y28173I97J97*
G01X8212*
G02X8192Y28180J29*
G03X8059Y28232I133J145*
X7863Y28035J197*
X7891Y27934I196*
G02X7895Y27919I26J15*
G01Y27826*
G02X7865Y27797I30*
G01X7855*
G03X7777Y27718J79*
G01Y27088*
G03X7779Y27070I78*
G02X7780Y27063I29J7*
X7771Y27042I30*
G01X7708Y26979*
G03X7682Y26916I62J63*
G01Y26734*
G02X7673Y26713I30*
G01X7295Y26335*
G03X7269Y26273I63J62*
G01Y26106*
G02X7240Y26076I29*
G03X7161Y25997J79*
G01Y25604*
G03X7235Y25525I79*
G02X7263Y25495I1J30*
X7250Y25471I29*
G03X7163Y25308I110J163*
X7217Y25172I197*
G02X7225Y25152I21J20*
X7196Y25123I29*
G01X6856*
G02X6835Y25131J29*
G01X6802Y25164*
G02X6794Y25185I21J21*
G01Y25495*
G02X6823Y25525I29*
G03X6902Y25604J79*
G01Y25997*
G03X6823Y26076I79*
G02X6794Y26106J30*
G01Y26348*
G02X6808Y26374I29*
G03X6902Y26541I103J167*
X6705Y26738I197*
X6508Y26541J197*
G01Y31378*
X7107*
Y28380*
G03X7166Y28321I59*
G01Y27088*
G03X7225Y27029I59*
G01X7580*
G03X7639Y27088J59*
G01Y27718*
G03X7580Y27777I59*
G01X7225*
G03X7166Y27718J59*
G01Y28321*
X7520*
G03X7580Y28380J59*
G01Y29010*
G03X7520Y29069I60*
G01X7166*
G03X7107Y29010J59*
G01Y31378*
X7717*
Y28380*
G03X7796Y28301I79*
G01X8150*
G03X8229Y28380J79*
G01Y29010*
G03X8150Y29089I79*
G01X8141*
G02X8111Y29118J29*
G01Y29145*
G02X8120Y29166I30*
G01X8121Y29167*
G03X8162Y29265I97J98*
G01Y29319*
G02X8169Y29339I29*
G03X8221Y29471I145J132*
X8024Y29668I197*
X7827Y29471J197*
X7872Y29346I197*
G02X7879Y29327I22J19*
X7871Y29307I29*
G03X7835Y29214I102J93*
G01Y29118*
G02X7806Y29089I29*
G01X7796*
G03X7717Y29010J79*
G01Y31378*
X11556*
Y29499*
G03X11615Y29440I59*
G01X11930*
G03X11985Y29476J59*
G02X12012Y29495I27J11*
X12040Y29474J30*
G03X12115Y29420I75J25*
G01X12430*
G03X12505Y29474J79*
G02X12533Y29495I28J9*
X12560Y29476J30*
G03X12615Y29440I55J23*
G01X12930*
G03X12989Y29499J59*
G01Y30719*
G03X12930Y30778I59*
G01X12615*
G03X12560Y30741J59*
G02X12533Y30723I27J12*
X12505Y30743J30*
G03X12430Y30798I75J24*
G01X12115*
G03X12040Y30743J79*
G02X12012Y30723I28J10*
X11985Y30741J30*
G03X11930Y30778I55J22*
G01X11615*
G03X11556Y30719J59*
G01Y31378*
X20304*
Y30108*
G03X20678Y29734I374*
X21052Y30108J374*
X20678Y30482I374*
X20304Y30108J374*
G01Y31378*
X22217*
Y28050*
G03X22296Y27972I79*
G01X22690*
G03X22768Y28050J78*
G01Y28286*
G03X22690Y28365I78*
G01X22611*
G02X22581Y28395J30*
G01Y28560*
G03Y28567I88*
G02Y28569I29J2*
G01Y28574*
G02X22595Y28599I29*
G03X22683Y28717I103J168*
G02X22707Y28739I28J8*
G03X22895Y28953I29J214*
G01Y29704*
G02X22924Y29734I29*
G01X22974*
G03X23052Y29813J79*
G01Y30403*
G03X22974Y30482I78*
G01X22383*
G03X22304Y30403J79*
G01Y29813*
G03X22383Y29734I79*
G01X22432*
G02X22462Y29704J30*
G01Y28986*
G02X22440Y28957I30*
G03X22296Y28767I52J190*
X22390Y28599I196*
G02X22404Y28574I16J25*
G01Y28561*
G03Y28554I88*
G02Y28551I29J3*
G01Y28395*
G02X22375Y28365I29*
G01X22296*
G03X22217Y28286J79*
G01Y31378*
X23099*
Y11032*
G03X23453Y10678I354*
X23807Y11032J354*
X23453Y11387I354*
X23099Y11032J355*
G01Y31378*
X23868*
G02X23898Y31348J30*
G01Y1114*
G02X23868Y1085I30*
X23839Y1108J29*
G03X23453Y1426I386J76*
X23059Y1032J394*
X23453Y639I394*
X23839Y956J393*
G02X23868Y980I29J5*
X23898Y951J29*
G01Y148*
G02X23868Y118I30*
G01X148*
G02X118Y148J30*
G01Y31348*
X636Y12938D02*
X1699D01*
Y13528*
X636*
Y12938*
Y17873D02*
X1699D01*
Y18464*
X636*
Y17873*
Y22798D02*
X1699D01*
Y23389*
X636*
Y22798*
Y27731D02*
X1699D01*
Y28321*
X636*
Y27731*
X8873Y18524D02*
G02X8877Y18540I29D01*
G03X8882Y18547I66J43*
G02X8908Y18563I26J14*
G01X9771*
G03X9834Y18589J89*
G01X10636Y19391*
G02X10657Y19400I21J20*
G01X10675*
G02X10705Y19371J29*
X10689Y19344I30*
G03X10645Y19274I35J70*
G01Y19038*
G03X10665Y18986I79*
G01Y18487*
G03X10724Y18427I59*
G01X11118*
G03X11177Y18487J60*
G01Y18723*
G03X11118Y18782I59*
G01X10724*
G03X10665Y18723J59*
G01Y18986*
G03X10724Y18959I59J52*
G01X11118*
G03X11197Y19038J79*
G02X11226Y19067I29*
G01X11303*
G03X11353Y19083J89*
G02X11370Y19088I17J25*
G01X11401*
G02X11430Y19058J30*
G01Y18507*
G03X11509Y18428I79*
G01X11903*
G03X11964Y18457J79*
G02X11987Y18468I23J18*
X12004Y18463J29*
G03X12115Y18428I111J162*
X12312Y18625J197*
X12115Y18822I197*
X12004Y18787J197*
G02X11987Y18782I17J24*
X11964Y18793J29*
G03X11903Y18822I61J50*
G01X11509*
G03X11430Y18743J79*
G01Y19058*
G03X11509Y18979I79*
G01X11903*
G03X11982Y19058J79*
G02X12011Y19088I29*
G01X12311*
G03X12363Y19105J88*
G02X12381Y19110I18J24*
G01X12636*
G02X12665Y19081J29*
Y19076I29*
G03X12663Y19061I77J15*
G01Y18943*
G03X12669Y18915I79*
G02X12671Y18904I28J11*
X12669Y18893I30*
G03X12663Y18864I73J29*
G01Y18746*
G03X12669Y18718I79*
G02X12671Y18707I28J11*
X12669Y18696I30*
G03X12663Y18668I73J28*
G01Y18549*
G03X12669Y18521I79*
G02X12671Y18510I28J11*
X12669Y18499I30*
G03X12663Y18471I73J28*
G01Y18353*
G03X12679Y18306I79*
G02X12684Y18289I24J17*
Y18284I29*
G03X12683Y18274I58J10*
G01Y18181*
G02X12653Y18151I30*
X12625Y18172J30*
G03X12439Y18307I186J62*
X12271Y18212J197*
G02X12245Y18198I26J16*
G01X12191*
G03X12174Y18197J88*
G02X12168Y18196I6J29*
G01X10792*
G02X10771Y18205J30*
G01X10517Y18458*
G03X10454Y18484I63J62*
G01X8908*
G02X8882Y18500J30*
G03X8877Y18507I71J35*
G02X8873Y18524I25J17*
G01X12671Y21660D02*
G03X12669Y21670I30D01*
G02X12663Y21699I73J29*
G01Y21817*
G02X12665Y21832I79*
G03Y21837I29J5*
X12636Y21866I29*
G01X12000*
G03X11979Y21858J29*
G01X10518Y20397*
G02X10511Y20391I63J62*
G03X10509Y20389I19J23*
G01X9477Y19357*
G02X9414Y19331I63J62*
G01X8908*
G03X8882Y19315J30*
G02X8877Y19307I71J35*
G03X8873Y19291I25J16*
X8877Y19275I29*
G02X8882Y19268I66J43*
G03X8908Y19252I26J13*
G01X9531*
G03X9552Y19261J29*
G01X10537Y20246*
G02X10600Y20272I63J63*
G01X12636*
G03X12665Y20301J29*
Y20307I29*
G02X12663Y20321I77J14*
G01Y20439*
G02X12669Y20468I79*
G03X12671Y20479I28J11*
X12669Y20489I30*
G02X12663Y20518I73J29*
G01Y20636*
G02X12669Y20665I79*
G03X12671Y20675I28J10*
X12669Y20686I30*
G02X12663Y20715I73J29*
G01Y20833*
G02X12669Y20862I79*
G03X12671Y20872I28J10*
X12669Y20883I30*
G02X12663Y20912I73J29*
G01Y21030*
G02X12669Y21058I79*
G03X12671Y21069I28J11*
X12669Y21080I30*
G02X12663Y21109I73J29*
G01Y21227*
G02X12669Y21255I79*
G03X12671Y21266I28J11*
X12669Y21277I30*
G02X12663Y21305I73J28*
G01Y21423*
G02X12669Y21452I79*
G03X12671Y21463I28J11*
X12669Y21474I30*
G02X12663Y21502I73J28*
G01Y21620*
G02X12669Y21649I79*
G03X12671Y21660I28J11*
G01X13205Y25443D02*
G02X13213Y25464I29D01*
G01X13335Y25585*
G03X13361Y25648I62J63*
G01Y27792*
G02X13391Y27822I30*
G01X13430*
G03X13497Y27859J78*
G02X13523Y27874I26J15*
X13548Y27859J30*
G03X13615Y27822I67J41*
G01X13654*
G02X13684Y27792J30*
G01Y26624*
G03X13710Y26562I89*
G01X13843Y26428*
Y25085*
G03X13902Y25026I59*
G01X14296*
G03X14355Y25085J59*
G01Y25322*
G03X14296Y25381I59*
G01X13902*
G03X13843Y25322J59*
G01Y26428*
X14727Y25544*
G02X14736Y25524I21J20*
G01Y24665*
G02X14727Y24644I30*
G01X14239Y24157*
G02X14218Y24148I21J20*
X14189Y24177J29*
G01Y24426*
G02X14218Y24455I29*
G01X14296*
G03X14374Y24534J79*
G01Y24770*
G03X14296Y24849I78*
G01X13902*
G03X13823Y24770J79*
G01Y24534*
G03X13902Y24455I79*
G01X13982*
G02X14012Y24426J29*
G01Y23798*
G02X13998Y23773I30*
G03X13995Y23770I43J66*
G02X13977Y23765I18J24*
X13972J29*
G03X13963Y23766I9J58*
G01X13844*
G03X13835Y23765J59*
G02X13830I5J29*
X13812Y23770J29*
G03X13766Y23786I46J63*
G01X13648*
G03X13625Y23782J79*
G02X13617Y23781I8J29*
X13592Y23796J30*
G03X13422Y23892I170J101*
X13259Y23805J197*
G02X13234Y23792I25J16*
X13205Y23821J29*
G01Y25443*
X17358Y17934D02*
G03X17350Y17953I29D01*
G02X17327Y18013I66J60*
G01Y18048*
G03X17298Y18077I29*
G01X16857*
G02X16760Y18117J138*
G01X15631Y19246*
G03X15610Y19254I21J21*
G01X14958*
G03X14938Y19247J29*
G02X14908Y19224I133J145*
G03X14894Y19199I16J25*
G01Y18756*
G03X14924Y18726I30*
G01X15172*
G02X15235Y18700J88*
G01X15665Y18270*
G03X15686Y18262I21J21*
X15715Y18291J29*
X15712Y18305I29*
G02X15690Y18395I175J90*
X15887Y18592I197*
X16055Y18498J197*
G03X16080Y18484I25J15*
G01X16253*
G02X16315Y18458J89*
G01X16722Y18051*
G02X16748Y17988I63J63*
G01Y17908*
G03X16778Y17878I30*
X16783Y17879J30*
G02X16797Y17880I14J78*
G01X16915*
G02X16944Y17875J79*
G03X16955Y17873I11J27*
X16965Y17875J29*
G02X16994Y17880I29J74*
G01X17112*
G02X17159Y17865J79*
G03X17176Y17859I17J24*
X17181Y17860J30*
G02X17191I10J59*
G01X17309*
G02X17319J59*
G03X17324Y17859I5J29*
X17341Y17865J30*
G02X17345Y17867I47J64*
G03X17358Y17892I16J25*
G01Y17934*
X19752Y26440D02*
G03X19722Y26469I30D01*
X19701Y26461J29*
G02X19652Y26431I84J82*
G03X19631Y26402I8J29*
X19645Y26377I29*
G02X19663Y26363I58J91*
G03X19683Y26355I20J21*
X19694Y26357J29*
G02X19719Y26362I31J83*
G03X19747Y26392I2J30*
G01Y26404*
G02X19751Y26432I108*
G03X19752Y26440I29J8*
G01X21352Y26573D02*
G03X21323Y26603I29D01*
G01X20884*
G03X20864Y26595J30*
G02X20731Y26543I133J145*
X20569Y26629J197*
G03X20544Y26642I25J16*
G01X20468*
G02X20370Y26682J138*
G01X20321Y26732*
G02X20299Y26760I97J98*
G03X20274Y26774I25J15*
X20244Y26745J29*
X20245Y26739I30*
G02X20247Y26719I107J20*
G01Y26699*
G02X20222Y26630I109*
G03X20216Y26612I23J18*
X20218Y26599I29*
G02X20227Y26561I80J38*
G01Y26541*
G02X20221Y26510I89*
G03X20219Y26500I28J10*
X20228Y26479I30*
G02X20259Y26404I78J75*
G01Y26384*
G02X20150Y26276I109*
G01X19863*
G03X19833Y26246J30*
G01Y25978*
G02X19745Y25890I88*
G01X19725*
G02X19680Y25902J88*
G03X19665Y25906I15J25*
X19649Y25901J29*
G02X19587Y25882I62J89*
G01X19568*
G02X19513Y25897J108*
G03X19499Y25901I14J26*
X19484Y25897J30*
G02X19430Y25882I54J93*
G01X19410*
G02X19356Y25897J108*
G03X19341Y25901I15J26*
X19326Y25897J30*
G02X19272Y25882I54J93*
G01X19253*
G02X19198Y25897J108*
G03X19184Y25901I14J26*
X19169Y25897J30*
G02X19115Y25882I54J93*
G01X19095*
G02X19072Y25885J108*
G03X19066I6J29*
X19036Y25856J29*
G01Y25793*
G03X19055Y25766I30*
G02X19105Y25692I29J74*
G01Y25417*
G02X19091Y25371I79*
G03X19085Y25354I24J17*
G01Y25328*
G02X19045Y25231I137*
G01X19040Y25225*
G03X19031Y25204I21J21*
X19039Y25184I30*
G02X19061Y25129I57J55*
G01Y24736*
G02X19018Y24666I79*
G03X19002Y24639I14J27*
G01Y24440*
G03X19011Y24420I30*
G01X19336Y24095*
G03X19357Y24086I21J21*
G01X19533*
G03X19554Y24095J30*
G01X21344Y25885*
G03X21352Y25906I21J21*
G01Y26573*
G37*
G54D10*
X0Y0D02*
X24016D01*
Y31496*
X0*
Y0*
G54D11*
X1956Y9194D03*
X22816Y25345D03*
G54D12*
X665Y13233D02*
X547D01*
X665Y14233D02*
X547D01*
X665Y18168D02*
X547D01*
X665Y19168D02*
X547D01*
X665Y23093D02*
X547D01*
X665Y24093D02*
X547D01*
X665Y28026D02*
X547D01*
X665Y29026D02*
X547D01*
X1167Y12967D02*
Y12849D01*
Y13499D02*
Y13617D01*
Y17903D02*
Y17785D01*
Y18434D02*
Y18552D01*
Y22828D02*
Y22710D01*
Y23359D02*
Y23477D01*
Y27760D02*
Y27642D01*
Y28292D02*
Y28410D01*
X1246Y13967D02*
Y13849D01*
Y14499D02*
Y14617D01*
Y18903D02*
Y18785D01*
Y19434D02*
Y19552D01*
Y23828D02*
Y23710D01*
Y24359D02*
Y24477D01*
Y28760D02*
Y28642D01*
Y29292D02*
Y29410D01*
X1669Y13233D02*
X1787D01*
X1669Y18168D02*
X1787D01*
X1669Y23093D02*
X1787D01*
X1669Y28026D02*
X1787D01*
X1827Y14233D02*
X1945D01*
X1827Y19168D02*
X1945D01*
X1827Y24093D02*
X1945D01*
X1827Y29026D02*
X1945D01*
X3057Y14733D02*
Y15178D01*
X4546Y16667*
Y17938*
X5004Y18396*
X6449*
X3057Y18668D02*
X4737D01*
X4976Y18907*
X6449*
X3057Y19668D02*
X3918D01*
X4322Y19264*
Y18921*
X3057Y23593D02*
X3960D01*
X3057Y29526D02*
X4358D01*
X4686Y29199*
Y20205*
X5216Y19675*
X6449*
X4377Y28526D02*
X3057D01*
X4416Y23587D02*
Y20119D01*
X5116Y19419*
X6449*
X5121Y21430D02*
X5003D01*
X5289Y21342D02*
Y21223D01*
Y21519D02*
Y21637D01*
X5456Y21430D02*
X5574D01*
X6080Y21216D02*
X5962D01*
X6085Y17589D02*
X5993Y17496D01*
X6085Y17667D02*
X5970Y17721D01*
X6085Y17844D02*
X5970Y17791D01*
X6085Y17923D02*
X5967Y17961D01*
X6154Y25328D02*
Y25800D01*
X6227Y20930D02*
Y20812D01*
Y21501D02*
Y21619D01*
X6375Y21216D02*
X6493D01*
X6449Y18140D02*
X5129D01*
X4837Y17848*
Y14749*
X3821Y13733*
X3057*
X6449Y18652D02*
X4981D01*
X4738Y18408*
X4322*
X6449Y19163D02*
X4859D01*
X4167Y19856*
Y24552*
X4125Y24593*
X3057*
X6449Y19931D02*
X5316D01*
X4880Y20367*
Y28258*
X4942Y28319*
Y28526*
X6449Y20443D02*
X5518D01*
X5289Y20672*
Y20879*
X6705Y26541D02*
Y25800D01*
X6813Y17589D02*
X6906Y17496D01*
X6813Y17667D02*
X6928Y17721D01*
X6813Y17844D02*
X6928Y17791D01*
X6813Y17923D02*
X6931Y17961D01*
X6813Y20148D02*
X6931Y20110D01*
X6813Y20226D02*
X6931Y20264D01*
X6857Y21216D02*
Y20777D01*
X6773Y20694*
X6542*
X6449Y20600*
Y20443*
X7196Y28695D02*
X7078D01*
X7228Y17444D02*
Y20262D01*
X7047Y20443*
X6449*
X7255Y27403D02*
X7137D01*
X7343Y28410D02*
Y28292D01*
Y28980D02*
Y29099D01*
X7358Y25800D02*
Y26273D01*
X7770Y26685*
Y26916*
X7854Y27000*
X8033*
Y27403*
X7358Y25800D02*
Y25310D01*
X7360Y25308*
X7403Y27118D02*
Y27000D01*
Y27689D02*
Y27807D01*
X7491Y28695D02*
X7609D01*
X7550Y27403D02*
X7668D01*
X7909Y25800D02*
Y26531D01*
X8054Y17589D02*
X7961Y17496D01*
X8054Y17667D02*
X7936Y17705D01*
X8054Y19892D02*
X7936Y19854D01*
X8054Y19970D02*
X7936Y20008D01*
X8418Y18907D02*
X9718D01*
X10600Y19790*
X13116*
X8418Y19163D02*
X9580D01*
X10600Y20183*
X13116*
X8418Y19419D02*
X9414D01*
X10454Y20459*
X10455*
X11951Y21955*
X13116*
X8418Y19675D02*
X9403D01*
X12076Y22349*
X13116*
X8453Y1593D02*
X8455Y1595D01*
Y1802*
X8481Y21216D02*
X8363D01*
X8549Y25800D02*
Y26531D01*
X8629Y20930D02*
Y20812D01*
Y21501D02*
Y21619D01*
X8777Y21216D02*
X8895D01*
X8782Y17589D02*
X8874Y17496D01*
X8782Y17667D02*
X8900Y17705D01*
X9011Y4272D02*
X8455Y3716D01*
Y2353*
X9100Y25800D02*
Y25424D01*
X8984Y25308*
X7360*
X9424Y21020D02*
X9305D01*
X9450Y12543D02*
Y13443D01*
X9453Y1802D02*
Y1595D01*
Y2353D02*
Y5009D01*
X13957Y9513*
Y13344*
X13476Y13825*
Y14238*
X13903Y14666*
Y17427*
X9453Y11782D02*
X9450Y11785D01*
Y11991*
X9591Y20931D02*
Y20813D01*
Y21108D02*
Y21226D01*
X9758Y21020D02*
X9876D01*
X9970Y4240D02*
Y4504D01*
X14929Y9463*
Y11886*
X14147Y12668*
Y13513*
X13793Y13867*
Y14281*
X14100Y14589*
Y17427*
X10750Y25034D02*
X6807D01*
X6705Y25136*
Y25800*
X10754Y18605D02*
X10635D01*
X10921Y18516D02*
Y18398D01*
Y18693D02*
Y18811D01*
X11026Y17132D02*
X10813D01*
X10061Y17884*
X8418*
X11088Y18605D02*
X11206D01*
X11452Y14066D02*
Y13860D01*
X11457Y13855*
Y12543*
X11453Y11780D02*
X11457Y11785D01*
Y11991*
X11645Y29528D02*
X11552Y29436D01*
X11645Y30690D02*
X11552Y30782D01*
X11706Y19176D02*
X11324D01*
X11303Y19156*
X10921*
X11757Y26795D02*
Y27796D01*
X11773Y27812*
Y28510*
X11767Y16437D02*
X11649D01*
X11901Y29528D02*
X11993Y29436D01*
X11901Y30690D02*
X11993Y30782D01*
X11935Y16348D02*
Y16230D01*
Y16526D02*
Y16644D01*
X12102Y16437D02*
X12220D01*
X12115Y18625D02*
X11706D01*
X12334Y17706D02*
X10729D01*
X10296Y18140*
X8418*
X12439Y18110D02*
X12191D01*
X12189Y18107*
X10743*
X10454Y18396*
X8418*
X12441Y19492D02*
X12194D01*
X12191Y19489*
X10608*
X9771Y18652*
X8418*
X12453Y11778D02*
X12446Y11785D01*
Y11991*
X12455Y1802D02*
Y1595D01*
X12453Y1593*
X12455Y4115D02*
Y2353D01*
X12645Y29528D02*
X12552Y29436D01*
X12645Y30690D02*
X12552Y30782D01*
X12772Y18215D02*
X12653D01*
X12901Y29528D02*
X12993Y29436D01*
X12901Y30690D02*
X12993Y30782D01*
X13116Y19199D02*
X12334D01*
X12311Y19176*
X11706*
X13116Y22742D02*
Y25492D01*
X13273Y25648*
Y28510*
X13145Y29528D02*
X13052Y29436D01*
X13145Y30690D02*
X13052Y30782D01*
X13401Y29528D02*
X13493Y29436D01*
X13401Y30690D02*
X13493Y30782D01*
X13422Y23695D02*
Y23470D01*
X13559Y23333*
X13707*
X13453Y1593D02*
X13455Y1595D01*
Y1802*
X13461Y18215D02*
X13579D01*
X13707Y17427D02*
Y15856D01*
X12446Y14596*
Y12543*
X13903Y22988D02*
Y22870D01*
Y23677D02*
Y23796D01*
X13932Y25203D02*
X13813D01*
X14099Y25115D02*
Y24997D01*
Y25292D02*
Y25410D01*
X14100Y23333D02*
Y24444D01*
X14099Y24446*
Y24652*
X14147Y22152D02*
Y20694D01*
X14030Y20577*
X13116*
X14150Y19489D02*
X15023Y20361D01*
Y21488*
X15490Y21955*
X19022*
X14167Y14066D02*
X14297Y14197D01*
Y17427*
X14266Y25203D02*
X14384D01*
X14297Y23333D02*
Y24089D01*
X14824Y24616*
Y25572*
X13773Y26624*
Y28510*
X14494Y17427D02*
Y16965D01*
X14479Y16950*
Y13443*
X14519Y21908D02*
Y20755D01*
X14145Y20380*
X13116*
X14691Y17427D02*
Y18523D01*
X14805Y18638*
X14775Y15694D02*
X14657D01*
X14805Y18638D02*
X15172D01*
X15675Y18135*
Y17427*
X14805Y18638D02*
Y19392D01*
X14942Y15605D02*
Y15487D01*
Y15782D02*
Y15901D01*
Y16245D02*
Y16495D01*
X14691Y16747*
Y17427*
X15085Y23333D02*
Y24280D01*
X15998Y25194*
Y28432*
X15110Y15694D02*
X15228D01*
X15206Y28445D02*
Y24681D01*
X14888Y24363*
Y23333*
X15206Y28996D02*
Y29203D01*
X15419Y29416*
X15435*
Y29702*
X15478Y17083D02*
Y16965D01*
X15647Y14703D02*
X15529D01*
X15814Y14614D02*
Y14496D01*
Y14792D02*
Y14910D01*
X15855Y15809D02*
Y15563D01*
X15814Y15522*
Y15254*
X15855Y15809D02*
X15504D01*
X15396Y15917*
Y16357*
X15872Y16833*
Y17427*
X15982Y14703D02*
X16100D01*
X15998Y28983D02*
Y29365D01*
X15947Y29416*
Y29702*
X16069Y17427D02*
Y16861D01*
X16406Y16524*
Y16242*
X16266Y17427D02*
Y16965D01*
X16536Y16694*
X16839*
X16385Y14709D02*
X16267D01*
X16553Y14621D02*
Y14503D01*
Y14798D02*
Y14916D01*
Y15261D02*
X16926D01*
X17049Y15384*
Y16154*
X16961Y16242*
X16406*
X16596Y27363D02*
X16478D01*
X16659Y17427D02*
Y17988D01*
X16253Y18395*
X15887*
X16720Y14709D02*
X16838D01*
X16754Y28465D02*
Y28259D01*
X16764Y28249*
Y27914*
X16754Y29016D02*
Y29932D01*
X16354Y30332*
X15947*
X16764Y27274D02*
Y27156D01*
Y27451D02*
Y27570D01*
Y27914D02*
X16478D01*
X16252Y27688*
Y25152*
X15281Y24181*
Y23333*
X16931Y27363D02*
X17049D01*
X17027Y18609D02*
X19022D01*
X17250Y17083D02*
Y16965D01*
Y17772D02*
Y17890D01*
X17409Y26712D02*
X17291D01*
X17447Y17427D02*
Y17982D01*
X17416Y18013*
Y18215*
X17498Y26544D02*
Y26426D01*
Y26879D02*
Y26997D01*
X17586Y26712D02*
X17704D01*
X17609Y25089D02*
X16856Y24336D01*
Y23333*
X17644Y17427D02*
X17447D01*
X17655Y25530D02*
X16659Y24534D01*
Y23333*
X17841Y17427D02*
Y14506D01*
X17960Y14386*
Y10578*
X13455Y6073*
Y2353*
X17901Y18215D02*
X19022D01*
X18037Y17427D02*
Y14962D01*
X18956Y14043*
Y8754*
X14318Y4115*
X18037Y23333D02*
Y22712D01*
X17802Y22477*
X15183*
X18049Y26712D02*
X18339D01*
X18342Y26709*
X18692*
X18225Y24933D02*
X18106D01*
X18313Y24765D02*
Y24647D01*
Y25100D02*
Y25218D01*
X18402Y24933D02*
X18520D01*
X18505Y25554D02*
X18387D01*
X18544Y26551D02*
X18426D01*
X18554Y25446D02*
Y25328D01*
Y25663D02*
Y25781D01*
X18603Y25554D02*
X18721D01*
X18677Y18018D02*
X18559D01*
X18677Y22546D02*
X18559D01*
X18948Y26126D02*
Y25860D01*
Y25554*
X19022Y17988D02*
Y17870D01*
Y18412D02*
X19733D01*
X19865Y18543*
X20410*
X22024Y16929*
X22425*
X19022Y18805D02*
X20385D01*
X21671Y17520*
X22425*
X19022Y19002D02*
X17836D01*
X17817Y18983*
X16887*
X19022Y19396D02*
X20691D01*
X21386Y18701*
X22425*
X19022Y19790D02*
X20672D01*
X20764Y19882*
X22425*
X19022Y20183D02*
X20486D01*
X21366Y21063*
X22425*
X19022Y20577D02*
X20330D01*
X21997Y22244*
X22425*
X19022Y20971D02*
X20042D01*
X20836Y21764*
Y22118*
X22143Y23425*
X22429*
X19022Y22742D02*
Y22890D01*
X19057Y22925*
X19686*
X19036Y26551D02*
X18692D01*
X19036Y26866D02*
X18692D01*
X19341Y26788D02*
X19036Y26551D01*
X19341Y26788D02*
X19634Y26520D01*
X19735Y26392*
X19341Y26788D02*
X19036Y26866D01*
X19366Y18018D02*
X19484D01*
X19366Y22546D02*
X19484D01*
X19617Y26543D02*
X19721Y26439D01*
X19686Y22925D02*
X19894D01*
X19899Y22930*
X20187*
X19725Y25978D02*
X19715Y25861D01*
X19734Y27935D02*
X18678D01*
X18238Y27494*
Y27107*
X18321Y27024*
X18692*
X19735Y26392D02*
Y26126D01*
Y27449D02*
Y27903D01*
X19719Y27919*
X19734*
Y27935*
X19745Y25978D02*
X19828Y25895D01*
X20003Y27181D02*
X20497D01*
X20849Y27534*
X20004Y17659D02*
X19885D01*
X20012Y21799D02*
X19894D01*
X20019Y23481D02*
X19901D01*
X20138Y26551D02*
X20257D01*
X20171Y17571D02*
Y17453D01*
Y17748D02*
Y17866D01*
X20179Y21711D02*
Y21593D01*
Y21888D02*
Y22006D01*
Y22351D02*
X19690D01*
X19688Y22349*
X19022*
X20187Y23393D02*
Y23275D01*
Y23570D02*
Y23688D01*
X20338Y17659D02*
X20456D01*
X20347Y21799D02*
X20465D01*
X20354Y23481D02*
X20472D01*
X20418Y26830D02*
X20381Y26866D01*
X19991*
X21165Y27195D02*
X20994Y27024D01*
X19991*
X21676Y28148D02*
X21382D01*
X21166Y27932*
Y27485*
X21165Y27484*
Y27195*
X22425Y18110D02*
X21386D01*
X20297Y19199*
X19022*
X22425Y19291D02*
X20963D01*
X20661Y19593*
X19022*
X22425Y20472D02*
X21019D01*
X20533Y19986*
X19022*
X22425Y21654D02*
X21665D01*
X20392Y20380*
X19022*
X22425Y22835D02*
X22139D01*
X20079Y20774*
X19022*
X22492Y28767D02*
Y28561D01*
X22493Y28560*
Y28168*
X22678Y28953D02*
X22492Y28767D01*
G54D13*
X18678Y30108D02*
X18365Y30421D01*
X18678Y30108D02*
X18992Y30421D01*
X18678Y30108D02*
X18365Y29795D01*
X18678Y30108D02*
X18992Y29795D01*
G54D14*
X7973Y29214D02*
Y28695D01*
X7987Y29227D02*
X7973Y29214D01*
X7987Y29227D02*
X8024Y29265D01*
Y29471*
X8033Y27403D02*
Y28008D01*
X8059Y28035*
X8418Y20187D02*
Y20443D01*
Y20650*
X8112*
X7999Y20763*
Y21216*
X8453Y1032D02*
Y1593D01*
X9453Y1595D02*
Y1032D01*
Y11032D02*
Y11782D01*
X9591Y20468D02*
X9116D01*
X9090Y20443*
X8418*
X9591Y20468D02*
X9907D01*
X10154Y20715*
Y21224*
X10786Y21856*
X10453Y11032D02*
X10154Y10733D01*
X10453Y11032D02*
X10752Y10733D01*
X10453Y11032D02*
X10154Y11332D01*
X10453Y11032D02*
X10752Y11332D01*
X10786Y21856D02*
Y24259D01*
X11345Y24818*
Y25409*
X8719Y28035*
X8059*
X11453Y11032D02*
Y11780D01*
X11684Y22453D02*
X12249Y23018D01*
X12687*
X12884Y23215*
X11935Y16988D02*
X12850D01*
X13115Y17254*
Y17870*
X13116*
Y18018*
X11935Y16988D02*
X11427D01*
X11140Y16701*
X10608*
X10315Y16993*
X12453Y1593D02*
Y1032D01*
Y11032D02*
Y11778D01*
X13453Y1032D02*
Y1593D01*
X14805Y19392D02*
X15680D01*
X16857Y18215*
X17416*
X15435Y30332D02*
Y30743D01*
X15681Y30989*
X19443*
X19678Y30753*
X15435Y30332D02*
X14715D01*
X14492Y30109*
X13773*
X17416Y18215D02*
X17901D01*
X17453Y1032D02*
X17154Y1332D01*
X17453Y1032D02*
X17752Y733D01*
X17453Y1032D02*
X17752Y1332D01*
X17453Y1032D02*
X17154Y733D01*
X17928Y21492D02*
X17750Y21670D01*
X16308*
X18864Y24933D02*
Y24371D01*
X19287Y23948*
X19602*
X18948Y25554D02*
Y25328D01*
X18864Y25245*
Y24933*
X19602Y23948D02*
Y23633D01*
X19686Y23549*
Y22925*
X19602Y23948D02*
X21490Y25836D01*
Y26740*
X19678Y28246D02*
X19734Y28191D01*
Y27935*
X20171Y18211D02*
X19687D01*
X19683Y18215*
X19022*
X20418Y26830D02*
X20468Y26780D01*
X20691*
X20731Y26740*
X21490*
X21676Y27597D02*
Y27341D01*
X21675Y27339*
Y26925*
X21490Y26740*
X21676Y27597D02*
X22074D01*
X22095Y27617*
X22493*
X23453Y1032D02*
X23752Y1332D01*
X23453Y1032D02*
X23154Y733D01*
X23453Y1032D02*
X23752Y733D01*
X23453Y1032D02*
X23154Y1332D01*
G54D15*
X1432Y2816D02*
X1457Y2817D01*
X1481Y2818*
X1504Y2820*
X1524Y2823*
X1542Y2827*
X1559Y2832*
X1573Y2839*
X1586Y2845*
X1604Y2858*
X1620Y2871*
X1633Y2885*
X1644Y2901*
X1652Y2917*
X1659Y2935*
X1663Y2954*
X1664Y2973*
X1663Y2989*
X1660Y3005*
X1656Y3020*
X1649Y3035*
X1641Y3048*
X1632Y3062*
X1620Y3075*
X1606Y3087*
X1591Y3098*
X1574Y3107*
X1556Y3116*
X1535Y3123*
X1512Y3128*
X1488Y3131*
X1463Y3134*
X1436Y3135*
X1408Y3134*
X1381Y3131*
X1357Y3128*
X1335Y3123*
X1314Y3116*
X1296Y3109*
X1279Y3099*
X1264Y3089*
X1251Y3077*
X1240Y3064*
X1230Y3051*
X1222Y3038*
X1216Y3023*
X1212Y3009*
X1209Y2994*
X1208Y2978*
X1209Y2962*
X1212Y2946*
X1216Y2931*
X1223Y2916*
X1231Y2903*
X1240Y2889*
X1252Y2876*
X1266Y2864*
X1281Y2853*
X1298Y2843*
X1316Y2835*
X1336Y2828*
X1357Y2823*
X1380Y2819*
X1405Y2817*
X1432Y2816*
X1436Y3322D02*
X1396Y3323D01*
X1359Y3327*
X1324Y3335*
X1292Y3345*
X1264Y3358*
X1237Y3373*
X1213Y3392*
X1192Y3413*
X1176Y3433*
X1163Y3454*
X1152Y3475*
X1143Y3499*
X1136Y3522*
X1130Y3547*
X1127Y3573*
X1126Y3600*
X1128Y3630*
X1131Y3659*
X1137Y3686*
X1146Y3711*
X1157Y3735*
X1171Y3759*
X1188Y3780*
X1206Y3800*
X1228Y3819*
X1250Y3834*
X1275Y3847*
X1302Y3859*
X1330Y3867*
X1361Y3873*
X1393Y3876*
X1428Y3878*
X1456Y3877*
X1482Y3875*
X1507Y3873*
X1530Y3869*
X1552Y3864*
X1572Y3859*
X1591Y3851*
X1608Y3843*
X1624Y3835*
X1639Y3824*
X1653Y3813*
X1666Y3801*
X1678Y3788*
X1690Y3774*
X1700Y3759*
X1710Y3743*
X1718Y3727*
X1726Y3710*
X1732Y3692*
X1737Y3675*
X1741Y3656*
X1744Y3638*
X1745Y3619*
X1746Y3600*
X1744Y3570*
X1741Y3541*
X1735Y3513*
X1726Y3487*
X1715Y3463*
X1701Y3440*
X1685Y3419*
X1666Y3399*
X1645Y3380*
X1622Y3365*
X1596Y3351*
X1568Y3341*
X1539Y3332*
X1507Y3327*
X1472Y3323*
X1436Y3322*
Y3425D02*
X1464Y3426D01*
X1489Y3428*
X1514Y3432*
X1536Y3437*
X1556Y3444*
X1575Y3453*
X1592Y3463*
X1607Y3475*
X1620Y3487*
X1632Y3501*
X1641Y3515*
X1649Y3531*
X1656Y3547*
X1660Y3564*
X1663Y3582*
X1664Y3600*
X1663Y3619*
X1660Y3636*
X1656Y3653*
X1649Y3669*
X1641Y3684*
X1632Y3699*
X1620Y3712*
X1607Y3725*
X1592Y3736*
X1574Y3747*
X1556Y3755*
X1535Y3762*
X1512Y3767*
X1488Y3771*
X1461Y3774*
X1432Y3775*
X1406Y3774*
X1381Y3771*
X1358Y3767*
X1336Y3762*
X1316Y3755*
X1298Y3747*
X1281Y3736*
X1266Y3724*
X1252Y3711*
X1241Y3698*
X1232Y3683*
X1224Y3668*
X1217Y3652*
X1212Y3635*
X1210Y3619*
X1209Y3600*
X1210Y3582*
X1212Y3564*
X1217Y3547*
X1224Y3531*
X1232Y3515*
X1241Y3501*
X1252Y3487*
X1266Y3475*
X1280Y3463*
X1297Y3453*
X1316Y3444*
X1336Y3437*
X1359Y3432*
X1383Y3428*
X1408Y3426*
X1436Y3425*
X1636Y6151D02*
Y6325D01*
Y6345*
X1635Y6363*
X1633Y6381*
X1632Y6398*
X1630Y6413*
X1627Y6427*
X1624Y6440*
X1620Y6452*
X1612Y6475*
X1603Y6494*
X1591Y6511*
X1578Y6526*
X1568Y6535*
X1557Y6544*
X1545Y6552*
X1533Y6560*
X1520Y6567*
X1505Y6574*
X1491Y6580*
X1475Y6586*
X1458Y6591*
X1440Y6595*
X1422Y6599*
X1403Y6602*
X1383Y6604*
X1362Y6606*
X1340Y6607*
X1317*
X1286*
X1256Y6605*
X1229Y6602*
X1204Y6597*
X1180Y6591*
X1158Y6583*
X1138Y6575*
X1120Y6565*
X1104Y6555*
X1088Y6543*
X1075Y6531*
X1063Y6519*
X1052Y6505*
X1042Y6491*
X1034Y6478*
X1028Y6463*
X1024Y6451*
X1020Y6438*
X1017Y6423*
X1015Y6406*
X1013Y6387*
X1012Y6367*
X1011Y6346*
Y6323*
Y6151*
X1636*
X1732Y2817D02*
Y2723D01*
X914*
Y2824*
X1206*
X1187Y2841*
X1171Y2858*
X1157Y2877*
X1146Y2896*
X1137Y2917*
X1131Y2939*
X1128Y2963*
X1126Y2987*
X1128Y3014*
X1132Y3039*
X1139Y3065*
X1148Y3090*
X1160Y3114*
X1175Y3135*
X1192Y3154*
X1210Y3171*
X1231Y3185*
X1254Y3199*
X1280Y3210*
X1307Y3220*
X1335Y3227*
X1365Y3233*
X1396Y3237*
X1427Y3238*
X1464Y3236*
X1499Y3233*
X1532Y3227*
X1562Y3219*
X1591Y3208*
X1617Y3195*
X1641Y3180*
X1663Y3163*
X1682Y3143*
X1700Y3123*
X1713Y3102*
X1725Y3079*
X1734Y3056*
X1741Y3032*
X1744Y3007*
X1746Y2982*
X1744Y2956*
X1740Y2932*
X1734Y2909*
X1724Y2888*
X1712Y2868*
X1697Y2850*
X1679Y2832*
X1659Y2817*
X1732*
Y4383D02*
X1646D01*
X1669Y4365*
X1689Y4346*
X1707Y4324*
X1721Y4302*
X1732Y4278*
X1740Y4251*
X1744Y4224*
X1746Y4195*
X1744Y4170*
X1741Y4145*
X1735Y4121*
X1726Y4098*
X1716Y4076*
X1704Y4058*
X1690Y4043*
X1676Y4030*
X1660Y4020*
X1641Y4011*
X1622Y4004*
X1601Y3999*
X1593Y3998*
X1584Y3996*
X1574Y3995*
X1563*
X1550Y3994*
X1537Y3993*
X1523*
X1507*
X1140*
Y4094*
X1468*
X1488*
X1504*
X1520Y4095*
X1535*
X1547Y4096*
X1558Y4097*
X1567Y4099*
X1575Y4100*
X1593Y4106*
X1610Y4115*
X1624Y4126*
X1637Y4140*
X1647Y4156*
X1654Y4175*
X1658Y4194*
X1660Y4216*
X1658Y4238*
X1654Y4259*
X1647Y4280*
X1636Y4300*
X1624Y4319*
X1609Y4335*
X1592Y4347*
X1573Y4356*
X1563Y4360*
X1551Y4363*
X1538Y4367*
X1524Y4369*
X1509Y4371*
X1493Y4372*
X1476Y4373*
X1457*
X1140*
Y4474*
X1732*
Y4383*
Y4640D02*
X914D01*
Y4748*
X1636*
Y5151*
X1732*
Y4640*
Y5283D02*
X914D01*
Y5874*
X1011*
Y5391*
X1260*
Y5843*
X1357*
Y5391*
X1636*
Y5893*
X1732*
Y5283*
Y6043D02*
X914D01*
Y6324*
Y6347*
X915Y6370*
X916Y6390*
X917Y6409*
X919Y6427*
X920Y6443*
X923Y6457*
X926Y6471*
X930Y6487*
X936Y6504*
X941Y6520*
X948Y6535*
X956Y6550*
X964Y6564*
X974Y6578*
X984Y6591*
X999Y6606*
X1014Y6621*
X1030Y6635*
X1047Y6647*
X1064Y6659*
X1084Y6669*
X1104Y6679*
X1124Y6687*
X1146Y6695*
X1168Y6701*
X1192Y6707*
X1216Y6711*
X1240Y6715*
X1265Y6717*
X1292Y6719*
X1319*
X1364Y6718*
X1407Y6714*
X1447Y6707*
X1484Y6698*
X1519Y6686*
X1550Y6673*
X1578Y6658*
X1603Y6642*
X1625Y6624*
X1645Y6606*
X1663Y6587*
X1677Y6567*
X1690Y6546*
X1701Y6523*
X1711Y6497*
X1719Y6470*
X1724Y6439*
X1729Y6408*
X1732Y6374*
Y6338*
Y6043*
X3065Y7599D02*
X3044Y7598D01*
X3024Y7595*
X3005Y7592*
X2988Y7587*
X2971Y7581*
X2956Y7573*
X2941Y7563*
X2928Y7553*
X2916Y7541*
X2906Y7528*
X2897Y7515*
X2890Y7502*
X2884Y7488*
X2880Y7473*
X2878Y7458*
X2877Y7442*
X2878Y7425*
X2880Y7409*
X2885Y7394*
X2891Y7379*
X2899Y7364*
X2908Y7351*
X2919Y7338*
X2932Y7325*
X2946Y7313*
X2961Y7303*
X2977Y7295*
X2995Y7287*
X3013Y7283*
X3032Y7279*
X3052Y7276*
X3073Y7275*
X3092Y7276*
X3111Y7279*
X3128Y7282*
X3144Y7287*
X3160Y7294*
X3174Y7302*
X3188Y7311*
X3200Y7323*
X3212Y7335*
X3222Y7347*
X3230Y7361*
X3237Y7375*
X3243Y7390*
X3246Y7406*
X3248Y7422*
X3249Y7439*
X3248Y7456*
X3246Y7472*
X3243Y7487*
X3237Y7503*
X3230Y7516*
X3222Y7530*
X3212Y7542*
X3200Y7554*
X3188Y7564*
X3174Y7573*
X3159Y7581*
X3142Y7587*
X3124Y7592*
X3106Y7595*
X3086Y7598*
X3065Y7599*
X3159Y1857D02*
Y2090D01*
Y2108*
X3158Y2125*
X3156Y2141*
X3155Y2156*
X3153Y2170*
X3150Y2183*
X3147Y2195*
X3144Y2206*
X3135Y2226*
X3124Y2243*
X3110Y2258*
X3094Y2270*
X3077Y2279*
X3059Y2286*
X3040Y2290*
X3020Y2291*
X3007*
X2993Y2289*
X2980Y2286*
X2968Y2281*
X2956Y2275*
X2945Y2267*
X2935Y2259*
X2925Y2249*
X2916Y2238*
X2908Y2225*
X2902Y2211*
X2897Y2195*
X2893Y2178*
X2890Y2159*
X2888Y2138*
Y2116*
Y1857*
X3159*
X3212Y5900D02*
X3176Y5901D01*
X3143Y5902*
X3111Y5904*
X3081Y5907*
X3052Y5911*
X3026Y5917*
X3001Y5923*
X2978Y5930*
X2956Y5938*
X2936Y5947*
X2917Y5956*
X2900Y5967*
X2884Y5979*
X2868Y5991*
X2855Y6005*
X2842Y6019*
X2831Y6034*
X2821Y6051*
X2812Y6067*
X2806Y6086*
X2800Y6104*
X2797Y6124*
X2795Y6146*
X2794Y6167*
X2795Y6183*
X2796Y6199*
X2798Y6215*
X2800Y6229*
X2804Y6243*
X2809Y6257*
X2814Y6271*
X2820Y6283*
X2836Y6307*
X2853Y6329*
X2873Y6348*
X2897Y6366*
X2924Y6381*
X2952Y6394*
X2984Y6406*
X3019Y6416*
X3037Y6420*
X3057Y6424*
X3080Y6427*
X3103Y6430*
X3128Y6432*
X3154Y6433*
X3182Y6435*
X3212*
X3247Y6434*
X3280Y6433*
X3312Y6431*
X3342Y6427*
X3370Y6423*
X3396Y6418*
X3421Y6412*
X3444Y6405*
X3466Y6397*
X3486Y6388*
X3505Y6379*
X3523Y6368*
X3540Y6356*
X3555Y6344*
X3568Y6331*
X3581Y6316*
X3592Y6301*
X3602Y6285*
X3611Y6267*
X3617Y6250*
X3623Y6231*
X3626Y6211*
X3628Y6189*
X3629Y6167*
X3628Y6139*
X3624Y6111*
X3617Y6086*
X3608Y6062*
X3596Y6039*
X3582Y6018*
X3564Y5999*
X3545Y5981*
X3532Y5971*
X3517Y5963*
X3502Y5954*
X3486Y5946*
X3468Y5939*
X3450Y5931*
X3431Y5926*
X3410Y5920*
X3389Y5915*
X3367Y5911*
X3344Y5908*
X3319Y5905*
X3294Y5903*
X3268Y5902*
X3240Y5900*
X3212*
Y6003D02*
X3236D01*
X3260Y6004*
X3283Y6005*
X3304Y6007*
X3325Y6008*
X3344Y6010*
X3363Y6012*
X3380Y6015*
X3396Y6019*
X3412Y6022*
X3426Y6026*
X3439Y6030*
X3451Y6035*
X3462Y6039*
X3472Y6045*
X3480Y6051*
X3496Y6063*
X3509Y6075*
X3521Y6089*
X3530Y6103*
X3537Y6119*
X3543Y6134*
X3546Y6151*
X3547Y6167*
X3546Y6184*
X3543Y6201*
X3537Y6216*
X3530Y6231*
X3520Y6246*
X3509Y6259*
X3496Y6272*
X3480Y6284*
X3472Y6290*
X3461Y6295*
X3450Y6300*
X3438Y6305*
X3425Y6309*
X3411Y6313*
X3396Y6316*
X3380Y6319*
X3363Y6323*
X3344Y6325*
X3324Y6327*
X3304Y6328*
X3283Y6330*
X3260Y6331*
X3236*
X3212*
X3188*
X3164*
X3141Y6330*
X3120Y6328*
X3099Y6327*
X3080Y6325*
X3061Y6323*
X3044Y6319*
X3028Y6316*
X3012Y6313*
X2999Y6309*
X2985Y6305*
X2973Y6300*
X2963Y6295*
X2952Y6290*
X2944Y6284*
X2928Y6272*
X2915Y6259*
X2904Y6245*
X2894Y6231*
X2887Y6216*
X2881Y6200*
X2878Y6183*
X2877Y6167*
X2878Y6149*
X2881Y6133*
X2885Y6118*
X2892Y6103*
X2900Y6091*
X2910Y6078*
X2922Y6066*
X2936Y6055*
X2946Y6049*
X2956Y6043*
X2968Y6038*
X2981Y6032*
X2995Y6028*
X3010Y6023*
X3025Y6019*
X3042Y6016*
X3060Y6013*
X3079Y6011*
X3099Y6008*
X3120Y6007*
X3141Y6005*
X3164Y6004*
X3188Y6003*
X3212*
X3217Y2540D02*
X3192D01*
X3168Y2542*
X3144Y2544*
X3120Y2547*
X3098Y2551*
X3076Y2555*
X3056Y2561*
X3036Y2567*
X3016Y2575*
X2997Y2583*
X2979Y2592*
X2961Y2602*
X2944Y2612*
X2928Y2624*
X2913Y2636*
X2898Y2650*
X2884Y2663*
X2871Y2678*
X2859Y2693*
X2848Y2708*
X2837Y2724*
X2828Y2741*
X2820Y2758*
X2812Y2775*
X2805Y2793*
X2799Y2811*
X2794Y2831*
X2790Y2850*
X2787Y2870*
X2784Y2890*
Y2911*
X2783Y2932*
X2784Y2960*
X2786Y2987*
X2791Y3014*
X2796Y3040*
X2804Y3065*
X2813Y3090*
X2824Y3114*
X2837Y3137*
X2851Y3159*
X2867Y3179*
X2884Y3199*
X2902Y3217*
X2921Y3234*
X2942Y3249*
X2964Y3263*
X2988Y3275*
X3012Y3287*
X3038Y3296*
X3064Y3305*
X3092Y3311*
X3119Y3317*
X3148Y3320*
X3177Y3323*
X3208*
X3238*
X3268Y3320*
X3297Y3316*
X3325Y3311*
X3352Y3303*
X3380Y3295*
X3405Y3285*
X3430Y3273*
X3454Y3260*
X3476Y3245*
X3497Y3230*
X3516Y3212*
X3534Y3194*
X3551Y3174*
X3565Y3153*
X3579Y3131*
X3591Y3107*
X3601Y3083*
X3609Y3059*
X3616Y3035*
X3622Y3010*
X3626Y2984*
X3628Y2959*
X3629Y2931*
X3628Y2903*
X3626Y2875*
X3621Y2848*
X3616Y2823*
X3608Y2797*
X3598Y2772*
X3587Y2748*
X3573Y2725*
X3559Y2703*
X3543Y2683*
X3526Y2663*
X3508Y2645*
X3488Y2628*
X3467Y2613*
X3444Y2599*
X3421Y2587*
X3397Y2576*
X3372Y2567*
X3347Y2559*
X3322Y2552*
X3296Y2547*
X3270Y2543*
X3244Y2541*
X3217Y2540*
X3219Y2652D02*
X3255Y2654D01*
X3288Y2657*
X3320Y2663*
X3351Y2672*
X3379Y2683*
X3405Y2697*
X3429Y2713*
X3452Y2731*
X3472Y2752*
X3488Y2774*
X3504Y2797*
X3516Y2821*
X3524Y2847*
X3531Y2874*
X3535Y2902*
X3536Y2931*
X3535Y2961*
X3531Y2990*
X3524Y3017*
X3515Y3043*
X3503Y3067*
X3488Y3090*
X3471Y3112*
X3451Y3132*
X3428Y3151*
X3404Y3167*
X3376Y3180*
X3347Y3191*
X3316Y3200*
X3281Y3207*
X3245Y3210*
X3207Y3211*
X3183*
X3159Y3209*
X3136Y3207*
X3113Y3203*
X3092Y3198*
X3072Y3192*
X3052Y3186*
X3032Y3178*
X3015Y3169*
X2998Y3159*
X2982Y3148*
X2967Y3136*
X2953Y3123*
X2940Y3109*
X2928Y3095*
X2917Y3079*
X2908Y3063*
X2900Y3045*
X2892Y3027*
X2887Y3010*
X2882Y2991*
X2879Y2972*
X2877Y2953*
X2876Y2933*
X2878Y2905*
X2881Y2877*
X2888Y2851*
X2896Y2826*
X2908Y2802*
X2921Y2779*
X2937Y2756*
X2956Y2735*
X2966Y2725*
X2976Y2715*
X2988Y2707*
X3001Y2699*
X3015Y2691*
X3029Y2684*
X3044Y2679*
X3060Y2673*
X3077Y2668*
X3095Y2663*
X3114Y2660*
X3133Y2657*
X3153Y2655*
X3174Y2654*
X3196Y2652*
X3219*
X3352Y3427D02*
X3344Y3529D01*
X3373Y3534*
X3400Y3541*
X3424Y3551*
X3444Y3563*
X3454Y3570*
X3464Y3578*
X3472Y3587*
X3480Y3596*
X3488Y3607*
X3495Y3619*
X3502Y3631*
X3508Y3645*
X3519Y3674*
X3526Y3704*
X3531Y3736*
X3532Y3770*
Y3800*
X3528Y3828*
X3522Y3855*
X3514Y3879*
X3504Y3902*
X3492Y3921*
X3479Y3937*
X3464Y3950*
X3447Y3960*
X3430Y3967*
X3412Y3971*
X3393Y3973*
X3375Y3971*
X3357Y3967*
X3341Y3960*
X3326Y3951*
X3319Y3944*
X3312Y3937*
X3306Y3929*
X3300Y3920*
X3293Y3911*
X3288Y3900*
X3283Y3888*
X3277Y3876*
X3274Y3867*
X3270Y3855*
X3266Y3840*
X3261Y3823*
X3256Y3804*
X3250Y3782*
X3244Y3758*
X3238Y3731*
X3231Y3703*
X3224Y3679*
X3218Y3655*
X3212Y3635*
X3205Y3616*
X3199Y3599*
X3192Y3585*
X3187Y3573*
X3179Y3559*
X3170Y3545*
X3161Y3533*
X3152Y3522*
X3142Y3511*
X3132Y3502*
X3121Y3493*
X3110Y3486*
X3099Y3479*
X3087Y3473*
X3075Y3468*
X3062Y3464*
X3049Y3461*
X3036Y3459*
X3022Y3458*
X3008Y3457*
X2993Y3458*
X2978Y3459*
X2963Y3462*
X2948Y3466*
X2934Y3471*
X2920Y3477*
X2906Y3484*
X2892Y3492*
X2880Y3501*
X2868Y3511*
X2856Y3523*
X2845Y3535*
X2836Y3549*
X2826Y3563*
X2818Y3579*
X2811Y3595*
X2804Y3611*
X2799Y3629*
X2794Y3647*
X2790Y3666*
X2787Y3685*
X2784Y3704*
Y3724*
X2783Y3745*
X2784Y3767*
Y3789*
X2787Y3810*
X2790Y3831*
X2794Y3850*
X2800Y3869*
X2805Y3887*
X2812Y3905*
X2820Y3922*
X2828Y3938*
X2838Y3953*
X2848Y3967*
X2860Y3979*
X2872Y3991*
X2884Y4002*
X2899Y4012*
X2913Y4021*
X2928Y4028*
X2944Y4035*
X2960Y4041*
X2976Y4045*
X2992Y4048*
X3010Y4051*
X3028Y4052*
X3036Y3948*
X3016Y3946*
X2999Y3942*
X2983Y3936*
X2968Y3930*
X2953Y3922*
X2940Y3913*
X2928Y3903*
X2918Y3891*
X2908Y3879*
X2900Y3864*
X2894Y3849*
X2888Y3831*
X2884Y3813*
X2880Y3793*
X2879Y3772*
X2878Y3749*
X2879Y3725*
X2880Y3703*
X2883Y3683*
X2887Y3664*
X2892Y3647*
X2898Y3631*
X2906Y3618*
X2914Y3606*
X2924Y3595*
X2933Y3586*
X2943Y3579*
X2954Y3572*
X2965Y3567*
X2976Y3563*
X2988Y3562*
X3001Y3561*
X3012Y3562*
X3022Y3563*
X3032Y3566*
X3041Y3569*
X3050Y3573*
X3058Y3579*
X3066Y3585*
X3073Y3593*
X3080Y3602*
X3088Y3615*
X3096Y3631*
X3103Y3649*
X3110Y3671*
X3117Y3696*
X3124Y3724*
X3132Y3756*
X3140Y3787*
X3147Y3817*
X3153Y3843*
X3160Y3867*
X3167Y3888*
X3172Y3907*
X3179Y3923*
X3184Y3937*
X3192Y3955*
X3202Y3971*
X3212Y3986*
X3222Y3999*
X3232Y4012*
X3244Y4023*
X3256Y4034*
X3268Y4043*
X3280Y4051*
X3294Y4058*
X3308Y4063*
X3322Y4068*
X3337Y4072*
X3352Y4075*
X3368Y4076*
X3384Y4077*
X3400Y4076*
X3416Y4075*
X3432Y4071*
X3448Y4067*
X3463Y4063*
X3478Y4056*
X3492Y4048*
X3508Y4039*
X3521Y4030*
X3535Y4019*
X3547Y4007*
X3559Y3994*
X3569Y3980*
X3580Y3965*
X3588Y3949*
X3597Y3932*
X3604Y3915*
X3611Y3896*
X3616Y3877*
X3621Y3858*
X3624Y3838*
X3628Y3818*
Y3796*
X3629Y3775*
X3628Y3747*
Y3722*
X3624Y3697*
X3621Y3673*
X3616Y3651*
X3611Y3629*
X3604Y3608*
X3597Y3589*
X3588Y3571*
X3579Y3554*
X3568Y3537*
X3556Y3522*
X3544Y3508*
X3530Y3495*
X3516Y3483*
X3500Y3471*
X3483Y3461*
X3466Y3452*
X3448Y3445*
X3430Y3439*
X3412Y3434*
X3392Y3430*
X3372Y3427*
X3352*
X3426Y7187D02*
X3417Y7284D01*
X3434Y7287*
X3449Y7291*
X3463Y7296*
X3476Y7302*
X3488Y7308*
X3499Y7315*
X3508Y7323*
X3516Y7331*
X3524Y7340*
X3529Y7350*
X3535Y7359*
X3539Y7371*
X3543Y7382*
X3545Y7394*
X3546Y7407*
X3547Y7419*
X3545Y7442*
X3541Y7463*
X3535Y7483*
X3526Y7501*
X3514Y7518*
X3501Y7533*
X3486Y7547*
X3469Y7558*
X3450Y7569*
X3428Y7579*
X3402Y7587*
X3373Y7595*
X3343Y7602*
X3312Y7607*
X3281Y7609*
X3250Y7611*
X3247*
X3242Y7610*
X3236*
X3230*
X3253Y7593*
X3274Y7574*
X3292Y7552*
X3308Y7527*
X3315Y7514*
X3321Y7501*
X3327Y7487*
X3331Y7473*
X3334Y7459*
X3336Y7444*
X3337Y7430*
X3338Y7415*
X3337Y7390*
X3333Y7366*
X3328Y7343*
X3320Y7320*
X3309Y7299*
X3296Y7279*
X3282Y7260*
X3264Y7243*
X3245Y7226*
X3224Y7211*
X3203Y7199*
X3179Y7190*
X3154Y7182*
X3128Y7176*
X3100Y7173*
X3070Y7172*
X3040Y7173*
X3011Y7177*
X2984Y7183*
X2958Y7191*
X2934Y7201*
X2911Y7214*
X2890Y7228*
X2870Y7246*
X2852Y7264*
X2836Y7284*
X2824Y7306*
X2813Y7328*
X2804Y7352*
X2799Y7377*
X2796Y7403*
X2794Y7430*
X2795Y7449*
X2796Y7469*
X2800Y7487*
X2805Y7506*
X2811Y7524*
X2818Y7542*
X2827Y7559*
X2837Y7575*
X2848Y7591*
X2860Y7607*
X2874Y7621*
X2889Y7634*
X2905Y7646*
X2922Y7657*
X2940Y7667*
X2960Y7676*
X2980Y7684*
X3004Y7691*
X3029Y7697*
X3056Y7702*
X3087Y7706*
X3119Y7708*
X3153Y7710*
X3189Y7711*
X3228Y7710*
X3264Y7708*
X3298Y7706*
X3331Y7702*
X3360Y7697*
X3389Y7691*
X3415Y7684*
X3440Y7676*
X3462Y7667*
X3483Y7657*
X3503Y7647*
X3521Y7634*
X3538Y7621*
X3554Y7607*
X3568Y7591*
X3580Y7575*
X3592Y7558*
X3602Y7540*
X3610Y7521*
X3617Y7502*
X3623Y7482*
X3626Y7461*
X3628Y7439*
X3629Y7418*
X3628Y7394*
X3626Y7371*
X3622Y7351*
X3616Y7330*
X3608Y7311*
X3600Y7293*
X3588Y7276*
X3576Y7260*
X3562Y7246*
X3547Y7233*
X3530Y7222*
X3512Y7211*
X3492Y7203*
X3472Y7196*
X3449Y7191*
X3426Y7187*
X3519Y5793D02*
X3616D01*
Y5251*
X3598*
X3580Y5254*
X3563Y5258*
X3546Y5263*
X3518Y5275*
X3491Y5290*
X3464Y5308*
X3437Y5329*
X3424Y5341*
X3409Y5355*
X3395Y5369*
X3380Y5385*
X3364Y5402*
X3348Y5420*
X3331Y5440*
X3313Y5461*
X3287Y5493*
X3261Y5522*
X3237Y5549*
X3215Y5572*
X3194Y5594*
X3174Y5612*
X3156Y5628*
X3140Y5642*
X3124Y5652*
X3108Y5663*
X3092Y5671*
X3077Y5677*
X3063Y5683*
X3048Y5686*
X3033Y5688*
X3019Y5689*
X3004Y5688*
X2990Y5687*
X2976Y5683*
X2964Y5679*
X2952Y5672*
X2940Y5665*
X2928Y5656*
X2918Y5646*
X2908Y5635*
X2900Y5623*
X2893Y5611*
X2888Y5597*
X2883Y5583*
X2880Y5567*
X2878Y5551*
X2877Y5535*
X2878Y5517*
X2880Y5500*
X2884Y5484*
X2888Y5469*
X2894Y5455*
X2902Y5442*
X2911Y5429*
X2920Y5418*
X2932Y5407*
X2944Y5399*
X2958Y5391*
X2972Y5385*
X2988Y5380*
X3005Y5377*
X3023Y5375*
X3041Y5374*
X3031Y5271*
X3003Y5274*
X2976Y5279*
X2952Y5287*
X2929Y5296*
X2908Y5307*
X2888Y5319*
X2871Y5334*
X2855Y5351*
X2840Y5368*
X2828Y5388*
X2818Y5409*
X2809Y5431*
X2803Y5455*
X2798Y5481*
X2795Y5508*
X2794Y5537*
X2795Y5565*
X2798Y5592*
X2804Y5618*
X2810Y5643*
X2820Y5665*
X2831Y5686*
X2844Y5705*
X2860Y5723*
X2876Y5739*
X2894Y5754*
X2912Y5765*
X2932Y5775*
X2953Y5783*
X2975Y5788*
X2997Y5791*
X3021Y5792*
X3046Y5791*
X3070Y5787*
X3094Y5781*
X3118Y5772*
X3130Y5767*
X3142Y5760*
X3154Y5753*
X3166Y5745*
X3179Y5736*
X3192Y5727*
X3204Y5716*
X3217Y5705*
X3232Y5692*
X3246Y5678*
X3263Y5661*
X3280Y5643*
X3298Y5623*
X3318Y5600*
X3340Y5576*
X3361Y5550*
X3380Y5528*
X3396Y5509*
X3412Y5491*
X3425Y5475*
X3437Y5462*
X3448Y5451*
X3457Y5441*
X3464Y5434*
X3478Y5422*
X3492Y5411*
X3505Y5400*
X3519Y5391*
Y5793*
X3616Y1749D02*
X2797D01*
Y2111*
Y2139*
X2799Y2163*
X2800Y2187*
X2803Y2208*
X2806Y2228*
X2810Y2247*
X2814Y2263*
X2820Y2278*
X2825Y2292*
X2832Y2305*
X2840Y2318*
X2850Y2329*
X2860Y2340*
X2872Y2351*
X2884Y2360*
X2897Y2369*
X2912Y2377*
X2926Y2384*
X2941Y2390*
X2956Y2395*
X2972Y2399*
X2988Y2401*
X3004Y2403*
X3020*
X3042*
X3063Y2400*
X3082Y2395*
X3101Y2389*
X3119Y2381*
X3136Y2371*
X3152Y2360*
X3168Y2347*
X3182Y2332*
X3195Y2315*
X3207Y2296*
X3216Y2275*
X3225Y2252*
X3233Y2227*
X3239Y2201*
X3244Y2173*
X3254Y2193*
X3264Y2211*
X3274Y2226*
X3284Y2238*
X3308Y2261*
X3333Y2284*
X3362Y2307*
X3393Y2327*
X3616Y2470*
Y2334*
X3445Y2226*
X3428Y2214*
X3411Y2203*
X3395Y2192*
X3380Y2183*
X3367Y2173*
X3355Y2164*
X3343Y2155*
X3333Y2147*
X3315Y2132*
X3300Y2119*
X3288Y2105*
X3278Y2092*
X3271Y2080*
X3265Y2068*
X3260Y2055*
X3256Y2043*
X3255Y2032*
X3253Y2019*
X3252Y2002*
Y1983*
Y1857*
X3616*
Y1749*
Y4227D02*
X2797D01*
Y4819*
X2894*
Y4335*
X3144*
Y4788*
X3240*
Y4335*
X3519*
Y4838*
X3616*
Y4227*
Y6915D02*
Y6815D01*
X2976*
X2992Y6795*
X3010Y6773*
X3028Y6747*
X3044Y6719*
X3061Y6691*
X3075Y6663*
X3087Y6638*
X3096Y6614*
X3000*
X2979Y6655*
X2956Y6693*
X2931Y6728*
X2904Y6761*
X2889Y6776*
X2876Y6791*
X2862Y6803*
X2848Y6815*
X2834Y6826*
X2820Y6835*
X2808Y6843*
X2794Y6851*
Y6915*
X3616*
G54D16*
X19678Y30108D02*
Y28246D01*
Y30753D02*
Y30108D01*
X21676Y28148D02*
Y29722D01*
X21678Y29724*
Y30108*
X22678D02*
Y28953D01*
G54D17*
X709Y9708D03*
X1039Y7872D03*
X1156Y11407D03*
X1172Y24847D03*
X1187Y15268D03*
X2144Y20445D03*
X2339Y21366D03*
X3139Y22378D03*
X3544Y27348D03*
X3842Y21133D03*
X3960Y23593D03*
X4322Y18408D03*
Y18921D03*
X4377Y28526D03*
X4416Y23587D03*
X4942Y28526D03*
X5262Y21834D03*
X5645Y8739D03*
X5812Y15959D03*
X5993Y21840D03*
X6154Y25328D03*
X6587Y3057D03*
X6705Y26541D03*
X6733Y16419D03*
X6807Y13957D03*
X7228Y17444D03*
X7262Y24198D03*
X7339Y29650D03*
X7360Y25308D03*
X7441Y20609D03*
X7453Y20142D03*
X7644Y18642D03*
X7672Y18158D03*
X7682Y17014D03*
X7811Y7295D03*
X7909Y26531D03*
X8024Y29471D03*
X8044Y15653D03*
X8059Y28035D03*
X8183Y24261D03*
X8226Y26709D03*
X8549Y26531D03*
X9011Y4272D03*
X9139Y26776D03*
X9450Y13443D03*
X9682Y15914D03*
X9784Y21709D03*
X9822Y29608D03*
X9950Y17330D03*
X9970Y4240D03*
X10101Y24651D03*
X10315Y16993D03*
X10325Y25646D03*
X10385Y18877D03*
X10416Y10214D03*
X10750Y25034D03*
X10786Y21856D03*
X10887Y2900D03*
X11026Y17132D03*
X11218Y21889D03*
X11395Y23340D03*
X11452Y14066D03*
X11684Y22453D03*
X11757Y26795D03*
X11951Y15994D03*
X12007Y23774D03*
X12115Y18625D03*
X12334Y17706D03*
X12439Y18110D03*
X12440Y20478D03*
X12441Y19492D03*
X12455Y4115D03*
X12462Y21520D03*
X12884Y23215D03*
X12991Y6855D03*
X13422Y23695D03*
X13653Y25209D03*
X13803Y21080D03*
Y21818D03*
X14147Y22152D03*
X14150Y19489D03*
X14167Y14066D03*
X14318Y4115D03*
X14479Y13443D03*
X14519Y21908D03*
X14805Y19392D03*
X14920Y15327D03*
X14966Y21998D03*
X15183Y22477D03*
X15347Y20008D03*
X15369Y18961D03*
X15517Y27618D03*
X15533Y6824D03*
X15559Y26543D03*
X15659Y9586D03*
X15742Y18752D03*
X15794Y14359D03*
X15887Y18395D03*
X16268Y19533D03*
X16308Y21670D03*
X16529Y14331D03*
X16750Y26940D03*
X16839Y16694D03*
X16887Y18983D03*
X17027Y18609D03*
X17123Y26698D03*
X17217Y20054D03*
X17417Y1958D03*
X17609Y25089D03*
X17655Y25530D03*
X17901Y18215D03*
X17928Y21492D03*
X17986Y28357D03*
X17998Y20631D03*
X18013Y9367D03*
X18073Y19524D03*
X18551Y26066D03*
X18656Y29390D03*
X19115Y17680D03*
X19302Y15132D03*
X19485Y25752D03*
X19520Y5066D03*
X19686Y22925D03*
X19708Y21806D03*
X19734Y27935D03*
X20399Y10120D03*
X20407Y26494D03*
X20623Y28636D03*
X20649Y17708D03*
X20675Y23502D03*
X20697Y13151D03*
X20731Y26740D03*
X20849Y27534D03*
X21165Y27195D03*
X21404Y10151D03*
X21635Y24391D03*
X22377Y10183D03*
X22492Y28767D03*
X23224Y7828D03*
X23287Y5725D03*
X23316Y16972D03*
X23319Y3653D03*
X23337Y18165D03*
X23350Y2021D03*
X23363Y19332D03*
X23365Y21587D03*
Y22592D03*
X23372Y20467D03*
X23379Y23415D03*
X23428Y10136D03*
G54D18*
X15855Y15809D03*
Y16242D03*
X16406Y15809D03*
Y16242D03*
G54D19*
X5289Y20879D03*
Y21430D03*
X8455Y1802D03*
Y2353D03*
X9450Y11991D03*
Y12543D03*
X9453Y1802D03*
Y2353D03*
X9591Y20468D03*
Y21020D03*
X10921Y18605D03*
Y19156D03*
X11457Y11991D03*
Y12543D03*
X11706Y18625D03*
Y19176D03*
X11935Y16437D03*
Y16988D03*
X12446Y11991D03*
Y12543D03*
X12455Y1802D03*
Y2353D03*
X13455Y1802D03*
Y2353D03*
X14099Y24652D03*
Y25203D03*
X14942Y15694D03*
Y16245D03*
X15206Y28445D03*
Y28996D03*
X15814Y14703D03*
Y15254D03*
X15998Y28432D03*
Y28983D03*
X16553Y14709D03*
Y15261D03*
X16754Y28465D03*
Y29016D03*
X16764Y27363D03*
Y27914D03*
X20171Y17659D03*
Y18211D03*
X20179Y21799D03*
Y22351D03*
X20187Y22930D03*
Y23481D03*
X21676Y27597D03*
Y28148D03*
X22493Y27617D03*
Y28168D03*
G54D20*
X13116Y18018D03*
Y18215D03*
Y18412D03*
Y18609D03*
Y18805D03*
Y19002D03*
Y19199D03*
Y19396D03*
Y19593D03*
Y19790D03*
Y19986D03*
Y20183D03*
Y20380D03*
Y20577D03*
Y20774D03*
Y20971D03*
Y21168D03*
Y21364D03*
Y21561D03*
Y21758D03*
Y21955D03*
Y22152D03*
Y22349D03*
Y22546D03*
Y22742D03*
X19022Y18018D03*
Y18215D03*
Y18412D03*
Y18609D03*
Y18805D03*
Y19002D03*
Y19199D03*
Y19396D03*
Y19593D03*
Y19790D03*
Y19986D03*
Y20183D03*
Y20380D03*
Y20577D03*
Y20774D03*
Y20971D03*
Y21168D03*
Y21364D03*
Y21561D03*
Y21758D03*
Y21955D03*
Y22152D03*
Y22349D03*
Y22546D03*
Y22742D03*
G54D21*
X15435Y29702D03*
Y30332D03*
X15947Y29702D03*
Y30332D03*
G54D22*
X22425Y16929D03*
Y17520D03*
Y18110D03*
Y18701D03*
Y19291D03*
Y19882D03*
Y20472D03*
Y21063D03*
Y21654D03*
Y22244D03*
Y22835D03*
X22429Y23425D03*
G54D23*
X5453Y1032D03*
Y11032D03*
G54D24*
X6453Y1032D03*
Y11032D03*
X7453Y1032D03*
Y11032D03*
X8453Y1032D03*
Y11032D03*
X9453Y1032D03*
Y11032D03*
X10453Y1032D03*
Y11032D03*
X11453Y1032D03*
Y11032D03*
X12453Y1032D03*
Y11032D03*
X13453Y1032D03*
Y11032D03*
X14453Y1032D03*
Y11032D03*
X15453Y1032D03*
Y11032D03*
X16453Y1032D03*
Y11032D03*
X17453Y1032D03*
Y11032D03*
X18453Y1032D03*
Y11032D03*
X19453Y1032D03*
Y11032D03*
X20453Y1032D03*
Y11032D03*
X21453Y1032D03*
Y11032D03*
X22453Y1032D03*
Y11032D03*
X23453Y1032D03*
Y11032D03*
G54D25*
X6449Y17628D03*
Y17884D03*
Y18140D03*
Y18396D03*
Y18652D03*
Y18907D03*
Y19163D03*
Y19419D03*
Y19675D03*
Y19931D03*
Y20187D03*
Y20443D03*
X8418Y17628D03*
Y17884D03*
Y18140D03*
Y18396D03*
Y18652D03*
Y18907D03*
Y19163D03*
Y19419D03*
Y19675D03*
Y19931D03*
Y20187D03*
Y20443D03*
G54D26*
X6227Y21216D03*
X6857D03*
X7343Y28695D03*
X7403Y27403D03*
X7973Y28695D03*
X7999Y21216D03*
X8033Y27403D03*
X8629Y21216D03*
G54D27*
X19341Y26788D03*
G54D28*
X18680Y26394D03*
Y27181D03*
X18692Y26551D03*
Y26709D03*
Y26866D03*
Y27024D03*
X19991Y26551D03*
Y26709D03*
Y26866D03*
Y27024D03*
X20003Y26394D03*
Y27181D03*
G54D29*
X18948Y26126D03*
Y27449D03*
X19105Y26138D03*
Y27437D03*
X19262Y26138D03*
Y27437D03*
X19420Y26138D03*
Y27437D03*
X19577Y26138D03*
Y27437D03*
X19735Y26126D03*
Y27449D03*
G54D30*
X18554Y25554D03*
X18948D03*
G54D31*
X18678Y30108D03*
X19678D03*
X20678D03*
X21678D03*
G54D32*
X22678D03*
G54D70*
X6154Y25800D03*
X6705D03*
X7358D03*
X7909D03*
X8549D03*
X9100D03*
X17498Y26712D03*
X18049D03*
X18313Y24933D03*
X18864D03*
G54D71*
X13707Y17427D03*
Y23333D03*
X13903Y17427D03*
Y23333D03*
X14100Y17427D03*
Y23333D03*
X14297Y17427D03*
Y23333D03*
X14494Y17427D03*
Y23333D03*
X14691Y17427D03*
Y23333D03*
X14888Y17427D03*
Y23333D03*
X15085Y17427D03*
Y23333D03*
X15281Y17427D03*
Y23333D03*
X15478Y17427D03*
Y23333D03*
X15675Y17427D03*
Y23333D03*
X15872Y17427D03*
Y23333D03*
X16069Y17427D03*
Y23333D03*
X16266Y17427D03*
Y23333D03*
X16463Y17427D03*
Y23333D03*
X16659Y17427D03*
Y23333D03*
X16856Y17427D03*
Y23333D03*
X17053Y17427D03*
Y23333D03*
X17250Y17427D03*
Y23333D03*
X17447Y17427D03*
Y23333D03*
X17644Y17427D03*
Y23333D03*
X17841Y17427D03*
Y23333D03*
X18037Y17427D03*
Y23333D03*
X18234Y17427D03*
Y23333D03*
X18431Y17427D03*
Y23333D03*
G54D72*
X1246Y14233D03*
Y19168D03*
Y24093D03*
Y29026D03*
X3057Y13733D03*
Y14733D03*
Y18668D03*
Y19668D03*
Y23593D03*
Y24593D03*
Y28526D03*
Y29526D03*
G54D73*
X11773Y28510D03*
Y30109D03*
X12273Y28510D03*
Y30109D03*
X12773Y28510D03*
Y30109D03*
X13273Y28510D03*
Y30109D03*
X13773Y28510D03*
Y30109D03*
M02*
