*
G04 Job   : E:\BOULED\DESIGN\MAIN_BOARD\BOULED_MAINBOARD\PCB\PCB.pcb*
G04 User  : DESKTOP-D6MOGOB:alexis*
G04 Layer : SoldermaskBottom.gdo*
G04 Date  : Sun Dec 30 04:46:13 2018*
G04 Mentor Graphics Example Gerber Output Definition*
%ICAS*%
%MOIN*%
%FSLAX24Y24*%
%OFA0.0000B0.0000*%
G90*
G74*
%AMVB_RECTANGLE*
21,1,$1,$2,0,0,$3*
%
%ADD23C,0.06102*%
%ADD27C,0.06496*%
%ADD10C,0.07874*%
%ADD22VB_RECTANGLE,0.06102X0.06102X270.00000*%
%ADD28VB_RECTANGLE,0.06496X0.06496X180.00000*%
%ADD20VB_RECTANGLE,0.01890X0.06496X270.00000*%
%ADD17VB_RECTANGLE,0.03228X0.06496X0.00000*%
%ADD25VB_RECTANGLE,0.03346X0.02165X0.00000*%
%ADD11VB_RECTANGLE,0.04134X0.06890X0.00000*%
%ADD18VB_RECTANGLE,0.04134X0.06890X270.00000*%
%ADD21VB_RECTANGLE,0.04528X0.02953X0.00000*%
%ADD24VB_RECTANGLE,0.04528X0.02953X270.00000*%
%ADD12VB_RECTANGLE,0.05709X0.07677X0.00000*%
%ADD71VB_RECTANGLE,0.06496X0.15551X270.00000*%
%ADD19VB_RECTANGLE,0.07283X0.10433X0.00000*%
%ADD13VB_RECTANGLE,0.07677X0.03740X270.00000*%
%ADD14VB_RECTANGLE,0.07677X0.05709X180.00000*%
%ADD15VB_RECTANGLE,0.07677X0.06102X180.00000*%
%ADD16VB_RECTANGLE,0.07677X0.18701X270.00000*%
%ADD26VB_RECTANGLE,0.10630X0.05709X0.00000*%
%ADD70VB_RECTANGLE,0.16339X0.06496X180.00000*%
G01*
G54D10*
X2152Y12680D03*
Y17615D03*
Y22540D03*
Y27473D03*
X3275Y9194D03*
X22863Y25392D03*
G54D11*
X8059Y22353D03*
X8689D03*
G54D12*
X9627Y22453D03*
X10808D03*
G54D13*
X6327Y28763D03*
X6760D03*
X7193D03*
X7626D03*
X8059D03*
X8493D03*
X8926D03*
X9359D03*
G54D14*
X6248Y24216D03*
X9142D03*
G54D15*
X6563Y29551D03*
X9122D03*
G54D16*
X10913Y18304D03*
Y19603D03*
G54D17*
X7692Y17565D03*
Y19573D03*
X8192Y17565D03*
Y19573D03*
X8692Y17565D03*
Y19573D03*
X9192Y17565D03*
Y19573D03*
G54D18*
X6684Y18339D03*
Y18969D03*
X11454Y20634D03*
Y21264D03*
X16277Y20260D03*
Y20890D03*
G54D19*
X8685Y21010D03*
X10378D03*
G54D20*
X3674Y16902D03*
Y17158D03*
Y17414D03*
Y17670D03*
X5465Y16902D03*
Y17158D03*
Y17414D03*
Y17670D03*
G54D21*
X6769Y16893D03*
Y17444D03*
X8044Y16108D03*
Y16659D03*
G54D22*
X5453Y1032D03*
Y11032D03*
G54D23*
X6453Y1032D03*
Y11032D03*
X7453Y1032D03*
Y11032D03*
X8453Y1032D03*
Y11032D03*
X9453Y1032D03*
Y11032D03*
X10453Y1032D03*
Y11032D03*
X11453Y1032D03*
Y11032D03*
X12453Y1032D03*
Y11032D03*
X13453Y1032D03*
Y11032D03*
X14453Y1032D03*
Y11032D03*
X15453Y1032D03*
Y11032D03*
X16453Y1032D03*
Y11032D03*
X17453Y1032D03*
Y11032D03*
X18453Y1032D03*
Y11032D03*
X19453Y1032D03*
Y11032D03*
X20453Y1032D03*
Y11032D03*
X21453Y1032D03*
Y11032D03*
X22453Y1032D03*
Y11032D03*
X23453Y1032D03*
Y11032D03*
G54D24*
X8698Y15892D03*
X8699Y16601D03*
X9250Y15892D03*
Y16601D03*
X12518Y23746D03*
X13070D03*
G54D25*
X6156Y17047D03*
Y17441D03*
G54D26*
X4993Y21109D03*
X6489D03*
G54D27*
X18678Y30108D03*
X19678D03*
X20678D03*
X21678D03*
G54D28*
X22678D03*
G54D70*
X3408Y19654D03*
Y20442D03*
G54D71*
X1223Y18729D03*
Y21367D03*
M02*
